<?xml version="1.0" encoding="UTF-8" standalone="no"?>
<!DOCTYPE svg PUBLIC "-//W3C//DTD SVG 1.1//EN"
 "http://www.w3.org/Graphics/SVG/1.1/DTD/svg11.dtd">
<!-- Generated by graphviz version 2.38.0 (20140413.2041)
 -->
<!-- Title: Source/DBColumnDefinition.h Pages: 1 -->
<svg width="334pt" height="98pt"
 viewBox="0.00 0.00 334.44 97.79" xmlns="http://www.w3.org/2000/svg" xmlns:xlink="http://www.w3.org/1999/xlink">
<g id="graph0" class="graph" transform="scale(1 1) rotate(0) translate(4 93.7898)">
<title>Source/DBColumnDefinition.h</title>
<!-- Node1 -->
<g id="node1" class="node"><title>Node1</title>
<polygon fill="#bfbfbf" stroke="black" points="87.485,-69.3599 87.485,-89.2898 237.585,-89.2898 237.585,-69.3599 87.485,-69.3599"/>
<text text-anchor="middle" x="162.535" y="-77.2898" font-family="Helvetica Neue" font-size="10.00">Source/DBColumnDefinition.h</text>
</g>
<!-- Node2 -->
<g id="node2" class="node"><title>Node2</title>
<g id="a_node2"><a xlink:href="_d_b_column_definition_8m.html" target="_top" xlink:title="Source/DBColumnDefinition.m">
<polygon fill="none" stroke="black" points="0,-6.46497 0,-26.3949 153.07,-26.3949 153.07,-6.46497 0,-6.46497"/>
<text text-anchor="middle" x="76.535" y="-14.3949" font-family="Helvetica Neue" font-size="10.00">Source/DBColumnDefinition.m</text>
</a>
</g>
</g>
<!-- Node1&#45;&gt;Node2 -->
<g id="edge1" class="edge"><title>Node1&#45;&gt;Node2</title>
<path fill="none" stroke="midnightblue" d="M141.452,-63.3961C125.115,-51.8283 103.017,-36.1813 89.2767,-26.452"/>
<polygon fill="midnightblue" stroke="midnightblue" points="139.662,-66.4172 149.845,-69.3396 143.707,-60.7043 139.662,-66.4172"/>
</g>
<!-- Node3 -->
<g id="node3" class="node"><title>Node3</title>
<g id="a_node3"><a xlink:href="_d_b_create_table_query_8m.html" target="_top" xlink:title="Source/Queries/DBCreateTable\lQuery.m">
<polygon fill="none" stroke="black" points="170.625,-0.5 170.625,-32.3599 326.445,-32.3599 326.445,-0.5 170.625,-0.5"/>
<text text-anchor="start" x="178.625" y="-20.3599" font-family="Helvetica Neue" font-size="10.00">Source/Queries/DBCreateTable</text>
<text text-anchor="middle" x="248.535" y="-8.42993" font-family="Helvetica Neue" font-size="10.00">Query.m</text>
</a>
</g>
</g>
<!-- Node1&#45;&gt;Node3 -->
<g id="edge2" class="edge"><title>Node1&#45;&gt;Node3</title>
<path fill="none" stroke="midnightblue" d="M183.681,-63.3518C196.893,-53.9965 213.855,-41.9864 227.118,-32.5951"/>
<polygon fill="midnightblue" stroke="midnightblue" points="181.363,-60.7043 175.225,-69.3396 185.408,-66.4172 181.363,-60.7043"/>
</g>
</g>
</svg>
