<?xml version="1.0" encoding="UTF-8" standalone="no"?>
<!DOCTYPE svg PUBLIC "-//W3C//DTD SVG 1.1//EN"
 "http://www.w3.org/Graphics/SVG/1.1/DTD/svg11.dtd">
<!-- Generated by graphviz version 2.38.0 (20140413.2041)
 -->
<!-- Title: Source/Connections/DBConnectionPool.m Pages: 1 -->
<svg width="440pt" height="167pt"
 viewBox="0.00 0.00 440.08 166.65" xmlns="http://www.w3.org/2000/svg" xmlns:xlink="http://www.w3.org/1999/xlink">
<g id="graph0" class="graph" transform="scale(1 1) rotate(0) translate(4 162.65)">
<title>Source/Connections/DBConnectionPool.m</title>
<!-- Node1 -->
<g id="node1" class="node"><title>Node1</title>
<polygon fill="#bfbfbf" stroke="black" points="212.575,-126.29 212.575,-158.15 328.775,-158.15 328.775,-126.29 212.575,-126.29"/>
<text text-anchor="start" x="220.575" y="-146.15" font-family="Helvetica Neue" font-size="10.00">Source/Connections</text>
<text text-anchor="middle" x="270.675" y="-134.22" font-family="Helvetica Neue" font-size="10.00">/DBConnectionPool.m</text>
</g>
<!-- Node2 -->
<g id="node2" class="node"><title>Node2</title>
<g id="a_node2"><a xlink:href="_d_b_connection_pool_8h.html" target="_top" xlink:title="DBConnectionPool.h">
<polygon fill="none" stroke="black" points="31.725,-69.3599 31.725,-89.2898 141.625,-89.2898 141.625,-69.3599 31.725,-69.3599"/>
<text text-anchor="middle" x="86.675" y="-77.2898" font-family="Helvetica Neue" font-size="10.00">DBConnectionPool.h</text>
</a>
</g>
</g>
<!-- Node1&#45;&gt;Node2 -->
<g id="edge1" class="edge"><title>Node1&#45;&gt;Node2</title>
<path fill="none" stroke="midnightblue" d="M225.192,-126.167C193.967,-115.833 153.041,-102.289 123.787,-92.607"/>
<polygon fill="midnightblue" stroke="midnightblue" points="124.554,-89.1744 113.961,-89.3551 122.355,-95.8199 124.554,-89.1744"/>
</g>
<!-- Node4 -->
<g id="node4" class="node"><title>Node4</title>
<g id="a_node4"><a xlink:href="_d_b_connection_8h.html" target="_top" xlink:title="DBConnection.h">
<polygon fill="none" stroke="black" points="176.815,-69.3599 176.815,-89.2898 266.535,-89.2898 266.535,-69.3599 176.815,-69.3599"/>
<text text-anchor="middle" x="221.675" y="-77.2898" font-family="Helvetica Neue" font-size="10.00">DBConnection.h</text>
</a>
</g>
</g>
<!-- Node1&#45;&gt;Node4 -->
<g id="edge3" class="edge"><title>Node1&#45;&gt;Node4</title>
<path fill="none" stroke="midnightblue" d="M258.563,-126.167C251.518,-117.413 242.62,-106.354 235.328,-97.2917"/>
<polygon fill="midnightblue" stroke="midnightblue" points="237.937,-94.9519 228.941,-89.3551 232.484,-99.3403 237.937,-94.9519"/>
</g>
<!-- Node6 -->
<g id="node6" class="node"><title>Node6</title>
<g id="a_node6"><a xlink:href="_d_b_utilities_8h.html" target="_top" xlink:title="DBUtilities.h">
<polygon fill="none" stroke="black" points="284.175,-69.3599 284.175,-89.2898 355.175,-89.2898 355.175,-69.3599 284.175,-69.3599"/>
<text text-anchor="middle" x="319.675" y="-77.2898" font-family="Helvetica Neue" font-size="10.00">DBUtilities.h</text>
</a>
</g>
</g>
<!-- Node1&#45;&gt;Node6 -->
<g id="edge5" class="edge"><title>Node1&#45;&gt;Node6</title>
<path fill="none" stroke="midnightblue" d="M282.787,-126.167C289.832,-117.413 298.73,-106.354 306.022,-97.2917"/>
<polygon fill="midnightblue" stroke="midnightblue" points="308.866,-99.3403 312.409,-89.3551 303.413,-94.9519 308.866,-99.3403"/>
</g>
<!-- Node8 -->
<g id="node8" class="node"><title>Node8</title>
<polygon fill="none" stroke="#bfbfbf" points="373.275,-69.3599 373.275,-89.2898 432.075,-89.2898 432.075,-69.3599 373.275,-69.3599"/>
<text text-anchor="middle" x="402.675" y="-77.2898" font-family="Helvetica Neue" font-size="10.00">pthread.h</text>
</g>
<!-- Node1&#45;&gt;Node8 -->
<g id="edge7" class="edge"><title>Node1&#45;&gt;Node8</title>
<path fill="none" stroke="midnightblue" d="M303.304,-126.167C324.922,-116.194 353.022,-103.231 373.822,-93.6355"/>
<polygon fill="midnightblue" stroke="midnightblue" points="375.486,-96.7223 383.1,-89.3551 372.554,-90.3661 375.486,-96.7223"/>
</g>
<!-- Node3 -->
<g id="node3" class="node"><title>Node3</title>
<polygon fill="none" stroke="#bfbfbf" points="1.42109e-14,-0.5 1.42109e-14,-32.3599 139.35,-32.3599 139.35,-0.5 1.42109e-14,-0.5"/>
<text text-anchor="start" x="8" y="-20.3599" font-family="Helvetica Neue" font-size="10.00">DatabaseKit/DBConnection</text>
<text text-anchor="middle" x="69.675" y="-8.42993" font-family="Helvetica Neue" font-size="10.00">Proxy.h</text>
</g>
<!-- Node2&#45;&gt;Node3 -->
<g id="edge2" class="edge"><title>Node2&#45;&gt;Node3</title>
<path fill="none" stroke="midnightblue" d="M84.1666,-69.3396C82.186,-62.2452 79.3225,-51.9877 76.663,-42.4612"/>
<polygon fill="midnightblue" stroke="midnightblue" points="79.9687,-41.2857 73.9087,-32.5951 73.2265,-43.168 79.9687,-41.2857"/>
</g>
<!-- Node5 -->
<g id="node5" class="node"><title>Node5</title>
<polygon fill="none" stroke="#bfbfbf" points="157.27,-6.46497 157.27,-26.3949 286.08,-26.3949 286.08,-6.46497 157.27,-6.46497"/>
<text text-anchor="middle" x="221.675" y="-14.3949" font-family="Helvetica Neue" font-size="10.00">Foundation/Foundation.h</text>
</g>
<!-- Node4&#45;&gt;Node5 -->
<g id="edge4" class="edge"><title>Node4&#45;&gt;Node5</title>
<path fill="none" stroke="midnightblue" d="M221.675,-69.3396C221.675,-60.7946 221.675,-47.6611 221.675,-36.7428"/>
<polygon fill="midnightblue" stroke="midnightblue" points="225.175,-36.452 221.675,-26.452 218.175,-36.4521 225.175,-36.452"/>
</g>
<!-- Node7 -->
<g id="node7" class="node"><title>Node7</title>
<polygon fill="none" stroke="#bfbfbf" points="303.795,-6.46497 303.795,-26.3949 355.555,-26.3949 355.555,-6.46497 303.795,-6.46497"/>
<text text-anchor="middle" x="329.675" y="-14.3949" font-family="Helvetica Neue" font-size="10.00">unistd.h</text>
</g>
<!-- Node6&#45;&gt;Node7 -->
<g id="edge6" class="edge"><title>Node6&#45;&gt;Node7</title>
<path fill="none" stroke="midnightblue" d="M321.151,-69.3396C322.569,-60.7047 324.756,-47.384 326.56,-36.3988"/>
<polygon fill="midnightblue" stroke="midnightblue" points="330.027,-36.8871 328.193,-26.452 323.119,-35.7527 330.027,-36.8871"/>
</g>
</g>
</svg>
