<?xml version="1.0" encoding="UTF-8" standalone="no"?>
<!DOCTYPE svg PUBLIC "-//W3C//DTD SVG 1.1//EN"
 "http://www.w3.org/Graphics/SVG/1.1/DTD/svg11.dtd">
<!-- Generated by graphviz version 2.38.0 (20140413.2041)
 -->
<!-- Title: Source/Queries/DBDeleteQuery.h Pages: 1 -->
<svg width="510pt" height="86pt"
 viewBox="0.00 0.00 510.41 85.86" xmlns="http://www.w3.org/2000/svg" xmlns:xlink="http://www.w3.org/1999/xlink">
<g id="graph0" class="graph" transform="scale(1 1) rotate(0) translate(4 81.8599)">
<title>Source/Queries/DBDeleteQuery.h</title>
<!-- Node1 -->
<g id="node1" class="node"><title>Node1</title>
<polygon fill="#bfbfbf" stroke="black" points="123.275,-57.4299 123.275,-77.3599 288.925,-77.3599 288.925,-57.4299 123.275,-57.4299"/>
<text text-anchor="middle" x="206.1" y="-65.3599" font-family="Helvetica Neue" font-size="10.00">Source/Queries/DBDeleteQuery.h</text>
</g>
<!-- Node2 -->
<g id="node2" class="node"><title>Node2</title>
<g id="a_node2"><a xlink:href="_d_b_8m.html" target="_top" xlink:title="Source/DB.m">
<polygon fill="none" stroke="black" points="-7.10543e-15,-0.5 -7.10543e-15,-20.4299 76.2,-20.4299 76.2,-0.5 -7.10543e-15,-0.5"/>
<text text-anchor="middle" x="38.1" y="-8.42993" font-family="Helvetica Neue" font-size="10.00">Source/DB.m</text>
</a>
</g>
</g>
<!-- Node1&#45;&gt;Node2 -->
<g id="edge1" class="edge"><title>Node1&#45;&gt;Node2</title>
<path fill="none" stroke="midnightblue" d="M168.698,-54.1659C137.475,-43.9571 93.6874,-29.64 65.6038,-20.4577"/>
<polygon fill="midnightblue" stroke="midnightblue" points="167.766,-57.5432 178.358,-57.3243 169.941,-50.8898 167.766,-57.5432"/>
</g>
<!-- Node3 -->
<g id="node3" class="node"><title>Node3</title>
<g id="a_node3"><a xlink:href="_d_b_model_8m.html" target="_top" xlink:title="Source/DBModel.m">
<polygon fill="none" stroke="black" points="94.015,-0.5 94.015,-20.4299 198.185,-20.4299 198.185,-0.5 94.015,-0.5"/>
<text text-anchor="middle" x="146.1" y="-8.42993" font-family="Helvetica Neue" font-size="10.00">Source/DBModel.m</text>
</a>
</g>
</g>
<!-- Node1&#45;&gt;Node3 -->
<g id="edge2" class="edge"><title>Node1&#45;&gt;Node3</title>
<path fill="none" stroke="midnightblue" d="M188.737,-50.4993C178.192,-40.8452 165.098,-28.8575 156.223,-20.7326"/>
<polygon fill="midnightblue" stroke="midnightblue" points="186.453,-53.1533 196.192,-57.3243 191.18,-47.9902 186.453,-53.1533"/>
</g>
<!-- Node4 -->
<g id="node4" class="node"><title>Node4</title>
<g id="a_node4"><a xlink:href="_d_b_table_8m.html" target="_top" xlink:title="Source/DBTable.m">
<polygon fill="none" stroke="black" points="216.24,-0.5 216.24,-20.4299 315.96,-20.4299 315.96,-0.5 216.24,-0.5"/>
<text text-anchor="middle" x="266.1" y="-8.42993" font-family="Helvetica Neue" font-size="10.00">Source/DBTable.m</text>
</a>
</g>
</g>
<!-- Node1&#45;&gt;Node4 -->
<g id="edge3" class="edge"><title>Node1&#45;&gt;Node4</title>
<path fill="none" stroke="midnightblue" d="M223.463,-50.4993C234.008,-40.8452 247.102,-28.8575 255.977,-20.7326"/>
<polygon fill="midnightblue" stroke="midnightblue" points="221.02,-47.9902 216.008,-57.3243 225.747,-53.1533 221.02,-47.9902"/>
</g>
<!-- Node5 -->
<g id="node5" class="node"><title>Node5</title>
<g id="a_node5"><a xlink:href="_d_b_delete_query_8m.html" target="_top" xlink:title="Source/Queries/DBDeleteQuery.m">
<polygon fill="none" stroke="black" points="333.79,-0.5 333.79,-20.4299 502.41,-20.4299 502.41,-0.5 333.79,-0.5"/>
<text text-anchor="middle" x="418.1" y="-8.42993" font-family="Helvetica Neue" font-size="10.00">Source/Queries/DBDeleteQuery.m</text>
</a>
</g>
</g>
<!-- Node1&#45;&gt;Node5 -->
<g id="edge4" class="edge"><title>Node1&#45;&gt;Node5</title>
<path fill="none" stroke="midnightblue" d="M251.013,-54.7578C290.537,-44.5169 347.264,-29.8189 383.393,-20.4577"/>
<polygon fill="midnightblue" stroke="midnightblue" points="249.91,-51.4279 241.107,-57.3243 251.666,-58.2042 249.91,-51.4279"/>
</g>
</g>
</svg>
