<?xml version="1.0" encoding="UTF-8" standalone="no"?>
<!DOCTYPE svg PUBLIC "-//W3C//DTD SVG 1.1//EN"
 "http://www.w3.org/Graphics/SVG/1.1/DTD/svg11.dtd">
<!-- Generated by graphviz version 2.38.0 (20140413.2041)
 -->
<!-- Title: Source/Queries/DBDropTableQuery.m Pages: 1 -->
<!--zoomable 155 -->
<svg id="main" version="1.1" xmlns="http://www.w3.org/2000/svg" xmlns:xlink="http://www.w3.org/1999/xlink" xml:space="preserve" onload="init(evt)">
<style type="text/css"><![CDATA[
.edge:hover path { stroke: red; }
.edge:hover polygon { stroke: red; fill: red; }
]]></style>
<script type="text/javascript"><![CDATA[
var edges = document.getElementsByTagName('g');
if (edges && edges.length) {
  for (var i=0;i<edges.length;i++) {
    if (edges[i].id.substr(0,4)=='edge') {
      edges[i].setAttribute('class','edge');
    }
  }
}
]]></script>
        <defs>
                <circle id="rim" cx="0" cy="0" r="7"/>
                <circle id="rim2" cx="0" cy="0" r="3.5"/>
                <g id="zoomPlus">
                        <use xlink:href="#rim" fill="#404040">
                                <set attributeName="fill" to="#808080" begin="zoomplus.mouseover" end="zoomplus.mouseout"/>
                        </use>
                        <path d="M-4,0h8M0,-4v8" fill="none" stroke="white" stroke-width="1.5" pointer-events="none"/>
                </g>
                <g id="zoomMin">
                        <use xlink:href="#rim" fill="#404040">
                                <set attributeName="fill" to="#808080" begin="zoomminus.mouseover" end="zoomminus.mouseout"/>
                        </use>
                        <path d="M-4,0h8" fill="none" stroke="white" stroke-width="1.5" pointer-events="none"/>
                </g>
                <g id="dirArrow">
                        <path fill="none" stroke="white" stroke-width="1.5" d="M0,-3.0v7 M-2.5,-0.5L0,-3.0L2.5,-0.5"/>
                </g>
               <g id="resetDef">
                       <use xlink:href="#rim2" fill="#404040">
                               <set attributeName="fill" to="#808080" begin="reset.mouseover" end="reset.mouseout"/>
                       </use>
               </g>
        </defs>

<script type="text/javascript">
var viewWidth = 634;
var viewHeight = 155;
var sectionId = 'dynsection-0';
</script>
<script xlink:href="svgpan.js"/>
<svg id="graph" class="graph">
<g id="viewport">
<title>Source/Queries/DBDropTableQuery.m</title>
<!-- Node1 -->
<g id="node1" class="node"><title>Node1</title>
<polygon fill="#bfbfbf" stroke="black" points="111.135,-114.36 111.135,-146.22 259.185,-146.22 259.185,-114.36 111.135,-114.36"/>
<text text-anchor="start" x="119.135" y="-134.22" font-family="Helvetica Neue" font-size="10.00">Source/Queries/DBDropTable</text>
<text text-anchor="middle" x="185.16" y="-122.29" font-family="Helvetica Neue" font-size="10.00">Query.m</text>
</g>
<!-- Node2 -->
<g id="node2" class="node"><title>Node2</title>
<g id="a_node2"><a xlink:href="_d_b_drop_table_query_8h.html" target="_top" xlink:title="DBDropTableQuery.h">
<polygon fill="none" stroke="black" points="6.295,-57.4299 6.295,-77.3599 116.025,-77.3599 116.025,-57.4299 6.295,-57.4299"/>
<text text-anchor="middle" x="61.16" y="-65.3599" font-family="Helvetica Neue" font-size="10.00">DBDropTableQuery.h</text>
</a>
</g>
</g>
<!-- Node1&#45;&gt;Node2 -->
<g id="edge1" class="edge"><title>Node1&#45;&gt;Node2</title>
<path fill="none" stroke="midnightblue" d="M154.508,-114.237C134.293,-104.309 108.043,-91.4185 88.5302,-81.8361"/>
<polygon fill="midnightblue" stroke="midnightblue" points="90.0673,-78.6917 79.5484,-77.4252 86.9816,-84.9749 90.0673,-78.6917"/>
</g>
<!-- Node4 -->
<g id="node4" class="node"><title>Node4</title>
<g id="a_node4"><a xlink:href="_d_b_query_09_private_8h.html" target="_top" xlink:title="DBQuery+Private.h">
<polygon fill="none" stroke="black" points="134.155,-57.4299 134.155,-77.3599 236.165,-77.3599 236.165,-57.4299 134.155,-57.4299"/>
<text text-anchor="middle" x="185.16" y="-65.3599" font-family="Helvetica Neue" font-size="10.00">DBQuery+Private.h</text>
</a>
</g>
</g>
<!-- Node1&#45;&gt;Node4 -->
<g id="edge3" class="edge"><title>Node1&#45;&gt;Node4</title>
<path fill="none" stroke="midnightblue" d="M185.16,-114.237C185.16,-106.205 185.16,-96.2325 185.16,-87.6423"/>
<polygon fill="midnightblue" stroke="midnightblue" points="188.66,-87.4252 185.16,-77.4252 181.66,-87.4252 188.66,-87.4252"/>
</g>
<!-- Node5 -->
<g id="node5" class="node"><title>Node5</title>
<g id="a_node5"><a xlink:href="_d_b_table_8h.html" target="_top" xlink:title="DBTable.h">
<polygon fill="none" stroke="black" points="307.285,-57.4299 307.285,-77.3599 369.035,-77.3599 369.035,-57.4299 307.285,-57.4299"/>
<text text-anchor="middle" x="338.16" y="-65.3599" font-family="Helvetica Neue" font-size="10.00">DBTable.h</text>
</a>
</g>
</g>
<!-- Node1&#45;&gt;Node5 -->
<g id="edge5" class="edge"><title>Node1&#45;&gt;Node5</title>
<path fill="none" stroke="midnightblue" d="M222.98,-114.237C248.491,-104.084 281.789,-90.831 306.017,-81.1879"/>
<polygon fill="midnightblue" stroke="midnightblue" points="307.474,-84.3751 315.471,-77.4252 304.886,-77.8713 307.474,-84.3751"/>
</g>
<!-- Node3 -->
<g id="node3" class="node"><title>Node3</title>
<polygon fill="none" stroke="#bfbfbf" points="-2.84217e-14,-0.5 -2.84217e-14,-20.4299 122.32,-20.4299 122.32,-0.5 -2.84217e-14,-0.5"/>
<text text-anchor="middle" x="61.16" y="-8.42993" font-family="Helvetica Neue" font-size="10.00">DatabaseKit/DBQuery.h</text>
</g>
<!-- Node2&#45;&gt;Node3 -->
<g id="edge2" class="edge"><title>Node2&#45;&gt;Node3</title>
<path fill="none" stroke="midnightblue" d="M61.16,-57.3243C61.16,-50.132 61.16,-39.825 61.16,-30.8035"/>
<polygon fill="midnightblue" stroke="midnightblue" points="64.6601,-30.7326 61.16,-20.7326 57.6601,-30.7326 64.6601,-30.7326"/>
</g>
<!-- Node4&#45;&gt;Node3 -->
<g id="edge4" class="edge"><title>Node4&#45;&gt;Node3</title>
<path fill="none" stroke="midnightblue" d="M164.684,-57.3243C144.581,-48.4189 113.698,-34.7383 90.8913,-24.6354"/>
<polygon fill="midnightblue" stroke="midnightblue" points="92.2272,-21.3992 81.6665,-20.549 89.392,-27.7994 92.2272,-21.3992"/>
</g>
<!-- Node6 -->
<g id="node6" class="node"><title>Node6</title>
<polygon fill="none" stroke="#bfbfbf" points="140.315,-0.5 140.315,-20.4299 288.005,-20.4299 288.005,-0.5 140.315,-0.5"/>
<text text-anchor="middle" x="214.16" y="-8.42993" font-family="Helvetica Neue" font-size="10.00">DatabaseKit/DBConnection.h</text>
</g>
<!-- Node5&#45;&gt;Node6 -->
<g id="edge6" class="edge"><title>Node5&#45;&gt;Node6</title>
<path fill="none" stroke="midnightblue" d="M317.684,-57.3243C297.581,-48.4189 266.698,-34.7383 243.891,-24.6354"/>
<polygon fill="midnightblue" stroke="midnightblue" points="245.227,-21.3992 234.666,-20.549 242.392,-27.7994 245.227,-21.3992"/>
</g>
<!-- Node7 -->
<g id="node7" class="node"><title>Node7</title>
<polygon fill="none" stroke="#bfbfbf" points="305.625,-0.5 305.625,-20.4299 478.695,-20.4299 478.695,-0.5 305.625,-0.5"/>
<text text-anchor="middle" x="392.16" y="-8.42993" font-family="Helvetica Neue" font-size="10.00">DatabaseKit/DBColumnDefinition.h</text>
</g>
<!-- Node5&#45;&gt;Node7 -->
<g id="edge7" class="edge"><title>Node5&#45;&gt;Node7</title>
<path fill="none" stroke="midnightblue" d="M347.077,-57.3243C354.925,-49.3416 366.544,-37.5221 376.021,-27.8818"/>
<polygon fill="midnightblue" stroke="midnightblue" points="378.535,-30.3175 383.049,-20.7326 373.543,-25.4101 378.535,-30.3175"/>
</g>
<!-- Node8 -->
<g id="node8" class="node"><title>Node8</title>
<polygon fill="none" stroke="#bfbfbf" points="496.755,-0.5 496.755,-20.4299 625.565,-20.4299 625.565,-0.5 496.755,-0.5"/>
<text text-anchor="middle" x="561.16" y="-8.42993" font-family="Helvetica Neue" font-size="10.00">Foundation/Foundation.h</text>
</g>
<!-- Node5&#45;&gt;Node8 -->
<g id="edge8" class="edge"><title>Node5&#45;&gt;Node8</title>
<path fill="none" stroke="midnightblue" d="M369.167,-58.7571C406.917,-49.4586 471.023,-33.6676 514.684,-22.9131"/>
<polygon fill="midnightblue" stroke="midnightblue" points="515.62,-26.2873 524.492,-20.4971 513.945,-19.4905 515.62,-26.2873"/>
</g>
</g>
</svg>
        <g id="navigator" transform="translate(0 0)" fill="#404254">
                <rect fill="#f2f5e9" fill-opacity="0.5" stroke="#606060" stroke-width=".5" x="0" y="0" width="60" height="60"/>
                <use id="zoomplus" xlink:href="#zoomPlus" x="17" y="9" onmousedown="handleZoom(evt,'in')"/>
                <use id="zoomminus" xlink:href="#zoomMin" x="42" y="9" onmousedown="handleZoom(evt,'out')"/>
                <use id="reset" xlink:href="#resetDef" x="30" y="36" onmousedown="handleReset()"/>
                <g id="arrowUp" xlink:href="#dirArrow" transform="translate(30 24)" onmousedown="handlePan(0,-1)">
                  <use xlink:href="#rim" fill="#404040">
                        <set attributeName="fill" to="#808080" begin="arrowUp.mouseover" end="arrowUp.mouseout"/>
                  </use>
                  <path fill="none" stroke="white" stroke-width="1.5" d="M0,-3.0v7 M-2.5,-0.5L0,-3.0L2.5,-0.5"/>
                </g>
                <g id="arrowRight" xlink:href="#dirArrow" transform="rotate(90) translate(36 -43)" onmousedown="handlePan(1,0)">
                  <use xlink:href="#rim" fill="#404040">
                        <set attributeName="fill" to="#808080" begin="arrowRight.mouseover" end="arrowRight.mouseout"/>
                  </use>
                  <path fill="none" stroke="white" stroke-width="1.5" d="M0,-3.0v7 M-2.5,-0.5L0,-3.0L2.5,-0.5"/>
                </g>
                <g id="arrowDown" xlink:href="#dirArrow" transform="rotate(180) translate(-30 -48)" onmousedown="handlePan(0,1)">
                  <use xlink:href="#rim" fill="#404040">
                        <set attributeName="fill" to="#808080" begin="arrowDown.mouseover" end="arrowDown.mouseout"/>
                  </use>
                  <path fill="none" stroke="white" stroke-width="1.5" d="M0,-3.0v7 M-2.5,-0.5L0,-3.0L2.5,-0.5"/>
                </g>
                <g id="arrowLeft" xlink:href="#dirArrow" transform="rotate(270) translate(-36 17)" onmousedown="handlePan(-1,0)">
                  <use xlink:href="#rim" fill="#404040">
                        <set attributeName="fill" to="#808080" begin="arrowLeft.mouseover" end="arrowLeft.mouseout"/>
                  </use>
                  <path fill="none" stroke="white" stroke-width="1.5" d="M0,-3.0v7 M-2.5,-0.5L0,-3.0L2.5,-0.5"/>
                </g>
        </g>
        <svg viewBox="0 0 15 15" width="100%" height="30px" preserveAspectRatio="xMaxYMin meet">
         <g id="arrow_out" transform="scale(0.3 0.3)">
          <a xlink:href="_d_b_drop_table_query_8m__incl_org.svg" target="_base">
           <rect id="button" ry="5" rx="5" y="6" x="6" height="38" width="38"
                fill="#f2f5e9" fill-opacity="0.5" stroke="#606060" stroke-width="1.0"/>
           <path id="arrow"
             d="M 11.500037,31.436501 C 11.940474,20.09759 22.043105,11.32322 32.158766,21.979434 L 37.068811,17.246167 C 37.068811,17.246167 37.088388,32 37.088388,32 L 22.160133,31.978069 C 22.160133,31.978069 26.997745,27.140456 26.997745,27.140456 C 18.528582,18.264221 13.291696,25.230495 11.500037,31.436501 z"
             style="fill:#404040;"/>
          </a>
         </g>
        </svg>
</svg>
