<?xml version="1.0" encoding="UTF-8" standalone="no"?>
<!DOCTYPE svg PUBLIC "-//W3C//DTD SVG 1.1//EN"
 "http://www.w3.org/Graphics/SVG/1.1/DTD/svg11.dtd">
<!-- Generated by graphviz version 2.38.0 (20140413.2041)
 -->
<!-- Title: Source/Connections/DBPostgresConnection.m Pages: 1 -->
<svg width="694pt" height="155pt"
 viewBox="0.00 0.00 693.52 154.72" xmlns="http://www.w3.org/2000/svg" xmlns:xlink="http://www.w3.org/1999/xlink">
<g id="graph0" class="graph" transform="scale(1 1) rotate(0) translate(4 150.72)">
<title>Source/Connections/DBPostgresConnection.m</title>
<!-- Node1 -->
<g id="node1" class="node"><title>Node1</title>
<polygon fill="#bfbfbf" stroke="black" points="304.02,-114.36 304.02,-146.22 439.67,-146.22 439.67,-114.36 304.02,-114.36"/>
<text text-anchor="start" x="312.02" y="-134.22" font-family="Helvetica Neue" font-size="10.00">Source/Connections</text>
<text text-anchor="middle" x="371.845" y="-122.29" font-family="Helvetica Neue" font-size="10.00">/DBPostgresConnection.m</text>
</g>
<!-- Node2 -->
<g id="node2" class="node"><title>Node2</title>
<g id="a_node2"><a xlink:href="_d_b_postgres_connection_8h.html" target="_top" xlink:title="DBPostgresConnection.h">
<polygon fill="none" stroke="black" points="27.17,-57.4299 27.17,-77.3599 156.52,-77.3599 156.52,-57.4299 27.17,-57.4299"/>
<text text-anchor="middle" x="91.845" y="-65.3599" font-family="Helvetica Neue" font-size="10.00">DBPostgresConnection.h</text>
</a>
</g>
</g>
<!-- Node1&#45;&gt;Node2 -->
<g id="edge1" class="edge"><title>Node1&#45;&gt;Node2</title>
<path fill="none" stroke="midnightblue" d="M303.707,-114.471C254.195,-103.703 188.229,-89.3567 143.139,-79.5504"/>
<polygon fill="midnightblue" stroke="midnightblue" points="143.798,-76.1121 133.283,-77.4069 142.311,-82.9522 143.798,-76.1121"/>
</g>
<!-- Node5 -->
<g id="node5" class="node"><title>Node5</title>
<g id="a_node5"><a xlink:href="_d_b_query_8h.html" target="_top" xlink:title="../Queries/DBQuery.h">
<polygon fill="none" stroke="black" points="174.335,-57.4299 174.335,-77.3599 285.355,-77.3599 285.355,-57.4299 174.335,-57.4299"/>
<text text-anchor="middle" x="229.845" y="-65.3599" font-family="Helvetica Neue" font-size="10.00">../Queries/DBQuery.h</text>
</a>
</g>
</g>
<!-- Node1&#45;&gt;Node5 -->
<g id="edge4" class="edge"><title>Node1&#45;&gt;Node5</title>
<path fill="none" stroke="midnightblue" d="M336.744,-114.237C313.278,-104.174 282.712,-91.0664 260.278,-81.4459"/>
<polygon fill="midnightblue" stroke="midnightblue" points="261.473,-78.1498 250.903,-77.4252 258.714,-84.5832 261.473,-78.1498"/>
</g>
<!-- Node7 -->
<g id="node7" class="node"><title>Node7</title>
<polygon fill="none" stroke="#bfbfbf" points="303.41,-57.4299 303.41,-77.3599 366.28,-77.3599 366.28,-57.4299 303.41,-57.4299"/>
<text text-anchor="middle" x="334.845" y="-65.3599" font-family="Helvetica Neue" font-size="10.00">../Debug.h</text>
</g>
<!-- Node1&#45;&gt;Node7 -->
<g id="edge8" class="edge"><title>Node1&#45;&gt;Node7</title>
<path fill="none" stroke="midnightblue" d="M362.699,-114.237C357.544,-105.753 351.075,-95.1059 345.668,-86.2082"/>
<polygon fill="midnightblue" stroke="midnightblue" points="348.516,-84.1539 340.332,-77.4252 342.533,-87.7888 348.516,-84.1539"/>
</g>
<!-- Node8 -->
<g id="node8" class="node"><title>Node8</title>
<polygon fill="none" stroke="#bfbfbf" points="383.965,-57.4299 383.965,-77.3599 435.725,-77.3599 435.725,-57.4299 383.965,-57.4299"/>
<text text-anchor="middle" x="409.845" y="-65.3599" font-family="Helvetica Neue" font-size="10.00">unistd.h</text>
</g>
<!-- Node1&#45;&gt;Node8 -->
<g id="edge9" class="edge"><title>Node1&#45;&gt;Node8</title>
<path fill="none" stroke="midnightblue" d="M381.238,-114.237C386.589,-105.663 393.318,-94.8791 398.906,-85.9248"/>
<polygon fill="midnightblue" stroke="midnightblue" points="401.885,-87.7619 404.21,-77.4252 395.946,-84.056 401.885,-87.7619"/>
</g>
<!-- Node9 -->
<g id="node9" class="node"><title>Node9</title>
<polygon fill="none" stroke="#bfbfbf" points="453.48,-57.4299 453.48,-77.3599 558.21,-77.3599 558.21,-57.4299 453.48,-57.4299"/>
<text text-anchor="middle" x="505.845" y="-65.3599" font-family="Helvetica Neue" font-size="10.00">dispatch/dispatch.h</text>
</g>
<!-- Node1&#45;&gt;Node9 -->
<g id="edge10" class="edge"><title>Node1&#45;&gt;Node9</title>
<path fill="none" stroke="midnightblue" d="M404.969,-114.237C427.013,-104.219 455.698,-91.1839 476.841,-81.5755"/>
<polygon fill="midnightblue" stroke="midnightblue" points="478.318,-84.7489 485.974,-77.4252 475.422,-78.3761 478.318,-84.7489"/>
</g>
<!-- Node10 -->
<g id="node10" class="node"><title>Node10</title>
<polygon fill="none" stroke="#bfbfbf" points="576.17,-57.4299 576.17,-77.3599 685.52,-77.3599 685.52,-57.4299 576.17,-57.4299"/>
<text text-anchor="middle" x="630.845" y="-65.3599" font-family="Helvetica Neue" font-size="10.00">postgresql/libpq&#45;fe.h</text>
</g>
<!-- Node1&#45;&gt;Node10 -->
<g id="edge11" class="edge"><title>Node1&#45;&gt;Node10</title>
<path fill="none" stroke="midnightblue" d="M435.535,-114.315C481.059,-103.612 541.361,-89.4339 582.853,-79.6785"/>
<polygon fill="midnightblue" stroke="midnightblue" points="583.781,-83.056 592.714,-77.3601 582.178,-76.2418 583.781,-83.056"/>
</g>
<!-- Node3 -->
<g id="node3" class="node"><title>Node3</title>
<polygon fill="none" stroke="#bfbfbf" points="165.44,-0.5 165.44,-20.4299 294.25,-20.4299 294.25,-0.5 165.44,-0.5"/>
<text text-anchor="middle" x="229.845" y="-8.42993" font-family="Helvetica Neue" font-size="10.00">Foundation/Foundation.h</text>
</g>
<!-- Node2&#45;&gt;Node3 -->
<g id="edge2" class="edge"><title>Node2&#45;&gt;Node3</title>
<path fill="none" stroke="midnightblue" d="M114.633,-57.3243C137.206,-48.3394 171.99,-34.4936 197.435,-24.3657"/>
<polygon fill="midnightblue" stroke="midnightblue" points="199.027,-27.4992 207.023,-20.549 196.438,-20.9954 199.027,-27.4992"/>
</g>
<!-- Node4 -->
<g id="node4" class="node"><title>Node4</title>
<polygon fill="none" stroke="#bfbfbf" points="0,-0.5 0,-20.4299 147.69,-20.4299 147.69,-0.5 0,-0.5"/>
<text text-anchor="middle" x="73.845" y="-8.42993" font-family="Helvetica Neue" font-size="10.00">DatabaseKit/DBConnection.h</text>
</g>
<!-- Node2&#45;&gt;Node4 -->
<g id="edge3" class="edge"><title>Node2&#45;&gt;Node4</title>
<path fill="none" stroke="midnightblue" d="M88.8727,-57.3243C86.4899,-50.053 83.0639,-39.5981 80.0847,-30.5065"/>
<polygon fill="midnightblue" stroke="midnightblue" points="83.3219,-29.1455 76.8819,-20.7326 76.67,-31.3253 83.3219,-29.1455"/>
</g>
<!-- Node5&#45;&gt;Node3 -->
<g id="edge7" class="edge"><title>Node5&#45;&gt;Node3</title>
<path fill="none" stroke="midnightblue" d="M229.845,-57.3243C229.845,-50.132 229.845,-39.825 229.845,-30.8035"/>
<polygon fill="midnightblue" stroke="midnightblue" points="233.345,-30.7326 229.845,-20.7326 226.345,-30.7326 233.345,-30.7326"/>
</g>
<!-- Node5&#45;&gt;Node4 -->
<g id="edge5" class="edge"><title>Node5&#45;&gt;Node4</title>
<path fill="none" stroke="midnightblue" d="M204.085,-57.3243C178.152,-48.1929 137.96,-34.0408 109.084,-23.8732"/>
<polygon fill="midnightblue" stroke="midnightblue" points="109.979,-20.4777 99.3842,-20.4577 107.654,-27.0804 109.979,-20.4777"/>
</g>
<!-- Node6 -->
<g id="node6" class="node"><title>Node6</title>
<polygon fill="none" stroke="#bfbfbf" points="312.605,-0.5 312.605,-20.4299 493.085,-20.4299 493.085,-0.5 312.605,-0.5"/>
<text text-anchor="middle" x="402.845" y="-8.42993" font-family="Helvetica Neue" font-size="10.00">DatabaseKit/DBSQLRepresentable.h</text>
</g>
<!-- Node5&#45;&gt;Node6 -->
<g id="edge6" class="edge"><title>Node5&#45;&gt;Node6</title>
<path fill="none" stroke="midnightblue" d="M258.412,-57.3243C287.423,-48.1131 332.523,-33.7932 364.602,-23.6077"/>
<polygon fill="midnightblue" stroke="midnightblue" points="366.051,-26.8199 374.523,-20.4577 363.932,-20.1481 366.051,-26.8199"/>
</g>
</g>
</svg>
