<?xml version="1.0" encoding="UTF-8" standalone="no"?>
<!DOCTYPE svg PUBLIC "-//W3C//DTD SVG 1.1//EN"
 "http://www.w3.org/Graphics/SVG/1.1/DTD/svg11.dtd">
<!-- Generated by graphviz version 2.38.0 (20140413.2041)
 -->
<!-- Title: Source/Queries/DBAlterTableQuery.m Pages: 1 -->
<svg width="634pt" height="155pt"
 viewBox="0.00 0.00 633.56 154.72" xmlns="http://www.w3.org/2000/svg" xmlns:xlink="http://www.w3.org/1999/xlink">
<g id="graph0" class="graph" transform="scale(1 1) rotate(0) translate(4 150.72)">
<title>Source/Queries/DBAlterTableQuery.m</title>
<!-- Node1 -->
<g id="node1" class="node"><title>Node1</title>
<polygon fill="#bfbfbf" stroke="black" points="110.79,-114.36 110.79,-146.22 257.53,-146.22 257.53,-114.36 110.79,-114.36"/>
<text text-anchor="start" x="118.79" y="-134.22" font-family="Helvetica Neue" font-size="10.00">Source/Queries/DBAlterTable</text>
<text text-anchor="middle" x="184.16" y="-122.29" font-family="Helvetica Neue" font-size="10.00">Query.m</text>
</g>
<!-- Node2 -->
<g id="node2" class="node"><title>Node2</title>
<g id="a_node2"><a xlink:href="_d_b_alter_table_query_8h.html" target="_top" xlink:title="DBAlterTableQuery.h">
<polygon fill="none" stroke="black" points="6.95,-57.4299 6.95,-77.3599 115.37,-77.3599 115.37,-57.4299 6.95,-57.4299"/>
<text text-anchor="middle" x="61.16" y="-65.3599" font-family="Helvetica Neue" font-size="10.00">DBAlterTableQuery.h</text>
</a>
</g>
</g>
<!-- Node1&#45;&gt;Node2 -->
<g id="edge1" class="edge"><title>Node1&#45;&gt;Node2</title>
<path fill="none" stroke="midnightblue" d="M153.755,-114.237C133.794,-104.355 107.901,-91.5356 88.5738,-81.9669"/>
<polygon fill="midnightblue" stroke="midnightblue" points="89.9149,-78.7255 79.4001,-77.4252 86.809,-84.9987 89.9149,-78.7255"/>
</g>
<!-- Node4 -->
<g id="node4" class="node"><title>Node4</title>
<g id="a_node4"><a xlink:href="_d_b_query_09_private_8h.html" target="_top" xlink:title="DBQuery+Private.h">
<polygon fill="none" stroke="black" points="133.155,-57.4299 133.155,-77.3599 235.165,-77.3599 235.165,-57.4299 133.155,-57.4299"/>
<text text-anchor="middle" x="184.16" y="-65.3599" font-family="Helvetica Neue" font-size="10.00">DBQuery+Private.h</text>
</a>
</g>
</g>
<!-- Node1&#45;&gt;Node4 -->
<g id="edge3" class="edge"><title>Node1&#45;&gt;Node4</title>
<path fill="none" stroke="midnightblue" d="M184.16,-114.237C184.16,-106.205 184.16,-96.2325 184.16,-87.6423"/>
<polygon fill="midnightblue" stroke="midnightblue" points="187.66,-87.4252 184.16,-77.4252 180.66,-87.4252 187.66,-87.4252"/>
</g>
<!-- Node5 -->
<g id="node5" class="node"><title>Node5</title>
<g id="a_node5"><a xlink:href="_d_b_table_8h.html" target="_top" xlink:title="DBTable.h">
<polygon fill="none" stroke="black" points="307.285,-57.4299 307.285,-77.3599 369.035,-77.3599 369.035,-57.4299 307.285,-57.4299"/>
<text text-anchor="middle" x="338.16" y="-65.3599" font-family="Helvetica Neue" font-size="10.00">DBTable.h</text>
</a>
</g>
</g>
<!-- Node1&#45;&gt;Node5 -->
<g id="edge5" class="edge"><title>Node1&#45;&gt;Node5</title>
<path fill="none" stroke="midnightblue" d="M222.227,-114.237C247.905,-104.084 281.42,-90.831 305.807,-81.1879"/>
<polygon fill="midnightblue" stroke="midnightblue" points="307.31,-84.3572 315.323,-77.4252 304.736,-77.8477 307.31,-84.3572"/>
</g>
<!-- Node3 -->
<g id="node3" class="node"><title>Node3</title>
<polygon fill="none" stroke="#bfbfbf" points="-2.84217e-14,-0.5 -2.84217e-14,-20.4299 122.32,-20.4299 122.32,-0.5 -2.84217e-14,-0.5"/>
<text text-anchor="middle" x="61.16" y="-8.42993" font-family="Helvetica Neue" font-size="10.00">DatabaseKit/DBQuery.h</text>
</g>
<!-- Node2&#45;&gt;Node3 -->
<g id="edge2" class="edge"><title>Node2&#45;&gt;Node3</title>
<path fill="none" stroke="midnightblue" d="M61.16,-57.3243C61.16,-50.132 61.16,-39.825 61.16,-30.8035"/>
<polygon fill="midnightblue" stroke="midnightblue" points="64.6601,-30.7326 61.16,-20.7326 57.6601,-30.7326 64.6601,-30.7326"/>
</g>
<!-- Node4&#45;&gt;Node3 -->
<g id="edge4" class="edge"><title>Node4&#45;&gt;Node3</title>
<path fill="none" stroke="midnightblue" d="M163.849,-57.3243C143.908,-48.4189 113.274,-34.7383 90.6515,-24.6354"/>
<polygon fill="midnightblue" stroke="midnightblue" points="92.0592,-21.431 81.5011,-20.549 89.2048,-27.8226 92.0592,-21.431"/>
</g>
<!-- Node6 -->
<g id="node6" class="node"><title>Node6</title>
<polygon fill="none" stroke="#bfbfbf" points="140.315,-0.5 140.315,-20.4299 288.005,-20.4299 288.005,-0.5 140.315,-0.5"/>
<text text-anchor="middle" x="214.16" y="-8.42993" font-family="Helvetica Neue" font-size="10.00">DatabaseKit/DBConnection.h</text>
</g>
<!-- Node5&#45;&gt;Node6 -->
<g id="edge6" class="edge"><title>Node5&#45;&gt;Node6</title>
<path fill="none" stroke="midnightblue" d="M317.684,-57.3243C297.581,-48.4189 266.698,-34.7383 243.891,-24.6354"/>
<polygon fill="midnightblue" stroke="midnightblue" points="245.227,-21.3992 234.666,-20.549 242.392,-27.7994 245.227,-21.3992"/>
</g>
<!-- Node7 -->
<g id="node7" class="node"><title>Node7</title>
<polygon fill="none" stroke="#bfbfbf" points="305.625,-0.5 305.625,-20.4299 478.695,-20.4299 478.695,-0.5 305.625,-0.5"/>
<text text-anchor="middle" x="392.16" y="-8.42993" font-family="Helvetica Neue" font-size="10.00">DatabaseKit/DBColumnDefinition.h</text>
</g>
<!-- Node5&#45;&gt;Node7 -->
<g id="edge7" class="edge"><title>Node5&#45;&gt;Node7</title>
<path fill="none" stroke="midnightblue" d="M347.077,-57.3243C354.925,-49.3416 366.544,-37.5221 376.021,-27.8818"/>
<polygon fill="midnightblue" stroke="midnightblue" points="378.535,-30.3175 383.049,-20.7326 373.543,-25.4101 378.535,-30.3175"/>
</g>
<!-- Node8 -->
<g id="node8" class="node"><title>Node8</title>
<polygon fill="none" stroke="#bfbfbf" points="496.755,-0.5 496.755,-20.4299 625.565,-20.4299 625.565,-0.5 496.755,-0.5"/>
<text text-anchor="middle" x="561.16" y="-8.42993" font-family="Helvetica Neue" font-size="10.00">Foundation/Foundation.h</text>
</g>
<!-- Node5&#45;&gt;Node8 -->
<g id="edge8" class="edge"><title>Node5&#45;&gt;Node8</title>
<path fill="none" stroke="midnightblue" d="M369.167,-58.7571C406.917,-49.4586 471.023,-33.6676 514.684,-22.9131"/>
<polygon fill="midnightblue" stroke="midnightblue" points="515.62,-26.2873 524.492,-20.4971 513.945,-19.4905 515.62,-26.2873"/>
</g>
</g>
</svg>
