<?xml version="1.0" encoding="UTF-8" standalone="no"?>
<!DOCTYPE svg PUBLIC "-//W3C//DTD SVG 1.1//EN"
 "http://www.w3.org/Graphics/SVG/1.1/DTD/svg11.dtd">
<!-- Generated by graphviz version 2.38.0 (20140413.2041)
 -->
<!-- Title: Source/Queries/DBDeleteQuery.m Pages: 1 -->
<svg width="832pt" height="143pt"
 viewBox="0.00 0.00 832.40 142.79" xmlns="http://www.w3.org/2000/svg" xmlns:xlink="http://www.w3.org/1999/xlink">
<g id="graph0" class="graph" transform="scale(1 1) rotate(0) translate(4 138.79)">
<title>Source/Queries/DBDeleteQuery.m</title>
<!-- Node1 -->
<g id="node1" class="node"><title>Node1</title>
<polygon fill="#bfbfbf" stroke="black" points="213.85,-114.36 213.85,-134.29 382.47,-134.29 382.47,-114.36 213.85,-114.36"/>
<text text-anchor="middle" x="298.16" y="-122.29" font-family="Helvetica Neue" font-size="10.00">Source/Queries/DBDeleteQuery.m</text>
</g>
<!-- Node2 -->
<g id="node2" class="node"><title>Node2</title>
<g id="a_node2"><a xlink:href="_d_b_query_09_private_8h.html" target="_top" xlink:title="DBQuery+Private.h">
<polygon fill="none" stroke="black" points="25.155,-57.4299 25.155,-77.3599 127.165,-77.3599 127.165,-57.4299 25.155,-57.4299"/>
<text text-anchor="middle" x="76.16" y="-65.3599" font-family="Helvetica Neue" font-size="10.00">DBQuery+Private.h</text>
</a>
</g>
</g>
<!-- Node1&#45;&gt;Node2 -->
<g id="edge1" class="edge"><title>Node1&#45;&gt;Node2</title>
<path fill="none" stroke="midnightblue" d="M261.501,-114.254C223.388,-104.824 163.632,-90.0383 122.324,-79.8172"/>
<polygon fill="midnightblue" stroke="midnightblue" points="123.052,-76.3921 112.504,-77.3876 121.371,-83.1871 123.052,-76.3921"/>
</g>
<!-- Node4 -->
<g id="node4" class="node"><title>Node4</title>
<g id="a_node4"><a xlink:href="_d_b_delete_query_8h.html" target="_top" xlink:title="DBDeleteQuery.h">
<polygon fill="none" stroke="black" points="174.725,-57.4299 174.725,-77.3599 267.595,-77.3599 267.595,-57.4299 174.725,-57.4299"/>
<text text-anchor="middle" x="221.16" y="-65.3599" font-family="Helvetica Neue" font-size="10.00">DBDeleteQuery.h</text>
</a>
</g>
</g>
<!-- Node1&#45;&gt;Node4 -->
<g id="edge3" class="edge"><title>Node1&#45;&gt;Node4</title>
<path fill="none" stroke="midnightblue" d="M285.445,-114.254C273.742,-105.905 256.155,-93.3597 242.333,-83.4995"/>
<polygon fill="midnightblue" stroke="midnightblue" points="244.067,-80.4372 233.894,-77.4789 240.002,-86.1357 244.067,-80.4372"/>
</g>
<!-- Node5 -->
<g id="node5" class="node"><title>Node5</title>
<g id="a_node5"><a xlink:href="_d_b_table_8h.html" target="_top" xlink:title="DBTable.h">
<polygon fill="none" stroke="black" points="345.285,-57.4299 345.285,-77.3599 407.035,-77.3599 407.035,-57.4299 345.285,-57.4299"/>
<text text-anchor="middle" x="376.16" y="-65.3599" font-family="Helvetica Neue" font-size="10.00">DBTable.h</text>
</a>
</g>
</g>
<!-- Node1&#45;&gt;Node5 -->
<g id="edge5" class="edge"><title>Node1&#45;&gt;Node5</title>
<path fill="none" stroke="midnightblue" d="M311.04,-114.254C322.895,-105.905 340.71,-93.3597 354.712,-83.4995"/>
<polygon fill="midnightblue" stroke="midnightblue" points="357.1,-86.0984 363.261,-77.4789 353.069,-80.3752 357.1,-86.0984"/>
</g>
<!-- Node9 -->
<g id="node9" class="node"><title>Node9</title>
<g id="a_node9"><a xlink:href="_n_s_predicate_09_d_b_s_q_l_representable_8h.html" target="_top" xlink:title="NSPredicate+DBSQLRepresentable.h">
<polygon fill="none" stroke="black" points="468.85,-57.4299 468.85,-77.3599 653.47,-77.3599 653.47,-57.4299 468.85,-57.4299"/>
<text text-anchor="middle" x="561.16" y="-65.3599" font-family="Helvetica Neue" font-size="10.00">NSPredicate+DBSQLRepresentable.h</text>
</a>
</g>
</g>
<!-- Node1&#45;&gt;Node9 -->
<g id="edge9" class="edge"><title>Node1&#45;&gt;Node9</title>
<path fill="none" stroke="midnightblue" d="M341.295,-114.316C386.967,-104.777 459.108,-89.7094 508.2,-79.4561"/>
<polygon fill="midnightblue" stroke="midnightblue" points="508.929,-82.8795 518.002,-77.4089 507.497,-76.0274 508.929,-82.8795"/>
</g>
<!-- Node3 -->
<g id="node3" class="node"><title>Node3</title>
<polygon fill="none" stroke="#bfbfbf" points="-2.84217e-14,-0.5 -2.84217e-14,-20.4299 122.32,-20.4299 122.32,-0.5 -2.84217e-14,-0.5"/>
<text text-anchor="middle" x="61.16" y="-8.42993" font-family="Helvetica Neue" font-size="10.00">DatabaseKit/DBQuery.h</text>
</g>
<!-- Node2&#45;&gt;Node3 -->
<g id="edge2" class="edge"><title>Node2&#45;&gt;Node3</title>
<path fill="none" stroke="midnightblue" d="M73.6831,-57.3243C71.6974,-50.053 68.8424,-39.5981 66.3598,-30.5065"/>
<polygon fill="midnightblue" stroke="midnightblue" points="69.7015,-29.4574 63.6908,-20.7326 62.9488,-31.3014 69.7015,-29.4574"/>
</g>
<!-- Node4&#45;&gt;Node3 -->
<g id="edge4" class="edge"><title>Node4&#45;&gt;Node3</title>
<path fill="none" stroke="midnightblue" d="M194.739,-57.3243C168.025,-48.153 126.559,-33.9171 96.9153,-23.7402"/>
<polygon fill="midnightblue" stroke="midnightblue" points="97.9487,-20.3945 87.3541,-20.4577 95.6757,-27.0152 97.9487,-20.3945"/>
</g>
<!-- Node6 -->
<g id="node6" class="node"><title>Node6</title>
<polygon fill="none" stroke="#bfbfbf" points="140.315,-0.5 140.315,-20.4299 288.005,-20.4299 288.005,-0.5 140.315,-0.5"/>
<text text-anchor="middle" x="214.16" y="-8.42993" font-family="Helvetica Neue" font-size="10.00">DatabaseKit/DBConnection.h</text>
</g>
<!-- Node5&#45;&gt;Node6 -->
<g id="edge6" class="edge"><title>Node5&#45;&gt;Node6</title>
<path fill="none" stroke="midnightblue" d="M349.409,-57.3243C322.361,-48.153 280.376,-33.9171 250.362,-23.7402"/>
<polygon fill="midnightblue" stroke="midnightblue" points="251.276,-20.3543 240.681,-20.4577 249.028,-26.9836 251.276,-20.3543"/>
</g>
<!-- Node7 -->
<g id="node7" class="node"><title>Node7</title>
<polygon fill="none" stroke="#bfbfbf" points="305.625,-0.5 305.625,-20.4299 478.695,-20.4299 478.695,-0.5 305.625,-0.5"/>
<text text-anchor="middle" x="392.16" y="-8.42993" font-family="Helvetica Neue" font-size="10.00">DatabaseKit/DBColumnDefinition.h</text>
</g>
<!-- Node5&#45;&gt;Node7 -->
<g id="edge7" class="edge"><title>Node5&#45;&gt;Node7</title>
<path fill="none" stroke="midnightblue" d="M378.802,-57.3243C380.92,-50.053 383.965,-39.5981 386.614,-30.5065"/>
<polygon fill="midnightblue" stroke="midnightblue" points="390.024,-31.3124 389.461,-20.7326 383.304,-29.3548 390.024,-31.3124"/>
</g>
<!-- Node8 -->
<g id="node8" class="node"><title>Node8</title>
<polygon fill="none" stroke="#bfbfbf" points="496.755,-0.5 496.755,-20.4299 625.565,-20.4299 625.565,-0.5 496.755,-0.5"/>
<text text-anchor="middle" x="561.16" y="-8.42993" font-family="Helvetica Neue" font-size="10.00">Foundation/Foundation.h</text>
</g>
<!-- Node5&#45;&gt;Node8 -->
<g id="edge8" class="edge"><title>Node5&#45;&gt;Node8</title>
<path fill="none" stroke="midnightblue" d="M406.709,-57.3243C438,-48.0334 486.797,-33.5448 521.152,-23.3441"/>
<polygon fill="midnightblue" stroke="midnightblue" points="522.283,-26.6594 530.873,-20.4577 520.29,-19.9489 522.283,-26.6594"/>
</g>
<!-- Node9&#45;&gt;Node8 -->
<g id="edge10" class="edge"><title>Node9&#45;&gt;Node8</title>
<path fill="none" stroke="midnightblue" d="M561.16,-57.3243C561.16,-50.132 561.16,-39.825 561.16,-30.8035"/>
<polygon fill="midnightblue" stroke="midnightblue" points="564.66,-30.7326 561.16,-20.7326 557.66,-30.7326 564.66,-30.7326"/>
</g>
<!-- Node10 -->
<g id="node10" class="node"><title>Node10</title>
<polygon fill="none" stroke="#bfbfbf" points="643.92,-0.5 643.92,-20.4299 824.4,-20.4299 824.4,-0.5 643.92,-0.5"/>
<text text-anchor="middle" x="734.16" y="-8.42993" font-family="Helvetica Neue" font-size="10.00">DatabaseKit/DBSQLRepresentable.h</text>
</g>
<!-- Node9&#45;&gt;Node10 -->
<g id="edge11" class="edge"><title>Node9&#45;&gt;Node10</title>
<path fill="none" stroke="midnightblue" d="M589.727,-57.3243C618.738,-48.1131 663.838,-33.7932 695.917,-23.6077"/>
<polygon fill="midnightblue" stroke="midnightblue" points="697.366,-26.8199 705.838,-20.4577 695.247,-20.1481 697.366,-26.8199"/>
</g>
</g>
</svg>
