<?xml version="1.0" encoding="UTF-8" standalone="no"?>
<!DOCTYPE svg PUBLIC "-//W3C//DTD SVG 1.1//EN"
 "http://www.w3.org/Graphics/SVG/1.1/DTD/svg11.dtd">
<!-- Generated by graphviz version 2.38.0 (20140413.2041)
 -->
<!-- Title: Source/Connections/DBSQLiteConnection.m Pages: 1 -->
<!--zoomable 155 -->
<svg id="main" version="1.1" xmlns="http://www.w3.org/2000/svg" xmlns:xlink="http://www.w3.org/1999/xlink" xml:space="preserve" onload="init(evt)">
<style type="text/css"><![CDATA[
.edge:hover path { stroke: red; }
.edge:hover polygon { stroke: red; fill: red; }
]]></style>
<script type="text/javascript"><![CDATA[
var edges = document.getElementsByTagName('g');
if (edges && edges.length) {
  for (var i=0;i<edges.length;i++) {
    if (edges[i].id.substr(0,4)=='edge') {
      edges[i].setAttribute('class','edge');
    }
  }
}
]]></script>
        <defs>
                <circle id="rim" cx="0" cy="0" r="7"/>
                <circle id="rim2" cx="0" cy="0" r="3.5"/>
                <g id="zoomPlus">
                        <use xlink:href="#rim" fill="#404040">
                                <set attributeName="fill" to="#808080" begin="zoomplus.mouseover" end="zoomplus.mouseout"/>
                        </use>
                        <path d="M-4,0h8M0,-4v8" fill="none" stroke="white" stroke-width="1.5" pointer-events="none"/>
                </g>
                <g id="zoomMin">
                        <use xlink:href="#rim" fill="#404040">
                                <set attributeName="fill" to="#808080" begin="zoomminus.mouseover" end="zoomminus.mouseout"/>
                        </use>
                        <path d="M-4,0h8" fill="none" stroke="white" stroke-width="1.5" pointer-events="none"/>
                </g>
                <g id="dirArrow">
                        <path fill="none" stroke="white" stroke-width="1.5" d="M0,-3.0v7 M-2.5,-0.5L0,-3.0L2.5,-0.5"/>
                </g>
               <g id="resetDef">
                       <use xlink:href="#rim2" fill="#404040">
                               <set attributeName="fill" to="#808080" begin="reset.mouseover" end="reset.mouseout"/>
                       </use>
               </g>
        </defs>

<script type="text/javascript">
var viewWidth = 866;
var viewHeight = 155;
var sectionId = 'dynsection-0';
</script>
<script xlink:href="svgpan.js"/>
<svg id="graph" class="graph">
<g id="viewport">
<title>Source/Connections/DBSQLiteConnection.m</title>
<!-- Node1 -->
<g id="node1" class="node"><title>Node1</title>
<polygon fill="#bfbfbf" stroke="black" points="471.23,-114.36 471.23,-146.22 597.63,-146.22 597.63,-114.36 471.23,-114.36"/>
<text text-anchor="start" x="479.23" y="-134.22" font-family="Helvetica Neue" font-size="10.00">Source/Connections</text>
<text text-anchor="middle" x="534.43" y="-122.29" font-family="Helvetica Neue" font-size="10.00">/DBSQLiteConnection.m</text>
</g>
<!-- Node2 -->
<g id="node2" class="node"><title>Node2</title>
<g id="a_node2"><a xlink:href="_d_b_s_q_lite_connection_8h.html" target="_top" xlink:title="DBSQLiteConnection.h">
<polygon fill="none" stroke="black" points="334.38,-57.4299 334.38,-77.3599 454.48,-77.3599 454.48,-57.4299 334.38,-57.4299"/>
<text text-anchor="middle" x="394.43" y="-65.3599" font-family="Helvetica Neue" font-size="10.00">DBSQLiteConnection.h</text>
</a>
</g>
</g>
<!-- Node1&#45;&gt;Node2 -->
<g id="edge1" class="edge"><title>Node1&#45;&gt;Node2</title>
<path fill="none" stroke="midnightblue" d="M499.823,-114.237C476.688,-104.174 446.553,-91.0664 424.435,-81.4459"/>
<polygon fill="midnightblue" stroke="midnightblue" points="425.757,-78.2044 415.191,-77.4252 422.965,-84.6235 425.757,-78.2044"/>
</g>
<!-- Node5 -->
<g id="node5" class="node"><title>Node5</title>
<g id="a_node5"><a xlink:href="_d_b_query_8h.html" target="_top" xlink:title="DBQuery.h">
<polygon fill="none" stroke="black" points="472.255,-57.4299 472.255,-77.3599 536.605,-77.3599 536.605,-57.4299 472.255,-57.4299"/>
<text text-anchor="middle" x="504.43" y="-65.3599" font-family="Helvetica Neue" font-size="10.00">DBQuery.h</text>
</a>
</g>
</g>
<!-- Node1&#45;&gt;Node5 -->
<g id="edge4" class="edge"><title>Node1&#45;&gt;Node5</title>
<path fill="none" stroke="midnightblue" d="M527.014,-114.237C522.879,-105.844 517.701,-95.3322 513.346,-86.4927"/>
<polygon fill="midnightblue" stroke="midnightblue" points="516.438,-84.8489 508.879,-77.4252 510.159,-87.9425 516.438,-84.8489"/>
</g>
<!-- Node7 -->
<g id="node7" class="node"><title>Node7</title>
<g id="a_node7"><a xlink:href="_d_b_utilities_8h.html" target="_top" xlink:title="DBUtilities.h">
<polygon fill="none" stroke="black" points="592.93,-57.4299 592.93,-77.3599 663.93,-77.3599 663.93,-57.4299 592.93,-57.4299"/>
<text text-anchor="middle" x="628.43" y="-65.3599" font-family="Helvetica Neue" font-size="10.00">DBUtilities.h</text>
</a>
</g>
</g>
<!-- Node1&#45;&gt;Node7 -->
<g id="edge8" class="edge"><title>Node1&#45;&gt;Node7</title>
<path fill="none" stroke="midnightblue" d="M557.666,-114.237C572.433,-104.67 591.449,-92.3521 606.048,-82.8942"/>
<polygon fill="midnightblue" stroke="midnightblue" points="608.001,-85.7997 614.49,-77.4252 604.195,-79.9248 608.001,-85.7997"/>
</g>
<!-- Node8 -->
<g id="node8" class="node"><title>Node8</title>
<polygon fill="none" stroke="#bfbfbf" points="683.55,-0.5 683.55,-20.4299 735.31,-20.4299 735.31,-0.5 683.55,-0.5"/>
<text text-anchor="middle" x="709.43" y="-8.42993" font-family="Helvetica Neue" font-size="10.00">unistd.h</text>
</g>
<!-- Node1&#45;&gt;Node8 -->
<g id="edge14" class="edge"><title>Node1&#45;&gt;Node8</title>
<path fill="none" stroke="midnightblue" d="M541.332,-114.197C549.481,-97.9365 564.487,-72.3276 584.43,-56.9299 598.697,-45.9147 642.044,-31.4277 673.701,-21.7989"/>
<polygon fill="midnightblue" stroke="midnightblue" points="674.945,-25.08 683.517,-18.8539 672.933,-18.3753 674.945,-25.08"/>
</g>
<!-- Node9 -->
<g id="node9" class="node"><title>Node9</title>
<g id="a_node9"><a xlink:href="_d_b_i_s_o8601_date_formatter_8h.html" target="_top" xlink:title="DBISO8601DateFormatter.h">
<polygon fill="none" stroke="black" points="5.68434e-14,-57.4299 5.68434e-14,-77.3599 140.86,-77.3599 140.86,-57.4299 5.68434e-14,-57.4299"/>
<text text-anchor="middle" x="70.43" y="-65.3599" font-family="Helvetica Neue" font-size="10.00">DBISO8601DateFormatter.h</text>
</a>
</g>
</g>
<!-- Node1&#45;&gt;Node9 -->
<g id="edge10" class="edge"><title>Node1&#45;&gt;Node9</title>
<path fill="none" stroke="midnightblue" d="M470.886,-120.95C387.035,-109.946 239.488,-90.582 148.81,-78.6815"/>
<polygon fill="midnightblue" stroke="midnightblue" points="149.229,-75.2065 138.859,-77.3754 148.318,-82.147 149.229,-75.2065"/>
</g>
<!-- Node10 -->
<g id="node10" class="node"><title>Node10</title>
<g id="a_node10"><a xlink:href="_d_b_pointer_collection_additions_8h.html" target="_top" xlink:title="DBPointerCollectionAdditions.h">
<polygon fill="none" stroke="black" points="158.87,-57.4299 158.87,-77.3599 315.99,-77.3599 315.99,-57.4299 158.87,-57.4299"/>
<text text-anchor="middle" x="237.43" y="-65.3599" font-family="Helvetica Neue" font-size="10.00">DBPointerCollectionAdditions.h</text>
</a>
</g>
</g>
<!-- Node1&#45;&gt;Node10 -->
<g id="edge12" class="edge"><title>Node1&#45;&gt;Node10</title>
<path fill="none" stroke="midnightblue" d="M471.08,-116.301C417.687,-105.354 342.113,-89.8583 291.518,-79.4848"/>
<polygon fill="midnightblue" stroke="midnightblue" points="291.932,-75.9968 281.433,-77.4169 290.526,-82.8542 291.932,-75.9968"/>
</g>
<!-- Node11 -->
<g id="node11" class="node"><title>Node11</title>
<polygon fill="none" stroke="#bfbfbf" points="681.535,-57.4299 681.535,-77.3599 735.325,-77.3599 735.325,-57.4299 681.535,-57.4299"/>
<text text-anchor="middle" x="708.43" y="-65.3599" font-family="Helvetica Neue" font-size="10.00">sqlite3.h</text>
</g>
<!-- Node1&#45;&gt;Node11 -->
<g id="edge15" class="edge"><title>Node1&#45;&gt;Node11</title>
<path fill="none" stroke="midnightblue" d="M577.441,-114.237C606.84,-103.948 645.333,-90.4771 672.972,-80.8041"/>
<polygon fill="midnightblue" stroke="midnightblue" points="674.344,-84.0321 682.627,-77.4252 672.032,-77.425 674.344,-84.0321"/>
</g>
<!-- Node12 -->
<g id="node12" class="node"><title>Node12</title>
<polygon fill="none" stroke="#bfbfbf" points="753.065,-57.4299 753.065,-77.3599 857.795,-77.3599 857.795,-57.4299 753.065,-57.4299"/>
<text text-anchor="middle" x="805.43" y="-65.3599" font-family="Helvetica Neue" font-size="10.00">dispatch/dispatch.h</text>
</g>
<!-- Node1&#45;&gt;Node12 -->
<g id="edge16" class="edge"><title>Node1&#45;&gt;Node12</title>
<path fill="none" stroke="midnightblue" d="M597.967,-115.013C646.008,-104.218 711.051,-89.6023 755.42,-79.6324"/>
<polygon fill="midnightblue" stroke="midnightblue" points="756.405,-82.9985 765.394,-77.3912 754.87,-76.1688 756.405,-82.9985"/>
</g>
<!-- Node3 -->
<g id="node3" class="node"><title>Node3</title>
<polygon fill="none" stroke="#bfbfbf" points="173.025,-0.5 173.025,-20.4299 301.835,-20.4299 301.835,-0.5 173.025,-0.5"/>
<text text-anchor="middle" x="237.43" y="-8.42993" font-family="Helvetica Neue" font-size="10.00">Foundation/Foundation.h</text>
</g>
<!-- Node2&#45;&gt;Node3 -->
<g id="edge2" class="edge"><title>Node2&#45;&gt;Node3</title>
<path fill="none" stroke="midnightblue" d="M368.505,-57.3243C342.405,-48.1929 301.956,-34.0408 272.895,-23.8732"/>
<polygon fill="midnightblue" stroke="midnightblue" points="273.728,-20.4566 263.133,-20.4577 271.416,-27.0638 273.728,-20.4566"/>
</g>
<!-- Node4 -->
<g id="node4" class="node"><title>Node4</title>
<polygon fill="none" stroke="#bfbfbf" points="319.585,-0.5 319.585,-20.4299 467.275,-20.4299 467.275,-0.5 319.585,-0.5"/>
<text text-anchor="middle" x="393.43" y="-8.42993" font-family="Helvetica Neue" font-size="10.00">DatabaseKit/DBConnection.h</text>
</g>
<!-- Node2&#45;&gt;Node4 -->
<g id="edge3" class="edge"><title>Node2&#45;&gt;Node4</title>
<path fill="none" stroke="midnightblue" d="M394.265,-57.3243C394.134,-50.132 393.946,-39.825 393.782,-30.8035"/>
<polygon fill="midnightblue" stroke="midnightblue" points="397.28,-30.6672 393.599,-20.7326 390.281,-30.7947 397.28,-30.6672"/>
</g>
<!-- Node5&#45;&gt;Node3 -->
<g id="edge7" class="edge"><title>Node5&#45;&gt;Node3</title>
<path fill="none" stroke="midnightblue" d="M472.22,-58.8684C469.251,-58.202 466.286,-57.5468 463.43,-56.9299 405.966,-44.5196 340.039,-31.3824 294.281,-22.4384"/>
<polygon fill="midnightblue" stroke="midnightblue" points="294.742,-18.9626 284.257,-20.4832 293.402,-25.8331 294.742,-18.9626"/>
</g>
<!-- Node5&#45;&gt;Node4 -->
<g id="edge5" class="edge"><title>Node5&#45;&gt;Node4</title>
<path fill="none" stroke="midnightblue" d="M486.101,-57.3243C468.346,-48.5382 441.199,-35.1039 420.868,-25.0432"/>
<polygon fill="midnightblue" stroke="midnightblue" points="422.302,-21.8474 411.787,-20.549 419.197,-28.1212 422.302,-21.8474"/>
</g>
<!-- Node6 -->
<g id="node6" class="node"><title>Node6</title>
<polygon fill="none" stroke="#bfbfbf" points="485.19,-0.5 485.19,-20.4299 665.67,-20.4299 665.67,-0.5 485.19,-0.5"/>
<text text-anchor="middle" x="575.43" y="-8.42993" font-family="Helvetica Neue" font-size="10.00">DatabaseKit/DBSQLRepresentable.h</text>
</g>
<!-- Node5&#45;&gt;Node6 -->
<g id="edge6" class="edge"><title>Node5&#45;&gt;Node6</title>
<path fill="none" stroke="midnightblue" d="M516.154,-57.3243C526.779,-49.1045 542.662,-36.8165 555.313,-27.0287"/>
<polygon fill="midnightblue" stroke="midnightblue" points="557.683,-29.62 563.451,-20.7326 553.4,-24.0835 557.683,-29.62"/>
</g>
<!-- Node7&#45;&gt;Node8 -->
<g id="edge9" class="edge"><title>Node7&#45;&gt;Node8</title>
<path fill="none" stroke="midnightblue" d="M641.806,-57.3243C654.234,-48.896 672.97,-36.1904 687.571,-26.2886"/>
<polygon fill="midnightblue" stroke="midnightblue" points="689.723,-29.0584 696.035,-20.549 685.794,-23.2649 689.723,-29.0584"/>
</g>
<!-- Node9&#45;&gt;Node3 -->
<g id="edge11" class="edge"><title>Node9&#45;&gt;Node3</title>
<path fill="none" stroke="midnightblue" d="M98.0067,-57.3243C126.011,-48.1131 169.547,-33.7932 200.513,-23.6077"/>
<polygon fill="midnightblue" stroke="midnightblue" points="201.684,-26.9071 210.09,-20.4577 199.497,-20.2575 201.684,-26.9071"/>
</g>
<!-- Node10&#45;&gt;Node3 -->
<g id="edge13" class="edge"><title>Node10&#45;&gt;Node3</title>
<path fill="none" stroke="midnightblue" d="M237.43,-57.3243C237.43,-50.132 237.43,-39.825 237.43,-30.8035"/>
<polygon fill="midnightblue" stroke="midnightblue" points="240.93,-30.7326 237.43,-20.7326 233.93,-30.7326 240.93,-30.7326"/>
</g>
</g>
</svg>
        <g id="navigator" transform="translate(0 0)" fill="#404254">
                <rect fill="#f2f5e9" fill-opacity="0.5" stroke="#606060" stroke-width=".5" x="0" y="0" width="60" height="60"/>
                <use id="zoomplus" xlink:href="#zoomPlus" x="17" y="9" onmousedown="handleZoom(evt,'in')"/>
                <use id="zoomminus" xlink:href="#zoomMin" x="42" y="9" onmousedown="handleZoom(evt,'out')"/>
                <use id="reset" xlink:href="#resetDef" x="30" y="36" onmousedown="handleReset()"/>
                <g id="arrowUp" xlink:href="#dirArrow" transform="translate(30 24)" onmousedown="handlePan(0,-1)">
                  <use xlink:href="#rim" fill="#404040">
                        <set attributeName="fill" to="#808080" begin="arrowUp.mouseover" end="arrowUp.mouseout"/>
                  </use>
                  <path fill="none" stroke="white" stroke-width="1.5" d="M0,-3.0v7 M-2.5,-0.5L0,-3.0L2.5,-0.5"/>
                </g>
                <g id="arrowRight" xlink:href="#dirArrow" transform="rotate(90) translate(36 -43)" onmousedown="handlePan(1,0)">
                  <use xlink:href="#rim" fill="#404040">
                        <set attributeName="fill" to="#808080" begin="arrowRight.mouseover" end="arrowRight.mouseout"/>
                  </use>
                  <path fill="none" stroke="white" stroke-width="1.5" d="M0,-3.0v7 M-2.5,-0.5L0,-3.0L2.5,-0.5"/>
                </g>
                <g id="arrowDown" xlink:href="#dirArrow" transform="rotate(180) translate(-30 -48)" onmousedown="handlePan(0,1)">
                  <use xlink:href="#rim" fill="#404040">
                        <set attributeName="fill" to="#808080" begin="arrowDown.mouseover" end="arrowDown.mouseout"/>
                  </use>
                  <path fill="none" stroke="white" stroke-width="1.5" d="M0,-3.0v7 M-2.5,-0.5L0,-3.0L2.5,-0.5"/>
                </g>
                <g id="arrowLeft" xlink:href="#dirArrow" transform="rotate(270) translate(-36 17)" onmousedown="handlePan(-1,0)">
                  <use xlink:href="#rim" fill="#404040">
                        <set attributeName="fill" to="#808080" begin="arrowLeft.mouseover" end="arrowLeft.mouseout"/>
                  </use>
                  <path fill="none" stroke="white" stroke-width="1.5" d="M0,-3.0v7 M-2.5,-0.5L0,-3.0L2.5,-0.5"/>
                </g>
        </g>
        <svg viewBox="0 0 15 15" width="100%" height="30px" preserveAspectRatio="xMaxYMin meet">
         <g id="arrow_out" transform="scale(0.3 0.3)">
          <a xlink:href="_d_b_s_q_lite_connection_8m__incl_org.svg" target="_base">
           <rect id="button" ry="5" rx="5" y="6" x="6" height="38" width="38"
                fill="#f2f5e9" fill-opacity="0.5" stroke="#606060" stroke-width="1.0"/>
           <path id="arrow"
             d="M 11.500037,31.436501 C 11.940474,20.09759 22.043105,11.32322 32.158766,21.979434 L 37.068811,17.246167 C 37.068811,17.246167 37.088388,32 37.088388,32 L 22.160133,31.978069 C 22.160133,31.978069 26.997745,27.140456 26.997745,27.140456 C 18.528582,18.264221 13.291696,25.230495 11.500037,31.436501 z"
             style="fill:#404040;"/>
          </a>
         </g>
        </svg>
</svg>
