<?xml version="1.0" encoding="UTF-8" standalone="no"?>
<!DOCTYPE svg PUBLIC "-//W3C//DTD SVG 1.1//EN"
 "http://www.w3.org/Graphics/SVG/1.1/DTD/svg11.dtd">
<!-- Generated by graphviz version 2.38.0 (20140413.2041)
 -->
<!-- Title: Source/DBModel+Private.h Pages: 1 -->
<svg width="540pt" height="86pt"
 viewBox="0.00 0.00 539.65 85.86" xmlns="http://www.w3.org/2000/svg" xmlns:xlink="http://www.w3.org/1999/xlink">
<g id="graph0" class="graph" transform="scale(1 1) rotate(0) translate(4 81.8599)">
<title>Source/DBModel+Private.h</title>
<!-- Node1 -->
<g id="node1" class="node"><title>Node1</title>
<polygon fill="#bfbfbf" stroke="black" points="170.56,-57.4299 170.56,-77.3599 308.68,-77.3599 308.68,-57.4299 170.56,-57.4299"/>
<text text-anchor="middle" x="239.62" y="-65.3599" font-family="Helvetica Neue" font-size="10.00">Source/DBModel+Private.h</text>
</g>
<!-- Node2 -->
<g id="node2" class="node"><title>Node2</title>
<g id="a_node2"><a xlink:href="_d_b_09_migrations_8m.html" target="_top" xlink:title="Source/DB+Migrations.m">
<polygon fill="none" stroke="black" points="0,-0.5 0,-20.4299 129.24,-20.4299 129.24,-0.5 0,-0.5"/>
<text text-anchor="middle" x="64.62" y="-8.42993" font-family="Helvetica Neue" font-size="10.00">Source/DB+Migrations.m</text>
</a>
</g>
</g>
<!-- Node1&#45;&gt;Node2 -->
<g id="edge1" class="edge"><title>Node1&#45;&gt;Node2</title>
<path fill="none" stroke="midnightblue" d="M201.082,-54.2982C168.531,-44.0812 122.65,-29.6798 93.2698,-20.4577"/>
<polygon fill="midnightblue" stroke="midnightblue" points="200.133,-57.6688 210.722,-57.3243 202.229,-50.9901 200.133,-57.6688"/>
</g>
<!-- Node3 -->
<g id="node3" class="node"><title>Node3</title>
<g id="a_node3"><a xlink:href="_d_b_8m.html" target="_top" xlink:title="Source/DB.m">
<polygon fill="none" stroke="black" points="147.52,-0.5 147.52,-20.4299 223.72,-20.4299 223.72,-0.5 147.52,-0.5"/>
<text text-anchor="middle" x="185.62" y="-8.42993" font-family="Helvetica Neue" font-size="10.00">Source/DB.m</text>
</a>
</g>
</g>
<!-- Node1&#45;&gt;Node3 -->
<g id="edge2" class="edge"><title>Node1&#45;&gt;Node3</title>
<path fill="none" stroke="midnightblue" d="M223.433,-49.9288C214.042,-40.3766 202.561,-28.6981 194.731,-20.7326"/>
<polygon fill="midnightblue" stroke="midnightblue" points="221.197,-52.6468 230.703,-57.3243 226.188,-47.7395 221.197,-52.6468"/>
</g>
<!-- Node4 -->
<g id="node4" class="node"><title>Node4</title>
<g id="a_node4"><a xlink:href="_d_b_model_8m.html" target="_top" xlink:title="Source/DBModel.m">
<polygon fill="none" stroke="black" points="241.535,-0.5 241.535,-20.4299 345.705,-20.4299 345.705,-0.5 241.535,-0.5"/>
<text text-anchor="middle" x="293.62" y="-8.42993" font-family="Helvetica Neue" font-size="10.00">Source/DBModel.m</text>
</a>
</g>
</g>
<!-- Node1&#45;&gt;Node4 -->
<g id="edge3" class="edge"><title>Node1&#45;&gt;Node4</title>
<path fill="none" stroke="midnightblue" d="M255.807,-49.9288C265.198,-40.3766 276.679,-28.6981 284.509,-20.7326"/>
<polygon fill="midnightblue" stroke="midnightblue" points="253.052,-47.7395 248.537,-57.3243 258.043,-52.6468 253.052,-47.7395"/>
</g>
<!-- Node5 -->
<g id="node5" class="node"><title>Node5</title>
<g id="a_node5"><a xlink:href="_d_b_select_query_8m.html" target="_top" xlink:title="Source/Queries/DBSelectQuery.m">
<polygon fill="none" stroke="black" points="363.59,-0.5 363.59,-20.4299 531.65,-20.4299 531.65,-0.5 363.59,-0.5"/>
<text text-anchor="middle" x="447.62" y="-8.42993" font-family="Helvetica Neue" font-size="10.00">Source/Queries/DBSelectQuery.m</text>
</a>
</g>
</g>
<!-- Node1&#45;&gt;Node5 -->
<g id="edge4" class="edge"><title>Node1&#45;&gt;Node5</title>
<path fill="none" stroke="midnightblue" d="M283.933,-54.6925C322.7,-44.4545 378.195,-29.799 413.568,-20.4577"/>
<polygon fill="midnightblue" stroke="midnightblue" points="282.742,-51.387 273.967,-57.3243 284.529,-58.1549 282.742,-51.387"/>
</g>
</g>
</svg>
