<?xml version="1.0" encoding="UTF-8" standalone="no"?>
<!DOCTYPE svg PUBLIC "-//W3C//DTD SVG 1.1//EN"
 "http://www.w3.org/Graphics/SVG/1.1/DTD/svg11.dtd">
<!-- Generated by graphviz version 2.38.0 (20140413.2041)
 -->
<!-- Title: Source/Connections/DBSQLiteConnection.h Pages: 1 -->
<svg width="302pt" height="98pt"
 viewBox="0.00 0.00 302.25 97.79" xmlns="http://www.w3.org/2000/svg" xmlns:xlink="http://www.w3.org/1999/xlink">
<g id="graph0" class="graph" transform="scale(1 1) rotate(0) translate(4 93.7898)">
<title>Source/Connections/DBSQLiteConnection.h</title>
<!-- Node1 -->
<g id="node1" class="node"><title>Node1</title>
<polygon fill="#bfbfbf" stroke="black" points="80.69,-57.4299 80.69,-89.2898 204.12,-89.2898 204.12,-57.4299 80.69,-57.4299"/>
<text text-anchor="start" x="88.69" y="-77.2898" font-family="Helvetica Neue" font-size="10.00">Source/Connections</text>
<text text-anchor="middle" x="142.405" y="-65.3599" font-family="Helvetica Neue" font-size="10.00">/DBSQLiteConnection.h</text>
</g>
<!-- Node2 -->
<g id="node2" class="node"><title>Node2</title>
<polygon fill="none" stroke="#bfbfbf" points="0,-0.5 0,-20.4299 128.81,-20.4299 128.81,-0.5 0,-0.5"/>
<text text-anchor="middle" x="64.405" y="-8.42993" font-family="Helvetica Neue" font-size="10.00">Foundation/Foundation.h</text>
</g>
<!-- Node1&#45;&gt;Node2 -->
<g id="edge1" class="edge"><title>Node1&#45;&gt;Node2</title>
<path fill="none" stroke="midnightblue" d="M123.124,-57.3072C111.217,-48.0113 95.982,-36.1172 84.0144,-26.7741"/>
<polygon fill="midnightblue" stroke="midnightblue" points="86.0081,-23.8903 75.9719,-20.4953 81.7004,-29.4079 86.0081,-23.8903"/>
</g>
<!-- Node3 -->
<g id="node3" class="node"><title>Node3</title>
<polygon fill="none" stroke="#bfbfbf" points="146.56,-0.5 146.56,-20.4299 294.25,-20.4299 294.25,-0.5 146.56,-0.5"/>
<text text-anchor="middle" x="220.405" y="-8.42993" font-family="Helvetica Neue" font-size="10.00">DatabaseKit/DBConnection.h</text>
</g>
<!-- Node1&#45;&gt;Node3 -->
<g id="edge2" class="edge"><title>Node1&#45;&gt;Node3</title>
<path fill="none" stroke="midnightblue" d="M161.686,-57.3072C173.593,-48.0113 188.828,-36.1172 200.796,-26.7741"/>
<polygon fill="midnightblue" stroke="midnightblue" points="203.11,-29.4079 208.838,-20.4953 198.802,-23.8903 203.11,-29.4079"/>
</g>
</g>
</svg>
