<?xml version="1.0" encoding="UTF-8" standalone="no"?>
<!DOCTYPE svg PUBLIC "-//W3C//DTD SVG 1.1//EN"
 "http://www.w3.org/Graphics/SVG/1.1/DTD/svg11.dtd">
<!-- Generated by graphviz version 2.38.0 (20140413.2041)
 -->
<!-- Title: Source/DBIndex.h Pages: 1 -->
<svg width="256pt" height="86pt"
 viewBox="0.00 0.00 256.03 85.86" xmlns="http://www.w3.org/2000/svg" xmlns:xlink="http://www.w3.org/1999/xlink">
<g id="graph0" class="graph" transform="scale(1 1) rotate(0) translate(4 81.8599)">
<title>Source/DBIndex.h</title>
<!-- Node1 -->
<g id="node1" class="node"><title>Node1</title>
<polygon fill="#bfbfbf" stroke="black" points="81.69,-57.4299 81.69,-77.3599 179.55,-77.3599 179.55,-57.4299 81.69,-57.4299"/>
<text text-anchor="middle" x="130.62" y="-65.3599" font-family="Helvetica Neue" font-size="10.00">Source/DBIndex.h</text>
</g>
<!-- Node2 -->
<g id="node2" class="node"><title>Node2</title>
<g id="a_node2"><a xlink:href="_d_b_09_migrations_8m.html" target="_top" xlink:title="Source/DB+Migrations.m">
<polygon fill="none" stroke="black" points="0,-0.5 0,-20.4299 129.24,-20.4299 129.24,-0.5 0,-0.5"/>
<text text-anchor="middle" x="64.62" y="-8.42993" font-family="Helvetica Neue" font-size="10.00">Source/DB+Migrations.m</text>
</a>
</g>
</g>
<!-- Node1&#45;&gt;Node2 -->
<g id="edge1" class="edge"><title>Node1&#45;&gt;Node2</title>
<path fill="none" stroke="midnightblue" d="M111.861,-50.7826C100.204,-41.0807 85.6133,-28.9371 75.7553,-20.7326"/>
<polygon fill="midnightblue" stroke="midnightblue" points="109.796,-53.6175 119.721,-57.3243 114.274,-48.2371 109.796,-53.6175"/>
</g>
<!-- Node3 -->
<g id="node3" class="node"><title>Node3</title>
<g id="a_node3"><a xlink:href="_d_b_index_8m.html" target="_top" xlink:title="Source/DBIndex.m">
<polygon fill="none" stroke="black" points="147.205,-0.5 147.205,-20.4299 248.035,-20.4299 248.035,-0.5 147.205,-0.5"/>
<text text-anchor="middle" x="197.62" y="-8.42993" font-family="Helvetica Neue" font-size="10.00">Source/DBIndex.m</text>
</a>
</g>
</g>
<!-- Node1&#45;&gt;Node3 -->
<g id="edge2" class="edge"><title>Node1&#45;&gt;Node3</title>
<path fill="none" stroke="midnightblue" d="M149.663,-50.7826C161.497,-41.0807 176.309,-28.9371 186.316,-20.7326"/>
<polygon fill="midnightblue" stroke="midnightblue" points="147.198,-48.2776 141.684,-57.3243 151.636,-53.6908 147.198,-48.2776"/>
</g>
</g>
</svg>
