<?xml version="1.0" encoding="UTF-8" standalone="no"?>
<!DOCTYPE svg PUBLIC "-//W3C//DTD SVG 1.1//EN"
 "http://www.w3.org/Graphics/SVG/1.1/DTD/svg11.dtd">
<!-- Generated by graphviz version 2.38.0 (20140413.2041)
 -->
<!-- Title: Source/DBColumnDefinition.h Pages: 1 -->
<svg width="501pt" height="86pt"
 viewBox="0.00 0.00 500.64 85.86" xmlns="http://www.w3.org/2000/svg" xmlns:xlink="http://www.w3.org/1999/xlink">
<g id="graph0" class="graph" transform="scale(1 1) rotate(0) translate(4 81.8599)">
<title>Source/DBColumnDefinition.h</title>
<!-- Node1 -->
<g id="node1" class="node"><title>Node1</title>
<polygon fill="#bfbfbf" stroke="black" points="145.355,-57.4299 145.355,-77.3599 295.455,-77.3599 295.455,-57.4299 145.355,-57.4299"/>
<text text-anchor="middle" x="220.405" y="-65.3599" font-family="Helvetica Neue" font-size="10.00">Source/DBColumnDefinition.h</text>
</g>
<!-- Node2 -->
<g id="node2" class="node"><title>Node2</title>
<polygon fill="none" stroke="#bfbfbf" points="0,-0.5 0,-20.4299 128.81,-20.4299 128.81,-0.5 0,-0.5"/>
<text text-anchor="middle" x="64.405" y="-8.42993" font-family="Helvetica Neue" font-size="10.00">Foundation/Foundation.h</text>
</g>
<!-- Node1&#45;&gt;Node2 -->
<g id="edge1" class="edge"><title>Node1&#45;&gt;Node2</title>
<path fill="none" stroke="midnightblue" d="M194.645,-57.3243C168.712,-48.1929 128.52,-34.0408 99.6441,-23.8732"/>
<polygon fill="midnightblue" stroke="midnightblue" points="100.539,-20.4777 89.9442,-20.4577 98.2141,-27.0804 100.539,-20.4777"/>
</g>
<!-- Node3 -->
<g id="node3" class="node"><title>Node3</title>
<polygon fill="none" stroke="#bfbfbf" points="146.56,-0.5 146.56,-20.4299 294.25,-20.4299 294.25,-0.5 146.56,-0.5"/>
<text text-anchor="middle" x="220.405" y="-8.42993" font-family="Helvetica Neue" font-size="10.00">DatabaseKit/DBConnection.h</text>
</g>
<!-- Node1&#45;&gt;Node3 -->
<g id="edge2" class="edge"><title>Node1&#45;&gt;Node3</title>
<path fill="none" stroke="midnightblue" d="M220.405,-57.3243C220.405,-50.132 220.405,-39.825 220.405,-30.8035"/>
<polygon fill="midnightblue" stroke="midnightblue" points="223.905,-30.7326 220.405,-20.7326 216.905,-30.7326 223.905,-30.7326"/>
</g>
<!-- Node4 -->
<g id="node4" class="node"><title>Node4</title>
<polygon fill="none" stroke="#bfbfbf" points="312.165,-0.5 312.165,-20.4299 492.645,-20.4299 492.645,-0.5 312.165,-0.5"/>
<text text-anchor="middle" x="402.405" y="-8.42993" font-family="Helvetica Neue" font-size="10.00">DatabaseKit/DBSQLRepresentable.h</text>
</g>
<!-- Node1&#45;&gt;Node4 -->
<g id="edge3" class="edge"><title>Node1&#45;&gt;Node4</title>
<path fill="none" stroke="midnightblue" d="M250.459,-57.3243C281.11,-48.0732 328.836,-33.6691 362.61,-23.4756"/>
<polygon fill="midnightblue" stroke="midnightblue" points="364.047,-26.6979 372.609,-20.4577 362.024,-19.9965 364.047,-26.6979"/>
</g>
</g>
</svg>
