<?xml version="1.0" encoding="UTF-8" standalone="no"?>
<!DOCTYPE svg PUBLIC "-//W3C//DTD SVG 1.1//EN"
 "http://www.w3.org/Graphics/SVG/1.1/DTD/svg11.dtd">
<!-- Generated by graphviz version 2.38.0 (20140413.2041)
 -->
<!-- Title: Source/DB+Private.h Pages: 1 -->
<svg width="206pt" height="86pt"
 viewBox="0.00 0.00 206.19 85.86" xmlns="http://www.w3.org/2000/svg" xmlns:xlink="http://www.w3.org/1999/xlink">
<g id="graph0" class="graph" transform="scale(1 1) rotate(0) translate(4 81.8599)">
<title>Source/DB+Private.h</title>
<!-- Node1 -->
<g id="node1" class="node"><title>Node1</title>
<polygon fill="#bfbfbf" stroke="black" points="37.025,-57.4299 37.025,-77.3599 147.175,-77.3599 147.175,-57.4299 37.025,-57.4299"/>
<text text-anchor="middle" x="92.1" y="-65.3599" font-family="Helvetica Neue" font-size="10.00">Source/DB+Private.h</text>
</g>
<!-- Node2 -->
<g id="node2" class="node"><title>Node2</title>
<g id="a_node2"><a xlink:href="_d_b_8m.html" target="_top" xlink:title="Source/DB.m">
<polygon fill="none" stroke="black" points="-7.10543e-15,-0.5 -7.10543e-15,-20.4299 76.2,-20.4299 76.2,-0.5 -7.10543e-15,-0.5"/>
<text text-anchor="middle" x="38.1" y="-8.42993" font-family="Helvetica Neue" font-size="10.00">Source/DB.m</text>
</a>
</g>
</g>
<!-- Node1&#45;&gt;Node2 -->
<g id="edge1" class="edge"><title>Node1&#45;&gt;Node2</title>
<path fill="none" stroke="midnightblue" d="M75.9127,-49.9288C66.5222,-40.3766 55.0414,-28.6981 47.2107,-20.7326"/>
<polygon fill="midnightblue" stroke="midnightblue" points="73.6766,-52.6468 83.183,-57.3243 78.6684,-47.7395 73.6766,-52.6468"/>
</g>
<!-- Node3 -->
<g id="node3" class="node"><title>Node3</title>
<g id="a_node3"><a xlink:href="_d_b_model_8m.html" target="_top" xlink:title="Source/DBModel.m">
<polygon fill="none" stroke="black" points="94.015,-0.5 94.015,-20.4299 198.185,-20.4299 198.185,-0.5 94.015,-0.5"/>
<text text-anchor="middle" x="146.1" y="-8.42993" font-family="Helvetica Neue" font-size="10.00">Source/DBModel.m</text>
</a>
</g>
</g>
<!-- Node1&#45;&gt;Node3 -->
<g id="edge2" class="edge"><title>Node1&#45;&gt;Node3</title>
<path fill="none" stroke="midnightblue" d="M108.287,-49.9288C117.678,-40.3766 129.159,-28.6981 136.989,-20.7326"/>
<polygon fill="midnightblue" stroke="midnightblue" points="105.532,-47.7395 101.017,-57.3243 110.523,-52.6468 105.532,-47.7395"/>
</g>
</g>
</svg>
