<?xml version="1.0" encoding="UTF-8" standalone="no"?>
<!DOCTYPE svg PUBLIC "-//W3C//DTD SVG 1.1//EN"
 "http://www.w3.org/Graphics/SVG/1.1/DTD/svg11.dtd">
<!-- Generated by graphviz version 2.38.0 (20140413.2041)
 -->
<!-- Title: Source/Utilities/DBOrderedDictionary.h Pages: 1 -->
<svg width="268pt" height="110pt"
 viewBox="0.00 0.00 267.83 109.72" xmlns="http://www.w3.org/2000/svg" xmlns:xlink="http://www.w3.org/1999/xlink">
<g id="graph0" class="graph" transform="scale(1 1) rotate(0) translate(4 105.72)">
<title>Source/Utilities/DBOrderedDictionary.h</title>
<!-- Node1 -->
<g id="node1" class="node"><title>Node1</title>
<polygon fill="#bfbfbf" stroke="black" points="52.34,-69.3599 52.34,-101.22 189.83,-101.22 189.83,-69.3599 52.34,-69.3599"/>
<text text-anchor="start" x="60.34" y="-89.2197" font-family="Helvetica Neue" font-size="10.00">Source/Utilities/DBOrdered</text>
<text text-anchor="middle" x="121.085" y="-77.2898" font-family="Helvetica Neue" font-size="10.00">Dictionary.h</text>
</g>
<!-- Node2 -->
<g id="node2" class="node"><title>Node2</title>
<g id="a_node2"><a xlink:href="_d_b_model_8m.html" target="_top" xlink:title="Source/DBModel.m">
<polygon fill="none" stroke="black" points="7.10543e-15,-6.46497 7.10543e-15,-26.3949 104.17,-26.3949 104.17,-6.46497 7.10543e-15,-6.46497"/>
<text text-anchor="middle" x="52.085" y="-14.3949" font-family="Helvetica Neue" font-size="10.00">Source/DBModel.m</text>
</a>
</g>
</g>
<!-- Node1&#45;&gt;Node2 -->
<g id="edge1" class="edge"><title>Node1&#45;&gt;Node2</title>
<path fill="none" stroke="midnightblue" d="M98.0315,-61.9513C85.5778,-49.8839 70.8798,-35.6418 61.5232,-26.5754"/>
<polygon fill="midnightblue" stroke="midnightblue" points="95.8106,-64.673 105.428,-69.1183 100.682,-59.6459 95.8106,-64.673"/>
</g>
<!-- Node3 -->
<g id="node3" class="node"><title>Node3</title>
<g id="a_node3"><a xlink:href="_d_b_ordered_dictionary_8m.html" target="_top" xlink:title="Source/Utilities/DBOrdered\lDictionary.m">
<polygon fill="none" stroke="black" points="122.34,-0.5 122.34,-32.3599 259.83,-32.3599 259.83,-0.5 122.34,-0.5"/>
<text text-anchor="start" x="130.34" y="-20.3599" font-family="Helvetica Neue" font-size="10.00">Source/Utilities/DBOrdered</text>
<text text-anchor="middle" x="191.085" y="-8.42993" font-family="Helvetica Neue" font-size="10.00">Dictionary.m</text>
</a>
</g>
</g>
<!-- Node1&#45;&gt;Node3 -->
<g id="edge2" class="edge"><title>Node1&#45;&gt;Node3</title>
<path fill="none" stroke="midnightblue" d="M144.372,-62.0477C154.517,-52.3576 166.146,-41.2499 175.264,-32.5414"/>
<polygon fill="midnightblue" stroke="midnightblue" points="141.783,-59.6802 136.969,-69.1183 146.618,-64.7422 141.783,-59.6802"/>
</g>
</g>
</svg>
