<?xml version="1.0" encoding="UTF-8" standalone="no"?>
<!DOCTYPE svg PUBLIC "-//W3C//DTD SVG 1.1//EN"
 "http://www.w3.org/Graphics/SVG/1.1/DTD/svg11.dtd">
<!-- Generated by graphviz version 2.38.0 (20140413.2041)
 -->
<!-- Title: Source/Queries/DBCreateTableQuery.m Pages: 1 -->
<!--zoomable 155 -->
<svg id="main" version="1.1" xmlns="http://www.w3.org/2000/svg" xmlns:xlink="http://www.w3.org/1999/xlink" xml:space="preserve" onload="init(evt)">
<style type="text/css"><![CDATA[
.edge:hover path { stroke: red; }
.edge:hover polygon { stroke: red; fill: red; }
]]></style>
<script type="text/javascript"><![CDATA[
var edges = document.getElementsByTagName('g');
if (edges && edges.length) {
  for (var i=0;i<edges.length;i++) {
    if (edges[i].id.substr(0,4)=='edge') {
      edges[i].setAttribute('class','edge');
    }
  }
}
]]></script>
        <defs>
                <circle id="rim" cx="0" cy="0" r="7"/>
                <circle id="rim2" cx="0" cy="0" r="3.5"/>
                <g id="zoomPlus">
                        <use xlink:href="#rim" fill="#404040">
                                <set attributeName="fill" to="#808080" begin="zoomplus.mouseover" end="zoomplus.mouseout"/>
                        </use>
                        <path d="M-4,0h8M0,-4v8" fill="none" stroke="white" stroke-width="1.5" pointer-events="none"/>
                </g>
                <g id="zoomMin">
                        <use xlink:href="#rim" fill="#404040">
                                <set attributeName="fill" to="#808080" begin="zoomminus.mouseover" end="zoomminus.mouseout"/>
                        </use>
                        <path d="M-4,0h8" fill="none" stroke="white" stroke-width="1.5" pointer-events="none"/>
                </g>
                <g id="dirArrow">
                        <path fill="none" stroke="white" stroke-width="1.5" d="M0,-3.0v7 M-2.5,-0.5L0,-3.0L2.5,-0.5"/>
                </g>
               <g id="resetDef">
                       <use xlink:href="#rim2" fill="#404040">
                               <set attributeName="fill" to="#808080" begin="reset.mouseover" end="reset.mouseout"/>
                       </use>
               </g>
        </defs>

<script type="text/javascript">
var viewWidth = 745;
var viewHeight = 155;
var sectionId = 'dynsection-0';
</script>
<script xlink:href="svgpan.js"/>
<svg id="graph" class="graph">
<g id="viewport">
<title>Source/Queries/DBCreateTableQuery.m</title>
<!-- Node1 -->
<g id="node1" class="node"><title>Node1</title>
<polygon fill="#bfbfbf" stroke="black" points="162.095,-114.36 162.095,-146.22 317.915,-146.22 317.915,-114.36 162.095,-114.36"/>
<text text-anchor="start" x="170.095" y="-134.22" font-family="Helvetica Neue" font-size="10.00">Source/Queries/DBCreateTable</text>
<text text-anchor="middle" x="240.005" y="-122.29" font-family="Helvetica Neue" font-size="10.00">Query.m</text>
</g>
<!-- Node2 -->
<g id="node2" class="node"><title>Node2</title>
<g id="a_node2"><a xlink:href="_d_b_query_09_private_8h.html" target="_top" xlink:title="DBQuery+Private.h">
<polygon fill="none" stroke="black" points="-1.42109e-14,-57.4299 -1.42109e-14,-77.3599 102.01,-77.3599 102.01,-57.4299 -1.42109e-14,-57.4299"/>
<text text-anchor="middle" x="51.005" y="-65.3599" font-family="Helvetica Neue" font-size="10.00">DBQuery+Private.h</text>
</a>
</g>
</g>
<!-- Node1&#45;&gt;Node2 -->
<g id="edge1" class="edge"><title>Node1&#45;&gt;Node2</title>
<path fill="none" stroke="midnightblue" d="M193.286,-114.237C161.073,-103.858 118.807,-90.2405 88.7323,-80.5505"/>
<polygon fill="midnightblue" stroke="midnightblue" points="89.624,-77.1606 79.0325,-77.4252 87.4773,-83.8233 89.624,-77.1606"/>
</g>
<!-- Node4 -->
<g id="node4" class="node"><title>Node4</title>
<g id="a_node4"><a xlink:href="_d_b_create_table_query_8h.html" target="_top" xlink:title="DBCreateTableQuery.h">
<polygon fill="none" stroke="black" points="120.255,-57.4299 120.255,-77.3599 237.755,-77.3599 237.755,-57.4299 120.255,-57.4299"/>
<text text-anchor="middle" x="179.005" y="-65.3599" font-family="Helvetica Neue" font-size="10.00">DBCreateTableQuery.h</text>
</a>
</g>
</g>
<!-- Node1&#45;&gt;Node4 -->
<g id="edge3" class="edge"><title>Node1&#45;&gt;Node4</title>
<path fill="none" stroke="midnightblue" d="M224.926,-114.237C215.886,-105.212 204.392,-93.7378 195.165,-84.5268"/>
<polygon fill="midnightblue" stroke="midnightblue" points="197.601,-82.0132 188.051,-77.4252 192.655,-86.9672 197.601,-82.0132"/>
</g>
<!-- Node5 -->
<g id="node5" class="node"><title>Node5</title>
<g id="a_node5"><a xlink:href="_d_b_select_query_8h.html" target="_top" xlink:title="DBSelectQuery.h">
<polygon fill="none" stroke="black" points="255.85,-57.4299 255.85,-77.3599 348.16,-77.3599 348.16,-57.4299 255.85,-57.4299"/>
<text text-anchor="middle" x="302.005" y="-65.3599" font-family="Helvetica Neue" font-size="10.00">DBSelectQuery.h</text>
</a>
</g>
</g>
<!-- Node1&#45;&gt;Node5 -->
<g id="edge5" class="edge"><title>Node1&#45;&gt;Node5</title>
<path fill="none" stroke="midnightblue" d="M255.331,-114.237C264.52,-105.212 276.202,-93.7378 285.58,-84.5268"/>
<polygon fill="midnightblue" stroke="midnightblue" points="288.129,-86.9295 292.811,-77.4252 283.224,-81.9354 288.129,-86.9295"/>
</g>
<!-- Node6 -->
<g id="node6" class="node"><title>Node6</title>
<g id="a_node6"><a xlink:href="_d_b_column_definition_8h.html" target="_top" xlink:title="DBColumnDefinition.h">
<polygon fill="none" stroke="black" points="393.455,-57.4299 393.455,-77.3599 508.555,-77.3599 508.555,-57.4299 393.455,-57.4299"/>
<text text-anchor="middle" x="451.005" y="-65.3599" font-family="Helvetica Neue" font-size="10.00">DBColumnDefinition.h</text>
</a>
</g>
</g>
<!-- Node1&#45;&gt;Node6 -->
<g id="edge7" class="edge"><title>Node1&#45;&gt;Node6</title>
<path fill="none" stroke="midnightblue" d="M291.892,-114.315C328.273,-103.815 376.24,-89.9722 409.961,-80.2401"/>
<polygon fill="midnightblue" stroke="midnightblue" points="411.303,-83.4958 419.941,-77.3601 409.362,-76.7702 411.303,-83.4958"/>
</g>
<!-- Node3 -->
<g id="node3" class="node"><title>Node3</title>
<polygon fill="none" stroke="#bfbfbf" points="103.845,-0.5 103.845,-20.4299 226.165,-20.4299 226.165,-0.5 103.845,-0.5"/>
<text text-anchor="middle" x="165.005" y="-8.42993" font-family="Helvetica Neue" font-size="10.00">DatabaseKit/DBQuery.h</text>
</g>
<!-- Node2&#45;&gt;Node3 -->
<g id="edge2" class="edge"><title>Node2&#45;&gt;Node3</title>
<path fill="none" stroke="midnightblue" d="M69.8298,-57.3243C88.1468,-48.4984 116.198,-34.9822 137.108,-24.9069"/>
<polygon fill="midnightblue" stroke="midnightblue" points="138.663,-28.0429 146.152,-20.549 135.624,-21.7368 138.663,-28.0429"/>
</g>
<!-- Node4&#45;&gt;Node3 -->
<g id="edge4" class="edge"><title>Node4&#45;&gt;Node3</title>
<path fill="none" stroke="midnightblue" d="M176.693,-57.3243C174.84,-50.053 172.175,-39.5981 169.858,-30.5065"/>
<polygon fill="midnightblue" stroke="midnightblue" points="173.228,-29.5584 167.367,-20.7326 166.445,-31.2873 173.228,-29.5584"/>
</g>
<!-- Node5&#45;&gt;Node3 -->
<g id="edge6" class="edge"><title>Node5&#45;&gt;Node3</title>
<path fill="none" stroke="midnightblue" d="M279.382,-57.3243C256.973,-48.3394 222.441,-34.4936 197.18,-24.3657"/>
<polygon fill="midnightblue" stroke="midnightblue" points="198.246,-21.022 187.661,-20.549 195.641,-27.5192 198.246,-21.022"/>
</g>
<!-- Node7 -->
<g id="node7" class="node"><title>Node7</title>
<polygon fill="none" stroke="#bfbfbf" points="244.6,-0.5 244.6,-20.4299 373.41,-20.4299 373.41,-0.5 244.6,-0.5"/>
<text text-anchor="middle" x="309.005" y="-8.42993" font-family="Helvetica Neue" font-size="10.00">Foundation/Foundation.h</text>
</g>
<!-- Node6&#45;&gt;Node7 -->
<g id="edge8" class="edge"><title>Node6&#45;&gt;Node7</title>
<path fill="none" stroke="midnightblue" d="M427.557,-57.3243C404.227,-48.2996 368.22,-34.371 342.008,-24.2314"/>
<polygon fill="midnightblue" stroke="midnightblue" points="343.078,-20.8926 332.488,-20.549 340.552,-27.4211 343.078,-20.8926"/>
</g>
<!-- Node8 -->
<g id="node8" class="node"><title>Node8</title>
<polygon fill="none" stroke="#bfbfbf" points="391.16,-0.5 391.16,-20.4299 538.85,-20.4299 538.85,-0.5 391.16,-0.5"/>
<text text-anchor="middle" x="465.005" y="-8.42993" font-family="Helvetica Neue" font-size="10.00">DatabaseKit/DBConnection.h</text>
</g>
<!-- Node6&#45;&gt;Node8 -->
<g id="edge9" class="edge"><title>Node6&#45;&gt;Node8</title>
<path fill="none" stroke="midnightblue" d="M453.317,-57.3243C455.17,-50.053 457.835,-39.5981 460.152,-30.5065"/>
<polygon fill="midnightblue" stroke="midnightblue" points="463.565,-31.2873 462.643,-20.7326 456.782,-29.5584 463.565,-31.2873"/>
</g>
<!-- Node9 -->
<g id="node9" class="node"><title>Node9</title>
<polygon fill="none" stroke="#bfbfbf" points="556.765,-0.5 556.765,-20.4299 737.245,-20.4299 737.245,-0.5 556.765,-0.5"/>
<text text-anchor="middle" x="647.005" y="-8.42993" font-family="Helvetica Neue" font-size="10.00">DatabaseKit/DBSQLRepresentable.h</text>
</g>
<!-- Node6&#45;&gt;Node9 -->
<g id="edge10" class="edge"><title>Node6&#45;&gt;Node9</title>
<path fill="none" stroke="midnightblue" d="M483.37,-57.3243C516.665,-47.9935 568.664,-33.4204 605.086,-23.213"/>
<polygon fill="midnightblue" stroke="midnightblue" points="606.233,-26.5265 614.917,-20.4577 604.344,-19.7862 606.233,-26.5265"/>
</g>
</g>
</svg>
        <g id="navigator" transform="translate(0 0)" fill="#404254">
                <rect fill="#f2f5e9" fill-opacity="0.5" stroke="#606060" stroke-width=".5" x="0" y="0" width="60" height="60"/>
                <use id="zoomplus" xlink:href="#zoomPlus" x="17" y="9" onmousedown="handleZoom(evt,'in')"/>
                <use id="zoomminus" xlink:href="#zoomMin" x="42" y="9" onmousedown="handleZoom(evt,'out')"/>
                <use id="reset" xlink:href="#resetDef" x="30" y="36" onmousedown="handleReset()"/>
                <g id="arrowUp" xlink:href="#dirArrow" transform="translate(30 24)" onmousedown="handlePan(0,-1)">
                  <use xlink:href="#rim" fill="#404040">
                        <set attributeName="fill" to="#808080" begin="arrowUp.mouseover" end="arrowUp.mouseout"/>
                  </use>
                  <path fill="none" stroke="white" stroke-width="1.5" d="M0,-3.0v7 M-2.5,-0.5L0,-3.0L2.5,-0.5"/>
                </g>
                <g id="arrowRight" xlink:href="#dirArrow" transform="rotate(90) translate(36 -43)" onmousedown="handlePan(1,0)">
                  <use xlink:href="#rim" fill="#404040">
                        <set attributeName="fill" to="#808080" begin="arrowRight.mouseover" end="arrowRight.mouseout"/>
                  </use>
                  <path fill="none" stroke="white" stroke-width="1.5" d="M0,-3.0v7 M-2.5,-0.5L0,-3.0L2.5,-0.5"/>
                </g>
                <g id="arrowDown" xlink:href="#dirArrow" transform="rotate(180) translate(-30 -48)" onmousedown="handlePan(0,1)">
                  <use xlink:href="#rim" fill="#404040">
                        <set attributeName="fill" to="#808080" begin="arrowDown.mouseover" end="arrowDown.mouseout"/>
                  </use>
                  <path fill="none" stroke="white" stroke-width="1.5" d="M0,-3.0v7 M-2.5,-0.5L0,-3.0L2.5,-0.5"/>
                </g>
                <g id="arrowLeft" xlink:href="#dirArrow" transform="rotate(270) translate(-36 17)" onmousedown="handlePan(-1,0)">
                  <use xlink:href="#rim" fill="#404040">
                        <set attributeName="fill" to="#808080" begin="arrowLeft.mouseover" end="arrowLeft.mouseout"/>
                  </use>
                  <path fill="none" stroke="white" stroke-width="1.5" d="M0,-3.0v7 M-2.5,-0.5L0,-3.0L2.5,-0.5"/>
                </g>
        </g>
        <svg viewBox="0 0 15 15" width="100%" height="30px" preserveAspectRatio="xMaxYMin meet">
         <g id="arrow_out" transform="scale(0.3 0.3)">
          <a xlink:href="_d_b_create_table_query_8m__incl_org.svg" target="_base">
           <rect id="button" ry="5" rx="5" y="6" x="6" height="38" width="38"
                fill="#f2f5e9" fill-opacity="0.5" stroke="#606060" stroke-width="1.0"/>
           <path id="arrow"
             d="M 11.500037,31.436501 C 11.940474,20.09759 22.043105,11.32322 32.158766,21.979434 L 37.068811,17.246167 C 37.068811,17.246167 37.088388,32 37.088388,32 L 22.160133,31.978069 C 22.160133,31.978069 26.997745,27.140456 26.997745,27.140456 C 18.528582,18.264221 13.291696,25.230495 11.500037,31.436501 z"
             style="fill:#404040;"/>
          </a>
         </g>
        </svg>
</svg>
