<?xml version="1.0" encoding="UTF-8" standalone="no"?>
<!DOCTYPE svg PUBLIC "-//W3C//DTD SVG 1.1//EN"
 "http://www.w3.org/Graphics/SVG/1.1/DTD/svg11.dtd">
<!-- Generated by graphviz version 2.38.0 (20140413.2041)
 -->
<!-- Title: Source/Utilities/DBUtilities.h Pages: 1 -->
<!--zoomable 98 -->
<svg id="main" version="1.1" xmlns="http://www.w3.org/2000/svg" xmlns:xlink="http://www.w3.org/1999/xlink" xml:space="preserve" onload="init(evt)">
<style type="text/css"><![CDATA[
.edge:hover path { stroke: red; }
.edge:hover polygon { stroke: red; fill: red; }
]]></style>
<script type="text/javascript"><![CDATA[
var edges = document.getElementsByTagName('g');
if (edges && edges.length) {
  for (var i=0;i<edges.length;i++) {
    if (edges[i].id.substr(0,4)=='edge') {
      edges[i].setAttribute('class','edge');
    }
  }
}
]]></script>
        <defs>
                <circle id="rim" cx="0" cy="0" r="7"/>
                <circle id="rim2" cx="0" cy="0" r="3.5"/>
                <g id="zoomPlus">
                        <use xlink:href="#rim" fill="#404040">
                                <set attributeName="fill" to="#808080" begin="zoomplus.mouseover" end="zoomplus.mouseout"/>
                        </use>
                        <path d="M-4,0h8M0,-4v8" fill="none" stroke="white" stroke-width="1.5" pointer-events="none"/>
                </g>
                <g id="zoomMin">
                        <use xlink:href="#rim" fill="#404040">
                                <set attributeName="fill" to="#808080" begin="zoomminus.mouseover" end="zoomminus.mouseout"/>
                        </use>
                        <path d="M-4,0h8" fill="none" stroke="white" stroke-width="1.5" pointer-events="none"/>
                </g>
                <g id="dirArrow">
                        <path fill="none" stroke="white" stroke-width="1.5" d="M0,-3.0v7 M-2.5,-0.5L0,-3.0L2.5,-0.5"/>
                </g>
               <g id="resetDef">
                       <use xlink:href="#rim2" fill="#404040">
                               <set attributeName="fill" to="#808080" begin="reset.mouseover" end="reset.mouseout"/>
                       </use>
               </g>
        </defs>

<script type="text/javascript">
var viewWidth = 1473;
var viewHeight = 98;
var sectionId = 'dynsection-1';
</script>
<script xlink:href="svgpan.js"/>
<svg id="graph" class="graph">
<g id="viewport">
<title>Source/Utilities/DBUtilities.h</title>
<!-- Node1 -->
<g id="node1" class="node"><title>Node1</title>
<polygon fill="#bfbfbf" stroke="black" points="622.695,-69.3599 622.695,-89.2898 764.795,-89.2898 764.795,-69.3599 622.695,-69.3599"/>
<text text-anchor="middle" x="693.745" y="-77.2898" font-family="Helvetica Neue" font-size="10.00">Source/Utilities/DBUtilities.h</text>
</g>
<!-- Node2 -->
<g id="node2" class="node"><title>Node2</title>
<g id="a_node2"><a xlink:href="_d_b_connection_8m.html" target="_top" xlink:title="Source/Connections\l/DBConnection.m">
<polygon fill="none" stroke="black" points="0,-0.5 0,-32.3599 107.49,-32.3599 107.49,-0.5 0,-0.5"/>
<text text-anchor="start" x="8" y="-20.3599" font-family="Helvetica Neue" font-size="10.00">Source/Connections</text>
<text text-anchor="middle" x="53.745" y="-8.42993" font-family="Helvetica Neue" font-size="10.00">/DBConnection.m</text>
</a>
</g>
</g>
<!-- Node1&#45;&gt;Node2 -->
<g id="edge1" class="edge"><title>Node1&#45;&gt;Node2</title>
<path fill="none" stroke="midnightblue" d="M612.474,-76.0555C500.325,-71.9858 292.082,-61.0498 116.745,-32.8599 113.743,-32.3772 110.674,-31.8248 107.584,-31.2226"/>
<polygon fill="midnightblue" stroke="midnightblue" points="612.575,-79.5612 622.693,-76.4169 612.823,-72.5655 612.575,-79.5612"/>
</g>
<!-- Node3 -->
<g id="node3" class="node"><title>Node3</title>
<g id="a_node3"><a xlink:href="_d_b_connection_pool_8m.html" target="_top" xlink:title="Source/Connections\l/DBConnectionPool.m">
<polygon fill="none" stroke="black" points="125.645,-0.5 125.645,-32.3599 241.845,-32.3599 241.845,-0.5 125.645,-0.5"/>
<text text-anchor="start" x="133.645" y="-20.3599" font-family="Helvetica Neue" font-size="10.00">Source/Connections</text>
<text text-anchor="middle" x="183.745" y="-8.42993" font-family="Helvetica Neue" font-size="10.00">/DBConnectionPool.m</text>
</a>
</g>
</g>
<!-- Node1&#45;&gt;Node3 -->
<g id="edge2" class="edge"><title>Node1&#45;&gt;Node3</title>
<path fill="none" stroke="midnightblue" d="M612.562,-72.9253C523.607,-66.3233 376.898,-53.4189 251.745,-32.8599 248.52,-32.33 245.218,-31.7403 241.893,-31.1093"/>
<polygon fill="midnightblue" stroke="midnightblue" points="612.356,-76.4194 622.585,-73.6606 612.868,-69.4382 612.356,-76.4194"/>
</g>
<!-- Node4 -->
<g id="node4" class="node"><title>Node4</title>
<g id="a_node4"><a xlink:href="_d_b_connection_proxy_8m.html" target="_top" xlink:title="Source/Connections\l/DBConnectionProxy.m">
<polygon fill="none" stroke="black" points="260.33,-0.5 260.33,-32.3599 381.16,-32.3599 381.16,-0.5 260.33,-0.5"/>
<text text-anchor="start" x="268.33" y="-20.3599" font-family="Helvetica Neue" font-size="10.00">Source/Connections</text>
<text text-anchor="middle" x="320.745" y="-8.42993" font-family="Helvetica Neue" font-size="10.00">/DBConnectionProxy.m</text>
</a>
</g>
</g>
<!-- Node1&#45;&gt;Node4 -->
<g id="edge3" class="edge"><title>Node1&#45;&gt;Node4</title>
<path fill="none" stroke="midnightblue" d="M614.939,-67.9969C553.64,-59.6023 466.552,-46.8854 390.745,-32.8599 387.686,-32.2939 384.557,-31.6912 381.4,-31.0646"/>
<polygon fill="midnightblue" stroke="midnightblue" points="614.549,-71.4761 624.93,-69.3582 615.494,-64.5401 614.549,-71.4761"/>
</g>
<!-- Node5 -->
<g id="node5" class="node"><title>Node5</title>
<g id="a_node5"><a xlink:href="_d_b_s_q_lite_connection_8m.html" target="_top" xlink:title="Source/Connections\l/DBSQLiteConnection.m">
<polygon fill="none" stroke="black" points="399.545,-0.5 399.545,-32.3599 525.945,-32.3599 525.945,-0.5 399.545,-0.5"/>
<text text-anchor="start" x="407.545" y="-20.3599" font-family="Helvetica Neue" font-size="10.00">Source/Connections</text>
<text text-anchor="middle" x="462.745" y="-8.42993" font-family="Helvetica Neue" font-size="10.00">/DBSQLiteConnection.m</text>
</a>
</g>
</g>
<!-- Node1&#45;&gt;Node5 -->
<g id="edge4" class="edge"><title>Node1&#45;&gt;Node5</title>
<path fill="none" stroke="midnightblue" d="M649.708,-66.7159C612.831,-56.9947 559.944,-43.0529 519.823,-32.4765"/>
<polygon fill="midnightblue" stroke="midnightblue" points="649.098,-70.1748 659.66,-69.3396 650.883,-63.4061 649.098,-70.1748"/>
</g>
<!-- Node6 -->
<g id="node6" class="node"><title>Node6</title>
<g id="a_node6"><a xlink:href="_d_b_column_definition_8m.html" target="_top" xlink:title="Source/DBColumnDefinition.m">
<polygon fill="none" stroke="black" points="544.21,-6.46497 544.21,-26.3949 697.28,-26.3949 697.28,-6.46497 544.21,-6.46497"/>
<text text-anchor="middle" x="620.745" y="-14.3949" font-family="Helvetica Neue" font-size="10.00">Source/DBColumnDefinition.m</text>
</a>
</g>
</g>
<!-- Node1&#45;&gt;Node6 -->
<g id="edge5" class="edge"><title>Node1&#45;&gt;Node6</title>
<path fill="none" stroke="midnightblue" d="M675.073,-62.7493C661.289,-51.2508 643.008,-36.0011 631.561,-26.452"/>
<polygon fill="midnightblue" stroke="midnightblue" points="673.053,-65.6215 682.974,-69.3396 677.537,-60.2462 673.053,-65.6215"/>
</g>
<!-- Node7 -->
<g id="node7" class="node"><title>Node7</title>
<g id="a_node7"><a xlink:href="_d_b_model_8m.html" target="_top" xlink:title="Source/DBModel.m">
<polygon fill="none" stroke="black" points="715.66,-6.46497 715.66,-26.3949 819.83,-26.3949 819.83,-6.46497 715.66,-6.46497"/>
<text text-anchor="middle" x="767.745" y="-14.3949" font-family="Helvetica Neue" font-size="10.00">Source/DBModel.m</text>
</a>
</g>
</g>
<!-- Node1&#45;&gt;Node7 -->
<g id="edge6" class="edge"><title>Node1&#45;&gt;Node7</title>
<path fill="none" stroke="midnightblue" d="M712.672,-62.7493C726.646,-51.2508 745.177,-36.0011 756.781,-26.452"/>
<polygon fill="midnightblue" stroke="midnightblue" points="710.162,-60.2828 704.664,-69.3396 714.61,-65.6879 710.162,-60.2828"/>
</g>
<!-- Node8 -->
<g id="node8" class="node"><title>Node8</title>
<g id="a_node8"><a xlink:href="_d_b_table_8m.html" target="_top" xlink:title="Source/DBTable.m">
<polygon fill="none" stroke="black" points="837.885,-6.46497 837.885,-26.3949 937.605,-26.3949 937.605,-6.46497 837.885,-6.46497"/>
<text text-anchor="middle" x="887.745" y="-14.3949" font-family="Helvetica Neue" font-size="10.00">Source/DBTable.m</text>
</a>
</g>
</g>
<!-- Node1&#45;&gt;Node8 -->
<g id="edge7" class="edge"><title>Node1&#45;&gt;Node8</title>
<path fill="none" stroke="midnightblue" d="M732.381,-66.1973C769.719,-54.4772 825.424,-36.992 859.002,-26.452"/>
<polygon fill="midnightblue" stroke="midnightblue" points="730.863,-63.0053 722.37,-69.3396 732.96,-69.684 730.863,-63.0053"/>
</g>
<!-- Node9 -->
<g id="node9" class="node"><title>Node9</title>
<g id="a_node9"><a xlink:href="_d_b_insert_query_8m.html" target="_top" xlink:title="Source/Queries/DBInsertQuery.m">
<polygon fill="none" stroke="black" points="955.195,-6.46497 955.195,-26.3949 1120.29,-26.3949 1120.29,-6.46497 955.195,-6.46497"/>
<text text-anchor="middle" x="1037.74" y="-14.3949" font-family="Helvetica Neue" font-size="10.00">Source/Queries/DBInsertQuery.m</text>
</a>
</g>
</g>
<!-- Node1&#45;&gt;Node9 -->
<g id="edge8" class="edge"><title>Node1&#45;&gt;Node9</title>
<path fill="none" stroke="midnightblue" d="M754.371,-67.5928C820.492,-55.888 925.14,-37.3633 987.059,-26.4024"/>
<polygon fill="midnightblue" stroke="midnightblue" points="753.74,-64.15 744.503,-69.3396 754.96,-71.0428 753.74,-64.15"/>
</g>
<!-- Node10 -->
<g id="node10" class="node"><title>Node10</title>
<g id="a_node10"><a xlink:href="_d_b_query_8m.html" target="_top" xlink:title="Source/Queries/DBQuery.m">
<polygon fill="none" stroke="black" points="1138.69,-6.46497 1138.69,-26.3949 1278.79,-26.3949 1278.79,-6.46497 1138.69,-6.46497"/>
<text text-anchor="middle" x="1208.74" y="-14.3949" font-family="Helvetica Neue" font-size="10.00">Source/Queries/DBQuery.m</text>
</a>
</g>
</g>
<!-- Node1&#45;&gt;Node10 -->
<g id="edge9" class="edge"><title>Node1&#45;&gt;Node10</title>
<path fill="none" stroke="midnightblue" d="M775.137,-72.0161C862.922,-64.7042 1006.66,-51.26 1129.74,-32.8599 1141.63,-31.083 1154.45,-28.7586 1166.23,-26.4551"/>
<polygon fill="midnightblue" stroke="midnightblue" points="774.655,-68.5439 764.978,-72.8557 775.232,-75.5201 774.655,-68.5439"/>
</g>
<!-- Node11 -->
<g id="node11" class="node"><title>Node11</title>
<g id="a_node11"><a xlink:href="_d_b_select_query_8m.html" target="_top" xlink:title="Source/Queries/DBSelectQuery.m">
<polygon fill="none" stroke="black" points="1296.71,-6.46497 1296.71,-26.3949 1464.77,-26.3949 1464.77,-6.46497 1296.71,-6.46497"/>
<text text-anchor="middle" x="1380.74" y="-14.3949" font-family="Helvetica Neue" font-size="10.00">Source/Queries/DBSelectQuery.m</text>
</a>
</g>
</g>
<!-- Node1&#45;&gt;Node11 -->
<g id="edge10" class="edge"><title>Node1&#45;&gt;Node11</title>
<path fill="none" stroke="midnightblue" d="M774.901,-74.381C889.484,-68.2975 1105.1,-54.9578 1287.74,-32.8599 1302.04,-31.1299 1317.5,-28.7661 1331.63,-26.4085"/>
<polygon fill="midnightblue" stroke="midnightblue" points="774.608,-70.8914 764.806,-74.912 774.976,-77.8818 774.608,-70.8914"/>
</g>
</g>
</svg>
        <g id="navigator" transform="translate(0 0)" fill="#404254">
                <rect fill="#f2f5e9" fill-opacity="0.5" stroke="#606060" stroke-width=".5" x="0" y="0" width="60" height="60"/>
                <use id="zoomplus" xlink:href="#zoomPlus" x="17" y="9" onmousedown="handleZoom(evt,'in')"/>
                <use id="zoomminus" xlink:href="#zoomMin" x="42" y="9" onmousedown="handleZoom(evt,'out')"/>
                <use id="reset" xlink:href="#resetDef" x="30" y="36" onmousedown="handleReset()"/>
                <g id="arrowUp" xlink:href="#dirArrow" transform="translate(30 24)" onmousedown="handlePan(0,-1)">
                  <use xlink:href="#rim" fill="#404040">
                        <set attributeName="fill" to="#808080" begin="arrowUp.mouseover" end="arrowUp.mouseout"/>
                  </use>
                  <path fill="none" stroke="white" stroke-width="1.5" d="M0,-3.0v7 M-2.5,-0.5L0,-3.0L2.5,-0.5"/>
                </g>
                <g id="arrowRight" xlink:href="#dirArrow" transform="rotate(90) translate(36 -43)" onmousedown="handlePan(1,0)">
                  <use xlink:href="#rim" fill="#404040">
                        <set attributeName="fill" to="#808080" begin="arrowRight.mouseover" end="arrowRight.mouseout"/>
                  </use>
                  <path fill="none" stroke="white" stroke-width="1.5" d="M0,-3.0v7 M-2.5,-0.5L0,-3.0L2.5,-0.5"/>
                </g>
                <g id="arrowDown" xlink:href="#dirArrow" transform="rotate(180) translate(-30 -48)" onmousedown="handlePan(0,1)">
                  <use xlink:href="#rim" fill="#404040">
                        <set attributeName="fill" to="#808080" begin="arrowDown.mouseover" end="arrowDown.mouseout"/>
                  </use>
                  <path fill="none" stroke="white" stroke-width="1.5" d="M0,-3.0v7 M-2.5,-0.5L0,-3.0L2.5,-0.5"/>
                </g>
                <g id="arrowLeft" xlink:href="#dirArrow" transform="rotate(270) translate(-36 17)" onmousedown="handlePan(-1,0)">
                  <use xlink:href="#rim" fill="#404040">
                        <set attributeName="fill" to="#808080" begin="arrowLeft.mouseover" end="arrowLeft.mouseout"/>
                  </use>
                  <path fill="none" stroke="white" stroke-width="1.5" d="M0,-3.0v7 M-2.5,-0.5L0,-3.0L2.5,-0.5"/>
                </g>
        </g>
        <svg viewBox="0 0 15 15" width="100%" height="30px" preserveAspectRatio="xMaxYMin meet">
         <g id="arrow_out" transform="scale(0.3 0.3)">
          <a xlink:href="_d_b_utilities_8h__dep__incl_org.svg" target="_base">
           <rect id="button" ry="5" rx="5" y="6" x="6" height="38" width="38"
                fill="#f2f5e9" fill-opacity="0.5" stroke="#606060" stroke-width="1.0"/>
           <path id="arrow"
             d="M 11.500037,31.436501 C 11.940474,20.09759 22.043105,11.32322 32.158766,21.979434 L 37.068811,17.246167 C 37.068811,17.246167 37.088388,32 37.088388,32 L 22.160133,31.978069 C 22.160133,31.978069 26.997745,27.140456 26.997745,27.140456 C 18.528582,18.264221 13.291696,25.230495 11.500037,31.436501 z"
             style="fill:#404040;"/>
          </a>
         </g>
        </svg>
</svg>
