<?xml version="1.0" encoding="UTF-8" standalone="no"?>
<!DOCTYPE svg PUBLIC "-//W3C//DTD SVG 1.1//EN"
 "http://www.w3.org/Graphics/SVG/1.1/DTD/svg11.dtd">
<!-- Generated by graphviz version 2.38.0 (20140413.2041)
 -->
<!-- Title: Source/Queries/DBInsertQuery.m Pages: 1 -->
<svg width="902pt" height="143pt"
 viewBox="0.00 0.00 902.04 142.79" xmlns="http://www.w3.org/2000/svg" xmlns:xlink="http://www.w3.org/1999/xlink">
<g id="graph0" class="graph" transform="scale(1 1) rotate(0) translate(4 138.79)">
<title>Source/Queries/DBInsertQuery.m</title>
<!-- Node1 -->
<g id="node1" class="node"><title>Node1</title>
<polygon fill="#bfbfbf" stroke="black" points="308.61,-114.36 308.61,-134.29 473.71,-134.29 473.71,-114.36 308.61,-114.36"/>
<text text-anchor="middle" x="391.16" y="-122.29" font-family="Helvetica Neue" font-size="10.00">Source/Queries/DBInsertQuery.m</text>
</g>
<!-- Node2 -->
<g id="node2" class="node"><title>Node2</title>
<g id="a_node2"><a xlink:href="_d_b_query_09_private_8h.html" target="_top" xlink:title="DBQuery+Private.h">
<polygon fill="none" stroke="black" points="237.155,-57.4299 237.155,-77.3599 339.165,-77.3599 339.165,-57.4299 237.155,-57.4299"/>
<text text-anchor="middle" x="288.16" y="-65.3599" font-family="Helvetica Neue" font-size="10.00">DBQuery+Private.h</text>
</a>
</g>
</g>
<!-- Node1&#45;&gt;Node2 -->
<g id="edge1" class="edge"><title>Node1&#45;&gt;Node2</title>
<path fill="none" stroke="midnightblue" d="M374.152,-114.254C357.826,-105.548 332.941,-92.2766 314.135,-82.2471"/>
<polygon fill="midnightblue" stroke="midnightblue" points="315.664,-79.0964 305.194,-77.4789 312.37,-85.2729 315.664,-79.0964"/>
</g>
<!-- Node4 -->
<g id="node4" class="node"><title>Node4</title>
<g id="a_node4"><a xlink:href="_d_b_insert_query_8h.html" target="_top" xlink:title="DBInsertQuery.h">
<polygon fill="none" stroke="black" points="16.485,-57.4299 16.485,-77.3599 105.835,-77.3599 105.835,-57.4299 16.485,-57.4299"/>
<text text-anchor="middle" x="61.16" y="-65.3599" font-family="Helvetica Neue" font-size="10.00">DBInsertQuery.h</text>
</a>
</g>
</g>
<!-- Node1&#45;&gt;Node4 -->
<g id="edge3" class="edge"><title>Node1&#45;&gt;Node4</title>
<path fill="none" stroke="midnightblue" d="M336.097,-114.331C280.566,-105.234 192.388,-90.72 116.16,-77.8599 116.056,-77.8422 115.951,-77.8246 115.846,-77.8069"/>
<polygon fill="midnightblue" stroke="midnightblue" points="116.325,-74.3383 105.881,-76.1162 115.154,-81.2397 116.325,-74.3383"/>
</g>
<!-- Node5 -->
<g id="node5" class="node"><title>Node5</title>
<g id="a_node5"><a xlink:href="_d_b_select_query_8h.html" target="_top" xlink:title="DBSelectQuery.h">
<polygon fill="none" stroke="black" points="125.005,-57.4299 125.005,-77.3599 217.315,-77.3599 217.315,-57.4299 125.005,-57.4299"/>
<text text-anchor="middle" x="171.16" y="-65.3599" font-family="Helvetica Neue" font-size="10.00">DBSelectQuery.h</text>
</a>
</g>
</g>
<!-- Node1&#45;&gt;Node5 -->
<g id="edge5" class="edge"><title>Node1&#45;&gt;Node5</title>
<path fill="none" stroke="midnightblue" d="M354.831,-114.254C317.061,-104.824 257.844,-90.0383 216.908,-79.8172"/>
<polygon fill="midnightblue" stroke="midnightblue" points="217.727,-76.4144 207.177,-77.3876 216.031,-83.2059 217.727,-76.4144"/>
</g>
<!-- Node6 -->
<g id="node6" class="node"><title>Node6</title>
<g id="a_node6"><a xlink:href="_d_b_table_8h.html" target="_top" xlink:title="DBTable.h">
<polygon fill="none" stroke="black" points="360.285,-57.4299 360.285,-77.3599 422.035,-77.3599 422.035,-57.4299 360.285,-57.4299"/>
<text text-anchor="middle" x="391.16" y="-65.3599" font-family="Helvetica Neue" font-size="10.00">DBTable.h</text>
</a>
</g>
</g>
<!-- Node1&#45;&gt;Node6 -->
<g id="edge7" class="edge"><title>Node1&#45;&gt;Node6</title>
<path fill="none" stroke="midnightblue" d="M391.16,-114.254C391.16,-107.062 391.16,-96.7549 391.16,-87.7334"/>
<polygon fill="midnightblue" stroke="midnightblue" points="394.66,-87.6625 391.16,-77.6625 387.66,-87.6626 394.66,-87.6625"/>
</g>
<!-- Node10 -->
<g id="node10" class="node"><title>Node10</title>
<g id="a_node10"><a xlink:href="_d_b_model_8h.html" target="_top" xlink:title="DBModel.h">
<polygon fill="none" stroke="black" points="440.06,-57.4299 440.06,-77.3599 506.26,-77.3599 506.26,-57.4299 440.06,-57.4299"/>
<text text-anchor="middle" x="473.16" y="-65.3599" font-family="Helvetica Neue" font-size="10.00">DBModel.h</text>
</a>
</g>
</g>
<!-- Node1&#45;&gt;Node10 -->
<g id="edge11" class="edge"><title>Node1&#45;&gt;Node10</title>
<path fill="none" stroke="midnightblue" d="M404.701,-114.254C417.283,-105.826 436.25,-93.1203 451.031,-83.2186"/>
<polygon fill="midnightblue" stroke="midnightblue" points="453.239,-85.9523 459.599,-77.4789 449.343,-80.1366 453.239,-85.9523"/>
</g>
<!-- Node11 -->
<g id="node11" class="node"><title>Node11</title>
<g id="a_node11"><a xlink:href="_d_b_utilities_8h.html" target="_top" xlink:title="DBUtilities.h">
<polygon fill="none" stroke="black" points="782.66,-57.4299 782.66,-77.3599 853.66,-77.3599 853.66,-57.4299 782.66,-57.4299"/>
<text text-anchor="middle" x="818.16" y="-65.3599" font-family="Helvetica Neue" font-size="10.00">DBUtilities.h</text>
</a>
</g>
</g>
<!-- Node1&#45;&gt;Node11 -->
<g id="edge13" class="edge"><title>Node1&#45;&gt;Node11</title>
<path fill="none" stroke="midnightblue" d="M461.192,-114.316C549.208,-102.993 697.769,-83.8822 772.43,-74.2776"/>
<polygon fill="midnightblue" stroke="midnightblue" points="772.989,-77.7346 782.461,-72.9873 772.096,-70.7918 772.989,-77.7346"/>
</g>
<!-- Node13 -->
<g id="node13" class="node"><title>Node13</title>
<g id="a_node13"><a xlink:href="_n_s_predicate_09_d_b_s_q_l_representable_8h.html" target="_top" xlink:title="NSPredicate+DBSQLRepresentable.h">
<polygon fill="none" stroke="black" points="523.85,-57.4299 523.85,-77.3599 708.47,-77.3599 708.47,-57.4299 523.85,-57.4299"/>
<text text-anchor="middle" x="616.16" y="-65.3599" font-family="Helvetica Neue" font-size="10.00">NSPredicate+DBSQLRepresentable.h</text>
</a>
</g>
</g>
<!-- Node1&#45;&gt;Node13 -->
<g id="edge15" class="edge"><title>Node1&#45;&gt;Node13</title>
<path fill="none" stroke="midnightblue" d="M428.062,-114.316C466.646,-104.896 527.31,-90.086 569.264,-79.8437"/>
<polygon fill="midnightblue" stroke="midnightblue" points="570.353,-83.1808 579.238,-77.4089 568.693,-76.3805 570.353,-83.1808"/>
</g>
<!-- Node3 -->
<g id="node3" class="node"><title>Node3</title>
<polygon fill="none" stroke="#bfbfbf" points="-2.84217e-14,-0.5 -2.84217e-14,-20.4299 122.32,-20.4299 122.32,-0.5 -2.84217e-14,-0.5"/>
<text text-anchor="middle" x="61.16" y="-8.42993" font-family="Helvetica Neue" font-size="10.00">DatabaseKit/DBQuery.h</text>
</g>
<!-- Node2&#45;&gt;Node3 -->
<g id="edge2" class="edge"><title>Node2&#45;&gt;Node3</title>
<path fill="none" stroke="midnightblue" d="M250.93,-57.3858C211.921,-47.9464 150.541,-33.0935 108.204,-22.8488"/>
<polygon fill="midnightblue" stroke="midnightblue" points="108.953,-19.4291 98.4106,-20.4789 107.307,-26.2328 108.953,-19.4291"/>
</g>
<!-- Node4&#45;&gt;Node3 -->
<g id="edge4" class="edge"><title>Node4&#45;&gt;Node3</title>
<path fill="none" stroke="midnightblue" d="M61.16,-57.3243C61.16,-50.132 61.16,-39.825 61.16,-30.8035"/>
<polygon fill="midnightblue" stroke="midnightblue" points="64.6601,-30.7326 61.16,-20.7326 57.6601,-30.7326 64.6601,-30.7326"/>
</g>
<!-- Node5&#45;&gt;Node3 -->
<g id="edge6" class="edge"><title>Node5&#45;&gt;Node3</title>
<path fill="none" stroke="midnightblue" d="M152.996,-57.3243C135.401,-48.5382 108.498,-35.1039 88.3512,-25.0432"/>
<polygon fill="midnightblue" stroke="midnightblue" points="89.8615,-21.8853 79.3512,-20.549 86.7341,-28.1479 89.8615,-21.8853"/>
</g>
<!-- Node7 -->
<g id="node7" class="node"><title>Node7</title>
<polygon fill="none" stroke="#bfbfbf" points="140.315,-0.5 140.315,-20.4299 288.005,-20.4299 288.005,-0.5 140.315,-0.5"/>
<text text-anchor="middle" x="214.16" y="-8.42993" font-family="Helvetica Neue" font-size="10.00">DatabaseKit/DBConnection.h</text>
</g>
<!-- Node6&#45;&gt;Node7 -->
<g id="edge8" class="edge"><title>Node6&#45;&gt;Node7</title>
<path fill="none" stroke="midnightblue" d="M361.932,-57.3243C332.122,-48.0732 285.708,-33.6691 252.862,-23.4756"/>
<polygon fill="midnightblue" stroke="midnightblue" points="253.725,-20.079 243.137,-20.4577 251.65,-26.7644 253.725,-20.079"/>
</g>
<!-- Node8 -->
<g id="node8" class="node"><title>Node8</title>
<polygon fill="none" stroke="#bfbfbf" points="305.625,-0.5 305.625,-20.4299 478.695,-20.4299 478.695,-0.5 305.625,-0.5"/>
<text text-anchor="middle" x="392.16" y="-8.42993" font-family="Helvetica Neue" font-size="10.00">DatabaseKit/DBColumnDefinition.h</text>
</g>
<!-- Node6&#45;&gt;Node8 -->
<g id="edge9" class="edge"><title>Node6&#45;&gt;Node8</title>
<path fill="none" stroke="midnightblue" d="M391.325,-57.3243C391.456,-50.132 391.644,-39.825 391.808,-30.8035"/>
<polygon fill="midnightblue" stroke="midnightblue" points="395.309,-30.7947 391.991,-20.7326 388.31,-30.6672 395.309,-30.7947"/>
</g>
<!-- Node9 -->
<g id="node9" class="node"><title>Node9</title>
<polygon fill="none" stroke="#bfbfbf" points="496.755,-0.5 496.755,-20.4299 625.565,-20.4299 625.565,-0.5 496.755,-0.5"/>
<text text-anchor="middle" x="561.16" y="-8.42993" font-family="Helvetica Neue" font-size="10.00">Foundation/Foundation.h</text>
</g>
<!-- Node6&#45;&gt;Node9 -->
<g id="edge10" class="edge"><title>Node6&#45;&gt;Node9</title>
<path fill="none" stroke="midnightblue" d="M419.232,-57.3243C447.739,-48.1131 492.057,-33.7932 523.58,-23.6077"/>
<polygon fill="midnightblue" stroke="midnightblue" points="524.889,-26.8629 533.329,-20.4577 522.737,-20.202 524.889,-26.8629"/>
</g>
<!-- Node10&#45;&gt;Node9 -->
<g id="edge12" class="edge"><title>Node10&#45;&gt;Node9</title>
<path fill="none" stroke="midnightblue" d="M487.691,-57.3243C501.321,-48.8165 521.934,-35.9503 537.86,-26.0091"/>
<polygon fill="midnightblue" stroke="midnightblue" points="539.977,-28.8132 546.607,-20.549 536.271,-22.8751 539.977,-28.8132"/>
</g>
<!-- Node12 -->
<g id="node12" class="node"><title>Node12</title>
<polygon fill="none" stroke="#bfbfbf" points="842.28,-0.5 842.28,-20.4299 894.04,-20.4299 894.04,-0.5 842.28,-0.5"/>
<text text-anchor="middle" x="868.16" y="-8.42993" font-family="Helvetica Neue" font-size="10.00">unistd.h</text>
</g>
<!-- Node11&#45;&gt;Node12 -->
<g id="edge14" class="edge"><title>Node11&#45;&gt;Node12</title>
<path fill="none" stroke="midnightblue" d="M826.416,-57.3243C833.611,-49.4207 844.229,-37.7557 852.955,-28.1688"/>
<polygon fill="midnightblue" stroke="midnightblue" points="855.581,-30.4838 859.724,-20.7326 850.404,-25.7717 855.581,-30.4838"/>
</g>
<!-- Node13&#45;&gt;Node9 -->
<g id="edge16" class="edge"><title>Node13&#45;&gt;Node9</title>
<path fill="none" stroke="midnightblue" d="M607.078,-57.3243C599.085,-49.3416 587.25,-37.5221 577.598,-27.8818"/>
<polygon fill="midnightblue" stroke="midnightblue" points="579.988,-25.3227 570.439,-20.7326 575.042,-30.2756 579.988,-25.3227"/>
</g>
<!-- Node14 -->
<g id="node14" class="node"><title>Node14</title>
<polygon fill="none" stroke="#bfbfbf" points="643.92,-0.5 643.92,-20.4299 824.4,-20.4299 824.4,-0.5 643.92,-0.5"/>
<text text-anchor="middle" x="734.16" y="-8.42993" font-family="Helvetica Neue" font-size="10.00">DatabaseKit/DBSQLRepresentable.h</text>
</g>
<!-- Node13&#45;&gt;Node14 -->
<g id="edge17" class="edge"><title>Node13&#45;&gt;Node14</title>
<path fill="none" stroke="midnightblue" d="M635.645,-57.3243C654.69,-48.4587 683.902,-34.8604 705.576,-24.7709"/>
<polygon fill="midnightblue" stroke="midnightblue" points="707.057,-27.9423 714.646,-20.549 704.103,-21.5962 707.057,-27.9423"/>
</g>
</g>
</svg>
