<?xml version="1.0" encoding="UTF-8" standalone="no"?>
<!DOCTYPE svg PUBLIC "-//W3C//DTD SVG 1.1//EN"
 "http://www.w3.org/Graphics/SVG/1.1/DTD/svg11.dtd">
<!-- Generated by graphviz version 2.38.0 (20140413.2041)
 -->
<!-- Title: Source/Queries/DBQuery.h Pages: 1 -->
<svg width="501pt" height="86pt"
 viewBox="0.00 0.00 501.25 85.86" xmlns="http://www.w3.org/2000/svg" xmlns:xlink="http://www.w3.org/1999/xlink">
<g id="graph0" class="graph" transform="scale(1 1) rotate(0) translate(4 81.8599)">
<title>Source/Queries/DBQuery.h</title>
<!-- Node1 -->
<g id="node1" class="node"><title>Node1</title>
<polygon fill="#bfbfbf" stroke="black" points="187.28,-57.4299 187.28,-77.3599 324.41,-77.3599 324.41,-57.4299 187.28,-57.4299"/>
<text text-anchor="middle" x="255.845" y="-65.3599" font-family="Helvetica Neue" font-size="10.00">Source/Queries/DBQuery.h</text>
</g>
<!-- Node2 -->
<g id="node2" class="node"><title>Node2</title>
<polygon fill="none" stroke="#bfbfbf" points="0,-0.5 0,-20.4299 147.69,-20.4299 147.69,-0.5 0,-0.5"/>
<text text-anchor="middle" x="73.845" y="-8.42993" font-family="Helvetica Neue" font-size="10.00">DatabaseKit/DBConnection.h</text>
</g>
<!-- Node1&#45;&gt;Node2 -->
<g id="edge1" class="edge"><title>Node1&#45;&gt;Node2</title>
<path fill="none" stroke="midnightblue" d="M225.791,-57.3243C195.14,-48.0732 147.414,-33.6691 113.64,-23.4756"/>
<polygon fill="midnightblue" stroke="midnightblue" points="114.226,-19.9965 103.641,-20.4577 112.203,-26.6979 114.226,-19.9965"/>
</g>
<!-- Node3 -->
<g id="node3" class="node"><title>Node3</title>
<polygon fill="none" stroke="#bfbfbf" points="165.605,-0.5 165.605,-20.4299 346.085,-20.4299 346.085,-0.5 165.605,-0.5"/>
<text text-anchor="middle" x="255.845" y="-8.42993" font-family="Helvetica Neue" font-size="10.00">DatabaseKit/DBSQLRepresentable.h</text>
</g>
<!-- Node1&#45;&gt;Node3 -->
<g id="edge2" class="edge"><title>Node1&#45;&gt;Node3</title>
<path fill="none" stroke="midnightblue" d="M255.845,-57.3243C255.845,-50.132 255.845,-39.825 255.845,-30.8035"/>
<polygon fill="midnightblue" stroke="midnightblue" points="259.345,-30.7326 255.845,-20.7326 252.345,-30.7326 259.345,-30.7326"/>
</g>
<!-- Node4 -->
<g id="node4" class="node"><title>Node4</title>
<polygon fill="none" stroke="#bfbfbf" points="364.44,-0.5 364.44,-20.4299 493.25,-20.4299 493.25,-0.5 364.44,-0.5"/>
<text text-anchor="middle" x="428.845" y="-8.42993" font-family="Helvetica Neue" font-size="10.00">Foundation/Foundation.h</text>
</g>
<!-- Node1&#45;&gt;Node4 -->
<g id="edge3" class="edge"><title>Node1&#45;&gt;Node4</title>
<path fill="none" stroke="midnightblue" d="M284.412,-57.3243C313.423,-48.1131 358.523,-33.7932 390.602,-23.6077"/>
<polygon fill="midnightblue" stroke="midnightblue" points="392.051,-26.8199 400.523,-20.4577 389.932,-20.1481 392.051,-26.8199"/>
</g>
</g>
</svg>
