<?xml version="1.0" encoding="UTF-8" standalone="no"?>
<!DOCTYPE svg PUBLIC "-//W3C//DTD SVG 1.1//EN"
 "http://www.w3.org/Graphics/SVG/1.1/DTD/svg11.dtd">
<!-- Generated by graphviz version 2.38.0 (20140413.2041)
 -->
<!-- Title: Source/Queries/DBQuery.m Pages: 1 -->
<svg width="902pt" height="143pt"
 viewBox="0.00 0.00 902.04 142.79" xmlns="http://www.w3.org/2000/svg" xmlns:xlink="http://www.w3.org/1999/xlink">
<g id="graph0" class="graph" transform="scale(1 1) rotate(0) translate(4 138.79)">
<title>Source/Queries/DBQuery.m</title>
<!-- Node1 -->
<g id="node1" class="node"><title>Node1</title>
<polygon fill="#bfbfbf" stroke="black" points="246.11,-114.36 246.11,-134.29 386.21,-134.29 386.21,-114.36 246.11,-114.36"/>
<text text-anchor="middle" x="316.16" y="-122.29" font-family="Helvetica Neue" font-size="10.00">Source/Queries/DBQuery.m</text>
</g>
<!-- Node2 -->
<g id="node2" class="node"><title>Node2</title>
<g id="a_node2"><a xlink:href="_d_b_query_09_private_8h.html" target="_top" xlink:title="DBQuery+Private.h">
<polygon fill="none" stroke="black" points="38.155,-57.4299 38.155,-77.3599 140.165,-77.3599 140.165,-57.4299 38.155,-57.4299"/>
<text text-anchor="middle" x="89.16" y="-65.3599" font-family="Helvetica Neue" font-size="10.00">DBQuery+Private.h</text>
</a>
</g>
</g>
<!-- Node1&#45;&gt;Node2 -->
<g id="edge1" class="edge"><title>Node1&#45;&gt;Node2</title>
<path fill="none" stroke="midnightblue" d="M278.93,-114.316C239.921,-104.876 178.541,-90.0234 136.204,-79.7788"/>
<polygon fill="midnightblue" stroke="midnightblue" points="136.953,-76.3591 126.411,-77.4089 135.307,-83.1627 136.953,-76.3591"/>
</g>
<!-- Node4 -->
<g id="node4" class="node"><title>Node4</title>
<g id="a_node4"><a xlink:href="_d_b_8h.html" target="_top" xlink:title="DB.h">
<polygon fill="none" stroke="black" points="186.045,-57.4299 186.045,-77.3599 224.275,-77.3599 224.275,-57.4299 186.045,-57.4299"/>
<text text-anchor="middle" x="205.16" y="-65.3599" font-family="Helvetica Neue" font-size="10.00">DB.h</text>
</a>
</g>
</g>
<!-- Node1&#45;&gt;Node4 -->
<g id="edge3" class="edge"><title>Node1&#45;&gt;Node4</title>
<path fill="none" stroke="midnightblue" d="M297.831,-114.254C280.076,-105.468 252.929,-92.0338 232.598,-81.9732"/>
<polygon fill="midnightblue" stroke="midnightblue" points="234.032,-78.7773 223.517,-77.4789 230.927,-85.0512 234.032,-78.7773"/>
</g>
<!-- Node6 -->
<g id="node6" class="node"><title>Node6</title>
<g id="a_node6"><a xlink:href="_d_b_table_8h.html" target="_top" xlink:title="DBTable.h">
<polygon fill="none" stroke="black" points="326.285,-57.4299 326.285,-77.3599 388.035,-77.3599 388.035,-57.4299 326.285,-57.4299"/>
<text text-anchor="middle" x="357.16" y="-65.3599" font-family="Helvetica Neue" font-size="10.00">DBTable.h</text>
</a>
</g>
</g>
<!-- Node1&#45;&gt;Node6 -->
<g id="edge5" class="edge"><title>Node1&#45;&gt;Node6</title>
<path fill="none" stroke="midnightblue" d="M322.93,-114.254C328.712,-106.509 337.189,-95.1508 344.261,-85.6764"/>
<polygon fill="midnightblue" stroke="midnightblue" points="347.066,-87.7699 350.243,-77.6625 341.456,-83.5828 347.066,-87.7699"/>
</g>
<!-- Node9 -->
<g id="node9" class="node"><title>Node9</title>
<g id="a_node9"><a xlink:href="_d_b_model_8h.html" target="_top" xlink:title="DBModel.h">
<polygon fill="none" stroke="black" points="242.06,-57.4299 242.06,-77.3599 308.26,-77.3599 308.26,-57.4299 242.06,-57.4299"/>
<text text-anchor="middle" x="275.16" y="-65.3599" font-family="Helvetica Neue" font-size="10.00">DBModel.h</text>
</a>
</g>
</g>
<!-- Node1&#45;&gt;Node9 -->
<g id="edge9" class="edge"><title>Node1&#45;&gt;Node9</title>
<path fill="none" stroke="midnightblue" d="M309.39,-114.254C303.608,-106.509 295.131,-95.1508 288.059,-85.6764"/>
<polygon fill="midnightblue" stroke="midnightblue" points="290.864,-83.5828 282.077,-77.6625 285.254,-87.7699 290.864,-83.5828"/>
</g>
<!-- Node10 -->
<g id="node10" class="node"><title>Node10</title>
<g id="a_node10"><a xlink:href="_d_b_utilities_8h.html" target="_top" xlink:title="DBUtilities.h">
<polygon fill="none" stroke="black" points="720.66,-57.4299 720.66,-77.3599 791.66,-77.3599 791.66,-57.4299 720.66,-57.4299"/>
<text text-anchor="middle" x="756.16" y="-65.3599" font-family="Helvetica Neue" font-size="10.00">DBUtilities.h</text>
</a>
</g>
</g>
<!-- Node1&#45;&gt;Node10 -->
<g id="edge11" class="edge"><title>Node1&#45;&gt;Node10</title>
<path fill="none" stroke="midnightblue" d="M386.366,-114.56C477.202,-103.22 632.923,-83.7799 710.066,-74.1493"/>
<polygon fill="midnightblue" stroke="midnightblue" points="710.926,-77.5692 720.415,-72.8573 710.059,-70.6231 710.926,-77.5692"/>
</g>
<!-- Node12 -->
<g id="node12" class="node"><title>Node12</title>
<g id="a_node12"><a xlink:href="_n_s_predicate_09_d_b_s_q_l_representable_8h.html" target="_top" xlink:title="NSPredicate+DBSQLRepresentable.h">
<polygon fill="none" stroke="black" points="405.85,-57.4299 405.85,-77.3599 590.47,-77.3599 590.47,-57.4299 405.85,-57.4299"/>
<text text-anchor="middle" x="498.16" y="-65.3599" font-family="Helvetica Neue" font-size="10.00">NSPredicate+DBSQLRepresentable.h</text>
</a>
</g>
</g>
<!-- Node1&#45;&gt;Node12 -->
<g id="edge13" class="edge"><title>Node1&#45;&gt;Node12</title>
<path fill="none" stroke="midnightblue" d="M346.214,-114.254C376.865,-105.003 424.591,-90.599 458.365,-80.4056"/>
<polygon fill="midnightblue" stroke="midnightblue" points="459.802,-83.6278 468.364,-77.3876 457.779,-76.9264 459.802,-83.6278"/>
</g>
<!-- Node3 -->
<g id="node3" class="node"><title>Node3</title>
<polygon fill="none" stroke="#bfbfbf" points="-2.84217e-14,-0.5 -2.84217e-14,-20.4299 122.32,-20.4299 122.32,-0.5 -2.84217e-14,-0.5"/>
<text text-anchor="middle" x="61.16" y="-8.42993" font-family="Helvetica Neue" font-size="10.00">DatabaseKit/DBQuery.h</text>
</g>
<!-- Node2&#45;&gt;Node3 -->
<g id="edge2" class="edge"><title>Node2&#45;&gt;Node3</title>
<path fill="none" stroke="midnightblue" d="M84.5364,-57.3243C80.7493,-49.8949 75.2681,-39.142 70.565,-29.9156"/>
<polygon fill="midnightblue" stroke="midnightblue" points="73.5438,-28.0524 65.8841,-20.7326 67.3073,-31.2314 73.5438,-28.0524"/>
</g>
<!-- Node5 -->
<g id="node5" class="node"><title>Node5</title>
<polygon fill="none" stroke="#bfbfbf" points="140.755,-0.5 140.755,-20.4299 269.565,-20.4299 269.565,-0.5 140.755,-0.5"/>
<text text-anchor="middle" x="205.16" y="-8.42993" font-family="Helvetica Neue" font-size="10.00">Foundation/Foundation.h</text>
</g>
<!-- Node4&#45;&gt;Node5 -->
<g id="edge4" class="edge"><title>Node4&#45;&gt;Node5</title>
<path fill="none" stroke="midnightblue" d="M205.16,-57.3243C205.16,-50.132 205.16,-39.825 205.16,-30.8035"/>
<polygon fill="midnightblue" stroke="midnightblue" points="208.66,-30.7326 205.16,-20.7326 201.66,-30.7326 208.66,-30.7326"/>
</g>
<!-- Node6&#45;&gt;Node5 -->
<g id="edge8" class="edge"><title>Node6&#45;&gt;Node5</title>
<path fill="none" stroke="midnightblue" d="M332.06,-57.3243C306.792,-48.1929 267.631,-34.0408 239.496,-23.8732"/>
<polygon fill="midnightblue" stroke="midnightblue" points="240.639,-20.5648 230.044,-20.4577 238.26,-27.1481 240.639,-20.5648"/>
</g>
<!-- Node7 -->
<g id="node7" class="node"><title>Node7</title>
<polygon fill="none" stroke="#bfbfbf" points="287.315,-0.5 287.315,-20.4299 435.005,-20.4299 435.005,-0.5 287.315,-0.5"/>
<text text-anchor="middle" x="361.16" y="-8.42993" font-family="Helvetica Neue" font-size="10.00">DatabaseKit/DBConnection.h</text>
</g>
<!-- Node6&#45;&gt;Node7 -->
<g id="edge6" class="edge"><title>Node6&#45;&gt;Node7</title>
<path fill="none" stroke="midnightblue" d="M357.821,-57.3243C358.344,-50.132 359.095,-39.825 359.752,-30.8035"/>
<polygon fill="midnightblue" stroke="midnightblue" points="363.25,-30.9604 360.485,-20.7326 356.268,-30.452 363.25,-30.9604"/>
</g>
<!-- Node8 -->
<g id="node8" class="node"><title>Node8</title>
<polygon fill="none" stroke="#bfbfbf" points="452.625,-0.5 452.625,-20.4299 625.695,-20.4299 625.695,-0.5 452.625,-0.5"/>
<text text-anchor="middle" x="539.16" y="-8.42993" font-family="Helvetica Neue" font-size="10.00">DatabaseKit/DBColumnDefinition.h</text>
</g>
<!-- Node6&#45;&gt;Node8 -->
<g id="edge7" class="edge"><title>Node6&#45;&gt;Node8</title>
<path fill="none" stroke="midnightblue" d="M387.214,-57.3243C417.865,-48.0732 465.591,-33.6691 499.365,-23.4756"/>
<polygon fill="midnightblue" stroke="midnightblue" points="500.802,-26.6979 509.364,-20.4577 498.779,-19.9965 500.802,-26.6979"/>
</g>
<!-- Node9&#45;&gt;Node5 -->
<g id="edge10" class="edge"><title>Node9&#45;&gt;Node5</title>
<path fill="none" stroke="midnightblue" d="M263.601,-57.3243C253.126,-49.1045 237.467,-36.8165 224.994,-27.0287"/>
<polygon fill="midnightblue" stroke="midnightblue" points="226.998,-24.1525 216.97,-20.7326 222.677,-29.6594 226.998,-24.1525"/>
</g>
<!-- Node11 -->
<g id="node11" class="node"><title>Node11</title>
<polygon fill="none" stroke="#bfbfbf" points="842.28,-0.5 842.28,-20.4299 894.04,-20.4299 894.04,-0.5 842.28,-0.5"/>
<text text-anchor="middle" x="868.16" y="-8.42993" font-family="Helvetica Neue" font-size="10.00">unistd.h</text>
</g>
<!-- Node10&#45;&gt;Node11 -->
<g id="edge12" class="edge"><title>Node10&#45;&gt;Node11</title>
<path fill="none" stroke="midnightblue" d="M774.655,-57.3243C792.569,-48.5382 819.961,-35.1039 840.474,-25.0432"/>
<polygon fill="midnightblue" stroke="midnightblue" points="842.201,-28.0949 849.638,-20.549 839.118,-21.81 842.201,-28.0949"/>
</g>
<!-- Node12&#45;&gt;Node5 -->
<g id="edge14" class="edge"><title>Node12&#45;&gt;Node5</title>
<path fill="none" stroke="midnightblue" d="M450.105,-57.3858C398.905,-47.7871 317.845,-32.5906 263.137,-22.3341"/>
<polygon fill="midnightblue" stroke="midnightblue" points="263.715,-18.8816 253.241,-20.4789 262.425,-25.7617 263.715,-18.8816"/>
</g>
<!-- Node13 -->
<g id="node13" class="node"><title>Node13</title>
<polygon fill="none" stroke="#bfbfbf" points="643.92,-0.5 643.92,-20.4299 824.4,-20.4299 824.4,-0.5 643.92,-0.5"/>
<text text-anchor="middle" x="734.16" y="-8.42993" font-family="Helvetica Neue" font-size="10.00">DatabaseKit/DBSQLRepresentable.h</text>
</g>
<!-- Node12&#45;&gt;Node13 -->
<g id="edge15" class="edge"><title>Node12&#45;&gt;Node13</title>
<path fill="none" stroke="midnightblue" d="M536.866,-57.3858C577.507,-47.9265 641.505,-33.0308 685.529,-22.784"/>
<polygon fill="midnightblue" stroke="midnightblue" points="686.486,-26.1548 695.433,-20.4789 684.899,-19.3371 686.486,-26.1548"/>
</g>
</g>
</svg>
