<?xml version="1.0" encoding="UTF-8" standalone="no"?>
<!DOCTYPE svg PUBLIC "-//W3C//DTD SVG 1.1//EN"
 "http://www.w3.org/Graphics/SVG/1.1/DTD/svg11.dtd">
<!-- Generated by graphviz version 2.38.0 (20140413.2041)
 -->
<!-- Title: Source/Queries/DBCreateTableQuery.m Pages: 1 -->
<svg width="745pt" height="155pt"
 viewBox="0.00 0.00 745.25 154.72" xmlns="http://www.w3.org/2000/svg" xmlns:xlink="http://www.w3.org/1999/xlink">
<g id="graph0" class="graph" transform="scale(1 1) rotate(0) translate(4 150.72)">
<title>Source/Queries/DBCreateTableQuery.m</title>
<!-- Node1 -->
<g id="node1" class="node"><title>Node1</title>
<polygon fill="#bfbfbf" stroke="black" points="162.095,-114.36 162.095,-146.22 317.915,-146.22 317.915,-114.36 162.095,-114.36"/>
<text text-anchor="start" x="170.095" y="-134.22" font-family="Helvetica Neue" font-size="10.00">Source/Queries/DBCreateTable</text>
<text text-anchor="middle" x="240.005" y="-122.29" font-family="Helvetica Neue" font-size="10.00">Query.m</text>
</g>
<!-- Node2 -->
<g id="node2" class="node"><title>Node2</title>
<g id="a_node2"><a xlink:href="_d_b_query_09_private_8h.html" target="_top" xlink:title="DBQuery+Private.h">
<polygon fill="none" stroke="black" points="-1.42109e-14,-57.4299 -1.42109e-14,-77.3599 102.01,-77.3599 102.01,-57.4299 -1.42109e-14,-57.4299"/>
<text text-anchor="middle" x="51.005" y="-65.3599" font-family="Helvetica Neue" font-size="10.00">DBQuery+Private.h</text>
</a>
</g>
</g>
<!-- Node1&#45;&gt;Node2 -->
<g id="edge1" class="edge"><title>Node1&#45;&gt;Node2</title>
<path fill="none" stroke="midnightblue" d="M193.286,-114.237C161.073,-103.858 118.807,-90.2405 88.7323,-80.5505"/>
<polygon fill="midnightblue" stroke="midnightblue" points="89.624,-77.1606 79.0325,-77.4252 87.4773,-83.8233 89.624,-77.1606"/>
</g>
<!-- Node4 -->
<g id="node4" class="node"><title>Node4</title>
<g id="a_node4"><a xlink:href="_d_b_create_table_query_8h.html" target="_top" xlink:title="DBCreateTableQuery.h">
<polygon fill="none" stroke="black" points="120.255,-57.4299 120.255,-77.3599 237.755,-77.3599 237.755,-57.4299 120.255,-57.4299"/>
<text text-anchor="middle" x="179.005" y="-65.3599" font-family="Helvetica Neue" font-size="10.00">DBCreateTableQuery.h</text>
</a>
</g>
</g>
<!-- Node1&#45;&gt;Node4 -->
<g id="edge3" class="edge"><title>Node1&#45;&gt;Node4</title>
<path fill="none" stroke="midnightblue" d="M224.926,-114.237C215.886,-105.212 204.392,-93.7378 195.165,-84.5268"/>
<polygon fill="midnightblue" stroke="midnightblue" points="197.601,-82.0132 188.051,-77.4252 192.655,-86.9672 197.601,-82.0132"/>
</g>
<!-- Node5 -->
<g id="node5" class="node"><title>Node5</title>
<g id="a_node5"><a xlink:href="_d_b_select_query_8h.html" target="_top" xlink:title="DBSelectQuery.h">
<polygon fill="none" stroke="black" points="255.85,-57.4299 255.85,-77.3599 348.16,-77.3599 348.16,-57.4299 255.85,-57.4299"/>
<text text-anchor="middle" x="302.005" y="-65.3599" font-family="Helvetica Neue" font-size="10.00">DBSelectQuery.h</text>
</a>
</g>
</g>
<!-- Node1&#45;&gt;Node5 -->
<g id="edge5" class="edge"><title>Node1&#45;&gt;Node5</title>
<path fill="none" stroke="midnightblue" d="M255.331,-114.237C264.52,-105.212 276.202,-93.7378 285.58,-84.5268"/>
<polygon fill="midnightblue" stroke="midnightblue" points="288.129,-86.9295 292.811,-77.4252 283.224,-81.9354 288.129,-86.9295"/>
</g>
<!-- Node6 -->
<g id="node6" class="node"><title>Node6</title>
<g id="a_node6"><a xlink:href="_d_b_column_definition_8h.html" target="_top" xlink:title="DBColumnDefinition.h">
<polygon fill="none" stroke="black" points="393.455,-57.4299 393.455,-77.3599 508.555,-77.3599 508.555,-57.4299 393.455,-57.4299"/>
<text text-anchor="middle" x="451.005" y="-65.3599" font-family="Helvetica Neue" font-size="10.00">DBColumnDefinition.h</text>
</a>
</g>
</g>
<!-- Node1&#45;&gt;Node6 -->
<g id="edge7" class="edge"><title>Node1&#45;&gt;Node6</title>
<path fill="none" stroke="midnightblue" d="M291.892,-114.315C328.273,-103.815 376.24,-89.9722 409.961,-80.2401"/>
<polygon fill="midnightblue" stroke="midnightblue" points="411.303,-83.4958 419.941,-77.3601 409.362,-76.7702 411.303,-83.4958"/>
</g>
<!-- Node3 -->
<g id="node3" class="node"><title>Node3</title>
<polygon fill="none" stroke="#bfbfbf" points="103.845,-0.5 103.845,-20.4299 226.165,-20.4299 226.165,-0.5 103.845,-0.5"/>
<text text-anchor="middle" x="165.005" y="-8.42993" font-family="Helvetica Neue" font-size="10.00">DatabaseKit/DBQuery.h</text>
</g>
<!-- Node2&#45;&gt;Node3 -->
<g id="edge2" class="edge"><title>Node2&#45;&gt;Node3</title>
<path fill="none" stroke="midnightblue" d="M69.8298,-57.3243C88.1468,-48.4984 116.198,-34.9822 137.108,-24.9069"/>
<polygon fill="midnightblue" stroke="midnightblue" points="138.663,-28.0429 146.152,-20.549 135.624,-21.7368 138.663,-28.0429"/>
</g>
<!-- Node4&#45;&gt;Node3 -->
<g id="edge4" class="edge"><title>Node4&#45;&gt;Node3</title>
<path fill="none" stroke="midnightblue" d="M176.693,-57.3243C174.84,-50.053 172.175,-39.5981 169.858,-30.5065"/>
<polygon fill="midnightblue" stroke="midnightblue" points="173.228,-29.5584 167.367,-20.7326 166.445,-31.2873 173.228,-29.5584"/>
</g>
<!-- Node5&#45;&gt;Node3 -->
<g id="edge6" class="edge"><title>Node5&#45;&gt;Node3</title>
<path fill="none" stroke="midnightblue" d="M279.382,-57.3243C256.973,-48.3394 222.441,-34.4936 197.18,-24.3657"/>
<polygon fill="midnightblue" stroke="midnightblue" points="198.246,-21.022 187.661,-20.549 195.641,-27.5192 198.246,-21.022"/>
</g>
<!-- Node7 -->
<g id="node7" class="node"><title>Node7</title>
<polygon fill="none" stroke="#bfbfbf" points="244.6,-0.5 244.6,-20.4299 373.41,-20.4299 373.41,-0.5 244.6,-0.5"/>
<text text-anchor="middle" x="309.005" y="-8.42993" font-family="Helvetica Neue" font-size="10.00">Foundation/Foundation.h</text>
</g>
<!-- Node6&#45;&gt;Node7 -->
<g id="edge8" class="edge"><title>Node6&#45;&gt;Node7</title>
<path fill="none" stroke="midnightblue" d="M427.557,-57.3243C404.227,-48.2996 368.22,-34.371 342.008,-24.2314"/>
<polygon fill="midnightblue" stroke="midnightblue" points="343.078,-20.8926 332.488,-20.549 340.552,-27.4211 343.078,-20.8926"/>
</g>
<!-- Node8 -->
<g id="node8" class="node"><title>Node8</title>
<polygon fill="none" stroke="#bfbfbf" points="391.16,-0.5 391.16,-20.4299 538.85,-20.4299 538.85,-0.5 391.16,-0.5"/>
<text text-anchor="middle" x="465.005" y="-8.42993" font-family="Helvetica Neue" font-size="10.00">DatabaseKit/DBConnection.h</text>
</g>
<!-- Node6&#45;&gt;Node8 -->
<g id="edge9" class="edge"><title>Node6&#45;&gt;Node8</title>
<path fill="none" stroke="midnightblue" d="M453.317,-57.3243C455.17,-50.053 457.835,-39.5981 460.152,-30.5065"/>
<polygon fill="midnightblue" stroke="midnightblue" points="463.565,-31.2873 462.643,-20.7326 456.782,-29.5584 463.565,-31.2873"/>
</g>
<!-- Node9 -->
<g id="node9" class="node"><title>Node9</title>
<polygon fill="none" stroke="#bfbfbf" points="556.765,-0.5 556.765,-20.4299 737.245,-20.4299 737.245,-0.5 556.765,-0.5"/>
<text text-anchor="middle" x="647.005" y="-8.42993" font-family="Helvetica Neue" font-size="10.00">DatabaseKit/DBSQLRepresentable.h</text>
</g>
<!-- Node6&#45;&gt;Node9 -->
<g id="edge10" class="edge"><title>Node6&#45;&gt;Node9</title>
<path fill="none" stroke="midnightblue" d="M483.37,-57.3243C516.665,-47.9935 568.664,-33.4204 605.086,-23.213"/>
<polygon fill="midnightblue" stroke="midnightblue" points="606.233,-26.5265 614.917,-20.4577 604.344,-19.7862 606.233,-26.5265"/>
</g>
</g>
</svg>
