<?xml version="1.0" encoding="UTF-8" standalone="no"?>
<!DOCTYPE svg PUBLIC "-//W3C//DTD SVG 1.1//EN"
 "http://www.w3.org/Graphics/SVG/1.1/DTD/svg11.dtd">
<!-- Generated by graphviz version 2.38.0 (20140413.2041)
 -->
<!-- Title: Source/DBModel.h Pages: 1 -->
<svg width="449pt" height="86pt"
 viewBox="0.00 0.00 448.91 85.86" xmlns="http://www.w3.org/2000/svg" xmlns:xlink="http://www.w3.org/1999/xlink">
<g id="graph0" class="graph" transform="scale(1 1) rotate(0) translate(4 81.8599)">
<title>Source/DBModel.h</title>
<!-- Node1 -->
<g id="node1" class="node"><title>Node1</title>
<polygon fill="#bfbfbf" stroke="black" points="149.26,-57.4299 149.26,-77.3599 250.46,-77.3599 250.46,-57.4299 149.26,-57.4299"/>
<text text-anchor="middle" x="199.86" y="-65.3599" font-family="Helvetica Neue" font-size="10.00">Source/DBModel.h</text>
</g>
<!-- Node2 -->
<g id="node2" class="node"><title>Node2</title>
<g id="a_node2"><a xlink:href="_d_b_table_8m.html" target="_top" xlink:title="Source/DBTable.m">
<polygon fill="none" stroke="black" points="1.42109e-14,-0.5 1.42109e-14,-20.4299 99.72,-20.4299 99.72,-0.5 1.42109e-14,-0.5"/>
<text text-anchor="middle" x="49.86" y="-8.42993" font-family="Helvetica Neue" font-size="10.00">Source/DBTable.m</text>
</a>
</g>
</g>
<!-- Node1&#45;&gt;Node2 -->
<g id="edge1" class="edge"><title>Node1&#45;&gt;Node2</title>
<path fill="none" stroke="midnightblue" d="M165.374,-53.7661C137.575,-43.5861 99.1659,-29.5208 74.4169,-20.4577"/>
<polygon fill="midnightblue" stroke="midnightblue" points="164.497,-57.1722 175.091,-57.3243 166.904,-50.599 164.497,-57.1722"/>
</g>
<!-- Node3 -->
<g id="node3" class="node"><title>Node3</title>
<g id="a_node3"><a xlink:href="_d_b_insert_query_8m.html" target="_top" xlink:title="Source/Queries/DBInsertQuery.m">
<polygon fill="none" stroke="black" points="117.31,-0.5 117.31,-20.4299 282.41,-20.4299 282.41,-0.5 117.31,-0.5"/>
<text text-anchor="middle" x="199.86" y="-8.42993" font-family="Helvetica Neue" font-size="10.00">Source/Queries/DBInsertQuery.m</text>
</a>
</g>
</g>
<!-- Node1&#45;&gt;Node3 -->
<g id="edge2" class="edge"><title>Node1&#45;&gt;Node3</title>
<path fill="none" stroke="midnightblue" d="M199.86,-47.3023C199.86,-38.3046 199.86,-27.9812 199.86,-20.7326"/>
<polygon fill="midnightblue" stroke="midnightblue" points="196.36,-47.3243 199.86,-57.3243 203.36,-47.3244 196.36,-47.3243"/>
</g>
<!-- Node4 -->
<g id="node4" class="node"><title>Node4</title>
<g id="a_node4"><a xlink:href="_d_b_query_8m.html" target="_top" xlink:title="Source/Queries/DBQuery.m">
<polygon fill="none" stroke="black" points="300.81,-0.5 300.81,-20.4299 440.91,-20.4299 440.91,-0.5 300.81,-0.5"/>
<text text-anchor="middle" x="370.86" y="-8.42993" font-family="Helvetica Neue" font-size="10.00">Source/Queries/DBQuery.m</text>
</a>
</g>
</g>
<!-- Node1&#45;&gt;Node4 -->
<g id="edge3" class="edge"><title>Node1&#45;&gt;Node4</title>
<path fill="none" stroke="midnightblue" d="M237.93,-54.1659C269.71,-43.9571 314.28,-29.64 342.865,-20.4577"/>
<polygon fill="midnightblue" stroke="midnightblue" points="236.548,-50.9336 228.097,-57.3243 238.688,-57.5982 236.548,-50.9336"/>
</g>
</g>
</svg>
