<?xml version="1.0" encoding="UTF-8" standalone="no"?>
<!DOCTYPE svg PUBLIC "-//W3C//DTD SVG 1.1//EN"
 "http://www.w3.org/Graphics/SVG/1.1/DTD/svg11.dtd">
<!-- Generated by graphviz version 2.38.0 (20140413.2041)
 -->
<!-- Title: Source/Connections/DBConnectionProxy.m Pages: 1 -->
<svg width="319pt" height="155pt"
 viewBox="0.00 0.00 318.76 154.72" xmlns="http://www.w3.org/2000/svg" xmlns:xlink="http://www.w3.org/1999/xlink">
<g id="graph0" class="graph" transform="scale(1 1) rotate(0) translate(4 150.72)">
<title>Source/Connections/DBConnectionProxy.m</title>
<!-- Node1 -->
<g id="node1" class="node"><title>Node1</title>
<polygon fill="#bfbfbf" stroke="black" points="116.85,-114.36 116.85,-146.22 237.68,-146.22 237.68,-114.36 116.85,-114.36"/>
<text text-anchor="start" x="124.85" y="-134.22" font-family="Helvetica Neue" font-size="10.00">Source/Connections</text>
<text text-anchor="middle" x="177.265" y="-122.29" font-family="Helvetica Neue" font-size="10.00">/DBConnectionProxy.m</text>
</g>
<!-- Node2 -->
<g id="node2" class="node"><title>Node2</title>
<g id="a_node2"><a xlink:href="_d_b_connection_proxy_8h.html" target="_top" xlink:title="DBConnectionProxy.h">
<polygon fill="none" stroke="black" points="-7.10543e-15,-57.4299 -7.10543e-15,-77.3599 114.53,-77.3599 114.53,-57.4299 -7.10543e-15,-57.4299"/>
<text text-anchor="middle" x="57.265" y="-65.3599" font-family="Helvetica Neue" font-size="10.00">DBConnectionProxy.h</text>
</a>
</g>
</g>
<!-- Node1&#45;&gt;Node2 -->
<g id="edge1" class="edge"><title>Node1&#45;&gt;Node2</title>
<path fill="none" stroke="midnightblue" d="M147.602,-114.237C128.127,-104.355 102.866,-91.5356 84.0102,-81.9669"/>
<polygon fill="midnightblue" stroke="midnightblue" points="85.5616,-78.8294 75.0602,-77.4252 82.3939,-85.0717 85.5616,-78.8294"/>
</g>
<!-- Node4 -->
<g id="node4" class="node"><title>Node4</title>
<g id="a_node4"><a xlink:href="_d_b_connection_8h.html" target="_top" xlink:title="DBConnection.h">
<polygon fill="none" stroke="black" points="132.405,-57.4299 132.405,-77.3599 222.125,-77.3599 222.125,-57.4299 132.405,-57.4299"/>
<text text-anchor="middle" x="177.265" y="-65.3599" font-family="Helvetica Neue" font-size="10.00">DBConnection.h</text>
</a>
</g>
</g>
<!-- Node1&#45;&gt;Node4 -->
<g id="edge3" class="edge"><title>Node1&#45;&gt;Node4</title>
<path fill="none" stroke="midnightblue" d="M177.265,-114.237C177.265,-106.205 177.265,-96.2325 177.265,-87.6423"/>
<polygon fill="midnightblue" stroke="midnightblue" points="180.765,-87.4252 177.265,-77.4252 173.765,-87.4252 180.765,-87.4252"/>
</g>
<!-- Node5 -->
<g id="node5" class="node"><title>Node5</title>
<g id="a_node5"><a xlink:href="_d_b_utilities_8h.html" target="_top" xlink:title="DBUtilities.h">
<polygon fill="none" stroke="black" points="239.765,-57.4299 239.765,-77.3599 310.765,-77.3599 310.765,-57.4299 239.765,-57.4299"/>
<text text-anchor="middle" x="275.265" y="-65.3599" font-family="Helvetica Neue" font-size="10.00">DBUtilities.h</text>
</a>
</g>
</g>
<!-- Node1&#45;&gt;Node5 -->
<g id="edge5" class="edge"><title>Node1&#45;&gt;Node5</title>
<path fill="none" stroke="midnightblue" d="M201.49,-114.237C216.886,-104.67 236.71,-92.3521 251.931,-82.8942"/>
<polygon fill="midnightblue" stroke="midnightblue" points="254.086,-85.6759 260.732,-77.4252 250.391,-79.7303 254.086,-85.6759"/>
</g>
<!-- Node3 -->
<g id="node3" class="node"><title>Node3</title>
<polygon fill="none" stroke="#bfbfbf" points="47.86,-0.5 47.86,-20.4299 176.67,-20.4299 176.67,-0.5 47.86,-0.5"/>
<text text-anchor="middle" x="112.265" y="-8.42993" font-family="Helvetica Neue" font-size="10.00">Foundation/Foundation.h</text>
</g>
<!-- Node2&#45;&gt;Node3 -->
<g id="edge2" class="edge"><title>Node2&#45;&gt;Node3</title>
<path fill="none" stroke="midnightblue" d="M66.3471,-57.3243C74.34,-49.3416 86.1747,-37.5221 95.8273,-27.8818"/>
<polygon fill="midnightblue" stroke="midnightblue" points="98.3832,-30.2756 102.986,-20.7326 93.4366,-25.3227 98.3832,-30.2756"/>
</g>
<!-- Node4&#45;&gt;Node3 -->
<g id="edge4" class="edge"><title>Node4&#45;&gt;Node3</title>
<path fill="none" stroke="midnightblue" d="M166.532,-57.3243C156.898,-49.1836 142.543,-37.0525 131.017,-27.3117"/>
<polygon fill="midnightblue" stroke="midnightblue" points="133.129,-24.514 123.232,-20.7326 128.61,-29.8605 133.129,-24.514"/>
</g>
<!-- Node6 -->
<g id="node6" class="node"><title>Node6</title>
<polygon fill="none" stroke="#bfbfbf" points="249.385,-0.5 249.385,-20.4299 301.145,-20.4299 301.145,-0.5 249.385,-0.5"/>
<text text-anchor="middle" x="275.265" y="-8.42993" font-family="Helvetica Neue" font-size="10.00">unistd.h</text>
</g>
<!-- Node5&#45;&gt;Node6 -->
<g id="edge6" class="edge"><title>Node5&#45;&gt;Node6</title>
<path fill="none" stroke="midnightblue" d="M275.265,-57.3243C275.265,-50.132 275.265,-39.825 275.265,-30.8035"/>
<polygon fill="midnightblue" stroke="midnightblue" points="278.765,-30.7326 275.265,-20.7326 271.765,-30.7326 278.765,-30.7326"/>
</g>
</g>
</svg>
