<?xml version="1.0" encoding="UTF-8" standalone="no"?>
<!DOCTYPE svg PUBLIC "-//W3C//DTD SVG 1.1//EN"
 "http://www.w3.org/Graphics/SVG/1.1/DTD/svg11.dtd">
<!-- Generated by graphviz version 2.38.0 (20140413.2041)
 -->
<!-- Title: Source/Utilities/DBPointerCollectionAdditions.h Pages: 1 -->
<svg width="286pt" height="110pt"
 viewBox="0.00 0.00 285.62 109.72" xmlns="http://www.w3.org/2000/svg" xmlns:xlink="http://www.w3.org/1999/xlink">
<g id="graph0" class="graph" transform="scale(1 1) rotate(0) translate(4 105.72)">
<title>Source/Utilities/DBPointerCollectionAdditions.h</title>
<!-- Node1 -->
<g id="node1" class="node"><title>Node1</title>
<polygon fill="#bfbfbf" stroke="black" points="70.78,-69.3599 70.78,-101.22 203.62,-101.22 203.62,-69.3599 70.78,-69.3599"/>
<text text-anchor="start" x="78.78" y="-89.2197" font-family="Helvetica Neue" font-size="10.00">Source/Utilities/DBPointer</text>
<text text-anchor="middle" x="137.2" y="-77.2898" font-family="Helvetica Neue" font-size="10.00">CollectionAdditions.h</text>
</g>
<!-- Node2 -->
<g id="node2" class="node"><title>Node2</title>
<g id="a_node2"><a xlink:href="_d_b_s_q_lite_connection_8m.html" target="_top" xlink:title="Source/Connections\l/DBSQLiteConnection.m">
<polygon fill="none" stroke="black" points="7.10543e-15,-0.5 7.10543e-15,-32.3599 126.4,-32.3599 126.4,-0.5 7.10543e-15,-0.5"/>
<text text-anchor="start" x="8" y="-20.3599" font-family="Helvetica Neue" font-size="10.00">Source/Connections</text>
<text text-anchor="middle" x="63.2" y="-8.42993" font-family="Helvetica Neue" font-size="10.00">/DBSQLiteConnection.m</text>
</a>
</g>
</g>
<!-- Node1&#45;&gt;Node2 -->
<g id="edge1" class="edge"><title>Node1&#45;&gt;Node2</title>
<path fill="none" stroke="midnightblue" d="M112.898,-62.3323C102.099,-52.5756 89.6582,-41.3352 79.9253,-32.5414"/>
<polygon fill="midnightblue" stroke="midnightblue" points="110.642,-65.0112 120.408,-69.1183 115.335,-59.8172 110.642,-65.0112"/>
</g>
<!-- Node3 -->
<g id="node3" class="node"><title>Node3</title>
<g id="a_node3"><a xlink:href="_d_b_pointer_collection_additions_8m.html" target="_top" xlink:title="Source/Utilities/DBPointer\lCollectionAdditions.m">
<polygon fill="none" stroke="black" points="144.78,-0.5 144.78,-32.3599 277.62,-32.3599 277.62,-0.5 144.78,-0.5"/>
<text text-anchor="start" x="152.78" y="-20.3599" font-family="Helvetica Neue" font-size="10.00">Source/Utilities/DBPointer</text>
<text text-anchor="middle" x="211.2" y="-8.42993" font-family="Helvetica Neue" font-size="10.00">CollectionAdditions.m</text>
</a>
</g>
</g>
<!-- Node1&#45;&gt;Node3 -->
<g id="edge2" class="edge"><title>Node1&#45;&gt;Node3</title>
<path fill="none" stroke="midnightblue" d="M161.502,-62.3323C172.301,-52.5756 184.742,-41.3352 194.475,-32.5414"/>
<polygon fill="midnightblue" stroke="midnightblue" points="159.065,-59.8172 153.992,-69.1183 163.758,-65.0112 159.065,-59.8172"/>
</g>
</g>
</svg>
