<?xml version="1.0" encoding="UTF-8" standalone="no"?>
<!DOCTYPE svg PUBLIC "-//W3C//DTD SVG 1.1//EN"
 "http://www.w3.org/Graphics/SVG/1.1/DTD/svg11.dtd">
<!-- Generated by graphviz version 2.38.0 (20140413.2041)
 -->
<!-- Title: Source/DB.m Pages: 1 -->
<!--zoomable 155 -->
<svg id="main" version="1.1" xmlns="http://www.w3.org/2000/svg" xmlns:xlink="http://www.w3.org/1999/xlink" xml:space="preserve" onload="init(evt)">
<style type="text/css"><![CDATA[
.edge:hover path { stroke: red; }
.edge:hover polygon { stroke: red; fill: red; }
]]></style>
<script type="text/javascript"><![CDATA[
var edges = document.getElementsByTagName('g');
if (edges && edges.length) {
  for (var i=0;i<edges.length;i++) {
    if (edges[i].id.substr(0,4)=='edge') {
      edges[i].setAttribute('class','edge');
    }
  }
}
]]></script>
        <defs>
                <circle id="rim" cx="0" cy="0" r="7"/>
                <circle id="rim2" cx="0" cy="0" r="3.5"/>
                <g id="zoomPlus">
                        <use xlink:href="#rim" fill="#404040">
                                <set attributeName="fill" to="#808080" begin="zoomplus.mouseover" end="zoomplus.mouseout"/>
                        </use>
                        <path d="M-4,0h8M0,-4v8" fill="none" stroke="white" stroke-width="1.5" pointer-events="none"/>
                </g>
                <g id="zoomMin">
                        <use xlink:href="#rim" fill="#404040">
                                <set attributeName="fill" to="#808080" begin="zoomminus.mouseover" end="zoomminus.mouseout"/>
                        </use>
                        <path d="M-4,0h8" fill="none" stroke="white" stroke-width="1.5" pointer-events="none"/>
                </g>
                <g id="dirArrow">
                        <path fill="none" stroke="white" stroke-width="1.5" d="M0,-3.0v7 M-2.5,-0.5L0,-3.0L2.5,-0.5"/>
                </g>
               <g id="resetDef">
                       <use xlink:href="#rim2" fill="#404040">
                               <set attributeName="fill" to="#808080" begin="reset.mouseover" end="reset.mouseout"/>
                       </use>
               </g>
        </defs>

<script type="text/javascript">
var viewWidth = 1139;
var viewHeight = 155;
var sectionId = 'dynsection-0';
</script>
<script xlink:href="svgpan.js"/>
<svg id="graph" class="graph">
<g id="viewport">
<title>Source/DB.m</title>
<!-- Node1 -->
<g id="node1" class="node"><title>Node1</title>
<polygon fill="#bfbfbf" stroke="black" points="674,-126.29 674,-146.22 750.2,-146.22 750.2,-126.29 674,-126.29"/>
<text text-anchor="middle" x="712.1" y="-134.22" font-family="Helvetica Neue" font-size="10.00">Source/DB.m</text>
</g>
<!-- Node2 -->
<g id="node2" class="node"><title>Node2</title>
<g id="a_node2"><a xlink:href="_d_b_09_private_8h.html" target="_top" xlink:title="DB+Private.h">
<polygon fill="none" stroke="black" points="177.525,-69.3599 177.525,-89.2898 252.675,-89.2898 252.675,-69.3599 177.525,-69.3599"/>
<text text-anchor="middle" x="215.1" y="-77.2898" font-family="Helvetica Neue" font-size="10.00">DB+Private.h</text>
</a>
</g>
</g>
<!-- Node1&#45;&gt;Node2 -->
<g id="edge1" class="edge"><title>Node1&#45;&gt;Node2</title>
<path fill="none" stroke="midnightblue" d="M673.926,-131.036C584.357,-121.136 360.877,-96.4366 262.668,-85.5822"/>
<polygon fill="midnightblue" stroke="midnightblue" points="263.047,-82.1029 252.723,-84.4831 262.278,-89.0605 263.047,-82.1029"/>
</g>
<!-- Node4 -->
<g id="node4" class="node"><title>Node4</title>
<g id="a_node4"><a xlink:href="_d_b_table_8h.html" target="_top" xlink:title="DBTable.h">
<polygon fill="none" stroke="black" points="386.225,-69.3599 386.225,-89.2898 447.975,-89.2898 447.975,-69.3599 386.225,-69.3599"/>
<text text-anchor="middle" x="417.1" y="-77.2898" font-family="Helvetica Neue" font-size="10.00">DBTable.h</text>
</a>
</g>
</g>
<!-- Node1&#45;&gt;Node4 -->
<g id="edge3" class="edge"><title>Node1&#45;&gt;Node4</title>
<path fill="none" stroke="midnightblue" d="M673.836,-128.13C618.213,-117.773 515.438,-98.6357 458.239,-87.9851"/>
<polygon fill="midnightblue" stroke="midnightblue" points="458.583,-84.489 448.111,-86.0992 457.301,-91.3707 458.583,-84.489"/>
</g>
<!-- Node8 -->
<g id="node8" class="node"><title>Node8</title>
<g id="a_node8"><a xlink:href="_d_b_model_09_private_8h.html" target="_top" xlink:title="DBModel+Private.h">
<polygon fill="none" stroke="black" points="532.54,-69.3599 532.54,-89.2898 635.66,-89.2898 635.66,-69.3599 532.54,-69.3599"/>
<text text-anchor="middle" x="584.1" y="-77.2898" font-family="Helvetica Neue" font-size="10.00">DBModel+Private.h</text>
</a>
</g>
</g>
<!-- Node1&#45;&gt;Node8 -->
<g id="edge7" class="edge"><title>Node1&#45;&gt;Node8</title>
<path fill="none" stroke="midnightblue" d="M690.963,-126.184C670.119,-117.239 638.048,-103.476 614.476,-93.3602"/>
<polygon fill="midnightblue" stroke="midnightblue" points="615.838,-90.1362 605.268,-89.4089 613.077,-96.5689 615.838,-90.1362"/>
</g>
<!-- Node10 -->
<g id="node10" class="node"><title>Node10</title>
<g id="a_node10"><a xlink:href="_d_b_create_table_query_8h.html" target="_top" xlink:title="DBCreateTableQuery.h">
<polygon fill="none" stroke="black" points="653.35,-69.3599 653.35,-89.2898 770.85,-89.2898 770.85,-69.3599 653.35,-69.3599"/>
<text text-anchor="middle" x="712.1" y="-77.2898" font-family="Helvetica Neue" font-size="10.00">DBCreateTableQuery.h</text>
</a>
</g>
</g>
<!-- Node1&#45;&gt;Node10 -->
<g id="edge9" class="edge"><title>Node1&#45;&gt;Node10</title>
<path fill="none" stroke="midnightblue" d="M712.1,-126.184C712.1,-118.992 712.1,-108.685 712.1,-99.6633"/>
<polygon fill="midnightblue" stroke="midnightblue" points="715.6,-99.5924 712.1,-89.5925 708.6,-99.5925 715.6,-99.5924"/>
</g>
<!-- Node12 -->
<g id="node12" class="node"><title>Node12</title>
<g id="a_node12"><a xlink:href="_d_b_delete_query_8h.html" target="_top" xlink:title="DBDeleteQuery.h">
<polygon fill="none" stroke="black" points="788.665,-69.3599 788.665,-89.2898 881.535,-89.2898 881.535,-69.3599 788.665,-69.3599"/>
<text text-anchor="middle" x="835.1" y="-77.2898" font-family="Helvetica Neue" font-size="10.00">DBDeleteQuery.h</text>
</a>
</g>
</g>
<!-- Node1&#45;&gt;Node12 -->
<g id="edge11" class="edge"><title>Node1&#45;&gt;Node12</title>
<path fill="none" stroke="midnightblue" d="M732.411,-126.184C752.352,-117.279 782.986,-103.598 805.608,-93.4953"/>
<polygon fill="midnightblue" stroke="midnightblue" points="807.055,-96.6824 814.759,-89.4089 804.201,-90.2908 807.055,-96.6824"/>
</g>
<!-- Node13 -->
<g id="node13" class="node"><title>Node13</title>
<g id="a_node13"><a xlink:href="_d_b_connection_pool_8h.html" target="_top" xlink:title="DBConnectionPool.h">
<polygon fill="none" stroke="black" points="899.15,-69.3599 899.15,-89.2898 1009.05,-89.2898 1009.05,-69.3599 899.15,-69.3599"/>
<text text-anchor="middle" x="954.1" y="-77.2898" font-family="Helvetica Neue" font-size="10.00">DBConnectionPool.h</text>
</a>
</g>
</g>
<!-- Node1&#45;&gt;Node13 -->
<g id="edge13" class="edge"><title>Node1&#45;&gt;Node13</title>
<path fill="none" stroke="midnightblue" d="M750.446,-126.551C792.078,-117.101 858.716,-101.975 904.351,-91.617"/>
<polygon fill="midnightblue" stroke="midnightblue" points="905.348,-94.9799 914.325,-89.3531 903.798,-88.1535 905.348,-94.9799"/>
</g>
<!-- Node15 -->
<g id="node15" class="node"><title>Node15</title>
<polygon fill="none" stroke="#bfbfbf" points="1027.48,-69.3599 1027.48,-89.2898 1130.72,-89.2898 1130.72,-69.3599 1027.48,-69.3599"/>
<text text-anchor="middle" x="1079.1" y="-77.2898" font-family="Helvetica Neue" font-size="10.00">libkern/OSAtomic.h</text>
</g>
<!-- Node1&#45;&gt;Node15 -->
<g id="edge15" class="edge"><title>Node1&#45;&gt;Node15</title>
<path fill="none" stroke="midnightblue" d="M750.276,-129.663C806.383,-121.428 914.683,-105.464 1017.28,-89.9067"/>
<polygon fill="midnightblue" stroke="midnightblue" points="1017.83,-93.3638 1027.19,-88.4027 1016.78,-86.4431 1017.83,-93.3638"/>
</g>
<!-- Node3 -->
<g id="node3" class="node"><title>Node3</title>
<polygon fill="none" stroke="#bfbfbf" points="2.84217e-14,-6.46497 2.84217e-14,-26.3949 96.2,-26.3949 96.2,-6.46497 2.84217e-14,-6.46497"/>
<text text-anchor="middle" x="48.1" y="-14.3949" font-family="Helvetica Neue" font-size="10.00">DatabaseKit/DB.h</text>
</g>
<!-- Node2&#45;&gt;Node3 -->
<g id="edge2" class="edge"><title>Node2&#45;&gt;Node3</title>
<path fill="none" stroke="midnightblue" d="M190.459,-69.3396C161.845,-58.9058 114.468,-41.6304 82.2999,-29.9006"/>
<polygon fill="midnightblue" stroke="midnightblue" points="83.4365,-26.5897 72.8425,-26.452 81.0384,-33.1661 83.4365,-26.5897"/>
</g>
<!-- Node5 -->
<g id="node5" class="node"><title>Node5</title>
<polygon fill="none" stroke="#bfbfbf" points="114.255,-6.46497 114.255,-26.3949 261.945,-26.3949 261.945,-6.46497 114.255,-6.46497"/>
<text text-anchor="middle" x="188.1" y="-14.3949" font-family="Helvetica Neue" font-size="10.00">DatabaseKit/DBConnection.h</text>
</g>
<!-- Node4&#45;&gt;Node5 -->
<g id="edge4" class="edge"><title>Node4&#45;&gt;Node5</title>
<path fill="none" stroke="midnightblue" d="M386.216,-70.1123C346.377,-59.5185 276.844,-41.0285 231.651,-29.0108"/>
<polygon fill="midnightblue" stroke="midnightblue" points="232.401,-25.5889 221.838,-26.4014 230.602,-32.3538 232.401,-25.5889"/>
</g>
<!-- Node6 -->
<g id="node6" class="node"><title>Node6</title>
<polygon fill="none" stroke="#bfbfbf" points="279.565,-6.46497 279.565,-26.3949 452.635,-26.3949 452.635,-6.46497 279.565,-6.46497"/>
<text text-anchor="middle" x="366.1" y="-14.3949" font-family="Helvetica Neue" font-size="10.00">DatabaseKit/DBColumnDefinition.h</text>
</g>
<!-- Node4&#45;&gt;Node6 -->
<g id="edge5" class="edge"><title>Node4&#45;&gt;Node6</title>
<path fill="none" stroke="midnightblue" d="M409.575,-69.3396C401.891,-60.165 389.777,-45.7007 380.286,-34.3681"/>
<polygon fill="midnightblue" stroke="midnightblue" points="382.76,-31.8713 373.656,-26.452 377.394,-36.3658 382.76,-31.8713"/>
</g>
<!-- Node7 -->
<g id="node7" class="node"><title>Node7</title>
<polygon fill="none" stroke="#bfbfbf" points="470.695,-6.46497 470.695,-26.3949 599.505,-26.3949 599.505,-6.46497 470.695,-6.46497"/>
<text text-anchor="middle" x="535.1" y="-14.3949" font-family="Helvetica Neue" font-size="10.00">Foundation/Foundation.h</text>
</g>
<!-- Node4&#45;&gt;Node7 -->
<g id="edge6" class="edge"><title>Node4&#45;&gt;Node7</title>
<path fill="none" stroke="midnightblue" d="M434.511,-69.3396C454.032,-59.2655 485.912,-42.8137 508.546,-31.1333"/>
<polygon fill="midnightblue" stroke="midnightblue" points="510.336,-34.1483 517.617,-26.452 507.126,-27.9278 510.336,-34.1483"/>
</g>
<!-- Node9 -->
<g id="node9" class="node"><title>Node9</title>
<polygon fill="none" stroke="#bfbfbf" points="617.015,-6.46497 617.015,-26.3949 741.185,-26.3949 741.185,-6.46497 617.015,-6.46497"/>
<text text-anchor="middle" x="679.1" y="-14.3949" font-family="Helvetica Neue" font-size="10.00">DatabaseKit/DBModel.h</text>
</g>
<!-- Node8&#45;&gt;Node9 -->
<g id="edge8" class="edge"><title>Node8&#45;&gt;Node9</title>
<path fill="none" stroke="midnightblue" d="M598.118,-69.3396C613.413,-59.5354 638.132,-43.6904 656.242,-32.0819"/>
<polygon fill="midnightblue" stroke="midnightblue" points="658.495,-34.7952 665.025,-26.452 654.717,-28.902 658.495,-34.7952"/>
</g>
<!-- Node11 -->
<g id="node11" class="node"><title>Node11</title>
<polygon fill="none" stroke="#bfbfbf" points="758.94,-6.46497 758.94,-26.3949 881.26,-26.3949 881.26,-6.46497 758.94,-6.46497"/>
<text text-anchor="middle" x="820.1" y="-14.3949" font-family="Helvetica Neue" font-size="10.00">DatabaseKit/DBQuery.h</text>
</g>
<!-- Node10&#45;&gt;Node11 -->
<g id="edge10" class="edge"><title>Node10&#45;&gt;Node11</title>
<path fill="none" stroke="midnightblue" d="M728.036,-69.3396C745.743,-59.3555 774.561,-43.1069 795.24,-31.4473"/>
<polygon fill="midnightblue" stroke="midnightblue" points="797.107,-34.4124 804.099,-26.452 793.669,-28.3148 797.107,-34.4124"/>
</g>
<!-- Node12&#45;&gt;Node11 -->
<g id="edge12" class="edge"><title>Node12&#45;&gt;Node11</title>
<path fill="none" stroke="midnightblue" d="M832.887,-69.3396C830.76,-60.7047 827.478,-47.384 824.773,-36.3988"/>
<polygon fill="midnightblue" stroke="midnightblue" points="828.113,-35.3247 822.322,-26.452 821.316,-36.999 828.113,-35.3247"/>
</g>
<!-- Node14 -->
<g id="node14" class="node"><title>Node14</title>
<polygon fill="none" stroke="#bfbfbf" points="899.425,-0.5 899.425,-32.3599 1038.78,-32.3599 1038.78,-0.5 899.425,-0.5"/>
<text text-anchor="start" x="907.425" y="-20.3599" font-family="Helvetica Neue" font-size="10.00">DatabaseKit/DBConnection</text>
<text text-anchor="middle" x="969.1" y="-8.42993" font-family="Helvetica Neue" font-size="10.00">Proxy.h</text>
</g>
<!-- Node13&#45;&gt;Node14 -->
<g id="edge14" class="edge"><title>Node13&#45;&gt;Node14</title>
<path fill="none" stroke="midnightblue" d="M956.313,-69.3396C958.061,-62.2452 960.588,-51.9877 962.934,-42.4612"/>
<polygon fill="midnightblue" stroke="midnightblue" points="966.371,-43.142 965.364,-32.5951 959.574,-41.4677 966.371,-43.142"/>
</g>
</g>
</svg>
        <g id="navigator" transform="translate(0 0)" fill="#404254">
                <rect fill="#f2f5e9" fill-opacity="0.5" stroke="#606060" stroke-width=".5" x="0" y="0" width="60" height="60"/>
                <use id="zoomplus" xlink:href="#zoomPlus" x="17" y="9" onmousedown="handleZoom(evt,'in')"/>
                <use id="zoomminus" xlink:href="#zoomMin" x="42" y="9" onmousedown="handleZoom(evt,'out')"/>
                <use id="reset" xlink:href="#resetDef" x="30" y="36" onmousedown="handleReset()"/>
                <g id="arrowUp" xlink:href="#dirArrow" transform="translate(30 24)" onmousedown="handlePan(0,-1)">
                  <use xlink:href="#rim" fill="#404040">
                        <set attributeName="fill" to="#808080" begin="arrowUp.mouseover" end="arrowUp.mouseout"/>
                  </use>
                  <path fill="none" stroke="white" stroke-width="1.5" d="M0,-3.0v7 M-2.5,-0.5L0,-3.0L2.5,-0.5"/>
                </g>
                <g id="arrowRight" xlink:href="#dirArrow" transform="rotate(90) translate(36 -43)" onmousedown="handlePan(1,0)">
                  <use xlink:href="#rim" fill="#404040">
                        <set attributeName="fill" to="#808080" begin="arrowRight.mouseover" end="arrowRight.mouseout"/>
                  </use>
                  <path fill="none" stroke="white" stroke-width="1.5" d="M0,-3.0v7 M-2.5,-0.5L0,-3.0L2.5,-0.5"/>
                </g>
                <g id="arrowDown" xlink:href="#dirArrow" transform="rotate(180) translate(-30 -48)" onmousedown="handlePan(0,1)">
                  <use xlink:href="#rim" fill="#404040">
                        <set attributeName="fill" to="#808080" begin="arrowDown.mouseover" end="arrowDown.mouseout"/>
                  </use>
                  <path fill="none" stroke="white" stroke-width="1.5" d="M0,-3.0v7 M-2.5,-0.5L0,-3.0L2.5,-0.5"/>
                </g>
                <g id="arrowLeft" xlink:href="#dirArrow" transform="rotate(270) translate(-36 17)" onmousedown="handlePan(-1,0)">
                  <use xlink:href="#rim" fill="#404040">
                        <set attributeName="fill" to="#808080" begin="arrowLeft.mouseover" end="arrowLeft.mouseout"/>
                  </use>
                  <path fill="none" stroke="white" stroke-width="1.5" d="M0,-3.0v7 M-2.5,-0.5L0,-3.0L2.5,-0.5"/>
                </g>
        </g>
        <svg viewBox="0 0 15 15" width="100%" height="30px" preserveAspectRatio="xMaxYMin meet">
         <g id="arrow_out" transform="scale(0.3 0.3)">
          <a xlink:href="_d_b_8m__incl_org.svg" target="_base">
           <rect id="button" ry="5" rx="5" y="6" x="6" height="38" width="38"
                fill="#f2f5e9" fill-opacity="0.5" stroke="#606060" stroke-width="1.0"/>
           <path id="arrow"
             d="M 11.500037,31.436501 C 11.940474,20.09759 22.043105,11.32322 32.158766,21.979434 L 37.068811,17.246167 C 37.068811,17.246167 37.088388,32 37.088388,32 L 22.160133,31.978069 C 22.160133,31.978069 26.997745,27.140456 26.997745,27.140456 C 18.528582,18.264221 13.291696,25.230495 11.500037,31.436501 z"
             style="fill:#404040;"/>
          </a>
         </g>
        </svg>
</svg>
