<?xml version="1.0" encoding="UTF-8" standalone="no"?>
<!DOCTYPE svg PUBLIC "-//W3C//DTD SVG 1.1//EN"
 "http://www.w3.org/Graphics/SVG/1.1/DTD/svg11.dtd">
<!-- Generated by graphviz version 2.38.0 (20140413.2041)
 -->
<!-- Title: Source/Utilities/DBISO8601DateFormatter.h Pages: 1 -->
<svg width="292pt" height="110pt"
 viewBox="0.00 0.00 292.15 109.72" xmlns="http://www.w3.org/2000/svg" xmlns:xlink="http://www.w3.org/1999/xlink">
<g id="graph0" class="graph" transform="scale(1 1) rotate(0) translate(4 105.72)">
<title>Source/Utilities/DBISO8601DateFormatter.h</title>
<!-- Node1 -->
<g id="node1" class="node"><title>Node1</title>
<polygon fill="#bfbfbf" stroke="black" points="68.25,-69.3599 68.25,-101.22 208.15,-101.22 208.15,-69.3599 68.25,-69.3599"/>
<text text-anchor="start" x="76.25" y="-89.2197" font-family="Helvetica Neue" font-size="10.00">Source/Utilities/DBISO8601</text>
<text text-anchor="middle" x="138.2" y="-77.2898" font-family="Helvetica Neue" font-size="10.00">DateFormatter.h</text>
</g>
<!-- Node2 -->
<g id="node2" class="node"><title>Node2</title>
<g id="a_node2"><a xlink:href="_d_b_s_q_lite_connection_8m.html" target="_top" xlink:title="Source/Connections\l/DBSQLiteConnection.m">
<polygon fill="none" stroke="black" points="7.10543e-15,-0.5 7.10543e-15,-32.3599 126.4,-32.3599 126.4,-0.5 7.10543e-15,-0.5"/>
<text text-anchor="start" x="8" y="-20.3599" font-family="Helvetica Neue" font-size="10.00">Source/Connections</text>
<text text-anchor="middle" x="63.2" y="-8.42993" font-family="Helvetica Neue" font-size="10.00">/DBSQLiteConnection.m</text>
</a>
</g>
</g>
<!-- Node1&#45;&gt;Node2 -->
<g id="edge1" class="edge"><title>Node1&#45;&gt;Node2</title>
<path fill="none" stroke="midnightblue" d="M113.569,-62.3323C102.625,-52.5756 90.0157,-41.3352 80.1513,-32.5414"/>
<polygon fill="midnightblue" stroke="midnightblue" points="111.388,-65.0764 121.181,-69.1183 116.046,-59.8513 111.388,-65.0764"/>
</g>
<!-- Node3 -->
<g id="node3" class="node"><title>Node3</title>
<g id="a_node3"><a xlink:href="_d_b_i_s_o8601_date_formatter_8m.html" target="_top" xlink:title="Source/Utilities/DBISO8601\lDateFormatter.m">
<polygon fill="none" stroke="black" points="144.25,-0.5 144.25,-32.3599 284.15,-32.3599 284.15,-0.5 144.25,-0.5"/>
<text text-anchor="start" x="152.25" y="-20.3599" font-family="Helvetica Neue" font-size="10.00">Source/Utilities/DBISO8601</text>
<text text-anchor="middle" x="214.2" y="-8.42993" font-family="Helvetica Neue" font-size="10.00">DateFormatter.m</text>
</a>
</g>
</g>
<!-- Node1&#45;&gt;Node3 -->
<g id="edge2" class="edge"><title>Node1&#45;&gt;Node3</title>
<path fill="none" stroke="midnightblue" d="M163.159,-62.3323C174.25,-52.5756 187.027,-41.3352 197.023,-32.5414"/>
<polygon fill="midnightblue" stroke="midnightblue" points="160.642,-59.8852 155.446,-69.1183 165.266,-65.1409 160.642,-59.8852"/>
</g>
</g>
</svg>
