<?xml version="1.0" encoding="UTF-8" standalone="no"?>
<!DOCTYPE svg PUBLIC "-//W3C//DTD SVG 1.1//EN"
 "http://www.w3.org/Graphics/SVG/1.1/DTD/svg11.dtd">
<!-- Generated by graphviz version 2.38.0 (20140413.2041)
 -->
<!-- Title: Source/DB.h Pages: 1 -->
<svg width="717pt" height="98pt"
 viewBox="0.00 0.00 717.14 97.79" xmlns="http://www.w3.org/2000/svg" xmlns:xlink="http://www.w3.org/1999/xlink">
<g id="graph0" class="graph" transform="scale(1 1) rotate(0) translate(4 93.7898)">
<title>Source/DB.h</title>
<!-- Node1 -->
<g id="node1" class="node"><title>Node1</title>
<polygon fill="#bfbfbf" stroke="black" points="302.92,-69.3599 302.92,-89.2898 376.15,-89.2898 376.15,-69.3599 302.92,-69.3599"/>
<text text-anchor="middle" x="339.535" y="-77.2898" font-family="Helvetica Neue" font-size="10.00">Source/DB.h</text>
</g>
<!-- Node2 -->
<g id="node2" class="node"><title>Node2</title>
<g id="a_node2"><a xlink:href="_d_b_column_definition_8m.html" target="_top" xlink:title="Source/DBColumnDefinition.m">
<polygon fill="none" stroke="black" points="-2.84217e-14,-6.46497 -2.84217e-14,-26.3949 153.07,-26.3949 153.07,-6.46497 -2.84217e-14,-6.46497"/>
<text text-anchor="middle" x="76.535" y="-14.3949" font-family="Helvetica Neue" font-size="10.00">Source/DBColumnDefinition.m</text>
</a>
</g>
</g>
<!-- Node1&#45;&gt;Node2 -->
<g id="edge1" class="edge"><title>Node1&#45;&gt;Node2</title>
<path fill="none" stroke="midnightblue" d="M292.668,-67.4732C242.083,-55.7608 162.446,-37.3217 115.27,-26.3986"/>
<polygon fill="midnightblue" stroke="midnightblue" points="292.157,-70.9475 302.689,-69.7935 293.736,-64.1279 292.157,-70.9475"/>
</g>
<!-- Node3 -->
<g id="node3" class="node"><title>Node3</title>
<g id="a_node3"><a xlink:href="_d_b_index_8m.html" target="_top" xlink:title="Source/DBIndex.m">
<polygon fill="none" stroke="black" points="171.12,-6.46497 171.12,-26.3949 271.95,-26.3949 271.95,-6.46497 171.12,-6.46497"/>
<text text-anchor="middle" x="221.535" y="-14.3949" font-family="Helvetica Neue" font-size="10.00">Source/DBIndex.m</text>
</a>
</g>
</g>
<!-- Node1&#45;&gt;Node3 -->
<g id="edge2" class="edge"><title>Node1&#45;&gt;Node3</title>
<path fill="none" stroke="midnightblue" d="M313.064,-64.6642C290.453,-52.9954 258.569,-36.5416 239.018,-26.452"/>
<polygon fill="midnightblue" stroke="midnightblue" points="311.632,-67.8639 322.124,-69.3396 314.842,-61.6433 311.632,-67.8639"/>
</g>
<!-- Node4 -->
<g id="node4" class="node"><title>Node4</title>
<g id="a_node4"><a xlink:href="_d_b_table_8m.html" target="_top" xlink:title="Source/DBTable.m">
<polygon fill="none" stroke="black" points="289.675,-6.46497 289.675,-26.3949 389.395,-26.3949 389.395,-6.46497 289.675,-6.46497"/>
<text text-anchor="middle" x="339.535" y="-14.3949" font-family="Helvetica Neue" font-size="10.00">Source/DBTable.m</text>
</a>
</g>
</g>
<!-- Node1&#45;&gt;Node4 -->
<g id="edge3" class="edge"><title>Node1&#45;&gt;Node4</title>
<path fill="none" stroke="midnightblue" d="M339.535,-59.059C339.535,-48.1471 339.535,-35.0102 339.535,-26.452"/>
<polygon fill="midnightblue" stroke="midnightblue" points="336.035,-59.3395 339.535,-69.3396 343.035,-59.3396 336.035,-59.3395"/>
</g>
<!-- Node5 -->
<g id="node5" class="node"><title>Node5</title>
<g id="a_node5"><a xlink:href="_d_b_query_8m.html" target="_top" xlink:title="Source/Queries/DBQuery.m">
<polygon fill="none" stroke="black" points="407.485,-6.46497 407.485,-26.3949 547.585,-26.3949 547.585,-6.46497 407.485,-6.46497"/>
<text text-anchor="middle" x="477.535" y="-14.3949" font-family="Helvetica Neue" font-size="10.00">Source/Queries/DBQuery.m</text>
</a>
</g>
</g>
<!-- Node1&#45;&gt;Node5 -->
<g id="edge4" class="edge"><title>Node1&#45;&gt;Node5</title>
<path fill="none" stroke="midnightblue" d="M369.087,-65.2846C395.6,-53.5851 433.816,-36.7218 457.089,-26.452"/>
<polygon fill="midnightblue" stroke="midnightblue" points="367.633,-62.1003 359.897,-69.3396 370.459,-68.5045 367.633,-62.1003"/>
</g>
<!-- Node6 -->
<g id="node6" class="node"><title>Node6</title>
<g id="a_node6"><a xlink:href="_n_s_predicate_09_d_b_s_q_l_representable_8m.html" target="_top" xlink:title="Source/Utilities/NSPredicate\l+DBSQLRepresentable.m">
<polygon fill="none" stroke="black" points="565.93,-0.5 565.93,-32.3599 709.14,-32.3599 709.14,-0.5 565.93,-0.5"/>
<text text-anchor="start" x="573.93" y="-20.3599" font-family="Helvetica Neue" font-size="10.00">Source/Utilities/NSPredicate</text>
<text text-anchor="middle" x="637.535" y="-8.42993" font-family="Helvetica Neue" font-size="10.00">+DBSQLRepresentable.m</text>
</a>
</g>
</g>
<!-- Node1&#45;&gt;Node6 -->
<g id="edge5" class="edge"><title>Node1&#45;&gt;Node6</title>
<path fill="none" stroke="midnightblue" d="M386.212,-68.7867C434.351,-58.9496 510.053,-43.4803 565.802,-32.0882"/>
<polygon fill="midnightblue" stroke="midnightblue" points="385.471,-65.3655 376.375,-70.7968 386.873,-72.2238 385.471,-65.3655"/>
</g>
</g>
</svg>
