<?xml version="1.0" encoding="UTF-8" standalone="no"?>
<!DOCTYPE svg PUBLIC "-//W3C//DTD SVG 1.1//EN"
 "http://www.w3.org/Graphics/SVG/1.1/DTD/svg11.dtd">
<!-- Generated by graphviz version 2.38.0 (20140413.2041)
 -->
<!-- Title: Source/DBModel.m Pages: 1 -->
<svg width="1403pt" height="143pt"
 viewBox="0.00 0.00 1402.70 142.79" xmlns="http://www.w3.org/2000/svg" xmlns:xlink="http://www.w3.org/1999/xlink">
<g id="graph0" class="graph" transform="scale(1 1) rotate(0) translate(4 138.79)">
<title>Source/DBModel.m</title>
<!-- Node1 -->
<g id="node1" class="node"><title>Node1</title>
<polygon fill="#bfbfbf" stroke="black" points="732,-114.36 732,-134.29 836.17,-134.29 836.17,-114.36 732,-114.36"/>
<text text-anchor="middle" x="784.085" y="-122.29" font-family="Helvetica Neue" font-size="10.00">Source/DBModel.m</text>
</g>
<!-- Node2 -->
<g id="node2" class="node"><title>Node2</title>
<g id="a_node2"><a xlink:href="_d_b_model_09_private_8h.html" target="_top" xlink:title="DBModel+Private.h">
<polygon fill="none" stroke="black" points="15.525,-57.4299 15.525,-77.3599 118.645,-77.3599 118.645,-57.4299 15.525,-57.4299"/>
<text text-anchor="middle" x="67.085" y="-65.3599" font-family="Helvetica Neue" font-size="10.00">DBModel+Private.h</text>
</a>
</g>
</g>
<!-- Node1&#45;&gt;Node2 -->
<g id="edge1" class="edge"><title>Node1&#45;&gt;Node2</title>
<path fill="none" stroke="midnightblue" d="M731.991,-120.802C621.939,-115.223 357.754,-100.508 137.085,-77.8599 134.376,-77.5819 131.611,-77.2809 128.819,-76.963"/>
<polygon fill="midnightblue" stroke="midnightblue" points="128.992,-73.4589 118.648,-75.7489 128.163,-80.4096 128.992,-73.4589"/>
</g>
<!-- Node4 -->
<g id="node4" class="node"><title>Node4</title>
<g id="a_node4"><a xlink:href="_d_b_09_private_8h.html" target="_top" xlink:title="DB+Private.h">
<polygon fill="none" stroke="black" points="146.51,-57.4299 146.51,-77.3599 221.66,-77.3599 221.66,-57.4299 146.51,-57.4299"/>
<text text-anchor="middle" x="184.085" y="-65.3599" font-family="Helvetica Neue" font-size="10.00">DB+Private.h</text>
</a>
</g>
</g>
<!-- Node1&#45;&gt;Node4 -->
<g id="edge3" class="edge"><title>Node1&#45;&gt;Node4</title>
<path fill="none" stroke="midnightblue" d="M731.632,-121.055C634.875,-116.423 421.65,-104.146 231.891,-77.8053"/>
<polygon fill="midnightblue" stroke="midnightblue" points="232.118,-74.3029 221.728,-76.3778 231.144,-81.2349 232.118,-74.3029"/>
</g>
<!-- Node6 -->
<g id="node6" class="node"><title>Node6</title>
<g id="a_node6"><a xlink:href="_d_b_select_query_8h.html" target="_top" xlink:title="DBSelectQuery.h">
<polygon fill="none" stroke="black" points="239.93,-57.4299 239.93,-77.3599 332.24,-77.3599 332.24,-57.4299 239.93,-57.4299"/>
<text text-anchor="middle" x="286.085" y="-65.3599" font-family="Helvetica Neue" font-size="10.00">DBSelectQuery.h</text>
</a>
</g>
</g>
<!-- Node1&#45;&gt;Node6 -->
<g id="edge5" class="edge"><title>Node1&#45;&gt;Node6</title>
<path fill="none" stroke="midnightblue" d="M731.777,-119.119C650.627,-112.339 489.287,-97.8401 342.367,-77.9558"/>
<polygon fill="midnightblue" stroke="midnightblue" points="342.645,-74.4614 332.263,-76.5766 341.698,-81.3971 342.645,-74.4614"/>
</g>
<!-- Node8 -->
<g id="node8" class="node"><title>Node8</title>
<g id="a_node8"><a xlink:href="_d_b_insert_query_8h.html" target="_top" xlink:title="DBInsertQuery.h">
<polygon fill="none" stroke="black" points="350.41,-57.4299 350.41,-77.3599 439.76,-77.3599 439.76,-57.4299 350.41,-57.4299"/>
<text text-anchor="middle" x="395.085" y="-65.3599" font-family="Helvetica Neue" font-size="10.00">DBInsertQuery.h</text>
</a>
</g>
</g>
<!-- Node1&#45;&gt;Node8 -->
<g id="edge7" class="edge"><title>Node1&#45;&gt;Node8</title>
<path fill="none" stroke="midnightblue" d="M731.771,-116.86C667.771,-108.81 555.872,-94.279 449.77,-77.9163"/>
<polygon fill="midnightblue" stroke="midnightblue" points="450.27,-74.4521 439.852,-76.3787 449.198,-81.3695 450.27,-74.4521"/>
</g>
<!-- Node9 -->
<g id="node9" class="node"><title>Node9</title>
<g id="a_node9"><a xlink:href="_d_b_delete_query_8h.html" target="_top" xlink:title="DBDeleteQuery.h">
<polygon fill="none" stroke="black" points="457.65,-57.4299 457.65,-77.3599 550.52,-77.3599 550.52,-57.4299 457.65,-57.4299"/>
<text text-anchor="middle" x="504.085" y="-65.3599" font-family="Helvetica Neue" font-size="10.00">DBDeleteQuery.h</text>
</a>
</g>
</g>
<!-- Node1&#45;&gt;Node9 -->
<g id="edge9" class="edge"><title>Node1&#45;&gt;Node9</title>
<path fill="none" stroke="midnightblue" d="M738.162,-114.316C689.436,-104.757 612.413,-89.6465 560.141,-79.392"/>
<polygon fill="midnightblue" stroke="midnightblue" points="560.52,-75.8995 550.033,-77.4089 559.172,-82.7686 560.52,-75.8995"/>
</g>
<!-- Node10 -->
<g id="node10" class="node"><title>Node10</title>
<g id="a_node10"><a xlink:href="_d_b_table_8h.html" target="_top" xlink:title="DBTable.h">
<polygon fill="none" stroke="black" points="932.21,-57.4299 932.21,-77.3599 993.96,-77.3599 993.96,-57.4299 932.21,-57.4299"/>
<text text-anchor="middle" x="963.085" y="-65.3599" font-family="Helvetica Neue" font-size="10.00">DBTable.h</text>
</a>
</g>
</g>
<!-- Node1&#45;&gt;Node10 -->
<g id="edge11" class="edge"><title>Node1&#45;&gt;Node10</title>
<path fill="none" stroke="midnightblue" d="M813.643,-114.254C843.79,-105.003 890.728,-90.599 923.946,-80.4056"/>
<polygon fill="midnightblue" stroke="midnightblue" points="925.247,-83.6674 933.78,-77.3876 923.194,-76.9754 925.247,-83.6674"/>
</g>
<!-- Node14 -->
<g id="node14" class="node"><title>Node14</title>
<g id="a_node14"><a xlink:href="_d_b_query_8h.html" target="_top" xlink:title="DBQuery.h">
<polygon fill="none" stroke="black" points="568.91,-57.4299 568.91,-77.3599 633.26,-77.3599 633.26,-57.4299 568.91,-57.4299"/>
<text text-anchor="middle" x="601.085" y="-65.3599" font-family="Helvetica Neue" font-size="10.00">DBQuery.h</text>
</a>
</g>
</g>
<!-- Node1&#45;&gt;Node14 -->
<g id="edge15" class="edge"><title>Node1&#45;&gt;Node14</title>
<path fill="none" stroke="midnightblue" d="M753.866,-114.254C722.913,-104.963 674.644,-90.4748 640.66,-80.274"/>
<polygon fill="midnightblue" stroke="midnightblue" points="641.629,-76.9104 631.044,-77.3876 639.616,-83.6149 641.629,-76.9104"/>
</g>
<!-- Node16 -->
<g id="node16" class="node"><title>Node16</title>
<g id="a_node16"><a xlink:href="_d_b_utilities_8h.html" target="_top" xlink:title="DBUtilities.h">
<polygon fill="none" stroke="black" points="1202.59,-57.4299 1202.59,-77.3599 1273.59,-77.3599 1273.59,-57.4299 1202.59,-57.4299"/>
<text text-anchor="middle" x="1238.09" y="-65.3599" font-family="Helvetica Neue" font-size="10.00">DBUtilities.h</text>
</a>
</g>
</g>
<!-- Node1&#45;&gt;Node16 -->
<g id="edge19" class="edge"><title>Node1&#45;&gt;Node16</title>
<path fill="none" stroke="midnightblue" d="M836.225,-118.718C913.349,-111.619 1062.28,-96.8185 1188.09,-77.8599 1189.53,-77.6418 1191,-77.4124 1192.48,-77.1739"/>
<polygon fill="midnightblue" stroke="midnightblue" points="1193.09,-80.6211 1202.36,-75.4945 1191.92,-73.7201 1193.09,-80.6211"/>
</g>
<!-- Node17 -->
<g id="node17" class="node"><title>Node17</title>
<polygon fill="none" stroke="#bfbfbf" points="1212.2,-0.5 1212.2,-20.4299 1263.97,-20.4299 1263.97,-0.5 1212.2,-0.5"/>
<text text-anchor="middle" x="1238.09" y="-8.42993" font-family="Helvetica Neue" font-size="10.00">unistd.h</text>
</g>
<!-- Node1&#45;&gt;Node17 -->
<g id="edge30" class="edge"><title>Node1&#45;&gt;Node17</title>
<path fill="none" stroke="midnightblue" d="M836.47,-124.235C907.739,-123.802 1038.16,-117.008 1141.09,-77.8599 1171.85,-66.1579 1202.36,-42.8443 1220.71,-27.1967"/>
<polygon fill="midnightblue" stroke="midnightblue" points="1223.02,-29.8293 1228.25,-20.616 1218.42,-24.5562 1223.02,-29.8293"/>
</g>
<!-- Node18 -->
<g id="node18" class="node"><title>Node18</title>
<g id="a_node18"><a xlink:href="_n_s_string_09_d_b_additions_8h.html" target="_top" xlink:title="NSString+DBAdditions.h">
<polygon fill="none" stroke="black" points="650.765,-57.4299 650.765,-77.3599 777.405,-77.3599 777.405,-57.4299 650.765,-57.4299"/>
<text text-anchor="middle" x="714.085" y="-65.3599" font-family="Helvetica Neue" font-size="10.00">NSString+DBAdditions.h</text>
</a>
</g>
</g>
<!-- Node1&#45;&gt;Node18 -->
<g id="edge21" class="edge"><title>Node1&#45;&gt;Node18</title>
<path fill="none" stroke="midnightblue" d="M772.526,-114.254C762.051,-106.034 746.392,-93.7465 733.919,-83.9586"/>
<polygon fill="midnightblue" stroke="midnightblue" points="735.923,-81.0825 725.895,-77.6625 731.602,-86.5894 735.923,-81.0825"/>
</g>
<!-- Node19 -->
<g id="node19" class="node"><title>Node19</title>
<g id="a_node19"><a xlink:href="_d_b_introspection_8h.html" target="_top" xlink:title="DBIntrospection.h">
<polygon fill="none" stroke="black" points="1011.71,-57.4299 1011.71,-77.3599 1108.47,-77.3599 1108.47,-57.4299 1011.71,-57.4299"/>
<text text-anchor="middle" x="1060.09" y="-65.3599" font-family="Helvetica Neue" font-size="10.00">DBIntrospection.h</text>
</a>
</g>
</g>
<!-- Node1&#45;&gt;Node19 -->
<g id="edge24" class="edge"><title>Node1&#45;&gt;Node19</title>
<path fill="none" stroke="midnightblue" d="M829.352,-114.316C877.381,-104.757 953.305,-89.6465 1004.83,-79.392"/>
<polygon fill="midnightblue" stroke="midnightblue" points="1005.67,-82.7936 1014.79,-77.4089 1004.3,-75.9282 1005.67,-82.7936"/>
</g>
<!-- Node20 -->
<g id="node20" class="node"><title>Node20</title>
<polygon fill="none" stroke="#bfbfbf" points="1113.76,-0.5 1113.76,-20.4299 1194.41,-20.4299 1194.41,-0.5 1113.76,-0.5"/>
<text text-anchor="middle" x="1154.09" y="-8.42993" font-family="Helvetica Neue" font-size="10.00">objc/runtime.h</text>
</g>
<!-- Node1&#45;&gt;Node20 -->
<g id="edge29" class="edge"><title>Node1&#45;&gt;Node20</title>
<path fill="none" stroke="midnightblue" d="M836.434,-121.796C918.457,-118.484 1072.51,-108.292 1117.09,-77.8599 1133.55,-66.6154 1143.47,-45.5088 1148.84,-30.1025"/>
<polygon fill="midnightblue" stroke="midnightblue" points="1152.18,-31.1281 1151.85,-20.5386 1145.51,-29.0271 1152.18,-31.1281"/>
</g>
<!-- Node21 -->
<g id="node21" class="node"><title>Node21</title>
<g id="a_node21"><a xlink:href="_d_b_ordered_dictionary_8h.html" target="_top" xlink:title="DBOrderedDictionary.h">
<polygon fill="none" stroke="black" points="795.59,-57.4299 795.59,-77.3599 914.58,-77.3599 914.58,-57.4299 795.59,-57.4299"/>
<text text-anchor="middle" x="855.085" y="-65.3599" font-family="Helvetica Neue" font-size="10.00">DBOrderedDictionary.h</text>
</a>
</g>
</g>
<!-- Node1&#45;&gt;Node21 -->
<g id="edge27" class="edge"><title>Node1&#45;&gt;Node21</title>
<path fill="none" stroke="midnightblue" d="M795.809,-114.254C806.434,-106.034 822.317,-93.7465 834.968,-83.9586"/>
<polygon fill="midnightblue" stroke="midnightblue" points="837.338,-86.5499 843.106,-77.6625 833.055,-81.0134 837.338,-86.5499"/>
</g>
<!-- Node22 -->
<g id="node22" class="node"><title>Node22</title>
<polygon fill="none" stroke="#bfbfbf" points="1291.46,-57.4299 1291.46,-77.3599 1394.71,-77.3599 1394.71,-57.4299 1291.46,-57.4299"/>
<text text-anchor="middle" x="1343.09" y="-65.3599" font-family="Helvetica Neue" font-size="10.00">libkern/OSAtomic.h</text>
</g>
<!-- Node1&#45;&gt;Node22 -->
<g id="edge31" class="edge"><title>Node1&#45;&gt;Node22</title>
<path fill="none" stroke="midnightblue" d="M836.289,-119.702C925.463,-113.264 1113.06,-98.6447 1281.37,-78.0082"/>
<polygon fill="midnightblue" stroke="midnightblue" points="1281.91,-81.4683 1291.4,-76.7678 1281.05,-74.5212 1281.91,-81.4683"/>
</g>
<!-- Node3 -->
<g id="node3" class="node"><title>Node3</title>
<polygon fill="none" stroke="#bfbfbf" points="4.26326e-14,-0.5 4.26326e-14,-20.4299 124.17,-20.4299 124.17,-0.5 4.26326e-14,-0.5"/>
<text text-anchor="middle" x="62.085" y="-8.42993" font-family="Helvetica Neue" font-size="10.00">DatabaseKit/DBModel.h</text>
</g>
<!-- Node2&#45;&gt;Node3 -->
<g id="edge2" class="edge"><title>Node2&#45;&gt;Node3</title>
<path fill="none" stroke="midnightblue" d="M66.2594,-57.3243C65.6047,-50.132 64.6665,-39.825 63.8453,-30.8035"/>
<polygon fill="midnightblue" stroke="midnightblue" points="67.3208,-30.3741 62.9286,-20.7326 60.3496,-31.0087 67.3208,-30.3741"/>
</g>
<!-- Node5 -->
<g id="node5" class="node"><title>Node5</title>
<polygon fill="none" stroke="#bfbfbf" points="141.985,-0.5 141.985,-20.4299 238.185,-20.4299 238.185,-0.5 141.985,-0.5"/>
<text text-anchor="middle" x="190.085" y="-8.42993" font-family="Helvetica Neue" font-size="10.00">DatabaseKit/DB.h</text>
</g>
<!-- Node4&#45;&gt;Node5 -->
<g id="edge4" class="edge"><title>Node4&#45;&gt;Node5</title>
<path fill="none" stroke="midnightblue" d="M185.076,-57.3243C185.861,-50.132 186.987,-39.825 187.973,-30.8035"/>
<polygon fill="midnightblue" stroke="midnightblue" points="191.466,-31.0535 189.073,-20.7326 184.507,-30.2934 191.466,-31.0535"/>
</g>
<!-- Node7 -->
<g id="node7" class="node"><title>Node7</title>
<polygon fill="none" stroke="#bfbfbf" points="271.925,-0.5 271.925,-20.4299 394.245,-20.4299 394.245,-0.5 271.925,-0.5"/>
<text text-anchor="middle" x="333.085" y="-8.42993" font-family="Helvetica Neue" font-size="10.00">DatabaseKit/DBQuery.h</text>
</g>
<!-- Node6&#45;&gt;Node7 -->
<g id="edge6" class="edge"><title>Node6&#45;&gt;Node7</title>
<path fill="none" stroke="midnightblue" d="M293.846,-57.3243C300.541,-49.4997 310.39,-37.9887 318.546,-28.457"/>
<polygon fill="midnightblue" stroke="midnightblue" points="321.313,-30.6063 325.155,-20.7326 315.995,-26.0554 321.313,-30.6063"/>
</g>
<!-- Node8&#45;&gt;Node7 -->
<g id="edge8" class="edge"><title>Node8&#45;&gt;Node7</title>
<path fill="none" stroke="midnightblue" d="M384.847,-57.3243C375.748,-49.2626 362.231,-37.2876 351.292,-27.5961"/>
<polygon fill="midnightblue" stroke="midnightblue" points="353.351,-24.7443 343.545,-20.7326 348.709,-29.9838 353.351,-24.7443"/>
</g>
<!-- Node9&#45;&gt;Node7 -->
<g id="edge10" class="edge"><title>Node9&#45;&gt;Node7</title>
<path fill="none" stroke="midnightblue" d="M475.848,-57.3243C447.173,-48.1131 402.594,-33.7932 370.886,-23.6077"/>
<polygon fill="midnightblue" stroke="midnightblue" points="371.671,-20.1838 361.08,-20.4577 369.53,-26.8484 371.671,-20.1838"/>
</g>
<!-- Node11 -->
<g id="node11" class="node"><title>Node11</title>
<polygon fill="none" stroke="#bfbfbf" points="610.24,-0.5 610.24,-20.4299 757.93,-20.4299 757.93,-0.5 610.24,-0.5"/>
<text text-anchor="middle" x="684.085" y="-8.42993" font-family="Helvetica Neue" font-size="10.00">DatabaseKit/DBConnection.h</text>
</g>
<!-- Node10&#45;&gt;Node11 -->
<g id="edge12" class="edge"><title>Node10&#45;&gt;Node11</title>
<path fill="none" stroke="midnightblue" d="M932.107,-58.9215C929.062,-58.2301 926.016,-57.5552 923.085,-56.9299 862.731,-44.0554 793.418,-31.0672 745.032,-22.2887"/>
<polygon fill="midnightblue" stroke="midnightblue" points="745.499,-18.8164 735.036,-20.4809 744.253,-25.7047 745.499,-18.8164"/>
</g>
<!-- Node12 -->
<g id="node12" class="node"><title>Node12</title>
<polygon fill="none" stroke="#bfbfbf" points="922.55,-0.5 922.55,-20.4299 1095.62,-20.4299 1095.62,-0.5 922.55,-0.5"/>
<text text-anchor="middle" x="1009.09" y="-8.42993" font-family="Helvetica Neue" font-size="10.00">DatabaseKit/DBColumnDefinition.h</text>
</g>
<!-- Node10&#45;&gt;Node12 -->
<g id="edge13" class="edge"><title>Node10&#45;&gt;Node12</title>
<path fill="none" stroke="midnightblue" d="M970.681,-57.3243C977.234,-49.4997 986.873,-37.9887 994.855,-28.457"/>
<polygon fill="midnightblue" stroke="midnightblue" points="997.587,-30.6465 1001.32,-20.7326 992.22,-26.1522 997.587,-30.6465"/>
</g>
<!-- Node13 -->
<g id="node13" class="node"><title>Node13</title>
<polygon fill="none" stroke="#bfbfbf" points="775.68,-0.5 775.68,-20.4299 904.49,-20.4299 904.49,-0.5 775.68,-0.5"/>
<text text-anchor="middle" x="840.085" y="-8.42993" font-family="Helvetica Neue" font-size="10.00">Foundation/Foundation.h</text>
</g>
<!-- Node10&#45;&gt;Node13 -->
<g id="edge14" class="edge"><title>Node10&#45;&gt;Node13</title>
<path fill="none" stroke="midnightblue" d="M942.774,-57.3243C922.833,-48.4189 892.199,-34.7383 869.577,-24.6354"/>
<polygon fill="midnightblue" stroke="midnightblue" points="870.984,-21.431 860.426,-20.549 868.13,-27.8226 870.984,-21.431"/>
</g>
<!-- Node14&#45;&gt;Node11 -->
<g id="edge16" class="edge"><title>Node14&#45;&gt;Node11</title>
<path fill="none" stroke="midnightblue" d="M614.791,-57.3243C627.526,-48.896 646.724,-36.1904 661.686,-26.2886"/>
<polygon fill="midnightblue" stroke="midnightblue" points="663.951,-28.9867 670.359,-20.549 660.088,-23.1492 663.951,-28.9867"/>
</g>
<!-- Node14&#45;&gt;Node13 -->
<g id="edge18" class="edge"><title>Node14&#45;&gt;Node13</title>
<path fill="none" stroke="midnightblue" d="M633.313,-58.9512C636.279,-58.2674 639.237,-57.5856 642.085,-56.9299 692.781,-45.2578 750.789,-31.9428 790.853,-22.7529"/>
<polygon fill="midnightblue" stroke="midnightblue" points="791.672,-26.1559 800.637,-20.5089 790.107,-19.3331 791.672,-26.1559"/>
</g>
<!-- Node15 -->
<g id="node15" class="node"><title>Node15</title>
<polygon fill="none" stroke="#bfbfbf" points="411.845,-0.5 411.845,-20.4299 592.325,-20.4299 592.325,-0.5 411.845,-0.5"/>
<text text-anchor="middle" x="502.085" y="-8.42993" font-family="Helvetica Neue" font-size="10.00">DatabaseKit/DBSQLRepresentable.h</text>
</g>
<!-- Node14&#45;&gt;Node15 -->
<g id="edge17" class="edge"><title>Node14&#45;&gt;Node15</title>
<path fill="none" stroke="midnightblue" d="M584.737,-57.3243C569.117,-48.6574 545.345,-35.4678 527.299,-25.4548"/>
<polygon fill="midnightblue" stroke="midnightblue" points="528.899,-22.3403 518.457,-20.549 525.503,-28.4612 528.899,-22.3403"/>
</g>
<!-- Node16&#45;&gt;Node17 -->
<g id="edge20" class="edge"><title>Node16&#45;&gt;Node17</title>
<path fill="none" stroke="midnightblue" d="M1238.09,-57.3243C1238.09,-50.132 1238.09,-39.825 1238.09,-30.8035"/>
<polygon fill="midnightblue" stroke="midnightblue" points="1241.59,-30.7326 1238.09,-20.7326 1234.59,-30.7326 1241.59,-30.7326"/>
</g>
<!-- Node18&#45;&gt;Node13 -->
<g id="edge23" class="edge"><title>Node18&#45;&gt;Node13</title>
<path fill="none" stroke="midnightblue" d="M734.891,-57.3243C755.319,-48.4189 786.7,-34.7383 809.874,-24.6354"/>
<polygon fill="midnightblue" stroke="midnightblue" points="811.48,-27.7537 819.248,-20.549 808.682,-21.337 811.48,-27.7537"/>
</g>
<!-- Node18&#45;&gt;Node15 -->
<g id="edge22" class="edge"><title>Node18&#45;&gt;Node15</title>
<path fill="none" stroke="midnightblue" d="M679.078,-57.3243C642.835,-47.9337 586.099,-33.2333 546.67,-23.0172"/>
<polygon fill="midnightblue" stroke="midnightblue" points="547.35,-19.5779 536.792,-20.4577 545.595,-26.3541 547.35,-19.5779"/>
</g>
<!-- Node19&#45;&gt;Node13 -->
<g id="edge25" class="edge"><title>Node19&#45;&gt;Node13</title>
<path fill="none" stroke="midnightblue" d="M1023.76,-57.3243C985.986,-47.8938 926.769,-33.1084 885.833,-22.8873"/>
<polygon fill="midnightblue" stroke="midnightblue" points="886.652,-19.4845 876.102,-20.4577 884.956,-26.276 886.652,-19.4845"/>
</g>
<!-- Node19&#45;&gt;Node20 -->
<g id="edge26" class="edge"><title>Node19&#45;&gt;Node20</title>
<path fill="none" stroke="midnightblue" d="M1075.61,-57.3243C1090.3,-48.737 1112.6,-35.7094 1129.67,-25.7312"/>
<polygon fill="midnightblue" stroke="midnightblue" points="1131.67,-28.6163 1138.54,-20.549 1128.14,-22.5725 1131.67,-28.6163"/>
</g>
<!-- Node21&#45;&gt;Node13 -->
<g id="edge28" class="edge"><title>Node21&#45;&gt;Node13</title>
<path fill="none" stroke="midnightblue" d="M852.608,-57.3243C850.622,-50.053 847.767,-39.5981 845.285,-30.5065"/>
<polygon fill="midnightblue" stroke="midnightblue" points="848.627,-29.4574 842.616,-20.7326 841.874,-31.3014 848.627,-29.4574"/>
</g>
</g>
</svg>
