<?xml version="1.0" encoding="UTF-8" standalone="no"?>
<!DOCTYPE svg PUBLIC "-//W3C//DTD SVG 1.1//EN"
 "http://www.w3.org/Graphics/SVG/1.1/DTD/svg11.dtd">
<!-- Generated by graphviz version 2.38.0 (20140413.2041)
 -->
<!-- Title: Source/DBTable.h Pages: 1 -->
<svg width="493pt" height="86pt"
 viewBox="0.00 0.00 493.25 85.86" xmlns="http://www.w3.org/2000/svg" xmlns:xlink="http://www.w3.org/1999/xlink">
<g id="graph0" class="graph" transform="scale(1 1) rotate(0) translate(4 81.8599)">
<title>Source/DBTable.h</title>
<!-- Node1 -->
<g id="node1" class="node"><title>Node1</title>
<polygon fill="#bfbfbf" stroke="black" points="203.47,-57.4299 203.47,-77.3599 300.22,-77.3599 300.22,-57.4299 203.47,-57.4299"/>
<text text-anchor="middle" x="251.845" y="-65.3599" font-family="Helvetica Neue" font-size="10.00">Source/DBTable.h</text>
</g>
<!-- Node2 -->
<g id="node2" class="node"><title>Node2</title>
<polygon fill="none" stroke="#bfbfbf" points="0,-0.5 0,-20.4299 147.69,-20.4299 147.69,-0.5 0,-0.5"/>
<text text-anchor="middle" x="73.845" y="-8.42993" font-family="Helvetica Neue" font-size="10.00">DatabaseKit/DBConnection.h</text>
</g>
<!-- Node1&#45;&gt;Node2 -->
<g id="edge1" class="edge"><title>Node1&#45;&gt;Node2</title>
<path fill="none" stroke="midnightblue" d="M222.452,-57.3243C192.474,-48.0732 145.797,-33.6691 112.766,-23.4756"/>
<polygon fill="midnightblue" stroke="midnightblue" points="113.573,-20.0621 102.986,-20.4577 111.509,-26.7509 113.573,-20.0621"/>
</g>
<!-- Node3 -->
<g id="node3" class="node"><title>Node3</title>
<polygon fill="none" stroke="#bfbfbf" points="165.31,-0.5 165.31,-20.4299 338.38,-20.4299 338.38,-0.5 165.31,-0.5"/>
<text text-anchor="middle" x="251.845" y="-8.42993" font-family="Helvetica Neue" font-size="10.00">DatabaseKit/DBColumnDefinition.h</text>
</g>
<!-- Node1&#45;&gt;Node3 -->
<g id="edge2" class="edge"><title>Node1&#45;&gt;Node3</title>
<path fill="none" stroke="midnightblue" d="M251.845,-57.3243C251.845,-50.132 251.845,-39.825 251.845,-30.8035"/>
<polygon fill="midnightblue" stroke="midnightblue" points="255.345,-30.7326 251.845,-20.7326 248.345,-30.7326 255.345,-30.7326"/>
</g>
<!-- Node4 -->
<g id="node4" class="node"><title>Node4</title>
<polygon fill="none" stroke="#bfbfbf" points="356.44,-0.5 356.44,-20.4299 485.25,-20.4299 485.25,-0.5 356.44,-0.5"/>
<text text-anchor="middle" x="420.845" y="-8.42993" font-family="Helvetica Neue" font-size="10.00">Foundation/Foundation.h</text>
</g>
<!-- Node1&#45;&gt;Node4 -->
<g id="edge3" class="edge"><title>Node1&#45;&gt;Node4</title>
<path fill="none" stroke="midnightblue" d="M279.752,-57.3243C308.092,-48.1131 352.149,-33.7932 383.486,-23.6077"/>
<polygon fill="midnightblue" stroke="midnightblue" points="384.749,-26.8775 393.178,-20.4577 382.585,-20.2203 384.749,-26.8775"/>
</g>
</g>
</svg>
