<?xml version="1.0" encoding="UTF-8" standalone="no"?>
<!DOCTYPE svg PUBLIC "-//W3C//DTD SVG 1.1//EN"
 "http://www.w3.org/Graphics/SVG/1.1/DTD/svg11.dtd">
<!-- Generated by graphviz version 2.38.0 (20140413.2041)
 -->
<!-- Title: Source/DBIndex.m Pages: 1 -->
<svg width="493pt" height="143pt"
 viewBox="0.00 0.00 492.94 142.79" xmlns="http://www.w3.org/2000/svg" xmlns:xlink="http://www.w3.org/1999/xlink">
<g id="graph0" class="graph" transform="scale(1 1) rotate(0) translate(4 138.79)">
<title>Source/DBIndex.m</title>
<!-- Node1 -->
<g id="node1" class="node"><title>Node1</title>
<polygon fill="#bfbfbf" stroke="black" points="82.99,-114.36 82.99,-134.29 183.82,-134.29 183.82,-114.36 82.99,-114.36"/>
<text text-anchor="middle" x="133.405" y="-122.29" font-family="Helvetica Neue" font-size="10.00">Source/DBIndex.m</text>
</g>
<!-- Node2 -->
<g id="node2" class="node"><title>Node2</title>
<g id="a_node2"><a xlink:href="_d_b_index_8h.html" target="_top" xlink:title="DBIndex.h">
<polygon fill="none" stroke="black" points="32.975,-57.4299 32.975,-77.3599 95.835,-77.3599 95.835,-57.4299 32.975,-57.4299"/>
<text text-anchor="middle" x="64.405" y="-65.3599" font-family="Helvetica Neue" font-size="10.00">DBIndex.h</text>
</a>
</g>
</g>
<!-- Node1&#45;&gt;Node2 -->
<g id="edge1" class="edge"><title>Node1&#45;&gt;Node2</title>
<path fill="none" stroke="midnightblue" d="M122.011,-114.254C111.686,-106.034 96.2503,-93.7465 83.9553,-83.9586"/>
<polygon fill="midnightblue" stroke="midnightblue" points="86.05,-81.1526 76.0465,-77.6625 81.6902,-86.6291 86.05,-81.1526"/>
</g>
<!-- Node4 -->
<g id="node4" class="node"><title>Node4</title>
<g id="a_node4"><a xlink:href="_d_b_8h.html" target="_top" xlink:title="DB.h">
<polygon fill="none" stroke="black" points="114.29,-57.4299 114.29,-77.3599 152.52,-77.3599 152.52,-57.4299 114.29,-57.4299"/>
<text text-anchor="middle" x="133.405" y="-65.3599" font-family="Helvetica Neue" font-size="10.00">DB.h</text>
</a>
</g>
</g>
<!-- Node1&#45;&gt;Node4 -->
<g id="edge3" class="edge"><title>Node1&#45;&gt;Node4</title>
<path fill="none" stroke="midnightblue" d="M133.405,-114.254C133.405,-107.062 133.405,-96.7549 133.405,-87.7334"/>
<polygon fill="midnightblue" stroke="midnightblue" points="136.905,-87.6625 133.405,-77.6625 129.905,-87.6626 136.905,-87.6625"/>
</g>
<!-- Node5 -->
<g id="node5" class="node"><title>Node5</title>
<g id="a_node5"><a xlink:href="_d_b_table_8h.html" target="_top" xlink:title="DBTable.h">
<polygon fill="none" stroke="black" points="179.53,-57.4299 179.53,-77.3599 241.28,-77.3599 241.28,-57.4299 179.53,-57.4299"/>
<text text-anchor="middle" x="210.405" y="-65.3599" font-family="Helvetica Neue" font-size="10.00">DBTable.h</text>
</a>
</g>
</g>
<!-- Node1&#45;&gt;Node5 -->
<g id="edge5" class="edge"><title>Node1&#45;&gt;Node5</title>
<path fill="none" stroke="midnightblue" d="M146.12,-114.254C157.823,-105.905 175.41,-93.3597 189.232,-83.4995"/>
<polygon fill="midnightblue" stroke="midnightblue" points="191.563,-86.1357 197.671,-77.4789 187.498,-80.4372 191.563,-86.1357"/>
</g>
<!-- Node3 -->
<g id="node3" class="node"><title>Node3</title>
<polygon fill="none" stroke="#bfbfbf" points="0,-0.5 0,-20.4299 128.81,-20.4299 128.81,-0.5 0,-0.5"/>
<text text-anchor="middle" x="64.405" y="-8.42993" font-family="Helvetica Neue" font-size="10.00">Foundation/Foundation.h</text>
</g>
<!-- Node2&#45;&gt;Node3 -->
<g id="edge2" class="edge"><title>Node2&#45;&gt;Node3</title>
<path fill="none" stroke="midnightblue" d="M64.405,-57.3243C64.405,-50.132 64.405,-39.825 64.405,-30.8035"/>
<polygon fill="midnightblue" stroke="midnightblue" points="67.9051,-30.7326 64.405,-20.7326 60.9051,-30.7326 67.9051,-30.7326"/>
</g>
<!-- Node4&#45;&gt;Node3 -->
<g id="edge4" class="edge"><title>Node4&#45;&gt;Node3</title>
<path fill="none" stroke="midnightblue" d="M122.011,-57.3243C111.686,-49.1045 96.2503,-36.8165 83.9553,-27.0287"/>
<polygon fill="midnightblue" stroke="midnightblue" points="86.05,-24.2226 76.0465,-20.7326 81.6902,-29.6992 86.05,-24.2226"/>
</g>
<!-- Node5&#45;&gt;Node3 -->
<g id="edge8" class="edge"><title>Node5&#45;&gt;Node3</title>
<path fill="none" stroke="midnightblue" d="M186.296,-57.3243C162.203,-48.2599 124.961,-34.2482 97.9819,-24.0977"/>
<polygon fill="midnightblue" stroke="midnightblue" points="99.1417,-20.7946 88.5497,-20.549 96.6768,-27.3462 99.1417,-20.7946"/>
</g>
<!-- Node6 -->
<g id="node6" class="node"><title>Node6</title>
<polygon fill="none" stroke="#bfbfbf" points="146.56,-0.5 146.56,-20.4299 294.25,-20.4299 294.25,-0.5 146.56,-0.5"/>
<text text-anchor="middle" x="220.405" y="-8.42993" font-family="Helvetica Neue" font-size="10.00">DatabaseKit/DBConnection.h</text>
</g>
<!-- Node5&#45;&gt;Node6 -->
<g id="edge6" class="edge"><title>Node5&#45;&gt;Node6</title>
<path fill="none" stroke="midnightblue" d="M212.056,-57.3243C213.366,-50.132 215.242,-39.825 216.884,-30.8035"/>
<polygon fill="midnightblue" stroke="midnightblue" points="220.37,-31.1978 218.718,-20.7326 213.483,-29.944 220.37,-31.1978"/>
</g>
<!-- Node7 -->
<g id="node7" class="node"><title>Node7</title>
<polygon fill="none" stroke="#bfbfbf" points="311.87,-0.5 311.87,-20.4299 484.94,-20.4299 484.94,-0.5 311.87,-0.5"/>
<text text-anchor="middle" x="398.405" y="-8.42993" font-family="Helvetica Neue" font-size="10.00">DatabaseKit/DBColumnDefinition.h</text>
</g>
<!-- Node5&#45;&gt;Node7 -->
<g id="edge7" class="edge"><title>Node5&#45;&gt;Node7</title>
<path fill="none" stroke="midnightblue" d="M241.449,-57.3243C273.248,-48.0334 322.836,-33.5448 357.748,-23.3441"/>
<polygon fill="midnightblue" stroke="midnightblue" points="359.01,-26.6219 367.627,-20.4577 357.047,-19.9028 359.01,-26.6219"/>
</g>
</g>
</svg>
