<?xml version="1.0" encoding="UTF-8" standalone="no"?>
<!DOCTYPE svg PUBLIC "-//W3C//DTD SVG 1.1//EN"
 "http://www.w3.org/Graphics/SVG/1.1/DTD/svg11.dtd">
<!-- Generated by graphviz version 2.38.0 (20140413.2041)
 -->
<!-- Title: Source/Connections/DBConnectionPool.h Pages: 1 -->
<svg width="218pt" height="110pt"
 viewBox="0.00 0.00 218.20 109.72" xmlns="http://www.w3.org/2000/svg" xmlns:xlink="http://www.w3.org/1999/xlink">
<g id="graph0" class="graph" transform="scale(1 1) rotate(0) translate(4 105.72)">
<title>Source/Connections/DBConnectionPool.h</title>
<!-- Node1 -->
<g id="node1" class="node"><title>Node1</title>
<polygon fill="#bfbfbf" stroke="black" points="58.485,-69.3599 58.485,-101.22 171.715,-101.22 171.715,-69.3599 58.485,-69.3599"/>
<text text-anchor="start" x="66.485" y="-89.2197" font-family="Helvetica Neue" font-size="10.00">Source/Connections</text>
<text text-anchor="middle" x="115.1" y="-77.2898" font-family="Helvetica Neue" font-size="10.00">/DBConnectionPool.h</text>
</g>
<!-- Node2 -->
<g id="node2" class="node"><title>Node2</title>
<g id="a_node2"><a xlink:href="_d_b_connection_pool_8m.html" target="_top" xlink:title="Source/Connections\l/DBConnectionPool.m">
<polygon fill="none" stroke="black" points="0,-0.5 0,-32.3599 116.2,-32.3599 116.2,-0.5 0,-0.5"/>
<text text-anchor="start" x="8" y="-20.3599" font-family="Helvetica Neue" font-size="10.00">Source/Connections</text>
<text text-anchor="middle" x="58.1" y="-8.42993" font-family="Helvetica Neue" font-size="10.00">/DBConnectionPool.m</text>
</a>
</g>
</g>
<!-- Node1&#45;&gt;Node2 -->
<g id="edge1" class="edge"><title>Node1&#45;&gt;Node2</title>
<path fill="none" stroke="midnightblue" d="M95.6506,-61.4761C87.5063,-51.9229 78.2616,-41.0791 70.983,-32.5414"/>
<polygon fill="midnightblue" stroke="midnightblue" points="93.0147,-63.779 102.166,-69.1183 98.3416,-59.2377 93.0147,-63.779"/>
</g>
<!-- Node3 -->
<g id="node3" class="node"><title>Node3</title>
<g id="a_node3"><a xlink:href="_d_b_8m.html" target="_top" xlink:title="Source/DB.m">
<polygon fill="none" stroke="black" points="134,-6.46497 134,-26.3949 210.2,-26.3949 210.2,-6.46497 134,-6.46497"/>
<text text-anchor="middle" x="172.1" y="-14.3949" font-family="Helvetica Neue" font-size="10.00">Source/DB.m</text>
</a>
</g>
</g>
<!-- Node1&#45;&gt;Node3 -->
<g id="edge2" class="edge"><title>Node1&#45;&gt;Node3</title>
<path fill="none" stroke="midnightblue" d="M134.728,-61.266C144.889,-49.3483 156.72,-35.4707 164.303,-26.5754"/>
<polygon fill="midnightblue" stroke="midnightblue" points="131.858,-59.2377 128.034,-69.1183 137.185,-63.779 131.858,-59.2377"/>
</g>
</g>
</svg>
