<?xml version="1.0" encoding="UTF-8" standalone="no"?>
<!DOCTYPE svg PUBLIC "-//W3C//DTD SVG 1.1//EN"
 "http://www.w3.org/Graphics/SVG/1.1/DTD/svg11.dtd">
<!-- Generated by graphviz version 2.38.0 (20140413.2041)
 -->
<!-- Title: Source/Queries/DBCreateTableQuery.h Pages: 1 -->
<svg width="406pt" height="110pt"
 viewBox="0.00 0.00 405.53 109.72" xmlns="http://www.w3.org/2000/svg" xmlns:xlink="http://www.w3.org/1999/xlink">
<g id="graph0" class="graph" transform="scale(1 1) rotate(0) translate(4 105.72)">
<title>Source/Queries/DBCreateTableQuery.h</title>
<!-- Node1 -->
<g id="node1" class="node"><title>Node1</title>
<polygon fill="#bfbfbf" stroke="black" points="107.71,-69.3599 107.71,-101.22 263.53,-101.22 263.53,-69.3599 107.71,-69.3599"/>
<text text-anchor="start" x="115.71" y="-89.2197" font-family="Helvetica Neue" font-size="10.00">Source/Queries/DBCreateTable</text>
<text text-anchor="middle" x="185.62" y="-77.2898" font-family="Helvetica Neue" font-size="10.00">Query.h</text>
</g>
<!-- Node2 -->
<g id="node2" class="node"><title>Node2</title>
<g id="a_node2"><a xlink:href="_d_b_09_migrations_8m.html" target="_top" xlink:title="Source/DB+Migrations.m">
<polygon fill="none" stroke="black" points="0,-6.46497 0,-26.3949 129.24,-26.3949 129.24,-6.46497 0,-6.46497"/>
<text text-anchor="middle" x="64.62" y="-14.3949" font-family="Helvetica Neue" font-size="10.00">Source/DB+Migrations.m</text>
</a>
</g>
</g>
<!-- Node1&#45;&gt;Node2 -->
<g id="edge1" class="edge"><title>Node1&#45;&gt;Node2</title>
<path fill="none" stroke="midnightblue" d="M149.41,-64.2813C126.639,-51.6991 98.3635,-36.0753 80.9062,-26.429"/>
<polygon fill="midnightblue" stroke="midnightblue" points="148.02,-67.5121 158.465,-69.2851 151.405,-61.3853 148.02,-67.5121"/>
</g>
<!-- Node3 -->
<g id="node3" class="node"><title>Node3</title>
<g id="a_node3"><a xlink:href="_d_b_8m.html" target="_top" xlink:title="Source/DB.m">
<polygon fill="none" stroke="black" points="147.52,-6.46497 147.52,-26.3949 223.72,-26.3949 223.72,-6.46497 147.52,-6.46497"/>
<text text-anchor="middle" x="185.62" y="-14.3949" font-family="Helvetica Neue" font-size="10.00">Source/DB.m</text>
</a>
</g>
</g>
<!-- Node1&#45;&gt;Node3 -->
<g id="edge2" class="edge"><title>Node1&#45;&gt;Node3</title>
<path fill="none" stroke="midnightblue" d="M185.62,-58.835C185.62,-47.5027 185.62,-34.872 185.62,-26.5754"/>
<polygon fill="midnightblue" stroke="midnightblue" points="182.12,-59.1182 185.62,-69.1183 189.12,-59.1183 182.12,-59.1182"/>
</g>
<!-- Node4 -->
<g id="node4" class="node"><title>Node4</title>
<g id="a_node4"><a xlink:href="_d_b_create_table_query_8m.html" target="_top" xlink:title="Source/Queries/DBCreateTable\lQuery.m">
<polygon fill="none" stroke="black" points="241.71,-0.5 241.71,-32.3599 397.53,-32.3599 397.53,-0.5 241.71,-0.5"/>
<text text-anchor="start" x="249.71" y="-20.3599" font-family="Helvetica Neue" font-size="10.00">Source/Queries/DBCreateTable</text>
<text text-anchor="middle" x="319.62" y="-8.42993" font-family="Helvetica Neue" font-size="10.00">Query.m</text>
</a>
</g>
</g>
<!-- Node1&#45;&gt;Node4 -->
<g id="edge3" class="edge"><title>Node1&#45;&gt;Node4</title>
<path fill="none" stroke="midnightblue" d="M224.86,-64.7108C245.55,-54.3874 270.531,-41.9231 289.648,-32.3845"/>
<polygon fill="midnightblue" stroke="midnightblue" points="223.078,-61.6886 215.692,-69.2851 226.203,-67.9522 223.078,-61.6886"/>
</g>
</g>
</svg>
