<?xml version="1.0" encoding="UTF-8" standalone="no"?>
<!DOCTYPE svg PUBLIC "-//W3C//DTD SVG 1.1//EN"
 "http://www.w3.org/Graphics/SVG/1.1/DTD/svg11.dtd">
<!-- Generated by graphviz version 2.38.0 (20140413.2041)
 -->
<!-- Title: Source/Utilities/DBIntrospection.h Pages: 1 -->
<svg width="236pt" height="86pt"
 viewBox="0.00 0.00 235.73 85.86" xmlns="http://www.w3.org/2000/svg" xmlns:xlink="http://www.w3.org/1999/xlink">
<g id="graph0" class="graph" transform="scale(1 1) rotate(0) translate(4 81.8599)">
<title>Source/Utilities/DBIntrospection.h</title>
<!-- Node1 -->
<g id="node1" class="node"><title>Node1</title>
<polygon fill="#bfbfbf" stroke="black" points="41.475,-57.4299 41.475,-77.3599 209.335,-77.3599 209.335,-57.4299 41.475,-57.4299"/>
<text text-anchor="middle" x="125.405" y="-65.3599" font-family="Helvetica Neue" font-size="10.00">Source/Utilities/DBIntrospection.h</text>
</g>
<!-- Node2 -->
<g id="node2" class="node"><title>Node2</title>
<polygon fill="none" stroke="#bfbfbf" points="0,-0.5 0,-20.4299 128.81,-20.4299 128.81,-0.5 0,-0.5"/>
<text text-anchor="middle" x="64.405" y="-8.42993" font-family="Helvetica Neue" font-size="10.00">Foundation/Foundation.h</text>
</g>
<!-- Node1&#45;&gt;Node2 -->
<g id="edge1" class="edge"><title>Node1&#45;&gt;Node2</title>
<path fill="none" stroke="midnightblue" d="M115.332,-57.3243C106.379,-49.2626 93.0812,-37.2876 82.3187,-27.5961"/>
<polygon fill="midnightblue" stroke="midnightblue" points="84.47,-24.8234 74.6968,-20.7326 79.7858,-30.0252 84.47,-24.8234"/>
</g>
<!-- Node3 -->
<g id="node3" class="node"><title>Node3</title>
<polygon fill="none" stroke="#bfbfbf" points="147.08,-0.5 147.08,-20.4299 227.73,-20.4299 227.73,-0.5 147.08,-0.5"/>
<text text-anchor="middle" x="187.405" y="-8.42993" font-family="Helvetica Neue" font-size="10.00">objc/runtime.h</text>
</g>
<!-- Node1&#45;&gt;Node3 -->
<g id="edge2" class="edge"><title>Node1&#45;&gt;Node3</title>
<path fill="none" stroke="midnightblue" d="M135.643,-57.3243C144.742,-49.2626 158.259,-37.2876 169.198,-27.5961"/>
<polygon fill="midnightblue" stroke="midnightblue" points="171.781,-29.9838 176.945,-20.7326 167.139,-24.7443 171.781,-29.9838"/>
</g>
</g>
</svg>
