<?xml version="1.0" encoding="UTF-8" standalone="no"?>
<!DOCTYPE svg PUBLIC "-//W3C//DTD SVG 1.1//EN"
 "http://www.w3.org/Graphics/SVG/1.1/DTD/svg11.dtd">
<!-- Generated by graphviz version 2.38.0 (20140413.2041)
 -->
<!-- Title: Source/Queries/DBQuery+Private.h Pages: 1 -->
<svg width="1208pt" height="110pt"
 viewBox="0.00 0.00 1208.40 109.72" xmlns="http://www.w3.org/2000/svg" xmlns:xlink="http://www.w3.org/1999/xlink">
<g id="graph0" class="graph" transform="scale(1 1) rotate(0) translate(4 105.72)">
<title>Source/Queries/DBQuery+Private.h</title>
<!-- Node1 -->
<g id="node1" class="node"><title>Node1</title>
<polygon fill="#bfbfbf" stroke="black" points="533.605,-69.3599 533.605,-101.22 663.135,-101.22 663.135,-69.3599 533.605,-69.3599"/>
<text text-anchor="start" x="541.605" y="-89.2197" font-family="Helvetica Neue" font-size="10.00">Source/Queries/DBQuery</text>
<text text-anchor="middle" x="598.37" y="-77.2898" font-family="Helvetica Neue" font-size="10.00">+Private.h</text>
</g>
<!-- Node2 -->
<g id="node2" class="node"><title>Node2</title>
<g id="a_node2"><a xlink:href="_d_b_alter_table_query_8m.html" target="_top" xlink:title="Source/Queries/DBAlterTable\lQuery.m">
<polygon fill="none" stroke="black" points="1.42109e-14,-0.5 1.42109e-14,-32.3599 146.74,-32.3599 146.74,-0.5 1.42109e-14,-0.5"/>
<text text-anchor="start" x="8" y="-20.3599" font-family="Helvetica Neue" font-size="10.00">Source/Queries/DBAlterTable</text>
<text text-anchor="middle" x="73.37" y="-8.42993" font-family="Helvetica Neue" font-size="10.00">Query.m</text>
</a>
</g>
</g>
<!-- Node1&#45;&gt;Node2 -->
<g id="edge1" class="edge"><title>Node1&#45;&gt;Node2</title>
<path fill="none" stroke="midnightblue" d="M523.055,-77.1776C434.736,-68.4603 284.043,-52.4103 155.37,-32.8599 152.649,-32.4464 149.88,-32.0094 147.085,-31.5544"/>
<polygon fill="midnightblue" stroke="midnightblue" points="522.953,-80.6843 533.247,-78.1784 523.637,-73.7178 522.953,-80.6843"/>
</g>
<!-- Node3 -->
<g id="node3" class="node"><title>Node3</title>
<g id="a_node3"><a xlink:href="_d_b_create_table_query_8m.html" target="_top" xlink:title="Source/Queries/DBCreateTable\lQuery.m">
<polygon fill="none" stroke="black" points="164.46,-0.5 164.46,-32.3599 320.28,-32.3599 320.28,-0.5 164.46,-0.5"/>
<text text-anchor="start" x="172.46" y="-20.3599" font-family="Helvetica Neue" font-size="10.00">Source/Queries/DBCreateTable</text>
<text text-anchor="middle" x="242.37" y="-8.42993" font-family="Helvetica Neue" font-size="10.00">Query.m</text>
</a>
</g>
</g>
<!-- Node1&#45;&gt;Node3 -->
<g id="edge2" class="edge"><title>Node1&#45;&gt;Node3</title>
<path fill="none" stroke="midnightblue" d="M523.397,-70.2091C463.842,-59.0242 380.821,-43.4323 320.466,-32.097"/>
<polygon fill="midnightblue" stroke="midnightblue" points="523.014,-73.6984 533.488,-72.1044 524.306,-66.8187 523.014,-73.6984"/>
</g>
<!-- Node4 -->
<g id="node4" class="node"><title>Node4</title>
<g id="a_node4"><a xlink:href="_d_b_delete_query_8m.html" target="_top" xlink:title="Source/Queries/DBDeleteQuery.m">
<polygon fill="none" stroke="black" points="338.06,-6.46497 338.06,-26.3949 506.68,-26.3949 506.68,-6.46497 338.06,-6.46497"/>
<text text-anchor="middle" x="422.37" y="-14.3949" font-family="Helvetica Neue" font-size="10.00">Source/Queries/DBDeleteQuery.m</text>
</a>
</g>
</g>
<!-- Node1&#45;&gt;Node4 -->
<g id="edge3" class="edge"><title>Node1&#45;&gt;Node4</title>
<path fill="none" stroke="midnightblue" d="M549.202,-65.6115C515.524,-52.8177 472.354,-36.4183 446.059,-26.429"/>
<polygon fill="midnightblue" stroke="midnightblue" points="548.281,-69.0057 558.872,-69.2851 550.767,-62.462 548.281,-69.0057"/>
</g>
<!-- Node5 -->
<g id="node5" class="node"><title>Node5</title>
<g id="a_node5"><a xlink:href="_d_b_drop_table_query_8m.html" target="_top" xlink:title="Source/Queries/DBDropTable\lQuery.m">
<polygon fill="none" stroke="black" points="524.345,-0.5 524.345,-32.3599 672.395,-32.3599 672.395,-0.5 524.345,-0.5"/>
<text text-anchor="start" x="532.345" y="-20.3599" font-family="Helvetica Neue" font-size="10.00">Source/Queries/DBDropTable</text>
<text text-anchor="middle" x="598.37" y="-8.42993" font-family="Helvetica Neue" font-size="10.00">Query.m</text>
</a>
</g>
</g>
<!-- Node1&#45;&gt;Node5 -->
<g id="edge4" class="edge"><title>Node1&#45;&gt;Node5</title>
<path fill="none" stroke="midnightblue" d="M598.37,-58.868C598.37,-49.9897 598.37,-40.3107 598.37,-32.5414"/>
<polygon fill="midnightblue" stroke="midnightblue" points="594.87,-59.1182 598.37,-69.1183 601.87,-59.1183 594.87,-59.1182"/>
</g>
<!-- Node6 -->
<g id="node6" class="node"><title>Node6</title>
<g id="a_node6"><a xlink:href="_d_b_insert_query_8m.html" target="_top" xlink:title="Source/Queries/DBInsertQuery.m">
<polygon fill="none" stroke="black" points="690.82,-6.46497 690.82,-26.3949 855.92,-26.3949 855.92,-6.46497 690.82,-6.46497"/>
<text text-anchor="middle" x="773.37" y="-14.3949" font-family="Helvetica Neue" font-size="10.00">Source/Queries/DBInsertQuery.m</text>
</a>
</g>
</g>
<!-- Node1&#45;&gt;Node6 -->
<g id="edge5" class="edge"><title>Node1&#45;&gt;Node6</title>
<path fill="none" stroke="midnightblue" d="M647.259,-65.6115C680.746,-52.8177 723.67,-36.4183 749.816,-26.429"/>
<polygon fill="midnightblue" stroke="midnightblue" points="645.736,-62.4466 637.643,-69.2851 648.234,-68.9856 645.736,-62.4466"/>
</g>
<!-- Node7 -->
<g id="node7" class="node"><title>Node7</title>
<g id="a_node7"><a xlink:href="_d_b_query_8m.html" target="_top" xlink:title="Source/Queries/DBQuery.m">
<polygon fill="none" stroke="black" points="874.32,-6.46497 874.32,-26.3949 1014.42,-26.3949 1014.42,-6.46497 874.32,-6.46497"/>
<text text-anchor="middle" x="944.37" y="-14.3949" font-family="Helvetica Neue" font-size="10.00">Source/Queries/DBQuery.m</text>
</a>
</g>
</g>
<!-- Node1&#45;&gt;Node7 -->
<g id="edge6" class="edge"><title>Node1&#45;&gt;Node7</title>
<path fill="none" stroke="midnightblue" d="M673.482,-69.8755C726.991,-59.5939 800.609,-45.4214 865.37,-32.8599 876.071,-30.7843 887.584,-28.5411 898.423,-26.4251"/>
<polygon fill="midnightblue" stroke="midnightblue" points="672.555,-66.4896 663.395,-71.8135 673.876,-73.3639 672.555,-66.4896"/>
</g>
<!-- Node8 -->
<g id="node8" class="node"><title>Node8</title>
<g id="a_node8"><a xlink:href="_d_b_select_query_8m.html" target="_top" xlink:title="Source/Queries/DBSelectQuery.m">
<polygon fill="none" stroke="black" points="1032.34,-6.46497 1032.34,-26.3949 1200.4,-26.3949 1200.4,-6.46497 1032.34,-6.46497"/>
<text text-anchor="middle" x="1116.37" y="-14.3949" font-family="Helvetica Neue" font-size="10.00">Source/Queries/DBSelectQuery.m</text>
</a>
</g>
</g>
<!-- Node1&#45;&gt;Node8 -->
<g id="edge7" class="edge"><title>Node1&#45;&gt;Node8</title>
<path fill="none" stroke="midnightblue" d="M673.366,-76.2239C758.383,-66.8457 901.065,-50.3974 1023.37,-32.8599 1036.82,-30.9317 1051.32,-28.6319 1064.78,-26.4041"/>
<polygon fill="midnightblue" stroke="midnightblue" points="672.846,-72.7598 663.289,-77.3321 673.612,-79.7179 672.846,-72.7598"/>
</g>
</g>
</svg>
