<?xml version="1.0" encoding="UTF-8" standalone="no"?>
<!DOCTYPE svg PUBLIC "-//W3C//DTD SVG 1.1//EN"
 "http://www.w3.org/Graphics/SVG/1.1/DTD/svg11.dtd">
<!-- Generated by graphviz version 2.38.0 (20140413.2041)
 -->
<!-- Title: Source/Queries/DBSelectQuery.h Pages: 1 -->
<svg width="921pt" height="98pt"
 viewBox="0.00 0.00 920.65 97.79" xmlns="http://www.w3.org/2000/svg" xmlns:xlink="http://www.w3.org/1999/xlink">
<g id="graph0" class="graph" transform="scale(1 1) rotate(0) translate(4 93.7898)">
<title>Source/Queries/DBSelectQuery.h</title>
<!-- Node1 -->
<g id="node1" class="node"><title>Node1</title>
<polygon fill="#bfbfbf" stroke="black" points="310.075,-69.3599 310.075,-89.2898 475.165,-89.2898 475.165,-69.3599 310.075,-69.3599"/>
<text text-anchor="middle" x="392.62" y="-77.2898" font-family="Helvetica Neue" font-size="10.00">Source/Queries/DBSelectQuery.h</text>
</g>
<!-- Node2 -->
<g id="node2" class="node"><title>Node2</title>
<g id="a_node2"><a xlink:href="_d_b_09_migrations_8m.html" target="_top" xlink:title="Source/DB+Migrations.m">
<polygon fill="none" stroke="black" points="0,-6.46497 0,-26.3949 129.24,-26.3949 129.24,-6.46497 0,-6.46497"/>
<text text-anchor="middle" x="64.62" y="-14.3949" font-family="Helvetica Neue" font-size="10.00">Source/DB+Migrations.m</text>
</a>
</g>
</g>
<!-- Node1&#45;&gt;Node2 -->
<g id="edge1" class="edge"><title>Node1&#45;&gt;Node2</title>
<path fill="none" stroke="midnightblue" d="M330.028,-67.6319C278.561,-58.7168 203.766,-45.4796 138.62,-32.8599 128.313,-30.8632 117.221,-28.6076 106.842,-26.45"/>
<polygon fill="midnightblue" stroke="midnightblue" points="329.551,-71.1012 340.001,-69.3558 330.743,-64.2035 329.551,-71.1012"/>
</g>
<!-- Node3 -->
<g id="node3" class="node"><title>Node3</title>
<g id="a_node3"><a xlink:href="_d_b_model_8m.html" target="_top" xlink:title="Source/DBModel.m">
<polygon fill="none" stroke="black" points="147.535,-6.46497 147.535,-26.3949 251.705,-26.3949 251.705,-6.46497 147.535,-6.46497"/>
<text text-anchor="middle" x="199.62" y="-14.3949" font-family="Helvetica Neue" font-size="10.00">Source/DBModel.m</text>
</a>
</g>
</g>
<!-- Node1&#45;&gt;Node3 -->
<g id="edge2" class="edge"><title>Node1&#45;&gt;Node3</title>
<path fill="none" stroke="midnightblue" d="M354.183,-66.1973C317.037,-54.4772 261.62,-36.992 228.215,-26.452"/>
<polygon fill="midnightblue" stroke="midnightblue" points="353.552,-69.6684 364.142,-69.3396 355.659,-62.9928 353.552,-69.6684"/>
</g>
<!-- Node4 -->
<g id="node4" class="node"><title>Node4</title>
<g id="a_node4"><a xlink:href="_d_b_table_8m.html" target="_top" xlink:title="Source/DBTable.m">
<polygon fill="none" stroke="black" points="269.76,-6.46497 269.76,-26.3949 369.48,-26.3949 369.48,-6.46497 269.76,-6.46497"/>
<text text-anchor="middle" x="319.62" y="-14.3949" font-family="Helvetica Neue" font-size="10.00">Source/DBTable.m</text>
</a>
</g>
</g>
<!-- Node1&#45;&gt;Node4 -->
<g id="edge3" class="edge"><title>Node1&#45;&gt;Node4</title>
<path fill="none" stroke="midnightblue" d="M373.948,-62.7493C360.164,-51.2508 341.883,-36.0011 330.436,-26.452"/>
<polygon fill="midnightblue" stroke="midnightblue" points="371.928,-65.6215 381.849,-69.3396 376.412,-60.2462 371.928,-65.6215"/>
</g>
<!-- Node5 -->
<g id="node5" class="node"><title>Node5</title>
<g id="a_node5"><a xlink:href="_d_b_create_table_query_8m.html" target="_top" xlink:title="Source/Queries/DBCreateTable\lQuery.m">
<polygon fill="none" stroke="black" points="387.71,-0.5 387.71,-32.3599 543.53,-32.3599 543.53,-0.5 387.71,-0.5"/>
<text text-anchor="start" x="395.71" y="-20.3599" font-family="Helvetica Neue" font-size="10.00">Source/Queries/DBCreateTable</text>
<text text-anchor="middle" x="465.62" y="-8.42993" font-family="Helvetica Neue" font-size="10.00">Query.m</text>
</a>
</g>
</g>
<!-- Node1&#45;&gt;Node5 -->
<g id="edge4" class="edge"><title>Node1&#45;&gt;Node5</title>
<path fill="none" stroke="midnightblue" d="M411.22,-62.8092C422.337,-53.5356 436.399,-41.8058 447.44,-32.5951"/>
<polygon fill="midnightblue" stroke="midnightblue" points="408.828,-60.2462 403.391,-69.3396 413.312,-65.6215 408.828,-60.2462"/>
</g>
<!-- Node6 -->
<g id="node6" class="node"><title>Node6</title>
<g id="a_node6"><a xlink:href="_d_b_insert_query_8m.html" target="_top" xlink:title="Source/Queries/DBInsertQuery.m">
<polygon fill="none" stroke="black" points="561.07,-6.46497 561.07,-26.3949 726.17,-26.3949 726.17,-6.46497 561.07,-6.46497"/>
<text text-anchor="middle" x="643.62" y="-14.3949" font-family="Helvetica Neue" font-size="10.00">Source/Queries/DBInsertQuery.m</text>
</a>
</g>
</g>
<!-- Node1&#45;&gt;Node6 -->
<g id="edge5" class="edge"><title>Node1&#45;&gt;Node6</title>
<path fill="none" stroke="midnightblue" d="M439.544,-66.9406C487.823,-55.2276 562.06,-37.2173 606.432,-26.452"/>
<polygon fill="midnightblue" stroke="midnightblue" points="438.549,-63.5805 429.656,-69.3396 440.199,-70.3831 438.549,-63.5805"/>
</g>
<!-- Node7 -->
<g id="node7" class="node"><title>Node7</title>
<g id="a_node7"><a xlink:href="_d_b_select_query_8m.html" target="_top" xlink:title="Source/Queries/DBSelectQuery.m">
<polygon fill="none" stroke="black" points="744.59,-6.46497 744.59,-26.3949 912.65,-26.3949 912.65,-6.46497 744.59,-6.46497"/>
<text text-anchor="middle" x="828.62" y="-14.3949" font-family="Helvetica Neue" font-size="10.00">Source/Queries/DBSelectQuery.m</text>
</a>
</g>
</g>
<!-- Node1&#45;&gt;Node7 -->
<g id="edge6" class="edge"><title>Node1&#45;&gt;Node7</title>
<path fill="none" stroke="midnightblue" d="M475.669,-68.0871C545.201,-59.331 646.999,-46.0814 735.62,-32.8599 748.732,-30.9037 762.857,-28.6407 776.041,-26.4608"/>
<polygon fill="midnightblue" stroke="midnightblue" points="475.136,-64.6265 465.65,-69.3458 476.008,-71.5719 475.136,-64.6265"/>
</g>
</g>
</svg>
