<?xml version="1.0" encoding="UTF-8" standalone="no"?>
<!DOCTYPE svg PUBLIC "-//W3C//DTD SVG 1.1//EN"
 "http://www.w3.org/Graphics/SVG/1.1/DTD/svg11.dtd">
<!-- Generated by graphviz version 2.38.0 (20140413.2041)
 -->
<!-- Title: Source/Utilities/DBIntrospection.m Pages: 1 -->
<svg width="435pt" height="143pt"
 viewBox="0.00 0.00 434.56 142.79" xmlns="http://www.w3.org/2000/svg" xmlns:xlink="http://www.w3.org/1999/xlink">
<g id="graph0" class="graph" transform="scale(1 1) rotate(0) translate(4 138.79)">
<title>Source/Utilities/DBIntrospection.m</title>
<!-- Node1 -->
<g id="node1" class="node"><title>Node1</title>
<polygon fill="#bfbfbf" stroke="black" points="30.91,-114.36 30.91,-134.29 201.74,-134.29 201.74,-114.36 30.91,-114.36"/>
<text text-anchor="middle" x="116.325" y="-122.29" font-family="Helvetica Neue" font-size="10.00">Source/Utilities/DBIntrospection.m</text>
</g>
<!-- Node2 -->
<g id="node2" class="node"><title>Node2</title>
<g id="a_node2"><a xlink:href="_d_b_introspection_8h.html" target="_top" xlink:title="DBIntrospection.h">
<polygon fill="none" stroke="black" points="67.945,-57.4299 67.945,-77.3599 164.705,-77.3599 164.705,-57.4299 67.945,-57.4299"/>
<text text-anchor="middle" x="116.325" y="-65.3599" font-family="Helvetica Neue" font-size="10.00">DBIntrospection.h</text>
</a>
</g>
</g>
<!-- Node1&#45;&gt;Node2 -->
<g id="edge1" class="edge"><title>Node1&#45;&gt;Node2</title>
<path fill="none" stroke="midnightblue" d="M116.325,-114.254C116.325,-107.062 116.325,-96.7549 116.325,-87.7334"/>
<polygon fill="midnightblue" stroke="midnightblue" points="119.825,-87.6625 116.325,-77.6625 112.825,-87.6626 119.825,-87.6625"/>
</g>
<!-- Node4 -->
<g id="node4" class="node"><title>Node4</title>
<polygon fill="none" stroke="#bfbfbf" points="-1.42109e-14,-0.5 -1.42109e-14,-20.4299 80.65,-20.4299 80.65,-0.5 -1.42109e-14,-0.5"/>
<text text-anchor="middle" x="40.325" y="-8.42993" font-family="Helvetica Neue" font-size="10.00">objc/runtime.h</text>
</g>
<!-- Node1&#45;&gt;Node4 -->
<g id="edge7" class="edge"><title>Node1&#45;&gt;Node4</title>
<path fill="none" stroke="midnightblue" d="M99.9998,-114.199C87.1456,-106.207 69.7185,-93.4465 59.325,-77.8599 49.8775,-63.6919 45.0647,-44.8077 42.6519,-30.8016"/>
<polygon fill="midnightblue" stroke="midnightblue" points="46.0992,-30.1863 41.1887,-20.7981 39.1729,-31.1994 46.0992,-30.1863"/>
</g>
<!-- Node5 -->
<g id="node5" class="node"><title>Node5</title>
<g id="a_node5"><a xlink:href="_n_s_string_09_d_b_additions_8h.html" target="_top" xlink:title="NSString+DBAdditions.h">
<polygon fill="none" stroke="black" points="183.005,-57.4299 183.005,-77.3599 309.645,-77.3599 309.645,-57.4299 183.005,-57.4299"/>
<text text-anchor="middle" x="246.325" y="-65.3599" font-family="Helvetica Neue" font-size="10.00">NSString+DBAdditions.h</text>
</a>
</g>
</g>
<!-- Node1&#45;&gt;Node5 -->
<g id="edge4" class="edge"><title>Node1&#45;&gt;Node5</title>
<path fill="none" stroke="midnightblue" d="M137.792,-114.254C158.962,-105.309 191.534,-91.546 215.475,-81.4303"/>
<polygon fill="midnightblue" stroke="midnightblue" points="216.977,-84.5952 224.826,-77.4789 214.253,-78.1472 216.977,-84.5952"/>
</g>
<!-- Node3 -->
<g id="node3" class="node"><title>Node3</title>
<polygon fill="none" stroke="#bfbfbf" points="98.92,-0.5 98.92,-20.4299 227.73,-20.4299 227.73,-0.5 98.92,-0.5"/>
<text text-anchor="middle" x="163.325" y="-8.42993" font-family="Helvetica Neue" font-size="10.00">Foundation/Foundation.h</text>
</g>
<!-- Node2&#45;&gt;Node3 -->
<g id="edge2" class="edge"><title>Node2&#45;&gt;Node3</title>
<path fill="none" stroke="midnightblue" d="M124.086,-57.3243C130.781,-49.4997 140.63,-37.9887 148.786,-28.457"/>
<polygon fill="midnightblue" stroke="midnightblue" points="151.553,-30.6063 155.395,-20.7326 146.235,-26.0554 151.553,-30.6063"/>
</g>
<!-- Node2&#45;&gt;Node4 -->
<g id="edge3" class="edge"><title>Node2&#45;&gt;Node4</title>
<path fill="none" stroke="midnightblue" d="M103.775,-57.3243C92.2239,-48.9755 74.8658,-36.4297 61.2235,-26.5696"/>
<polygon fill="midnightblue" stroke="midnightblue" points="63.0485,-23.5702 52.8935,-20.549 58.948,-29.2435 63.0485,-23.5702"/>
</g>
<!-- Node5&#45;&gt;Node3 -->
<g id="edge6" class="edge"><title>Node5&#45;&gt;Node3</title>
<path fill="none" stroke="midnightblue" d="M232.619,-57.3243C219.884,-48.896 200.686,-36.1904 185.724,-26.2886"/>
<polygon fill="midnightblue" stroke="midnightblue" points="187.322,-23.1492 177.051,-20.549 183.459,-28.9867 187.322,-23.1492"/>
</g>
<!-- Node6 -->
<g id="node6" class="node"><title>Node6</title>
<polygon fill="none" stroke="#bfbfbf" points="246.085,-0.5 246.085,-20.4299 426.565,-20.4299 426.565,-0.5 246.085,-0.5"/>
<text text-anchor="middle" x="336.325" y="-8.42993" font-family="Helvetica Neue" font-size="10.00">DatabaseKit/DBSQLRepresentable.h</text>
</g>
<!-- Node5&#45;&gt;Node6 -->
<g id="edge5" class="edge"><title>Node5&#45;&gt;Node6</title>
<path fill="none" stroke="midnightblue" d="M261.187,-57.3243C275.126,-48.8165 296.207,-35.9503 312.495,-26.0091"/>
<polygon fill="midnightblue" stroke="midnightblue" points="314.729,-28.7462 321.441,-20.549 311.082,-22.7712 314.729,-28.7462"/>
</g>
</g>
</svg>
