<?xml version="1.0" encoding="UTF-8" standalone="no"?>
<!DOCTYPE svg PUBLIC "-//W3C//DTD SVG 1.1//EN"
 "http://www.w3.org/Graphics/SVG/1.1/DTD/svg11.dtd">
<!-- Generated by graphviz version 2.38.0 (20140413.2041)
 -->
<!-- Title: Source/Utilities/DBInflector/DBInflector.h Pages: 1 -->
<svg width="290pt" height="110pt"
 viewBox="0.00 0.00 290.28 109.72" xmlns="http://www.w3.org/2000/svg" xmlns:xlink="http://www.w3.org/1999/xlink">
<g id="graph0" class="graph" transform="scale(1 1) rotate(0) translate(4 105.72)">
<title>Source/Utilities/DBInflector/DBInflector.h</title>
<!-- Node1 -->
<g id="node1" class="node"><title>Node1</title>
<polygon fill="#bfbfbf" stroke="black" points="75,-69.3599 75,-101.22 212.28,-101.22 212.28,-69.3599 75,-69.3599"/>
<text text-anchor="start" x="83" y="-89.2197" font-family="Helvetica Neue" font-size="10.00">Source/Utilities/DBInflector</text>
<text text-anchor="middle" x="143.64" y="-77.2898" font-family="Helvetica Neue" font-size="10.00">/DBInflector.h</text>
</g>
<!-- Node2 -->
<g id="node2" class="node"><title>Node2</title>
<g id="a_node2"><a xlink:href="_d_b_inflector_8m.html" target="_top" xlink:title="Source/Utilities/DBInflector\l/DBInflector.m">
<polygon fill="none" stroke="black" points="0,-0.5 0,-32.3599 137.28,-32.3599 137.28,-0.5 0,-0.5"/>
<text text-anchor="start" x="8" y="-20.3599" font-family="Helvetica Neue" font-size="10.00">Source/Utilities/DBInflector</text>
<text text-anchor="middle" x="68.64" y="-8.42993" font-family="Helvetica Neue" font-size="10.00">/DBInflector.m</text>
</a>
</g>
</g>
<!-- Node1&#45;&gt;Node2 -->
<g id="edge1" class="edge"><title>Node1&#45;&gt;Node2</title>
<path fill="none" stroke="midnightblue" d="M119.009,-62.3323C108.065,-52.5756 95.4557,-41.3352 85.5913,-32.5414"/>
<polygon fill="midnightblue" stroke="midnightblue" points="116.828,-65.0764 126.621,-69.1183 121.486,-59.8513 116.828,-65.0764"/>
</g>
<!-- Node3 -->
<g id="node3" class="node"><title>Node3</title>
<g id="a_node3"><a xlink:href="_n_s_string_09_d_b_additions_8m.html" target="_top" xlink:title="Source/Utilities/NSString\l+DBAdditions.m">
<polygon fill="none" stroke="black" points="155,-0.5 155,-32.3599 282.28,-32.3599 282.28,-0.5 155,-0.5"/>
<text text-anchor="start" x="163" y="-20.3599" font-family="Helvetica Neue" font-size="10.00">Source/Utilities/NSString</text>
<text text-anchor="middle" x="218.64" y="-8.42993" font-family="Helvetica Neue" font-size="10.00">+DBAdditions.m</text>
</a>
</g>
</g>
<!-- Node1&#45;&gt;Node3 -->
<g id="edge2" class="edge"><title>Node1&#45;&gt;Node3</title>
<path fill="none" stroke="midnightblue" d="M168.271,-62.3323C179.215,-52.5756 191.824,-41.3352 201.689,-32.5414"/>
<polygon fill="midnightblue" stroke="midnightblue" points="165.794,-59.8513 160.659,-69.1183 170.452,-65.0764 165.794,-59.8513"/>
</g>
</g>
</svg>
