<?xml version="1.0" encoding="UTF-8" standalone="no"?>
<!DOCTYPE svg PUBLIC "-//W3C//DTD SVG 1.1//EN"
 "http://www.w3.org/Graphics/SVG/1.1/DTD/svg11.dtd">
<!-- Generated by graphviz version 2.38.0 (20140413.2041)
 -->
<!-- Title: Source/Utilities/DBUtilities.h Pages: 1 -->
<svg width="1473pt" height="98pt"
 viewBox="0.00 0.00 1472.78 97.79" xmlns="http://www.w3.org/2000/svg" xmlns:xlink="http://www.w3.org/1999/xlink">
<g id="graph0" class="graph" transform="scale(1 1) rotate(0) translate(4 93.7898)">
<title>Source/Utilities/DBUtilities.h</title>
<!-- Node1 -->
<g id="node1" class="node"><title>Node1</title>
<polygon fill="#bfbfbf" stroke="black" points="622.695,-69.3599 622.695,-89.2898 764.795,-89.2898 764.795,-69.3599 622.695,-69.3599"/>
<text text-anchor="middle" x="693.745" y="-77.2898" font-family="Helvetica Neue" font-size="10.00">Source/Utilities/DBUtilities.h</text>
</g>
<!-- Node2 -->
<g id="node2" class="node"><title>Node2</title>
<g id="a_node2"><a xlink:href="_d_b_connection_8m.html" target="_top" xlink:title="Source/Connections\l/DBConnection.m">
<polygon fill="none" stroke="black" points="0,-0.5 0,-32.3599 107.49,-32.3599 107.49,-0.5 0,-0.5"/>
<text text-anchor="start" x="8" y="-20.3599" font-family="Helvetica Neue" font-size="10.00">Source/Connections</text>
<text text-anchor="middle" x="53.745" y="-8.42993" font-family="Helvetica Neue" font-size="10.00">/DBConnection.m</text>
</a>
</g>
</g>
<!-- Node1&#45;&gt;Node2 -->
<g id="edge1" class="edge"><title>Node1&#45;&gt;Node2</title>
<path fill="none" stroke="midnightblue" d="M612.474,-76.0555C500.325,-71.9858 292.082,-61.0498 116.745,-32.8599 113.743,-32.3772 110.674,-31.8248 107.584,-31.2226"/>
<polygon fill="midnightblue" stroke="midnightblue" points="612.575,-79.5612 622.693,-76.4169 612.823,-72.5655 612.575,-79.5612"/>
</g>
<!-- Node3 -->
<g id="node3" class="node"><title>Node3</title>
<g id="a_node3"><a xlink:href="_d_b_connection_pool_8m.html" target="_top" xlink:title="Source/Connections\l/DBConnectionPool.m">
<polygon fill="none" stroke="black" points="125.645,-0.5 125.645,-32.3599 241.845,-32.3599 241.845,-0.5 125.645,-0.5"/>
<text text-anchor="start" x="133.645" y="-20.3599" font-family="Helvetica Neue" font-size="10.00">Source/Connections</text>
<text text-anchor="middle" x="183.745" y="-8.42993" font-family="Helvetica Neue" font-size="10.00">/DBConnectionPool.m</text>
</a>
</g>
</g>
<!-- Node1&#45;&gt;Node3 -->
<g id="edge2" class="edge"><title>Node1&#45;&gt;Node3</title>
<path fill="none" stroke="midnightblue" d="M612.562,-72.9253C523.607,-66.3233 376.898,-53.4189 251.745,-32.8599 248.52,-32.33 245.218,-31.7403 241.893,-31.1093"/>
<polygon fill="midnightblue" stroke="midnightblue" points="612.356,-76.4194 622.585,-73.6606 612.868,-69.4382 612.356,-76.4194"/>
</g>
<!-- Node4 -->
<g id="node4" class="node"><title>Node4</title>
<g id="a_node4"><a xlink:href="_d_b_connection_proxy_8m.html" target="_top" xlink:title="Source/Connections\l/DBConnectionProxy.m">
<polygon fill="none" stroke="black" points="260.33,-0.5 260.33,-32.3599 381.16,-32.3599 381.16,-0.5 260.33,-0.5"/>
<text text-anchor="start" x="268.33" y="-20.3599" font-family="Helvetica Neue" font-size="10.00">Source/Connections</text>
<text text-anchor="middle" x="320.745" y="-8.42993" font-family="Helvetica Neue" font-size="10.00">/DBConnectionProxy.m</text>
</a>
</g>
</g>
<!-- Node1&#45;&gt;Node4 -->
<g id="edge3" class="edge"><title>Node1&#45;&gt;Node4</title>
<path fill="none" stroke="midnightblue" d="M614.939,-67.9969C553.64,-59.6023 466.552,-46.8854 390.745,-32.8599 387.686,-32.2939 384.557,-31.6912 381.4,-31.0646"/>
<polygon fill="midnightblue" stroke="midnightblue" points="614.549,-71.4761 624.93,-69.3582 615.494,-64.5401 614.549,-71.4761"/>
</g>
<!-- Node5 -->
<g id="node5" class="node"><title>Node5</title>
<g id="a_node5"><a xlink:href="_d_b_s_q_lite_connection_8m.html" target="_top" xlink:title="Source/Connections\l/DBSQLiteConnection.m">
<polygon fill="none" stroke="black" points="399.545,-0.5 399.545,-32.3599 525.945,-32.3599 525.945,-0.5 399.545,-0.5"/>
<text text-anchor="start" x="407.545" y="-20.3599" font-family="Helvetica Neue" font-size="10.00">Source/Connections</text>
<text text-anchor="middle" x="462.745" y="-8.42993" font-family="Helvetica Neue" font-size="10.00">/DBSQLiteConnection.m</text>
</a>
</g>
</g>
<!-- Node1&#45;&gt;Node5 -->
<g id="edge4" class="edge"><title>Node1&#45;&gt;Node5</title>
<path fill="none" stroke="midnightblue" d="M649.708,-66.7159C612.831,-56.9947 559.944,-43.0529 519.823,-32.4765"/>
<polygon fill="midnightblue" stroke="midnightblue" points="649.098,-70.1748 659.66,-69.3396 650.883,-63.4061 649.098,-70.1748"/>
</g>
<!-- Node6 -->
<g id="node6" class="node"><title>Node6</title>
<g id="a_node6"><a xlink:href="_d_b_column_definition_8m.html" target="_top" xlink:title="Source/DBColumnDefinition.m">
<polygon fill="none" stroke="black" points="544.21,-6.46497 544.21,-26.3949 697.28,-26.3949 697.28,-6.46497 544.21,-6.46497"/>
<text text-anchor="middle" x="620.745" y="-14.3949" font-family="Helvetica Neue" font-size="10.00">Source/DBColumnDefinition.m</text>
</a>
</g>
</g>
<!-- Node1&#45;&gt;Node6 -->
<g id="edge5" class="edge"><title>Node1&#45;&gt;Node6</title>
<path fill="none" stroke="midnightblue" d="M675.073,-62.7493C661.289,-51.2508 643.008,-36.0011 631.561,-26.452"/>
<polygon fill="midnightblue" stroke="midnightblue" points="673.053,-65.6215 682.974,-69.3396 677.537,-60.2462 673.053,-65.6215"/>
</g>
<!-- Node7 -->
<g id="node7" class="node"><title>Node7</title>
<g id="a_node7"><a xlink:href="_d_b_model_8m.html" target="_top" xlink:title="Source/DBModel.m">
<polygon fill="none" stroke="black" points="715.66,-6.46497 715.66,-26.3949 819.83,-26.3949 819.83,-6.46497 715.66,-6.46497"/>
<text text-anchor="middle" x="767.745" y="-14.3949" font-family="Helvetica Neue" font-size="10.00">Source/DBModel.m</text>
</a>
</g>
</g>
<!-- Node1&#45;&gt;Node7 -->
<g id="edge6" class="edge"><title>Node1&#45;&gt;Node7</title>
<path fill="none" stroke="midnightblue" d="M712.672,-62.7493C726.646,-51.2508 745.177,-36.0011 756.781,-26.452"/>
<polygon fill="midnightblue" stroke="midnightblue" points="710.162,-60.2828 704.664,-69.3396 714.61,-65.6879 710.162,-60.2828"/>
</g>
<!-- Node8 -->
<g id="node8" class="node"><title>Node8</title>
<g id="a_node8"><a xlink:href="_d_b_table_8m.html" target="_top" xlink:title="Source/DBTable.m">
<polygon fill="none" stroke="black" points="837.885,-6.46497 837.885,-26.3949 937.605,-26.3949 937.605,-6.46497 837.885,-6.46497"/>
<text text-anchor="middle" x="887.745" y="-14.3949" font-family="Helvetica Neue" font-size="10.00">Source/DBTable.m</text>
</a>
</g>
</g>
<!-- Node1&#45;&gt;Node8 -->
<g id="edge7" class="edge"><title>Node1&#45;&gt;Node8</title>
<path fill="none" stroke="midnightblue" d="M732.381,-66.1973C769.719,-54.4772 825.424,-36.992 859.002,-26.452"/>
<polygon fill="midnightblue" stroke="midnightblue" points="730.863,-63.0053 722.37,-69.3396 732.96,-69.684 730.863,-63.0053"/>
</g>
<!-- Node9 -->
<g id="node9" class="node"><title>Node9</title>
<g id="a_node9"><a xlink:href="_d_b_insert_query_8m.html" target="_top" xlink:title="Source/Queries/DBInsertQuery.m">
<polygon fill="none" stroke="black" points="955.195,-6.46497 955.195,-26.3949 1120.29,-26.3949 1120.29,-6.46497 955.195,-6.46497"/>
<text text-anchor="middle" x="1037.74" y="-14.3949" font-family="Helvetica Neue" font-size="10.00">Source/Queries/DBInsertQuery.m</text>
</a>
</g>
</g>
<!-- Node1&#45;&gt;Node9 -->
<g id="edge8" class="edge"><title>Node1&#45;&gt;Node9</title>
<path fill="none" stroke="midnightblue" d="M754.371,-67.5928C820.492,-55.888 925.14,-37.3633 987.059,-26.4024"/>
<polygon fill="midnightblue" stroke="midnightblue" points="753.74,-64.15 744.503,-69.3396 754.96,-71.0428 753.74,-64.15"/>
</g>
<!-- Node10 -->
<g id="node10" class="node"><title>Node10</title>
<g id="a_node10"><a xlink:href="_d_b_query_8m.html" target="_top" xlink:title="Source/Queries/DBQuery.m">
<polygon fill="none" stroke="black" points="1138.69,-6.46497 1138.69,-26.3949 1278.79,-26.3949 1278.79,-6.46497 1138.69,-6.46497"/>
<text text-anchor="middle" x="1208.74" y="-14.3949" font-family="Helvetica Neue" font-size="10.00">Source/Queries/DBQuery.m</text>
</a>
</g>
</g>
<!-- Node1&#45;&gt;Node10 -->
<g id="edge9" class="edge"><title>Node1&#45;&gt;Node10</title>
<path fill="none" stroke="midnightblue" d="M775.137,-72.0161C862.922,-64.7042 1006.66,-51.26 1129.74,-32.8599 1141.63,-31.083 1154.45,-28.7586 1166.23,-26.4551"/>
<polygon fill="midnightblue" stroke="midnightblue" points="774.655,-68.5439 764.978,-72.8557 775.232,-75.5201 774.655,-68.5439"/>
</g>
<!-- Node11 -->
<g id="node11" class="node"><title>Node11</title>
<g id="a_node11"><a xlink:href="_d_b_select_query_8m.html" target="_top" xlink:title="Source/Queries/DBSelectQuery.m">
<polygon fill="none" stroke="black" points="1296.71,-6.46497 1296.71,-26.3949 1464.77,-26.3949 1464.77,-6.46497 1296.71,-6.46497"/>
<text text-anchor="middle" x="1380.74" y="-14.3949" font-family="Helvetica Neue" font-size="10.00">Source/Queries/DBSelectQuery.m</text>
</a>
</g>
</g>
<!-- Node1&#45;&gt;Node11 -->
<g id="edge10" class="edge"><title>Node1&#45;&gt;Node11</title>
<path fill="none" stroke="midnightblue" d="M774.901,-74.381C889.484,-68.2975 1105.1,-54.9578 1287.74,-32.8599 1302.04,-31.1299 1317.5,-28.7661 1331.63,-26.4085"/>
<polygon fill="midnightblue" stroke="midnightblue" points="774.608,-70.8914 764.806,-74.912 774.976,-77.8818 774.608,-70.8914"/>
</g>
</g>
</svg>
