<?xml version="1.0" encoding="UTF-8" standalone="no"?>
<!DOCTYPE svg PUBLIC "-//W3C//DTD SVG 1.1//EN"
 "http://www.w3.org/Graphics/SVG/1.1/DTD/svg11.dtd">
<!-- Generated by graphviz version 2.38.0 (20140413.2041)
 -->
<!-- Title: Source/Queries/DBSelectQuery.m Pages: 1 -->
<svg width="1048pt" height="143pt"
 viewBox="0.00 0.00 1047.66 142.79" xmlns="http://www.w3.org/2000/svg" xmlns:xlink="http://www.w3.org/1999/xlink">
<g id="graph0" class="graph" transform="scale(1 1) rotate(0) translate(4 138.79)">
<title>Source/Queries/DBSelectQuery.m</title>
<!-- Node1 -->
<g id="node1" class="node"><title>Node1</title>
<polygon fill="#bfbfbf" stroke="black" points="375.13,-114.36 375.13,-134.29 543.19,-134.29 543.19,-114.36 375.13,-114.36"/>
<text text-anchor="middle" x="459.16" y="-122.29" font-family="Helvetica Neue" font-size="10.00">Source/Queries/DBSelectQuery.m</text>
</g>
<!-- Node2 -->
<g id="node2" class="node"><title>Node2</title>
<polygon fill="none" stroke="#bfbfbf" points="37.835,-57.4299 37.835,-77.3599 118.485,-77.3599 118.485,-57.4299 37.835,-57.4299"/>
<text text-anchor="middle" x="78.16" y="-65.3599" font-family="Helvetica Neue" font-size="10.00">objc/runtime.h</text>
</g>
<!-- Node1&#45;&gt;Node2 -->
<g id="edge1" class="edge"><title>Node1&#45;&gt;Node2</title>
<path fill="none" stroke="midnightblue" d="M384.814,-114.326C319.718,-106.175 222.347,-93.3303 128.459,-78.0056"/>
<polygon fill="midnightblue" stroke="midnightblue" points="128.941,-74.538 118.505,-76.3694 127.805,-81.4453 128.941,-74.538"/>
</g>
<!-- Node3 -->
<g id="node3" class="node"><title>Node3</title>
<g id="a_node3"><a xlink:href="_d_b_select_query_8h.html" target="_top" xlink:title="DBSelectQuery.h">
<polygon fill="none" stroke="black" points="136.005,-57.4299 136.005,-77.3599 228.315,-77.3599 228.315,-57.4299 136.005,-57.4299"/>
<text text-anchor="middle" x="182.16" y="-65.3599" font-family="Helvetica Neue" font-size="10.00">DBSelectQuery.h</text>
</a>
</g>
</g>
<!-- Node1&#45;&gt;Node3 -->
<g id="edge2" class="edge"><title>Node1&#45;&gt;Node3</title>
<path fill="none" stroke="midnightblue" d="M413.729,-114.316C365.525,-104.757 289.327,-89.6465 237.616,-79.392"/>
<polygon fill="midnightblue" stroke="midnightblue" points="238.105,-75.921 227.616,-77.4089 236.744,-82.7873 238.105,-75.921"/>
</g>
<!-- Node5 -->
<g id="node5" class="node"><title>Node5</title>
<g id="a_node5"><a xlink:href="_d_b_query_09_private_8h.html" target="_top" xlink:title="DBQuery+Private.h">
<polygon fill="none" stroke="black" points="246.155,-57.4299 246.155,-77.3599 348.165,-77.3599 348.165,-57.4299 246.155,-57.4299"/>
<text text-anchor="middle" x="297.16" y="-65.3599" font-family="Helvetica Neue" font-size="10.00">DBQuery+Private.h</text>
</a>
</g>
</g>
<!-- Node1&#45;&gt;Node5 -->
<g id="edge4" class="edge"><title>Node1&#45;&gt;Node5</title>
<path fill="none" stroke="midnightblue" d="M432.409,-114.254C405.361,-105.083 363.376,-90.847 333.362,-80.6701"/>
<polygon fill="midnightblue" stroke="midnightblue" points="334.276,-77.2842 323.681,-77.3876 332.028,-83.9135 334.276,-77.2842"/>
</g>
<!-- Node6 -->
<g id="node6" class="node"><title>Node6</title>
<g id="a_node6"><a xlink:href="_d_b_table_8h.html" target="_top" xlink:title="DBTable.h">
<polygon fill="none" stroke="black" points="366.285,-57.4299 366.285,-77.3599 428.035,-77.3599 428.035,-57.4299 366.285,-57.4299"/>
<text text-anchor="middle" x="397.16" y="-65.3599" font-family="Helvetica Neue" font-size="10.00">DBTable.h</text>
</a>
</g>
</g>
<!-- Node1&#45;&gt;Node6 -->
<g id="edge6" class="edge"><title>Node1&#45;&gt;Node6</title>
<path fill="none" stroke="midnightblue" d="M448.922,-114.254C439.823,-106.193 426.306,-94.2176 415.367,-84.526"/>
<polygon fill="midnightblue" stroke="midnightblue" points="417.426,-81.6742 407.62,-77.6625 412.784,-86.9137 417.426,-81.6742"/>
</g>
<!-- Node10 -->
<g id="node10" class="node"><title>Node10</title>
<g id="a_node10"><a xlink:href="_d_b_model_09_private_8h.html" target="_top" xlink:title="DBModel+Private.h">
<polygon fill="none" stroke="black" points="826.6,-57.4299 826.6,-77.3599 929.72,-77.3599 929.72,-57.4299 826.6,-57.4299"/>
<text text-anchor="middle" x="878.16" y="-65.3599" font-family="Helvetica Neue" font-size="10.00">DBModel+Private.h</text>
</a>
</g>
</g>
<!-- Node1&#45;&gt;Node10 -->
<g id="edge10" class="edge"><title>Node1&#45;&gt;Node10</title>
<path fill="none" stroke="midnightblue" d="M528.495,-114.321C598.735,-105.186 710.51,-90.6155 807.16,-77.8599 810.206,-77.4579 813.324,-77.0454 816.474,-76.6281"/>
<polygon fill="midnightblue" stroke="midnightblue" points="817.134,-80.0714 826.587,-75.2862 816.213,-73.1322 817.134,-80.0714"/>
</g>
<!-- Node12 -->
<g id="node12" class="node"><title>Node12</title>
<g id="a_node12"><a xlink:href="_d_b_utilities_8h.html" target="_top" xlink:title="DBUtilities.h">
<polygon fill="none" stroke="black" points="968.66,-57.4299 968.66,-77.3599 1039.66,-77.3599 1039.66,-57.4299 968.66,-57.4299"/>
<text text-anchor="middle" x="1004.16" y="-65.3599" font-family="Helvetica Neue" font-size="10.00">DBUtilities.h</text>
</a>
</g>
</g>
<!-- Node1&#45;&gt;Node12 -->
<g id="edge12" class="edge"><title>Node1&#45;&gt;Node12</title>
<path fill="none" stroke="midnightblue" d="M543.404,-116.633C639.361,-108.711 800.783,-94.4775 939.16,-77.8599 945.401,-77.1103 951.969,-76.2447 958.432,-75.3478"/>
<polygon fill="midnightblue" stroke="midnightblue" points="959.034,-78.7975 968.442,-73.9247 958.049,-71.8672 959.034,-78.7975"/>
</g>
<!-- Node14 -->
<g id="node14" class="node"><title>Node14</title>
<g id="a_node14"><a xlink:href="_n_s_predicate_09_d_b_s_q_l_representable_8h.html" target="_top" xlink:title="NSPredicate+DBSQLRepresentable.h">
<polygon fill="none" stroke="black" points="613.85,-57.4299 613.85,-77.3599 798.47,-77.3599 798.47,-57.4299 613.85,-57.4299"/>
<text text-anchor="middle" x="706.16" y="-65.3599" font-family="Helvetica Neue" font-size="10.00">NSPredicate+DBSQLRepresentable.h</text>
</a>
</g>
</g>
<!-- Node1&#45;&gt;Node14 -->
<g id="edge14" class="edge"><title>Node1&#45;&gt;Node14</title>
<path fill="none" stroke="midnightblue" d="M499.67,-114.316C542.385,-104.817 609.751,-89.8352 655.843,-79.5848"/>
<polygon fill="midnightblue" stroke="midnightblue" points="656.626,-82.9963 665.627,-77.4089 655.106,-76.1633 656.626,-82.9963"/>
</g>
<!-- Node16 -->
<g id="node16" class="node"><title>Node16</title>
<g id="a_node16"><a xlink:href="_n_s_collections_09_d_b_additions_8h.html" target="_top" xlink:title="NSCollections+DBAdditions.h">
<polygon fill="none" stroke="black" points="446.175,-57.4299 446.175,-77.3599 596.145,-77.3599 596.145,-57.4299 446.175,-57.4299"/>
<text text-anchor="middle" x="521.16" y="-65.3599" font-family="Helvetica Neue" font-size="10.00">NSCollections+DBAdditions.h</text>
</a>
</g>
</g>
<!-- Node1&#45;&gt;Node16 -->
<g id="edge17" class="edge"><title>Node1&#45;&gt;Node16</title>
<path fill="none" stroke="midnightblue" d="M469.398,-114.254C478.497,-106.193 492.014,-94.2176 502.953,-84.526"/>
<polygon fill="midnightblue" stroke="midnightblue" points="505.536,-86.9137 510.7,-77.6625 500.894,-81.6742 505.536,-86.9137"/>
</g>
<!-- Node4 -->
<g id="node4" class="node"><title>Node4</title>
<polygon fill="none" stroke="#bfbfbf" points="-2.84217e-14,-0.5 -2.84217e-14,-20.4299 122.32,-20.4299 122.32,-0.5 -2.84217e-14,-0.5"/>
<text text-anchor="middle" x="61.16" y="-8.42993" font-family="Helvetica Neue" font-size="10.00">DatabaseKit/DBQuery.h</text>
</g>
<!-- Node3&#45;&gt;Node4 -->
<g id="edge3" class="edge"><title>Node3&#45;&gt;Node4</title>
<path fill="none" stroke="midnightblue" d="M162.179,-57.3243C142.65,-48.4587 112.696,-34.8604 90.4705,-24.7709"/>
<polygon fill="midnightblue" stroke="midnightblue" points="91.7228,-21.4957 81.1704,-20.549 88.8292,-27.8697 91.7228,-21.4957"/>
</g>
<!-- Node5&#45;&gt;Node4 -->
<g id="edge5" class="edge"><title>Node5&#45;&gt;Node4</title>
<path fill="none" stroke="midnightblue" d="M258.454,-57.3858C217.813,-47.9265 153.815,-33.0308 109.791,-22.784"/>
<polygon fill="midnightblue" stroke="midnightblue" points="110.421,-19.3371 99.8875,-20.4789 108.834,-26.1548 110.421,-19.3371"/>
</g>
<!-- Node7 -->
<g id="node7" class="node"><title>Node7</title>
<polygon fill="none" stroke="#bfbfbf" points="140.315,-0.5 140.315,-20.4299 288.005,-20.4299 288.005,-0.5 140.315,-0.5"/>
<text text-anchor="middle" x="214.16" y="-8.42993" font-family="Helvetica Neue" font-size="10.00">DatabaseKit/DBConnection.h</text>
</g>
<!-- Node6&#45;&gt;Node7 -->
<g id="edge7" class="edge"><title>Node6&#45;&gt;Node7</title>
<path fill="none" stroke="midnightblue" d="M366.941,-57.3243C335.988,-48.0334 287.719,-33.5448 253.735,-23.3441"/>
<polygon fill="midnightblue" stroke="midnightblue" points="254.704,-19.9804 244.119,-20.4577 252.691,-26.6849 254.704,-19.9804"/>
</g>
<!-- Node8 -->
<g id="node8" class="node"><title>Node8</title>
<polygon fill="none" stroke="#bfbfbf" points="305.625,-0.5 305.625,-20.4299 478.695,-20.4299 478.695,-0.5 305.625,-0.5"/>
<text text-anchor="middle" x="392.16" y="-8.42993" font-family="Helvetica Neue" font-size="10.00">DatabaseKit/DBColumnDefinition.h</text>
</g>
<!-- Node6&#45;&gt;Node8 -->
<g id="edge8" class="edge"><title>Node6&#45;&gt;Node8</title>
<path fill="none" stroke="midnightblue" d="M396.334,-57.3243C395.68,-50.132 394.741,-39.825 393.92,-30.8035"/>
<polygon fill="midnightblue" stroke="midnightblue" points="397.396,-30.3741 393.004,-20.7326 390.425,-31.0087 397.396,-30.3741"/>
</g>
<!-- Node9 -->
<g id="node9" class="node"><title>Node9</title>
<polygon fill="none" stroke="#bfbfbf" points="496.755,-0.5 496.755,-20.4299 625.565,-20.4299 625.565,-0.5 496.755,-0.5"/>
<text text-anchor="middle" x="561.16" y="-8.42993" font-family="Helvetica Neue" font-size="10.00">Foundation/Foundation.h</text>
</g>
<!-- Node6&#45;&gt;Node9 -->
<g id="edge9" class="edge"><title>Node6&#45;&gt;Node9</title>
<path fill="none" stroke="midnightblue" d="M424.241,-57.3243C451.623,-48.153 494.127,-33.9171 524.511,-23.7402"/>
<polygon fill="midnightblue" stroke="midnightblue" points="525.94,-26.9525 534.311,-20.4577 523.717,-20.315 525.94,-26.9525"/>
</g>
<!-- Node11 -->
<g id="node11" class="node"><title>Node11</title>
<polygon fill="none" stroke="#bfbfbf" points="842.075,-0.5 842.075,-20.4299 966.245,-20.4299 966.245,-0.5 842.075,-0.5"/>
<text text-anchor="middle" x="904.16" y="-8.42993" font-family="Helvetica Neue" font-size="10.00">DatabaseKit/DBModel.h</text>
</g>
<!-- Node10&#45;&gt;Node11 -->
<g id="edge11" class="edge"><title>Node10&#45;&gt;Node11</title>
<path fill="none" stroke="midnightblue" d="M882.453,-57.3243C885.97,-49.8949 891.06,-39.142 895.427,-29.9156"/>
<polygon fill="midnightblue" stroke="midnightblue" points="898.659,-31.2686 899.773,-20.7326 892.332,-28.2738 898.659,-31.2686"/>
</g>
<!-- Node13 -->
<g id="node13" class="node"><title>Node13</title>
<polygon fill="none" stroke="#bfbfbf" points="984.28,-0.5 984.28,-20.4299 1036.04,-20.4299 1036.04,-0.5 984.28,-0.5"/>
<text text-anchor="middle" x="1010.16" y="-8.42993" font-family="Helvetica Neue" font-size="10.00">unistd.h</text>
</g>
<!-- Node12&#45;&gt;Node13 -->
<g id="edge13" class="edge"><title>Node12&#45;&gt;Node13</title>
<path fill="none" stroke="midnightblue" d="M1005.15,-57.3243C1005.94,-50.132 1007.06,-39.825 1008.05,-30.8035"/>
<polygon fill="midnightblue" stroke="midnightblue" points="1011.54,-31.0535 1009.15,-20.7326 1004.58,-30.2934 1011.54,-31.0535"/>
</g>
<!-- Node14&#45;&gt;Node9 -->
<g id="edge15" class="edge"><title>Node14&#45;&gt;Node9</title>
<path fill="none" stroke="midnightblue" d="M682.216,-57.3243C658.289,-48.2599 621.302,-34.2482 594.507,-24.0977"/>
<polygon fill="midnightblue" stroke="midnightblue" points="595.731,-20.8186 585.139,-20.549 593.251,-27.3647 595.731,-20.8186"/>
</g>
<!-- Node15 -->
<g id="node15" class="node"><title>Node15</title>
<polygon fill="none" stroke="#bfbfbf" points="643.92,-0.5 643.92,-20.4299 824.4,-20.4299 824.4,-0.5 643.92,-0.5"/>
<text text-anchor="middle" x="734.16" y="-8.42993" font-family="Helvetica Neue" font-size="10.00">DatabaseKit/DBSQLRepresentable.h</text>
</g>
<!-- Node14&#45;&gt;Node15 -->
<g id="edge16" class="edge"><title>Node14&#45;&gt;Node15</title>
<path fill="none" stroke="midnightblue" d="M710.784,-57.3243C714.571,-49.8949 720.052,-39.142 724.755,-29.9156"/>
<polygon fill="midnightblue" stroke="midnightblue" points="728.013,-31.2314 729.436,-20.7326 721.776,-28.0524 728.013,-31.2314"/>
</g>
<!-- Node16&#45;&gt;Node9 -->
<g id="edge18" class="edge"><title>Node16&#45;&gt;Node9</title>
<path fill="none" stroke="midnightblue" d="M527.765,-57.3243C533.348,-49.6578 541.508,-38.4523 548.364,-29.037"/>
<polygon fill="midnightblue" stroke="midnightblue" points="551.354,-30.8767 554.411,-20.7326 545.695,-26.7561 551.354,-30.8767"/>
</g>
</g>
</svg>
