<?xml version="1.0" encoding="UTF-8" standalone="no"?>
<!DOCTYPE svg PUBLIC "-//W3C//DTD SVG 1.1//EN"
 "http://www.w3.org/Graphics/SVG/1.1/DTD/svg11.dtd">
<!-- Generated by graphviz version 2.38.0 (20140413.2041)
 -->
<!-- Title: Source/Queries/DBAlterTableQuery.h Pages: 1 -->
<svg width="419pt" height="110pt"
 viewBox="0.00 0.00 418.99 109.72" xmlns="http://www.w3.org/2000/svg" xmlns:xlink="http://www.w3.org/1999/xlink">
<g id="graph0" class="graph" transform="scale(1 1) rotate(0) translate(4 105.72)">
<title>Source/Queries/DBAlterTableQuery.h</title>
<!-- Node1 -->
<g id="node1" class="node"><title>Node1</title>
<polygon fill="#bfbfbf" stroke="black" points="123.25,-69.3599 123.25,-101.22 269.99,-101.22 269.99,-69.3599 123.25,-69.3599"/>
<text text-anchor="start" x="131.25" y="-89.2197" font-family="Helvetica Neue" font-size="10.00">Source/Queries/DBAlterTable</text>
<text text-anchor="middle" x="196.62" y="-77.2898" font-family="Helvetica Neue" font-size="10.00">Query.h</text>
</g>
<!-- Node2 -->
<g id="node2" class="node"><title>Node2</title>
<g id="a_node2"><a xlink:href="_d_b_09_migrations_8m.html" target="_top" xlink:title="Source/DB+Migrations.m">
<polygon fill="none" stroke="black" points="0,-6.46497 0,-26.3949 129.24,-26.3949 129.24,-6.46497 0,-6.46497"/>
<text text-anchor="middle" x="64.62" y="-14.3949" font-family="Helvetica Neue" font-size="10.00">Source/DB+Migrations.m</text>
</a>
</g>
</g>
<!-- Node1&#45;&gt;Node2 -->
<g id="edge1" class="edge"><title>Node1&#45;&gt;Node2</title>
<path fill="none" stroke="midnightblue" d="M157.779,-64.6161C132.826,-51.9773 101.6,-36.161 82.3868,-26.429"/>
<polygon fill="midnightblue" stroke="midnightblue" points="156.494,-67.8888 166.997,-69.2851 159.657,-61.6442 156.494,-67.8888"/>
</g>
<!-- Node3 -->
<g id="node3" class="node"><title>Node3</title>
<g id="a_node3"><a xlink:href="_d_b_table_8m.html" target="_top" xlink:title="Source/DBTable.m">
<polygon fill="none" stroke="black" points="146.76,-6.46497 146.76,-26.3949 246.48,-26.3949 246.48,-6.46497 146.76,-6.46497"/>
<text text-anchor="middle" x="196.62" y="-14.3949" font-family="Helvetica Neue" font-size="10.00">Source/DBTable.m</text>
</a>
</g>
</g>
<!-- Node1&#45;&gt;Node3 -->
<g id="edge2" class="edge"><title>Node1&#45;&gt;Node3</title>
<path fill="none" stroke="midnightblue" d="M196.62,-58.835C196.62,-47.5027 196.62,-34.872 196.62,-26.5754"/>
<polygon fill="midnightblue" stroke="midnightblue" points="193.12,-59.1182 196.62,-69.1183 200.12,-59.1183 193.12,-59.1182"/>
</g>
<!-- Node4 -->
<g id="node4" class="node"><title>Node4</title>
<g id="a_node4"><a xlink:href="_d_b_alter_table_query_8m.html" target="_top" xlink:title="Source/Queries/DBAlterTable\lQuery.m">
<polygon fill="none" stroke="black" points="264.25,-0.5 264.25,-32.3599 410.99,-32.3599 410.99,-0.5 264.25,-0.5"/>
<text text-anchor="start" x="272.25" y="-20.3599" font-family="Helvetica Neue" font-size="10.00">Source/Queries/DBAlterTable</text>
<text text-anchor="middle" x="337.62" y="-8.42993" font-family="Helvetica Neue" font-size="10.00">Query.m</text>
</a>
</g>
</g>
<!-- Node1&#45;&gt;Node4 -->
<g id="edge3" class="edge"><title>Node1&#45;&gt;Node4</title>
<path fill="none" stroke="midnightblue" d="M237.323,-64.9893C259.207,-54.6122 285.785,-42.0091 306.082,-32.3845"/>
<polygon fill="midnightblue" stroke="midnightblue" points="235.799,-61.8381 228.263,-69.2851 238.798,-68.163 235.799,-61.8381"/>
</g>
</g>
</svg>
