<?xml version="1.0" encoding="UTF-8" standalone="no"?>
<!DOCTYPE svg PUBLIC "-//W3C//DTD SVG 1.1//EN"
 "http://www.w3.org/Graphics/SVG/1.1/DTD/svg11.dtd">
<!-- Generated by graphviz version 2.38.0 (20140413.2041)
 -->
<!-- Title: Source/Utilities/DBIntrospection.h Pages: 1 -->
<svg width="566pt" height="86pt"
 viewBox="0.00 0.00 566.04 85.86" xmlns="http://www.w3.org/2000/svg" xmlns:xlink="http://www.w3.org/1999/xlink">
<g id="graph0" class="graph" transform="scale(1 1) rotate(0) translate(4 81.8599)">
<title>Source/Utilities/DBIntrospection.h</title>
<!-- Node1 -->
<g id="node1" class="node"><title>Node1</title>
<polygon fill="#bfbfbf" stroke="black" points="175.69,-57.4299 175.69,-77.3599 343.55,-77.3599 343.55,-57.4299 175.69,-57.4299"/>
<text text-anchor="middle" x="259.62" y="-65.3599" font-family="Helvetica Neue" font-size="10.00">Source/Utilities/DBIntrospection.h</text>
</g>
<!-- Node2 -->
<g id="node2" class="node"><title>Node2</title>
<g id="a_node2"><a xlink:href="_d_b_09_migrations_8m.html" target="_top" xlink:title="Source/DB+Migrations.m">
<polygon fill="none" stroke="black" points="0,-0.5 0,-20.4299 129.24,-20.4299 129.24,-0.5 0,-0.5"/>
<text text-anchor="middle" x="64.62" y="-8.42993" font-family="Helvetica Neue" font-size="10.00">Source/DB+Migrations.m</text>
</a>
</g>
</g>
<!-- Node1&#45;&gt;Node2 -->
<g id="edge1" class="edge"><title>Node1&#45;&gt;Node2</title>
<path fill="none" stroke="midnightblue" d="M217.612,-54.5615C181.29,-44.3299 129.564,-29.7593 96.544,-20.4577"/>
<polygon fill="midnightblue" stroke="midnightblue" points="216.845,-57.9818 227.42,-57.3243 218.743,-51.244 216.845,-57.9818"/>
</g>
<!-- Node3 -->
<g id="node3" class="node"><title>Node3</title>
<g id="a_node3"><a xlink:href="_d_b_model_8m.html" target="_top" xlink:title="Source/DBModel.m">
<polygon fill="none" stroke="black" points="147.535,-0.5 147.535,-20.4299 251.705,-20.4299 251.705,-0.5 147.535,-0.5"/>
<text text-anchor="middle" x="199.62" y="-8.42993" font-family="Helvetica Neue" font-size="10.00">Source/DBModel.m</text>
</a>
</g>
</g>
<!-- Node1&#45;&gt;Node3 -->
<g id="edge2" class="edge"><title>Node1&#45;&gt;Node3</title>
<path fill="none" stroke="midnightblue" d="M242.257,-50.4993C231.712,-40.8452 218.618,-28.8575 209.743,-20.7326"/>
<polygon fill="midnightblue" stroke="midnightblue" points="239.973,-53.1533 249.712,-57.3243 244.7,-47.9902 239.973,-53.1533"/>
</g>
<!-- Node4 -->
<g id="node4" class="node"><title>Node4</title>
<g id="a_node4"><a xlink:href="_d_b_table_8m.html" target="_top" xlink:title="Source/DBTable.m">
<polygon fill="none" stroke="black" points="269.76,-0.5 269.76,-20.4299 369.48,-20.4299 369.48,-0.5 269.76,-0.5"/>
<text text-anchor="middle" x="319.62" y="-8.42993" font-family="Helvetica Neue" font-size="10.00">Source/DBTable.m</text>
</a>
</g>
</g>
<!-- Node1&#45;&gt;Node4 -->
<g id="edge3" class="edge"><title>Node1&#45;&gt;Node4</title>
<path fill="none" stroke="midnightblue" d="M276.983,-50.4993C287.528,-40.8452 300.622,-28.8575 309.497,-20.7326"/>
<polygon fill="midnightblue" stroke="midnightblue" points="274.54,-47.9902 269.528,-57.3243 279.267,-53.1533 274.54,-47.9902"/>
</g>
<!-- Node5 -->
<g id="node5" class="node"><title>Node5</title>
<g id="a_node5"><a xlink:href="_d_b_introspection_8m.html" target="_top" xlink:title="Source/Utilities/DBIntrospection.m">
<polygon fill="none" stroke="black" points="387.205,-0.5 387.205,-20.4299 558.035,-20.4299 558.035,-0.5 387.205,-0.5"/>
<text text-anchor="middle" x="472.62" y="-8.42993" font-family="Helvetica Neue" font-size="10.00">Source/Utilities/DBIntrospection.m</text>
</a>
</g>
</g>
<!-- Node1&#45;&gt;Node5 -->
<g id="edge4" class="edge"><title>Node1&#45;&gt;Node5</title>
<path fill="none" stroke="midnightblue" d="M304.492,-54.8229C344.213,-44.5793 401.372,-29.8388 437.749,-20.4577"/>
<polygon fill="midnightblue" stroke="midnightblue" points="303.602,-51.438 294.793,-57.3243 305.35,-58.2162 303.602,-51.438"/>
</g>
</g>
</svg>
