<?xml version="1.0" encoding="UTF-8" standalone="no"?>
<!DOCTYPE svg PUBLIC "-//W3C//DTD SVG 1.1//EN"
 "http://www.w3.org/Graphics/SVG/1.1/DTD/svg11.dtd">
<!-- Generated by graphviz version 2.38.0 (20140413.2041)
 -->
<!-- Title: Source/DB+Migrations.m Pages: 1 -->
<!--zoomable 143 -->
<svg id="main" version="1.1" xmlns="http://www.w3.org/2000/svg" xmlns:xlink="http://www.w3.org/1999/xlink" xml:space="preserve" onload="init(evt)">
<style type="text/css"><![CDATA[
.edge:hover path { stroke: red; }
.edge:hover polygon { stroke: red; fill: red; }
]]></style>
<script type="text/javascript"><![CDATA[
var edges = document.getElementsByTagName('g');
if (edges && edges.length) {
  for (var i=0;i<edges.length;i++) {
    if (edges[i].id.substr(0,4)=='edge') {
      edges[i].setAttribute('class','edge');
    }
  }
}
]]></script>
        <defs>
                <circle id="rim" cx="0" cy="0" r="7"/>
                <circle id="rim2" cx="0" cy="0" r="3.5"/>
                <g id="zoomPlus">
                        <use xlink:href="#rim" fill="#404040">
                                <set attributeName="fill" to="#808080" begin="zoomplus.mouseover" end="zoomplus.mouseout"/>
                        </use>
                        <path d="M-4,0h8M0,-4v8" fill="none" stroke="white" stroke-width="1.5" pointer-events="none"/>
                </g>
                <g id="zoomMin">
                        <use xlink:href="#rim" fill="#404040">
                                <set attributeName="fill" to="#808080" begin="zoomminus.mouseover" end="zoomminus.mouseout"/>
                        </use>
                        <path d="M-4,0h8" fill="none" stroke="white" stroke-width="1.5" pointer-events="none"/>
                </g>
                <g id="dirArrow">
                        <path fill="none" stroke="white" stroke-width="1.5" d="M0,-3.0v7 M-2.5,-0.5L0,-3.0L2.5,-0.5"/>
                </g>
               <g id="resetDef">
                       <use xlink:href="#rim2" fill="#404040">
                               <set attributeName="fill" to="#808080" begin="reset.mouseover" end="reset.mouseout"/>
                       </use>
               </g>
        </defs>

<script type="text/javascript">
var viewWidth = 1623;
var viewHeight = 143;
var sectionId = 'dynsection-0';
</script>
<script xlink:href="svgpan.js"/>
<svg id="graph" class="graph">
<g id="viewport">
<title>Source/DB+Migrations.m</title>
<!-- Node1 -->
<g id="node1" class="node"><title>Node1</title>
<polygon fill="#bfbfbf" stroke="black" points="856.48,-114.36 856.48,-134.29 985.72,-134.29 985.72,-114.36 856.48,-114.36"/>
<text text-anchor="middle" x="921.1" y="-122.29" font-family="Helvetica Neue" font-size="10.00">Source/DB+Migrations.m</text>
</g>
<!-- Node2 -->
<g id="node2" class="node"><title>Node2</title>
<g id="a_node2"><a xlink:href="_d_b_09_migrations_8h.html" target="_top" xlink:title="DB+Migrations.h">
<polygon fill="none" stroke="black" points="8.465,-57.4299 8.465,-77.3599 99.735,-77.3599 99.735,-57.4299 8.465,-57.4299"/>
<text text-anchor="middle" x="54.1" y="-65.3599" font-family="Helvetica Neue" font-size="10.00">DB+Migrations.h</text>
</a>
</g>
</g>
<!-- Node1&#45;&gt;Node2 -->
<g id="edge1" class="edge"><title>Node1&#45;&gt;Node2</title>
<path fill="none" stroke="midnightblue" d="M856.148,-119.428C728.637,-111.744 436.598,-93.985 191.1,-77.8599 164.336,-76.1019 134.638,-74.0612 109.753,-72.3257"/>
<polygon fill="midnightblue" stroke="midnightblue" points="109.981,-68.8332 99.7615,-71.6273 109.493,-75.8162 109.981,-68.8332"/>
</g>
<!-- Node4 -->
<g id="node4" class="node"><title>Node4</title>
<g id="a_node4"><a xlink:href="_d_b_model_09_private_8h.html" target="_top" xlink:title="DBModel+Private.h">
<polygon fill="none" stroke="black" points="200.54,-57.4299 200.54,-77.3599 303.66,-77.3599 303.66,-57.4299 200.54,-57.4299"/>
<text text-anchor="middle" x="252.1" y="-65.3599" font-family="Helvetica Neue" font-size="10.00">DBModel+Private.h</text>
</a>
</g>
</g>
<!-- Node1&#45;&gt;Node4 -->
<g id="edge3" class="edge"><title>Node1&#45;&gt;Node4</title>
<path fill="none" stroke="midnightblue" d="M856.346,-118.008C727.49,-107.428 440.502,-83.8641 314.011,-73.4783"/>
<polygon fill="midnightblue" stroke="midnightblue" points="313.984,-69.9643 303.731,-72.6342 313.411,-76.9409 313.984,-69.9643"/>
</g>
<!-- Node6 -->
<g id="node6" class="node"><title>Node6</title>
<g id="a_node6"><a xlink:href="_d_b_table_8h.html" target="_top" xlink:title="DBTable.h">
<polygon fill="none" stroke="black" points="399.225,-57.4299 399.225,-77.3599 460.975,-77.3599 460.975,-57.4299 399.225,-57.4299"/>
<text text-anchor="middle" x="430.1" y="-65.3599" font-family="Helvetica Neue" font-size="10.00">DBTable.h</text>
</a>
</g>
</g>
<!-- Node1&#45;&gt;Node6 -->
<g id="edge5" class="edge"><title>Node1&#45;&gt;Node6</title>
<path fill="none" stroke="midnightblue" d="M856.14,-119.477C770.239,-113.788 614.035,-101.369 471.281,-77.851"/>
<polygon fill="midnightblue" stroke="midnightblue" points="471.467,-74.3336 461.027,-76.1384 470.314,-81.238 471.467,-74.3336"/>
</g>
<!-- Node10 -->
<g id="node10" class="node"><title>Node10</title>
<g id="a_node10"><a xlink:href="_d_b_insert_query_8h.html" target="_top" xlink:title="DBInsertQuery.h">
<polygon fill="none" stroke="black" points="1153.42,-57.4299 1153.42,-77.3599 1242.77,-77.3599 1242.77,-57.4299 1153.42,-57.4299"/>
<text text-anchor="middle" x="1198.1" y="-65.3599" font-family="Helvetica Neue" font-size="10.00">DBInsertQuery.h</text>
</a>
</g>
</g>
<!-- Node1&#45;&gt;Node10 -->
<g id="edge9" class="edge"><title>Node1&#45;&gt;Node10</title>
<path fill="none" stroke="midnightblue" d="M966.531,-114.316C1014.88,-104.728 1091.39,-89.5562 1143.11,-79.3003"/>
<polygon fill="midnightblue" stroke="midnightblue" points="1143.98,-82.6961 1153.1,-77.3177 1142.61,-75.8298 1143.98,-82.6961"/>
</g>
<!-- Node12 -->
<g id="node12" class="node"><title>Node12</title>
<g id="a_node12"><a xlink:href="_d_b_select_query_8h.html" target="_top" xlink:title="DBSelectQuery.h">
<polygon fill="none" stroke="black" points="1260.94,-57.4299 1260.94,-77.3599 1353.25,-77.3599 1353.25,-57.4299 1260.94,-57.4299"/>
<text text-anchor="middle" x="1307.1" y="-65.3599" font-family="Helvetica Neue" font-size="10.00">DBSelectQuery.h</text>
</a>
</g>
</g>
<!-- Node1&#45;&gt;Node12 -->
<g id="edge11" class="edge"><title>Node1&#45;&gt;Node12</title>
<path fill="none" stroke="midnightblue" d="M985.888,-115.086C1050.47,-106.724 1152.74,-93.0786 1250.82,-78.0181"/>
<polygon fill="midnightblue" stroke="midnightblue" points="1251.56,-81.4456 1260.91,-76.4615 1250.49,-74.5274 1251.56,-81.4456"/>
</g>
<!-- Node13 -->
<g id="node13" class="node"><title>Node13</title>
<g id="a_node13"><a xlink:href="_d_b_create_table_query_8h.html" target="_top" xlink:title="DBCreateTableQuery.h">
<polygon fill="none" stroke="black" points="1371.35,-57.4299 1371.35,-77.3599 1488.85,-77.3599 1488.85,-57.4299 1371.35,-57.4299"/>
<text text-anchor="middle" x="1430.1" y="-65.3599" font-family="Helvetica Neue" font-size="10.00">DBCreateTableQuery.h</text>
</a>
</g>
</g>
<!-- Node1&#45;&gt;Node13 -->
<g id="edge13" class="edge"><title>Node1&#45;&gt;Node13</title>
<path fill="none" stroke="midnightblue" d="M985.819,-117.379C1069.83,-109.499 1221.27,-94.7427 1361.1,-77.9445"/>
<polygon fill="midnightblue" stroke="midnightblue" points="1361.64,-81.405 1371.14,-76.7316 1360.8,-74.4555 1361.64,-81.405"/>
</g>
<!-- Node14 -->
<g id="node14" class="node"><title>Node14</title>
<g id="a_node14"><a xlink:href="_d_b_alter_table_query_8h.html" target="_top" xlink:title="DBAlterTableQuery.h">
<polygon fill="none" stroke="black" points="1506.89,-57.4299 1506.89,-77.3599 1615.31,-77.3599 1615.31,-57.4299 1506.89,-57.4299"/>
<text text-anchor="middle" x="1561.1" y="-65.3599" font-family="Helvetica Neue" font-size="10.00">DBAlterTableQuery.h</text>
</a>
</g>
</g>
<!-- Node1&#45;&gt;Node14 -->
<g id="edge15" class="edge"><title>Node1&#45;&gt;Node14</title>
<path fill="none" stroke="midnightblue" d="M986.142,-119.699C1091.31,-113.505 1305.43,-99.5289 1496.87,-77.9291"/>
<polygon fill="midnightblue" stroke="midnightblue" points="1497.3,-81.4035 1506.84,-76.7955 1496.5,-74.4484 1497.3,-81.4035"/>
</g>
<!-- Node15 -->
<g id="node15" class="node"><title>Node15</title>
<g id="a_node15"><a xlink:href="_d_b_drop_table_query_8h.html" target="_top" xlink:title="DBDropTableQuery.h">
<polygon fill="none" stroke="black" points="1025.23,-57.4299 1025.23,-77.3599 1134.96,-77.3599 1134.96,-57.4299 1025.23,-57.4299"/>
<text text-anchor="middle" x="1080.1" y="-65.3599" font-family="Helvetica Neue" font-size="10.00">DBDropTableQuery.h</text>
</a>
</g>
</g>
<!-- Node1&#45;&gt;Node15 -->
<g id="edge17" class="edge"><title>Node1&#45;&gt;Node15</title>
<path fill="none" stroke="midnightblue" d="M947.356,-114.254C973.903,-105.083 1015.11,-90.847 1044.57,-80.6701"/>
<polygon fill="midnightblue" stroke="midnightblue" points="1045.76,-83.9612 1054.07,-77.3876 1043.47,-77.3449 1045.76,-83.9612"/>
</g>
<!-- Node16 -->
<g id="node16" class="node"><title>Node16</title>
<g id="a_node16"><a xlink:href="_d_b_index_8h.html" target="_top" xlink:title="DBIndex.h">
<polygon fill="none" stroke="black" points="646.67,-57.4299 646.67,-77.3599 709.53,-77.3599 709.53,-57.4299 646.67,-57.4299"/>
<text text-anchor="middle" x="678.1" y="-65.3599" font-family="Helvetica Neue" font-size="10.00">DBIndex.h</text>
</a>
</g>
</g>
<!-- Node1&#45;&gt;Node16 -->
<g id="edge19" class="edge"><title>Node1&#45;&gt;Node16</title>
<path fill="none" stroke="midnightblue" d="M880.843,-114.332C842.134,-105.67 781.704,-92.1082 719.821,-78.0153"/>
<polygon fill="midnightblue" stroke="midnightblue" points="720.408,-74.5593 709.88,-75.7496 718.852,-81.3843 720.408,-74.5593"/>
</g>
<!-- Node17 -->
<g id="node17" class="node"><title>Node17</title>
<g id="a_node17"><a xlink:href="_n_s_string_09_d_b_additions_8h.html" target="_top" xlink:title="NSString+DBAdditions.h">
<polygon fill="none" stroke="black" points="727.78,-57.4299 727.78,-77.3599 854.42,-77.3599 854.42,-57.4299 727.78,-57.4299"/>
<text text-anchor="middle" x="791.1" y="-65.3599" font-family="Helvetica Neue" font-size="10.00">NSString+DBAdditions.h</text>
</a>
</g>
</g>
<!-- Node1&#45;&gt;Node17 -->
<g id="edge21" class="edge"><title>Node1&#45;&gt;Node17</title>
<path fill="none" stroke="midnightblue" d="M899.633,-114.254C878.463,-105.309 845.891,-91.546 821.95,-81.4303"/>
<polygon fill="midnightblue" stroke="midnightblue" points="823.172,-78.1472 812.599,-77.4789 820.448,-84.5952 823.172,-78.1472"/>
</g>
<!-- Node19 -->
<g id="node19" class="node"><title>Node19</title>
<g id="a_node19"><a xlink:href="_n_s_collections_09_d_b_additions_8h.html" target="_top" xlink:title="NSCollections+DBAdditions.h">
<polygon fill="none" stroke="black" points="479.115,-57.4299 479.115,-77.3599 629.085,-77.3599 629.085,-57.4299 479.115,-57.4299"/>
<text text-anchor="middle" x="554.1" y="-65.3599" font-family="Helvetica Neue" font-size="10.00">NSCollections+DBAdditions.h</text>
</a>
</g>
</g>
<!-- Node1&#45;&gt;Node19 -->
<g id="edge24" class="edge"><title>Node1&#45;&gt;Node19</title>
<path fill="none" stroke="midnightblue" d="M860.908,-114.316C796.015,-104.603 692.827,-89.1586 624.291,-78.9005"/>
<polygon fill="midnightblue" stroke="midnightblue" points="624.428,-75.3821 614.02,-77.3632 623.391,-82.305 624.428,-75.3821"/>
</g>
<!-- Node20 -->
<g id="node20" class="node"><title>Node20</title>
<g id="a_node20"><a xlink:href="_d_b_introspection_8h.html" target="_top" xlink:title="DBIntrospection.h">
<polygon fill="none" stroke="black" points="872.72,-57.4299 872.72,-77.3599 969.48,-77.3599 969.48,-57.4299 872.72,-57.4299"/>
<text text-anchor="middle" x="921.1" y="-65.3599" font-family="Helvetica Neue" font-size="10.00">DBIntrospection.h</text>
</a>
</g>
</g>
<!-- Node1&#45;&gt;Node20 -->
<g id="edge26" class="edge"><title>Node1&#45;&gt;Node20</title>
<path fill="none" stroke="midnightblue" d="M921.1,-114.254C921.1,-107.062 921.1,-96.7549 921.1,-87.7334"/>
<polygon fill="midnightblue" stroke="midnightblue" points="924.6,-87.6625 921.1,-77.6625 917.6,-87.6626 924.6,-87.6625"/>
</g>
<!-- Node21 -->
<g id="node21" class="node"><title>Node21</title>
<polygon fill="none" stroke="#bfbfbf" points="958.775,-0.5 958.775,-20.4299 1039.42,-20.4299 1039.42,-0.5 958.775,-0.5"/>
<text text-anchor="middle" x="999.1" y="-8.42993" font-family="Helvetica Neue" font-size="10.00">objc/runtime.h</text>
</g>
<!-- Node1&#45;&gt;Node21 -->
<g id="edge29" class="edge"><title>Node1&#45;&gt;Node21</title>
<path fill="none" stroke="midnightblue" d="M937.052,-114.284C949.863,-106.257 967.421,-93.4059 978.1,-77.8599 987.823,-63.7065 993.221,-44.8207 996.101,-30.8103"/>
<polygon fill="midnightblue" stroke="midnightblue" points="999.575,-31.2653 997.904,-20.803 992.686,-30.0235 999.575,-31.2653"/>
</g>
<!-- Node3 -->
<g id="node3" class="node"><title>Node3</title>
<polygon fill="none" stroke="#bfbfbf" points="-8.52651e-14,-0.5 -8.52651e-14,-20.4299 96.2,-20.4299 96.2,-0.5 -8.52651e-14,-0.5"/>
<text text-anchor="middle" x="48.1" y="-8.42993" font-family="Helvetica Neue" font-size="10.00">DatabaseKit/DB.h</text>
</g>
<!-- Node2&#45;&gt;Node3 -->
<g id="edge2" class="edge"><title>Node2&#45;&gt;Node3</title>
<path fill="none" stroke="midnightblue" d="M53.1092,-57.3243C52.3236,-50.132 51.1978,-39.825 50.2123,-30.8035"/>
<polygon fill="midnightblue" stroke="midnightblue" points="53.6775,-30.2934 49.1123,-20.7326 46.7189,-31.0535 53.6775,-30.2934"/>
</g>
<!-- Node5 -->
<g id="node5" class="node"><title>Node5</title>
<polygon fill="none" stroke="#bfbfbf" points="114.015,-0.5 114.015,-20.4299 238.185,-20.4299 238.185,-0.5 114.015,-0.5"/>
<text text-anchor="middle" x="176.1" y="-8.42993" font-family="Helvetica Neue" font-size="10.00">DatabaseKit/DBModel.h</text>
</g>
<!-- Node4&#45;&gt;Node5 -->
<g id="edge4" class="edge"><title>Node4&#45;&gt;Node5</title>
<path fill="none" stroke="midnightblue" d="M239.55,-57.3243C227.999,-48.9755 210.641,-36.4297 196.998,-26.5696"/>
<polygon fill="midnightblue" stroke="midnightblue" points="198.823,-23.5702 188.668,-20.549 194.723,-29.2435 198.823,-23.5702"/>
</g>
<!-- Node7 -->
<g id="node7" class="node"><title>Node7</title>
<polygon fill="none" stroke="#bfbfbf" points="256.255,-0.5 256.255,-20.4299 403.945,-20.4299 403.945,-0.5 256.255,-0.5"/>
<text text-anchor="middle" x="330.1" y="-8.42993" font-family="Helvetica Neue" font-size="10.00">DatabaseKit/DBConnection.h</text>
</g>
<!-- Node6&#45;&gt;Node7 -->
<g id="edge6" class="edge"><title>Node6&#45;&gt;Node7</title>
<path fill="none" stroke="midnightblue" d="M413.587,-57.3243C397.809,-48.6574 373.797,-35.4678 355.569,-25.4548"/>
<polygon fill="midnightblue" stroke="midnightblue" points="357.087,-22.2959 346.637,-20.549 353.717,-28.4312 357.087,-22.2959"/>
</g>
<!-- Node8 -->
<g id="node8" class="node"><title>Node8</title>
<polygon fill="none" stroke="#bfbfbf" points="421.565,-0.5 421.565,-20.4299 594.635,-20.4299 594.635,-0.5 421.565,-0.5"/>
<text text-anchor="middle" x="508.1" y="-8.42993" font-family="Helvetica Neue" font-size="10.00">DatabaseKit/DBColumnDefinition.h</text>
</g>
<!-- Node6&#45;&gt;Node8 -->
<g id="edge7" class="edge"><title>Node6&#45;&gt;Node8</title>
<path fill="none" stroke="midnightblue" d="M442.98,-57.3243C454.835,-48.9755 472.65,-36.4297 486.652,-26.5696"/>
<polygon fill="midnightblue" stroke="midnightblue" points="489.04,-29.1685 495.201,-20.549 485.009,-23.4452 489.04,-29.1685"/>
</g>
<!-- Node9 -->
<g id="node9" class="node"><title>Node9</title>
<polygon fill="none" stroke="#bfbfbf" points="612.695,-0.5 612.695,-20.4299 741.505,-20.4299 741.505,-0.5 612.695,-0.5"/>
<text text-anchor="middle" x="677.1" y="-8.42993" font-family="Helvetica Neue" font-size="10.00">Foundation/Foundation.h</text>
</g>
<!-- Node6&#45;&gt;Node9 -->
<g id="edge8" class="edge"><title>Node6&#45;&gt;Node9</title>
<path fill="none" stroke="midnightblue" d="M461.097,-59.008C464.138,-58.2991 467.178,-57.5965 470.1,-56.9299 522.793,-44.9099 583.167,-31.7153 625.06,-22.6514"/>
<polygon fill="midnightblue" stroke="midnightblue" points="625.996,-26.03 635.031,-20.4966 624.517,-19.188 625.996,-26.03"/>
</g>
<!-- Node11 -->
<g id="node11" class="node"><title>Node11</title>
<polygon fill="none" stroke="#bfbfbf" points="1245.94,-0.5 1245.94,-20.4299 1368.26,-20.4299 1368.26,-0.5 1245.94,-0.5"/>
<text text-anchor="middle" x="1307.1" y="-8.42993" font-family="Helvetica Neue" font-size="10.00">DatabaseKit/DBQuery.h</text>
</g>
<!-- Node10&#45;&gt;Node11 -->
<g id="edge10" class="edge"><title>Node10&#45;&gt;Node11</title>
<path fill="none" stroke="midnightblue" d="M1216.1,-57.3243C1233.46,-48.5779 1259.95,-35.2254 1279.88,-25.18"/>
<polygon fill="midnightblue" stroke="midnightblue" points="1281.72,-28.1749 1289.07,-20.549 1278.57,-21.9238 1281.72,-28.1749"/>
</g>
<!-- Node12&#45;&gt;Node11 -->
<g id="edge12" class="edge"><title>Node12&#45;&gt;Node11</title>
<path fill="none" stroke="midnightblue" d="M1307.1,-57.3243C1307.1,-50.132 1307.1,-39.825 1307.1,-30.8035"/>
<polygon fill="midnightblue" stroke="midnightblue" points="1310.6,-30.7326 1307.1,-20.7326 1303.6,-30.7326 1310.6,-30.7326"/>
</g>
<!-- Node13&#45;&gt;Node11 -->
<g id="edge14" class="edge"><title>Node13&#45;&gt;Node11</title>
<path fill="none" stroke="midnightblue" d="M1409.79,-57.3243C1389.85,-48.4189 1359.21,-34.7383 1336.59,-24.6354"/>
<polygon fill="midnightblue" stroke="midnightblue" points="1338,-21.431 1327.44,-20.549 1335.14,-27.8226 1338,-21.431"/>
</g>
<!-- Node14&#45;&gt;Node11 -->
<g id="edge16" class="edge"><title>Node14&#45;&gt;Node11</title>
<path fill="none" stroke="midnightblue" d="M1519.44,-57.3858C1475.52,-47.8866 1406.24,-32.9052 1358.84,-22.6549"/>
<polygon fill="midnightblue" stroke="midnightblue" points="1359.3,-19.1718 1348.78,-20.4789 1357.82,-26.0137 1359.3,-19.1718"/>
</g>
<!-- Node15&#45;&gt;Node11 -->
<g id="edge18" class="edge"><title>Node15&#45;&gt;Node11</title>
<path fill="none" stroke="midnightblue" d="M1117.33,-57.3858C1156.34,-47.9464 1217.72,-33.0935 1260.06,-22.8488"/>
<polygon fill="midnightblue" stroke="midnightblue" points="1260.95,-26.2328 1269.85,-20.4789 1259.31,-19.4291 1260.95,-26.2328"/>
</g>
<!-- Node16&#45;&gt;Node9 -->
<g id="edge20" class="edge"><title>Node16&#45;&gt;Node9</title>
<path fill="none" stroke="midnightblue" d="M677.935,-57.3243C677.804,-50.132 677.616,-39.825 677.452,-30.8035"/>
<polygon fill="midnightblue" stroke="midnightblue" points="680.95,-30.6672 677.269,-20.7326 673.951,-30.7947 680.95,-30.6672"/>
</g>
<!-- Node17&#45;&gt;Node9 -->
<g id="edge23" class="edge"><title>Node17&#45;&gt;Node9</title>
<path fill="none" stroke="midnightblue" d="M772.275,-57.3243C753.958,-48.4984 725.907,-34.9822 704.997,-24.9069"/>
<polygon fill="midnightblue" stroke="midnightblue" points="706.481,-21.7368 695.953,-20.549 703.442,-28.0429 706.481,-21.7368"/>
</g>
<!-- Node18 -->
<g id="node18" class="node"><title>Node18</title>
<polygon fill="none" stroke="#bfbfbf" points="759.86,-0.5 759.86,-20.4299 940.34,-20.4299 940.34,-0.5 759.86,-0.5"/>
<text text-anchor="middle" x="850.1" y="-8.42993" font-family="Helvetica Neue" font-size="10.00">DatabaseKit/DBSQLRepresentable.h</text>
</g>
<!-- Node17&#45;&gt;Node18 -->
<g id="edge22" class="edge"><title>Node17&#45;&gt;Node18</title>
<path fill="none" stroke="midnightblue" d="M800.843,-57.3243C809.502,-49.2626 822.364,-37.2876 832.774,-27.5961"/>
<polygon fill="midnightblue" stroke="midnightblue" points="835.212,-30.1084 840.146,-20.7326 830.442,-24.9851 835.212,-30.1084"/>
</g>
<!-- Node19&#45;&gt;Node9 -->
<g id="edge25" class="edge"><title>Node19&#45;&gt;Node9</title>
<path fill="none" stroke="midnightblue" d="M574.411,-57.3243C594.352,-48.4189 624.986,-34.7383 647.608,-24.6354"/>
<polygon fill="midnightblue" stroke="midnightblue" points="649.055,-27.8226 656.759,-20.549 646.201,-21.431 649.055,-27.8226"/>
</g>
<!-- Node20&#45;&gt;Node9 -->
<g id="edge27" class="edge"><title>Node20&#45;&gt;Node9</title>
<path fill="none" stroke="midnightblue" d="M881.082,-57.3858C838.974,-47.9065 772.617,-32.968 727.092,-22.7194"/>
<polygon fill="midnightblue" stroke="midnightblue" points="727.665,-19.2607 717.14,-20.4789 726.127,-26.0898 727.665,-19.2607"/>
</g>
<!-- Node20&#45;&gt;Node21 -->
<g id="edge28" class="edge"><title>Node20&#45;&gt;Node21</title>
<path fill="none" stroke="midnightblue" d="M933.98,-57.3243C945.835,-48.9755 963.65,-36.4297 977.652,-26.5696"/>
<polygon fill="midnightblue" stroke="midnightblue" points="980.04,-29.1685 986.201,-20.549 976.009,-23.4452 980.04,-29.1685"/>
</g>
</g>
</svg>
        <g id="navigator" transform="translate(0 0)" fill="#404254">
                <rect fill="#f2f5e9" fill-opacity="0.5" stroke="#606060" stroke-width=".5" x="0" y="0" width="60" height="60"/>
                <use id="zoomplus" xlink:href="#zoomPlus" x="17" y="9" onmousedown="handleZoom(evt,'in')"/>
                <use id="zoomminus" xlink:href="#zoomMin" x="42" y="9" onmousedown="handleZoom(evt,'out')"/>
                <use id="reset" xlink:href="#resetDef" x="30" y="36" onmousedown="handleReset()"/>
                <g id="arrowUp" xlink:href="#dirArrow" transform="translate(30 24)" onmousedown="handlePan(0,-1)">
                  <use xlink:href="#rim" fill="#404040">
                        <set attributeName="fill" to="#808080" begin="arrowUp.mouseover" end="arrowUp.mouseout"/>
                  </use>
                  <path fill="none" stroke="white" stroke-width="1.5" d="M0,-3.0v7 M-2.5,-0.5L0,-3.0L2.5,-0.5"/>
                </g>
                <g id="arrowRight" xlink:href="#dirArrow" transform="rotate(90) translate(36 -43)" onmousedown="handlePan(1,0)">
                  <use xlink:href="#rim" fill="#404040">
                        <set attributeName="fill" to="#808080" begin="arrowRight.mouseover" end="arrowRight.mouseout"/>
                  </use>
                  <path fill="none" stroke="white" stroke-width="1.5" d="M0,-3.0v7 M-2.5,-0.5L0,-3.0L2.5,-0.5"/>
                </g>
                <g id="arrowDown" xlink:href="#dirArrow" transform="rotate(180) translate(-30 -48)" onmousedown="handlePan(0,1)">
                  <use xlink:href="#rim" fill="#404040">
                        <set attributeName="fill" to="#808080" begin="arrowDown.mouseover" end="arrowDown.mouseout"/>
                  </use>
                  <path fill="none" stroke="white" stroke-width="1.5" d="M0,-3.0v7 M-2.5,-0.5L0,-3.0L2.5,-0.5"/>
                </g>
                <g id="arrowLeft" xlink:href="#dirArrow" transform="rotate(270) translate(-36 17)" onmousedown="handlePan(-1,0)">
                  <use xlink:href="#rim" fill="#404040">
                        <set attributeName="fill" to="#808080" begin="arrowLeft.mouseover" end="arrowLeft.mouseout"/>
                  </use>
                  <path fill="none" stroke="white" stroke-width="1.5" d="M0,-3.0v7 M-2.5,-0.5L0,-3.0L2.5,-0.5"/>
                </g>
        </g>
        <svg viewBox="0 0 15 15" width="100%" height="30px" preserveAspectRatio="xMaxYMin meet">
         <g id="arrow_out" transform="scale(0.3 0.3)">
          <a xlink:href="_d_b_09_migrations_8m__incl_org.svg" target="_base">
           <rect id="button" ry="5" rx="5" y="6" x="6" height="38" width="38"
                fill="#f2f5e9" fill-opacity="0.5" stroke="#606060" stroke-width="1.0"/>
           <path id="arrow"
             d="M 11.500037,31.436501 C 11.940474,20.09759 22.043105,11.32322 32.158766,21.979434 L 37.068811,17.246167 C 37.068811,17.246167 37.088388,32 37.088388,32 L 22.160133,31.978069 C 22.160133,31.978069 26.997745,27.140456 26.997745,27.140456 C 18.528582,18.264221 13.291696,25.230495 11.500037,31.436501 z"
             style="fill:#404040;"/>
          </a>
         </g>
        </svg>
</svg>
