<?xml version="1.0" encoding="UTF-8" standalone="no"?>
<!DOCTYPE svg PUBLIC "-//W3C//DTD SVG 1.1//EN"
 "http://www.w3.org/Graphics/SVG/1.1/DTD/svg11.dtd">
<!-- Generated by graphviz version 2.38.0 (20140413.2041)
 -->
<!-- Title: Source/Queries/DBQuery.h Pages: 1 -->
<!--zoomable 98 -->
<svg id="main" version="1.1" xmlns="http://www.w3.org/2000/svg" xmlns:xlink="http://www.w3.org/1999/xlink" xml:space="preserve" onload="init(evt)">
<style type="text/css"><![CDATA[
.edge:hover path { stroke: red; }
.edge:hover polygon { stroke: red; fill: red; }
]]></style>
<script type="text/javascript"><![CDATA[
var edges = document.getElementsByTagName('g');
if (edges && edges.length) {
  for (var i=0;i<edges.length;i++) {
    if (edges[i].id.substr(0,4)=='edge') {
      edges[i].setAttribute('class','edge');
    }
  }
}
]]></script>
        <defs>
                <circle id="rim" cx="0" cy="0" r="7"/>
                <circle id="rim2" cx="0" cy="0" r="3.5"/>
                <g id="zoomPlus">
                        <use xlink:href="#rim" fill="#404040">
                                <set attributeName="fill" to="#808080" begin="zoomplus.mouseover" end="zoomplus.mouseout"/>
                        </use>
                        <path d="M-4,0h8M0,-4v8" fill="none" stroke="white" stroke-width="1.5" pointer-events="none"/>
                </g>
                <g id="zoomMin">
                        <use xlink:href="#rim" fill="#404040">
                                <set attributeName="fill" to="#808080" begin="zoomminus.mouseover" end="zoomminus.mouseout"/>
                        </use>
                        <path d="M-4,0h8" fill="none" stroke="white" stroke-width="1.5" pointer-events="none"/>
                </g>
                <g id="dirArrow">
                        <path fill="none" stroke="white" stroke-width="1.5" d="M0,-3.0v7 M-2.5,-0.5L0,-3.0L2.5,-0.5"/>
                </g>
               <g id="resetDef">
                       <use xlink:href="#rim2" fill="#404040">
                               <set attributeName="fill" to="#808080" begin="reset.mouseover" end="reset.mouseout"/>
                       </use>
               </g>
        </defs>

<script type="text/javascript">
var viewWidth = 743;
var viewHeight = 98;
var sectionId = 'dynsection-1';
</script>
<script xlink:href="svgpan.js"/>
<svg id="graph" class="graph">
<g id="viewport">
<title>Source/Queries/DBQuery.h</title>
<!-- Node1 -->
<g id="node1" class="node"><title>Node1</title>
<polygon fill="#bfbfbf" stroke="black" points="306.26,-69.3599 306.26,-89.2898 443.39,-89.2898 443.39,-69.3599 306.26,-69.3599"/>
<text text-anchor="middle" x="374.825" y="-77.2898" font-family="Helvetica Neue" font-size="10.00">Source/Queries/DBQuery.h</text>
</g>
<!-- Node2 -->
<g id="node2" class="node"><title>Node2</title>
<g id="a_node2"><a xlink:href="_d_b_postgres_connection_8m.html" target="_top" xlink:title="Source/Connections\l/DBPostgresConnection.m">
<polygon fill="none" stroke="black" points="-1.42109e-14,-0.5 -1.42109e-14,-32.3599 135.65,-32.3599 135.65,-0.5 -1.42109e-14,-0.5"/>
<text text-anchor="start" x="8" y="-20.3599" font-family="Helvetica Neue" font-size="10.00">Source/Connections</text>
<text text-anchor="middle" x="67.825" y="-8.42993" font-family="Helvetica Neue" font-size="10.00">/DBPostgresConnection.m</text>
</a>
</g>
</g>
<!-- Node1&#45;&gt;Node2 -->
<g id="edge1" class="edge"><title>Node1&#45;&gt;Node2</title>
<path fill="none" stroke="midnightblue" d="M319.104,-67.3526C272.52,-58.1692 204.331,-44.7034 144.825,-32.8599 141.883,-32.2744 138.878,-31.6755 135.843,-31.07"/>
<polygon fill="midnightblue" stroke="midnightblue" points="318.51,-70.8026 328.998,-69.3025 319.863,-63.9348 318.51,-70.8026"/>
</g>
<!-- Node3 -->
<g id="node3" class="node"><title>Node3</title>
<g id="a_node3"><a xlink:href="_d_b_s_q_lite_connection_8m.html" target="_top" xlink:title="Source/Connections\l/DBSQLiteConnection.m">
<polygon fill="none" stroke="black" points="153.625,-0.5 153.625,-32.3599 280.025,-32.3599 280.025,-0.5 153.625,-0.5"/>
<text text-anchor="start" x="161.625" y="-20.3599" font-family="Helvetica Neue" font-size="10.00">Source/Connections</text>
<text text-anchor="middle" x="216.825" y="-8.42993" font-family="Helvetica Neue" font-size="10.00">/DBSQLiteConnection.m</text>
</a>
</g>
</g>
<!-- Node1&#45;&gt;Node3 -->
<g id="edge2" class="edge"><title>Node1&#45;&gt;Node3</title>
<path fill="none" stroke="midnightblue" d="M342.08,-65.7044C317.018,-56.0454 282.369,-42.6913 255.865,-32.4765"/>
<polygon fill="midnightblue" stroke="midnightblue" points="340.922,-69.0091 351.512,-69.3396 343.439,-62.4774 340.922,-69.0091"/>
</g>
<!-- Node4 -->
<g id="node4" class="node"><title>Node4</title>
<g id="a_node4"><a xlink:href="_d_b_column_definition_8m.html" target="_top" xlink:title="Source/DBColumnDefinition.m">
<polygon fill="none" stroke="black" points="298.29,-6.46497 298.29,-26.3949 451.36,-26.3949 451.36,-6.46497 298.29,-6.46497"/>
<text text-anchor="middle" x="374.825" y="-14.3949" font-family="Helvetica Neue" font-size="10.00">Source/DBColumnDefinition.m</text>
</a>
</g>
</g>
<!-- Node1&#45;&gt;Node4 -->
<g id="edge3" class="edge"><title>Node1&#45;&gt;Node4</title>
<path fill="none" stroke="midnightblue" d="M374.825,-59.059C374.825,-48.1471 374.825,-35.0102 374.825,-26.452"/>
<polygon fill="midnightblue" stroke="midnightblue" points="371.325,-59.3395 374.825,-69.3396 378.325,-59.3396 371.325,-59.3395"/>
</g>
<!-- Node5 -->
<g id="node5" class="node"><title>Node5</title>
<g id="a_node5"><a xlink:href="_d_b_model_8m.html" target="_top" xlink:title="Source/DBModel.m">
<polygon fill="none" stroke="black" points="469.74,-6.46497 469.74,-26.3949 573.91,-26.3949 573.91,-6.46497 469.74,-6.46497"/>
<text text-anchor="middle" x="521.825" y="-14.3949" font-family="Helvetica Neue" font-size="10.00">Source/DBModel.m</text>
</a>
</g>
</g>
<!-- Node1&#45;&gt;Node5 -->
<g id="edge4" class="edge"><title>Node1&#45;&gt;Node5</title>
<path fill="none" stroke="midnightblue" d="M405.933,-65.4383C434.189,-53.7331 475.146,-36.7668 500.046,-26.452"/>
<polygon fill="midnightblue" stroke="midnightblue" points="404.415,-62.2788 396.515,-69.3396 407.094,-68.7459 404.415,-62.2788"/>
</g>
<!-- Node6 -->
<g id="node6" class="node"><title>Node6</title>
<g id="a_node6"><a xlink:href="_n_s_predicate_09_d_b_s_q_l_representable_8m.html" target="_top" xlink:title="Source/Utilities/NSPredicate\l+DBSQLRepresentable.m">
<polygon fill="none" stroke="black" points="592.22,-0.5 592.22,-32.3599 735.43,-32.3599 735.43,-0.5 592.22,-0.5"/>
<text text-anchor="start" x="600.22" y="-20.3599" font-family="Helvetica Neue" font-size="10.00">Source/Utilities/NSPredicate</text>
<text text-anchor="middle" x="663.825" y="-8.42993" font-family="Helvetica Neue" font-size="10.00">+DBSQLRepresentable.m</text>
</a>
</g>
</g>
<!-- Node1&#45;&gt;Node6 -->
<g id="edge5" class="edge"><title>Node1&#45;&gt;Node6</title>
<path fill="none" stroke="midnightblue" d="M427.298,-67.2684C473.606,-57.5108 541.511,-43.2026 592.697,-32.4173"/>
<polygon fill="midnightblue" stroke="midnightblue" points="426.531,-63.8529 417.468,-69.3396 427.975,-70.7025 426.531,-63.8529"/>
</g>
</g>
</svg>
        <g id="navigator" transform="translate(0 0)" fill="#404254">
                <rect fill="#f2f5e9" fill-opacity="0.5" stroke="#606060" stroke-width=".5" x="0" y="0" width="60" height="60"/>
                <use id="zoomplus" xlink:href="#zoomPlus" x="17" y="9" onmousedown="handleZoom(evt,'in')"/>
                <use id="zoomminus" xlink:href="#zoomMin" x="42" y="9" onmousedown="handleZoom(evt,'out')"/>
                <use id="reset" xlink:href="#resetDef" x="30" y="36" onmousedown="handleReset()"/>
                <g id="arrowUp" xlink:href="#dirArrow" transform="translate(30 24)" onmousedown="handlePan(0,-1)">
                  <use xlink:href="#rim" fill="#404040">
                        <set attributeName="fill" to="#808080" begin="arrowUp.mouseover" end="arrowUp.mouseout"/>
                  </use>
                  <path fill="none" stroke="white" stroke-width="1.5" d="M0,-3.0v7 M-2.5,-0.5L0,-3.0L2.5,-0.5"/>
                </g>
                <g id="arrowRight" xlink:href="#dirArrow" transform="rotate(90) translate(36 -43)" onmousedown="handlePan(1,0)">
                  <use xlink:href="#rim" fill="#404040">
                        <set attributeName="fill" to="#808080" begin="arrowRight.mouseover" end="arrowRight.mouseout"/>
                  </use>
                  <path fill="none" stroke="white" stroke-width="1.5" d="M0,-3.0v7 M-2.5,-0.5L0,-3.0L2.5,-0.5"/>
                </g>
                <g id="arrowDown" xlink:href="#dirArrow" transform="rotate(180) translate(-30 -48)" onmousedown="handlePan(0,1)">
                  <use xlink:href="#rim" fill="#404040">
                        <set attributeName="fill" to="#808080" begin="arrowDown.mouseover" end="arrowDown.mouseout"/>
                  </use>
                  <path fill="none" stroke="white" stroke-width="1.5" d="M0,-3.0v7 M-2.5,-0.5L0,-3.0L2.5,-0.5"/>
                </g>
                <g id="arrowLeft" xlink:href="#dirArrow" transform="rotate(270) translate(-36 17)" onmousedown="handlePan(-1,0)">
                  <use xlink:href="#rim" fill="#404040">
                        <set attributeName="fill" to="#808080" begin="arrowLeft.mouseover" end="arrowLeft.mouseout"/>
                  </use>
                  <path fill="none" stroke="white" stroke-width="1.5" d="M0,-3.0v7 M-2.5,-0.5L0,-3.0L2.5,-0.5"/>
                </g>
        </g>
        <svg viewBox="0 0 15 15" width="100%" height="30px" preserveAspectRatio="xMaxYMin meet">
         <g id="arrow_out" transform="scale(0.3 0.3)">
          <a xlink:href="_d_b_query_8h__dep__incl_org.svg" target="_base">
           <rect id="button" ry="5" rx="5" y="6" x="6" height="38" width="38"
                fill="#f2f5e9" fill-opacity="0.5" stroke="#606060" stroke-width="1.0"/>
           <path id="arrow"
             d="M 11.500037,31.436501 C 11.940474,20.09759 22.043105,11.32322 32.158766,21.979434 L 37.068811,17.246167 C 37.068811,17.246167 37.088388,32 37.088388,32 L 22.160133,31.978069 C 22.160133,31.978069 26.997745,27.140456 26.997745,27.140456 C 18.528582,18.264221 13.291696,25.230495 11.500037,31.436501 z"
             style="fill:#404040;"/>
          </a>
         </g>
        </svg>
</svg>
