<?xml version="1.0" encoding="UTF-8" standalone="no"?>
<!DOCTYPE svg PUBLIC "-//W3C//DTD SVG 1.1//EN"
 "http://www.w3.org/Graphics/SVG/1.1/DTD/svg11.dtd">
<!-- Generated by graphviz version 2.38.0 (20140413.2041)
 -->
<!-- Title: Source/Utilities/DBPointerCollectionAdditions.m Pages: 1 -->
<svg width="165pt" height="155pt"
 viewBox="0.00 0.00 165.12 154.72" xmlns="http://www.w3.org/2000/svg" xmlns:xlink="http://www.w3.org/1999/xlink">
<g id="graph0" class="graph" transform="scale(1 1) rotate(0) translate(4 150.72)">
<title>Source/Utilities/DBPointerCollectionAdditions.m</title>
<!-- Node1 -->
<g id="node1" class="node"><title>Node1</title>
<polygon fill="#bfbfbf" stroke="black" points="12.14,-114.36 12.14,-146.22 144.98,-146.22 144.98,-114.36 12.14,-114.36"/>
<text text-anchor="start" x="20.14" y="-134.22" font-family="Helvetica Neue" font-size="10.00">Source/Utilities/DBPointer</text>
<text text-anchor="middle" x="78.56" y="-122.29" font-family="Helvetica Neue" font-size="10.00">CollectionAdditions.m</text>
</g>
<!-- Node2 -->
<g id="node2" class="node"><title>Node2</title>
<g id="a_node2"><a xlink:href="_d_b_pointer_collection_additions_8h.html" target="_top" xlink:title="DBPointerCollectionAdditions.h">
<polygon fill="none" stroke="black" points="0,-57.4299 0,-77.3599 157.12,-77.3599 157.12,-57.4299 0,-57.4299"/>
<text text-anchor="middle" x="78.56" y="-65.3599" font-family="Helvetica Neue" font-size="10.00">DBPointerCollectionAdditions.h</text>
</a>
</g>
</g>
<!-- Node1&#45;&gt;Node2 -->
<g id="edge1" class="edge"><title>Node1&#45;&gt;Node2</title>
<path fill="none" stroke="midnightblue" d="M78.56,-114.237C78.56,-106.205 78.56,-96.2325 78.56,-87.6423"/>
<polygon fill="midnightblue" stroke="midnightblue" points="82.0601,-87.4252 78.56,-77.4252 75.0601,-87.4252 82.0601,-87.4252"/>
</g>
<!-- Node3 -->
<g id="node3" class="node"><title>Node3</title>
<polygon fill="none" stroke="#bfbfbf" points="14.155,-0.5 14.155,-20.4299 142.965,-20.4299 142.965,-0.5 14.155,-0.5"/>
<text text-anchor="middle" x="78.56" y="-8.42993" font-family="Helvetica Neue" font-size="10.00">Foundation/Foundation.h</text>
</g>
<!-- Node2&#45;&gt;Node3 -->
<g id="edge2" class="edge"><title>Node2&#45;&gt;Node3</title>
<path fill="none" stroke="midnightblue" d="M78.56,-57.3243C78.56,-50.132 78.56,-39.825 78.56,-30.8035"/>
<polygon fill="midnightblue" stroke="midnightblue" points="82.0601,-30.7326 78.56,-20.7326 75.0601,-30.7326 82.0601,-30.7326"/>
</g>
</g>
</svg>
