<?xml version="1.0" encoding="UTF-8" standalone="no"?>
<!DOCTYPE svg PUBLIC "-//W3C//DTD SVG 1.1//EN"
 "http://www.w3.org/Graphics/SVG/1.1/DTD/svg11.dtd">
<!-- Generated by graphviz version 2.38.0 (20140413.2041)
 -->
<!-- Title: Source/DBTable.m Pages: 1 -->
<!--zoomable 143 -->
<svg id="main" version="1.1" xmlns="http://www.w3.org/2000/svg" xmlns:xlink="http://www.w3.org/1999/xlink" xml:space="preserve" onload="init(evt)">
<style type="text/css"><![CDATA[
.edge:hover path { stroke: red; }
.edge:hover polygon { stroke: red; fill: red; }
]]></style>
<script type="text/javascript"><![CDATA[
var edges = document.getElementsByTagName('g');
if (edges && edges.length) {
  for (var i=0;i<edges.length;i++) {
    if (edges[i].id.substr(0,4)=='edge') {
      edges[i].setAttribute('class','edge');
    }
  }
}
]]></script>
        <defs>
                <circle id="rim" cx="0" cy="0" r="7"/>
                <circle id="rim2" cx="0" cy="0" r="3.5"/>
                <g id="zoomPlus">
                        <use xlink:href="#rim" fill="#404040">
                                <set attributeName="fill" to="#808080" begin="zoomplus.mouseover" end="zoomplus.mouseout"/>
                        </use>
                        <path d="M-4,0h8M0,-4v8" fill="none" stroke="white" stroke-width="1.5" pointer-events="none"/>
                </g>
                <g id="zoomMin">
                        <use xlink:href="#rim" fill="#404040">
                                <set attributeName="fill" to="#808080" begin="zoomminus.mouseover" end="zoomminus.mouseout"/>
                        </use>
                        <path d="M-4,0h8" fill="none" stroke="white" stroke-width="1.5" pointer-events="none"/>
                </g>
                <g id="dirArrow">
                        <path fill="none" stroke="white" stroke-width="1.5" d="M0,-3.0v7 M-2.5,-0.5L0,-3.0L2.5,-0.5"/>
                </g>
               <g id="resetDef">
                       <use xlink:href="#rim2" fill="#404040">
                               <set attributeName="fill" to="#808080" begin="reset.mouseover" end="reset.mouseout"/>
                       </use>
               </g>
        </defs>

<script type="text/javascript">
var viewWidth = 1379;
var viewHeight = 143;
var sectionId = 'dynsection-0';
</script>
<script xlink:href="svgpan.js"/>
<svg id="graph" class="graph">
<g id="viewport">
<title>Source/DBTable.m</title>
<!-- Node1 -->
<g id="node1" class="node"><title>Node1</title>
<polygon fill="#bfbfbf" stroke="black" points="721.675,-114.36 721.675,-134.29 821.395,-134.29 821.395,-114.36 721.675,-114.36"/>
<text text-anchor="middle" x="771.535" y="-122.29" font-family="Helvetica Neue" font-size="10.00">Source/DBTable.m</text>
</g>
<!-- Node2 -->
<g id="node2" class="node"><title>Node2</title>
<g id="a_node2"><a xlink:href="_d_b_table_8h.html" target="_top" xlink:title="DBTable.h">
<polygon fill="none" stroke="black" points="235.66,-57.4299 235.66,-77.3599 297.41,-77.3599 297.41,-57.4299 235.66,-57.4299"/>
<text text-anchor="middle" x="266.535" y="-65.3599" font-family="Helvetica Neue" font-size="10.00">DBTable.h</text>
</a>
</g>
</g>
<!-- Node1&#45;&gt;Node2 -->
<g id="edge1" class="edge"><title>Node1&#45;&gt;Node2</title>
<path fill="none" stroke="midnightblue" d="M721.599,-120.455C636.443,-115.107 457.848,-101.92 308.535,-77.8599 308.203,-77.8064 307.87,-77.7518 307.535,-77.6963"/>
<polygon fill="midnightblue" stroke="midnightblue" points="308.116,-74.2443 297.644,-75.856 306.835,-81.1262 308.116,-74.2443"/>
</g>
<!-- Node6 -->
<g id="node6" class="node"><title>Node6</title>
<g id="a_node6"><a xlink:href="_d_b_8h.html" target="_top" xlink:title="DB.h">
<polygon fill="none" stroke="black" points="401.42,-57.4299 401.42,-77.3599 439.65,-77.3599 439.65,-57.4299 401.42,-57.4299"/>
<text text-anchor="middle" x="420.535" y="-65.3599" font-family="Helvetica Neue" font-size="10.00">DB.h</text>
</a>
</g>
</g>
<!-- Node1&#45;&gt;Node6 -->
<g id="edge5" class="edge"><title>Node1&#45;&gt;Node6</title>
<path fill="none" stroke="midnightblue" d="M721.475,-119.191C659.523,-113.434 550.785,-101.233 449.458,-77.7024"/>
<polygon fill="midnightblue" stroke="midnightblue" points="450.215,-74.2848 439.678,-75.3897 448.604,-81.0969 450.215,-74.2848"/>
</g>
<!-- Node7 -->
<g id="node7" class="node"><title>Node7</title>
<g id="a_node7"><a xlink:href="_d_b_model_8h.html" target="_top" xlink:title="DBModel.h">
<polygon fill="none" stroke="black" points="317.435,-57.4299 317.435,-77.3599 383.635,-77.3599 383.635,-57.4299 317.435,-57.4299"/>
<text text-anchor="middle" x="350.535" y="-65.3599" font-family="Helvetica Neue" font-size="10.00">DBModel.h</text>
</a>
</g>
</g>
<!-- Node1&#45;&gt;Node7 -->
<g id="edge7" class="edge"><title>Node1&#45;&gt;Node7</title>
<path fill="none" stroke="midnightblue" d="M721.635,-118.979C650.848,-112.454 517.058,-98.7914 393.923,-77.9561"/>
<polygon fill="midnightblue" stroke="midnightblue" points="394.391,-74.4854 383.944,-76.2476 393.21,-81.385 394.391,-74.4854"/>
</g>
<!-- Node8 -->
<g id="node8" class="node"><title>Node8</title>
<g id="a_node8"><a xlink:href="_d_b_select_query_8h.html" target="_top" xlink:title="DBSelectQuery.h">
<polygon fill="none" stroke="black" points="971.38,-57.4299 971.38,-77.3599 1063.69,-77.3599 1063.69,-57.4299 971.38,-57.4299"/>
<text text-anchor="middle" x="1017.54" y="-65.3599" font-family="Helvetica Neue" font-size="10.00">DBSelectQuery.h</text>
</a>
</g>
</g>
<!-- Node1&#45;&gt;Node8 -->
<g id="edge9" class="edge"><title>Node1&#45;&gt;Node8</title>
<path fill="none" stroke="midnightblue" d="M811.881,-114.316C854.334,-104.836 921.235,-89.898 967.133,-79.6493"/>
<polygon fill="midnightblue" stroke="midnightblue" points="968.17,-83.0041 977.167,-77.4089 966.644,-76.1723 968.17,-83.0041"/>
</g>
<!-- Node10 -->
<g id="node10" class="node"><title>Node10</title>
<g id="a_node10"><a xlink:href="_d_b_insert_query_8h.html" target="_top" xlink:title="DBInsertQuery.h">
<polygon fill="none" stroke="black" points="1081.86,-57.4299 1081.86,-77.3599 1171.21,-77.3599 1171.21,-57.4299 1081.86,-57.4299"/>
<text text-anchor="middle" x="1126.54" y="-65.3599" font-family="Helvetica Neue" font-size="10.00">DBInsertQuery.h</text>
</a>
</g>
</g>
<!-- Node1&#45;&gt;Node10 -->
<g id="edge11" class="edge"><title>Node1&#45;&gt;Node10</title>
<path fill="none" stroke="midnightblue" d="M821.655,-116.124C879.399,-107.745 977.398,-93.2726 1071.76,-77.9559"/>
<polygon fill="midnightblue" stroke="midnightblue" points="1072.45,-81.3889 1081.76,-76.3268 1071.33,-74.4799 1072.45,-81.3889"/>
</g>
<!-- Node11 -->
<g id="node11" class="node"><title>Node11</title>
<g id="a_node11"><a xlink:href="_d_b_delete_query_8h.html" target="_top" xlink:title="DBDeleteQuery.h">
<polygon fill="none" stroke="black" points="1189.1,-57.4299 1189.1,-77.3599 1281.97,-77.3599 1281.97,-57.4299 1189.1,-57.4299"/>
<text text-anchor="middle" x="1235.54" y="-65.3599" font-family="Helvetica Neue" font-size="10.00">DBDeleteQuery.h</text>
</a>
</g>
</g>
<!-- Node1&#45;&gt;Node11 -->
<g id="edge13" class="edge"><title>Node1&#45;&gt;Node11</title>
<path fill="none" stroke="midnightblue" d="M821.711,-118.721C897.077,-111.592 1044.2,-96.8449 1178.96,-78.0157"/>
<polygon fill="midnightblue" stroke="midnightblue" points="1179.64,-81.4548 1189.05,-76.5944 1178.66,-74.5232 1179.64,-81.4548"/>
</g>
<!-- Node12 -->
<g id="node12" class="node"><title>Node12</title>
<g id="a_node12"><a xlink:href="_d_b_alter_table_query_8h.html" target="_top" xlink:title="DBAlterTableQuery.h">
<polygon fill="none" stroke="black" points="717.325,-57.4299 717.325,-77.3599 825.745,-77.3599 825.745,-57.4299 717.325,-57.4299"/>
<text text-anchor="middle" x="771.535" y="-65.3599" font-family="Helvetica Neue" font-size="10.00">DBAlterTableQuery.h</text>
</a>
</g>
</g>
<!-- Node1&#45;&gt;Node12 -->
<g id="edge15" class="edge"><title>Node1&#45;&gt;Node12</title>
<path fill="none" stroke="midnightblue" d="M771.535,-114.254C771.535,-107.062 771.535,-96.7549 771.535,-87.7334"/>
<polygon fill="midnightblue" stroke="midnightblue" points="775.035,-87.6625 771.535,-77.6625 768.035,-87.6626 775.035,-87.6625"/>
</g>
<!-- Node13 -->
<g id="node13" class="node"><title>Node13</title>
<g id="a_node13"><a xlink:href="_d_b_drop_table_query_8h.html" target="_top" xlink:title="DBDropTableQuery.h">
<polygon fill="none" stroke="black" points="843.67,-57.4299 843.67,-77.3599 953.4,-77.3599 953.4,-57.4299 843.67,-57.4299"/>
<text text-anchor="middle" x="898.535" y="-65.3599" font-family="Helvetica Neue" font-size="10.00">DBDropTableQuery.h</text>
</a>
</g>
</g>
<!-- Node1&#45;&gt;Node13 -->
<g id="edge17" class="edge"><title>Node1&#45;&gt;Node13</title>
<path fill="none" stroke="midnightblue" d="M792.506,-114.254C813.096,-105.349 844.726,-91.6683 868.084,-81.5654"/>
<polygon fill="midnightblue" stroke="midnightblue" points="869.744,-84.6612 877.532,-77.4789 866.965,-78.2364 869.744,-84.6612"/>
</g>
<!-- Node14 -->
<g id="node14" class="node"><title>Node14</title>
<g id="a_node14"><a xlink:href="_n_s_string_09_d_b_additions_8h.html" target="_top" xlink:title="NSString+DBAdditions.h">
<polygon fill="none" stroke="black" points="457.215,-57.4299 457.215,-77.3599 583.855,-77.3599 583.855,-57.4299 457.215,-57.4299"/>
<text text-anchor="middle" x="520.535" y="-65.3599" font-family="Helvetica Neue" font-size="10.00">NSString+DBAdditions.h</text>
</a>
</g>
</g>
<!-- Node1&#45;&gt;Node14 -->
<g id="edge19" class="edge"><title>Node1&#45;&gt;Node14</title>
<path fill="none" stroke="midnightblue" d="M730.369,-114.316C686.962,-104.817 618.505,-89.8352 571.667,-79.5848"/>
<polygon fill="midnightblue" stroke="midnightblue" points="572.241,-76.1277 561.724,-77.4089 570.744,-82.9659 572.241,-76.1277"/>
</g>
<!-- Node16 -->
<g id="node16" class="node"><title>Node16</title>
<g id="a_node16"><a xlink:href="_d_b_introspection_8h.html" target="_top" xlink:title="DBIntrospection.h">
<polygon fill="none" stroke="black" points="602.155,-57.4299 602.155,-77.3599 698.915,-77.3599 698.915,-57.4299 602.155,-57.4299"/>
<text text-anchor="middle" x="650.535" y="-65.3599" font-family="Helvetica Neue" font-size="10.00">DBIntrospection.h</text>
</a>
</g>
</g>
<!-- Node1&#45;&gt;Node16 -->
<g id="edge22" class="edge"><title>Node1&#45;&gt;Node16</title>
<path fill="none" stroke="midnightblue" d="M751.554,-114.254C732.025,-105.389 702.071,-91.7903 679.845,-81.7009"/>
<polygon fill="midnightblue" stroke="midnightblue" points="681.098,-78.4257 670.545,-77.4789 678.204,-84.7996 681.098,-78.4257"/>
</g>
<!-- Node18 -->
<g id="node18" class="node"><title>Node18</title>
<g id="a_node18"><a xlink:href="_d_b_utilities_8h.html" target="_top" xlink:title="DBUtilities.h">
<polygon fill="none" stroke="black" points="1300.04,-57.4299 1300.04,-77.3599 1371.04,-77.3599 1371.04,-57.4299 1300.04,-57.4299"/>
<text text-anchor="middle" x="1335.54" y="-65.3599" font-family="Helvetica Neue" font-size="10.00">DBUtilities.h</text>
</a>
</g>
</g>
<!-- Node1&#45;&gt;Node18 -->
<g id="edge25" class="edge"><title>Node1&#45;&gt;Node18</title>
<path fill="none" stroke="midnightblue" d="M821.507,-120.945C912.594,-116.172 1111.85,-103.729 1289.68,-77.8116"/>
<polygon fill="midnightblue" stroke="midnightblue" points="1290.36,-81.2493 1299.74,-76.3272 1289.34,-74.3243 1290.36,-81.2493"/>
</g>
<!-- Node3 -->
<g id="node3" class="node"><title>Node3</title>
<polygon fill="none" stroke="#bfbfbf" points="190.69,-0.5 190.69,-20.4299 338.38,-20.4299 338.38,-0.5 190.69,-0.5"/>
<text text-anchor="middle" x="264.535" y="-8.42993" font-family="Helvetica Neue" font-size="10.00">DatabaseKit/DBConnection.h</text>
</g>
<!-- Node2&#45;&gt;Node3 -->
<g id="edge2" class="edge"><title>Node2&#45;&gt;Node3</title>
<path fill="none" stroke="midnightblue" d="M266.205,-57.3243C265.943,-50.132 265.568,-39.825 265.239,-30.8035"/>
<polygon fill="midnightblue" stroke="midnightblue" points="268.734,-30.5986 264.872,-20.7326 261.739,-30.8534 268.734,-30.5986"/>
</g>
<!-- Node4 -->
<g id="node4" class="node"><title>Node4</title>
<polygon fill="none" stroke="#bfbfbf" points="8.52651e-14,-0.5 8.52651e-14,-20.4299 173.07,-20.4299 173.07,-0.5 8.52651e-14,-0.5"/>
<text text-anchor="middle" x="86.535" y="-8.42993" font-family="Helvetica Neue" font-size="10.00">DatabaseKit/DBColumnDefinition.h</text>
</g>
<!-- Node2&#45;&gt;Node4 -->
<g id="edge3" class="edge"><title>Node2&#45;&gt;Node4</title>
<path fill="none" stroke="midnightblue" d="M236.812,-57.3243C206.497,-48.0732 159.296,-33.6691 125.893,-23.4756"/>
<polygon fill="midnightblue" stroke="midnightblue" points="126.589,-20.029 116.003,-20.4577 124.546,-26.7241 126.589,-20.029"/>
</g>
<!-- Node5 -->
<g id="node5" class="node"><title>Node5</title>
<polygon fill="none" stroke="#bfbfbf" points="356.13,-0.5 356.13,-20.4299 484.94,-20.4299 484.94,-0.5 356.13,-0.5"/>
<text text-anchor="middle" x="420.535" y="-8.42993" font-family="Helvetica Neue" font-size="10.00">Foundation/Foundation.h</text>
</g>
<!-- Node2&#45;&gt;Node5 -->
<g id="edge4" class="edge"><title>Node2&#45;&gt;Node5</title>
<path fill="none" stroke="midnightblue" d="M291.965,-57.3243C317.566,-48.1929 357.242,-34.0408 385.748,-23.8732"/>
<polygon fill="midnightblue" stroke="midnightblue" points="387.08,-27.1139 395.323,-20.4577 384.729,-20.5208 387.08,-27.1139"/>
</g>
<!-- Node6&#45;&gt;Node5 -->
<g id="edge6" class="edge"><title>Node6&#45;&gt;Node5</title>
<path fill="none" stroke="midnightblue" d="M420.535,-57.3243C420.535,-50.132 420.535,-39.825 420.535,-30.8035"/>
<polygon fill="midnightblue" stroke="midnightblue" points="424.035,-30.7326 420.535,-20.7326 417.035,-30.7326 424.035,-30.7326"/>
</g>
<!-- Node7&#45;&gt;Node5 -->
<g id="edge8" class="edge"><title>Node7&#45;&gt;Node5</title>
<path fill="none" stroke="midnightblue" d="M362.094,-57.3243C372.569,-49.1045 388.228,-36.8165 400.701,-27.0287"/>
<polygon fill="midnightblue" stroke="midnightblue" points="403.018,-29.6594 408.725,-20.7326 398.697,-24.1525 403.018,-29.6594"/>
</g>
<!-- Node9 -->
<g id="node9" class="node"><title>Node9</title>
<polygon fill="none" stroke="#bfbfbf" points="956.375,-0.5 956.375,-20.4299 1078.7,-20.4299 1078.7,-0.5 956.375,-0.5"/>
<text text-anchor="middle" x="1017.54" y="-8.42993" font-family="Helvetica Neue" font-size="10.00">DatabaseKit/DBQuery.h</text>
</g>
<!-- Node8&#45;&gt;Node9 -->
<g id="edge10" class="edge"><title>Node8&#45;&gt;Node9</title>
<path fill="none" stroke="midnightblue" d="M1017.54,-57.3243C1017.54,-50.132 1017.54,-39.825 1017.54,-30.8035"/>
<polygon fill="midnightblue" stroke="midnightblue" points="1021.04,-30.7326 1017.54,-20.7326 1014.04,-30.7326 1021.04,-30.7326"/>
</g>
<!-- Node10&#45;&gt;Node9 -->
<g id="edge12" class="edge"><title>Node10&#45;&gt;Node9</title>
<path fill="none" stroke="midnightblue" d="M1108.54,-57.3243C1091.18,-48.5779 1064.68,-35.2254 1044.75,-25.18"/>
<polygon fill="midnightblue" stroke="midnightblue" points="1046.07,-21.9238 1035.56,-20.549 1042.92,-28.1749 1046.07,-21.9238"/>
</g>
<!-- Node11&#45;&gt;Node9 -->
<g id="edge14" class="edge"><title>Node11&#45;&gt;Node9</title>
<path fill="none" stroke="midnightblue" d="M1199.54,-57.3243C1162.19,-47.9137 1103.68,-33.1709 1063.12,-22.9522"/>
<polygon fill="midnightblue" stroke="midnightblue" points="1063.78,-19.5072 1053.22,-20.4577 1062.07,-26.295 1063.78,-19.5072"/>
</g>
<!-- Node12&#45;&gt;Node9 -->
<g id="edge16" class="edge"><title>Node12&#45;&gt;Node9</title>
<path fill="none" stroke="midnightblue" d="M811.881,-57.3858C854.334,-47.9065 921.235,-32.968 967.133,-22.7194"/>
<polygon fill="midnightblue" stroke="midnightblue" points="968.17,-26.0741 977.167,-20.4789 966.644,-19.2424 968.17,-26.0741"/>
</g>
<!-- Node13&#45;&gt;Node9 -->
<g id="edge18" class="edge"><title>Node13&#45;&gt;Node9</title>
<path fill="none" stroke="midnightblue" d="M918.185,-57.3243C937.392,-48.4587 966.851,-34.8604 988.709,-24.7709"/>
<polygon fill="midnightblue" stroke="midnightblue" points="990.243,-27.9179 997.855,-20.549 987.309,-21.5623 990.243,-27.9179"/>
</g>
<!-- Node14&#45;&gt;Node5 -->
<g id="edge21" class="edge"><title>Node14&#45;&gt;Node5</title>
<path fill="none" stroke="midnightblue" d="M504.022,-57.3243C488.244,-48.6574 464.232,-35.4678 446.004,-25.4548"/>
<polygon fill="midnightblue" stroke="midnightblue" points="447.522,-22.2959 437.072,-20.549 444.152,-28.4312 447.522,-22.2959"/>
</g>
<!-- Node15 -->
<g id="node15" class="node"><title>Node15</title>
<polygon fill="none" stroke="#bfbfbf" points="503.295,-0.5 503.295,-20.4299 683.775,-20.4299 683.775,-0.5 503.295,-0.5"/>
<text text-anchor="middle" x="593.535" y="-8.42993" font-family="Helvetica Neue" font-size="10.00">DatabaseKit/DBSQLRepresentable.h</text>
</g>
<!-- Node14&#45;&gt;Node15 -->
<g id="edge20" class="edge"><title>Node14&#45;&gt;Node15</title>
<path fill="none" stroke="midnightblue" d="M532.589,-57.3243C543.618,-49.0255 560.158,-36.5798 573.226,-26.747"/>
<polygon fill="midnightblue" stroke="midnightblue" points="575.332,-29.5419 581.219,-20.7326 571.124,-23.9485 575.332,-29.5419"/>
</g>
<!-- Node16&#45;&gt;Node5 -->
<g id="edge23" class="edge"><title>Node16&#45;&gt;Node5</title>
<path fill="none" stroke="midnightblue" d="M612.813,-57.3858C573.288,-47.9464 511.097,-33.0935 468.201,-22.8488"/>
<polygon fill="midnightblue" stroke="midnightblue" points="468.817,-19.3977 458.278,-20.4789 467.191,-26.2062 468.817,-19.3977"/>
</g>
<!-- Node17 -->
<g id="node17" class="node"><title>Node17</title>
<polygon fill="none" stroke="#bfbfbf" points="702.21,-0.5 702.21,-20.4299 782.86,-20.4299 782.86,-0.5 702.21,-0.5"/>
<text text-anchor="middle" x="742.535" y="-8.42993" font-family="Helvetica Neue" font-size="10.00">objc/runtime.h</text>
</g>
<!-- Node16&#45;&gt;Node17 -->
<g id="edge24" class="edge"><title>Node16&#45;&gt;Node17</title>
<path fill="none" stroke="midnightblue" d="M665.727,-57.3243C680.11,-48.737 701.929,-35.7094 718.641,-25.7312"/>
<polygon fill="midnightblue" stroke="midnightblue" points="720.529,-28.6806 727.321,-20.549 716.94,-22.6703 720.529,-28.6806"/>
</g>
<!-- Node19 -->
<g id="node19" class="node"><title>Node19</title>
<polygon fill="none" stroke="#bfbfbf" points="1309.65,-0.5 1309.65,-20.4299 1361.42,-20.4299 1361.42,-0.5 1309.65,-0.5"/>
<text text-anchor="middle" x="1335.54" y="-8.42993" font-family="Helvetica Neue" font-size="10.00">unistd.h</text>
</g>
<!-- Node18&#45;&gt;Node19 -->
<g id="edge26" class="edge"><title>Node18&#45;&gt;Node19</title>
<path fill="none" stroke="midnightblue" d="M1335.54,-57.3243C1335.54,-50.132 1335.54,-39.825 1335.54,-30.8035"/>
<polygon fill="midnightblue" stroke="midnightblue" points="1339.04,-30.7326 1335.54,-20.7326 1332.04,-30.7326 1339.04,-30.7326"/>
</g>
</g>
</svg>
        <g id="navigator" transform="translate(0 0)" fill="#404254">
                <rect fill="#f2f5e9" fill-opacity="0.5" stroke="#606060" stroke-width=".5" x="0" y="0" width="60" height="60"/>
                <use id="zoomplus" xlink:href="#zoomPlus" x="17" y="9" onmousedown="handleZoom(evt,'in')"/>
                <use id="zoomminus" xlink:href="#zoomMin" x="42" y="9" onmousedown="handleZoom(evt,'out')"/>
                <use id="reset" xlink:href="#resetDef" x="30" y="36" onmousedown="handleReset()"/>
                <g id="arrowUp" xlink:href="#dirArrow" transform="translate(30 24)" onmousedown="handlePan(0,-1)">
                  <use xlink:href="#rim" fill="#404040">
                        <set attributeName="fill" to="#808080" begin="arrowUp.mouseover" end="arrowUp.mouseout"/>
                  </use>
                  <path fill="none" stroke="white" stroke-width="1.5" d="M0,-3.0v7 M-2.5,-0.5L0,-3.0L2.5,-0.5"/>
                </g>
                <g id="arrowRight" xlink:href="#dirArrow" transform="rotate(90) translate(36 -43)" onmousedown="handlePan(1,0)">
                  <use xlink:href="#rim" fill="#404040">
                        <set attributeName="fill" to="#808080" begin="arrowRight.mouseover" end="arrowRight.mouseout"/>
                  </use>
                  <path fill="none" stroke="white" stroke-width="1.5" d="M0,-3.0v7 M-2.5,-0.5L0,-3.0L2.5,-0.5"/>
                </g>
                <g id="arrowDown" xlink:href="#dirArrow" transform="rotate(180) translate(-30 -48)" onmousedown="handlePan(0,1)">
                  <use xlink:href="#rim" fill="#404040">
                        <set attributeName="fill" to="#808080" begin="arrowDown.mouseover" end="arrowDown.mouseout"/>
                  </use>
                  <path fill="none" stroke="white" stroke-width="1.5" d="M0,-3.0v7 M-2.5,-0.5L0,-3.0L2.5,-0.5"/>
                </g>
                <g id="arrowLeft" xlink:href="#dirArrow" transform="rotate(270) translate(-36 17)" onmousedown="handlePan(-1,0)">
                  <use xlink:href="#rim" fill="#404040">
                        <set attributeName="fill" to="#808080" begin="arrowLeft.mouseover" end="arrowLeft.mouseout"/>
                  </use>
                  <path fill="none" stroke="white" stroke-width="1.5" d="M0,-3.0v7 M-2.5,-0.5L0,-3.0L2.5,-0.5"/>
                </g>
        </g>
        <svg viewBox="0 0 15 15" width="100%" height="30px" preserveAspectRatio="xMaxYMin meet">
         <g id="arrow_out" transform="scale(0.3 0.3)">
          <a xlink:href="_d_b_table_8m__incl_org.svg" target="_base">
           <rect id="button" ry="5" rx="5" y="6" x="6" height="38" width="38"
                fill="#f2f5e9" fill-opacity="0.5" stroke="#606060" stroke-width="1.0"/>
           <path id="arrow"
             d="M 11.500037,31.436501 C 11.940474,20.09759 22.043105,11.32322 32.158766,21.979434 L 37.068811,17.246167 C 37.068811,17.246167 37.088388,32 37.088388,32 L 22.160133,31.978069 C 22.160133,31.978069 26.997745,27.140456 26.997745,27.140456 C 18.528582,18.264221 13.291696,25.230495 11.500037,31.436501 z"
             style="fill:#404040;"/>
          </a>
         </g>
        </svg>
</svg>
