<?xml version="1.0" encoding="UTF-8" standalone="no"?>
<!DOCTYPE svg PUBLIC "-//W3C//DTD SVG 1.1//EN"
 "http://www.w3.org/Graphics/SVG/1.1/DTD/svg11.dtd">
<!-- Generated by graphviz version 2.38.0 (20140413.2041)
 -->
<!-- Title: Source/DBColumnDefinition.m Pages: 1 -->
<!--zoomable 143 -->
<svg id="main" version="1.1" xmlns="http://www.w3.org/2000/svg" xmlns:xlink="http://www.w3.org/1999/xlink" xml:space="preserve" onload="init(evt)">
<style type="text/css"><![CDATA[
.edge:hover path { stroke: red; }
.edge:hover polygon { stroke: red; fill: red; }
]]></style>
<script type="text/javascript"><![CDATA[
var edges = document.getElementsByTagName('g');
if (edges && edges.length) {
  for (var i=0;i<edges.length;i++) {
    if (edges[i].id.substr(0,4)=='edge') {
      edges[i].setAttribute('class','edge');
    }
  }
}
]]></script>
        <defs>
                <circle id="rim" cx="0" cy="0" r="7"/>
                <circle id="rim2" cx="0" cy="0" r="3.5"/>
                <g id="zoomPlus">
                        <use xlink:href="#rim" fill="#404040">
                                <set attributeName="fill" to="#808080" begin="zoomplus.mouseover" end="zoomplus.mouseout"/>
                        </use>
                        <path d="M-4,0h8M0,-4v8" fill="none" stroke="white" stroke-width="1.5" pointer-events="none"/>
                </g>
                <g id="zoomMin">
                        <use xlink:href="#rim" fill="#404040">
                                <set attributeName="fill" to="#808080" begin="zoomminus.mouseover" end="zoomminus.mouseout"/>
                        </use>
                        <path d="M-4,0h8" fill="none" stroke="white" stroke-width="1.5" pointer-events="none"/>
                </g>
                <g id="dirArrow">
                        <path fill="none" stroke="white" stroke-width="1.5" d="M0,-3.0v7 M-2.5,-0.5L0,-3.0L2.5,-0.5"/>
                </g>
               <g id="resetDef">
                       <use xlink:href="#rim2" fill="#404040">
                               <set attributeName="fill" to="#808080" begin="reset.mouseover" end="reset.mouseout"/>
                       </use>
               </g>
        </defs>

<script type="text/javascript">
var viewWidth = 570;
var viewHeight = 143;
var sectionId = 'dynsection-0';
</script>
<script xlink:href="svgpan.js"/>
<svg id="graph" class="graph">
<g id="viewport">
<title>Source/DBColumnDefinition.m</title>
<!-- Node1 -->
<g id="node1" class="node"><title>Node1</title>
<polygon fill="#bfbfbf" stroke="black" points="138.87,-114.36 138.87,-134.29 291.94,-134.29 291.94,-114.36 138.87,-114.36"/>
<text text-anchor="middle" x="215.405" y="-122.29" font-family="Helvetica Neue" font-size="10.00">Source/DBColumnDefinition.m</text>
</g>
<!-- Node2 -->
<g id="node2" class="node"><title>Node2</title>
<g id="a_node2"><a xlink:href="_d_b_column_definition_8h.html" target="_top" xlink:title="DBColumnDefinition.h">
<polygon fill="none" stroke="black" points="265.855,-57.4299 265.855,-77.3599 380.955,-77.3599 380.955,-57.4299 265.855,-57.4299"/>
<text text-anchor="middle" x="323.405" y="-65.3599" font-family="Helvetica Neue" font-size="10.00">DBColumnDefinition.h</text>
</a>
</g>
</g>
<!-- Node1&#45;&gt;Node2 -->
<g id="edge1" class="edge"><title>Node1&#45;&gt;Node2</title>
<path fill="none" stroke="midnightblue" d="M233.239,-114.254C250.436,-105.508 276.689,-92.1553 296.439,-82.11"/>
<polygon fill="midnightblue" stroke="midnightblue" points="298.218,-85.1321 305.545,-77.4789 295.044,-78.8927 298.218,-85.1321"/>
</g>
<!-- Node6 -->
<g id="node6" class="node"><title>Node6</title>
<g id="a_node6"><a xlink:href="_d_b_8h.html" target="_top" xlink:title="DB.h">
<polygon fill="none" stroke="black" points="127.29,-57.4299 127.29,-77.3599 165.52,-77.3599 165.52,-57.4299 127.29,-57.4299"/>
<text text-anchor="middle" x="146.405" y="-65.3599" font-family="Helvetica Neue" font-size="10.00">DB.h</text>
</a>
</g>
</g>
<!-- Node1&#45;&gt;Node6 -->
<g id="edge5" class="edge"><title>Node1&#45;&gt;Node6</title>
<path fill="none" stroke="midnightblue" d="M204.011,-114.254C193.686,-106.034 178.25,-93.7465 165.955,-83.9586"/>
<polygon fill="midnightblue" stroke="midnightblue" points="168.05,-81.1526 158.046,-77.6625 163.69,-86.6291 168.05,-81.1526"/>
</g>
<!-- Node7 -->
<g id="node7" class="node"><title>Node7</title>
<g id="a_node7"><a xlink:href="_d_b_connection_8h.html" target="_top" xlink:title="DBConnection.h">
<polygon fill="none" stroke="black" points="19.545,-57.4299 19.545,-77.3599 109.265,-77.3599 109.265,-57.4299 19.545,-57.4299"/>
<text text-anchor="middle" x="64.405" y="-65.3599" font-family="Helvetica Neue" font-size="10.00">DBConnection.h</text>
</a>
</g>
</g>
<!-- Node1&#45;&gt;Node7 -->
<g id="edge7" class="edge"><title>Node1&#45;&gt;Node7</title>
<path fill="none" stroke="midnightblue" d="M190.47,-114.254C165.478,-105.163 126.804,-91.0942 98.8814,-80.9365"/>
<polygon fill="midnightblue" stroke="midnightblue" points="99.7197,-77.5171 89.1256,-77.3876 97.3266,-84.0954 99.7197,-77.5171"/>
</g>
<!-- Node8 -->
<g id="node8" class="node"><title>Node8</title>
<g id="a_node8"><a xlink:href="_d_b_query_8h.html" target="_top" xlink:title="DBQuery.h">
<polygon fill="none" stroke="black" points="183.23,-57.4299 183.23,-77.3599 247.58,-77.3599 247.58,-57.4299 183.23,-57.4299"/>
<text text-anchor="middle" x="215.405" y="-65.3599" font-family="Helvetica Neue" font-size="10.00">DBQuery.h</text>
</a>
</g>
</g>
<!-- Node1&#45;&gt;Node8 -->
<g id="edge9" class="edge"><title>Node1&#45;&gt;Node8</title>
<path fill="none" stroke="midnightblue" d="M215.405,-114.254C215.405,-107.062 215.405,-96.7549 215.405,-87.7334"/>
<polygon fill="midnightblue" stroke="midnightblue" points="218.905,-87.6625 215.405,-77.6625 211.905,-87.6626 218.905,-87.6625"/>
</g>
<!-- Node9 -->
<g id="node9" class="node"><title>Node9</title>
<g id="a_node9"><a xlink:href="_d_b_utilities_8h.html" target="_top" xlink:title="DBUtilities.h">
<polygon fill="none" stroke="black" points="449.905,-57.4299 449.905,-77.3599 520.905,-77.3599 520.905,-57.4299 449.905,-57.4299"/>
<text text-anchor="middle" x="485.405" y="-65.3599" font-family="Helvetica Neue" font-size="10.00">DBUtilities.h</text>
</a>
</g>
</g>
<!-- Node1&#45;&gt;Node9 -->
<g id="edge13" class="edge"><title>Node1&#45;&gt;Node9</title>
<path fill="none" stroke="midnightblue" d="M259.688,-114.316C309.375,-104.207 389.576,-87.8907 439.798,-77.6734"/>
<polygon fill="midnightblue" stroke="midnightblue" points="440.63,-81.0759 449.731,-75.6525 439.234,-74.2165 440.63,-81.0759"/>
</g>
<!-- Node3 -->
<g id="node3" class="node"><title>Node3</title>
<polygon fill="none" stroke="#bfbfbf" points="-2.84217e-14,-0.5 -2.84217e-14,-20.4299 128.81,-20.4299 128.81,-0.5 -2.84217e-14,-0.5"/>
<text text-anchor="middle" x="64.405" y="-8.42993" font-family="Helvetica Neue" font-size="10.00">Foundation/Foundation.h</text>
</g>
<!-- Node2&#45;&gt;Node3 -->
<g id="edge2" class="edge"><title>Node2&#45;&gt;Node3</title>
<path fill="none" stroke="midnightblue" d="M280.926,-57.3858C236.043,-47.8667 165.202,-32.8424 116.863,-22.5905"/>
<polygon fill="midnightblue" stroke="midnightblue" points="117.415,-19.1299 106.907,-20.4789 115.963,-25.9776 117.415,-19.1299"/>
</g>
<!-- Node4 -->
<g id="node4" class="node"><title>Node4</title>
<polygon fill="none" stroke="#bfbfbf" points="146.56,-0.5 146.56,-20.4299 294.25,-20.4299 294.25,-0.5 146.56,-0.5"/>
<text text-anchor="middle" x="220.405" y="-8.42993" font-family="Helvetica Neue" font-size="10.00">DatabaseKit/DBConnection.h</text>
</g>
<!-- Node2&#45;&gt;Node4 -->
<g id="edge3" class="edge"><title>Node2&#45;&gt;Node4</title>
<path fill="none" stroke="midnightblue" d="M306.397,-57.3243C290.071,-48.6177 265.186,-35.3467 246.38,-25.3172"/>
<polygon fill="midnightblue" stroke="midnightblue" points="247.909,-22.1664 237.439,-20.549 244.615,-28.343 247.909,-22.1664"/>
</g>
<!-- Node5 -->
<g id="node5" class="node"><title>Node5</title>
<polygon fill="none" stroke="#bfbfbf" points="312.165,-0.5 312.165,-20.4299 492.645,-20.4299 492.645,-0.5 312.165,-0.5"/>
<text text-anchor="middle" x="402.405" y="-8.42993" font-family="Helvetica Neue" font-size="10.00">DatabaseKit/DBSQLRepresentable.h</text>
</g>
<!-- Node2&#45;&gt;Node5 -->
<g id="edge4" class="edge"><title>Node2&#45;&gt;Node5</title>
<path fill="none" stroke="midnightblue" d="M336.45,-57.3243C348.572,-48.896 366.845,-36.1904 381.086,-26.2886"/>
<polygon fill="midnightblue" stroke="midnightblue" points="383.128,-29.1315 389.34,-20.549 379.132,-23.3842 383.128,-29.1315"/>
</g>
<!-- Node6&#45;&gt;Node3 -->
<g id="edge6" class="edge"><title>Node6&#45;&gt;Node3</title>
<path fill="none" stroke="midnightblue" d="M132.864,-57.3243C120.282,-48.896 101.315,-36.1904 86.5339,-26.2886"/>
<polygon fill="midnightblue" stroke="midnightblue" points="88.2219,-23.2066 77.9657,-20.549 84.326,-29.0224 88.2219,-23.2066"/>
</g>
<!-- Node7&#45;&gt;Node3 -->
<g id="edge8" class="edge"><title>Node7&#45;&gt;Node3</title>
<path fill="none" stroke="midnightblue" d="M64.405,-57.3243C64.405,-50.132 64.405,-39.825 64.405,-30.8035"/>
<polygon fill="midnightblue" stroke="midnightblue" points="67.9051,-30.7326 64.405,-20.7326 60.9051,-30.7326 67.9051,-30.7326"/>
</g>
<!-- Node8&#45;&gt;Node3 -->
<g id="edge12" class="edge"><title>Node8&#45;&gt;Node3</title>
<path fill="none" stroke="midnightblue" d="M190.47,-57.3243C165.478,-48.2327 126.804,-34.1643 98.8814,-24.0066"/>
<polygon fill="midnightblue" stroke="midnightblue" points="99.7197,-20.5872 89.1256,-20.4577 97.3266,-27.1655 99.7197,-20.5872"/>
</g>
<!-- Node8&#45;&gt;Node4 -->
<g id="edge10" class="edge"><title>Node8&#45;&gt;Node4</title>
<path fill="none" stroke="midnightblue" d="M216.231,-57.3243C216.885,-50.132 217.824,-39.825 218.645,-30.8035"/>
<polygon fill="midnightblue" stroke="midnightblue" points="222.14,-31.0087 219.561,-20.7326 215.169,-30.3741 222.14,-31.0087"/>
</g>
<!-- Node8&#45;&gt;Node5 -->
<g id="edge11" class="edge"><title>Node8&#45;&gt;Node5</title>
<path fill="none" stroke="midnightblue" d="M246.284,-57.3243C277.914,-48.0334 327.238,-33.5448 361.965,-23.3441"/>
<polygon fill="midnightblue" stroke="midnightblue" points="363.183,-26.6343 371.791,-20.4577 361.21,-19.918 363.183,-26.6343"/>
</g>
<!-- Node10 -->
<g id="node10" class="node"><title>Node10</title>
<polygon fill="none" stroke="#bfbfbf" points="510.525,-0.5 510.525,-20.4299 562.285,-20.4299 562.285,-0.5 510.525,-0.5"/>
<text text-anchor="middle" x="536.405" y="-8.42993" font-family="Helvetica Neue" font-size="10.00">unistd.h</text>
</g>
<!-- Node9&#45;&gt;Node10 -->
<g id="edge14" class="edge"><title>Node9&#45;&gt;Node10</title>
<path fill="none" stroke="midnightblue" d="M493.827,-57.3243C501.165,-49.4207 511.995,-37.7557 520.896,-28.1688"/>
<polygon fill="midnightblue" stroke="midnightblue" points="523.561,-30.4424 527.8,-20.7326 518.431,-25.6796 523.561,-30.4424"/>
</g>
</g>
</svg>
        <g id="navigator" transform="translate(0 0)" fill="#404254">
                <rect fill="#f2f5e9" fill-opacity="0.5" stroke="#606060" stroke-width=".5" x="0" y="0" width="60" height="60"/>
                <use id="zoomplus" xlink:href="#zoomPlus" x="17" y="9" onmousedown="handleZoom(evt,'in')"/>
                <use id="zoomminus" xlink:href="#zoomMin" x="42" y="9" onmousedown="handleZoom(evt,'out')"/>
                <use id="reset" xlink:href="#resetDef" x="30" y="36" onmousedown="handleReset()"/>
                <g id="arrowUp" xlink:href="#dirArrow" transform="translate(30 24)" onmousedown="handlePan(0,-1)">
                  <use xlink:href="#rim" fill="#404040">
                        <set attributeName="fill" to="#808080" begin="arrowUp.mouseover" end="arrowUp.mouseout"/>
                  </use>
                  <path fill="none" stroke="white" stroke-width="1.5" d="M0,-3.0v7 M-2.5,-0.5L0,-3.0L2.5,-0.5"/>
                </g>
                <g id="arrowRight" xlink:href="#dirArrow" transform="rotate(90) translate(36 -43)" onmousedown="handlePan(1,0)">
                  <use xlink:href="#rim" fill="#404040">
                        <set attributeName="fill" to="#808080" begin="arrowRight.mouseover" end="arrowRight.mouseout"/>
                  </use>
                  <path fill="none" stroke="white" stroke-width="1.5" d="M0,-3.0v7 M-2.5,-0.5L0,-3.0L2.5,-0.5"/>
                </g>
                <g id="arrowDown" xlink:href="#dirArrow" transform="rotate(180) translate(-30 -48)" onmousedown="handlePan(0,1)">
                  <use xlink:href="#rim" fill="#404040">
                        <set attributeName="fill" to="#808080" begin="arrowDown.mouseover" end="arrowDown.mouseout"/>
                  </use>
                  <path fill="none" stroke="white" stroke-width="1.5" d="M0,-3.0v7 M-2.5,-0.5L0,-3.0L2.5,-0.5"/>
                </g>
                <g id="arrowLeft" xlink:href="#dirArrow" transform="rotate(270) translate(-36 17)" onmousedown="handlePan(-1,0)">
                  <use xlink:href="#rim" fill="#404040">
                        <set attributeName="fill" to="#808080" begin="arrowLeft.mouseover" end="arrowLeft.mouseout"/>
                  </use>
                  <path fill="none" stroke="white" stroke-width="1.5" d="M0,-3.0v7 M-2.5,-0.5L0,-3.0L2.5,-0.5"/>
                </g>
        </g>
        <svg viewBox="0 0 15 15" width="100%" height="30px" preserveAspectRatio="xMaxYMin meet">
         <g id="arrow_out" transform="scale(0.3 0.3)">
          <a xlink:href="_d_b_column_definition_8m__incl_org.svg" target="_base">
           <rect id="button" ry="5" rx="5" y="6" x="6" height="38" width="38"
                fill="#f2f5e9" fill-opacity="0.5" stroke="#606060" stroke-width="1.0"/>
           <path id="arrow"
             d="M 11.500037,31.436501 C 11.940474,20.09759 22.043105,11.32322 32.158766,21.979434 L 37.068811,17.246167 C 37.068811,17.246167 37.088388,32 37.088388,32 L 22.160133,31.978069 C 22.160133,31.978069 26.997745,27.140456 26.997745,27.140456 C 18.528582,18.264221 13.291696,25.230495 11.500037,31.436501 z"
             style="fill:#404040;"/>
          </a>
         </g>
        </svg>
</svg>
