<?xml version="1.0" encoding="UTF-8" standalone="no"?>
<!DOCTYPE svg PUBLIC "-//W3C//DTD SVG 1.1//EN"
 "http://www.w3.org/Graphics/SVG/1.1/DTD/svg11.dtd">
<!-- Generated by graphviz version 2.38.0 (20140413.2041)
 -->
<!-- Title: Source/Connections/DBConnection.h Pages: 1 -->
<svg width="560pt" height="110pt"
 viewBox="0.00 0.00 560.28 109.72" xmlns="http://www.w3.org/2000/svg" xmlns:xlink="http://www.w3.org/1999/xlink">
<g id="graph0" class="graph" transform="scale(1 1) rotate(0) translate(4 105.72)">
<title>Source/Connections/DBConnection.h</title>
<!-- Node1 -->
<g id="node1" class="node"><title>Node1</title>
<polygon fill="#bfbfbf" stroke="black" points="198,-69.3599 198,-101.22 305.49,-101.22 305.49,-69.3599 198,-69.3599"/>
<text text-anchor="start" x="206" y="-89.2197" font-family="Helvetica Neue" font-size="10.00">Source/Connections</text>
<text text-anchor="middle" x="251.745" y="-77.2898" font-family="Helvetica Neue" font-size="10.00">/DBConnection.h</text>
</g>
<!-- Node2 -->
<g id="node2" class="node"><title>Node2</title>
<g id="a_node2"><a xlink:href="_d_b_connection_8m.html" target="_top" xlink:title="Source/Connections\l/DBConnection.m">
<polygon fill="none" stroke="black" points="0,-0.5 0,-32.3599 107.49,-32.3599 107.49,-0.5 0,-0.5"/>
<text text-anchor="start" x="8" y="-20.3599" font-family="Helvetica Neue" font-size="10.00">Source/Connections</text>
<text text-anchor="middle" x="53.745" y="-8.42993" font-family="Helvetica Neue" font-size="10.00">/DBConnection.m</text>
</a>
</g>
</g>
<!-- Node1&#45;&gt;Node2 -->
<g id="edge1" class="edge"><title>Node1&#45;&gt;Node2</title>
<path fill="none" stroke="midnightblue" d="M197.449,-65.9554C166.198,-55.4028 127.425,-42.3098 98.0318,-32.3845"/>
<polygon fill="midnightblue" stroke="midnightblue" points="196.716,-69.4018 207.31,-69.2851 198.955,-62.7697 196.716,-69.4018"/>
</g>
<!-- Node3 -->
<g id="node3" class="node"><title>Node3</title>
<g id="a_node3"><a xlink:href="_d_b_connection_pool_8m.html" target="_top" xlink:title="Source/Connections\l/DBConnectionPool.m">
<polygon fill="none" stroke="black" points="125.645,-0.5 125.645,-32.3599 241.845,-32.3599 241.845,-0.5 125.645,-0.5"/>
<text text-anchor="start" x="133.645" y="-20.3599" font-family="Helvetica Neue" font-size="10.00">Source/Connections</text>
<text text-anchor="middle" x="183.745" y="-8.42993" font-family="Helvetica Neue" font-size="10.00">/DBConnectionPool.m</text>
</a>
</g>
</g>
<!-- Node1&#45;&gt;Node3 -->
<g id="edge2" class="edge"><title>Node1&#45;&gt;Node3</title>
<path fill="none" stroke="midnightblue" d="M229.124,-62.0477C219.268,-52.3576 207.971,-41.2499 199.114,-32.5414"/>
<polygon fill="midnightblue" stroke="midnightblue" points="226.73,-64.6029 236.315,-69.1183 231.638,-59.6115 226.73,-64.6029"/>
</g>
<!-- Node4 -->
<g id="node4" class="node"><title>Node4</title>
<g id="a_node4"><a xlink:href="_d_b_connection_proxy_8m.html" target="_top" xlink:title="Source/Connections\l/DBConnectionProxy.m">
<polygon fill="none" stroke="black" points="260.33,-0.5 260.33,-32.3599 381.16,-32.3599 381.16,-0.5 260.33,-0.5"/>
<text text-anchor="start" x="268.33" y="-20.3599" font-family="Helvetica Neue" font-size="10.00">Source/Connections</text>
<text text-anchor="middle" x="320.745" y="-8.42993" font-family="Helvetica Neue" font-size="10.00">/DBConnectionProxy.m</text>
</a>
</g>
</g>
<!-- Node1&#45;&gt;Node4 -->
<g id="edge3" class="edge"><title>Node1&#45;&gt;Node4</title>
<path fill="none" stroke="midnightblue" d="M274.699,-62.0477C284.699,-52.3576 296.163,-41.2499 305.15,-32.5414"/>
<polygon fill="midnightblue" stroke="midnightblue" points="272.148,-59.6459 267.402,-69.1183 277.019,-64.673 272.148,-59.6459"/>
</g>
<!-- Node5 -->
<g id="node5" class="node"><title>Node5</title>
<g id="a_node5"><a xlink:href="_d_b_column_definition_8m.html" target="_top" xlink:title="Source/DBColumnDefinition.m">
<polygon fill="none" stroke="black" points="399.21,-6.46497 399.21,-26.3949 552.28,-26.3949 552.28,-6.46497 399.21,-6.46497"/>
<text text-anchor="middle" x="475.745" y="-14.3949" font-family="Helvetica Neue" font-size="10.00">Source/DBColumnDefinition.m</text>
</a>
</g>
</g>
<!-- Node1&#45;&gt;Node5 -->
<g id="edge4" class="edge"><title>Node1&#45;&gt;Node5</title>
<path fill="none" stroke="midnightblue" d="M311.853,-66.3486C355.055,-53.4535 411.482,-36.6112 445.595,-26.429"/>
<polygon fill="midnightblue" stroke="midnightblue" points="310.596,-63.0711 302.015,-69.2851 312.598,-69.7787 310.596,-63.0711"/>
</g>
</g>
</svg>
