<?xml version="1.0" encoding="UTF-8" standalone="no"?>
<!DOCTYPE svg PUBLIC "-//W3C//DTD SVG 1.1//EN"
 "http://www.w3.org/Graphics/SVG/1.1/DTD/svg11.dtd">
<!-- Generated by graphviz version 2.38.0 (20140413.2041)
 -->
<!-- Title: Source/Utilities/DBOrderedDictionary.m Pages: 1 -->
<svg width="145pt" height="155pt"
 viewBox="0.00 0.00 145.49 154.72" xmlns="http://www.w3.org/2000/svg" xmlns:xlink="http://www.w3.org/1999/xlink">
<g id="graph0" class="graph" transform="scale(1 1) rotate(0) translate(4 150.72)">
<title>Source/Utilities/DBOrderedDictionary.m</title>
<!-- Node1 -->
<g id="node1" class="node"><title>Node1</title>
<polygon fill="#bfbfbf" stroke="black" points="0,-114.36 0,-146.22 137.49,-146.22 137.49,-114.36 0,-114.36"/>
<text text-anchor="start" x="8" y="-134.22" font-family="Helvetica Neue" font-size="10.00">Source/Utilities/DBOrdered</text>
<text text-anchor="middle" x="68.745" y="-122.29" font-family="Helvetica Neue" font-size="10.00">Dictionary.m</text>
</g>
<!-- Node2 -->
<g id="node2" class="node"><title>Node2</title>
<g id="a_node2"><a xlink:href="_d_b_ordered_dictionary_8h.html" target="_top" xlink:title="DBOrderedDictionary.h">
<polygon fill="none" stroke="black" points="9.25,-57.4299 9.25,-77.3599 128.24,-77.3599 128.24,-57.4299 9.25,-57.4299"/>
<text text-anchor="middle" x="68.745" y="-65.3599" font-family="Helvetica Neue" font-size="10.00">DBOrderedDictionary.h</text>
</a>
</g>
</g>
<!-- Node1&#45;&gt;Node2 -->
<g id="edge1" class="edge"><title>Node1&#45;&gt;Node2</title>
<path fill="none" stroke="midnightblue" d="M68.745,-114.237C68.745,-106.205 68.745,-96.2325 68.745,-87.6423"/>
<polygon fill="midnightblue" stroke="midnightblue" points="72.2451,-87.4252 68.745,-77.4252 65.2451,-87.4252 72.2451,-87.4252"/>
</g>
<!-- Node3 -->
<g id="node3" class="node"><title>Node3</title>
<polygon fill="none" stroke="#bfbfbf" points="4.34,-0.5 4.34,-20.4299 133.15,-20.4299 133.15,-0.5 4.34,-0.5"/>
<text text-anchor="middle" x="68.745" y="-8.42993" font-family="Helvetica Neue" font-size="10.00">Foundation/Foundation.h</text>
</g>
<!-- Node2&#45;&gt;Node3 -->
<g id="edge2" class="edge"><title>Node2&#45;&gt;Node3</title>
<path fill="none" stroke="midnightblue" d="M68.745,-57.3243C68.745,-50.132 68.745,-39.825 68.745,-30.8035"/>
<polygon fill="midnightblue" stroke="midnightblue" points="72.2451,-30.7326 68.745,-20.7326 65.2451,-30.7326 72.2451,-30.7326"/>
</g>
</g>
</svg>
