<?xml version="1.0" encoding="UTF-8" standalone="no"?>
<!DOCTYPE svg PUBLIC "-//W3C//DTD SVG 1.1//EN"
 "http://www.w3.org/Graphics/SVG/1.1/DTD/svg11.dtd">
<!-- Generated by graphviz version 2.38.0 (20140413.2041)
 -->
<!-- Title: Source/Utilities/DBInflector/DBInflector.m Pages: 1 -->
<!--zoomable 155 -->
<svg id="main" version="1.1" xmlns="http://www.w3.org/2000/svg" xmlns:xlink="http://www.w3.org/1999/xlink" xml:space="preserve" onload="init(evt)">
<style type="text/css"><![CDATA[
.edge:hover path { stroke: red; }
.edge:hover polygon { stroke: red; fill: red; }
]]></style>
<script type="text/javascript"><![CDATA[
var edges = document.getElementsByTagName('g');
if (edges && edges.length) {
  for (var i=0;i<edges.length;i++) {
    if (edges[i].id.substr(0,4)=='edge') {
      edges[i].setAttribute('class','edge');
    }
  }
}
]]></script>
        <defs>
                <circle id="rim" cx="0" cy="0" r="7"/>
                <circle id="rim2" cx="0" cy="0" r="3.5"/>
                <g id="zoomPlus">
                        <use xlink:href="#rim" fill="#404040">
                                <set attributeName="fill" to="#808080" begin="zoomplus.mouseover" end="zoomplus.mouseout"/>
                        </use>
                        <path d="M-4,0h8M0,-4v8" fill="none" stroke="white" stroke-width="1.5" pointer-events="none"/>
                </g>
                <g id="zoomMin">
                        <use xlink:href="#rim" fill="#404040">
                                <set attributeName="fill" to="#808080" begin="zoomminus.mouseover" end="zoomminus.mouseout"/>
                        </use>
                        <path d="M-4,0h8" fill="none" stroke="white" stroke-width="1.5" pointer-events="none"/>
                </g>
                <g id="dirArrow">
                        <path fill="none" stroke="white" stroke-width="1.5" d="M0,-3.0v7 M-2.5,-0.5L0,-3.0L2.5,-0.5"/>
                </g>
               <g id="resetDef">
                       <use xlink:href="#rim2" fill="#404040">
                               <set attributeName="fill" to="#808080" begin="reset.mouseover" end="reset.mouseout"/>
                       </use>
               </g>
        </defs>

<script type="text/javascript">
var viewWidth = 603;
var viewHeight = 155;
var sectionId = 'dynsection-0';
</script>
<script xlink:href="svgpan.js"/>
<svg id="graph" class="graph">
<g id="viewport">
<title>Source/Utilities/DBInflector/DBInflector.m</title>
<!-- Node1 -->
<g id="node1" class="node"><title>Node1</title>
<polygon fill="#bfbfbf" stroke="black" points="259.765,-114.36 259.765,-146.22 397.045,-146.22 397.045,-114.36 259.765,-114.36"/>
<text text-anchor="start" x="267.765" y="-134.22" font-family="Helvetica Neue" font-size="10.00">Source/Utilities/DBInflector</text>
<text text-anchor="middle" x="328.405" y="-122.29" font-family="Helvetica Neue" font-size="10.00">/DBInflector.m</text>
</g>
<!-- Node2 -->
<g id="node2" class="node"><title>Node2</title>
<g id="a_node2"><a xlink:href="_d_b_inflector_8h.html" target="_top" xlink:title="DBInflector.h">
<polygon fill="none" stroke="black" points="27.605,-57.4299 27.605,-77.3599 101.205,-77.3599 101.205,-57.4299 27.605,-57.4299"/>
<text text-anchor="middle" x="64.405" y="-65.3599" font-family="Helvetica Neue" font-size="10.00">DBInflector.h</text>
</a>
</g>
</g>
<!-- Node1&#45;&gt;Node2 -->
<g id="edge1" class="edge"><title>Node1&#45;&gt;Node2</title>
<path fill="none" stroke="midnightblue" d="M263.485,-114.315C216.277,-103.426 153.48,-88.9411 111.14,-79.175"/>
<polygon fill="midnightblue" stroke="midnightblue" points="111.901,-75.7587 101.37,-76.9214 110.328,-82.5796 111.901,-75.7587"/>
</g>
<!-- Node4 -->
<g id="node4" class="node"><title>Node4</title>
<polygon fill="none" stroke="#bfbfbf" points="119.04,-57.4299 119.04,-77.3599 223.77,-77.3599 223.77,-57.4299 119.04,-57.4299"/>
<text text-anchor="middle" x="171.405" y="-65.3599" font-family="Helvetica Neue" font-size="10.00">dispatch/dispatch.h</text>
</g>
<!-- Node1&#45;&gt;Node4 -->
<g id="edge3" class="edge"><title>Node1&#45;&gt;Node4</title>
<path fill="none" stroke="midnightblue" d="M289.596,-114.237C263.302,-104.039 228.946,-90.7132 204.057,-81.0596"/>
<polygon fill="midnightblue" stroke="midnightblue" points="205.276,-77.7783 194.687,-77.4252 202.745,-84.3046 205.276,-77.7783"/>
</g>
<!-- Node5 -->
<g id="node5" class="node"><title>Node5</title>
<g id="a_node5"><a xlink:href="irregulars_8inc.html" target="_top" xlink:title="irregulars.inc">
<polygon fill="none" stroke="black" points="241.795,-57.4299 241.795,-77.3599 315.015,-77.3599 315.015,-57.4299 241.795,-57.4299"/>
<text text-anchor="middle" x="278.405" y="-65.3599" font-family="Helvetica Neue" font-size="10.00">irregulars.inc</text>
</a>
</g>
</g>
<!-- Node1&#45;&gt;Node5 -->
<g id="edge4" class="edge"><title>Node1&#45;&gt;Node5</title>
<path fill="none" stroke="midnightblue" d="M316.045,-114.237C308.857,-105.483 299.777,-94.4241 292.336,-85.3617"/>
<polygon fill="midnightblue" stroke="midnightblue" points="294.871,-82.9327 285.82,-77.4252 289.461,-87.3748 294.871,-82.9327"/>
</g>
<!-- Node6 -->
<g id="node6" class="node"><title>Node6</title>
<g id="a_node6"><a xlink:href="uncountables_8inc.html" target="_top" xlink:title="uncountables.inc">
<polygon fill="none" stroke="black" points="333.245,-57.4299 333.245,-77.3599 425.565,-77.3599 425.565,-57.4299 333.245,-57.4299"/>
<text text-anchor="middle" x="379.405" y="-65.3599" font-family="Helvetica Neue" font-size="10.00">uncountables.inc</text>
</a>
</g>
</g>
<!-- Node1&#45;&gt;Node6 -->
<g id="edge5" class="edge"><title>Node1&#45;&gt;Node6</title>
<path fill="none" stroke="midnightblue" d="M341.012,-114.237C348.344,-105.483 357.605,-94.4241 365.195,-85.3617"/>
<polygon fill="midnightblue" stroke="midnightblue" points="368.105,-87.3389 371.842,-77.4252 362.738,-82.8444 368.105,-87.3389"/>
</g>
<!-- Node7 -->
<g id="node7" class="node"><title>Node7</title>
<g id="a_node7"><a xlink:href="plurals_8inc.html" target="_top" xlink:title="plurals.inc">
<polygon fill="none" stroke="black" points="443.625,-57.4299 443.625,-77.3599 505.185,-77.3599 505.185,-57.4299 443.625,-57.4299"/>
<text text-anchor="middle" x="474.405" y="-65.3599" font-family="Helvetica Neue" font-size="10.00">plurals.inc</text>
</a>
</g>
</g>
<!-- Node1&#45;&gt;Node7 -->
<g id="edge6" class="edge"><title>Node1&#45;&gt;Node7</title>
<path fill="none" stroke="midnightblue" d="M364.495,-114.237C388.73,-104.129 420.33,-90.9488 443.424,-81.3167"/>
<polygon fill="midnightblue" stroke="midnightblue" points="444.872,-84.505 452.754,-77.4252 442.177,-78.0445 444.872,-84.505"/>
</g>
<!-- Node8 -->
<g id="node8" class="node"><title>Node8</title>
<g id="a_node8"><a xlink:href="singulars_8inc.html" target="_top" xlink:title="singulars.inc">
<polygon fill="none" stroke="black" points="523.44,-57.4299 523.44,-77.3599 595.37,-77.3599 595.37,-57.4299 523.44,-57.4299"/>
<text text-anchor="middle" x="559.405" y="-65.3599" font-family="Helvetica Neue" font-size="10.00">singulars.inc</text>
</a>
</g>
</g>
<!-- Node1&#45;&gt;Node8 -->
<g id="edge7" class="edge"><title>Node1&#45;&gt;Node8</title>
<path fill="none" stroke="midnightblue" d="M385.21,-114.315C425.383,-103.725 478.46,-89.7333 515.422,-79.9894"/>
<polygon fill="midnightblue" stroke="midnightblue" points="516.619,-83.2936 525.396,-77.3601 514.834,-76.5248 516.619,-83.2936"/>
</g>
<!-- Node3 -->
<g id="node3" class="node"><title>Node3</title>
<polygon fill="none" stroke="#bfbfbf" points="0,-0.5 0,-20.4299 128.81,-20.4299 128.81,-0.5 0,-0.5"/>
<text text-anchor="middle" x="64.405" y="-8.42993" font-family="Helvetica Neue" font-size="10.00">Foundation/Foundation.h</text>
</g>
<!-- Node2&#45;&gt;Node3 -->
<g id="edge2" class="edge"><title>Node2&#45;&gt;Node3</title>
<path fill="none" stroke="midnightblue" d="M64.405,-57.3243C64.405,-50.132 64.405,-39.825 64.405,-30.8035"/>
<polygon fill="midnightblue" stroke="midnightblue" points="67.9051,-30.7326 64.405,-20.7326 60.9051,-30.7326 67.9051,-30.7326"/>
</g>
</g>
</svg>
        <g id="navigator" transform="translate(0 0)" fill="#404254">
                <rect fill="#f2f5e9" fill-opacity="0.5" stroke="#606060" stroke-width=".5" x="0" y="0" width="60" height="60"/>
                <use id="zoomplus" xlink:href="#zoomPlus" x="17" y="9" onmousedown="handleZoom(evt,'in')"/>
                <use id="zoomminus" xlink:href="#zoomMin" x="42" y="9" onmousedown="handleZoom(evt,'out')"/>
                <use id="reset" xlink:href="#resetDef" x="30" y="36" onmousedown="handleReset()"/>
                <g id="arrowUp" xlink:href="#dirArrow" transform="translate(30 24)" onmousedown="handlePan(0,-1)">
                  <use xlink:href="#rim" fill="#404040">
                        <set attributeName="fill" to="#808080" begin="arrowUp.mouseover" end="arrowUp.mouseout"/>
                  </use>
                  <path fill="none" stroke="white" stroke-width="1.5" d="M0,-3.0v7 M-2.5,-0.5L0,-3.0L2.5,-0.5"/>
                </g>
                <g id="arrowRight" xlink:href="#dirArrow" transform="rotate(90) translate(36 -43)" onmousedown="handlePan(1,0)">
                  <use xlink:href="#rim" fill="#404040">
                        <set attributeName="fill" to="#808080" begin="arrowRight.mouseover" end="arrowRight.mouseout"/>
                  </use>
                  <path fill="none" stroke="white" stroke-width="1.5" d="M0,-3.0v7 M-2.5,-0.5L0,-3.0L2.5,-0.5"/>
                </g>
                <g id="arrowDown" xlink:href="#dirArrow" transform="rotate(180) translate(-30 -48)" onmousedown="handlePan(0,1)">
                  <use xlink:href="#rim" fill="#404040">
                        <set attributeName="fill" to="#808080" begin="arrowDown.mouseover" end="arrowDown.mouseout"/>
                  </use>
                  <path fill="none" stroke="white" stroke-width="1.5" d="M0,-3.0v7 M-2.5,-0.5L0,-3.0L2.5,-0.5"/>
                </g>
                <g id="arrowLeft" xlink:href="#dirArrow" transform="rotate(270) translate(-36 17)" onmousedown="handlePan(-1,0)">
                  <use xlink:href="#rim" fill="#404040">
                        <set attributeName="fill" to="#808080" begin="arrowLeft.mouseover" end="arrowLeft.mouseout"/>
                  </use>
                  <path fill="none" stroke="white" stroke-width="1.5" d="M0,-3.0v7 M-2.5,-0.5L0,-3.0L2.5,-0.5"/>
                </g>
        </g>
        <svg viewBox="0 0 15 15" width="100%" height="30px" preserveAspectRatio="xMaxYMin meet">
         <g id="arrow_out" transform="scale(0.3 0.3)">
          <a xlink:href="_d_b_inflector_8m__incl_org.svg" target="_base">
           <rect id="button" ry="5" rx="5" y="6" x="6" height="38" width="38"
                fill="#f2f5e9" fill-opacity="0.5" stroke="#606060" stroke-width="1.0"/>
           <path id="arrow"
             d="M 11.500037,31.436501 C 11.940474,20.09759 22.043105,11.32322 32.158766,21.979434 L 37.068811,17.246167 C 37.068811,17.246167 37.088388,32 37.088388,32 L 22.160133,31.978069 C 22.160133,31.978069 26.997745,27.140456 26.997745,27.140456 C 18.528582,18.264221 13.291696,25.230495 11.500037,31.436501 z"
             style="fill:#404040;"/>
          </a>
         </g>
        </svg>
</svg>
