<?xml version="1.0" encoding="UTF-8" standalone="no"?>
<!DOCTYPE svg PUBLIC "-//W3C//DTD SVG 1.1//EN"
 "http://www.w3.org/Graphics/SVG/1.1/DTD/svg11.dtd">
<!-- Generated by graphviz version 2.38.0 (20140413.2041)
 -->
<!-- Title: Source/Utilities/DBISO8601DateFormatter.m Pages: 1 -->
<svg width="197pt" height="155pt"
 viewBox="0.00 0.00 197.38 154.72" xmlns="http://www.w3.org/2000/svg" xmlns:xlink="http://www.w3.org/1999/xlink">
<g id="graph0" class="graph" transform="scale(1 1) rotate(0) translate(4 150.72)">
<title>Source/Utilities/DBISO8601DateFormatter.m</title>
<!-- Node1 -->
<g id="node1" class="node"><title>Node1</title>
<polygon fill="#bfbfbf" stroke="black" points="0,-114.36 0,-146.22 139.9,-146.22 139.9,-114.36 0,-114.36"/>
<text text-anchor="start" x="8" y="-134.22" font-family="Helvetica Neue" font-size="10.00">Source/Utilities/DBISO8601</text>
<text text-anchor="middle" x="69.95" y="-122.29" font-family="Helvetica Neue" font-size="10.00">DateFormatter.m</text>
</g>
<!-- Node2 -->
<g id="node2" class="node"><title>Node2</title>
<polygon fill="none" stroke="#bfbfbf" points="5.545,-0.5 5.545,-20.4299 134.355,-20.4299 134.355,-0.5 5.545,-0.5"/>
<text text-anchor="middle" x="69.95" y="-8.42993" font-family="Helvetica Neue" font-size="10.00">Foundation/Foundation.h</text>
</g>
<!-- Node1&#45;&gt;Node2 -->
<g id="edge1" class="edge"><title>Node1&#45;&gt;Node2</title>
<path fill="none" stroke="midnightblue" d="M57.0012,-114.093C46.3248,-99.6743 33.8503,-77.2491 39.95,-56.9299 43.025,-46.6866 49.238,-36.6206 55.2163,-28.5744"/>
<polygon fill="midnightblue" stroke="midnightblue" points="57.9731,-30.7309 61.4517,-20.7234 52.4916,-26.3774 57.9731,-30.7309"/>
</g>
<!-- Node3 -->
<g id="node3" class="node"><title>Node3</title>
<g id="a_node3"><a xlink:href="_d_b_i_s_o8601_date_formatter_8h.html" target="_top" xlink:title="DBISO8601DateFormatter.h">
<polygon fill="none" stroke="black" points="48.52,-57.4299 48.52,-77.3599 189.38,-77.3599 189.38,-57.4299 48.52,-57.4299"/>
<text text-anchor="middle" x="118.95" y="-65.3599" font-family="Helvetica Neue" font-size="10.00">DBISO8601DateFormatter.h</text>
</a>
</g>
</g>
<!-- Node1&#45;&gt;Node3 -->
<g id="edge2" class="edge"><title>Node1&#45;&gt;Node3</title>
<path fill="none" stroke="midnightblue" d="M82.0624,-114.237C89.1067,-105.483 98.0052,-94.4241 105.297,-85.3617"/>
<polygon fill="midnightblue" stroke="midnightblue" points="108.141,-87.4104 111.684,-77.4252 102.688,-83.022 108.141,-87.4104"/>
</g>
<!-- Node3&#45;&gt;Node2 -->
<g id="edge3" class="edge"><title>Node3&#45;&gt;Node2</title>
<path fill="none" stroke="midnightblue" d="M110.859,-57.3243C103.879,-49.4997 93.6103,-37.9887 85.1077,-28.457"/>
<polygon fill="midnightblue" stroke="midnightblue" points="87.4858,-25.8651 78.2172,-20.7326 82.2621,-30.5249 87.4858,-25.8651"/>
</g>
</g>
</svg>
