<?xml version="1.0" encoding="UTF-8" standalone="no"?>
<!DOCTYPE svg PUBLIC "-//W3C//DTD SVG 1.1//EN"
 "http://www.w3.org/Graphics/SVG/1.1/DTD/svg11.dtd">
<!-- Generated by graphviz version 2.38.0 (20140413.2041)
 -->
<!-- Title: Source/DBTable.h Pages: 1 -->
<svg width="1798pt" height="98pt"
 viewBox="0.00 0.00 1798.22 97.79" xmlns="http://www.w3.org/2000/svg" xmlns:xlink="http://www.w3.org/1999/xlink">
<g id="graph0" class="graph" transform="scale(1 1) rotate(0) translate(4 93.7898)">
<title>Source/DBTable.h</title>
<!-- Node1 -->
<g id="node1" class="node"><title>Node1</title>
<polygon fill="#bfbfbf" stroke="black" points="714.245,-69.3599 714.245,-89.2898 810.995,-89.2898 810.995,-69.3599 714.245,-69.3599"/>
<text text-anchor="middle" x="762.62" y="-77.2898" font-family="Helvetica Neue" font-size="10.00">Source/DBTable.h</text>
</g>
<!-- Node2 -->
<g id="node2" class="node"><title>Node2</title>
<g id="a_node2"><a xlink:href="_d_b_09_migrations_8m.html" target="_top" xlink:title="Source/DB+Migrations.m">
<polygon fill="none" stroke="black" points="0,-6.46497 0,-26.3949 129.24,-26.3949 129.24,-6.46497 0,-6.46497"/>
<text text-anchor="middle" x="64.62" y="-14.3949" font-family="Helvetica Neue" font-size="10.00">Source/DB+Migrations.m</text>
</a>
</g>
</g>
<!-- Node1&#45;&gt;Node2 -->
<g id="edge1" class="edge"><title>Node1&#45;&gt;Node2</title>
<path fill="none" stroke="midnightblue" d="M703.94,-76.6478C593.029,-72.9034 345.214,-61.7944 138.62,-32.8599 126.923,-31.2216 114.304,-28.8282 102.858,-26.4131"/>
<polygon fill="midnightblue" stroke="midnightblue" points="704.13,-80.1559 714.24,-76.9875 704.361,-73.1597 704.13,-80.1559"/>
</g>
<!-- Node3 -->
<g id="node3" class="node"><title>Node3</title>
<g id="a_node3"><a xlink:href="_d_b_8m.html" target="_top" xlink:title="Source/DB.m">
<polygon fill="none" stroke="black" points="147.52,-6.46497 147.52,-26.3949 223.72,-26.3949 223.72,-6.46497 147.52,-6.46497"/>
<text text-anchor="middle" x="185.62" y="-14.3949" font-family="Helvetica Neue" font-size="10.00">Source/DB.m</text>
</a>
</g>
</g>
<!-- Node1&#45;&gt;Node3 -->
<g id="edge2" class="edge"><title>Node1&#45;&gt;Node3</title>
<path fill="none" stroke="midnightblue" d="M703.936,-77.5795C605.681,-75.377 402.074,-66.7231 233.62,-32.8599 225.897,-31.3073 217.671,-28.9393 210.251,-26.5211"/>
<polygon fill="midnightblue" stroke="midnightblue" points="703.894,-81.0793 713.965,-77.7899 704.041,-74.0808 703.894,-81.0793"/>
</g>
<!-- Node4 -->
<g id="node4" class="node"><title>Node4</title>
<g id="a_node4"><a xlink:href="_d_b_index_8m.html" target="_top" xlink:title="Source/DBIndex.m">
<polygon fill="none" stroke="black" points="242.205,-6.46497 242.205,-26.3949 343.035,-26.3949 343.035,-6.46497 242.205,-6.46497"/>
<text text-anchor="middle" x="292.62" y="-14.3949" font-family="Helvetica Neue" font-size="10.00">Source/DBIndex.m</text>
</a>
</g>
</g>
<!-- Node1&#45;&gt;Node4 -->
<g id="edge3" class="edge"><title>Node1&#45;&gt;Node4</title>
<path fill="none" stroke="midnightblue" d="M703.652,-74.4155C623.656,-68.5147 476.502,-55.5403 352.62,-32.8599 343.31,-31.1554 333.311,-28.7994 324.196,-26.4413"/>
<polygon fill="midnightblue" stroke="midnightblue" points="703.786,-77.9343 714.013,-75.1678 704.293,-70.9527 703.786,-77.9343"/>
</g>
<!-- Node5 -->
<g id="node5" class="node"><title>Node5</title>
<g id="a_node5"><a xlink:href="_d_b_model_8m.html" target="_top" xlink:title="Source/DBModel.m">
<polygon fill="none" stroke="black" points="361.535,-6.46497 361.535,-26.3949 465.705,-26.3949 465.705,-6.46497 361.535,-6.46497"/>
<text text-anchor="middle" x="413.62" y="-14.3949" font-family="Helvetica Neue" font-size="10.00">Source/DBModel.m</text>
</a>
</g>
</g>
<!-- Node1&#45;&gt;Node5 -->
<g id="edge4" class="edge"><title>Node1&#45;&gt;Node5</title>
<path fill="none" stroke="midnightblue" d="M704.081,-70.6786C645.69,-62.6777 553.561,-49.0397 474.62,-32.8599 465.631,-31.0174 455.973,-28.7228 447.054,-26.4711"/>
<polygon fill="midnightblue" stroke="midnightblue" points="703.842,-74.1783 714.223,-72.0581 704.786,-67.2422 703.842,-74.1783"/>
</g>
<!-- Node6 -->
<g id="node6" class="node"><title>Node6</title>
<g id="a_node6"><a xlink:href="_d_b_table_8m.html" target="_top" xlink:title="Source/DBTable.m">
<polygon fill="none" stroke="black" points="483.76,-6.46497 483.76,-26.3949 583.48,-26.3949 583.48,-6.46497 483.76,-6.46497"/>
<text text-anchor="middle" x="533.62" y="-14.3949" font-family="Helvetica Neue" font-size="10.00">Source/DBTable.m</text>
</a>
</g>
</g>
<!-- Node1&#45;&gt;Node6 -->
<g id="edge5" class="edge"><title>Node1&#45;&gt;Node6</title>
<path fill="none" stroke="midnightblue" d="M718.977,-66.7193C674.912,-55.0018 607.778,-37.1497 567.548,-26.452"/>
<polygon fill="midnightblue" stroke="midnightblue" points="718.267,-70.1521 728.83,-69.3396 720.066,-63.3872 718.267,-70.1521"/>
</g>
<!-- Node7 -->
<g id="node7" class="node"><title>Node7</title>
<g id="a_node7"><a xlink:href="_d_b_alter_table_query_8m.html" target="_top" xlink:title="Source/Queries/DBAlterTable\lQuery.m">
<polygon fill="none" stroke="black" points="601.25,-0.5 601.25,-32.3599 747.99,-32.3599 747.99,-0.5 601.25,-0.5"/>
<text text-anchor="start" x="609.25" y="-20.3599" font-family="Helvetica Neue" font-size="10.00">Source/Queries/DBAlterTable</text>
<text text-anchor="middle" x="674.62" y="-8.42993" font-family="Helvetica Neue" font-size="10.00">Query.m</text>
</a>
</g>
</g>
<!-- Node1&#45;&gt;Node7 -->
<g id="edge6" class="edge"><title>Node1&#45;&gt;Node7</title>
<path fill="none" stroke="midnightblue" d="M741.371,-63.6209C727.797,-54.2277 710.237,-42.0767 696.535,-32.5951"/>
<polygon fill="midnightblue" stroke="midnightblue" points="739.42,-66.5273 749.635,-69.3396 743.404,-60.7711 739.42,-66.5273"/>
</g>
<!-- Node8 -->
<g id="node8" class="node"><title>Node8</title>
<g id="a_node8"><a xlink:href="_d_b_delete_query_8m.html" target="_top" xlink:title="Source/Queries/DBDeleteQuery.m">
<polygon fill="none" stroke="black" points="766.31,-6.46497 766.31,-26.3949 934.93,-26.3949 934.93,-6.46497 766.31,-6.46497"/>
<text text-anchor="middle" x="850.62" y="-14.3949" font-family="Helvetica Neue" font-size="10.00">Source/Queries/DBDeleteQuery.m</text>
</a>
</g>
</g>
<!-- Node1&#45;&gt;Node8 -->
<g id="edge7" class="edge"><title>Node1&#45;&gt;Node8</title>
<path fill="none" stroke="midnightblue" d="M784.194,-63.3961C800.911,-51.8283 823.522,-36.1813 837.582,-26.452"/>
<polygon fill="midnightblue" stroke="midnightblue" points="781.836,-60.7711 775.605,-69.3396 785.82,-66.5273 781.836,-60.7711"/>
</g>
<!-- Node9 -->
<g id="node9" class="node"><title>Node9</title>
<g id="a_node9"><a xlink:href="_d_b_drop_table_query_8m.html" target="_top" xlink:title="Source/Queries/DBDropTable\lQuery.m">
<polygon fill="none" stroke="black" points="952.595,-0.5 952.595,-32.3599 1100.64,-32.3599 1100.64,-0.5 952.595,-0.5"/>
<text text-anchor="start" x="960.595" y="-20.3599" font-family="Helvetica Neue" font-size="10.00">Source/Queries/DBDropTable</text>
<text text-anchor="middle" x="1026.62" y="-8.42993" font-family="Helvetica Neue" font-size="10.00">Query.m</text>
</a>
</g>
</g>
<!-- Node1&#45;&gt;Node9 -->
<g id="edge8" class="edge"><title>Node1&#45;&gt;Node9</title>
<path fill="none" stroke="midnightblue" d="M811.354,-67.0837C853.636,-57.3309 915.181,-43.1348 961.645,-32.4173"/>
<polygon fill="midnightblue" stroke="midnightblue" points="810.532,-63.6814 801.574,-69.3396 812.105,-70.5023 810.532,-63.6814"/>
</g>
<!-- Node10 -->
<g id="node10" class="node"><title>Node10</title>
<g id="a_node10"><a xlink:href="_d_b_insert_query_8m.html" target="_top" xlink:title="Source/Queries/DBInsertQuery.m">
<polygon fill="none" stroke="black" points="1119.07,-6.46497 1119.07,-26.3949 1284.17,-26.3949 1284.17,-6.46497 1119.07,-6.46497"/>
<text text-anchor="middle" x="1201.62" y="-14.3949" font-family="Helvetica Neue" font-size="10.00">Source/Queries/DBInsertQuery.m</text>
</a>
</g>
</g>
<!-- Node1&#45;&gt;Node10 -->
<g id="edge9" class="edge"><title>Node1&#45;&gt;Node10</title>
<path fill="none" stroke="midnightblue" d="M821.504,-71.2632C890.606,-62.8249 1008.59,-47.9451 1109.62,-32.8599 1122.75,-30.8986 1136.91,-28.6107 1150.09,-26.4066"/>
<polygon fill="midnightblue" stroke="midnightblue" points="820.761,-67.8277 811.258,-72.5109 821.608,-74.7764 820.761,-67.8277"/>
</g>
<!-- Node11 -->
<g id="node11" class="node"><title>Node11</title>
<g id="a_node11"><a xlink:href="_d_b_query_8m.html" target="_top" xlink:title="Source/Queries/DBQuery.m">
<polygon fill="none" stroke="black" points="1302.57,-6.46497 1302.57,-26.3949 1442.67,-26.3949 1442.67,-6.46497 1302.57,-6.46497"/>
<text text-anchor="middle" x="1372.62" y="-14.3949" font-family="Helvetica Neue" font-size="10.00">Source/Queries/DBQuery.m</text>
</a>
</g>
</g>
<!-- Node1&#45;&gt;Node11 -->
<g id="edge10" class="edge"><title>Node1&#45;&gt;Node11</title>
<path fill="none" stroke="midnightblue" d="M821.147,-75.3752C919.223,-69.9715 1122.82,-56.7816 1293.62,-32.8599 1305.8,-31.1542 1318.94,-28.7979 1330.94,-26.4398"/>
<polygon fill="midnightblue" stroke="midnightblue" points="820.932,-71.8816 811.137,-75.9197 821.312,-78.8713 820.932,-71.8816"/>
</g>
<!-- Node12 -->
<g id="node12" class="node"><title>Node12</title>
<g id="a_node12"><a xlink:href="_d_b_select_query_8m.html" target="_top" xlink:title="Source/Queries/DBSelectQuery.m">
<polygon fill="none" stroke="black" points="1460.59,-6.46497 1460.59,-26.3949 1628.65,-26.3949 1628.65,-6.46497 1460.59,-6.46497"/>
<text text-anchor="middle" x="1544.62" y="-14.3949" font-family="Helvetica Neue" font-size="10.00">Source/Queries/DBSelectQuery.m</text>
</a>
</g>
</g>
<!-- Node1&#45;&gt;Node12 -->
<g id="edge11" class="edge"><title>Node1&#45;&gt;Node12</title>
<path fill="none" stroke="midnightblue" d="M821.219,-76.4063C940.309,-72.0782 1219.04,-59.7613 1451.62,-32.8599 1466.09,-31.1862 1481.74,-28.8113 1496,-26.4251"/>
<polygon fill="midnightblue" stroke="midnightblue" points="821.086,-72.9087 811.218,-76.7646 821.337,-79.9043 821.086,-72.9087"/>
</g>
<!-- Node13 -->
<g id="node13" class="node"><title>Node13</title>
<g id="a_node13"><a xlink:href="_n_s_predicate_09_d_b_s_q_l_representable_8m.html" target="_top" xlink:title="Source/Utilities/NSPredicate\l+DBSQLRepresentable.m">
<polygon fill="none" stroke="black" points="1647.01,-0.5 1647.01,-32.3599 1790.22,-32.3599 1790.22,-0.5 1647.01,-0.5"/>
<text text-anchor="start" x="1655.01" y="-20.3599" font-family="Helvetica Neue" font-size="10.00">Source/Utilities/NSPredicate</text>
<text text-anchor="middle" x="1718.62" y="-8.42993" font-family="Helvetica Neue" font-size="10.00">+DBSQLRepresentable.m</text>
</a>
</g>
</g>
<!-- Node1&#45;&gt;Node13 -->
<g id="edge12" class="edge"><title>Node1&#45;&gt;Node13</title>
<path fill="none" stroke="midnightblue" d="M821.362,-78.0311C962.547,-76.7253 1331.91,-69.7461 1637.62,-32.8599 1640.6,-32.4998 1643.64,-32.0949 1646.71,-31.6551"/>
<polygon fill="midnightblue" stroke="midnightblue" points="821.165,-74.5325 811.196,-78.1188 821.225,-81.5323 821.165,-74.5325"/>
</g>
</g>
</svg>
