<?xml version="1.0" encoding="UTF-8" standalone="no"?>
<!DOCTYPE svg PUBLIC "-//W3C//DTD SVG 1.1//EN"
 "http://www.w3.org/Graphics/SVG/1.1/DTD/svg11.dtd">
<!-- Generated by graphviz version 2.38.0 (20140413.2041)
 -->
<!-- Title: Source/Connections/DBConnection.m Pages: 1 -->
<svg width="435pt" height="155pt"
 viewBox="0.00 0.00 434.73 154.72" xmlns="http://www.w3.org/2000/svg" xmlns:xlink="http://www.w3.org/1999/xlink">
<g id="graph0" class="graph" transform="scale(1 1) rotate(0) translate(4 150.72)">
<title>Source/Connections/DBConnection.m</title>
<!-- Node1 -->
<g id="node1" class="node"><title>Node1</title>
<polygon fill="#bfbfbf" stroke="black" points="168.66,-114.36 168.66,-146.22 276.15,-146.22 276.15,-114.36 168.66,-114.36"/>
<text text-anchor="start" x="176.66" y="-134.22" font-family="Helvetica Neue" font-size="10.00">Source/Connections</text>
<text text-anchor="middle" x="222.405" y="-122.29" font-family="Helvetica Neue" font-size="10.00">/DBConnection.m</text>
</g>
<!-- Node2 -->
<g id="node2" class="node"><title>Node2</title>
<g id="a_node2"><a xlink:href="_d_b_connection_8h.html" target="_top" xlink:title="DBConnection.h">
<polygon fill="none" stroke="black" points="21.545,-57.4299 21.545,-77.3599 111.265,-77.3599 111.265,-57.4299 21.545,-57.4299"/>
<text text-anchor="middle" x="66.405" y="-65.3599" font-family="Helvetica Neue" font-size="10.00">DBConnection.h</text>
</a>
</g>
</g>
<!-- Node1&#45;&gt;Node2 -->
<g id="edge1" class="edge"><title>Node1&#45;&gt;Node2</title>
<path fill="none" stroke="midnightblue" d="M183.843,-114.237C157.833,-104.084 123.882,-90.831 99.178,-81.1879"/>
<polygon fill="midnightblue" stroke="midnightblue" points="100.127,-77.8012 89.5388,-77.4252 97.5815,-84.322 100.127,-77.8012"/>
</g>
<!-- Node4 -->
<g id="node4" class="node"><title>Node4</title>
<g id="a_node4"><a xlink:href="_d_b_utilities_8h.html" target="_top" xlink:title="DBUtilities.h">
<polygon fill="none" stroke="black" points="133.905,-57.4299 133.905,-77.3599 204.905,-77.3599 204.905,-57.4299 133.905,-57.4299"/>
<text text-anchor="middle" x="169.405" y="-65.3599" font-family="Helvetica Neue" font-size="10.00">DBUtilities.h</text>
</a>
</g>
</g>
<!-- Node1&#45;&gt;Node4 -->
<g id="edge3" class="edge"><title>Node1&#45;&gt;Node4</title>
<path fill="none" stroke="midnightblue" d="M209.304,-114.237C201.606,-105.392 191.861,-94.1958 183.929,-85.0821"/>
<polygon fill="midnightblue" stroke="midnightblue" points="186.47,-82.6705 177.265,-77.4252 181.19,-87.2662 186.47,-82.6705"/>
</g>
<!-- Node6 -->
<g id="node6" class="node"><title>Node6</title>
<polygon fill="none" stroke="#bfbfbf" points="223.04,-57.4299 223.04,-77.3599 327.77,-77.3599 327.77,-57.4299 223.04,-57.4299"/>
<text text-anchor="middle" x="275.405" y="-65.3599" font-family="Helvetica Neue" font-size="10.00">dispatch/dispatch.h</text>
</g>
<!-- Node1&#45;&gt;Node6 -->
<g id="edge5" class="edge"><title>Node1&#45;&gt;Node6</title>
<path fill="none" stroke="midnightblue" d="M235.506,-114.237C243.204,-105.392 252.949,-94.1958 260.881,-85.0821"/>
<polygon fill="midnightblue" stroke="midnightblue" points="263.62,-87.2662 267.545,-77.4252 258.34,-82.6705 263.62,-87.2662"/>
</g>
<!-- Node7 -->
<g id="node7" class="node"><title>Node7</title>
<polygon fill="none" stroke="#bfbfbf" points="346.08,-57.4299 346.08,-77.3599 426.73,-77.3599 426.73,-57.4299 346.08,-57.4299"/>
<text text-anchor="middle" x="386.405" y="-65.3599" font-family="Helvetica Neue" font-size="10.00">objc/runtime.h</text>
</g>
<!-- Node1&#45;&gt;Node7 -->
<g id="edge6" class="edge"><title>Node1&#45;&gt;Node7</title>
<path fill="none" stroke="midnightblue" d="M262.944,-114.237C290.532,-103.994 326.616,-90.5952 352.642,-80.9316"/>
<polygon fill="midnightblue" stroke="midnightblue" points="353.929,-84.1873 362.085,-77.4252 351.492,-77.6251 353.929,-84.1873"/>
</g>
<!-- Node3 -->
<g id="node3" class="node"><title>Node3</title>
<polygon fill="none" stroke="#bfbfbf" points="0,-0.5 0,-20.4299 128.81,-20.4299 128.81,-0.5 0,-0.5"/>
<text text-anchor="middle" x="64.405" y="-8.42993" font-family="Helvetica Neue" font-size="10.00">Foundation/Foundation.h</text>
</g>
<!-- Node2&#45;&gt;Node3 -->
<g id="edge2" class="edge"><title>Node2&#45;&gt;Node3</title>
<path fill="none" stroke="midnightblue" d="M66.0747,-57.3243C65.8129,-50.132 65.4376,-39.825 65.1091,-30.8035"/>
<polygon fill="midnightblue" stroke="midnightblue" points="68.6041,-30.5986 64.7424,-20.7326 61.6087,-30.8534 68.6041,-30.5986"/>
</g>
<!-- Node5 -->
<g id="node5" class="node"><title>Node5</title>
<polygon fill="none" stroke="#bfbfbf" points="146.525,-0.5 146.525,-20.4299 198.285,-20.4299 198.285,-0.5 146.525,-0.5"/>
<text text-anchor="middle" x="172.405" y="-8.42993" font-family="Helvetica Neue" font-size="10.00">unistd.h</text>
</g>
<!-- Node4&#45;&gt;Node5 -->
<g id="edge4" class="edge"><title>Node4&#45;&gt;Node5</title>
<path fill="none" stroke="midnightblue" d="M169.9,-57.3243C170.293,-50.132 170.856,-39.825 171.349,-30.8035"/>
<polygon fill="midnightblue" stroke="midnightblue" points="174.848,-30.9086 171.899,-20.7326 167.859,-30.5268 174.848,-30.9086"/>
</g>
</g>
</svg>
