<?xml version="1.0" encoding="UTF-8" standalone="no"?>
<!DOCTYPE svg PUBLIC "-//W3C//DTD SVG 1.1//EN"
 "http://www.w3.org/Graphics/SVG/1.1/DTD/svg11.dtd">
<!-- Generated by graphviz version 2.38.0 (20140413.2041)
 -->
<!-- Title: Source/DatabaseKit.h Pages: 1 -->
<!--zoomable 98 -->
<svg id="main" version="1.1" xmlns="http://www.w3.org/2000/svg" xmlns:xlink="http://www.w3.org/1999/xlink" xml:space="preserve" onload="init(evt)">
<style type="text/css"><![CDATA[
.edge:hover path { stroke: red; }
.edge:hover polygon { stroke: red; fill: red; }
]]></style>
<script type="text/javascript"><![CDATA[
var edges = document.getElementsByTagName('g');
if (edges && edges.length) {
  for (var i=0;i<edges.length;i++) {
    if (edges[i].id.substr(0,4)=='edge') {
      edges[i].setAttribute('class','edge');
    }
  }
}
]]></script>
        <defs>
                <circle id="rim" cx="0" cy="0" r="7"/>
                <circle id="rim2" cx="0" cy="0" r="3.5"/>
                <g id="zoomPlus">
                        <use xlink:href="#rim" fill="#404040">
                                <set attributeName="fill" to="#808080" begin="zoomplus.mouseover" end="zoomplus.mouseout"/>
                        </use>
                        <path d="M-4,0h8M0,-4v8" fill="none" stroke="white" stroke-width="1.5" pointer-events="none"/>
                </g>
                <g id="zoomMin">
                        <use xlink:href="#rim" fill="#404040">
                                <set attributeName="fill" to="#808080" begin="zoomminus.mouseover" end="zoomminus.mouseout"/>
                        </use>
                        <path d="M-4,0h8" fill="none" stroke="white" stroke-width="1.5" pointer-events="none"/>
                </g>
                <g id="dirArrow">
                        <path fill="none" stroke="white" stroke-width="1.5" d="M0,-3.0v7 M-2.5,-0.5L0,-3.0L2.5,-0.5"/>
                </g>
               <g id="resetDef">
                       <use xlink:href="#rim2" fill="#404040">
                               <set attributeName="fill" to="#808080" begin="reset.mouseover" end="reset.mouseout"/>
                       </use>
               </g>
        </defs>

<script type="text/javascript">
var viewWidth = 2424;
var viewHeight = 98;
var sectionId = 'dynsection-0';
</script>
<script xlink:href="svgpan.js"/>
<svg id="graph" class="graph">
<g id="viewport">
<title>Source/DatabaseKit.h</title>
<!-- Node1 -->
<g id="node1" class="node"><title>Node1</title>
<polygon fill="#bfbfbf" stroke="black" points="1095.63,-69.3599 1095.63,-89.2898 1209.61,-89.2898 1209.61,-69.3599 1095.63,-69.3599"/>
<text text-anchor="middle" x="1152.62" y="-77.2898" font-family="Helvetica Neue" font-size="10.00">Source/DatabaseKit.h</text>
</g>
<!-- Node2 -->
<g id="node2" class="node"><title>Node2</title>
<polygon fill="none" stroke="#bfbfbf" points="-9.9476e-14,-6.46497 -9.9476e-14,-26.3949 149.24,-26.3949 149.24,-6.46497 -9.9476e-14,-6.46497"/>
<text text-anchor="middle" x="74.62" y="-14.3949" font-family="Helvetica Neue" font-size="10.00">DatabaseKit/DB+Migrations.h</text>
</g>
<!-- Node1&#45;&gt;Node2 -->
<g id="edge1" class="edge"><title>Node1&#45;&gt;Node2</title>
<path fill="none" stroke="midnightblue" d="M1095.47,-78.4683C942.74,-78.257 512.574,-73.7644 157.62,-32.8599 147.573,-31.7021 136.913,-30.0475 126.699,-28.248"/>
<polygon fill="midnightblue" stroke="midnightblue" points="127.14,-24.7707 116.674,-26.4133 125.88,-31.6564 127.14,-24.7707"/>
</g>
<!-- Node3 -->
<g id="node3" class="node"><title>Node3</title>
<polygon fill="none" stroke="#bfbfbf" points="166.76,-6.46497 166.76,-26.3949 286.48,-26.3949 286.48,-6.46497 166.76,-6.46497"/>
<text text-anchor="middle" x="226.62" y="-14.3949" font-family="Helvetica Neue" font-size="10.00">DatabaseKit/DBTable.h</text>
</g>
<!-- Node1&#45;&gt;Node3 -->
<g id="edge2" class="edge"><title>Node1&#45;&gt;Node3</title>
<path fill="none" stroke="midnightblue" d="M1095.4,-78.5774C957.231,-78.4736 594.711,-73.9419 295.62,-32.8599 287.753,-31.7793 279.457,-30.2597 271.45,-28.5918"/>
<polygon fill="midnightblue" stroke="midnightblue" points="272.033,-25.1367 261.516,-26.4218 270.539,-31.9755 272.033,-25.1367"/>
</g>
<!-- Node4 -->
<g id="node4" class="node"><title>Node4</title>
<polygon fill="none" stroke="#bfbfbf" points="304.46,-6.46497 304.46,-26.3949 426.78,-26.3949 426.78,-6.46497 304.46,-6.46497"/>
<text text-anchor="middle" x="365.62" y="-14.3949" font-family="Helvetica Neue" font-size="10.00">DatabaseKit/DBQuery.h</text>
</g>
<!-- Node1&#45;&gt;Node4 -->
<g id="edge3" class="edge"><title>Node1&#45;&gt;Node4</title>
<path fill="none" stroke="midnightblue" d="M1095.62,-77.678C973.851,-75.6463 679.545,-67.2695 435.62,-32.8599 427.736,-31.7476 419.419,-30.2275 411.38,-28.5728"/>
<polygon fill="midnightblue" stroke="midnightblue" points="411.911,-25.1069 401.398,-26.4255 410.438,-31.9504 411.911,-25.1069"/>
</g>
<!-- Node5 -->
<g id="node5" class="node"><title>Node5</title>
<polygon fill="none" stroke="#bfbfbf" points="444.535,-6.46497 444.535,-26.3949 568.705,-26.3949 568.705,-6.46497 444.535,-6.46497"/>
<text text-anchor="middle" x="506.62" y="-14.3949" font-family="Helvetica Neue" font-size="10.00">DatabaseKit/DBModel.h</text>
</g>
<!-- Node1&#45;&gt;Node5 -->
<g id="edge4" class="edge"><title>Node1&#45;&gt;Node5</title>
<path fill="none" stroke="midnightblue" d="M1095.61,-76.3698C992.002,-72.2504 766.093,-60.6609 577.62,-32.8599 569.811,-31.708 561.577,-30.1972 553.593,-28.5719"/>
<polygon fill="midnightblue" stroke="midnightblue" points="554.172,-25.1169 543.663,-26.4703 552.722,-31.9652 554.172,-25.1169"/>
</g>
<!-- Node6 -->
<g id="node6" class="node"><title>Node6</title>
<polygon fill="none" stroke="#bfbfbf" points="587.085,-6.46497 587.085,-26.3949 760.155,-26.3949 760.155,-6.46497 587.085,-6.46497"/>
<text text-anchor="middle" x="673.62" y="-14.3949" font-family="Helvetica Neue" font-size="10.00">DatabaseKit/DBColumnDefinition.h</text>
</g>
<!-- Node1&#45;&gt;Node6 -->
<g id="edge5" class="edge"><title>Node1&#45;&gt;Node6</title>
<path fill="none" stroke="midnightblue" d="M1095.42,-72.2793C1020.48,-64.1873 885.01,-48.975 769.62,-32.8599 759.168,-31.4001 748.095,-29.7331 737.329,-28.0471"/>
<polygon fill="midnightblue" stroke="midnightblue" points="737.555,-24.5393 727.13,-26.431 736.459,-31.4531 737.555,-24.5393"/>
</g>
<!-- Node7 -->
<g id="node7" class="node"><title>Node7</title>
<polygon fill="none" stroke="#bfbfbf" points="778.205,-6.46497 778.205,-26.3949 899.035,-26.3949 899.035,-6.46497 778.205,-6.46497"/>
<text text-anchor="middle" x="838.62" y="-14.3949" font-family="Helvetica Neue" font-size="10.00">DatabaseKit/DBIndex.h</text>
</g>
<!-- Node1&#45;&gt;Node7 -->
<g id="edge6" class="edge"><title>Node1&#45;&gt;Node7</title>
<path fill="none" stroke="midnightblue" d="M1100.89,-69.2916C1051.23,-60.486 974.162,-46.4694 907.62,-32.8599 901.075,-31.5213 894.195,-30.0545 887.417,-28.5745"/>
<polygon fill="midnightblue" stroke="midnightblue" points="888.131,-25.148 877.612,-26.4102 886.622,-31.9834 888.131,-25.148"/>
</g>
<!-- Node8 -->
<g id="node8" class="node"><title>Node8</title>
<polygon fill="none" stroke="#bfbfbf" points="916.775,-6.46497 916.775,-26.3949 1064.46,-26.3949 1064.46,-6.46497 916.775,-6.46497"/>
<text text-anchor="middle" x="990.62" y="-14.3949" font-family="Helvetica Neue" font-size="10.00">DatabaseKit/DBConnection.h</text>
</g>
<!-- Node1&#45;&gt;Node8 -->
<g id="edge7" class="edge"><title>Node1&#45;&gt;Node8</title>
<path fill="none" stroke="midnightblue" d="M1128.72,-69.3396C1101.08,-58.9507 1055.4,-41.7792 1024.2,-30.0526"/>
<polygon fill="midnightblue" stroke="midnightblue" points="1025.21,-26.6945 1014.62,-26.452 1022.75,-33.2469 1025.21,-26.6945"/>
</g>
<!-- Node9 -->
<g id="node9" class="node"><title>Node9</title>
<polygon fill="none" stroke="#bfbfbf" points="1082.94,-0.5 1082.94,-32.3599 1222.29,-32.3599 1222.29,-0.5 1082.94,-0.5"/>
<text text-anchor="start" x="1090.94" y="-20.3599" font-family="Helvetica Neue" font-size="10.00">DatabaseKit/DBConnection</text>
<text text-anchor="middle" x="1152.62" y="-8.42993" font-family="Helvetica Neue" font-size="10.00">Pool.h</text>
</g>
<!-- Node1&#45;&gt;Node9 -->
<g id="edge8" class="edge"><title>Node1&#45;&gt;Node9</title>
<path fill="none" stroke="midnightblue" d="M1152.62,-69.3396C1152.62,-62.3206 1152.62,-52.2056 1152.62,-42.7655"/>
<polygon fill="midnightblue" stroke="midnightblue" points="1156.12,-42.5951 1152.62,-32.5951 1149.12,-42.5951 1156.12,-42.5951"/>
</g>
<!-- Node10 -->
<g id="node10" class="node"><title>Node10</title>
<polygon fill="none" stroke="#bfbfbf" points="1240.58,-6.46497 1240.58,-26.3949 1418.65,-26.3949 1418.65,-6.46497 1240.58,-6.46497"/>
<text text-anchor="middle" x="1329.62" y="-14.3949" font-family="Helvetica Neue" font-size="10.00">DatabaseKit/DBSQLiteConnection.h</text>
</g>
<!-- Node1&#45;&gt;Node10 -->
<g id="edge9" class="edge"><title>Node1&#45;&gt;Node10</title>
<path fill="none" stroke="midnightblue" d="M1178.74,-69.3396C1209.2,-58.8608 1259.71,-41.4814 1293.81,-29.7492"/>
<polygon fill="midnightblue" stroke="midnightblue" points="1295.08,-33.015 1303.4,-26.452 1292.8,-26.3957 1295.08,-33.015"/>
</g>
<!-- Node11 -->
<g id="node11" class="node"><title>Node11</title>
<polygon fill="none" stroke="#bfbfbf" points="1437.11,-0.5 1437.11,-32.3599 1578.12,-32.3599 1578.12,-0.5 1437.11,-0.5"/>
<text text-anchor="start" x="1445.11" y="-20.3599" font-family="Helvetica Neue" font-size="10.00">DatabaseKit/DBCreateTable</text>
<text text-anchor="middle" x="1507.62" y="-8.42993" font-family="Helvetica Neue" font-size="10.00">Query.h</text>
</g>
<!-- Node1&#45;&gt;Node11 -->
<g id="edge10" class="edge"><title>Node1&#45;&gt;Node11</title>
<path fill="none" stroke="midnightblue" d="M1209.84,-69.3207C1263.35,-60.7982 1345.73,-47.4117 1427.06,-32.9335"/>
<polygon fill="midnightblue" stroke="midnightblue" points="1427.74,-36.3672 1436.97,-31.1627 1426.51,-29.4763 1427.74,-36.3672"/>
</g>
<!-- Node12 -->
<g id="node12" class="node"><title>Node12</title>
<polygon fill="none" stroke="#bfbfbf" points="1596.48,-6.46497 1596.48,-26.3949 1746.76,-26.3949 1746.76,-6.46497 1596.48,-6.46497"/>
<text text-anchor="middle" x="1671.62" y="-14.3949" font-family="Helvetica Neue" font-size="10.00">DatabaseKit/DBSelectQuery.h</text>
</g>
<!-- Node1&#45;&gt;Node12 -->
<g id="edge11" class="edge"><title>Node1&#45;&gt;Node12</title>
<path fill="none" stroke="midnightblue" d="M1209.8,-73.7716C1293.13,-66.8135 1452.71,-52.2709 1587.62,-32.8599 1596.99,-31.512 1606.91,-29.8771 1616.52,-28.1821"/>
<polygon fill="midnightblue" stroke="midnightblue" points="1617.17,-31.6215 1626.39,-26.4034 1615.93,-24.7325 1617.17,-31.6215"/>
</g>
<!-- Node13 -->
<g id="node13" class="node"><title>Node13</title>
<polygon fill="none" stroke="#bfbfbf" points="1764.96,-6.46497 1764.96,-26.3949 1912.28,-26.3949 1912.28,-6.46497 1764.96,-6.46497"/>
<text text-anchor="middle" x="1838.62" y="-14.3949" font-family="Helvetica Neue" font-size="10.00">DatabaseKit/DBInsertQuery.h</text>
</g>
<!-- Node1&#45;&gt;Node13 -->
<g id="edge12" class="edge"><title>Node1&#45;&gt;Node13</title>
<path fill="none" stroke="midnightblue" d="M1209.78,-76.0846C1317.11,-71.4194 1556,-58.8625 1755.62,-32.8599 1765.22,-31.6093 1775.39,-29.9769 1785.2,-28.2428"/>
<polygon fill="midnightblue" stroke="midnightblue" points="1786.04,-31.6471 1795.25,-26.4107 1784.79,-24.7606 1786.04,-31.6471"/>
</g>
<!-- Node14 -->
<g id="node14" class="node"><title>Node14</title>
<polygon fill="none" stroke="#bfbfbf" points="1930.2,-6.46497 1930.2,-26.3949 2081.04,-26.3949 2081.04,-6.46497 1930.2,-6.46497"/>
<text text-anchor="middle" x="2005.62" y="-14.3949" font-family="Helvetica Neue" font-size="10.00">DatabaseKit/DBDeleteQuery.h</text>
</g>
<!-- Node1&#45;&gt;Node14 -->
<g id="edge13" class="edge"><title>Node1&#45;&gt;Node14</title>
<path fill="none" stroke="midnightblue" d="M1209.75,-77.3399C1337.68,-74.6116 1656.74,-64.8955 1921.62,-32.8599 1931.56,-31.6582 1942.09,-30.0174 1952.22,-28.2528"/>
<polygon fill="midnightblue" stroke="midnightblue" points="1952.96,-31.6767 1962.18,-26.4584 1951.72,-24.7877 1952.96,-31.6767"/>
</g>
<!-- Node15 -->
<g id="node15" class="node"><title>Node15</title>
<polygon fill="none" stroke="#bfbfbf" points="2098.65,-0.5 2098.65,-32.3599 2230.59,-32.3599 2230.59,-0.5 2098.65,-0.5"/>
<text text-anchor="start" x="2106.65" y="-20.3599" font-family="Helvetica Neue" font-size="10.00">DatabaseKit/DBAlterTable</text>
<text text-anchor="middle" x="2164.62" y="-8.42993" font-family="Helvetica Neue" font-size="10.00">Query.h</text>
</g>
<!-- Node1&#45;&gt;Node15 -->
<g id="edge14" class="edge"><title>Node1&#45;&gt;Node15</title>
<path fill="none" stroke="midnightblue" d="M1209.66,-78.6138C1354.87,-78.6949 1750.35,-74.8172 2088.47,-32.8708"/>
<polygon fill="midnightblue" stroke="midnightblue" points="2088.97,-36.3356 2098.46,-31.6186 2088.1,-29.39 2088.97,-36.3356"/>
</g>
<!-- Node16 -->
<g id="node16" class="node"><title>Node16</title>
<polygon fill="none" stroke="#bfbfbf" points="2248.77,-6.46497 2248.77,-26.3949 2416.47,-26.3949 2416.47,-6.46497 2248.77,-6.46497"/>
<text text-anchor="middle" x="2332.62" y="-14.3949" font-family="Helvetica Neue" font-size="10.00">DatabaseKit/DBDropTableQuery.h</text>
</g>
<!-- Node1&#45;&gt;Node16 -->
<g id="edge15" class="edge"><title>Node1&#45;&gt;Node16</title>
<path fill="none" stroke="midnightblue" d="M1209.67,-78.3982C1371.5,-78.0768 1847.19,-73.4666 2239.62,-32.8599 2251.2,-31.6612 2263.53,-29.9368 2275.3,-28.0715"/>
<polygon fill="midnightblue" stroke="midnightblue" points="2276.16,-31.4775 2285.46,-26.4057 2275.03,-24.5697 2276.16,-31.4775"/>
</g>
</g>
</svg>
        <g id="navigator" transform="translate(0 0)" fill="#404254">
                <rect fill="#f2f5e9" fill-opacity="0.5" stroke="#606060" stroke-width=".5" x="0" y="0" width="60" height="60"/>
                <use id="zoomplus" xlink:href="#zoomPlus" x="17" y="9" onmousedown="handleZoom(evt,'in')"/>
                <use id="zoomminus" xlink:href="#zoomMin" x="42" y="9" onmousedown="handleZoom(evt,'out')"/>
                <use id="reset" xlink:href="#resetDef" x="30" y="36" onmousedown="handleReset()"/>
                <g id="arrowUp" xlink:href="#dirArrow" transform="translate(30 24)" onmousedown="handlePan(0,-1)">
                  <use xlink:href="#rim" fill="#404040">
                        <set attributeName="fill" to="#808080" begin="arrowUp.mouseover" end="arrowUp.mouseout"/>
                  </use>
                  <path fill="none" stroke="white" stroke-width="1.5" d="M0,-3.0v7 M-2.5,-0.5L0,-3.0L2.5,-0.5"/>
                </g>
                <g id="arrowRight" xlink:href="#dirArrow" transform="rotate(90) translate(36 -43)" onmousedown="handlePan(1,0)">
                  <use xlink:href="#rim" fill="#404040">
                        <set attributeName="fill" to="#808080" begin="arrowRight.mouseover" end="arrowRight.mouseout"/>
                  </use>
                  <path fill="none" stroke="white" stroke-width="1.5" d="M0,-3.0v7 M-2.5,-0.5L0,-3.0L2.5,-0.5"/>
                </g>
                <g id="arrowDown" xlink:href="#dirArrow" transform="rotate(180) translate(-30 -48)" onmousedown="handlePan(0,1)">
                  <use xlink:href="#rim" fill="#404040">
                        <set attributeName="fill" to="#808080" begin="arrowDown.mouseover" end="arrowDown.mouseout"/>
                  </use>
                  <path fill="none" stroke="white" stroke-width="1.5" d="M0,-3.0v7 M-2.5,-0.5L0,-3.0L2.5,-0.5"/>
                </g>
                <g id="arrowLeft" xlink:href="#dirArrow" transform="rotate(270) translate(-36 17)" onmousedown="handlePan(-1,0)">
                  <use xlink:href="#rim" fill="#404040">
                        <set attributeName="fill" to="#808080" begin="arrowLeft.mouseover" end="arrowLeft.mouseout"/>
                  </use>
                  <path fill="none" stroke="white" stroke-width="1.5" d="M0,-3.0v7 M-2.5,-0.5L0,-3.0L2.5,-0.5"/>
                </g>
        </g>
        <svg viewBox="0 0 15 15" width="100%" height="30px" preserveAspectRatio="xMaxYMin meet">
         <g id="arrow_out" transform="scale(0.3 0.3)">
          <a xlink:href="_database_kit_8h__incl_org.svg" target="_base">
           <rect id="button" ry="5" rx="5" y="6" x="6" height="38" width="38"
                fill="#f2f5e9" fill-opacity="0.5" stroke="#606060" stroke-width="1.0"/>
           <path id="arrow"
             d="M 11.500037,31.436501 C 11.940474,20.09759 22.043105,11.32322 32.158766,21.979434 L 37.068811,17.246167 C 37.068811,17.246167 37.088388,32 37.088388,32 L 22.160133,31.978069 C 22.160133,31.978069 26.997745,27.140456 26.997745,27.140456 C 18.528582,18.264221 13.291696,25.230495 11.500037,31.436501 z"
             style="fill:#404040;"/>
          </a>
         </g>
        </svg>
</svg>
