<?xml version="1.0" encoding="UTF-8" standalone="no"?>
<!DOCTYPE svg PUBLIC "-//W3C//DTD SVG 1.1//EN"
 "http://www.w3.org/Graphics/SVG/1.1/DTD/svg11.dtd">
<!-- Generated by graphviz version 2.38.0 (20140413.2041)
 -->
<!-- Title: Source/Utilities/NSString+DBAdditions.m Pages: 1 -->
<svg width="336pt" height="155pt"
 viewBox="0.00 0.00 335.64 154.72" xmlns="http://www.w3.org/2000/svg" xmlns:xlink="http://www.w3.org/1999/xlink">
<g id="graph0" class="graph" transform="scale(1 1) rotate(0) translate(4 150.72)">
<title>Source/Utilities/NSString+DBAdditions.m</title>
<!-- Node1 -->
<g id="node1" class="node"><title>Node1</title>
<polygon fill="#bfbfbf" stroke="black" points="140.6,-114.36 140.6,-146.22 267.88,-146.22 267.88,-114.36 140.6,-114.36"/>
<text text-anchor="start" x="148.6" y="-134.22" font-family="Helvetica Neue" font-size="10.00">Source/Utilities/NSString</text>
<text text-anchor="middle" x="204.24" y="-122.29" font-family="Helvetica Neue" font-size="10.00">+DBAdditions.m</text>
</g>
<!-- Node2 -->
<g id="node2" class="node"><title>Node2</title>
<g id="a_node2"><a xlink:href="_n_s_string_09_d_b_additions_8h.html" target="_top" xlink:title="NSString+DBAdditions.h">
<polygon fill="none" stroke="black" points="81.92,-57.4299 81.92,-77.3599 208.56,-77.3599 208.56,-57.4299 81.92,-57.4299"/>
<text text-anchor="middle" x="145.24" y="-65.3599" font-family="Helvetica Neue" font-size="10.00">NSString+DBAdditions.h</text>
</a>
</g>
</g>
<!-- Node1&#45;&gt;Node2 -->
<g id="edge1" class="edge"><title>Node1&#45;&gt;Node2</title>
<path fill="none" stroke="midnightblue" d="M189.656,-114.237C180.999,-105.302 170.016,-93.9671 161.138,-84.8038"/>
<polygon fill="midnightblue" stroke="midnightblue" points="163.461,-82.1717 153.989,-77.4252 158.434,-87.0426 163.461,-82.1717"/>
</g>
<!-- Node5 -->
<g id="node5" class="node"><title>Node5</title>
<g id="a_node5"><a xlink:href="_d_b_inflector_8h.html" target="_top" xlink:title="DBInflector.h">
<polygon fill="none" stroke="black" points="226.44,-57.4299 226.44,-77.3599 300.04,-77.3599 300.04,-57.4299 226.44,-57.4299"/>
<text text-anchor="middle" x="263.24" y="-65.3599" font-family="Helvetica Neue" font-size="10.00">DBInflector.h</text>
</a>
</g>
</g>
<!-- Node1&#45;&gt;Node5 -->
<g id="edge4" class="edge"><title>Node1&#45;&gt;Node5</title>
<path fill="none" stroke="midnightblue" d="M218.824,-114.237C227.481,-105.302 238.464,-93.9671 247.342,-84.8038"/>
<polygon fill="midnightblue" stroke="midnightblue" points="250.046,-87.0426 254.491,-77.4252 245.019,-82.1717 250.046,-87.0426"/>
</g>
<!-- Node3 -->
<g id="node3" class="node"><title>Node3</title>
<polygon fill="none" stroke="#bfbfbf" points="1.42109e-14,-0.5 1.42109e-14,-20.4299 180.48,-20.4299 180.48,-0.5 1.42109e-14,-0.5"/>
<text text-anchor="middle" x="90.24" y="-8.42993" font-family="Helvetica Neue" font-size="10.00">DatabaseKit/DBSQLRepresentable.h</text>
</g>
<!-- Node2&#45;&gt;Node3 -->
<g id="edge2" class="edge"><title>Node2&#45;&gt;Node3</title>
<path fill="none" stroke="midnightblue" d="M136.158,-57.3243C128.165,-49.3416 116.33,-37.5221 106.678,-27.8818"/>
<polygon fill="midnightblue" stroke="midnightblue" points="109.068,-25.3227 99.5195,-20.7326 104.122,-30.2756 109.068,-25.3227"/>
</g>
<!-- Node4 -->
<g id="node4" class="node"><title>Node4</title>
<polygon fill="none" stroke="#bfbfbf" points="198.835,-0.5 198.835,-20.4299 327.645,-20.4299 327.645,-0.5 198.835,-0.5"/>
<text text-anchor="middle" x="263.24" y="-8.42993" font-family="Helvetica Neue" font-size="10.00">Foundation/Foundation.h</text>
</g>
<!-- Node2&#45;&gt;Node4 -->
<g id="edge3" class="edge"><title>Node2&#45;&gt;Node4</title>
<path fill="none" stroke="midnightblue" d="M164.725,-57.3243C183.77,-48.4587 212.982,-34.8604 234.656,-24.7709"/>
<polygon fill="midnightblue" stroke="midnightblue" points="236.137,-27.9423 243.726,-20.549 233.183,-21.5962 236.137,-27.9423"/>
</g>
<!-- Node5&#45;&gt;Node4 -->
<g id="edge5" class="edge"><title>Node5&#45;&gt;Node4</title>
<path fill="none" stroke="midnightblue" d="M263.24,-57.3243C263.24,-50.132 263.24,-39.825 263.24,-30.8035"/>
<polygon fill="midnightblue" stroke="midnightblue" points="266.74,-30.7326 263.24,-20.7326 259.74,-30.7326 266.74,-30.7326"/>
</g>
</g>
</svg>
