<?xml version="1.0" encoding="UTF-8" standalone="no"?>
<!DOCTYPE svg PUBLIC "-//W3C//DTD SVG 1.1//EN"
 "http://www.w3.org/Graphics/SVG/1.1/DTD/svg11.dtd">
<!-- Generated by graphviz version 2.38.0 (20140413.2041)
 -->
<!-- Title: Source/Utilities/NSString+DBAdditions.h Pages: 1 -->
<svg width="336pt" height="98pt"
 viewBox="0.00 0.00 335.64 97.79" xmlns="http://www.w3.org/2000/svg" xmlns:xlink="http://www.w3.org/1999/xlink">
<g id="graph0" class="graph" transform="scale(1 1) rotate(0) translate(4 93.7898)">
<title>Source/Utilities/NSString+DBAdditions.h</title>
<!-- Node1 -->
<g id="node1" class="node"><title>Node1</title>
<polygon fill="#bfbfbf" stroke="black" points="112.6,-57.4299 112.6,-89.2898 239.88,-89.2898 239.88,-57.4299 112.6,-57.4299"/>
<text text-anchor="start" x="120.6" y="-77.2898" font-family="Helvetica Neue" font-size="10.00">Source/Utilities/NSString</text>
<text text-anchor="middle" x="176.24" y="-65.3599" font-family="Helvetica Neue" font-size="10.00">+DBAdditions.h</text>
</g>
<!-- Node2 -->
<g id="node2" class="node"><title>Node2</title>
<polygon fill="none" stroke="#bfbfbf" points="1.42109e-14,-0.5 1.42109e-14,-20.4299 180.48,-20.4299 180.48,-0.5 1.42109e-14,-0.5"/>
<text text-anchor="middle" x="90.24" y="-8.42993" font-family="Helvetica Neue" font-size="10.00">DatabaseKit/DBSQLRepresentable.h</text>
</g>
<!-- Node1&#45;&gt;Node2 -->
<g id="edge1" class="edge"><title>Node1&#45;&gt;Node2</title>
<path fill="none" stroke="midnightblue" d="M154.982,-57.3072C141.726,-47.921 124.729,-35.886 111.477,-26.5027"/>
<polygon fill="midnightblue" stroke="midnightblue" points="113.177,-23.4177 102.993,-20.4953 109.132,-29.1306 113.177,-23.4177"/>
</g>
<!-- Node3 -->
<g id="node3" class="node"><title>Node3</title>
<polygon fill="none" stroke="#bfbfbf" points="198.835,-0.5 198.835,-20.4299 327.645,-20.4299 327.645,-0.5 198.835,-0.5"/>
<text text-anchor="middle" x="263.24" y="-8.42993" font-family="Helvetica Neue" font-size="10.00">Foundation/Foundation.h</text>
</g>
<!-- Node1&#45;&gt;Node3 -->
<g id="edge2" class="edge"><title>Node1&#45;&gt;Node3</title>
<path fill="none" stroke="midnightblue" d="M197.746,-57.3072C211.285,-47.8308 228.681,-35.6543 242.141,-26.2327"/>
<polygon fill="midnightblue" stroke="midnightblue" points="244.153,-29.097 250.338,-20.4953 240.139,-23.3622 244.153,-29.097"/>
</g>
</g>
</svg>
