<?xml version="1.0" encoding="UTF-8" standalone="no"?>
<!DOCTYPE svg PUBLIC "-//W3C//DTD SVG 1.1//EN"
 "http://www.w3.org/Graphics/SVG/1.1/DTD/svg11.dtd">
<!-- Generated by graphviz version 2.38.0 (20140413.2041)
 -->
<!-- Title: Source/Utilities/NSPredicate+DBSQLRepresentable.h Pages: 1 -->
<svg width="866pt" height="110pt"
 viewBox="0.00 0.00 865.91 109.72" xmlns="http://www.w3.org/2000/svg" xmlns:xlink="http://www.w3.org/1999/xlink">
<g id="graph0" class="graph" transform="scale(1 1) rotate(0) translate(4 105.72)">
<title>Source/Utilities/NSPredicate+DBSQLRepresentable.h</title>
<!-- Node1 -->
<g id="node1" class="node"><title>Node1</title>
<polygon fill="#bfbfbf" stroke="black" points="368.705,-69.3599 368.705,-101.22 511.915,-101.22 511.915,-69.3599 368.705,-69.3599"/>
<text text-anchor="start" x="376.705" y="-89.2197" font-family="Helvetica Neue" font-size="10.00">Source/Utilities/NSPredicate</text>
<text text-anchor="middle" x="440.31" y="-77.2898" font-family="Helvetica Neue" font-size="10.00">+DBSQLRepresentable.h</text>
</g>
<!-- Node2 -->
<g id="node2" class="node"><title>Node2</title>
<g id="a_node2"><a xlink:href="_d_b_delete_query_8m.html" target="_top" xlink:title="Source/Queries/DBDeleteQuery.m">
<polygon fill="none" stroke="black" points="0,-6.46497 0,-26.3949 168.62,-26.3949 168.62,-6.46497 0,-6.46497"/>
<text text-anchor="middle" x="84.31" y="-14.3949" font-family="Helvetica Neue" font-size="10.00">Source/Queries/DBDeleteQuery.m</text>
</a>
</g>
</g>
<!-- Node1&#45;&gt;Node2 -->
<g id="edge1" class="edge"><title>Node1&#45;&gt;Node2</title>
<path fill="none" stroke="midnightblue" d="M358.58,-68.9402C288.561,-55.79 190.115,-37.3011 132.19,-26.4222"/>
<polygon fill="midnightblue" stroke="midnightblue" points="358.222,-72.4341 368.696,-70.8401 359.514,-65.5544 358.222,-72.4341"/>
</g>
<!-- Node3 -->
<g id="node3" class="node"><title>Node3</title>
<g id="a_node3"><a xlink:href="_d_b_insert_query_8m.html" target="_top" xlink:title="Source/Queries/DBInsertQuery.m">
<polygon fill="none" stroke="black" points="186.76,-6.46497 186.76,-26.3949 351.86,-26.3949 351.86,-6.46497 186.76,-6.46497"/>
<text text-anchor="middle" x="269.31" y="-14.3949" font-family="Helvetica Neue" font-size="10.00">Source/Queries/DBInsertQuery.m</text>
</a>
</g>
</g>
<!-- Node1&#45;&gt;Node3 -->
<g id="edge2" class="edge"><title>Node1&#45;&gt;Node3</title>
<path fill="none" stroke="midnightblue" d="M392.539,-65.6115C359.817,-52.8177 317.874,-36.4183 292.326,-26.429"/>
<polygon fill="midnightblue" stroke="midnightblue" points="391.346,-68.9033 401.934,-69.2851 393.895,-62.3839 391.346,-68.9033"/>
</g>
<!-- Node4 -->
<g id="node4" class="node"><title>Node4</title>
<g id="a_node4"><a xlink:href="_d_b_query_8m.html" target="_top" xlink:title="Source/Queries/DBQuery.m">
<polygon fill="none" stroke="black" points="370.26,-6.46497 370.26,-26.3949 510.36,-26.3949 510.36,-6.46497 370.26,-6.46497"/>
<text text-anchor="middle" x="440.31" y="-14.3949" font-family="Helvetica Neue" font-size="10.00">Source/Queries/DBQuery.m</text>
</a>
</g>
</g>
<!-- Node1&#45;&gt;Node4 -->
<g id="edge3" class="edge"><title>Node1&#45;&gt;Node4</title>
<path fill="none" stroke="midnightblue" d="M440.31,-58.835C440.31,-47.5027 440.31,-34.872 440.31,-26.5754"/>
<polygon fill="midnightblue" stroke="midnightblue" points="436.81,-59.1182 440.31,-69.1183 443.81,-59.1183 436.81,-59.1182"/>
</g>
<!-- Node5 -->
<g id="node5" class="node"><title>Node5</title>
<g id="a_node5"><a xlink:href="_d_b_select_query_8m.html" target="_top" xlink:title="Source/Queries/DBSelectQuery.m">
<polygon fill="none" stroke="black" points="528.28,-6.46497 528.28,-26.3949 696.34,-26.3949 696.34,-6.46497 528.28,-6.46497"/>
<text text-anchor="middle" x="612.31" y="-14.3949" font-family="Helvetica Neue" font-size="10.00">Source/Queries/DBSelectQuery.m</text>
</a>
</g>
</g>
<!-- Node1&#45;&gt;Node5 -->
<g id="edge4" class="edge"><title>Node1&#45;&gt;Node5</title>
<path fill="none" stroke="midnightblue" d="M488.361,-65.6115C521.273,-52.8177 563.462,-36.4183 589.159,-26.429"/>
<polygon fill="midnightblue" stroke="midnightblue" points="486.963,-62.3998 478.91,-69.2851 489.499,-68.9242 486.963,-62.3998"/>
</g>
<!-- Node6 -->
<g id="node6" class="node"><title>Node6</title>
<g id="a_node6"><a xlink:href="_n_s_predicate_09_d_b_s_q_l_representable_8m.html" target="_top" xlink:title="Source/Utilities/NSPredicate\l+DBSQLRepresentable.m">
<polygon fill="none" stroke="black" points="714.705,-0.5 714.705,-32.3599 857.915,-32.3599 857.915,-0.5 714.705,-0.5"/>
<text text-anchor="start" x="722.705" y="-20.3599" font-family="Helvetica Neue" font-size="10.00">Source/Utilities/NSPredicate</text>
<text text-anchor="middle" x="786.31" y="-8.42993" font-family="Helvetica Neue" font-size="10.00">+DBSQLRepresentable.m</text>
</a>
</g>
</g>
<!-- Node1&#45;&gt;Node6 -->
<g id="edge5" class="edge"><title>Node1&#45;&gt;Node6</title>
<path fill="none" stroke="midnightblue" d="M521.939,-68.516C580.376,-57.2239 658.319,-42.1625 714.413,-31.323"/>
<polygon fill="midnightblue" stroke="midnightblue" points="521.156,-65.1026 512.001,-70.4364 522.484,-71.9755 521.156,-65.1026"/>
</g>
</g>
</svg>
