<?xml version="1.0" encoding="UTF-8" standalone="no"?>
<!DOCTYPE svg PUBLIC "-//W3C//DTD SVG 1.1//EN"
 "http://www.w3.org/Graphics/SVG/1.1/DTD/svg11.dtd">
<!-- Generated by graphviz version 2.38.0 (20140413.2041)
 -->
<!-- Title: Source/Utilities/NSPredicate+DBSQLRepresentable.h Pages: 1 -->
<svg width="336pt" height="98pt"
 viewBox="0.00 0.00 335.64 97.79" xmlns="http://www.w3.org/2000/svg" xmlns:xlink="http://www.w3.org/1999/xlink">
<g id="graph0" class="graph" transform="scale(1 1) rotate(0) translate(4 93.7898)">
<title>Source/Utilities/NSPredicate+DBSQLRepresentable.h</title>
<!-- Node1 -->
<g id="node1" class="node"><title>Node1</title>
<polygon fill="#bfbfbf" stroke="black" points="78.8,-57.4299 78.8,-89.2898 222.01,-89.2898 222.01,-57.4299 78.8,-57.4299"/>
<text text-anchor="start" x="86.8" y="-77.2898" font-family="Helvetica Neue" font-size="10.00">Source/Utilities/NSPredicate</text>
<text text-anchor="middle" x="150.405" y="-65.3599" font-family="Helvetica Neue" font-size="10.00">+DBSQLRepresentable.h</text>
</g>
<!-- Node2 -->
<g id="node2" class="node"><title>Node2</title>
<polygon fill="none" stroke="#bfbfbf" points="0,-0.5 0,-20.4299 128.81,-20.4299 128.81,-0.5 0,-0.5"/>
<text text-anchor="middle" x="64.405" y="-8.42993" font-family="Helvetica Neue" font-size="10.00">Foundation/Foundation.h</text>
</g>
<!-- Node1&#45;&gt;Node2 -->
<g id="edge1" class="edge"><title>Node1&#45;&gt;Node2</title>
<path fill="none" stroke="midnightblue" d="M129.147,-57.3072C115.891,-47.921 98.8941,-35.886 85.6423,-26.5027"/>
<polygon fill="midnightblue" stroke="midnightblue" points="87.3421,-23.4177 77.1582,-20.4953 83.2969,-29.1306 87.3421,-23.4177"/>
</g>
<!-- Node3 -->
<g id="node3" class="node"><title>Node3</title>
<polygon fill="none" stroke="#bfbfbf" points="147.165,-0.5 147.165,-20.4299 327.645,-20.4299 327.645,-0.5 147.165,-0.5"/>
<text text-anchor="middle" x="237.405" y="-8.42993" font-family="Helvetica Neue" font-size="10.00">DatabaseKit/DBSQLRepresentable.h</text>
</g>
<!-- Node1&#45;&gt;Node3 -->
<g id="edge2" class="edge"><title>Node1&#45;&gt;Node3</title>
<path fill="none" stroke="midnightblue" d="M171.911,-57.3072C185.45,-47.8308 202.846,-35.6543 216.306,-26.2327"/>
<polygon fill="midnightblue" stroke="midnightblue" points="218.318,-29.097 224.503,-20.4953 214.304,-23.3622 218.318,-29.097"/>
</g>
</g>
</svg>
