<?xml version="1.0" encoding="UTF-8" standalone="no"?>
<!DOCTYPE svg PUBLIC "-//W3C//DTD SVG 1.1//EN"
 "http://www.w3.org/Graphics/SVG/1.1/DTD/svg11.dtd">
<!-- Generated by graphviz version 2.38.0 (20140413.2041)
 -->
<!-- Title: Source/Utilities/NSCollections+DBAdditions.m Pages: 1 -->
<svg width="159pt" height="155pt"
 viewBox="0.00 0.00 158.61 154.72" xmlns="http://www.w3.org/2000/svg" xmlns:xlink="http://www.w3.org/1999/xlink">
<g id="graph0" class="graph" transform="scale(1 1) rotate(0) translate(4 150.72)">
<title>Source/Utilities/NSCollections+DBAdditions.m</title>
<!-- Node1 -->
<g id="node1" class="node"><title>Node1</title>
<polygon fill="#bfbfbf" stroke="black" points="0,-114.36 0,-146.22 150.61,-146.22 150.61,-114.36 0,-114.36"/>
<text text-anchor="start" x="8" y="-134.22" font-family="Helvetica Neue" font-size="10.00">Source/Utilities/NSCollections</text>
<text text-anchor="middle" x="75.305" y="-122.29" font-family="Helvetica Neue" font-size="10.00">+DBAdditions.m</text>
</g>
<!-- Node2 -->
<g id="node2" class="node"><title>Node2</title>
<g id="a_node2"><a xlink:href="_n_s_collections_09_d_b_additions_8h.html" target="_top" xlink:title="NSCollections+DBAdditions.h">
<polygon fill="none" stroke="black" points="0.32,-57.4299 0.32,-77.3599 150.29,-77.3599 150.29,-57.4299 0.32,-57.4299"/>
<text text-anchor="middle" x="75.305" y="-65.3599" font-family="Helvetica Neue" font-size="10.00">NSCollections+DBAdditions.h</text>
</a>
</g>
</g>
<!-- Node1&#45;&gt;Node2 -->
<g id="edge1" class="edge"><title>Node1&#45;&gt;Node2</title>
<path fill="none" stroke="midnightblue" d="M75.305,-114.237C75.305,-106.205 75.305,-96.2325 75.305,-87.6423"/>
<polygon fill="midnightblue" stroke="midnightblue" points="78.8051,-87.4252 75.305,-77.4252 71.8051,-87.4252 78.8051,-87.4252"/>
</g>
<!-- Node3 -->
<g id="node3" class="node"><title>Node3</title>
<polygon fill="none" stroke="#bfbfbf" points="10.9,-0.5 10.9,-20.4299 139.71,-20.4299 139.71,-0.5 10.9,-0.5"/>
<text text-anchor="middle" x="75.305" y="-8.42993" font-family="Helvetica Neue" font-size="10.00">Foundation/Foundation.h</text>
</g>
<!-- Node2&#45;&gt;Node3 -->
<g id="edge2" class="edge"><title>Node2&#45;&gt;Node3</title>
<path fill="none" stroke="midnightblue" d="M75.305,-57.3243C75.305,-50.132 75.305,-39.825 75.305,-30.8035"/>
<polygon fill="midnightblue" stroke="midnightblue" points="78.8051,-30.7326 75.305,-20.7326 71.8051,-30.7326 78.8051,-30.7326"/>
</g>
</g>
</svg>
