<?xml version="1.0" encoding="UTF-8" standalone="no"?>
<!DOCTYPE svg PUBLIC "-//W3C//DTD SVG 1.1//EN"
 "http://www.w3.org/Graphics/SVG/1.1/DTD/svg11.dtd">
<!-- Generated by graphviz version 2.38.0 (20140413.2041)
 -->
<!-- Title: Source/Utilities/NSPredicate+DBSQLRepresentable.m Pages: 1 -->
<!--zoomable 155 -->
<svg id="main" version="1.1" xmlns="http://www.w3.org/2000/svg" xmlns:xlink="http://www.w3.org/1999/xlink" xml:space="preserve" onload="init(evt)">
<style type="text/css"><![CDATA[
.edge:hover path { stroke: red; }
.edge:hover polygon { stroke: red; fill: red; }
]]></style>
<script type="text/javascript"><![CDATA[
var edges = document.getElementsByTagName('g');
if (edges && edges.length) {
  for (var i=0;i<edges.length;i++) {
    if (edges[i].id.substr(0,4)=='edge') {
      edges[i].setAttribute('class','edge');
    }
  }
}
]]></script>
        <defs>
                <circle id="rim" cx="0" cy="0" r="7"/>
                <circle id="rim2" cx="0" cy="0" r="3.5"/>
                <g id="zoomPlus">
                        <use xlink:href="#rim" fill="#404040">
                                <set attributeName="fill" to="#808080" begin="zoomplus.mouseover" end="zoomplus.mouseout"/>
                        </use>
                        <path d="M-4,0h8M0,-4v8" fill="none" stroke="white" stroke-width="1.5" pointer-events="none"/>
                </g>
                <g id="zoomMin">
                        <use xlink:href="#rim" fill="#404040">
                                <set attributeName="fill" to="#808080" begin="zoomminus.mouseover" end="zoomminus.mouseout"/>
                        </use>
                        <path d="M-4,0h8" fill="none" stroke="white" stroke-width="1.5" pointer-events="none"/>
                </g>
                <g id="dirArrow">
                        <path fill="none" stroke="white" stroke-width="1.5" d="M0,-3.0v7 M-2.5,-0.5L0,-3.0L2.5,-0.5"/>
                </g>
               <g id="resetDef">
                       <use xlink:href="#rim2" fill="#404040">
                               <set attributeName="fill" to="#808080" begin="reset.mouseover" end="reset.mouseout"/>
                       </use>
               </g>
        </defs>

<script type="text/javascript">
var viewWidth = 692;
var viewHeight = 155;
var sectionId = 'dynsection-0';
</script>
<script xlink:href="svgpan.js"/>
<svg id="graph" class="graph">
<g id="viewport">
<title>Source/Utilities/NSPredicate+DBSQLRepresentable.m</title>
<!-- Node1 -->
<g id="node1" class="node"><title>Node1</title>
<polygon fill="#bfbfbf" stroke="black" points="225.635,-114.36 225.635,-146.22 368.845,-146.22 368.845,-114.36 225.635,-114.36"/>
<text text-anchor="start" x="233.635" y="-134.22" font-family="Helvetica Neue" font-size="10.00">Source/Utilities/NSPredicate</text>
<text text-anchor="middle" x="297.24" y="-122.29" font-family="Helvetica Neue" font-size="10.00">+DBSQLRepresentable.m</text>
</g>
<!-- Node2 -->
<g id="node2" class="node"><title>Node2</title>
<g id="a_node2"><a xlink:href="_n_s_predicate_09_d_b_s_q_l_representable_8h.html" target="_top" xlink:title="NSPredicate+DBSQLRepresentable.h">
<polygon fill="none" stroke="black" points="28.93,-57.4299 28.93,-77.3599 213.55,-77.3599 213.55,-57.4299 28.93,-57.4299"/>
<text text-anchor="middle" x="121.24" y="-65.3599" font-family="Helvetica Neue" font-size="10.00">NSPredicate+DBSQLRepresentable.h</text>
</a>
</g>
</g>
<!-- Node1&#45;&gt;Node2 -->
<g id="edge1" class="edge"><title>Node1&#45;&gt;Node2</title>
<path fill="none" stroke="midnightblue" d="M253.734,-114.237C223.998,-103.948 185.062,-90.4771 157.105,-80.8041"/>
<polygon fill="midnightblue" stroke="midnightblue" points="157.934,-77.3874 147.34,-77.4252 155.646,-84.0026 157.934,-77.3874"/>
</g>
<!-- Node5 -->
<g id="node5" class="node"><title>Node5</title>
<g id="a_node5"><a xlink:href="_d_b_8h.html" target="_top" xlink:title="DB.h">
<polygon fill="none" stroke="black" points="313.125,-57.4299 313.125,-77.3599 351.355,-77.3599 351.355,-57.4299 313.125,-57.4299"/>
<text text-anchor="middle" x="332.24" y="-65.3599" font-family="Helvetica Neue" font-size="10.00">DB.h</text>
</a>
</g>
</g>
<!-- Node1&#45;&gt;Node5 -->
<g id="edge4" class="edge"><title>Node1&#45;&gt;Node5</title>
<path fill="none" stroke="midnightblue" d="M305.892,-114.237C310.768,-105.753 316.888,-95.1059 322.002,-86.2082"/>
<polygon fill="midnightblue" stroke="midnightblue" points="325.101,-87.8393 327.05,-77.4252 319.032,-84.3511 325.101,-87.8393"/>
</g>
<!-- Node6 -->
<g id="node6" class="node"><title>Node6</title>
<g id="a_node6"><a xlink:href="_d_b_table_8h.html" target="_top" xlink:title="DBTable.h">
<polygon fill="none" stroke="black" points="378.365,-57.4299 378.365,-77.3599 440.115,-77.3599 440.115,-57.4299 378.365,-57.4299"/>
<text text-anchor="middle" x="409.24" y="-65.3599" font-family="Helvetica Neue" font-size="10.00">DBTable.h</text>
</a>
</g>
</g>
<!-- Node1&#45;&gt;Node6 -->
<g id="edge6" class="edge"><title>Node1&#45;&gt;Node6</title>
<path fill="none" stroke="midnightblue" d="M324.925,-114.237C342.853,-104.49 366.034,-91.8863 383.551,-82.362"/>
<polygon fill="midnightblue" stroke="midnightblue" points="385.518,-85.2768 392.631,-77.4252 382.174,-79.127 385.518,-85.2768"/>
</g>
<!-- Node9 -->
<g id="node9" class="node"><title>Node9</title>
<g id="a_node9"><a xlink:href="_d_b_query_8h.html" target="_top" xlink:title="DBQuery.h">
<polygon fill="none" stroke="black" points="231.065,-57.4299 231.065,-77.3599 295.415,-77.3599 295.415,-57.4299 231.065,-57.4299"/>
<text text-anchor="middle" x="263.24" y="-65.3599" font-family="Helvetica Neue" font-size="10.00">DBQuery.h</text>
</a>
</g>
</g>
<!-- Node1&#45;&gt;Node9 -->
<g id="edge10" class="edge"><title>Node1&#45;&gt;Node9</title>
<path fill="none" stroke="midnightblue" d="M288.836,-114.237C284.099,-105.753 278.154,-95.1059 273.186,-86.2082"/>
<polygon fill="midnightblue" stroke="midnightblue" points="276.213,-84.4502 268.282,-77.4252 270.101,-87.8627 276.213,-84.4502"/>
</g>
<!-- Node3 -->
<g id="node3" class="node"><title>Node3</title>
<polygon fill="none" stroke="#bfbfbf" points="198.835,-0.5 198.835,-20.4299 327.645,-20.4299 327.645,-0.5 198.835,-0.5"/>
<text text-anchor="middle" x="263.24" y="-8.42993" font-family="Helvetica Neue" font-size="10.00">Foundation/Foundation.h</text>
</g>
<!-- Node2&#45;&gt;Node3 -->
<g id="edge2" class="edge"><title>Node2&#45;&gt;Node3</title>
<path fill="none" stroke="midnightblue" d="M144.688,-57.3243C168.018,-48.2996 204.025,-34.371 230.237,-24.2314"/>
<polygon fill="midnightblue" stroke="midnightblue" points="231.693,-27.4211 239.757,-20.549 229.167,-20.8926 231.693,-27.4211"/>
</g>
<!-- Node4 -->
<g id="node4" class="node"><title>Node4</title>
<polygon fill="none" stroke="#bfbfbf" points="1.42109e-14,-0.5 1.42109e-14,-20.4299 180.48,-20.4299 180.48,-0.5 1.42109e-14,-0.5"/>
<text text-anchor="middle" x="90.24" y="-8.42993" font-family="Helvetica Neue" font-size="10.00">DatabaseKit/DBSQLRepresentable.h</text>
</g>
<!-- Node2&#45;&gt;Node4 -->
<g id="edge3" class="edge"><title>Node2&#45;&gt;Node4</title>
<path fill="none" stroke="midnightblue" d="M116.121,-57.3243C111.884,-49.8159 105.73,-38.9128 100.487,-29.6217"/>
<polygon fill="midnightblue" stroke="midnightblue" points="103.433,-27.7212 95.4702,-20.7326 97.3371,-31.1617 103.433,-27.7212"/>
</g>
<!-- Node5&#45;&gt;Node3 -->
<g id="edge5" class="edge"><title>Node5&#45;&gt;Node3</title>
<path fill="none" stroke="midnightblue" d="M320.846,-57.3243C310.521,-49.1045 295.085,-36.8165 282.79,-27.0287"/>
<polygon fill="midnightblue" stroke="midnightblue" points="284.885,-24.2226 274.881,-20.7326 280.525,-29.6992 284.885,-24.2226"/>
</g>
<!-- Node6&#45;&gt;Node3 -->
<g id="edge9" class="edge"><title>Node6&#45;&gt;Node3</title>
<path fill="none" stroke="midnightblue" d="M385.131,-57.3243C361.038,-48.2599 323.796,-34.2482 296.817,-24.0977"/>
<polygon fill="midnightblue" stroke="midnightblue" points="297.977,-20.7946 287.385,-20.549 295.512,-27.3462 297.977,-20.7946"/>
</g>
<!-- Node7 -->
<g id="node7" class="node"><title>Node7</title>
<polygon fill="none" stroke="#bfbfbf" points="345.395,-0.5 345.395,-20.4299 493.085,-20.4299 493.085,-0.5 345.395,-0.5"/>
<text text-anchor="middle" x="419.24" y="-8.42993" font-family="Helvetica Neue" font-size="10.00">DatabaseKit/DBConnection.h</text>
</g>
<!-- Node6&#45;&gt;Node7 -->
<g id="edge7" class="edge"><title>Node6&#45;&gt;Node7</title>
<path fill="none" stroke="midnightblue" d="M410.891,-57.3243C412.201,-50.132 414.077,-39.825 415.719,-30.8035"/>
<polygon fill="midnightblue" stroke="midnightblue" points="419.205,-31.1978 417.553,-20.7326 412.318,-29.944 419.205,-31.1978"/>
</g>
<!-- Node8 -->
<g id="node8" class="node"><title>Node8</title>
<polygon fill="none" stroke="#bfbfbf" points="510.705,-0.5 510.705,-20.4299 683.775,-20.4299 683.775,-0.5 510.705,-0.5"/>
<text text-anchor="middle" x="597.24" y="-8.42993" font-family="Helvetica Neue" font-size="10.00">DatabaseKit/DBColumnDefinition.h</text>
</g>
<!-- Node6&#45;&gt;Node8 -->
<g id="edge8" class="edge"><title>Node6&#45;&gt;Node8</title>
<path fill="none" stroke="midnightblue" d="M440.284,-57.3243C472.083,-48.0334 521.671,-33.5448 556.583,-23.3441"/>
<polygon fill="midnightblue" stroke="midnightblue" points="557.845,-26.6219 566.462,-20.4577 555.882,-19.9028 557.845,-26.6219"/>
</g>
<!-- Node9&#45;&gt;Node3 -->
<g id="edge13" class="edge"><title>Node9&#45;&gt;Node3</title>
<path fill="none" stroke="midnightblue" d="M263.24,-57.3243C263.24,-50.132 263.24,-39.825 263.24,-30.8035"/>
<polygon fill="midnightblue" stroke="midnightblue" points="266.74,-30.7326 263.24,-20.7326 259.74,-30.7326 266.74,-30.7326"/>
</g>
<!-- Node9&#45;&gt;Node4 -->
<g id="edge12" class="edge"><title>Node9&#45;&gt;Node4</title>
<path fill="none" stroke="midnightblue" d="M234.673,-57.3243C205.662,-48.1131 160.562,-33.7932 128.483,-23.6077"/>
<polygon fill="midnightblue" stroke="midnightblue" points="129.153,-20.1481 118.562,-20.4577 127.034,-26.8199 129.153,-20.1481"/>
</g>
<!-- Node9&#45;&gt;Node7 -->
<g id="edge11" class="edge"><title>Node9&#45;&gt;Node7</title>
<path fill="none" stroke="midnightblue" d="M289,-57.3243C314.933,-48.1929 355.125,-34.0408 384.001,-23.8732"/>
<polygon fill="midnightblue" stroke="midnightblue" points="385.431,-27.0804 393.701,-20.4577 383.106,-20.4777 385.431,-27.0804"/>
</g>
</g>
</svg>
        <g id="navigator" transform="translate(0 0)" fill="#404254">
                <rect fill="#f2f5e9" fill-opacity="0.5" stroke="#606060" stroke-width=".5" x="0" y="0" width="60" height="60"/>
                <use id="zoomplus" xlink:href="#zoomPlus" x="17" y="9" onmousedown="handleZoom(evt,'in')"/>
                <use id="zoomminus" xlink:href="#zoomMin" x="42" y="9" onmousedown="handleZoom(evt,'out')"/>
                <use id="reset" xlink:href="#resetDef" x="30" y="36" onmousedown="handleReset()"/>
                <g id="arrowUp" xlink:href="#dirArrow" transform="translate(30 24)" onmousedown="handlePan(0,-1)">
                  <use xlink:href="#rim" fill="#404040">
                        <set attributeName="fill" to="#808080" begin="arrowUp.mouseover" end="arrowUp.mouseout"/>
                  </use>
                  <path fill="none" stroke="white" stroke-width="1.5" d="M0,-3.0v7 M-2.5,-0.5L0,-3.0L2.5,-0.5"/>
                </g>
                <g id="arrowRight" xlink:href="#dirArrow" transform="rotate(90) translate(36 -43)" onmousedown="handlePan(1,0)">
                  <use xlink:href="#rim" fill="#404040">
                        <set attributeName="fill" to="#808080" begin="arrowRight.mouseover" end="arrowRight.mouseout"/>
                  </use>
                  <path fill="none" stroke="white" stroke-width="1.5" d="M0,-3.0v7 M-2.5,-0.5L0,-3.0L2.5,-0.5"/>
                </g>
                <g id="arrowDown" xlink:href="#dirArrow" transform="rotate(180) translate(-30 -48)" onmousedown="handlePan(0,1)">
                  <use xlink:href="#rim" fill="#404040">
                        <set attributeName="fill" to="#808080" begin="arrowDown.mouseover" end="arrowDown.mouseout"/>
                  </use>
                  <path fill="none" stroke="white" stroke-width="1.5" d="M0,-3.0v7 M-2.5,-0.5L0,-3.0L2.5,-0.5"/>
                </g>
                <g id="arrowLeft" xlink:href="#dirArrow" transform="rotate(270) translate(-36 17)" onmousedown="handlePan(-1,0)">
                  <use xlink:href="#rim" fill="#404040">
                        <set attributeName="fill" to="#808080" begin="arrowLeft.mouseover" end="arrowLeft.mouseout"/>
                  </use>
                  <path fill="none" stroke="white" stroke-width="1.5" d="M0,-3.0v7 M-2.5,-0.5L0,-3.0L2.5,-0.5"/>
                </g>
        </g>
        <svg viewBox="0 0 15 15" width="100%" height="30px" preserveAspectRatio="xMaxYMin meet">
         <g id="arrow_out" transform="scale(0.3 0.3)">
          <a xlink:href="_n_s_predicate_09_d_b_s_q_l_representable_8m__incl_org.svg" target="_base">
           <rect id="button" ry="5" rx="5" y="6" x="6" height="38" width="38"
                fill="#f2f5e9" fill-opacity="0.5" stroke="#606060" stroke-width="1.0"/>
           <path id="arrow"
             d="M 11.500037,31.436501 C 11.940474,20.09759 22.043105,11.32322 32.158766,21.979434 L 37.068811,17.246167 C 37.068811,17.246167 37.088388,32 37.088388,32 L 22.160133,31.978069 C 22.160133,31.978069 26.997745,27.140456 26.997745,27.140456 C 18.528582,18.264221 13.291696,25.230495 11.500037,31.436501 z"
             style="fill:#404040;"/>
          </a>
         </g>
        </svg>
</svg>
