<?xml version="1.0" encoding="UTF-8" standalone="no"?>
<!DOCTYPE svg PUBLIC "-//W3C//DTD SVG 1.1//EN"
 "http://www.w3.org/Graphics/SVG/1.1/DTD/svg11.dtd">
<!-- Generated by graphviz version 2.38.0 (20140413.2041)
 -->
<!-- Title: Source/Utilities/NSPredicate+DBSQLRepresentable.h Pages: 1 -->
<!--zoomable 110 -->
<svg id="main" version="1.1" xmlns="http://www.w3.org/2000/svg" xmlns:xlink="http://www.w3.org/1999/xlink" xml:space="preserve" onload="init(evt)">
<style type="text/css"><![CDATA[
.edge:hover path { stroke: red; }
.edge:hover polygon { stroke: red; fill: red; }
]]></style>
<script type="text/javascript"><![CDATA[
var edges = document.getElementsByTagName('g');
if (edges && edges.length) {
  for (var i=0;i<edges.length;i++) {
    if (edges[i].id.substr(0,4)=='edge') {
      edges[i].setAttribute('class','edge');
    }
  }
}
]]></script>
        <defs>
                <circle id="rim" cx="0" cy="0" r="7"/>
                <circle id="rim2" cx="0" cy="0" r="3.5"/>
                <g id="zoomPlus">
                        <use xlink:href="#rim" fill="#404040">
                                <set attributeName="fill" to="#808080" begin="zoomplus.mouseover" end="zoomplus.mouseout"/>
                        </use>
                        <path d="M-4,0h8M0,-4v8" fill="none" stroke="white" stroke-width="1.5" pointer-events="none"/>
                </g>
                <g id="zoomMin">
                        <use xlink:href="#rim" fill="#404040">
                                <set attributeName="fill" to="#808080" begin="zoomminus.mouseover" end="zoomminus.mouseout"/>
                        </use>
                        <path d="M-4,0h8" fill="none" stroke="white" stroke-width="1.5" pointer-events="none"/>
                </g>
                <g id="dirArrow">
                        <path fill="none" stroke="white" stroke-width="1.5" d="M0,-3.0v7 M-2.5,-0.5L0,-3.0L2.5,-0.5"/>
                </g>
               <g id="resetDef">
                       <use xlink:href="#rim2" fill="#404040">
                               <set attributeName="fill" to="#808080" begin="reset.mouseover" end="reset.mouseout"/>
                       </use>
               </g>
        </defs>

<script type="text/javascript">
var viewWidth = 866;
var viewHeight = 110;
var sectionId = 'dynsection-1';
</script>
<script xlink:href="svgpan.js"/>
<svg id="graph" class="graph">
<g id="viewport">
<title>Source/Utilities/NSPredicate+DBSQLRepresentable.h</title>
<!-- Node1 -->
<g id="node1" class="node"><title>Node1</title>
<polygon fill="#bfbfbf" stroke="black" points="368.705,-69.3599 368.705,-101.22 511.915,-101.22 511.915,-69.3599 368.705,-69.3599"/>
<text text-anchor="start" x="376.705" y="-89.2197" font-family="Helvetica Neue" font-size="10.00">Source/Utilities/NSPredicate</text>
<text text-anchor="middle" x="440.31" y="-77.2898" font-family="Helvetica Neue" font-size="10.00">+DBSQLRepresentable.h</text>
</g>
<!-- Node2 -->
<g id="node2" class="node"><title>Node2</title>
<g id="a_node2"><a xlink:href="_d_b_delete_query_8m.html" target="_top" xlink:title="Source/Queries/DBDeleteQuery.m">
<polygon fill="none" stroke="black" points="0,-6.46497 0,-26.3949 168.62,-26.3949 168.62,-6.46497 0,-6.46497"/>
<text text-anchor="middle" x="84.31" y="-14.3949" font-family="Helvetica Neue" font-size="10.00">Source/Queries/DBDeleteQuery.m</text>
</a>
</g>
</g>
<!-- Node1&#45;&gt;Node2 -->
<g id="edge1" class="edge"><title>Node1&#45;&gt;Node2</title>
<path fill="none" stroke="midnightblue" d="M358.58,-68.9402C288.561,-55.79 190.115,-37.3011 132.19,-26.4222"/>
<polygon fill="midnightblue" stroke="midnightblue" points="358.222,-72.4341 368.696,-70.8401 359.514,-65.5544 358.222,-72.4341"/>
</g>
<!-- Node3 -->
<g id="node3" class="node"><title>Node3</title>
<g id="a_node3"><a xlink:href="_d_b_insert_query_8m.html" target="_top" xlink:title="Source/Queries/DBInsertQuery.m">
<polygon fill="none" stroke="black" points="186.76,-6.46497 186.76,-26.3949 351.86,-26.3949 351.86,-6.46497 186.76,-6.46497"/>
<text text-anchor="middle" x="269.31" y="-14.3949" font-family="Helvetica Neue" font-size="10.00">Source/Queries/DBInsertQuery.m</text>
</a>
</g>
</g>
<!-- Node1&#45;&gt;Node3 -->
<g id="edge2" class="edge"><title>Node1&#45;&gt;Node3</title>
<path fill="none" stroke="midnightblue" d="M392.539,-65.6115C359.817,-52.8177 317.874,-36.4183 292.326,-26.429"/>
<polygon fill="midnightblue" stroke="midnightblue" points="391.346,-68.9033 401.934,-69.2851 393.895,-62.3839 391.346,-68.9033"/>
</g>
<!-- Node4 -->
<g id="node4" class="node"><title>Node4</title>
<g id="a_node4"><a xlink:href="_d_b_query_8m.html" target="_top" xlink:title="Source/Queries/DBQuery.m">
<polygon fill="none" stroke="black" points="370.26,-6.46497 370.26,-26.3949 510.36,-26.3949 510.36,-6.46497 370.26,-6.46497"/>
<text text-anchor="middle" x="440.31" y="-14.3949" font-family="Helvetica Neue" font-size="10.00">Source/Queries/DBQuery.m</text>
</a>
</g>
</g>
<!-- Node1&#45;&gt;Node4 -->
<g id="edge3" class="edge"><title>Node1&#45;&gt;Node4</title>
<path fill="none" stroke="midnightblue" d="M440.31,-58.835C440.31,-47.5027 440.31,-34.872 440.31,-26.5754"/>
<polygon fill="midnightblue" stroke="midnightblue" points="436.81,-59.1182 440.31,-69.1183 443.81,-59.1183 436.81,-59.1182"/>
</g>
<!-- Node5 -->
<g id="node5" class="node"><title>Node5</title>
<g id="a_node5"><a xlink:href="_d_b_select_query_8m.html" target="_top" xlink:title="Source/Queries/DBSelectQuery.m">
<polygon fill="none" stroke="black" points="528.28,-6.46497 528.28,-26.3949 696.34,-26.3949 696.34,-6.46497 528.28,-6.46497"/>
<text text-anchor="middle" x="612.31" y="-14.3949" font-family="Helvetica Neue" font-size="10.00">Source/Queries/DBSelectQuery.m</text>
</a>
</g>
</g>
<!-- Node1&#45;&gt;Node5 -->
<g id="edge4" class="edge"><title>Node1&#45;&gt;Node5</title>
<path fill="none" stroke="midnightblue" d="M488.361,-65.6115C521.273,-52.8177 563.462,-36.4183 589.159,-26.429"/>
<polygon fill="midnightblue" stroke="midnightblue" points="486.963,-62.3998 478.91,-69.2851 489.499,-68.9242 486.963,-62.3998"/>
</g>
<!-- Node6 -->
<g id="node6" class="node"><title>Node6</title>
<g id="a_node6"><a xlink:href="_n_s_predicate_09_d_b_s_q_l_representable_8m.html" target="_top" xlink:title="Source/Utilities/NSPredicate\l+DBSQLRepresentable.m">
<polygon fill="none" stroke="black" points="714.705,-0.5 714.705,-32.3599 857.915,-32.3599 857.915,-0.5 714.705,-0.5"/>
<text text-anchor="start" x="722.705" y="-20.3599" font-family="Helvetica Neue" font-size="10.00">Source/Utilities/NSPredicate</text>
<text text-anchor="middle" x="786.31" y="-8.42993" font-family="Helvetica Neue" font-size="10.00">+DBSQLRepresentable.m</text>
</a>
</g>
</g>
<!-- Node1&#45;&gt;Node6 -->
<g id="edge5" class="edge"><title>Node1&#45;&gt;Node6</title>
<path fill="none" stroke="midnightblue" d="M521.939,-68.516C580.376,-57.2239 658.319,-42.1625 714.413,-31.323"/>
<polygon fill="midnightblue" stroke="midnightblue" points="521.156,-65.1026 512.001,-70.4364 522.484,-71.9755 521.156,-65.1026"/>
</g>
</g>
</svg>
        <g id="navigator" transform="translate(0 0)" fill="#404254">
                <rect fill="#f2f5e9" fill-opacity="0.5" stroke="#606060" stroke-width=".5" x="0" y="0" width="60" height="60"/>
                <use id="zoomplus" xlink:href="#zoomPlus" x="17" y="9" onmousedown="handleZoom(evt,'in')"/>
                <use id="zoomminus" xlink:href="#zoomMin" x="42" y="9" onmousedown="handleZoom(evt,'out')"/>
                <use id="reset" xlink:href="#resetDef" x="30" y="36" onmousedown="handleReset()"/>
                <g id="arrowUp" xlink:href="#dirArrow" transform="translate(30 24)" onmousedown="handlePan(0,-1)">
                  <use xlink:href="#rim" fill="#404040">
                        <set attributeName="fill" to="#808080" begin="arrowUp.mouseover" end="arrowUp.mouseout"/>
                  </use>
                  <path fill="none" stroke="white" stroke-width="1.5" d="M0,-3.0v7 M-2.5,-0.5L0,-3.0L2.5,-0.5"/>
                </g>
                <g id="arrowRight" xlink:href="#dirArrow" transform="rotate(90) translate(36 -43)" onmousedown="handlePan(1,0)">
                  <use xlink:href="#rim" fill="#404040">
                        <set attributeName="fill" to="#808080" begin="arrowRight.mouseover" end="arrowRight.mouseout"/>
                  </use>
                  <path fill="none" stroke="white" stroke-width="1.5" d="M0,-3.0v7 M-2.5,-0.5L0,-3.0L2.5,-0.5"/>
                </g>
                <g id="arrowDown" xlink:href="#dirArrow" transform="rotate(180) translate(-30 -48)" onmousedown="handlePan(0,1)">
                  <use xlink:href="#rim" fill="#404040">
                        <set attributeName="fill" to="#808080" begin="arrowDown.mouseover" end="arrowDown.mouseout"/>
                  </use>
                  <path fill="none" stroke="white" stroke-width="1.5" d="M0,-3.0v7 M-2.5,-0.5L0,-3.0L2.5,-0.5"/>
                </g>
                <g id="arrowLeft" xlink:href="#dirArrow" transform="rotate(270) translate(-36 17)" onmousedown="handlePan(-1,0)">
                  <use xlink:href="#rim" fill="#404040">
                        <set attributeName="fill" to="#808080" begin="arrowLeft.mouseover" end="arrowLeft.mouseout"/>
                  </use>
                  <path fill="none" stroke="white" stroke-width="1.5" d="M0,-3.0v7 M-2.5,-0.5L0,-3.0L2.5,-0.5"/>
                </g>
        </g>
        <svg viewBox="0 0 15 15" width="100%" height="30px" preserveAspectRatio="xMaxYMin meet">
         <g id="arrow_out" transform="scale(0.3 0.3)">
          <a xlink:href="_n_s_predicate_09_d_b_s_q_l_representable_8h__dep__incl_org.svg" target="_base">
           <rect id="button" ry="5" rx="5" y="6" x="6" height="38" width="38"
                fill="#f2f5e9" fill-opacity="0.5" stroke="#606060" stroke-width="1.0"/>
           <path id="arrow"
             d="M 11.500037,31.436501 C 11.940474,20.09759 22.043105,11.32322 32.158766,21.979434 L 37.068811,17.246167 C 37.068811,17.246167 37.088388,32 37.088388,32 L 22.160133,31.978069 C 22.160133,31.978069 26.997745,27.140456 26.997745,27.140456 C 18.528582,18.264221 13.291696,25.230495 11.500037,31.436501 z"
             style="fill:#404040;"/>
          </a>
         </g>
        </svg>
</svg>
