<?xml version="1.0" encoding="UTF-8" standalone="no"?>
<!DOCTYPE svg PUBLIC "-//W3C//DTD SVG 1.1//EN"
 "http://www.w3.org/Graphics/SVG/1.1/DTD/svg11.dtd">
<!-- Generated by graphviz version 2.38.0 (20140413.2041)
 -->
<!-- Title: Source/Utilities/NSCollections+DBAdditions.h Pages: 1 -->
<svg width="492pt" height="110pt"
 viewBox="0.00 0.00 491.93 109.72" xmlns="http://www.w3.org/2000/svg" xmlns:xlink="http://www.w3.org/1999/xlink">
<g id="graph0" class="graph" transform="scale(1 1) rotate(0) translate(4 105.72)">
<title>Source/Utilities/NSCollections+DBAdditions.h</title>
<!-- Node1 -->
<g id="node1" class="node"><title>Node1</title>
<polygon fill="#bfbfbf" stroke="black" points="156.315,-69.3599 156.315,-101.22 306.925,-101.22 306.925,-69.3599 156.315,-69.3599"/>
<text text-anchor="start" x="164.315" y="-89.2197" font-family="Helvetica Neue" font-size="10.00">Source/Utilities/NSCollections</text>
<text text-anchor="middle" x="231.62" y="-77.2898" font-family="Helvetica Neue" font-size="10.00">+DBAdditions.h</text>
</g>
<!-- Node2 -->
<g id="node2" class="node"><title>Node2</title>
<g id="a_node2"><a xlink:href="_d_b_09_migrations_8m.html" target="_top" xlink:title="Source/DB+Migrations.m">
<polygon fill="none" stroke="black" points="0,-6.46497 0,-26.3949 129.24,-26.3949 129.24,-6.46497 0,-6.46497"/>
<text text-anchor="middle" x="64.62" y="-14.3949" font-family="Helvetica Neue" font-size="10.00">Source/DB+Migrations.m</text>
</a>
</g>
</g>
<!-- Node1&#45;&gt;Node2 -->
<g id="edge1" class="edge"><title>Node1&#45;&gt;Node2</title>
<path fill="none" stroke="midnightblue" d="M184.554,-65.4465C152.659,-52.677 111.941,-36.3754 87.0976,-26.429"/>
<polygon fill="midnightblue" stroke="midnightblue" points="183.557,-68.8176 194.142,-69.2851 186.159,-62.319 183.557,-68.8176"/>
</g>
<!-- Node3 -->
<g id="node3" class="node"><title>Node3</title>
<g id="a_node3"><a xlink:href="_d_b_select_query_8m.html" target="_top" xlink:title="Source/Queries/DBSelectQuery.m">
<polygon fill="none" stroke="black" points="147.59,-6.46497 147.59,-26.3949 315.65,-26.3949 315.65,-6.46497 147.59,-6.46497"/>
<text text-anchor="middle" x="231.62" y="-14.3949" font-family="Helvetica Neue" font-size="10.00">Source/Queries/DBSelectQuery.m</text>
</a>
</g>
</g>
<!-- Node1&#45;&gt;Node3 -->
<g id="edge2" class="edge"><title>Node1&#45;&gt;Node3</title>
<path fill="none" stroke="midnightblue" d="M231.62,-58.835C231.62,-47.5027 231.62,-34.872 231.62,-26.5754"/>
<polygon fill="midnightblue" stroke="midnightblue" points="228.12,-59.1182 231.62,-69.1183 235.12,-59.1183 228.12,-59.1182"/>
</g>
<!-- Node4 -->
<g id="node4" class="node"><title>Node4</title>
<g id="a_node4"><a xlink:href="_n_s_collections_09_d_b_additions_8m.html" target="_top" xlink:title="Source/Utilities/NSCollections\l+DBAdditions.m">
<polygon fill="none" stroke="black" points="333.315,-0.5 333.315,-32.3599 483.925,-32.3599 483.925,-0.5 333.315,-0.5"/>
<text text-anchor="start" x="341.315" y="-20.3599" font-family="Helvetica Neue" font-size="10.00">Source/Utilities/NSCollections</text>
<text text-anchor="middle" x="408.62" y="-8.42993" font-family="Helvetica Neue" font-size="10.00">+DBAdditions.m</text>
</a>
</g>
</g>
<!-- Node1&#45;&gt;Node4 -->
<g id="edge3" class="edge"><title>Node1&#45;&gt;Node4</title>
<path fill="none" stroke="midnightblue" d="M280.884,-65.6808C308.693,-55.1763 342.982,-42.2239 369.03,-32.3845"/>
<polygon fill="midnightblue" stroke="midnightblue" points="279.46,-62.4772 271.342,-69.2851 281.934,-69.0256 279.46,-62.4772"/>
</g>
</g>
</svg>
