<?xml version="1.0" encoding="UTF-8" standalone="no"?>
<!DOCTYPE svg PUBLIC "-//W3C//DTD SVG 1.1//EN"
 "http://www.w3.org/Graphics/SVG/1.1/DTD/svg11.dtd">
<!-- Generated by graphviz version 2.38.0 (20140413.2041)
 -->
<!-- Title: Source/Utilities/NSString+DBAdditions.h Pages: 1 -->
<svg width="711pt" height="110pt"
 viewBox="0.00 0.00 711.26 109.72" xmlns="http://www.w3.org/2000/svg" xmlns:xlink="http://www.w3.org/1999/xlink">
<g id="graph0" class="graph" transform="scale(1 1) rotate(0) translate(4 105.72)">
<title>Source/Utilities/NSString+DBAdditions.h</title>
<!-- Node1 -->
<g id="node1" class="node"><title>Node1</title>
<polygon fill="#bfbfbf" stroke="black" points="255.98,-69.3599 255.98,-101.22 383.26,-101.22 383.26,-69.3599 255.98,-69.3599"/>
<text text-anchor="start" x="263.98" y="-89.2197" font-family="Helvetica Neue" font-size="10.00">Source/Utilities/NSString</text>
<text text-anchor="middle" x="319.62" y="-77.2898" font-family="Helvetica Neue" font-size="10.00">+DBAdditions.h</text>
</g>
<!-- Node2 -->
<g id="node2" class="node"><title>Node2</title>
<g id="a_node2"><a xlink:href="_d_b_09_migrations_8m.html" target="_top" xlink:title="Source/DB+Migrations.m">
<polygon fill="none" stroke="black" points="0,-6.46497 0,-26.3949 129.24,-26.3949 129.24,-6.46497 0,-6.46497"/>
<text text-anchor="middle" x="64.62" y="-14.3949" font-family="Helvetica Neue" font-size="10.00">Source/DB+Migrations.m</text>
</a>
</g>
</g>
<!-- Node1&#45;&gt;Node2 -->
<g id="edge1" class="edge"><title>Node1&#45;&gt;Node2</title>
<path fill="none" stroke="midnightblue" d="M252.433,-66.6735C203.096,-53.7377 138.103,-36.6969 98.9421,-26.429"/>
<polygon fill="midnightblue" stroke="midnightblue" points="251.832,-70.1344 262.393,-69.2851 253.608,-63.3633 251.832,-70.1344"/>
</g>
<!-- Node3 -->
<g id="node3" class="node"><title>Node3</title>
<g id="a_node3"><a xlink:href="_d_b_model_8m.html" target="_top" xlink:title="Source/DBModel.m">
<polygon fill="none" stroke="black" points="147.535,-6.46497 147.535,-26.3949 251.705,-26.3949 251.705,-6.46497 147.535,-6.46497"/>
<text text-anchor="middle" x="199.62" y="-14.3949" font-family="Helvetica Neue" font-size="10.00">Source/DBModel.m</text>
</a>
</g>
</g>
<!-- Node1&#45;&gt;Node3 -->
<g id="edge2" class="edge"><title>Node1&#45;&gt;Node3</title>
<path fill="none" stroke="midnightblue" d="M283.709,-64.2813C261.126,-51.6991 233.085,-36.0753 215.772,-26.429"/>
<polygon fill="midnightblue" stroke="midnightblue" points="282.251,-67.4754 292.69,-69.2851 285.658,-61.3605 282.251,-67.4754"/>
</g>
<!-- Node4 -->
<g id="node4" class="node"><title>Node4</title>
<g id="a_node4"><a xlink:href="_d_b_table_8m.html" target="_top" xlink:title="Source/DBTable.m">
<polygon fill="none" stroke="black" points="269.76,-6.46497 269.76,-26.3949 369.48,-26.3949 369.48,-6.46497 269.76,-6.46497"/>
<text text-anchor="middle" x="319.62" y="-14.3949" font-family="Helvetica Neue" font-size="10.00">Source/DBTable.m</text>
</a>
</g>
</g>
<!-- Node1&#45;&gt;Node4 -->
<g id="edge3" class="edge"><title>Node1&#45;&gt;Node4</title>
<path fill="none" stroke="midnightblue" d="M319.62,-58.835C319.62,-47.5027 319.62,-34.872 319.62,-26.5754"/>
<polygon fill="midnightblue" stroke="midnightblue" points="316.12,-59.1182 319.62,-69.1183 323.12,-59.1183 316.12,-59.1182"/>
</g>
<!-- Node5 -->
<g id="node5" class="node"><title>Node5</title>
<g id="a_node5"><a xlink:href="_d_b_introspection_8m.html" target="_top" xlink:title="Source/Utilities/DBIntrospection.m">
<polygon fill="none" stroke="black" points="387.205,-6.46497 387.205,-26.3949 558.035,-26.3949 558.035,-6.46497 387.205,-6.46497"/>
<text text-anchor="middle" x="472.62" y="-14.3949" font-family="Helvetica Neue" font-size="10.00">Source/Utilities/DBIntrospection.m</text>
</a>
</g>
</g>
<!-- Node1&#45;&gt;Node5 -->
<g id="edge4" class="edge"><title>Node1&#45;&gt;Node5</title>
<path fill="none" stroke="midnightblue" d="M363.498,-65.1155C392.604,-52.3964 429.462,-36.2896 452.027,-26.429"/>
<polygon fill="midnightblue" stroke="midnightblue" points="361.718,-62.0736 353.956,-69.2851 364.521,-68.4879 361.718,-62.0736"/>
</g>
<!-- Node6 -->
<g id="node6" class="node"><title>Node6</title>
<g id="a_node6"><a xlink:href="_n_s_string_09_d_b_additions_8m.html" target="_top" xlink:title="Source/Utilities/NSString\l+DBAdditions.m">
<polygon fill="none" stroke="black" points="575.98,-0.5 575.98,-32.3599 703.26,-32.3599 703.26,-0.5 575.98,-0.5"/>
<text text-anchor="start" x="583.98" y="-20.3599" font-family="Helvetica Neue" font-size="10.00">Source/Utilities/NSString</text>
<text text-anchor="middle" x="639.62" y="-8.42993" font-family="Helvetica Neue" font-size="10.00">+DBAdditions.m</text>
</a>
</g>
</g>
<!-- Node1&#45;&gt;Node6 -->
<g id="edge5" class="edge"><title>Node1&#45;&gt;Node6</title>
<path fill="none" stroke="midnightblue" d="M393.247,-69.0198C442.361,-58.8189 508.367,-45.081 566.62,-32.8599 569.663,-32.2215 572.776,-31.5673 575.921,-30.9057"/>
<polygon fill="midnightblue" stroke="midnightblue" points="392.424,-65.616 383.345,-71.0762 393.848,-72.4697 392.424,-65.616"/>
</g>
</g>
</svg>
