<?xml version="1.0" encoding="UTF-8" standalone="no"?>
<!DOCTYPE svg PUBLIC "-//W3C//DTD SVG 1.1//EN"
 "http://www.w3.org/Graphics/SVG/1.1/DTD/svg11.dtd">
<!-- Generated by graphviz version 2.38.0 (20140413.2041)
 -->
<!-- Title: DBTable() Pages: 1 -->
<svg width="131pt" height="225pt"
 viewBox="0.00 0.00 130.99 224.58" xmlns="http://www.w3.org/2000/svg" xmlns:xlink="http://www.w3.org/1999/xlink">
<g id="graph0" class="graph" transform="scale(1 1) rotate(0) translate(4 220.58)">
<title>DBTable()</title>
<!-- Node1 -->
<g id="node1" class="node"><title>Node1</title>
<polygon fill="#bfbfbf" stroke="black" points="0,-0.5 0,-20.4299 58.59,-20.4299 58.59,-0.5 0,-0.5"/>
<text text-anchor="middle" x="29.295" y="-8.42993" font-family="Helvetica Neue" font-size="10.00">DBTable()</text>
</g>
<!-- Node2 -->
<g id="node2" class="node"><title>Node2</title>
<g id="a_node2"><a xlink:href="interface_d_b.html" target="_top" xlink:title="DB">
<polygon fill="none" stroke="black" points="14.35,-69.3599 14.35,-89.2898 44.24,-89.2898 44.24,-69.3599 14.35,-69.3599"/>
<text text-anchor="middle" x="29.295" y="-77.2898" font-family="Helvetica Neue" font-size="10.00">DB</text>
</a>
</g>
</g>
<!-- Node2&#45;&gt;Node1 -->
<g id="edge1" class="edge"><title>Node2&#45;&gt;Node1</title>
<path fill="none" stroke="#9a32cd" stroke-dasharray="5,2" d="M29.295,-58.9489C29.295,-46.3919 29.295,-30.6006 29.295,-20.7681"/>
<polygon fill="#9a32cd" stroke="#9a32cd" points="25.7951,-59.3078 29.295,-69.3078 32.7951,-59.3078 25.7951,-59.3078"/>
<text text-anchor="middle" x="51.43" y="-42.8599" font-family="Helvetica Neue" font-size="10.00"> database</text>
</g>
<!-- Node3 -->
<g id="node3" class="node"><title>Node3</title>
<polygon fill="none" stroke="#bfbfbf" points="6.625,-196.15 6.625,-216.08 65.965,-216.08 65.965,-196.15 6.625,-196.15"/>
<text text-anchor="middle" x="36.295" y="-204.08" font-family="Helvetica Neue" font-size="10.00">NSObject</text>
</g>
<!-- Node3&#45;&gt;Node2 -->
<g id="edge2" class="edge"><title>Node3&#45;&gt;Node2</title>
<path fill="none" stroke="midnightblue" d="M34.4151,-185.688C33.6638,-177.368 32.8475,-167.539 32.295,-158.65 30.7416,-133.659 29.8714,-104.13 29.5048,-89.4963"/>
<polygon fill="midnightblue" stroke="midnightblue" points="30.9511,-186.237 35.3684,-195.868 37.9207,-185.585 30.9511,-186.237"/>
</g>
<!-- Node4 -->
<g id="node4" class="node"><title>Node4</title>
<g id="a_node4"><a xlink:href="interface_d_b_connection.html" target="_top" xlink:title="DBConnection">
<polygon fill="none" stroke="black" points="41.605,-138.22 41.605,-158.15 122.985,-158.15 122.985,-138.22 41.605,-138.22"/>
<text text-anchor="middle" x="82.295" y="-146.15" font-family="Helvetica Neue" font-size="10.00">DBConnection</text>
</a>
</g>
</g>
<!-- Node3&#45;&gt;Node4 -->
<g id="edge4" class="edge"><title>Node3&#45;&gt;Node4</title>
<path fill="none" stroke="midnightblue" d="M50.1959,-188.213C58.2694,-178.397 68.1261,-166.412 74.7698,-158.334"/>
<polygon fill="midnightblue" stroke="midnightblue" points="47.3347,-186.182 43.6857,-196.129 52.7411,-190.628 47.3347,-186.182"/>
</g>
<!-- Node4&#45;&gt;Node2 -->
<g id="edge3" class="edge"><title>Node4&#45;&gt;Node2</title>
<path fill="none" stroke="#9a32cd" stroke-dasharray="5,2" d="M68.7334,-130.077C58.5322,-117.208 44.9411,-100.062 36.6696,-89.628"/>
<polygon fill="#9a32cd" stroke="#9a32cd" points="66.1923,-132.505 75.1472,-138.168 71.6779,-128.157 66.1923,-132.505"/>
<text text-anchor="middle" x="85.505" y="-111.72" font-family="Helvetica Neue" font-size="10.00"> connection</text>
</g>
</g>
</svg>
