<?xml version="1.0" encoding="UTF-8" standalone="no"?>
<!DOCTYPE svg PUBLIC "-//W3C//DTD SVG 1.1//EN"
 "http://www.w3.org/Graphics/SVG/1.1/DTD/svg11.dtd">
<!-- Generated by graphviz version 2.38.0 (20140413.2041)
 -->
<!-- Title: DBSelectQuery() Pages: 1 -->
<!--zoomable 446 -->
<svg id="main" version="1.1" xmlns="http://www.w3.org/2000/svg" xmlns:xlink="http://www.w3.org/1999/xlink" xml:space="preserve" onload="init(evt)">
<style type="text/css"><![CDATA[
.edge:hover path { stroke: red; }
.edge:hover polygon { stroke: red; fill: red; }
]]></style>
<script type="text/javascript"><![CDATA[
var edges = document.getElementsByTagName('g');
if (edges && edges.length) {
  for (var i=0;i<edges.length;i++) {
    if (edges[i].id.substr(0,4)=='edge') {
      edges[i].setAttribute('class','edge');
    }
  }
}
]]></script>
        <defs>
                <circle id="rim" cx="0" cy="0" r="7"/>
                <circle id="rim2" cx="0" cy="0" r="3.5"/>
                <g id="zoomPlus">
                        <use xlink:href="#rim" fill="#404040">
                                <set attributeName="fill" to="#808080" begin="zoomplus.mouseover" end="zoomplus.mouseout"/>
                        </use>
                        <path d="M-4,0h8M0,-4v8" fill="none" stroke="white" stroke-width="1.5" pointer-events="none"/>
                </g>
                <g id="zoomMin">
                        <use xlink:href="#rim" fill="#404040">
                                <set attributeName="fill" to="#808080" begin="zoomminus.mouseover" end="zoomminus.mouseout"/>
                        </use>
                        <path d="M-4,0h8" fill="none" stroke="white" stroke-width="1.5" pointer-events="none"/>
                </g>
                <g id="dirArrow">
                        <path fill="none" stroke="white" stroke-width="1.5" d="M0,-3.0v7 M-2.5,-0.5L0,-3.0L2.5,-0.5"/>
                </g>
               <g id="resetDef">
                       <use xlink:href="#rim2" fill="#404040">
                               <set attributeName="fill" to="#808080" begin="reset.mouseover" end="reset.mouseout"/>
                       </use>
               </g>
        </defs>

<script type="text/javascript">
var viewWidth = 531;
var viewHeight = 446;
var sectionId = 'dynsection-0';
</script>
<script xlink:href="svgpan.js"/>
<svg id="graph" class="graph">
<g id="viewport">
<title>DBSelectQuery()</title>
<!-- Node1 -->
<g id="node1" class="node"><title>Node1</title>
<polygon fill="#bfbfbf" stroke="black" points="28.055,-0.5 28.055,-20.4299 117.945,-20.4299 117.945,-0.5 28.055,-0.5"/>
<text text-anchor="middle" x="73" y="-8.42993" font-family="Helvetica Neue" font-size="10.00">DBSelectQuery()</text>
</g>
<!-- Node2 -->
<g id="node2" class="node"><title>Node2</title>
<g id="a_node2"><a xlink:href="interface_d_b_join.html" target="_top" xlink:title="DBJoin">
<polygon fill="none" stroke="black" points="2.7,-153.08 2.7,-173.01 51.3,-173.01 51.3,-153.08 2.7,-153.08"/>
<text text-anchor="middle" x="27" y="-161.01" font-family="Helvetica Neue" font-size="10.00">DBJoin</text>
</a>
</g>
</g>
<!-- Node2&#45;&gt;Node1 -->
<g id="edge1" class="edge"><title>Node2&#45;&gt;Node1</title>
<path fill="none" stroke="#9a32cd" stroke-dasharray="5,2" d="M32.6864,-143.43C42.6326,-110.872 62.8323,-44.7487 70.2164,-20.5768"/>
<polygon fill="#9a32cd" stroke="#9a32cd" points="29.3141,-142.49 29.7398,-153.076 36.0087,-144.535 29.3141,-142.49"/>
<text text-anchor="middle" x="61.26" y="-90.6847" font-family="Helvetica Neue" font-size="10.00"> join</text>
</g>
<!-- Node7 -->
<g id="node7" class="node"><title>Node7</title>
<g id="a_node7"><a xlink:href="interface_d_b_select_query.html" target="_top" xlink:title="DBSelectQuery">
<polygon fill="none" stroke="black" points="150.645,-82.7548 150.645,-102.685 235.355,-102.685 235.355,-82.7548 150.645,-82.7548"/>
<text text-anchor="middle" x="193" y="-90.6847" font-family="Helvetica Neue" font-size="10.00">DBSelectQuery</text>
</a>
</g>
</g>
<!-- Node2&#45;&gt;Node7 -->
<g id="edge20" class="edge"><title>Node2&#45;&gt;Node7</title>
<path fill="none" stroke="#9a32cd" stroke-dasharray="5,2" d="M57.7335,-149.132C76.1934,-141.401 100.16,-131.406 121.48,-122.65 137.834,-115.933 156.338,-108.451 170.427,-102.779"/>
<polygon fill="#9a32cd" stroke="#9a32cd" points="56.2307,-145.967 48.3614,-153.061 58.937,-152.423 56.2307,-145.967"/>
<text text-anchor="middle" x="131.26" y="-126.58" font-family="Helvetica Neue" font-size="10.00"> join</text>
</g>
<!-- Node3 -->
<g id="node3" class="node"><title>Node3</title>
<polygon fill="none" stroke="#bfbfbf" points="144.33,-417.589 144.33,-437.519 203.67,-437.519 203.67,-417.589 144.33,-417.589"/>
<text text-anchor="middle" x="174" y="-425.519" font-family="Helvetica Neue" font-size="10.00">NSObject</text>
</g>
<!-- Node3&#45;&gt;Node2 -->
<g id="edge2" class="edge"><title>Node3&#45;&gt;Node2</title>
<path fill="none" stroke="midnightblue" d="M133.95,-421.806C82.5702,-414.575 0,-398.603 0,-370.624 0,-370.624 0,-370.624 0,-230.904 0,-208.872 12.7617,-185.532 20.7378,-173.097"/>
<polygon fill="midnightblue" stroke="midnightblue" points="133.709,-425.305 144.088,-423.177 134.648,-418.368 133.709,-425.305"/>
</g>
<!-- Node4 -->
<g id="node4" class="node"><title>Node4</title>
<g id="a_node4"><a xlink:href="interface_d_b_table.html" target="_top" xlink:title="DBTable">
<polygon fill="none" stroke="black" points="251.295,-221.939 251.295,-241.869 304.705,-241.869 304.705,-221.939 251.295,-221.939"/>
<text text-anchor="middle" x="278" y="-229.869" font-family="Helvetica Neue" font-size="10.00">DBTable</text>
</a>
</g>
</g>
<!-- Node3&#45;&gt;Node4 -->
<g id="edge4" class="edge"><title>Node3&#45;&gt;Node4</title>
<path fill="none" stroke="midnightblue" d="M213.907,-422.332C241.06,-417.163 275.18,-405.664 293,-380.089 323.422,-336.426 309.56,-311.555 295,-260.369 293.098,-253.681 289.05,-247.028 285.381,-241.946"/>
<polygon fill="midnightblue" stroke="midnightblue" points="213.17,-418.907 203.891,-424.019 214.333,-425.809 213.17,-418.907"/>
</g>
<!-- Node5 -->
<g id="node5" class="node"><title>Node5</title>
<g id="a_node5"><a xlink:href="interface_d_b.html" target="_top" xlink:title="DB">
<polygon fill="none" stroke="black" points="187.055,-290.799 187.055,-310.729 216.945,-310.729 216.945,-290.799 187.055,-290.799"/>
<text text-anchor="middle" x="202" y="-298.729" font-family="Helvetica Neue" font-size="10.00">DB</text>
</a>
</g>
</g>
<!-- Node3&#45;&gt;Node5 -->
<g id="edge6" class="edge"><title>Node3&#45;&gt;Node5</title>
<path fill="none" stroke="midnightblue" d="M178.222,-407.736C184.319,-380.565 195.356,-331.375 199.929,-310.994"/>
<polygon fill="midnightblue" stroke="midnightblue" points="174.788,-407.056 176.014,-417.58 181.618,-408.588 174.788,-407.056"/>
</g>
<!-- Node6 -->
<g id="node6" class="node"><title>Node6</title>
<g id="a_node6"><a xlink:href="interface_d_b_connection.html" target="_top" xlink:title="DBConnection">
<polygon fill="none" stroke="black" points="202.31,-359.659 202.31,-379.589 283.69,-379.589 283.69,-359.659 202.31,-359.659"/>
<text text-anchor="middle" x="243" y="-367.589" font-family="Helvetica Neue" font-size="10.00">DBConnection</text>
</a>
</g>
</g>
<!-- Node3&#45;&gt;Node6 -->
<g id="edge8" class="edge"><title>Node3&#45;&gt;Node6</title>
<path fill="none" stroke="midnightblue" d="M193.038,-411.122C205.456,-401.057 221.243,-388.26 231.712,-379.774"/>
<polygon fill="midnightblue" stroke="midnightblue" points="190.651,-408.552 185.086,-417.568 195.058,-413.99 190.651,-408.552"/>
</g>
<!-- Node9 -->
<g id="node9" class="node"><title>Node9</title>
<g id="a_node9"><a xlink:href="interface_d_b_query.html" target="_top" xlink:title="DBQuery">
<polygon fill="none" stroke="black" points="100.625,-221.939 100.625,-241.869 157.375,-241.869 157.375,-221.939 100.625,-221.939"/>
<text text-anchor="middle" x="129" y="-229.869" font-family="Helvetica Neue" font-size="10.00">DBQuery</text>
</a>
</g>
</g>
<!-- Node3&#45;&gt;Node9 -->
<g id="edge12" class="edge"><title>Node3&#45;&gt;Node9</title>
<path fill="none" stroke="midnightblue" d="M169.569,-407.486C160.086,-366.676 138.12,-272.152 131.158,-242.191"/>
<polygon fill="midnightblue" stroke="midnightblue" points="166.217,-408.525 171.89,-417.474 173.036,-406.941 166.217,-408.525"/>
</g>
<!-- Node4&#45;&gt;Node2 -->
<g id="edge3" class="edge"><title>Node4&#45;&gt;Node2</title>
<path fill="none" stroke="#9a32cd" stroke-dasharray="5,2" d="M241.285,-221.5C197.904,-210.327 123.582,-190.995 60,-173.51 57.2415,-172.751 54.3573,-171.944 51.4915,-171.134"/>
<polygon fill="#9a32cd" stroke="#9a32cd" points="240.544,-224.923 251.1,-224.024 242.288,-218.143 240.544,-224.923"/>
<text text-anchor="middle" x="180.41" y="-195.439" font-family="Helvetica Neue" font-size="10.00"> table</text>
</g>
<!-- Node11 -->
<g id="node11" class="node"><title>Node11</title>
<g id="a_node11"><a xlink:href="protocol_d_b_table_query-p.html" target="_top" xlink:title="\&lt;DBTableQuery\&gt;">
<polygon fill="none" stroke="black" points="430.865,-153.08 430.865,-173.01 523.135,-173.01 523.135,-153.08 430.865,-153.08"/>
<text text-anchor="middle" x="477" y="-161.01" font-family="Helvetica Neue" font-size="10.00">&lt;DBTableQuery&gt;</text>
</a>
</g>
</g>
<!-- Node4&#45;&gt;Node11 -->
<g id="edge17" class="edge"><title>Node4&#45;&gt;Node11</title>
<path fill="none" stroke="#9a32cd" stroke-dasharray="5,2" d="M314.556,-218.622C353.826,-205.429 415.288,-184.779 450.27,-173.025"/>
<polygon fill="#9a32cd" stroke="#9a32cd" points="313.203,-215.385 304.838,-221.887 315.432,-222.02 313.203,-215.385"/>
<text text-anchor="middle" x="408.41" y="-195.439" font-family="Helvetica Neue" font-size="10.00"> table</text>
</g>
<!-- Node5&#45;&gt;Node4 -->
<g id="edge5" class="edge"><title>Node5&#45;&gt;Node4</title>
<path fill="none" stroke="#9a32cd" stroke-dasharray="5,2" d="M219.781,-284.122C234.565,-271.116 255.108,-253.043 267.425,-242.208"/>
<polygon fill="#9a32cd" stroke="#9a32cd" points="217.446,-281.514 212.25,-290.747 222.07,-286.77 217.446,-281.514"/>
<text text-anchor="middle" x="269.135" y="-264.299" font-family="Helvetica Neue" font-size="10.00"> database</text>
</g>
<!-- Node5&#45;&gt;Node9 -->
<g id="edge14" class="edge"><title>Node5&#45;&gt;Node9</title>
<path fill="none" stroke="#9a32cd" stroke-dasharray="5,2" d="M184.525,-283.759C170.356,-270.782 150.879,-252.943 139.158,-242.208"/>
<polygon fill="#9a32cd" stroke="#9a32cd" points="182.417,-286.574 192.155,-290.747 187.144,-281.412 182.417,-286.574"/>
<text text-anchor="middle" x="192.135" y="-264.299" font-family="Helvetica Neue" font-size="10.00"> database</text>
</g>
<!-- Node6&#45;&gt;Node5 -->
<g id="edge7" class="edge"><title>Node6&#45;&gt;Node5</title>
<path fill="none" stroke="#9a32cd" stroke-dasharray="5,2" d="M232.051,-350.769C224.215,-337.99 213.981,-321.301 207.705,-311.067"/>
<polygon fill="#9a32cd" stroke="#9a32cd" points="229.259,-352.912 237.471,-359.607 235.227,-349.253 229.259,-352.912"/>
<text text-anchor="middle" x="251.21" y="-333.159" font-family="Helvetica Neue" font-size="10.00"> connection</text>
</g>
<!-- Node7&#45;&gt;Node1 -->
<g id="edge9" class="edge"><title>Node7&#45;&gt;Node1</title>
<path fill="none" stroke="#9a32cd" stroke-dasharray="5,2" d="M170.864,-76.9156C146.208,-60.4254 107.124,-34.287 86.605,-20.5638"/>
<polygon fill="#9a32cd" stroke="#9a32cd" points="168.976,-79.8636 179.234,-82.5135 172.868,-74.0449 168.976,-79.8636"/>
<text text-anchor="middle" x="173.75" y="-54.7898" font-family="Helvetica Neue" font-size="10.00"> subQuery</text>
<text text-anchor="middle" x="173.75" y="-42.8599" font-family="Helvetica Neue" font-size="10.00">unionQuery</text>
</g>
<!-- Node7&#45;&gt;Node7 -->
<g id="edge21" class="edge"><title>Node7&#45;&gt;Node7</title>
<path fill="none" stroke="#9a32cd" stroke-dasharray="5,2" d="M245.691,-97.7574C250.4,-96.7024 253.355,-95.0232 253.355,-92.7197 253.355,-89.0342 245.79,-86.9467 235.581,-86.4572"/>
<polygon fill="#9a32cd" stroke="#9a32cd" points="245.088,-94.3049 235.581,-98.9823 245.929,-101.254 245.088,-94.3049"/>
<text text-anchor="middle" x="279.105" y="-96.6497" font-family="Helvetica Neue" font-size="10.00"> subQuery</text>
<text text-anchor="middle" x="279.105" y="-84.7197" font-family="Helvetica Neue" font-size="10.00">unionQuery</text>
</g>
<!-- Node8 -->
<g id="node8" class="node"><title>Node8</title>
<g id="a_node8"><a xlink:href="interface_d_b_read_query.html" target="_top" xlink:title="DBReadQuery">
<polygon fill="none" stroke="black" points="68.865,-153.08 68.865,-173.01 149.135,-173.01 149.135,-153.08 68.865,-153.08"/>
<text text-anchor="middle" x="109" y="-161.01" font-family="Helvetica Neue" font-size="10.00">DBReadQuery</text>
</a>
</g>
</g>
<!-- Node8&#45;&gt;Node7 -->
<g id="edge10" class="edge"><title>Node8&#45;&gt;Node7</title>
<path fill="none" stroke="midnightblue" d="M128.297,-146.349C144.878,-132.862 168.207,-113.886 181.851,-102.788"/>
<polygon fill="midnightblue" stroke="midnightblue" points="125.878,-143.805 120.329,-152.83 130.295,-149.235 125.878,-143.805"/>
</g>
<!-- Node9&#45;&gt;Node8 -->
<g id="edge11" class="edge"><title>Node9&#45;&gt;Node8</title>
<path fill="none" stroke="midnightblue" d="M123.433,-212.293C119.641,-199.619 114.784,-183.381 111.783,-173.348"/>
<polygon fill="midnightblue" stroke="midnightblue" points="120.084,-213.31 126.303,-221.887 126.79,-211.304 120.084,-213.31"/>
</g>
<!-- Node10 -->
<g id="node10" class="node"><title>Node10</title>
<polygon fill="none" stroke="#bfbfbf" points="28.445,-290.799 28.445,-310.729 107.555,-310.729 107.555,-290.799 28.445,-290.799"/>
<text text-anchor="middle" x="68" y="-298.729" font-family="Helvetica Neue" font-size="10.00">&lt;NSCopying&gt;</text>
</g>
<!-- Node10&#45;&gt;Node9 -->
<g id="edge13" class="edge"><title>Node10&#45;&gt;Node9</title>
<path fill="none" stroke="midnightblue" d="M83.271,-283.026C95.0483,-270.118 110.901,-252.742 120.512,-242.208"/>
<polygon fill="midnightblue" stroke="midnightblue" points="80.3811,-281.001 76.2267,-290.747 85.5523,-285.719 80.3811,-281.001"/>
</g>
<!-- Node11&#45;&gt;Node7 -->
<g id="edge15" class="edge"><title>Node11&#45;&gt;Node7</title>
<path fill="none" stroke="midnightblue" d="M429.568,-150.633C373.611,-137.171 281.735,-115.068 230.503,-102.742"/>
<polygon fill="midnightblue" stroke="midnightblue" points="429.039,-154.106 439.58,-153.042 430.676,-147.3 429.039,-154.106"/>
</g>
<!-- Node12 -->
<g id="node12" class="node"><title>Node12</title>
<polygon fill="none" stroke="#bfbfbf" points="441.33,-221.939 441.33,-241.869 512.67,-241.869 512.67,-221.939 441.33,-221.939"/>
<text text-anchor="middle" x="477" y="-229.869" font-family="Helvetica Neue" font-size="10.00">&lt;NSObject&gt;</text>
</g>
<!-- Node12&#45;&gt;Node11 -->
<g id="edge16" class="edge"><title>Node12&#45;&gt;Node11</title>
<path fill="none" stroke="midnightblue" d="M477,-211.528C477,-198.971 477,-183.18 477,-173.348"/>
<polygon fill="midnightblue" stroke="midnightblue" points="473.5,-211.887 477,-221.887 480.5,-211.887 473.5,-211.887"/>
</g>
<!-- Node13 -->
<g id="node13" class="node"><title>Node13</title>
<g id="a_node13"><a xlink:href="protocol_d_b_filterable_query-p.html" target="_top" xlink:title="\&lt;DBFilterableQuery\&gt;">
<polygon fill="none" stroke="black" points="167.165,-153.08 167.165,-173.01 276.835,-173.01 276.835,-153.08 167.165,-153.08"/>
<text text-anchor="middle" x="222" y="-161.01" font-family="Helvetica Neue" font-size="10.00">&lt;DBFilterableQuery&gt;</text>
</a>
</g>
</g>
<!-- Node13&#45;&gt;Node7 -->
<g id="edge18" class="edge"><title>Node13&#45;&gt;Node7</title>
<path fill="none" stroke="midnightblue" d="M214.042,-143.296C208.449,-130.119 201.214,-113.072 196.849,-102.788"/>
<polygon fill="midnightblue" stroke="midnightblue" points="210.96,-144.992 218.089,-152.83 217.404,-142.257 210.96,-144.992"/>
</g>
<!-- Node14 -->
<g id="node14" class="node"><title>Node14</title>
<polygon fill="none" stroke="#bfbfbf" points="295.27,-153.08 295.27,-173.01 412.73,-173.01 412.73,-153.08 295.27,-153.08"/>
<text text-anchor="middle" x="354" y="-161.01" font-family="Helvetica Neue" font-size="10.00">&lt;NSFastEnumeration&gt;</text>
</g>
<!-- Node14&#45;&gt;Node7 -->
<g id="edge19" class="edge"><title>Node14&#45;&gt;Node7</title>
<path fill="none" stroke="midnightblue" d="M323.296,-149.015C291.33,-135.449 242.11,-114.561 214.212,-102.721"/>
<polygon fill="midnightblue" stroke="midnightblue" points="322.048,-152.287 332.62,-152.972 324.782,-145.843 322.048,-152.287"/>
</g>
</g>
</svg>
        <g id="navigator" transform="translate(0 0)" fill="#404254">
                <rect fill="#f2f5e9" fill-opacity="0.5" stroke="#606060" stroke-width=".5" x="0" y="0" width="60" height="60"/>
                <use id="zoomplus" xlink:href="#zoomPlus" x="17" y="9" onmousedown="handleZoom(evt,'in')"/>
                <use id="zoomminus" xlink:href="#zoomMin" x="42" y="9" onmousedown="handleZoom(evt,'out')"/>
                <use id="reset" xlink:href="#resetDef" x="30" y="36" onmousedown="handleReset()"/>
                <g id="arrowUp" xlink:href="#dirArrow" transform="translate(30 24)" onmousedown="handlePan(0,-1)">
                  <use xlink:href="#rim" fill="#404040">
                        <set attributeName="fill" to="#808080" begin="arrowUp.mouseover" end="arrowUp.mouseout"/>
                  </use>
                  <path fill="none" stroke="white" stroke-width="1.5" d="M0,-3.0v7 M-2.5,-0.5L0,-3.0L2.5,-0.5"/>
                </g>
                <g id="arrowRight" xlink:href="#dirArrow" transform="rotate(90) translate(36 -43)" onmousedown="handlePan(1,0)">
                  <use xlink:href="#rim" fill="#404040">
                        <set attributeName="fill" to="#808080" begin="arrowRight.mouseover" end="arrowRight.mouseout"/>
                  </use>
                  <path fill="none" stroke="white" stroke-width="1.5" d="M0,-3.0v7 M-2.5,-0.5L0,-3.0L2.5,-0.5"/>
                </g>
                <g id="arrowDown" xlink:href="#dirArrow" transform="rotate(180) translate(-30 -48)" onmousedown="handlePan(0,1)">
                  <use xlink:href="#rim" fill="#404040">
                        <set attributeName="fill" to="#808080" begin="arrowDown.mouseover" end="arrowDown.mouseout"/>
                  </use>
                  <path fill="none" stroke="white" stroke-width="1.5" d="M0,-3.0v7 M-2.5,-0.5L0,-3.0L2.5,-0.5"/>
                </g>
                <g id="arrowLeft" xlink:href="#dirArrow" transform="rotate(270) translate(-36 17)" onmousedown="handlePan(-1,0)">
                  <use xlink:href="#rim" fill="#404040">
                        <set attributeName="fill" to="#808080" begin="arrowLeft.mouseover" end="arrowLeft.mouseout"/>
                  </use>
                  <path fill="none" stroke="white" stroke-width="1.5" d="M0,-3.0v7 M-2.5,-0.5L0,-3.0L2.5,-0.5"/>
                </g>
        </g>
        <svg viewBox="0 0 15 15" width="100%" height="30px" preserveAspectRatio="xMaxYMin meet">
         <g id="arrow_out" transform="scale(0.3 0.3)">
          <a xlink:href="category_d_b_select_query_07_08__coll__graph_org.svg" target="_base">
           <rect id="button" ry="5" rx="5" y="6" x="6" height="38" width="38"
                fill="#f2f5e9" fill-opacity="0.5" stroke="#606060" stroke-width="1.0"/>
           <path id="arrow"
             d="M 11.500037,31.436501 C 11.940474,20.09759 22.043105,11.32322 32.158766,21.979434 L 37.068811,17.246167 C 37.068811,17.246167 37.088388,32 37.088388,32 L 22.160133,31.978069 C 22.160133,31.978069 26.997745,27.140456 26.997745,27.140456 C 18.528582,18.264221 13.291696,25.230495 11.500037,31.436501 z"
             style="fill:#404040;"/>
          </a>
         </g>
        </svg>
</svg>
