<?xml version="1.0" encoding="UTF-8" standalone="no"?>
<!DOCTYPE svg PUBLIC "-//W3C//DTD SVG 1.1//EN"
 "http://www.w3.org/Graphics/SVG/1.1/DTD/svg11.dtd">
<!-- Generated by graphviz version 2.38.0 (20140413.2041)
 -->
<!-- Title: DBJoin() Pages: 1 -->
<svg width="164pt" height="293pt"
 viewBox="0.00 0.00 163.58 293.44" xmlns="http://www.w3.org/2000/svg" xmlns:xlink="http://www.w3.org/1999/xlink">
<g id="graph0" class="graph" transform="scale(1 1) rotate(0) translate(4 289.439)">
<title>DBJoin()</title>
<!-- Node1 -->
<g id="node1" class="node"><title>Node1</title>
<polygon fill="#bfbfbf" stroke="black" points="0,-0.5 0,-20.4299 53.78,-20.4299 53.78,-0.5 0,-0.5"/>
<text text-anchor="middle" x="26.89" y="-8.42993" font-family="Helvetica Neue" font-size="10.00">DBJoin()</text>
</g>
<!-- Node2 -->
<g id="node2" class="node"><title>Node2</title>
<g id="a_node2"><a xlink:href="interface_d_b_table.html" target="_top" xlink:title="DBTable">
<polygon fill="none" stroke="black" points="0.185,-69.3599 0.185,-89.2898 53.595,-89.2898 53.595,-69.3599 0.185,-69.3599"/>
<text text-anchor="middle" x="26.89" y="-77.2898" font-family="Helvetica Neue" font-size="10.00">DBTable</text>
</a>
</g>
</g>
<!-- Node2&#45;&gt;Node1 -->
<g id="edge1" class="edge"><title>Node2&#45;&gt;Node1</title>
<path fill="none" stroke="#9a32cd" stroke-dasharray="5,2" d="M26.89,-58.9489C26.89,-46.3919 26.89,-30.6006 26.89,-20.7681"/>
<polygon fill="#9a32cd" stroke="#9a32cd" points="23.3901,-59.3078 26.89,-69.3078 30.3901,-59.3078 23.3901,-59.3078"/>
<text text-anchor="middle" x="39.3" y="-42.8599" font-family="Helvetica Neue" font-size="10.00"> table</text>
</g>
<!-- Node3 -->
<g id="node3" class="node"><title>Node3</title>
<polygon fill="none" stroke="#bfbfbf" points="16.22,-265.01 16.22,-284.939 75.56,-284.939 75.56,-265.01 16.22,-265.01"/>
<text text-anchor="middle" x="45.89" y="-272.939" font-family="Helvetica Neue" font-size="10.00">NSObject</text>
</g>
<!-- Node3&#45;&gt;Node2 -->
<g id="edge2" class="edge"><title>Node3&#45;&gt;Node2</title>
<path fill="none" stroke="midnightblue" d="M41.7279,-254.72C37.0299,-231.92 29.6788,-192.733 26.89,-158.65 24.8495,-133.713 25.7422,-104.16 26.4058,-89.509"/>
<polygon fill="midnightblue" stroke="midnightblue" points="38.3589,-255.707 43.847,-264.77 45.2083,-254.263 38.3589,-255.707"/>
</g>
<!-- Node4 -->
<g id="node4" class="node"><title>Node4</title>
<g id="a_node4"><a xlink:href="interface_d_b.html" target="_top" xlink:title="DB">
<polygon fill="none" stroke="black" points="35.945,-138.22 35.945,-158.15 65.835,-158.15 65.835,-138.22 35.945,-138.22"/>
<text text-anchor="middle" x="50.89" y="-146.15" font-family="Helvetica Neue" font-size="10.00">DB</text>
</a>
</g>
</g>
<!-- Node3&#45;&gt;Node4 -->
<g id="edge4" class="edge"><title>Node3&#45;&gt;Node4</title>
<path fill="none" stroke="midnightblue" d="M46.6586,-254.793C47.7501,-227.549 49.7072,-178.705 50.5202,-158.415"/>
<polygon fill="midnightblue" stroke="midnightblue" points="43.1528,-254.868 46.2496,-265 50.1472,-255.148 43.1528,-254.868"/>
</g>
<!-- Node5 -->
<g id="node5" class="node"><title>Node5</title>
<g id="a_node5"><a xlink:href="interface_d_b_connection.html" target="_top" xlink:title="DBConnection">
<polygon fill="none" stroke="black" points="74.2,-207.08 74.2,-227.01 155.58,-227.01 155.58,-207.08 74.2,-207.08"/>
<text text-anchor="middle" x="114.89" y="-215.01" font-family="Helvetica Neue" font-size="10.00">DBConnection</text>
</a>
</g>
</g>
<!-- Node3&#45;&gt;Node5 -->
<g id="edge6" class="edge"><title>Node3&#45;&gt;Node5</title>
<path fill="none" stroke="midnightblue" d="M64.9279,-258.543C77.3458,-248.477 93.1334,-235.68 103.602,-227.194"/>
<polygon fill="midnightblue" stroke="midnightblue" points="62.5406,-255.972 56.976,-264.988 66.9484,-261.41 62.5406,-255.972"/>
</g>
<!-- Node4&#45;&gt;Node2 -->
<g id="edge3" class="edge"><title>Node4&#45;&gt;Node2</title>
<path fill="none" stroke="#9a32cd" stroke-dasharray="5,2" d="M44.2093,-128.573C39.6596,-115.899 33.831,-99.6611 30.2295,-89.628"/>
<polygon fill="#9a32cd" stroke="#9a32cd" points="40.9805,-129.938 47.6533,-138.168 47.5689,-127.573 40.9805,-129.938"/>
<text text-anchor="middle" x="63.025" y="-111.72" font-family="Helvetica Neue" font-size="10.00"> database</text>
</g>
<!-- Node5&#45;&gt;Node4 -->
<g id="edge5" class="edge"><title>Node5&#45;&gt;Node4</title>
<path fill="none" stroke="#9a32cd" stroke-dasharray="5,2" d="M99.2198,-199.674C86.8289,-186.73 69.9755,-169.123 59.7952,-158.488"/>
<polygon fill="#9a32cd" stroke="#9a32cd" points="96.8154,-202.224 106.259,-207.028 101.872,-197.383 96.8154,-202.224"/>
<text text-anchor="middle" x="113.1" y="-180.58" font-family="Helvetica Neue" font-size="10.00"> connection</text>
</g>
</g>
</svg>
