<?xml version="1.0" encoding="UTF-8" standalone="no"?>
<!DOCTYPE svg PUBLIC "-//W3C//DTD SVG 1.1//EN"
 "http://www.w3.org/Graphics/SVG/1.1/DTD/svg11.dtd">
<!-- Generated by graphviz version 2.38.0 (20140413.2041)
 -->
<!-- Title: Source/Connections Pages: 1 -->
<svg width="114pt" height="224pt"
 viewBox="0.00 0.00 114.00 223.93" xmlns="http://www.w3.org/2000/svg" xmlns:xlink="http://www.w3.org/1999/xlink">
<g id="graph0" class="graph" transform="scale(1 1) rotate(0) translate(4 219.93)">
<title>Source/Connections</title>
<g id="clust1" class="cluster"><title>clusterdir_74389ed8173ad57b461b9d623a1f3867</title>
<g id="a_clust1"><a xlink:href="dir_74389ed8173ad57b461b9d623a1f3867.html" target="_top" xlink:title="Source">
<polygon fill="#ddddee" stroke="black" points="10,-136 10,-207.93 98,-207.93 98,-136 10,-136"/>
<text text-anchor="middle" x="54" y="-195.93" font-family="Helvetica Neue" font-size="10.00">Source</text>
</a>
</g>
</g>
<!-- dir_ef04e42bffb17b157d3766b240fb2c95 -->
<g id="node1" class="node"><title>dir_ef04e42bffb17b157d3766b240fb2c95</title>
<g id="a_node1"><a xlink:href="dir_ef04e42bffb17b157d3766b240fb2c95.html" target="_top" xlink:title="Connections">
<polygon fill="#eeeeff" stroke="black" points="90.4917,-180 17.5083,-180 17.5083,-144 90.4917,-144 90.4917,-180"/>
<text text-anchor="middle" x="54" y="-159.965" font-family="Helvetica Neue" font-size="10.00">Connections</text>
</a>
</g>
</g>
<!-- dir_9004245aaaaa2dad7b2f90fc9db90e30 -->
<g id="node2" class="node"><title>dir_9004245aaaaa2dad7b2f90fc9db90e30</title>
<g id="a_node2"><a xlink:href="dir_9004245aaaaa2dad7b2f90fc9db90e30.html" target="_top" xlink:title="Utilities">
<polygon fill="none" stroke="red" points="54,-108 0,-108 0,-72 54,-72 54,-108"/>
<text text-anchor="middle" x="27" y="-87.965" font-family="Helvetica Neue" font-size="10.00">Utilities</text>
</a>
</g>
</g>
<!-- dir_ef04e42bffb17b157d3766b240fb2c95&#45;&gt;dir_9004245aaaaa2dad7b2f90fc9db90e30 -->
<g id="edge3" class="edge"><title>dir_ef04e42bffb17b157d3766b240fb2c95&#45;&gt;dir_9004245aaaaa2dad7b2f90fc9db90e30</title>
<path fill="none" stroke="black" d="M47.3258,-143.697C44.2851,-135.813 40.6173,-126.304 37.2393,-117.546"/>
<polygon fill="black" stroke="black" points="40.4617,-116.175 33.5974,-108.104 33.9307,-118.694 40.4617,-116.175"/>
<g id="a_edge3&#45;headlabel"><a xlink:href="dir_000001_000003.html" target="_top" xlink:title="6">
<text text-anchor="middle" x="44.4043" y="-116.472" font-family="Helvetica Neue" font-size="10.00">6</text>
</a>
</g>
</g>
<!-- dir_48ffcb46d4599d8778cfde285feb70cc -->
<g id="node3" class="node"><title>dir_48ffcb46d4599d8778cfde285feb70cc</title>
<g id="a_node3"><a xlink:href="dir_48ffcb46d4599d8778cfde285feb70cc.html" target="_top" xlink:title="Queries">
<polygon fill="none" stroke="black" points="54,-36 0,-36 0,-0 54,-0 54,-36"/>
<text text-anchor="middle" x="27" y="-15.965" font-family="Helvetica Neue" font-size="10.00">Queries</text>
</a>
</g>
</g>
<!-- dir_ef04e42bffb17b157d3766b240fb2c95&#45;&gt;dir_48ffcb46d4599d8778cfde285feb70cc -->
<g id="edge4" class="edge"><title>dir_ef04e42bffb17b157d3766b240fb2c95&#45;&gt;dir_48ffcb46d4599d8778cfde285feb70cc</title>
<path fill="none" stroke="black" d="M59.6461,-143.877C64.7573,-125.661 70.4405,-96.196 63,-72 59.9911,-62.2153 54.493,-52.6161 48.6843,-44.3336"/>
<polygon fill="black" stroke="black" points="51.4072,-42.1306 42.6099,-36.2264 45.8052,-46.3279 51.4072,-42.1306"/>
<g id="a_edge4&#45;headlabel"><a xlink:href="dir_000001_000002.html" target="_top" xlink:title="2">
<text text-anchor="middle" x="55.8348" y="-41.2697" font-family="Helvetica Neue" font-size="10.00">2</text>
</a>
</g>
</g>
<!-- dir_9004245aaaaa2dad7b2f90fc9db90e30&#45;&gt;dir_48ffcb46d4599d8778cfde285feb70cc -->
<g id="edge1" class="edge"><title>dir_9004245aaaaa2dad7b2f90fc9db90e30&#45;&gt;dir_48ffcb46d4599d8778cfde285feb70cc</title>
<path fill="none" stroke="black" d="M21.0843,-71.6966C20.2886,-63.9827 20.0621,-54.7125 20.4047,-46.1124"/>
<polygon fill="black" stroke="black" points="23.8984,-46.3243 21.105,-36.1043 16.9154,-45.8356 23.8984,-46.3243"/>
<g id="a_edge1&#45;headlabel"><a xlink:href="dir_000003_000002.html" target="_top" xlink:title="1">
<text text-anchor="middle" x="26.4799" y="-48.0732" font-family="Helvetica Neue" font-size="10.00">1</text>
</a>
</g>
</g>
<!-- dir_48ffcb46d4599d8778cfde285feb70cc&#45;&gt;dir_9004245aaaaa2dad7b2f90fc9db90e30 -->
<g id="edge2" class="edge"><title>dir_48ffcb46d4599d8778cfde285feb70cc&#45;&gt;dir_9004245aaaaa2dad7b2f90fc9db90e30</title>
<path fill="none" stroke="black" d="M32.895,-36.1043C33.7005,-43.7913 33.9369,-53.0537 33.604,-61.6651"/>
<polygon fill="black" stroke="black" points="30.1085,-61.4805 32.9157,-71.6966 37.0921,-61.9597 30.1085,-61.4805"/>
<g id="a_edge2&#45;headlabel"><a xlink:href="dir_000002_000003.html" target="_top" xlink:title="8">
<text text-anchor="middle" x="27.5219" y="-55.6649" font-family="Helvetica Neue" font-size="10.00">8</text>
</a>
</g>
</g>
</g>
</svg>
