<?xml version="1.0" encoding="UTF-8" standalone="no"?>
<!DOCTYPE svg PUBLIC "-//W3C//DTD SVG 1.1//EN"
 "http://www.w3.org/Graphics/SVG/1.1/DTD/svg11.dtd">
<!-- Generated by graphviz version 2.38.0 (20140413.2041)
 -->
<!-- Title: Source Pages: 1 -->
<svg width="114pt" height="292pt"
 viewBox="0.00 0.00 114.00 292.00" xmlns="http://www.w3.org/2000/svg" xmlns:xlink="http://www.w3.org/1999/xlink">
<g id="graph0" class="graph" transform="scale(1 1) rotate(0) translate(4 288)">
<title>Source</title>
<g id="clust1" class="cluster"><title>clusterdir_74389ed8173ad57b461b9d623a1f3867</title>
<g id="a_clust1"><a xlink:href="dir_74389ed8173ad57b461b9d623a1f3867.html" target="_top">
<polygon fill="#eeeeff" stroke="black" points="8,-8 8,-276 98,-276 98,-8 8,-8"/>
</a>
</g>
</g>
<!-- dir_74389ed8173ad57b461b9d623a1f3867 -->
<g id="node1" class="node"><title>dir_74389ed8173ad57b461b9d623a1f3867</title>
<text text-anchor="middle" x="53" y="-247.965" font-family="Helvetica Neue" font-size="10.00">Source</text>
</g>
<!-- dir_ef04e42bffb17b157d3766b240fb2c95 -->
<g id="node2" class="node"><title>dir_ef04e42bffb17b157d3766b240fb2c95</title>
<g id="a_node2"><a xlink:href="dir_ef04e42bffb17b157d3766b240fb2c95.html" target="_top" xlink:title="Connections">
<polygon fill="white" stroke="black" points="89.4917,-196 16.5083,-196 16.5083,-160 89.4917,-160 89.4917,-196"/>
<text text-anchor="middle" x="53" y="-175.965" font-family="Helvetica Neue" font-size="10.00">Connections</text>
</a>
</g>
</g>
<!-- dir_74389ed8173ad57b461b9d623a1f3867&#45;&gt;dir_ef04e42bffb17b157d3766b240fb2c95 -->
<g id="edge5" class="edge"><title>dir_74389ed8173ad57b461b9d623a1f3867&#45;&gt;dir_ef04e42bffb17b157d3766b240fb2c95</title>
<path fill="none" stroke="black" d="M53,-231.697C53,-223.983 53,-214.712 53,-206.112"/>
<polygon fill="black" stroke="black" points="56.5001,-206.104 53,-196.104 49.5001,-206.104 56.5001,-206.104"/>
<g id="a_edge5&#45;headlabel"><a xlink:href="dir_000000_000001.html" target="_top" xlink:title="2">
<text text-anchor="middle" x="59.3393" y="-207.664" font-family="Helvetica Neue" font-size="10.00">2</text>
</a>
</g>
</g>
<!-- dir_48ffcb46d4599d8778cfde285feb70cc -->
<g id="node3" class="node"><title>dir_48ffcb46d4599d8778cfde285feb70cc</title>
<g id="a_node3"><a xlink:href="dir_48ffcb46d4599d8778cfde285feb70cc.html" target="_top" xlink:title="Queries">
<polygon fill="white" stroke="black" points="70,-124 16,-124 16,-88 70,-88 70,-124"/>
<text text-anchor="middle" x="43" y="-103.965" font-family="Helvetica Neue" font-size="10.00">Queries</text>
</a>
</g>
</g>
<!-- dir_ef04e42bffb17b157d3766b240fb2c95&#45;&gt;dir_48ffcb46d4599d8778cfde285feb70cc -->
<g id="edge4" class="edge"><title>dir_ef04e42bffb17b157d3766b240fb2c95&#45;&gt;dir_48ffcb46d4599d8778cfde285feb70cc</title>
<path fill="none" stroke="black" d="M50.5281,-159.697C49.4261,-151.983 48.1018,-142.712 46.8732,-134.112"/>
<polygon fill="black" stroke="black" points="50.3226,-133.509 45.4435,-124.104 43.393,-134.499 50.3226,-133.509"/>
<g id="a_edge4&#45;headlabel"><a xlink:href="dir_000001_000002.html" target="_top" xlink:title="2">
<text text-anchor="middle" x="53.6416" y="-134.631" font-family="Helvetica Neue" font-size="10.00">2</text>
</a>
</g>
</g>
<!-- dir_9004245aaaaa2dad7b2f90fc9db90e30 -->
<g id="node4" class="node"><title>dir_9004245aaaaa2dad7b2f90fc9db90e30</title>
<g id="a_node4"><a xlink:href="dir_9004245aaaaa2dad7b2f90fc9db90e30.html" target="_top" xlink:title="Utilities">
<polygon fill="white" stroke="red" points="70,-52 16,-52 16,-16 70,-16 70,-52"/>
<text text-anchor="middle" x="43" y="-31.965" font-family="Helvetica Neue" font-size="10.00">Utilities</text>
</a>
</g>
</g>
<!-- dir_ef04e42bffb17b157d3766b240fb2c95&#45;&gt;dir_9004245aaaaa2dad7b2f90fc9db90e30 -->
<g id="edge3" class="edge"><title>dir_ef04e42bffb17b157d3766b240fb2c95&#45;&gt;dir_9004245aaaaa2dad7b2f90fc9db90e30</title>
<path fill="none" stroke="black" d="M64.0462,-159.611C69.7366,-149.615 76.0807,-136.579 79,-124 82.617,-108.414 83.7028,-103.293 79,-88 75.9911,-78.2153 70.493,-68.6161 64.6843,-60.3336"/>
<polygon fill="black" stroke="black" points="67.4072,-58.1306 58.6099,-52.2264 61.8052,-62.3279 67.4072,-58.1306"/>
<g id="a_edge3&#45;headlabel"><a xlink:href="dir_000001_000003.html" target="_top" xlink:title="6">
<text text-anchor="middle" x="71.8348" y="-57.2697" font-family="Helvetica Neue" font-size="10.00">6</text>
</a>
</g>
</g>
<!-- dir_48ffcb46d4599d8778cfde285feb70cc&#45;&gt;dir_9004245aaaaa2dad7b2f90fc9db90e30 -->
<g id="edge2" class="edge"><title>dir_48ffcb46d4599d8778cfde285feb70cc&#45;&gt;dir_9004245aaaaa2dad7b2f90fc9db90e30</title>
<path fill="none" stroke="black" d="M37.0843,-87.6966C36.2886,-79.9827 36.0621,-70.7125 36.4047,-62.1124"/>
<polygon fill="black" stroke="black" points="39.8984,-62.3243 37.105,-52.1043 32.9154,-61.8356 39.8984,-62.3243"/>
<g id="a_edge2&#45;headlabel"><a xlink:href="dir_000002_000003.html" target="_top" xlink:title="8">
<text text-anchor="middle" x="42.4799" y="-64.0732" font-family="Helvetica Neue" font-size="10.00">8</text>
</a>
</g>
</g>
<!-- dir_9004245aaaaa2dad7b2f90fc9db90e30&#45;&gt;dir_48ffcb46d4599d8778cfde285feb70cc -->
<g id="edge1" class="edge"><title>dir_9004245aaaaa2dad7b2f90fc9db90e30&#45;&gt;dir_48ffcb46d4599d8778cfde285feb70cc</title>
<path fill="none" stroke="black" d="M48.895,-52.1043C49.7005,-59.7913 49.9369,-69.0537 49.604,-77.6651"/>
<polygon fill="black" stroke="black" points="46.1085,-77.4805 48.9157,-87.6966 53.0921,-77.9597 46.1085,-77.4805"/>
<g id="a_edge1&#45;headlabel"><a xlink:href="dir_000003_000002.html" target="_top" xlink:title="1">
<text text-anchor="middle" x="43.5219" y="-71.6649" font-family="Helvetica Neue" font-size="10.00">1</text>
</a>
</g>
</g>
</g>
</svg>
