<?xml version="1.0" encoding="UTF-8" standalone="no"?>
<!DOCTYPE svg PUBLIC "-//W3C//DTD SVG 1.1//EN"
 "http://www.w3.org/Graphics/SVG/1.1/DTD/svg11.dtd">
<!-- Generated by graphviz version 2.38.0 (20140413.2041)
 -->
<!-- Title: Source/Queries Pages: 1 -->
<svg width="94pt" height="152pt"
 viewBox="0.00 0.00 94.00 151.93" xmlns="http://www.w3.org/2000/svg" xmlns:xlink="http://www.w3.org/1999/xlink">
<g id="graph0" class="graph" transform="scale(1 1) rotate(0) translate(4 147.93)">
<title>Source/Queries</title>
<g id="clust1" class="cluster"><title>clusterdir_74389ed8173ad57b461b9d623a1f3867</title>
<g id="a_clust1"><a xlink:href="dir_74389ed8173ad57b461b9d623a1f3867.html" target="_top" xlink:title="Source">
<polygon fill="#ddddee" stroke="black" points="8,-64 8,-135.93 78,-135.93 78,-64 8,-64"/>
<text text-anchor="middle" x="43" y="-123.93" font-family="Helvetica Neue" font-size="10.00">Source</text>
</a>
</g>
</g>
<!-- dir_48ffcb46d4599d8778cfde285feb70cc -->
<g id="node1" class="node"><title>dir_48ffcb46d4599d8778cfde285feb70cc</title>
<g id="a_node1"><a xlink:href="dir_48ffcb46d4599d8778cfde285feb70cc.html" target="_top" xlink:title="Queries">
<polygon fill="#eeeeff" stroke="black" points="70,-108 16,-108 16,-72 70,-72 70,-108"/>
<text text-anchor="middle" x="43" y="-87.965" font-family="Helvetica Neue" font-size="10.00">Queries</text>
</a>
</g>
</g>
<!-- dir_9004245aaaaa2dad7b2f90fc9db90e30 -->
<g id="node2" class="node"><title>dir_9004245aaaaa2dad7b2f90fc9db90e30</title>
<g id="a_node2"><a xlink:href="dir_9004245aaaaa2dad7b2f90fc9db90e30.html" target="_top" xlink:title="Utilities">
<polygon fill="none" stroke="red" points="70,-36 16,-36 16,-0 70,-0 70,-36"/>
<text text-anchor="middle" x="43" y="-15.965" font-family="Helvetica Neue" font-size="10.00">Utilities</text>
</a>
</g>
</g>
<!-- dir_48ffcb46d4599d8778cfde285feb70cc&#45;&gt;dir_9004245aaaaa2dad7b2f90fc9db90e30 -->
<g id="edge2" class="edge"><title>dir_48ffcb46d4599d8778cfde285feb70cc&#45;&gt;dir_9004245aaaaa2dad7b2f90fc9db90e30</title>
<path fill="none" stroke="black" d="M37.0843,-71.6966C36.2886,-63.9827 36.0621,-54.7125 36.4047,-46.1124"/>
<polygon fill="black" stroke="black" points="39.8984,-46.3243 37.105,-36.1043 32.9154,-45.8356 39.8984,-46.3243"/>
<g id="a_edge2&#45;headlabel"><a xlink:href="dir_000002_000003.html" target="_top" xlink:title="8">
<text text-anchor="middle" x="42.4799" y="-48.0732" font-family="Helvetica Neue" font-size="10.00">8</text>
</a>
</g>
</g>
<!-- dir_9004245aaaaa2dad7b2f90fc9db90e30&#45;&gt;dir_48ffcb46d4599d8778cfde285feb70cc -->
<g id="edge1" class="edge"><title>dir_9004245aaaaa2dad7b2f90fc9db90e30&#45;&gt;dir_48ffcb46d4599d8778cfde285feb70cc</title>
<path fill="none" stroke="black" d="M48.895,-36.1043C49.7005,-43.7913 49.9369,-53.0537 49.604,-61.6651"/>
<polygon fill="black" stroke="black" points="46.1085,-61.4805 48.9157,-71.6966 53.0921,-61.9597 46.1085,-61.4805"/>
<g id="a_edge1&#45;headlabel"><a xlink:href="dir_000003_000002.html" target="_top" xlink:title="1">
<text text-anchor="middle" x="43.5219" y="-55.6649" font-family="Helvetica Neue" font-size="10.00">1</text>
</a>
</g>
</g>
</g>
</svg>
