<?xml version="1.0" encoding="UTF-8" standalone="no"?>
<!DOCTYPE svg PUBLIC "-//W3C//DTD SVG 1.1//EN"
 "http://www.w3.org/Graphics/SVG/1.1/DTD/svg11.dtd">
<!-- Generated by graphviz version 2.38.0 (20140413.2041)
 -->
<!-- Title: Graph Legend Pages: 1 -->
<svg width="511pt" height="164pt"
 viewBox="0.00 0.00 510.94 163.65" xmlns="http://www.w3.org/2000/svg" xmlns:xlink="http://www.w3.org/1999/xlink">
<g id="graph0" class="graph" transform="scale(1 1) rotate(0) translate(4 159.65)">
<title>Graph Legend</title>
<!-- Node9 -->
<g id="node1" class="node"><title>Node9</title>
<polygon fill="#bfbfbf" stroke="black" points="293.765,-19.895 238.605,-19.895 238.605,-0.0349114 293.765,-0.0349114 293.765,-19.895"/>
<text text-anchor="middle" x="266.185" y="-7.92993" font-family="Helvetica Neue" font-size="10.00">Inherited</text>
</g>
<!-- Node10 -->
<g id="node2" class="node"><title>Node10</title>
<g id="a_node2"><a xlink:href="$classPublicBase.html" xlink:title="PublicBase">
<polygon fill="none" stroke="black" points="66.556,-87.7549 -0.186037,-87.7549 -0.186037,-67.8948 66.556,-67.8948 66.556,-87.7549"/>
<text text-anchor="middle" x="33.185" y="-75.7898" font-family="Helvetica Neue" font-size="10.00">PublicBase</text>
</a>
</g>
</g>
<!-- Node10&#45;&gt;Node9 -->
<g id="edge1" class="edge"><title>Node10&#45;&gt;Node9</title>
<path fill="none" stroke="midnightblue" d="M75.0072,-65.0034C122.231,-51.6551 197.752,-30.3082 238.297,-18.8479"/>
<polygon fill="midnightblue" stroke="midnightblue" points="73.765,-61.7172 65.0941,-67.8054 75.6691,-68.4533 73.765,-61.7172"/>
</g>
<!-- Node11 -->
<g id="node3" class="node"><title>Node11</title>
<g id="a_node3"><a xlink:href="$classTruncated.html" xlink:title="Truncated">
<polygon fill="none" stroke="red" points="63.6468,-155.615 2.72324,-155.615 2.72324,-135.755 63.6468,-135.755 63.6468,-155.615"/>
<text text-anchor="middle" x="33.185" y="-143.65" font-family="Helvetica Neue" font-size="10.00">Truncated</text>
</a>
</g>
</g>
<!-- Node11&#45;&gt;Node10 -->
<g id="edge2" class="edge"><title>Node11&#45;&gt;Node10</title>
<path fill="none" stroke="midnightblue" d="M33.185,-125.302C33.185,-112.945 33.185,-97.5068 33.185,-87.9046"/>
<polygon fill="midnightblue" stroke="midnightblue" points="29.6851,-125.527 33.185,-135.527 36.6851,-125.527 29.6851,-125.527"/>
</g>
<!-- Node13 -->
<g id="node4" class="node"><title>Node13</title>
<g id="a_node4"><a xlink:href="$classProtectedBase.html" xlink:title="ProtectedBase">
<polygon fill="none" stroke="black" points="166.486,-87.7549 83.8845,-87.7549 83.8845,-67.8948 166.486,-67.8948 166.486,-87.7549"/>
<text text-anchor="middle" x="125.185" y="-75.7898" font-family="Helvetica Neue" font-size="10.00">ProtectedBase</text>
</a>
</g>
</g>
<!-- Node13&#45;&gt;Node9 -->
<g id="edge3" class="edge"><title>Node13&#45;&gt;Node9</title>
<path fill="none" stroke="darkgreen" d="M153.657,-63.5256C181.305,-50.6117 222.533,-31.3543 246.656,-20.0868"/>
<polygon fill="darkgreen" stroke="darkgreen" points="152.074,-60.4022 144.495,-67.8054 155.036,-66.7444 152.074,-60.4022"/>
</g>
<!-- Node14 -->
<g id="node5" class="node"><title>Node14</title>
<g id="a_node5"><a xlink:href="$classPrivateBase.html" xlink:title="PrivateBase">
<polygon fill="none" stroke="black" points="253.697,-87.7549 184.673,-87.7549 184.673,-67.8948 253.697,-67.8948 253.697,-87.7549"/>
<text text-anchor="middle" x="219.185" y="-75.7898" font-family="Helvetica Neue" font-size="10.00">PrivateBase</text>
</a>
</g>
</g>
<!-- Node14&#45;&gt;Node9 -->
<g id="edge4" class="edge"><title>Node14&#45;&gt;Node9</title>
<path fill="none" stroke="#8b1a1a" d="M231.686,-59.3079C240.7,-46.676 252.503,-30.1369 259.705,-20.0447"/>
<polygon fill="#8b1a1a" stroke="#8b1a1a" points="228.68,-57.4943 225.72,-67.6673 234.378,-61.5606 228.68,-57.4943"/>
</g>
<!-- Node15 -->
<g id="node6" class="node"><title>Node15</title>
<polygon fill="none" stroke="#bfbfbf" points="356.975,-87.7549 271.395,-87.7549 271.395,-67.8948 356.975,-67.8948 356.975,-87.7549"/>
<text text-anchor="middle" x="314.185" y="-75.7898" font-family="Helvetica Neue" font-size="10.00">Undocumented</text>
</g>
<!-- Node15&#45;&gt;Node9 -->
<g id="edge5" class="edge"><title>Node15&#45;&gt;Node9</title>
<path fill="none" stroke="midnightblue" d="M301.418,-59.3079C292.212,-46.676 280.158,-30.1369 272.803,-20.0447"/>
<polygon fill="midnightblue" stroke="midnightblue" points="298.792,-61.6473 307.511,-67.6673 304.449,-57.5244 298.792,-61.6473"/>
</g>
<!-- Node16 -->
<g id="node7" class="node"><title>Node16</title>
<g id="a_node7"><a xlink:href="$classTempl.html" xlink:title="Templ&lt; int &gt;">
<polygon fill="none" stroke="black" points="445.855,-87.7549 374.515,-87.7549 374.515,-67.8948 445.855,-67.8948 445.855,-87.7549"/>
<text text-anchor="middle" x="410.185" y="-75.7898" font-family="Helvetica Neue" font-size="10.00">Templ&lt; int &gt;</text>
</a>
</g>
</g>
<!-- Node16&#45;&gt;Node9 -->
<g id="edge6" class="edge"><title>Node16&#45;&gt;Node9</title>
<path fill="none" stroke="midnightblue" d="M381.107,-63.5256C352.871,-50.6117 310.766,-31.3543 286.13,-20.0868"/>
<polygon fill="midnightblue" stroke="midnightblue" points="379.915,-66.829 390.464,-67.8054 382.826,-60.4632 379.915,-66.829"/>
</g>
<!-- Node17 -->
<g id="node8" class="node"><title>Node17</title>
<g id="a_node8"><a xlink:href="$classTempl.html" xlink:title="Templ&lt; T &gt;">
<polygon fill="none" stroke="black" points="443.165,-155.615 377.205,-155.615 377.205,-135.755 443.165,-135.755 443.165,-155.615"/>
<text text-anchor="middle" x="410.185" y="-143.65" font-family="Helvetica Neue" font-size="10.00">Templ&lt; T &gt;</text>
</a>
</g>
</g>
<!-- Node17&#45;&gt;Node16 -->
<g id="edge7" class="edge"><title>Node17&#45;&gt;Node16</title>
<path fill="none" stroke="orange" stroke-dasharray="5,2" d="M410.185,-125.302C410.185,-112.945 410.185,-97.5068 410.185,-87.9046"/>
<polygon fill="orange" stroke="orange" points="406.685,-125.527 410.185,-135.527 413.685,-125.527 406.685,-125.527"/>
<text text-anchor="middle" x="424.43" y="-109.72" font-family="Helvetica Neue" font-size="10.00">&lt; int &gt;</text>
</g>
<!-- Node18 -->
<g id="node9" class="node"><title>Node18</title>
<g id="a_node9"><a xlink:href="$classUsed.html" xlink:title="Used">
<polygon fill="none" stroke="black" points="502.708,-87.7549 463.662,-87.7549 463.662,-67.8948 502.708,-67.8948 502.708,-87.7549"/>
<text text-anchor="middle" x="483.185" y="-75.7898" font-family="Helvetica Neue" font-size="10.00">Used</text>
</a>
</g>
</g>
<!-- Node18&#45;&gt;Node9 -->
<g id="edge8" class="edge"><title>Node18&#45;&gt;Node9</title>
<path fill="none" stroke="#9a32cd" stroke-dasharray="5,2" d="M453.985,-67.5214C391.417,-48.1366 328.826,-29.4846 293.775,-19.1063"/>
<polygon fill="#9a32cd" stroke="#9a32cd" points="453.029,-70.8892 463.617,-70.5115 455.104,-64.2039 453.029,-70.8892"/>
<text text-anchor="middle" x="423.285" y="-41.8599" font-family="Helvetica Neue" font-size="10.00">m_usedClass</text>
</g>
</g>
</svg>
