<?xml version="1.0" encoding="UTF-8" standalone="no"?>
<!DOCTYPE svg PUBLIC "-//W3C//DTD SVG 1.1//EN"
 "http://www.w3.org/Graphics/SVG/1.1/DTD/svg11.dtd">
<!-- Generated by graphviz version 2.38.0 (20140413.2041)
 -->
<!-- Title: Graphical Class Hierarchy Pages: 1 -->
<svg width="819pt" height="729pt"
 viewBox="0.00 0.00 819.38 728.93" xmlns="http://www.w3.org/2000/svg" xmlns:xlink="http://www.w3.org/1999/xlink">
<g id="graph0" class="graph" transform="scale(1 1) rotate(0) translate(4 724.93)">
<title>Graphical Class Hierarchy</title>
<!-- Node1 -->
<g id="node1" class="node"><title>Node1</title>
<g id="a_node1"><a xlink:href="protocol_d_b_filterable_query-p.html" target="_top" xlink:title="\&lt;DBFilterableQuery\&gt;">
<polygon fill="none" stroke="black" points="421.18,-193.5 421.18,-213.43 530.85,-213.43 530.85,-193.5 421.18,-193.5"/>
<text text-anchor="middle" x="476.015" y="-201.43" font-family="Helvetica Neue" font-size="10.00">&lt;DBFilterableQuery&gt;</text>
</a>
</g>
</g>
<!-- Node2 -->
<g id="node2" class="node"><title>Node2</title>
<g id="a_node2"><a xlink:href="interface_d_b_delete_query.html" target="_top" xlink:title="DBDeleteQuery">
<polygon fill="none" stroke="black" points="588.075,-193.5 588.075,-213.43 673.345,-213.43 673.345,-193.5 588.075,-193.5"/>
<text text-anchor="middle" x="630.71" y="-201.43" font-family="Helvetica Neue" font-size="10.00">DBDeleteQuery</text>
</a>
</g>
</g>
<!-- Node1&#45;&gt;Node2 -->
<g id="edge1" class="edge"><title>Node1&#45;&gt;Node2</title>
<path fill="none" stroke="midnightblue" d="M541.416,-203.465C557.034,-203.465 573.336,-203.465 587.619,-203.465"/>
<polygon fill="midnightblue" stroke="midnightblue" points="541.28,-199.965 531.279,-203.465 541.279,-206.965 541.28,-199.965"/>
</g>
<!-- Node3 -->
<g id="node3" class="node"><title>Node3</title>
<g id="a_node3"><a xlink:href="interface_d_b_select_query.html" target="_top" xlink:title="DBSelectQuery">
<polygon fill="none" stroke="black" points="588.355,-269.5 588.355,-289.43 673.065,-289.43 673.065,-269.5 588.355,-269.5"/>
<text text-anchor="middle" x="630.71" y="-277.43" font-family="Helvetica Neue" font-size="10.00">DBSelectQuery</text>
</a>
</g>
</g>
<!-- Node1&#45;&gt;Node3 -->
<g id="edge2" class="edge"><title>Node1&#45;&gt;Node3</title>
<path fill="none" stroke="midnightblue" d="M526.643,-217.105C531.188,-218.999 535.631,-221.114 539.76,-223.465 558.363,-234.057 557.767,-243.866 575.76,-255.465 584.118,-260.853 593.887,-265.603 602.799,-269.426"/>
<polygon fill="midnightblue" stroke="midnightblue" points="527.828,-213.812 517.237,-213.525 525.338,-220.354 527.828,-213.812"/>
</g>
<!-- Node4 -->
<g id="node4" class="node"><title>Node4</title>
<g id="a_node4"><a xlink:href="interface_d_b_update_query.html" target="_top" xlink:title="DBUpdateQuery">
<polygon fill="none" stroke="black" points="721.66,-155.5 721.66,-175.43 811.38,-175.43 811.38,-155.5 721.66,-155.5"/>
<text text-anchor="middle" x="766.52" y="-163.43" font-family="Helvetica Neue" font-size="10.00">DBUpdateQuery</text>
</a>
</g>
</g>
<!-- Node1&#45;&gt;Node4 -->
<g id="edge3" class="edge"><title>Node1&#45;&gt;Node4</title>
<path fill="none" stroke="midnightblue" d="M516.946,-216.24C559.709,-227.838 629.058,-240.593 685.66,-222.465 714.536,-213.217 741.865,-189.272 755.838,-175.54"/>
<polygon fill="midnightblue" stroke="midnightblue" points="517.768,-212.835 507.194,-213.489 515.868,-219.572 517.768,-212.835"/>
</g>
<!-- Node5 -->
<g id="node5" class="node"><title>Node5</title>
<polygon fill="none" stroke="#bfbfbf" points="133.37,-622.5 133.37,-642.43 207.48,-642.43 207.48,-622.5 133.37,-622.5"/>
<text text-anchor="middle" x="170.425" y="-630.43" font-family="Helvetica Neue" font-size="10.00">&lt;NSCoding&gt;</text>
</g>
<!-- Node6 -->
<g id="node6" class="node"><title>Node6</title>
<g id="a_node6"><a xlink:href="interface_d_b_column_definition.html" target="_top" xlink:title="DBColumnDefinition">
<polygon fill="none" stroke="black" points="269.51,-583.5 269.51,-603.43 376.27,-603.43 376.27,-583.5 269.51,-583.5"/>
<text text-anchor="middle" x="322.89" y="-591.43" font-family="Helvetica Neue" font-size="10.00">DBColumnDefinition</text>
</a>
</g>
</g>
<!-- Node5&#45;&gt;Node6 -->
<g id="edge4" class="edge"><title>Node5&#45;&gt;Node6</title>
<path fill="none" stroke="midnightblue" d="M217.567,-620.505C238.663,-615.037 263.367,-608.634 283.438,-603.432"/>
<polygon fill="midnightblue" stroke="midnightblue" points="216.65,-617.127 207.848,-623.024 218.407,-623.903 216.65,-617.127"/>
</g>
<!-- Node7 -->
<g id="node7" class="node"><title>Node7</title>
<g id="a_node7"><a xlink:href="interface_d_b_constraint.html" target="_top" xlink:title="DBConstraint">
<polygon fill="none" stroke="black" points="284.795,-622.5 284.795,-642.43 360.985,-642.43 360.985,-622.5 284.795,-622.5"/>
<text text-anchor="middle" x="322.89" y="-630.43" font-family="Helvetica Neue" font-size="10.00">DBConstraint</text>
</a>
</g>
</g>
<!-- Node5&#45;&gt;Node7 -->
<g id="edge5" class="edge"><title>Node5&#45;&gt;Node7</title>
<path fill="none" stroke="midnightblue" d="M218.05,-632.465C239.505,-632.465 264.608,-632.465 284.757,-632.465"/>
<polygon fill="midnightblue" stroke="midnightblue" points="217.848,-628.965 207.848,-632.465 217.848,-635.965 217.848,-628.965"/>
</g>
<!-- Node13 -->
<g id="node13" class="node"><title>Node13</title>
<g id="a_node13"><a xlink:href="interface_d_b_index.html" target="_top" xlink:title="DBIndex">
<polygon fill="none" stroke="black" points="295.63,-661.5 295.63,-681.43 350.15,-681.43 350.15,-661.5 295.63,-661.5"/>
<text text-anchor="middle" x="322.89" y="-669.43" font-family="Helvetica Neue" font-size="10.00">DBIndex</text>
</a>
</g>
</g>
<!-- Node5&#45;&gt;Node13 -->
<g id="edge11" class="edge"><title>Node5&#45;&gt;Node13</title>
<path fill="none" stroke="midnightblue" d="M217.671,-644.452C243.113,-651.046 273.778,-658.994 295.234,-664.556"/>
<polygon fill="midnightblue" stroke="midnightblue" points="218.407,-641.027 207.848,-641.906 216.65,-647.803 218.407,-641.027"/>
</g>
<!-- Node8 -->
<g id="node8" class="node"><title>Node8</title>
<g id="a_node8"><a xlink:href="interface_d_b_default_constraint.html" target="_top" xlink:title="DBDefaultConstraint">
<polygon fill="none" stroke="black" points="422.085,-622.5 422.085,-642.43 529.945,-642.43 529.945,-622.5 422.085,-622.5"/>
<text text-anchor="middle" x="476.015" y="-630.43" font-family="Helvetica Neue" font-size="10.00">DBDefaultConstraint</text>
</a>
</g>
</g>
<!-- Node7&#45;&gt;Node8 -->
<g id="edge6" class="edge"><title>Node7&#45;&gt;Node8</title>
<path fill="none" stroke="midnightblue" d="M371.449,-632.465C387.459,-632.465 405.421,-632.465 421.835,-632.465"/>
<polygon fill="midnightblue" stroke="midnightblue" points="371.247,-628.965 361.247,-632.465 371.247,-635.965 371.247,-628.965"/>
</g>
<!-- Node9 -->
<g id="node9" class="node"><title>Node9</title>
<g id="a_node9"><a xlink:href="interface_d_b_foreign_key_constraint.html" target="_top" xlink:title="DBForeignKeyConstraint">
<polygon fill="none" stroke="black" points="412.64,-583.5 412.64,-603.43 539.39,-603.43 539.39,-583.5 412.64,-583.5"/>
<text text-anchor="middle" x="476.015" y="-591.43" font-family="Helvetica Neue" font-size="10.00">DBForeignKeyConstraint</text>
</a>
</g>
</g>
<!-- Node7&#45;&gt;Node9 -->
<g id="edge7" class="edge"><title>Node7&#45;&gt;Node9</title>
<path fill="none" stroke="midnightblue" d="M371.211,-620.253C392.13,-614.855 416.422,-608.586 436.245,-603.47"/>
<polygon fill="midnightblue" stroke="midnightblue" points="370.055,-616.937 361.247,-622.825 371.804,-623.715 370.055,-616.937"/>
</g>
<!-- Node10 -->
<g id="node10" class="node"><title>Node10</title>
<g id="a_node10"><a xlink:href="interface_d_b_not_null_constraint.html" target="_top" xlink:title="DBNotNullConstraint">
<polygon fill="none" stroke="black" points="421.255,-544.5 421.255,-564.43 530.775,-564.43 530.775,-544.5 421.255,-544.5"/>
<text text-anchor="middle" x="476.015" y="-552.43" font-family="Helvetica Neue" font-size="10.00">DBNotNullConstraint</text>
</a>
</g>
</g>
<!-- Node7&#45;&gt;Node10 -->
<g id="edge8" class="edge"><title>Node7&#45;&gt;Node10</title>
<path fill="none" stroke="midnightblue" d="M366.246,-618.23C369.74,-616.481 373.13,-614.561 376.27,-612.465 395.62,-599.549 392.565,-586.832 412.27,-574.465 418.661,-570.454 425.928,-567.181 433.193,-564.533"/>
<polygon fill="midnightblue" stroke="midnightblue" points="364.537,-615.161 356.861,-622.464 367.416,-621.542 364.537,-615.161"/>
</g>
<!-- Node11 -->
<g id="node11" class="node"><title>Node11</title>
<g id="a_node11"><a xlink:href="interface_d_b_primary_key_constraint.html" target="_top" xlink:title="DBPrimaryKeyConstraint">
<polygon fill="none" stroke="black" points="412.27,-700.5 412.27,-720.43 539.76,-720.43 539.76,-700.5 412.27,-700.5"/>
<text text-anchor="middle" x="476.015" y="-708.43" font-family="Helvetica Neue" font-size="10.00">DBPrimaryKeyConstraint</text>
</a>
</g>
</g>
<!-- Node7&#45;&gt;Node11 -->
<g id="edge9" class="edge"><title>Node7&#45;&gt;Node11</title>
<path fill="none" stroke="midnightblue" d="M366.246,-646.7C369.74,-648.449 373.13,-650.369 376.27,-652.465 395.62,-665.381 392.565,-678.097 412.27,-690.465 418.661,-694.476 425.928,-697.749 433.193,-700.397"/>
<polygon fill="midnightblue" stroke="midnightblue" points="367.416,-643.388 356.861,-642.466 364.537,-649.769 367.416,-643.388"/>
</g>
<!-- Node12 -->
<g id="node12" class="node"><title>Node12</title>
<g id="a_node12"><a xlink:href="interface_d_b_unique_constraint.html" target="_top" xlink:title="DBUniqueConstraint">
<polygon fill="none" stroke="black" points="421.99,-661.5 421.99,-681.43 530.04,-681.43 530.04,-661.5 421.99,-661.5"/>
<text text-anchor="middle" x="476.015" y="-669.43" font-family="Helvetica Neue" font-size="10.00">DBUniqueConstraint</text>
</a>
</g>
</g>
<!-- Node7&#45;&gt;Node12 -->
<g id="edge10" class="edge"><title>Node7&#45;&gt;Node12</title>
<path fill="none" stroke="midnightblue" d="M371.211,-644.677C392.13,-650.075 416.422,-656.344 436.245,-661.46"/>
<polygon fill="midnightblue" stroke="midnightblue" points="371.804,-641.215 361.247,-642.105 370.055,-647.993 371.804,-641.215"/>
</g>
<!-- Node14 -->
<g id="node14" class="node"><title>Node14</title>
<polygon fill="none" stroke="#bfbfbf" points="130.87,-251.5 130.87,-271.43 209.98,-271.43 209.98,-251.5 130.87,-251.5"/>
<text text-anchor="middle" x="170.425" y="-259.43" font-family="Helvetica Neue" font-size="10.00">&lt;NSCopying&gt;</text>
</g>
<!-- Node15 -->
<g id="node15" class="node"><title>Node15</title>
<g id="a_node15"><a xlink:href="interface_d_b_model.html" target="_top" xlink:title="DBModel">
<polygon fill="none" stroke="black" points="293.96,-232.5 293.96,-252.43 351.82,-252.43 351.82,-232.5 293.96,-232.5"/>
<text text-anchor="middle" x="322.89" y="-240.43" font-family="Helvetica Neue" font-size="10.00">DBModel</text>
</a>
</g>
</g>
<!-- Node14&#45;&gt;Node15 -->
<g id="edge12" class="edge"><title>Node14&#45;&gt;Node15</title>
<path fill="none" stroke="midnightblue" d="M220.297,-255.294C244.601,-252.225 273.106,-248.625 293.727,-246.021"/>
<polygon fill="midnightblue" stroke="midnightblue" points="219.656,-251.847 210.173,-256.572 220.533,-258.792 219.656,-251.847"/>
</g>
<!-- Node16 -->
<g id="node16" class="node"><title>Node16</title>
<g id="a_node16"><a xlink:href="interface_d_b_query.html" target="_top" xlink:title="DBQuery">
<polygon fill="none" stroke="black" points="294.515,-271.5 294.515,-291.43 351.265,-291.43 351.265,-271.5 294.515,-271.5"/>
<text text-anchor="middle" x="322.89" y="-279.43" font-family="Helvetica Neue" font-size="10.00">DBQuery</text>
</a>
</g>
</g>
<!-- Node14&#45;&gt;Node16 -->
<g id="edge13" class="edge"><title>Node14&#45;&gt;Node16</title>
<path fill="none" stroke="midnightblue" d="M220.366,-267.97C244.84,-271.223 273.561,-275.041 294.197,-277.784"/>
<polygon fill="midnightblue" stroke="midnightblue" points="220.547,-264.464 210.173,-266.615 219.625,-271.403 220.547,-264.464"/>
</g>
<!-- Node17 -->
<g id="node17" class="node"><title>Node17</title>
<g id="a_node17"><a xlink:href="interface_d_b_read_query.html" target="_top" xlink:title="DBReadQuery">
<polygon fill="none" stroke="black" points="435.88,-271.5 435.88,-291.43 516.15,-291.43 516.15,-271.5 435.88,-271.5"/>
<text text-anchor="middle" x="476.015" y="-279.43" font-family="Helvetica Neue" font-size="10.00">DBReadQuery</text>
</a>
</g>
</g>
<!-- Node16&#45;&gt;Node17 -->
<g id="edge14" class="edge"><title>Node16&#45;&gt;Node17</title>
<path fill="none" stroke="midnightblue" d="M361.836,-281.465C384.414,-281.465 413.007,-281.465 435.805,-281.465"/>
<polygon fill="midnightblue" stroke="midnightblue" points="361.609,-277.965 351.609,-281.465 361.609,-284.965 361.609,-277.965"/>
</g>
<!-- Node18 -->
<g id="node18" class="node"><title>Node18</title>
<g id="a_node18"><a xlink:href="interface_d_b_write_query.html" target="_top" xlink:title="DBWriteQuery">
<polygon fill="none" stroke="black" points="436.065,-96.5 436.065,-116.43 515.965,-116.43 515.965,-96.5 436.065,-96.5"/>
<text text-anchor="middle" x="476.015" y="-104.43" font-family="Helvetica Neue" font-size="10.00">DBWriteQuery</text>
</a>
</g>
</g>
<!-- Node16&#45;&gt;Node18 -->
<g id="edge16" class="edge"><title>Node16&#45;&gt;Node18</title>
<path fill="none" stroke="midnightblue" d="M361.048,-272.183C366.7,-269.466 372.046,-265.967 376.27,-261.465 413.203,-222.096 379.267,-188.183 412.27,-145.465 422.15,-132.676 437.505,-123.029 450.551,-116.528"/>
<polygon fill="midnightblue" stroke="midnightblue" points="359.368,-269.085 351.389,-276.055 361.973,-275.583 359.368,-269.085"/>
</g>
<!-- Node17&#45;&gt;Node3 -->
<g id="edge15" class="edge"><title>Node17&#45;&gt;Node3</title>
<path fill="none" stroke="midnightblue" d="M526.459,-280.817C546.368,-280.557 569.075,-280.259 588.116,-280.01"/>
<polygon fill="midnightblue" stroke="midnightblue" points="526.291,-277.319 516.338,-280.95 526.383,-284.319 526.291,-277.319"/>
</g>
<!-- Node18&#45;&gt;Node2 -->
<g id="edge19" class="edge"><title>Node18&#45;&gt;Node2</title>
<path fill="none" stroke="midnightblue" d="M501.986,-121.854C513.512,-128.992 527.361,-137.615 539.76,-145.465 565.978,-162.064 596.268,-181.689 614.16,-193.327"/>
<polygon fill="midnightblue" stroke="midnightblue" points="503.658,-118.773 493.312,-116.492 499.977,-124.728 503.658,-118.773"/>
</g>
<!-- Node19 -->
<g id="node19" class="node"><title>Node19</title>
<g id="a_node19"><a xlink:href="interface_d_b_alter_table_query.html" target="_top" xlink:title="DBAlterTableQuery">
<polygon fill="none" stroke="black" points="580.3,-39.5 580.3,-59.4299 681.12,-59.4299 681.12,-39.5 580.3,-39.5"/>
<text text-anchor="middle" x="630.71" y="-47.4299" font-family="Helvetica Neue" font-size="10.00">DBAlterTableQuery</text>
</a>
</g>
</g>
<!-- Node18&#45;&gt;Node19 -->
<g id="edge17" class="edge"><title>Node18&#45;&gt;Node19</title>
<path fill="none" stroke="midnightblue" d="M513.41,-92.7929C532.05,-85.7994 555.112,-77.1607 575.76,-69.465 584.465,-66.2206 593.965,-62.6939 602.534,-59.5183"/>
<polygon fill="midnightblue" stroke="midnightblue" points="511.961,-89.5985 503.828,-96.3891 514.42,-96.1522 511.961,-89.5985"/>
</g>
<!-- Node20 -->
<g id="node20" class="node"><title>Node20</title>
<g id="a_node20"><a xlink:href="interface_d_b_create_table_query.html" target="_top" xlink:title="DBCreateTableQuery">
<polygon fill="none" stroke="black" points="575.76,-0.5 575.76,-20.4299 685.66,-20.4299 685.66,-0.5 575.76,-0.5"/>
<text text-anchor="middle" x="630.71" y="-8.42993" font-family="Helvetica Neue" font-size="10.00">DBCreateTableQuery</text>
</a>
</g>
</g>
<!-- Node18&#45;&gt;Node20 -->
<g id="edge18" class="edge"><title>Node18&#45;&gt;Node20</title>
<path fill="none" stroke="midnightblue" d="M495.382,-89.5773C514.366,-72.8126 545.423,-47.255 575.76,-30.465 582.665,-26.6437 590.445,-23.2762 597.904,-20.4464"/>
<polygon fill="midnightblue" stroke="midnightblue" points="492.898,-87.1037 487.79,-96.3854 497.571,-92.3154 492.898,-87.1037"/>
</g>
<!-- Node21 -->
<g id="node21" class="node"><title>Node21</title>
<g id="a_node21"><a xlink:href="interface_d_b_drop_table_query.html" target="_top" xlink:title="DBDropTableQuery">
<polygon fill="none" stroke="black" points="579.645,-78.5 579.645,-98.4299 681.775,-98.4299 681.775,-78.5 579.645,-78.5"/>
<text text-anchor="middle" x="630.71" y="-86.4299" font-family="Helvetica Neue" font-size="10.00">DBDropTableQuery</text>
</a>
</g>
</g>
<!-- Node18&#45;&gt;Node21 -->
<g id="edge20" class="edge"><title>Node18&#45;&gt;Node21</title>
<path fill="none" stroke="midnightblue" d="M526.602,-100.619C543.564,-98.62 562.543,-96.3827 579.55,-94.3779"/>
<polygon fill="midnightblue" stroke="midnightblue" points="525.859,-97.1828 516.338,-101.83 526.679,-104.135 525.859,-97.1828"/>
</g>
<!-- Node22 -->
<g id="node22" class="node"><title>Node22</title>
<g id="a_node22"><a xlink:href="interface_d_b_insert_query.html" target="_top" xlink:title="DBInsertQuery">
<polygon fill="none" stroke="black" points="589.835,-117.5 589.835,-137.43 671.585,-137.43 671.585,-117.5 589.835,-117.5"/>
<text text-anchor="middle" x="630.71" y="-125.43" font-family="Helvetica Neue" font-size="10.00">DBInsertQuery</text>
</a>
</g>
</g>
<!-- Node18&#45;&gt;Node22 -->
<g id="edge21" class="edge"><title>Node18&#45;&gt;Node22</title>
<path fill="none" stroke="midnightblue" d="M526.43,-113.261C546.909,-116.077 570.353,-119.302 589.724,-121.966"/>
<polygon fill="midnightblue" stroke="midnightblue" points="526.721,-109.768 516.338,-111.873 525.768,-116.703 526.721,-109.768"/>
</g>
<!-- Node22&#45;&gt;Node4 -->
<g id="edge22" class="edge"><title>Node22&#45;&gt;Node4</title>
<path fill="none" stroke="midnightblue" d="M676.809,-140.272C694.197,-145.21 713.791,-150.775 730.133,-155.416"/>
<polygon fill="midnightblue" stroke="midnightblue" points="677.443,-136.814 666.867,-137.449 675.53,-143.548 677.443,-136.814"/>
</g>
<!-- Node23 -->
<g id="node23" class="node"><title>Node23</title>
<polygon fill="none" stroke="#bfbfbf" points="417.285,-232.5 417.285,-252.43 534.745,-252.43 534.745,-232.5 417.285,-232.5"/>
<text text-anchor="middle" x="476.015" y="-240.43" font-family="Helvetica Neue" font-size="10.00">&lt;NSFastEnumeration&gt;</text>
</g>
<!-- Node23&#45;&gt;Node3 -->
<g id="edge23" class="edge"><title>Node23&#45;&gt;Node3</title>
<path fill="none" stroke="midnightblue" d="M528.3,-254.892C547.842,-259.627 569.849,-264.96 588.356,-269.444"/>
<polygon fill="midnightblue" stroke="midnightblue" points="528.879,-251.431 518.336,-252.478 527.231,-258.234 528.879,-251.431"/>
</g>
<!-- Node24 -->
<g id="node24" class="node"><title>Node24</title>
<polygon fill="none" stroke="#bfbfbf" points="140.755,-446.5 140.755,-466.43 200.095,-466.43 200.095,-446.5 140.755,-446.5"/>
<text text-anchor="middle" x="170.425" y="-454.43" font-family="Helvetica Neue" font-size="10.00">NSObject</text>
</g>
<!-- Node24&#45;&gt;Node6 -->
<g id="edge26" class="edge"><title>Node24&#45;&gt;Node6</title>
<path fill="none" stroke="midnightblue" d="M185.885,-474.715C210.6,-505.755 259.298,-566.191 269.51,-573.465 275.06,-577.418 281.491,-580.705 287.907,-583.394"/>
<polygon fill="midnightblue" stroke="midnightblue" points="188.563,-472.46 179.602,-466.809 183.083,-476.815 188.563,-472.46"/>
</g>
<!-- Node24&#45;&gt;Node7 -->
<g id="edge30" class="edge"><title>Node24&#45;&gt;Node7</title>
<path fill="none" stroke="midnightblue" d="M187.439,-474.362C200.79,-489.831 219.778,-513.154 233.51,-535.465 253.311,-567.638 241.845,-586.739 269.51,-612.465 273.93,-616.575 279.281,-619.867 284.853,-622.497"/>
<polygon fill="midnightblue" stroke="midnightblue" points="189.892,-471.851 180.671,-466.633 184.626,-476.462 189.892,-471.851"/>
</g>
<!-- Node24&#45;&gt;Node13 -->
<g id="edge32" class="edge"><title>Node24&#45;&gt;Node13</title>
<path fill="none" stroke="midnightblue" d="M188.703,-474.424C202.505,-489.621 221.468,-512.53 233.51,-535.465 258.605,-583.259 232.577,-612.096 269.51,-651.465 276.37,-658.777 286.189,-663.443 295.475,-666.408"/>
<polygon fill="midnightblue" stroke="midnightblue" points="191.014,-471.769 181.643,-466.824 185.885,-476.533 191.014,-471.769"/>
</g>
<!-- Node24&#45;&gt;Node15 -->
<g id="edge34" class="edge"><title>Node24&#45;&gt;Node15</title>
<path fill="none" stroke="midnightblue" d="M176.352,-436.385C186.882,-397.502 215.171,-311.459 269.51,-262.465 276.378,-256.273 285.362,-251.922 293.946,-248.899"/>
<polygon fill="midnightblue" stroke="midnightblue" points="172.866,-435.881 173.744,-446.44 179.642,-437.638 172.866,-435.881"/>
</g>
<!-- Node24&#45;&gt;Node16 -->
<g id="edge35" class="edge"><title>Node24&#45;&gt;Node16</title>
<path fill="none" stroke="midnightblue" d="M178.962,-436.86C192.399,-404.347 223.471,-339.128 269.51,-301.465 276.667,-295.61 285.726,-291.346 294.289,-288.299"/>
<polygon fill="midnightblue" stroke="midnightblue" points="175.694,-435.606 175.222,-446.19 182.191,-438.21 175.694,-435.606"/>
</g>
<!-- Node25 -->
<g id="node25" class="node"><title>Node25</title>
<g id="a_node25"><a xlink:href="interface_d_b.html" target="_top" xlink:title="DB">
<polygon fill="none" stroke="black" points="307.945,-427.5 307.945,-447.43 337.835,-447.43 337.835,-427.5 307.945,-427.5"/>
<text text-anchor="middle" x="322.89" y="-435.43" font-family="Helvetica Neue" font-size="10.00">DB</text>
</a>
</g>
</g>
<!-- Node24&#45;&gt;Node25 -->
<g id="edge24" class="edge"><title>Node24&#45;&gt;Node25</title>
<path fill="none" stroke="midnightblue" d="M210.382,-451.546C242.389,-447.504 285.914,-442.008 307.92,-439.229"/>
<polygon fill="midnightblue" stroke="midnightblue" points="209.919,-448.076 200.436,-452.802 210.796,-455.021 209.919,-448.076"/>
</g>
<!-- Node26 -->
<g id="node26" class="node"><title>Node26</title>
<g id="a_node26"><a xlink:href="interface_d_b_as.html" target="_top" xlink:title="DBAs">
<polygon fill="none" stroke="black" points="302.205,-505.5 302.205,-525.43 343.575,-525.43 343.575,-505.5 302.205,-505.5"/>
<text text-anchor="middle" x="322.89" y="-513.43" font-family="Helvetica Neue" font-size="10.00">DBAs</text>
</a>
</g>
</g>
<!-- Node24&#45;&gt;Node26 -->
<g id="edge25" class="edge"><title>Node24&#45;&gt;Node26</title>
<path fill="none" stroke="midnightblue" d="M205.729,-470.238C224.538,-477.756 248.281,-487.192 269.51,-495.465 280.212,-499.636 292.177,-504.211 301.967,-507.931"/>
<polygon fill="midnightblue" stroke="midnightblue" points="206.967,-466.964 196.383,-466.498 204.367,-473.463 206.967,-466.964"/>
</g>
<!-- Node27 -->
<g id="node27" class="node"><title>Node27</title>
<g id="a_node27"><a xlink:href="interface_d_b_connection.html" target="_top" xlink:title="DBConnection">
<polygon fill="none" stroke="black" points="282.2,-310.5 282.2,-330.43 363.58,-330.43 363.58,-310.5 282.2,-310.5"/>
<text text-anchor="middle" x="322.89" y="-318.43" font-family="Helvetica Neue" font-size="10.00">DBConnection</text>
</a>
</g>
</g>
<!-- Node24&#45;&gt;Node27 -->
<g id="edge27" class="edge"><title>Node24&#45;&gt;Node27</title>
<path fill="none" stroke="midnightblue" d="M182.954,-437.624C199.318,-412.307 231.548,-367.384 269.51,-340.465 275.148,-336.467 281.687,-333.149 288.195,-330.44"/>
<polygon fill="midnightblue" stroke="midnightblue" points="179.862,-435.965 177.48,-446.289 185.78,-439.703 179.862,-435.965"/>
</g>
<!-- Node30 -->
<g id="node30" class="node"><title>Node30</title>
<g id="a_node30"><a xlink:href="interface_d_b_expression.html" target="_top" xlink:title="DBExpression">
<polygon fill="none" stroke="black" points="283.315,-544.5 283.315,-564.43 362.465,-564.43 362.465,-544.5 283.315,-544.5"/>
<text text-anchor="middle" x="322.89" y="-552.43" font-family="Helvetica Neue" font-size="10.00">DBExpression</text>
</a>
</g>
</g>
<!-- Node24&#45;&gt;Node30 -->
<g id="edge31" class="edge"><title>Node24&#45;&gt;Node30</title>
<path fill="none" stroke="midnightblue" d="M189.298,-473.499C208.073,-490.685 239.053,-517.096 269.51,-534.465 276.19,-538.274 283.735,-541.637 290.976,-544.467"/>
<polygon fill="midnightblue" stroke="midnightblue" points="191.513,-470.78 181.806,-466.535 186.747,-475.907 191.513,-470.78"/>
</g>
<!-- Node31 -->
<g id="node31" class="node"><title>Node31</title>
<g id="a_node31"><a xlink:href="interface_d_b_join.html" target="_top" xlink:title="DBJoin">
<polygon fill="none" stroke="black" points="298.59,-388.5 298.59,-408.43 347.19,-408.43 347.19,-388.5 298.59,-388.5"/>
<text text-anchor="middle" x="322.89" y="-396.43" font-family="Helvetica Neue" font-size="10.00">DBJoin</text>
</a>
</g>
</g>
<!-- Node24&#45;&gt;Node31 -->
<g id="edge33" class="edge"><title>Node24&#45;&gt;Node31</title>
<path fill="none" stroke="midnightblue" d="M206.792,-442.715C225.441,-435.477 248.705,-426.467 269.51,-418.465 278.959,-414.831 289.375,-410.849 298.413,-407.401"/>
<polygon fill="midnightblue" stroke="midnightblue" points="205.281,-439.547 197.226,-446.43 207.815,-446.073 205.281,-439.547"/>
</g>
<!-- Node32 -->
<g id="node32" class="node"><title>Node32</title>
<g id="a_node32"><a xlink:href="interface_d_b_result.html" target="_top" xlink:title="DBResult">
<polygon fill="none" stroke="black" points="293.87,-349.5 293.87,-369.43 351.91,-369.43 351.91,-349.5 293.87,-349.5"/>
<text text-anchor="middle" x="322.89" y="-357.43" font-family="Helvetica Neue" font-size="10.00">DBResult</text>
</a>
</g>
</g>
<!-- Node24&#45;&gt;Node32 -->
<g id="edge36" class="edge"><title>Node24&#45;&gt;Node32</title>
<path fill="none" stroke="midnightblue" d="M189.644,-439.39C208.48,-422.433 239.314,-396.56 269.51,-379.465 277.049,-375.197 285.677,-371.479 293.726,-368.445"/>
<polygon fill="midnightblue" stroke="midnightblue" points="187.131,-436.946 182.111,-446.276 191.853,-442.113 187.131,-436.946"/>
</g>
<!-- Node33 -->
<g id="node33" class="node"><title>Node33</title>
<g id="a_node33"><a xlink:href="interface_d_b_table.html" target="_top" xlink:title="DBTable">
<polygon fill="none" stroke="black" points="296.185,-466.5 296.185,-486.43 349.595,-486.43 349.595,-466.5 296.185,-466.5"/>
<text text-anchor="middle" x="322.89" y="-474.43" font-family="Helvetica Neue" font-size="10.00">DBTable</text>
</a>
</g>
</g>
<!-- Node24&#45;&gt;Node33 -->
<g id="edge37" class="edge"><title>Node24&#45;&gt;Node33</title>
<path fill="none" stroke="midnightblue" d="M210.679,-461.683C237.58,-465.258 272.508,-469.901 295.981,-473.021"/>
<polygon fill="midnightblue" stroke="midnightblue" points="210.81,-458.169 200.436,-460.321 209.888,-465.108 210.81,-458.169"/>
</g>
<!-- Node28 -->
<g id="node28" class="node"><title>Node28</title>
<g id="a_node28"><a xlink:href="interface_d_b_postgres_connection.html" target="_top" xlink:title="DBPostgresConnection">
<polygon fill="none" stroke="black" points="415.51,-349.5 415.51,-369.43 536.52,-369.43 536.52,-349.5 415.51,-349.5"/>
<text text-anchor="middle" x="476.015" y="-357.43" font-family="Helvetica Neue" font-size="10.00">DBPostgresConnection</text>
</a>
</g>
</g>
<!-- Node27&#45;&gt;Node28 -->
<g id="edge28" class="edge"><title>Node27&#45;&gt;Node28</title>
<path fill="none" stroke="midnightblue" d="M372.637,-333.045C393.221,-338.357 416.857,-344.457 436.228,-349.456"/>
<polygon fill="midnightblue" stroke="midnightblue" points="373.366,-329.618 362.808,-330.508 371.617,-336.396 373.366,-329.618"/>
</g>
<!-- Node29 -->
<g id="node29" class="node"><title>Node29</title>
<g id="a_node29"><a xlink:href="interface_d_b_s_q_lite_connection.html" target="_top" xlink:title="DBSQLiteConnection">
<polygon fill="none" stroke="black" points="420.135,-310.5 420.135,-330.43 531.895,-330.43 531.895,-310.5 420.135,-310.5"/>
<text text-anchor="middle" x="476.015" y="-318.43" font-family="Helvetica Neue" font-size="10.00">DBSQLiteConnection</text>
</a>
</g>
</g>
<!-- Node27&#45;&gt;Node29 -->
<g id="edge29" class="edge"><title>Node27&#45;&gt;Node29</title>
<path fill="none" stroke="midnightblue" d="M374.024,-320.465C388.75,-320.465 404.935,-320.465 419.951,-320.465"/>
<polygon fill="midnightblue" stroke="midnightblue" points="373.596,-316.965 363.596,-320.465 373.596,-323.965 373.596,-316.965"/>
</g>
<!-- Node34 -->
<g id="node34" class="node"><title>Node34</title>
<polygon fill="none" stroke="#bfbfbf" points="-4.26326e-14,-359.5 -4.26326e-14,-379.43 71.34,-379.43 71.34,-359.5 -4.26326e-14,-359.5"/>
<text text-anchor="middle" x="35.67" y="-367.43" font-family="Helvetica Neue" font-size="10.00">&lt;NSObject&gt;</text>
</g>
<!-- Node35 -->
<g id="node35" class="node"><title>Node35</title>
<g id="a_node35"><a xlink:href="protocol_d_b_s_q_l_representable-p.html" target="_top" xlink:title="\&lt;DBSQLRepresentable\&gt;">
<polygon fill="none" stroke="black" points="107.34,-544.5 107.34,-564.43 233.51,-564.43 233.51,-544.5 107.34,-544.5"/>
<text text-anchor="middle" x="170.425" y="-552.43" font-family="Helvetica Neue" font-size="10.00">&lt;DBSQLRepresentable&gt;</text>
</a>
</g>
</g>
<!-- Node34&#45;&gt;Node35 -->
<g id="edge38" class="edge"><title>Node34&#45;&gt;Node35</title>
<path fill="none" stroke="midnightblue" d="M48.4356,-388.051C62.1265,-409.452 85.6347,-445.51 107.34,-475.465 125.764,-500.891 148.973,-529.618 161.13,-544.434"/>
<polygon fill="midnightblue" stroke="midnightblue" points="51.3645,-386.134 43.0402,-379.58 45.4604,-389.895 51.3645,-386.134"/>
</g>
<!-- Node36 -->
<g id="node36" class="node"><title>Node36</title>
<g id="a_node36"><a xlink:href="protocol_d_b_table_query-p.html" target="_top" xlink:title="\&lt;DBTableQuery\&gt;">
<polygon fill="none" stroke="black" points="429.88,-154.5 429.88,-174.43 522.15,-174.43 522.15,-154.5 429.88,-154.5"/>
<text text-anchor="middle" x="476.015" y="-162.43" font-family="Helvetica Neue" font-size="10.00">&lt;DBTableQuery&gt;</text>
</a>
</g>
</g>
<!-- Node34&#45;&gt;Node36 -->
<g id="edge43" class="edge"><title>Node34&#45;&gt;Node36</title>
<path fill="none" stroke="midnightblue" d="M41.9961,-349.667C50.707,-321.273 70.802,-269.444 107.34,-242.465 205.109,-170.273 355.232,-161.84 429.779,-162.603"/>
<polygon fill="midnightblue" stroke="midnightblue" points="38.626,-348.722 39.2044,-359.301 45.3494,-350.67 38.626,-348.722"/>
</g>
<!-- Node35&#45;&gt;Node6 -->
<g id="edge40" class="edge"><title>Node35&#45;&gt;Node6</title>
<path fill="none" stroke="midnightblue" d="M219.959,-567.045C240.454,-572.357 263.986,-578.457 283.273,-583.456"/>
<polygon fill="midnightblue" stroke="midnightblue" points="220.732,-563.63 210.173,-564.508 218.975,-570.406 220.732,-563.63"/>
</g>
<!-- Node35&#45;&gt;Node7 -->
<g id="edge41" class="edge"><title>Node35&#45;&gt;Node7</title>
<path fill="none" stroke="midnightblue" d="M195.136,-570.028C214.623,-582.437 243.206,-599.779 269.51,-612.465 276.963,-616.059 285.241,-619.472 292.975,-622.427"/>
<polygon fill="midnightblue" stroke="midnightblue" points="196.91,-567.008 186.607,-564.541 193.123,-572.895 196.91,-567.008"/>
</g>
<!-- Node35&#45;&gt;Node26 -->
<g id="edge39" class="edge"><title>Node35&#45;&gt;Node26</title>
<path fill="none" stroke="midnightblue" d="M220.149,-541.836C248.001,-534.617 281.411,-525.957 302.149,-520.582"/>
<polygon fill="midnightblue" stroke="midnightblue" points="218.975,-538.524 210.173,-544.421 220.732,-545.3 218.975,-538.524"/>
</g>
<!-- Node35&#45;&gt;Node30 -->
<g id="edge42" class="edge"><title>Node35&#45;&gt;Node30</title>
<path fill="none" stroke="midnightblue" d="M244.142,-554.465C257.562,-554.465 271.089,-554.465 283.012,-554.465"/>
<polygon fill="midnightblue" stroke="midnightblue" points="243.929,-550.965 233.929,-554.465 243.929,-557.965 243.929,-550.965"/>
</g>
<!-- Node36&#45;&gt;Node2 -->
<g id="edge45" class="edge"><title>Node36&#45;&gt;Node2</title>
<path fill="none" stroke="midnightblue" d="M526.268,-177.045C547.067,-182.357 570.948,-188.457 590.52,-193.456"/>
<polygon fill="midnightblue" stroke="midnightblue" points="526.893,-173.592 516.338,-174.508 525.161,-180.374 526.893,-173.592"/>
</g>
<!-- Node36&#45;&gt;Node3 -->
<g id="edge48" class="edge"><title>Node36&#45;&gt;Node3</title>
<path fill="none" stroke="midnightblue" d="M528.301,-178.376C532.293,-180.185 536.165,-182.208 539.76,-184.465 539.913,-184.561 596.941,-244.83 620.103,-269.31"/>
<polygon fill="midnightblue" stroke="midnightblue" points="529.42,-175.053 518.838,-174.532 526.786,-181.538 529.42,-175.053"/>
</g>
<!-- Node36&#45;&gt;Node4 -->
<g id="edge49" class="edge"><title>Node36&#45;&gt;Node4</title>
<path fill="none" stroke="midnightblue" d="M532.68,-164.658C587.678,-164.849 670.712,-165.136 721.335,-165.312"/>
<polygon fill="midnightblue" stroke="midnightblue" points="532.423,-161.157 522.411,-164.622 532.399,-168.157 532.423,-161.157"/>
</g>
<!-- Node36&#45;&gt;Node19 -->
<g id="edge44" class="edge"><title>Node36&#45;&gt;Node19</title>
<path fill="none" stroke="midnightblue" d="M507.086,-149.427C518.141,-143.002 530.265,-134.817 539.76,-125.465 560.84,-104.703 552.702,-88.006 575.76,-69.465 580.82,-65.3962 586.789,-62.1042 592.878,-59.4569"/>
<polygon fill="midnightblue" stroke="midnightblue" points="505.178,-146.483 498.133,-154.397 508.575,-152.604 505.178,-146.483"/>
</g>
<!-- Node36&#45;&gt;Node21 -->
<g id="edge46" class="edge"><title>Node36&#45;&gt;Node21</title>
<path fill="none" stroke="midnightblue" d="M501.634,-149.029C521.264,-137.086 549.69,-120.594 575.76,-108.465 583.458,-104.883 591.992,-101.475 599.958,-98.5204"/>
<polygon fill="midnightblue" stroke="midnightblue" points="499.701,-146.109 493.014,-154.326 503.366,-152.073 499.701,-146.109"/>
</g>
<!-- Node36&#45;&gt;Node22 -->
<g id="edge47" class="edge"><title>Node36&#45;&gt;Node22</title>
<path fill="none" stroke="midnightblue" d="M528.233,-152.054C548.259,-147.202 570.88,-141.72 589.675,-137.166"/>
<polygon fill="midnightblue" stroke="midnightblue" points="527.231,-148.696 518.336,-154.452 528.879,-155.499 527.231,-148.696"/>
</g>
</g>
</svg>
