<?xml version="1.0" encoding="UTF-8" standalone="no"?>
<!DOCTYPE svg PUBLIC "-//W3C//DTD SVG 1.1//EN"
 "http://www.w3.org/Graphics/SVG/1.1/DTD/svg11.dtd">
<!-- Generated by graphviz version 2.38.0 (20140413.2041)
 -->
<!-- Title: Graphical Class Hierarchy Pages: 1 -->
<svg width="344pt" height="29pt"
 viewBox="0.00 0.00 343.74 28.93" xmlns="http://www.w3.org/2000/svg" xmlns:xlink="http://www.w3.org/1999/xlink">
<g id="graph0" class="graph" transform="scale(1 1) rotate(0) translate(4 24.9299)">
<title>Graphical Class Hierarchy</title>
<!-- Node1 -->
<g id="node1" class="node"><title>Node1</title>
<polygon fill="none" stroke="#bfbfbf" points="0,-0.5 0,-20.4299 55.25,-20.4299 55.25,-0.5 0,-0.5"/>
<text text-anchor="middle" x="27.625" y="-8.42993" font-family="Helvetica Neue" font-size="10.00">NSProxy</text>
</g>
<!-- Node2 -->
<g id="node2" class="node"><title>Node2</title>
<g id="a_node2"><a xlink:href="interface_d_b_connection_proxy.html" target="_top" xlink:title="DBConnectionProxy">
<polygon fill="none" stroke="black" points="91.25,-0.5 91.25,-20.4299 198.18,-20.4299 198.18,-0.5 91.25,-0.5"/>
<text text-anchor="middle" x="144.715" y="-8.42993" font-family="Helvetica Neue" font-size="10.00">DBConnectionProxy</text>
</a>
</g>
</g>
<!-- Node1&#45;&gt;Node2 -->
<g id="edge1" class="edge"><title>Node1&#45;&gt;Node2</title>
<path fill="none" stroke="midnightblue" d="M65.52,-10.465C73.6042,-10.465 82.3152,-10.465 90.8858,-10.465"/>
<polygon fill="midnightblue" stroke="midnightblue" points="65.3183,-6.96506 55.3182,-10.465 65.3182,-13.9651 65.3183,-6.96506"/>
</g>
<!-- Node3 -->
<g id="node3" class="node"><title>Node3</title>
<g id="a_node3"><a xlink:href="interface_d_b_connection_pool.html" target="_top" xlink:title="DBConnectionPool">
<polygon fill="none" stroke="black" points="234.18,-0.5 234.18,-20.4299 335.74,-20.4299 335.74,-0.5 234.18,-0.5"/>
<text text-anchor="middle" x="284.96" y="-8.42993" font-family="Helvetica Neue" font-size="10.00">DBConnectionPool</text>
</a>
</g>
</g>
<!-- Node2&#45;&gt;Node3 -->
<g id="edge2" class="edge"><title>Node2&#45;&gt;Node3</title>
<path fill="none" stroke="midnightblue" d="M208.562,-10.465C216.994,-10.465 225.551,-10.465 233.727,-10.465"/>
<polygon fill="midnightblue" stroke="midnightblue" points="208.374,-6.96506 198.374,-10.465 208.374,-13.9651 208.374,-6.96506"/>
</g>
</g>
</svg>
