<?xml version="1.0" encoding="UTF-8" standalone="no"?>
<!DOCTYPE svg PUBLIC "-//W3C//DTD SVG 1.1//EN"
 "http://www.w3.org/Graphics/SVG/1.1/DTD/svg11.dtd">
<!-- Generated by graphviz version 2.38.0 (20140413.2041)
 -->
<!-- Title: DBConnectionPool Pages: 1 -->
<svg width="115pt" height="143pt"
 viewBox="0.00 0.00 114.93 142.79" xmlns="http://www.w3.org/2000/svg" xmlns:xlink="http://www.w3.org/1999/xlink">
<g id="graph0" class="graph" transform="scale(1 1) rotate(0) translate(4 138.79)">
<title>DBConnectionPool</title>
<!-- Node1 -->
<g id="node1" class="node"><title>Node1</title>
<polygon fill="#bfbfbf" stroke="black" points="2.685,-0.5 2.685,-20.4299 104.245,-20.4299 104.245,-0.5 2.685,-0.5"/>
<text text-anchor="middle" x="53.465" y="-8.42993" font-family="Helvetica Neue" font-size="10.00">DBConnectionPool</text>
</g>
<!-- Node2 -->
<g id="node2" class="node"><title>Node2</title>
<g id="a_node2"><a xlink:href="interface_d_b_connection_proxy.html" target="_top" xlink:title="DBConnectionProxy">
<polygon fill="none" stroke="black" points="0,-57.4299 0,-77.3599 106.93,-77.3599 106.93,-57.4299 0,-57.4299"/>
<text text-anchor="middle" x="53.465" y="-65.3599" font-family="Helvetica Neue" font-size="10.00">DBConnectionProxy</text>
</a>
</g>
</g>
<!-- Node2&#45;&gt;Node1 -->
<g id="edge1" class="edge"><title>Node2&#45;&gt;Node1</title>
<path fill="none" stroke="midnightblue" d="M53.465,-47.3023C53.465,-38.3046 53.465,-27.9812 53.465,-20.7326"/>
<polygon fill="midnightblue" stroke="midnightblue" points="49.9651,-47.3243 53.465,-57.3243 56.9651,-47.3244 49.9651,-47.3243"/>
</g>
<!-- Node3 -->
<g id="node3" class="node"><title>Node3</title>
<polygon fill="none" stroke="#bfbfbf" points="25.84,-114.36 25.84,-134.29 81.09,-134.29 81.09,-114.36 25.84,-114.36"/>
<text text-anchor="middle" x="53.465" y="-122.29" font-family="Helvetica Neue" font-size="10.00">NSProxy</text>
</g>
<!-- Node3&#45;&gt;Node2 -->
<g id="edge2" class="edge"><title>Node3&#45;&gt;Node2</title>
<path fill="none" stroke="midnightblue" d="M53.465,-104.232C53.465,-95.2345 53.465,-84.9112 53.465,-77.6625"/>
<polygon fill="midnightblue" stroke="midnightblue" points="49.9651,-104.254 53.465,-114.254 56.9651,-104.254 49.9651,-104.254"/>
</g>
</g>
</svg>
