<?xml version="1.0" encoding="UTF-8" standalone="no"?>
<!DOCTYPE svg PUBLIC "-//W3C//DTD SVG 1.1//EN"
 "http://www.w3.org/Graphics/SVG/1.1/DTD/svg11.dtd">
<!-- Generated by graphviz version 2.38.0 (20140413.2041)
 -->
<!-- Title: DBDeleteQuery Pages: 1 -->
<svg width="359pt" height="200pt"
 viewBox="0.00 0.00 358.50 199.72" xmlns="http://www.w3.org/2000/svg" xmlns:xlink="http://www.w3.org/1999/xlink">
<g id="graph0" class="graph" transform="scale(1 1) rotate(0) translate(4 195.72)">
<title>DBDeleteQuery</title>
<!-- Node1 -->
<g id="node1" class="node"><title>Node1</title>
<polygon fill="#bfbfbf" stroke="black" points="134.035,-0.5 134.035,-20.4299 219.305,-20.4299 219.305,-0.5 134.035,-0.5"/>
<text text-anchor="middle" x="176.67" y="-8.42993" font-family="Helvetica Neue" font-size="10.00">DBDeleteQuery</text>
</g>
<!-- Node2 -->
<g id="node2" class="node"><title>Node2</title>
<g id="a_node2"><a xlink:href="interface_d_b_write_query.html" target="_top" xlink:title="DBWriteQuery">
<polygon fill="none" stroke="black" points="32.72,-57.4299 32.72,-77.3599 112.62,-77.3599 112.62,-57.4299 32.72,-57.4299"/>
<text text-anchor="middle" x="72.67" y="-65.3599" font-family="Helvetica Neue" font-size="10.00">DBWriteQuery</text>
</a>
</g>
</g>
<!-- Node2&#45;&gt;Node1 -->
<g id="edge1" class="edge"><title>Node2&#45;&gt;Node1</title>
<path fill="none" stroke="midnightblue" d="M98.8674,-52.5582C117.85,-42.532 142.978,-29.2604 159.471,-20.549"/>
<polygon fill="midnightblue" stroke="midnightblue" points="97.0513,-49.5591 89.8435,-57.3243 100.321,-55.7488 97.0513,-49.5591"/>
</g>
<!-- Node3 -->
<g id="node3" class="node"><title>Node3</title>
<g id="a_node3"><a xlink:href="interface_d_b_query.html" target="_top" xlink:title="DBQuery">
<polygon fill="none" stroke="black" points="44.295,-114.36 44.295,-134.29 101.045,-134.29 101.045,-114.36 44.295,-114.36"/>
<text text-anchor="middle" x="72.67" y="-122.29" font-family="Helvetica Neue" font-size="10.00">DBQuery</text>
</a>
</g>
</g>
<!-- Node3&#45;&gt;Node2 -->
<g id="edge2" class="edge"><title>Node3&#45;&gt;Node2</title>
<path fill="none" stroke="midnightblue" d="M72.67,-104.232C72.67,-95.2345 72.67,-84.9112 72.67,-77.6625"/>
<polygon fill="midnightblue" stroke="midnightblue" points="69.1701,-104.254 72.67,-114.254 76.1701,-104.254 69.1701,-104.254"/>
</g>
<!-- Node4 -->
<g id="node4" class="node"><title>Node4</title>
<polygon fill="none" stroke="#bfbfbf" points="1.77636e-14,-171.29 1.77636e-14,-191.22 59.34,-191.22 59.34,-171.29 1.77636e-14,-171.29"/>
<text text-anchor="middle" x="29.67" y="-179.22" font-family="Helvetica Neue" font-size="10.00">NSObject</text>
</g>
<!-- Node4&#45;&gt;Node3 -->
<g id="edge3" class="edge"><title>Node4&#45;&gt;Node3</title>
<path fill="none" stroke="midnightblue" d="M43.0105,-163.213C50.402,-153.771 59.3043,-142.399 65.4152,-134.592"/>
<polygon fill="midnightblue" stroke="midnightblue" points="40.1787,-161.152 36.7706,-171.184 45.6907,-165.467 40.1787,-161.152"/>
</g>
<!-- Node5 -->
<g id="node5" class="node"><title>Node5</title>
<polygon fill="none" stroke="#bfbfbf" points="77.115,-171.29 77.115,-191.22 156.225,-191.22 156.225,-171.29 77.115,-171.29"/>
<text text-anchor="middle" x="116.67" y="-179.22" font-family="Helvetica Neue" font-size="10.00">&lt;NSCopying&gt;</text>
</g>
<!-- Node5&#45;&gt;Node3 -->
<g id="edge4" class="edge"><title>Node5&#45;&gt;Node3</title>
<path fill="none" stroke="midnightblue" d="M103.019,-163.213C95.4558,-153.771 86.3465,-142.399 80.0936,-134.592"/>
<polygon fill="midnightblue" stroke="midnightblue" points="100.421,-165.568 109.404,-171.184 105.884,-161.191 100.421,-165.568"/>
</g>
<!-- Node6 -->
<g id="node6" class="node"><title>Node6</title>
<g id="a_node6"><a xlink:href="protocol_d_b_table_query-p.html" target="_top" xlink:title="\&lt;DBTableQuery\&gt;">
<polygon fill="none" stroke="black" points="130.535,-57.4299 130.535,-77.3599 222.805,-77.3599 222.805,-57.4299 130.535,-57.4299"/>
<text text-anchor="middle" x="176.67" y="-65.3599" font-family="Helvetica Neue" font-size="10.00">&lt;DBTableQuery&gt;</text>
</a>
</g>
</g>
<!-- Node6&#45;&gt;Node1 -->
<g id="edge5" class="edge"><title>Node6&#45;&gt;Node1</title>
<path fill="none" stroke="midnightblue" d="M176.67,-47.3023C176.67,-38.3046 176.67,-27.9812 176.67,-20.7326"/>
<polygon fill="midnightblue" stroke="midnightblue" points="173.17,-47.3243 176.67,-57.3243 180.17,-47.3244 173.17,-47.3243"/>
</g>
<!-- Node7 -->
<g id="node7" class="node"><title>Node7</title>
<polygon fill="none" stroke="#bfbfbf" points="141,-114.36 141,-134.29 212.34,-134.29 212.34,-114.36 141,-114.36"/>
<text text-anchor="middle" x="176.67" y="-122.29" font-family="Helvetica Neue" font-size="10.00">&lt;NSObject&gt;</text>
</g>
<!-- Node7&#45;&gt;Node6 -->
<g id="edge6" class="edge"><title>Node7&#45;&gt;Node6</title>
<path fill="none" stroke="midnightblue" d="M176.67,-104.232C176.67,-95.2345 176.67,-84.9112 176.67,-77.6625"/>
<polygon fill="midnightblue" stroke="midnightblue" points="173.17,-104.254 176.67,-114.254 180.17,-104.254 173.17,-104.254"/>
</g>
<!-- Node8 -->
<g id="node8" class="node"><title>Node8</title>
<g id="a_node8"><a xlink:href="protocol_d_b_filterable_query-p.html" target="_top" xlink:title="\&lt;DBFilterableQuery\&gt;">
<polygon fill="none" stroke="black" points="240.835,-57.4299 240.835,-77.3599 350.505,-77.3599 350.505,-57.4299 240.835,-57.4299"/>
<text text-anchor="middle" x="295.67" y="-65.3599" font-family="Helvetica Neue" font-size="10.00">&lt;DBFilterableQuery&gt;</text>
</a>
</g>
</g>
<!-- Node8&#45;&gt;Node1 -->
<g id="edge7" class="edge"><title>Node8&#45;&gt;Node1</title>
<path fill="none" stroke="midnightblue" d="M266.877,-53.1042C245.027,-43.0184 215.567,-29.4195 196.35,-20.549"/>
<polygon fill="midnightblue" stroke="midnightblue" points="265.473,-56.3111 276.02,-57.3243 268.407,-49.9555 265.473,-56.3111"/>
</g>
</g>
</svg>
