<?xml version="1.0" encoding="UTF-8" standalone="no"?>
<!DOCTYPE svg PUBLIC "-//W3C//DTD SVG 1.1//EN"
 "http://www.w3.org/Graphics/SVG/1.1/DTD/svg11.dtd">
<!-- Generated by graphviz version 2.38.0 (20140413.2041)
 -->
<!-- Title: DBInsertQuery Pages: 1 -->
<svg width="573pt" height="443pt"
 viewBox="0.00 0.00 573.25 443.09" xmlns="http://www.w3.org/2000/svg" xmlns:xlink="http://www.w3.org/1999/xlink">
<g id="graph0" class="graph" transform="scale(1 1) rotate(0) translate(4 439.089)">
<title>DBInsertQuery</title>
<!-- Node1 -->
<g id="node1" class="node"><title>Node1</title>
<polygon fill="#bfbfbf" stroke="black" points="148.075,-0.5 148.075,-20.4299 229.825,-20.4299 229.825,-0.5 148.075,-0.5"/>
<text text-anchor="middle" x="188.95" y="-8.42993" font-family="Helvetica Neue" font-size="10.00">DBInsertQuery</text>
</g>
<!-- Node2 -->
<g id="node2" class="node"><title>Node2</title>
<g id="a_node2"><a xlink:href="interface_d_b_write_query.html" target="_top" xlink:title="DBWriteQuery">
<polygon fill="none" stroke="black" points="0,-111.22 0,-131.15 79.9,-131.15 79.9,-111.22 0,-111.22"/>
<text text-anchor="middle" x="39.95" y="-119.15" font-family="Helvetica Neue" font-size="10.00">DBWriteQuery</text>
</a>
</g>
</g>
<!-- Node2&#45;&gt;Node1 -->
<g id="edge1" class="edge"><title>Node2&#45;&gt;Node1</title>
<path fill="none" stroke="midnightblue" d="M60.4822,-105.203C91.9302,-82.2567 151.064,-39.1087 176.643,-20.445"/>
<polygon fill="midnightblue" stroke="midnightblue" points="58.4125,-102.381 52.3974,-111.102 62.5386,-108.035 58.4125,-102.381"/>
</g>
<!-- Node3 -->
<g id="node3" class="node"><title>Node3</title>
<g id="a_node3"><a xlink:href="interface_d_b_query.html" target="_top" xlink:title="DBQuery">
<polygon fill="none" stroke="black" points="56.575,-219.01 56.575,-238.939 113.325,-238.939 113.325,-219.01 56.575,-219.01"/>
<text text-anchor="middle" x="84.95" y="-226.939" font-family="Helvetica Neue" font-size="10.00">DBQuery</text>
</a>
</g>
</g>
<!-- Node3&#45;&gt;Node2 -->
<g id="edge2" class="edge"><title>Node3&#45;&gt;Node2</title>
<path fill="none" stroke="midnightblue" d="M65.8023,-212.035C54.7688,-201.551 41.9328,-186.802 35.95,-170.58 31.1659,-157.608 34.153,-141.395 36.9179,-131.417"/>
<polygon fill="midnightblue" stroke="midnightblue" points="63.622,-214.782 73.3941,-218.875 68.3077,-209.581 63.622,-214.782"/>
</g>
<!-- Node12 -->
<g id="node12" class="node"><title>Node12</title>
<g id="a_node12"><a xlink:href="interface_d_b_read_query.html" target="_top" xlink:title="DBReadQuery">
<polygon fill="none" stroke="black" points="44.815,-150.15 44.815,-170.08 125.085,-170.08 125.085,-150.15 44.815,-150.15"/>
<text text-anchor="middle" x="84.95" y="-158.08" font-family="Helvetica Neue" font-size="10.00">DBReadQuery</text>
</a>
</g>
</g>
<!-- Node3&#45;&gt;Node12 -->
<g id="edge16" class="edge"><title>Node3&#45;&gt;Node12</title>
<path fill="none" stroke="midnightblue" d="M84.95,-208.599C84.95,-196.042 84.95,-180.25 84.95,-170.418"/>
<polygon fill="midnightblue" stroke="midnightblue" points="81.4501,-208.957 84.95,-218.957 88.4501,-208.958 81.4501,-208.957"/>
</g>
<!-- Node4 -->
<g id="node4" class="node"><title>Node4</title>
<polygon fill="none" stroke="#bfbfbf" points="202.28,-414.659 202.28,-434.589 261.62,-434.589 261.62,-414.659 202.28,-414.659"/>
<text text-anchor="middle" x="231.95" y="-422.589" font-family="Helvetica Neue" font-size="10.00">NSObject</text>
</g>
<!-- Node4&#45;&gt;Node3 -->
<g id="edge3" class="edge"><title>Node4&#45;&gt;Node3</title>
<path fill="none" stroke="midnightblue" d="M205.063,-409.496C172.91,-390.992 120.38,-355.3 95.95,-308.299 84.1709,-285.637 83.7015,-254.559 84.3255,-239.257"/>
<polygon fill="midnightblue" stroke="midnightblue" points="203.507,-412.635 213.942,-414.467 206.926,-406.528 203.507,-412.635"/>
</g>
<!-- Node6 -->
<g id="node6" class="node"><title>Node6</title>
<g id="a_node6"><a xlink:href="interface_d_b.html" target="_top" xlink:title="DB">
<polygon fill="none" stroke="black" points="211.005,-287.869 211.005,-307.799 240.895,-307.799 240.895,-287.869 211.005,-287.869"/>
<text text-anchor="middle" x="225.95" y="-295.799" font-family="Helvetica Neue" font-size="10.00">DB</text>
</a>
</g>
</g>
<!-- Node4&#45;&gt;Node6 -->
<g id="edge6" class="edge"><title>Node4&#45;&gt;Node6</title>
<path fill="none" stroke="midnightblue" d="M208.274,-408.363C198.153,-400.413 187.424,-389.72 181.95,-377.159 170.546,-350.994 197.93,-322.213 214.475,-307.926"/>
<polygon fill="midnightblue" stroke="midnightblue" points="206.364,-411.302 216.503,-414.377 210.494,-405.651 206.364,-411.302"/>
</g>
<!-- Node7 -->
<g id="node7" class="node"><title>Node7</title>
<g id="a_node7"><a xlink:href="interface_d_b_connection.html" target="_top" xlink:title="DBConnection">
<polygon fill="none" stroke="black" points="191.26,-356.729 191.26,-376.659 272.64,-376.659 272.64,-356.729 191.26,-356.729"/>
<text text-anchor="middle" x="231.95" y="-364.659" font-family="Helvetica Neue" font-size="10.00">DBConnection</text>
</a>
</g>
</g>
<!-- Node4&#45;&gt;Node7 -->
<g id="edge8" class="edge"><title>Node4&#45;&gt;Node7</title>
<path fill="none" stroke="midnightblue" d="M231.95,-404.61C231.95,-395.231 231.95,-384.351 231.95,-376.844"/>
<polygon fill="midnightblue" stroke="midnightblue" points="228.45,-404.638 231.95,-414.638 235.45,-404.638 228.45,-404.638"/>
</g>
<!-- Node10 -->
<g id="node10" class="node"><title>Node10</title>
<g id="a_node10"><a xlink:href="interface_d_b_table.html" target="_top" xlink:title="DBTable">
<polygon fill="none" stroke="black" points="257.245,-219.01 257.245,-238.939 310.655,-238.939 310.655,-219.01 257.245,-219.01"/>
<text text-anchor="middle" x="283.95" y="-226.939" font-family="Helvetica Neue" font-size="10.00">DBTable</text>
</a>
</g>
</g>
<!-- Node4&#45;&gt;Node10 -->
<g id="edge12" class="edge"><title>Node4&#45;&gt;Node10</title>
<path fill="none" stroke="midnightblue" d="M254.648,-408.419C264.757,-400.376 275.757,-389.589 281.95,-377.159 305.425,-330.039 292.415,-263.448 286.437,-239.233"/>
<polygon fill="midnightblue" stroke="midnightblue" points="252.412,-405.72 246.491,-414.506 256.599,-411.33 252.412,-405.72"/>
</g>
<!-- Node15 -->
<g id="node15" class="node"><title>Node15</title>
<g id="a_node15"><a xlink:href="interface_d_b_join.html" target="_top" xlink:title="DBJoin">
<polygon fill="none" stroke="black" points="516.65,-150.15 516.65,-170.08 565.25,-170.08 565.25,-150.15 516.65,-150.15"/>
<text text-anchor="middle" x="540.95" y="-158.08" font-family="Helvetica Neue" font-size="10.00">DBJoin</text>
</a>
</g>
</g>
<!-- Node4&#45;&gt;Node15 -->
<g id="edge21" class="edge"><title>Node4&#45;&gt;Node15</title>
<path fill="none" stroke="midnightblue" d="M271.839,-420.397C305.055,-415.268 346.95,-401.999 346.95,-367.694 346.95,-367.694 346.95,-367.694 346.95,-227.974 346.95,-219.113 464.177,-183.627 516.38,-168.265"/>
<polygon fill="midnightblue" stroke="midnightblue" points="271.307,-416.937 261.865,-421.742 272.243,-423.875 271.307,-416.937"/>
</g>
<!-- Node5 -->
<g id="node5" class="node"><title>Node5</title>
<polygon fill="none" stroke="#bfbfbf" points="105.395,-287.869 105.395,-307.799 184.505,-307.799 184.505,-287.869 105.395,-287.869"/>
<text text-anchor="middle" x="144.95" y="-295.799" font-family="Helvetica Neue" font-size="10.00">&lt;NSCopying&gt;</text>
</g>
<!-- Node5&#45;&gt;Node3 -->
<g id="edge4" class="edge"><title>Node5&#45;&gt;Node3</title>
<path fill="none" stroke="midnightblue" d="M129.929,-280.096C118.345,-267.188 102.753,-249.812 93.2987,-239.278"/>
<polygon fill="midnightblue" stroke="midnightblue" points="127.574,-282.712 136.858,-287.817 132.784,-278.037 127.574,-282.712"/>
</g>
<!-- Node6&#45;&gt;Node3 -->
<g id="edge5" class="edge"><title>Node6&#45;&gt;Node3</title>
<path fill="none" stroke="#9a32cd" stroke-dasharray="5,2" d="M201.478,-285.23C173.758,-272.086 129.173,-250.944 103.948,-238.983"/>
<polygon fill="#9a32cd" stroke="#9a32cd" points="200.325,-288.557 210.861,-289.679 203.324,-282.232 200.325,-288.557"/>
<text text-anchor="middle" x="186.085" y="-261.369" font-family="Helvetica Neue" font-size="10.00"> database</text>
</g>
<!-- Node6&#45;&gt;Node10 -->
<g id="edge13" class="edge"><title>Node6&#45;&gt;Node10</title>
<path fill="none" stroke="#9a32cd" stroke-dasharray="5,2" d="M231.546,-277.626C234.175,-270.766 237.823,-263.294 242.68,-257.439 248.945,-249.889 257.814,-243.616 265.726,-238.981"/>
<polygon fill="#9a32cd" stroke="#9a32cd" points="228.069,-276.987 228.226,-287.581 234.71,-279.202 228.069,-276.987"/>
<text text-anchor="middle" x="265.085" y="-261.369" font-family="Helvetica Neue" font-size="10.00"> database</text>
</g>
<!-- Node7&#45;&gt;Node6 -->
<g id="edge7" class="edge"><title>Node7&#45;&gt;Node6</title>
<path fill="none" stroke="#9a32cd" stroke-dasharray="5,2" d="M230.246,-346.702C229.113,-334.084 227.676,-318.07 226.785,-308.138"/>
<polygon fill="#9a32cd" stroke="#9a32cd" points="226.761,-347.03 231.141,-356.677 233.733,-346.404 226.761,-347.03"/>
<text text-anchor="middle" x="256.16" y="-330.229" font-family="Helvetica Neue" font-size="10.00"> connection</text>
</g>
<!-- Node8 -->
<g id="node8" class="node"><title>Node8</title>
<g id="a_node8"><a xlink:href="protocol_d_b_table_query-p.html" target="_top" xlink:title="\&lt;DBTableQuery\&gt;">
<polygon fill="none" stroke="black" points="142.815,-150.15 142.815,-170.08 235.085,-170.08 235.085,-150.15 142.815,-150.15"/>
<text text-anchor="middle" x="188.95" y="-158.08" font-family="Helvetica Neue" font-size="10.00">&lt;DBTableQuery&gt;</text>
</a>
</g>
</g>
<!-- Node8&#45;&gt;Node1 -->
<g id="edge9" class="edge"><title>Node8&#45;&gt;Node1</title>
<path fill="none" stroke="midnightblue" d="M188.95,-139.526C188.95,-107.298 188.95,-44.3094 188.95,-20.6976"/>
<polygon fill="midnightblue" stroke="midnightblue" points="185.45,-139.878 188.95,-149.878 192.45,-139.879 185.45,-139.878"/>
</g>
<!-- Node11 -->
<g id="node11" class="node"><title>Node11</title>
<g id="a_node11"><a xlink:href="interface_d_b_select_query.html" target="_top" xlink:title="DBSelectQuery">
<polygon fill="none" stroke="black" points="240.595,-70.8248 240.595,-90.7548 325.305,-90.7548 325.305,-70.8248 240.595,-70.8248"/>
<text text-anchor="middle" x="282.95" y="-78.7548" font-family="Helvetica Neue" font-size="10.00">DBSelectQuery</text>
</a>
</g>
</g>
<!-- Node8&#45;&gt;Node11 -->
<g id="edge17" class="edge"><title>Node8&#45;&gt;Node11</title>
<path fill="none" stroke="midnightblue" d="M207.893,-143.532C227.065,-127.761 256.061,-103.908 271.812,-90.9517"/>
<polygon fill="midnightblue" stroke="midnightblue" points="205.601,-140.885 200.102,-149.941 210.048,-146.291 205.601,-140.885"/>
</g>
<!-- Node9 -->
<g id="node9" class="node"><title>Node9</title>
<polygon fill="none" stroke="#bfbfbf" points="153.28,-219.01 153.28,-238.939 224.62,-238.939 224.62,-219.01 153.28,-219.01"/>
<text text-anchor="middle" x="188.95" y="-226.939" font-family="Helvetica Neue" font-size="10.00">&lt;NSObject&gt;</text>
</g>
<!-- Node9&#45;&gt;Node8 -->
<g id="edge10" class="edge"><title>Node9&#45;&gt;Node8</title>
<path fill="none" stroke="midnightblue" d="M188.95,-208.599C188.95,-196.042 188.95,-180.25 188.95,-170.418"/>
<polygon fill="midnightblue" stroke="midnightblue" points="185.45,-208.957 188.95,-218.957 192.45,-208.958 185.45,-208.957"/>
</g>
<!-- Node10&#45;&gt;Node8 -->
<g id="edge11" class="edge"><title>Node10&#45;&gt;Node8</title>
<path fill="none" stroke="#9a32cd" stroke-dasharray="5,2" d="M262.945,-213.192C244.271,-200.049 217.562,-181.251 201.863,-170.202"/>
<polygon fill="#9a32cd" stroke="#9a32cd" points="260.946,-216.064 271.138,-218.957 264.975,-210.34 260.946,-216.064"/>
<text text-anchor="middle" x="255.36" y="-192.51" font-family="Helvetica Neue" font-size="10.00"> table</text>
</g>
<!-- Node10&#45;&gt;Node15 -->
<g id="edge22" class="edge"><title>Node10&#45;&gt;Node15</title>
<path fill="none" stroke="#9a32cd" stroke-dasharray="5,2" d="M290.849,-209.489C294.719,-201.727 300.361,-193.397 308.13,-188.58 346.021,-165.084 464.123,-178.762 507.95,-170.58 510.762,-170.055 513.68,-169.394 516.565,-168.666"/>
<polygon fill="#9a32cd" stroke="#9a32cd" points="287.617,-208.144 286.867,-218.712 294.044,-210.918 287.617,-208.144"/>
<text text-anchor="middle" x="321.36" y="-192.51" font-family="Helvetica Neue" font-size="10.00"> table</text>
</g>
<!-- Node11&#45;&gt;Node1 -->
<g id="edge14" class="edge"><title>Node11&#45;&gt;Node1</title>
<path fill="none" stroke="#9a32cd" stroke-dasharray="5,2" d="M262.117,-64.6474C243.522,-51.1311 216.905,-31.7843 201.426,-20.5336"/>
<polygon fill="#9a32cd" stroke="#9a32cd" points="260.126,-67.5268 270.273,-70.5752 264.242,-61.8645 260.126,-67.5268"/>
<text text-anchor="middle" x="271.865" y="-42.8599" font-family="Helvetica Neue" font-size="10.00"> sourceQuery</text>
</g>
<!-- Node11&#45;&gt;Node11 -->
<g id="edge23" class="edge"><title>Node11&#45;&gt;Node11</title>
<path fill="none" stroke="#9a32cd" stroke-dasharray="5,2" d="M335.641,-85.8275C340.35,-84.7725 343.305,-83.0933 343.305,-80.7898 343.305,-77.1042 335.74,-75.0167 325.531,-74.5272"/>
<polygon fill="#9a32cd" stroke="#9a32cd" points="335.038,-82.375 325.531,-87.0523 335.879,-89.3242 335.038,-82.375"/>
<text text-anchor="middle" x="369.055" y="-84.7197" font-family="Helvetica Neue" font-size="10.00"> subQuery</text>
<text text-anchor="middle" x="369.055" y="-72.7898" font-family="Helvetica Neue" font-size="10.00">unionQuery</text>
</g>
<!-- Node12&#45;&gt;Node11 -->
<g id="edge15" class="edge"><title>Node12&#45;&gt;Node11</title>
<path fill="none" stroke="midnightblue" d="M117.618,-146.357C157.66,-130.719 224.517,-104.61 259.69,-90.8733"/>
<polygon fill="midnightblue" stroke="midnightblue" points="116.092,-143.195 108.051,-150.093 118.639,-149.716 116.092,-143.195"/>
</g>
<!-- Node13 -->
<g id="node13" class="node"><title>Node13</title>
<g id="a_node13"><a xlink:href="protocol_d_b_filterable_query-p.html" target="_top" xlink:title="\&lt;DBFilterableQuery\&gt;">
<polygon fill="none" stroke="black" points="253.115,-150.15 253.115,-170.08 362.785,-170.08 362.785,-150.15 253.115,-150.15"/>
<text text-anchor="middle" x="307.95" y="-158.08" font-family="Helvetica Neue" font-size="10.00">&lt;DBFilterableQuery&gt;</text>
</a>
</g>
</g>
<!-- Node13&#45;&gt;Node11 -->
<g id="edge18" class="edge"><title>Node13&#45;&gt;Node11</title>
<path fill="none" stroke="midnightblue" d="M301.849,-140.245C296.791,-124.601 289.819,-103.037 285.912,-90.9517"/>
<polygon fill="midnightblue" stroke="midnightblue" points="298.577,-141.502 304.984,-149.941 305.238,-139.349 298.577,-141.502"/>
</g>
<!-- Node14 -->
<g id="node14" class="node"><title>Node14</title>
<polygon fill="none" stroke="#bfbfbf" points="381.22,-150.15 381.22,-170.08 498.68,-170.08 498.68,-150.15 381.22,-150.15"/>
<text text-anchor="middle" x="439.95" y="-158.08" font-family="Helvetica Neue" font-size="10.00">&lt;NSFastEnumeration&gt;</text>
</g>
<!-- Node14&#45;&gt;Node11 -->
<g id="edge19" class="edge"><title>Node14&#45;&gt;Node11</title>
<path fill="none" stroke="midnightblue" d="M412.441,-145.566C380.629,-129.898 329.124,-104.531 301.637,-90.9935"/>
<polygon fill="midnightblue" stroke="midnightblue" points="411.115,-148.815 421.633,-150.093 414.208,-142.535 411.115,-148.815"/>
</g>
<!-- Node15&#45;&gt;Node11 -->
<g id="edge20" class="edge"><title>Node15&#45;&gt;Node11</title>
<path fill="none" stroke="#9a32cd" stroke-dasharray="5,2" d="M506.344,-148.743C455.476,-133.497 361.346,-105.286 313.132,-90.8356"/>
<polygon fill="#9a32cd" stroke="#9a32cd" points="505.628,-152.182 516.212,-151.7 507.638,-145.477 505.628,-152.182"/>
<text text-anchor="middle" x="451.21" y="-119.15" font-family="Helvetica Neue" font-size="10.00"> join</text>
</g>
</g>
</svg>
