<?xml version="1.0" encoding="UTF-8" standalone="no"?>
<!DOCTYPE svg PUBLIC "-//W3C//DTD SVG 1.1//EN"
 "http://www.w3.org/Graphics/SVG/1.1/DTD/svg11.dtd">
<!-- Generated by graphviz version 2.38.0 (20140413.2041)
 -->
<!-- Title: DBUpdateQuery Pages: 1 -->
<svg width="323pt" height="257pt"
 viewBox="0.00 0.00 322.50 256.65" xmlns="http://www.w3.org/2000/svg" xmlns:xlink="http://www.w3.org/1999/xlink">
<g id="graph0" class="graph" transform="scale(1 1) rotate(0) translate(4 252.65)">
<title>DBUpdateQuery</title>
<!-- Node1 -->
<g id="node1" class="node"><title>Node1</title>
<polygon fill="#bfbfbf" stroke="black" points="131.81,-0.5 131.81,-20.4299 221.53,-20.4299 221.53,-0.5 131.81,-0.5"/>
<text text-anchor="middle" x="176.67" y="-8.42993" font-family="Helvetica Neue" font-size="10.00">DBUpdateQuery</text>
</g>
<!-- Node2 -->
<g id="node2" class="node"><title>Node2</title>
<g id="a_node2"><a xlink:href="interface_d_b_insert_query.html" target="_top" xlink:title="DBInsertQuery">
<polygon fill="none" stroke="black" points="66.795,-57.4299 66.795,-77.3599 148.545,-77.3599 148.545,-57.4299 66.795,-57.4299"/>
<text text-anchor="middle" x="107.67" y="-65.3599" font-family="Helvetica Neue" font-size="10.00">DBInsertQuery</text>
</a>
</g>
</g>
<!-- Node2&#45;&gt;Node1 -->
<g id="edge1" class="edge"><title>Node2&#45;&gt;Node1</title>
<path fill="none" stroke="midnightblue" d="M126.927,-51.0645C139.172,-41.3168 154.622,-29.0168 165.029,-20.7326"/>
<polygon fill="midnightblue" stroke="midnightblue" points="124.708,-48.3578 119.064,-57.3243 129.067,-53.8343 124.708,-48.3578"/>
</g>
<!-- Node3 -->
<g id="node3" class="node"><title>Node3</title>
<g id="a_node3"><a xlink:href="interface_d_b_write_query.html" target="_top" xlink:title="DBWriteQuery">
<polygon fill="none" stroke="black" points="32.72,-114.36 32.72,-134.29 112.62,-134.29 112.62,-114.36 32.72,-114.36"/>
<text text-anchor="middle" x="72.67" y="-122.29" font-family="Helvetica Neue" font-size="10.00">DBWriteQuery</text>
</a>
</g>
</g>
<!-- Node3&#45;&gt;Node2 -->
<g id="edge2" class="edge"><title>Node3&#45;&gt;Node2</title>
<path fill="none" stroke="midnightblue" d="M83.8984,-105.703C89.8397,-96.3782 96.8925,-85.3095 101.765,-77.6625"/>
<polygon fill="midnightblue" stroke="midnightblue" points="80.8715,-103.94 78.4495,-114.254 86.7749,-107.702 80.8715,-103.94"/>
</g>
<!-- Node4 -->
<g id="node4" class="node"><title>Node4</title>
<g id="a_node4"><a xlink:href="interface_d_b_query.html" target="_top" xlink:title="DBQuery">
<polygon fill="none" stroke="black" points="44.295,-171.29 44.295,-191.22 101.045,-191.22 101.045,-171.29 44.295,-171.29"/>
<text text-anchor="middle" x="72.67" y="-179.22" font-family="Helvetica Neue" font-size="10.00">DBQuery</text>
</a>
</g>
</g>
<!-- Node4&#45;&gt;Node3 -->
<g id="edge3" class="edge"><title>Node4&#45;&gt;Node3</title>
<path fill="none" stroke="midnightblue" d="M72.67,-161.162C72.67,-152.164 72.67,-141.841 72.67,-134.592"/>
<polygon fill="midnightblue" stroke="midnightblue" points="69.1701,-161.184 72.67,-171.184 76.1701,-161.184 69.1701,-161.184"/>
</g>
<!-- Node5 -->
<g id="node5" class="node"><title>Node5</title>
<polygon fill="none" stroke="#bfbfbf" points="1.77636e-14,-228.22 1.77636e-14,-248.15 59.34,-248.15 59.34,-228.22 1.77636e-14,-228.22"/>
<text text-anchor="middle" x="29.67" y="-236.15" font-family="Helvetica Neue" font-size="10.00">NSObject</text>
</g>
<!-- Node5&#45;&gt;Node4 -->
<g id="edge4" class="edge"><title>Node5&#45;&gt;Node4</title>
<path fill="none" stroke="midnightblue" d="M43.0105,-220.143C50.402,-210.701 59.3043,-199.329 65.4152,-191.522"/>
<polygon fill="midnightblue" stroke="midnightblue" points="40.1787,-218.082 36.7706,-228.114 45.6907,-222.397 40.1787,-218.082"/>
</g>
<!-- Node6 -->
<g id="node6" class="node"><title>Node6</title>
<polygon fill="none" stroke="#bfbfbf" points="77.115,-228.22 77.115,-248.15 156.225,-248.15 156.225,-228.22 77.115,-228.22"/>
<text text-anchor="middle" x="116.67" y="-236.15" font-family="Helvetica Neue" font-size="10.00">&lt;NSCopying&gt;</text>
</g>
<!-- Node6&#45;&gt;Node4 -->
<g id="edge5" class="edge"><title>Node6&#45;&gt;Node4</title>
<path fill="none" stroke="midnightblue" d="M103.019,-220.143C95.4558,-210.701 86.3465,-199.329 80.0936,-191.522"/>
<polygon fill="midnightblue" stroke="midnightblue" points="100.421,-222.497 109.404,-228.114 105.884,-218.121 100.421,-222.497"/>
</g>
<!-- Node7 -->
<g id="node7" class="node"><title>Node7</title>
<g id="a_node7"><a xlink:href="protocol_d_b_table_query-p.html" target="_top" xlink:title="\&lt;DBTableQuery\&gt;">
<polygon fill="none" stroke="black" points="130.535,-114.36 130.535,-134.29 222.805,-134.29 222.805,-114.36 130.535,-114.36"/>
<text text-anchor="middle" x="176.67" y="-122.29" font-family="Helvetica Neue" font-size="10.00">&lt;DBTableQuery&gt;</text>
</a>
</g>
</g>
<!-- Node7&#45;&gt;Node1 -->
<g id="edge8" class="edge"><title>Node7&#45;&gt;Node1</title>
<path fill="none" stroke="midnightblue" d="M176.67,-103.962C176.67,-79.5145 176.67,-38.4738 176.67,-20.4328"/>
<polygon fill="midnightblue" stroke="midnightblue" points="173.17,-104.171 176.67,-114.171 180.17,-104.171 173.17,-104.171"/>
</g>
<!-- Node7&#45;&gt;Node2 -->
<g id="edge6" class="edge"><title>Node7&#45;&gt;Node2</title>
<path fill="none" stroke="midnightblue" d="M157.413,-107.994C145.168,-98.2468 129.718,-85.9467 119.311,-77.6625"/>
<polygon fill="midnightblue" stroke="midnightblue" points="155.273,-110.764 165.276,-114.254 159.632,-105.288 155.273,-110.764"/>
</g>
<!-- Node8 -->
<g id="node8" class="node"><title>Node8</title>
<polygon fill="none" stroke="#bfbfbf" points="141,-171.29 141,-191.22 212.34,-191.22 212.34,-171.29 141,-171.29"/>
<text text-anchor="middle" x="176.67" y="-179.22" font-family="Helvetica Neue" font-size="10.00">&lt;NSObject&gt;</text>
</g>
<!-- Node8&#45;&gt;Node7 -->
<g id="edge7" class="edge"><title>Node8&#45;&gt;Node7</title>
<path fill="none" stroke="midnightblue" d="M176.67,-161.162C176.67,-152.164 176.67,-141.841 176.67,-134.592"/>
<polygon fill="midnightblue" stroke="midnightblue" points="173.17,-161.184 176.67,-171.184 180.17,-161.184 173.17,-161.184"/>
</g>
<!-- Node9 -->
<g id="node9" class="node"><title>Node9</title>
<g id="a_node9"><a xlink:href="protocol_d_b_filterable_query-p.html" target="_top" xlink:title="\&lt;DBFilterableQuery\&gt;">
<polygon fill="none" stroke="black" points="204.835,-57.4299 204.835,-77.3599 314.505,-77.3599 314.505,-57.4299 204.835,-57.4299"/>
<text text-anchor="middle" x="259.67" y="-65.3599" font-family="Helvetica Neue" font-size="10.00">&lt;DBFilterableQuery&gt;</text>
</a>
</g>
</g>
<!-- Node9&#45;&gt;Node1 -->
<g id="edge9" class="edge"><title>Node9&#45;&gt;Node1</title>
<path fill="none" stroke="midnightblue" d="M237.295,-51.5871C222.338,-41.6883 203.138,-28.9819 190.396,-20.549"/>
<polygon fill="midnightblue" stroke="midnightblue" points="235.693,-54.7241 245.964,-57.3243 239.557,-48.8867 235.693,-54.7241"/>
</g>
</g>
</svg>
