<?xml version="1.0" encoding="UTF-8" standalone="no"?>
<!DOCTYPE svg PUBLIC "-//W3C//DTD SVG 1.1//EN"
 "http://www.w3.org/Graphics/SVG/1.1/DTD/svg11.dtd">
<!-- Generated by graphviz version 2.38.0 (20140413.2041)
 -->
<!-- Title: DBUpdateQuery Pages: 1 -->
<svg width="566pt" height="501pt"
 viewBox="0.00 0.00 565.97 501.02" xmlns="http://www.w3.org/2000/svg" xmlns:xlink="http://www.w3.org/1999/xlink">
<g id="graph0" class="graph" transform="scale(1 1) rotate(0) translate(4 497.019)">
<title>DBUpdateQuery</title>
<!-- Node1 -->
<g id="node1" class="node"><title>Node1</title>
<polygon fill="#bfbfbf" stroke="black" points="225.275,-0.5 225.275,-20.4299 314.995,-20.4299 314.995,-0.5 225.275,-0.5"/>
<text text-anchor="middle" x="270.135" y="-8.42993" font-family="Helvetica Neue" font-size="10.00">DBUpdateQuery</text>
</g>
<!-- Node2 -->
<g id="node2" class="node"><title>Node2</title>
<g id="a_node2"><a xlink:href="interface_d_b_insert_query.html" target="_top" xlink:title="DBInsertQuery">
<polygon fill="none" stroke="black" points="229.26,-58.4299 229.26,-78.3599 311.01,-78.3599 311.01,-58.4299 229.26,-58.4299"/>
<text text-anchor="middle" x="270.135" y="-66.3599" font-family="Helvetica Neue" font-size="10.00">DBInsertQuery</text>
</a>
</g>
</g>
<!-- Node2&#45;&gt;Node1 -->
<g id="edge1" class="edge"><title>Node2&#45;&gt;Node1</title>
<path fill="none" stroke="midnightblue" d="M270.135,-48.3806C270.135,-39.0017 270.135,-28.1213 270.135,-20.6146"/>
<polygon fill="midnightblue" stroke="midnightblue" points="266.635,-48.4088 270.135,-58.4088 273.635,-48.4088 266.635,-48.4088"/>
</g>
<!-- Node3 -->
<g id="node3" class="node"><title>Node3</title>
<g id="a_node3"><a xlink:href="interface_d_b_write_query.html" target="_top" xlink:title="DBWriteQuery">
<polygon fill="none" stroke="black" points="372.185,-169.15 372.185,-189.08 452.085,-189.08 452.085,-169.15 372.185,-169.15"/>
<text text-anchor="middle" x="412.135" y="-177.08" font-family="Helvetica Neue" font-size="10.00">DBWriteQuery</text>
</a>
</g>
</g>
<!-- Node3&#45;&gt;Node2 -->
<g id="edge2" class="edge"><title>Node3&#45;&gt;Node2</title>
<path fill="none" stroke="midnightblue" d="M407.4,-159.225C403.995,-148.695 398.502,-135.908 390.135,-126.79 367.417,-102.032 331.759,-86.8765 305.209,-78.4057"/>
<polygon fill="midnightblue" stroke="midnightblue" points="404.117,-160.475 410.225,-169.132 410.848,-158.555 404.117,-160.475"/>
</g>
<!-- Node4 -->
<g id="node4" class="node"><title>Node4</title>
<g id="a_node4"><a xlink:href="interface_d_b_query.html" target="_top" xlink:title="DBQuery">
<polygon fill="none" stroke="black" points="391.76,-276.939 391.76,-296.869 448.51,-296.869 448.51,-276.939 391.76,-276.939"/>
<text text-anchor="middle" x="420.135" y="-284.869" font-family="Helvetica Neue" font-size="10.00">DBQuery</text>
</a>
</g>
</g>
<!-- Node4&#45;&gt;Node3 -->
<g id="edge3" class="edge"><title>Node4&#45;&gt;Node3</title>
<path fill="none" stroke="midnightblue" d="M418.678,-266.643C416.94,-243.657 414.107,-206.191 412.815,-189.111"/>
<polygon fill="midnightblue" stroke="midnightblue" points="415.209,-267.177 419.453,-276.885 422.189,-266.649 415.209,-267.177"/>
</g>
<!-- Node13 -->
<g id="node13" class="node"><title>Node13</title>
<g id="a_node13"><a xlink:href="interface_d_b_read_query.html" target="_top" xlink:title="DBReadQuery">
<polygon fill="none" stroke="black" points="312,-208.08 312,-228.01 392.27,-228.01 392.27,-208.08 312,-208.08"/>
<text text-anchor="middle" x="352.135" y="-216.01" font-family="Helvetica Neue" font-size="10.00">DBReadQuery</text>
</a>
</g>
</g>
<!-- Node4&#45;&gt;Node13 -->
<g id="edge17" class="edge"><title>Node4&#45;&gt;Node13</title>
<path fill="none" stroke="midnightblue" d="M403.485,-269.534C390.32,-256.589 372.413,-238.983 361.597,-228.348"/>
<polygon fill="midnightblue" stroke="midnightblue" points="401.38,-272.372 410.964,-276.887 406.287,-267.381 401.38,-272.372"/>
</g>
<!-- Node5 -->
<g id="node5" class="node"><title>Node5</title>
<polygon fill="none" stroke="#bfbfbf" points="304.465,-472.589 304.465,-492.519 363.805,-492.519 363.805,-472.589 304.465,-472.589"/>
<text text-anchor="middle" x="334.135" y="-480.519" font-family="Helvetica Neue" font-size="10.00">NSObject</text>
</g>
<!-- Node5&#45;&gt;Node4 -->
<g id="edge4" class="edge"><title>Node5&#45;&gt;Node4</title>
<path fill="none" stroke="midnightblue" d="M363.151,-467.639C396.655,-449.657 449.656,-414.792 469.135,-366.229 480.003,-339.135 450.652,-310.978 432.775,-296.963"/>
<polygon fill="midnightblue" stroke="midnightblue" points="361.113,-464.753 353.85,-472.467 364.338,-470.966 361.113,-464.753"/>
</g>
<!-- Node7 -->
<g id="node7" class="node"><title>Node7</title>
<g id="a_node7"><a xlink:href="interface_d_b.html" target="_top" xlink:title="DB">
<polygon fill="none" stroke="black" points="324.19,-345.799 324.19,-365.729 354.08,-365.729 354.08,-345.799 324.19,-345.799"/>
<text text-anchor="middle" x="339.135" y="-353.729" font-family="Helvetica Neue" font-size="10.00">DB</text>
</a>
</g>
</g>
<!-- Node5&#45;&gt;Node7 -->
<g id="edge7" class="edge"><title>Node5&#45;&gt;Node7</title>
<path fill="none" stroke="midnightblue" d="M356.695,-466.279C366.772,-458.219 377.785,-447.439 384.135,-435.089 392.111,-419.575 388.022,-413.568 389.135,-396.159 389.473,-390.868 391.835,-388.793 389.135,-384.229 381.671,-371.614 366.126,-364.406 354.338,-360.569"/>
<polygon fill="midnightblue" stroke="midnightblue" points="354.464,-463.577 348.573,-472.383 358.67,-469.172 354.464,-463.577"/>
</g>
<!-- Node8 -->
<g id="node8" class="node"><title>Node8</title>
<g id="a_node8"><a xlink:href="interface_d_b_connection.html" target="_top" xlink:title="DBConnection">
<polygon fill="none" stroke="black" points="293.445,-414.659 293.445,-434.589 374.825,-434.589 374.825,-414.659 293.445,-414.659"/>
<text text-anchor="middle" x="334.135" y="-422.589" font-family="Helvetica Neue" font-size="10.00">DBConnection</text>
</a>
</g>
</g>
<!-- Node5&#45;&gt;Node8 -->
<g id="edge9" class="edge"><title>Node5&#45;&gt;Node8</title>
<path fill="none" stroke="midnightblue" d="M334.135,-462.54C334.135,-453.161 334.135,-442.28 334.135,-434.774"/>
<polygon fill="midnightblue" stroke="midnightblue" points="330.635,-462.568 334.135,-472.568 337.635,-462.568 330.635,-462.568"/>
</g>
<!-- Node11 -->
<g id="node11" class="node"><title>Node11</title>
<g id="a_node11"><a xlink:href="interface_d_b_table.html" target="_top" xlink:title="DBTable">
<polygon fill="none" stroke="black" points="183.43,-276.939 183.43,-296.869 236.84,-296.869 236.84,-276.939 183.43,-276.939"/>
<text text-anchor="middle" x="210.135" y="-284.869" font-family="Helvetica Neue" font-size="10.00">DBTable</text>
</a>
</g>
</g>
<!-- Node5&#45;&gt;Node11 -->
<g id="edge13" class="edge"><title>Node5&#45;&gt;Node11</title>
<path fill="none" stroke="midnightblue" d="M294.27,-476.724C278.865,-472.925 262.296,-466.153 251.135,-454.089 208.553,-408.064 208.312,-325.013 209.543,-297.238"/>
<polygon fill="midnightblue" stroke="midnightblue" points="293.648,-480.17 304.157,-478.816 295.098,-473.321 293.648,-480.17"/>
</g>
<!-- Node16 -->
<g id="node16" class="node"><title>Node16</title>
<g id="a_node16"><a xlink:href="interface_d_b_join.html" target="_top" xlink:title="DBJoin">
<polygon fill="none" stroke="black" points="245.835,-208.08 245.835,-228.01 294.435,-228.01 294.435,-208.08 245.835,-208.08"/>
<text text-anchor="middle" x="270.135" y="-216.01" font-family="Helvetica Neue" font-size="10.00">DBJoin</text>
</a>
</g>
</g>
<!-- Node5&#45;&gt;Node16 -->
<g id="edge22" class="edge"><title>Node5&#45;&gt;Node16</title>
<path fill="none" stroke="midnightblue" d="M298.713,-467.904C281.776,-458.844 265.135,-445.01 265.135,-425.624 265.135,-425.624 265.135,-425.624 265.135,-285.904 265.135,-265.185 267.552,-240.955 269.025,-228.113"/>
<polygon fill="midnightblue" stroke="midnightblue" points="297.526,-471.219 308.049,-472.451 300.591,-464.926 297.526,-471.219"/>
</g>
<!-- Node6 -->
<g id="node6" class="node"><title>Node6</title>
<polygon fill="none" stroke="#bfbfbf" points="380.58,-345.799 380.58,-365.729 459.69,-365.729 459.69,-345.799 380.58,-345.799"/>
<text text-anchor="middle" x="420.135" y="-353.729" font-family="Helvetica Neue" font-size="10.00">&lt;NSCopying&gt;</text>
</g>
<!-- Node6&#45;&gt;Node4 -->
<g id="edge5" class="edge"><title>Node6&#45;&gt;Node4</title>
<path fill="none" stroke="midnightblue" d="M420.135,-335.388C420.135,-322.831 420.135,-307.04 420.135,-297.208"/>
<polygon fill="midnightblue" stroke="midnightblue" points="416.635,-335.747 420.135,-345.747 423.635,-335.747 416.635,-335.747"/>
</g>
<!-- Node7&#45;&gt;Node4 -->
<g id="edge6" class="edge"><title>Node7&#45;&gt;Node4</title>
<path fill="none" stroke="#9a32cd" stroke-dasharray="5,2" d="M351.662,-337.007C357.311,-329.762 364.389,-321.633 371.865,-315.369 380.586,-308.062 391.523,-301.656 400.78,-296.873"/>
<polygon fill="#9a32cd" stroke="#9a32cd" points="348.503,-335.391 345.349,-345.505 354.122,-339.565 348.503,-335.391"/>
<text text-anchor="middle" x="394.27" y="-319.299" font-family="Helvetica Neue" font-size="10.00"> database</text>
</g>
<!-- Node7&#45;&gt;Node11 -->
<g id="edge14" class="edge"><title>Node7&#45;&gt;Node11</title>
<path fill="none" stroke="#9a32cd" stroke-dasharray="5,2" d="M315.09,-342.302C289.653,-329.118 250.139,-308.638 227.55,-296.931"/>
<polygon fill="#9a32cd" stroke="#9a32cd" points="313.596,-345.47 324.085,-346.964 316.817,-339.255 313.596,-345.47"/>
<text text-anchor="middle" x="305.27" y="-319.299" font-family="Helvetica Neue" font-size="10.00"> database</text>
</g>
<!-- Node8&#45;&gt;Node7 -->
<g id="edge8" class="edge"><title>Node8&#45;&gt;Node7</title>
<path fill="none" stroke="#9a32cd" stroke-dasharray="5,2" d="M335.321,-404.182C335.733,-397.82 336.216,-390.721 336.715,-384.229 337.184,-378.12 337.789,-371.254 338.277,-365.915"/>
<polygon fill="#9a32cd" stroke="#9a32cd" points="331.804,-404.345 334.671,-414.545 338.79,-404.783 331.804,-404.345"/>
<text text-anchor="middle" x="363.345" y="-388.159" font-family="Helvetica Neue" font-size="10.00"> connection</text>
</g>
<!-- Node9 -->
<g id="node9" class="node"><title>Node9</title>
<g id="a_node9"><a xlink:href="protocol_d_b_table_query-p.html" target="_top" xlink:title="\&lt;DBTableQuery\&gt;">
<polygon fill="none" stroke="black" points="-1.42109e-14,-208.08 -1.42109e-14,-228.01 92.27,-228.01 92.27,-208.08 -1.42109e-14,-208.08"/>
<text text-anchor="middle" x="46.135" y="-216.01" font-family="Helvetica Neue" font-size="10.00">&lt;DBTableQuery&gt;</text>
</a>
</g>
</g>
<!-- Node9&#45;&gt;Node1 -->
<g id="edge25" class="edge"><title>Node9&#45;&gt;Node1</title>
<path fill="none" stroke="midnightblue" d="M58.787,-199.767C66.0818,-190.225 75.6621,-178.372 85.135,-168.65 145.135,-107.07 226.987,-43.8191 257.764,-20.6642"/>
<polygon fill="midnightblue" stroke="midnightblue" points="55.7667,-197.961 52.5715,-208.063 61.3687,-202.159 55.7667,-197.961"/>
</g>
<!-- Node9&#45;&gt;Node2 -->
<g id="edge10" class="edge"><title>Node9&#45;&gt;Node2</title>
<path fill="none" stroke="midnightblue" d="M68.1666,-202.522C114.056,-172.275 218.738,-103.273 256.354,-78.4784"/>
<polygon fill="midnightblue" stroke="midnightblue" points="66.2331,-199.605 59.81,-208.031 70.0856,-205.449 66.2331,-199.605"/>
</g>
<!-- Node12 -->
<g id="node12" class="node"><title>Node12</title>
<g id="a_node12"><a xlink:href="interface_d_b_select_query.html" target="_top" xlink:title="DBSelectQuery">
<polygon fill="none" stroke="black" points="227.78,-128.755 227.78,-148.685 312.49,-148.685 312.49,-128.755 227.78,-128.755"/>
<text text-anchor="middle" x="270.135" y="-136.685" font-family="Helvetica Neue" font-size="10.00">DBSelectQuery</text>
</a>
</g>
</g>
<!-- Node9&#45;&gt;Node12 -->
<g id="edge18" class="edge"><title>Node9&#45;&gt;Node12</title>
<path fill="none" stroke="midnightblue" d="M81.9472,-204.682C127.109,-189.092 203.692,-162.656 243.821,-148.803"/>
<polygon fill="midnightblue" stroke="midnightblue" points="80.5796,-201.452 72.269,-208.023 82.8638,-208.068 80.5796,-201.452"/>
</g>
<!-- Node10 -->
<g id="node10" class="node"><title>Node10</title>
<polygon fill="none" stroke="#bfbfbf" points="10.465,-276.939 10.465,-296.869 81.805,-296.869 81.805,-276.939 10.465,-276.939"/>
<text text-anchor="middle" x="46.135" y="-284.869" font-family="Helvetica Neue" font-size="10.00">&lt;NSObject&gt;</text>
</g>
<!-- Node10&#45;&gt;Node9 -->
<g id="edge11" class="edge"><title>Node10&#45;&gt;Node9</title>
<path fill="none" stroke="midnightblue" d="M46.135,-266.528C46.135,-253.971 46.135,-238.18 46.135,-228.348"/>
<polygon fill="midnightblue" stroke="midnightblue" points="42.6351,-266.887 46.135,-276.887 49.6351,-266.887 42.6351,-266.887"/>
</g>
<!-- Node11&#45;&gt;Node9 -->
<g id="edge12" class="edge"><title>Node11&#45;&gt;Node9</title>
<path fill="none" stroke="#9a32cd" stroke-dasharray="5,2" d="M178.553,-273.029C146.145,-259.817 96.5647,-239.604 68.1636,-228.025"/>
<polygon fill="#9a32cd" stroke="#9a32cd" points="177.436,-276.353 188.017,-276.887 180.079,-269.871 177.436,-276.353"/>
<text text-anchor="middle" x="150.545" y="-250.439" font-family="Helvetica Neue" font-size="10.00"> table</text>
</g>
<!-- Node11&#45;&gt;Node16 -->
<g id="edge23" class="edge"><title>Node11&#45;&gt;Node16</title>
<path fill="none" stroke="#9a32cd" stroke-dasharray="5,2" d="M215.255,-266.888C217.782,-259.948 221.374,-252.372 226.315,-246.51 232.796,-238.82 241.993,-232.602 250.29,-228.04"/>
<polygon fill="#9a32cd" stroke="#9a32cd" points="211.759,-266.344 212.123,-276.932 218.441,-268.428 211.759,-266.344"/>
<text text-anchor="middle" x="239.545" y="-250.439" font-family="Helvetica Neue" font-size="10.00"> table</text>
</g>
<!-- Node12&#45;&gt;Node2 -->
<g id="edge15" class="edge"><title>Node12&#45;&gt;Node2</title>
<path fill="none" stroke="#9a32cd" stroke-dasharray="5,2" d="M270.135,-118.184C270.135,-105.122 270.135,-88.5433 270.135,-78.4635"/>
<polygon fill="#9a32cd" stroke="#9a32cd" points="266.635,-118.505 270.135,-128.505 273.635,-118.505 266.635,-118.505"/>
<text text-anchor="middle" x="300.05" y="-100.79" font-family="Helvetica Neue" font-size="10.00"> sourceQuery</text>
</g>
<!-- Node12&#45;&gt;Node12 -->
<g id="edge24" class="edge"><title>Node12&#45;&gt;Node12</title>
<path fill="none" stroke="#9a32cd" stroke-dasharray="5,2" d="M322.826,-143.757C327.535,-142.702 330.49,-141.023 330.49,-138.72 330.49,-135.034 322.925,-132.947 312.716,-132.457"/>
<polygon fill="#9a32cd" stroke="#9a32cd" points="322.223,-140.305 312.716,-144.982 323.064,-147.254 322.223,-140.305"/>
<text text-anchor="middle" x="356.24" y="-142.65" font-family="Helvetica Neue" font-size="10.00"> subQuery</text>
<text text-anchor="middle" x="356.24" y="-130.72" font-family="Helvetica Neue" font-size="10.00">unionQuery</text>
</g>
<!-- Node13&#45;&gt;Node12 -->
<g id="edge16" class="edge"><title>Node13&#45;&gt;Node12</title>
<path fill="none" stroke="midnightblue" d="M334.93,-200.821C318.207,-185.051 293.406,-161.664 279.851,-148.882"/>
<polygon fill="midnightblue" stroke="midnightblue" points="332.73,-203.556 342.407,-207.871 337.532,-198.464 332.73,-203.556"/>
</g>
<!-- Node14 -->
<g id="node14" class="node"><title>Node14</title>
<g id="a_node14"><a xlink:href="protocol_d_b_filterable_query-p.html" target="_top" xlink:title="\&lt;DBFilterableQuery\&gt;">
<polygon fill="none" stroke="black" points="448.3,-208.08 448.3,-228.01 557.97,-228.01 557.97,-208.08 448.3,-208.08"/>
<text text-anchor="middle" x="503.135" y="-216.01" font-family="Helvetica Neue" font-size="10.00">&lt;DBFilterableQuery&gt;</text>
</a>
</g>
</g>
<!-- Node14&#45;&gt;Node1 -->
<g id="edge26" class="edge"><title>Node14&#45;&gt;Node1</title>
<path fill="none" stroke="midnightblue" d="M499.373,-198.326C496.79,-188.777 492.624,-177.37 486.135,-168.65 431.174,-94.7951 331.58,-40.9686 289.613,-20.5146"/>
<polygon fill="midnightblue" stroke="midnightblue" points="495.968,-199.136 501.656,-208.075 502.784,-197.54 495.968,-199.136"/>
</g>
<!-- Node14&#45;&gt;Node12 -->
<g id="edge19" class="edge"><title>Node14&#45;&gt;Node12</title>
<path fill="none" stroke="midnightblue" d="M491.996,-199.214C484.368,-188.576 473.273,-175.788 460.135,-168.65 435.435,-155.229 360.936,-146.942 312.895,-142.845"/>
<polygon fill="midnightblue" stroke="midnightblue" points="489.29,-201.463 497.771,-207.814 495.101,-197.561 489.29,-201.463"/>
</g>
<!-- Node15 -->
<g id="node15" class="node"><title>Node15</title>
<polygon fill="none" stroke="#bfbfbf" points="110.405,-208.08 110.405,-228.01 227.865,-228.01 227.865,-208.08 110.405,-208.08"/>
<text text-anchor="middle" x="169.135" y="-216.01" font-family="Helvetica Neue" font-size="10.00">&lt;NSFastEnumeration&gt;</text>
</g>
<!-- Node15&#45;&gt;Node12 -->
<g id="edge20" class="edge"><title>Node15&#45;&gt;Node12</title>
<path fill="none" stroke="midnightblue" d="M189.212,-201.673C209.809,-185.905 241.168,-161.897 258.168,-148.882"/>
<polygon fill="midnightblue" stroke="midnightblue" points="186.93,-199.013 181.118,-207.871 191.185,-204.571 186.93,-199.013"/>
</g>
<!-- Node16&#45;&gt;Node12 -->
<g id="edge21" class="edge"><title>Node16&#45;&gt;Node12</title>
<path fill="none" stroke="#9a32cd" stroke-dasharray="5,2" d="M270.135,-197.722C270.135,-182.117 270.135,-160.851 270.135,-148.882"/>
<polygon fill="#9a32cd" stroke="#9a32cd" points="266.635,-197.871 270.135,-207.871 273.635,-197.871 266.635,-197.871"/>
<text text-anchor="middle" x="279.395" y="-177.08" font-family="Helvetica Neue" font-size="10.00"> join</text>
</g>
</g>
</svg>
