<?xml version="1.0" encoding="UTF-8" standalone="no"?>
<!DOCTYPE svg PUBLIC "-//W3C//DTD SVG 1.1//EN"
 "http://www.w3.org/Graphics/SVG/1.1/DTD/svg11.dtd">
<!-- Generated by graphviz version 2.38.0 (20140413.2041)
 -->
<!-- Title: DBWriteQuery Pages: 1 -->
<!--zoomable 257 -->
<svg id="main" version="1.1" xmlns="http://www.w3.org/2000/svg" xmlns:xlink="http://www.w3.org/1999/xlink" xml:space="preserve" onload="init(evt)">
<style type="text/css"><![CDATA[
.edge:hover path { stroke: red; }
.edge:hover polygon { stroke: red; fill: red; }
]]></style>
<script type="text/javascript"><![CDATA[
var edges = document.getElementsByTagName('g');
if (edges && edges.length) {
  for (var i=0;i<edges.length;i++) {
    if (edges[i].id.substr(0,4)=='edge') {
      edges[i].setAttribute('class','edge');
    }
  }
}
]]></script>
        <defs>
                <circle id="rim" cx="0" cy="0" r="7"/>
                <circle id="rim2" cx="0" cy="0" r="3.5"/>
                <g id="zoomPlus">
                        <use xlink:href="#rim" fill="#404040">
                                <set attributeName="fill" to="#808080" begin="zoomplus.mouseover" end="zoomplus.mouseout"/>
                        </use>
                        <path d="M-4,0h8M0,-4v8" fill="none" stroke="white" stroke-width="1.5" pointer-events="none"/>
                </g>
                <g id="zoomMin">
                        <use xlink:href="#rim" fill="#404040">
                                <set attributeName="fill" to="#808080" begin="zoomminus.mouseover" end="zoomminus.mouseout"/>
                        </use>
                        <path d="M-4,0h8" fill="none" stroke="white" stroke-width="1.5" pointer-events="none"/>
                </g>
                <g id="dirArrow">
                        <path fill="none" stroke="white" stroke-width="1.5" d="M0,-3.0v7 M-2.5,-0.5L0,-3.0L2.5,-0.5"/>
                </g>
               <g id="resetDef">
                       <use xlink:href="#rim2" fill="#404040">
                               <set attributeName="fill" to="#808080" begin="reset.mouseover" end="reset.mouseout"/>
                       </use>
               </g>
        </defs>

<script type="text/javascript">
var viewWidth = 564;
var viewHeight = 257;
var sectionId = 'dynsection-0';
</script>
<script xlink:href="svgpan.js"/>
<svg id="graph" class="graph">
<g id="viewport">
<title>DBWriteQuery</title>
<!-- Node1 -->
<g id="node1" class="node"><title>Node1</title>
<polygon fill="#bfbfbf" stroke="black" points="249.46,-114.36 249.46,-134.29 329.36,-134.29 329.36,-114.36 249.46,-114.36"/>
<text text-anchor="middle" x="289.41" y="-122.29" font-family="Helvetica Neue" font-size="10.00">DBWriteQuery</text>
</g>
<!-- Node5 -->
<g id="node5" class="node"><title>Node5</title>
<g id="a_node5"><a xlink:href="interface_d_b_alter_table_query.html" target="_top" xlink:title="DBAlterTableQuery">
<polygon fill="none" stroke="black" points="-2.84217e-14,-57.4299 -2.84217e-14,-77.3599 100.82,-77.3599 100.82,-57.4299 -2.84217e-14,-57.4299"/>
<text text-anchor="middle" x="50.41" y="-65.3599" font-family="Helvetica Neue" font-size="10.00">DBAlterTableQuery</text>
</a>
</g>
</g>
<!-- Node1&#45;&gt;Node5 -->
<g id="edge4" class="edge"><title>Node1&#45;&gt;Node5</title>
<path fill="none" stroke="midnightblue" d="M240.465,-112.076C195.88,-101.829 130.882,-86.8901 89.6298,-77.4089"/>
<polygon fill="midnightblue" stroke="midnightblue" points="239.682,-115.487 250.212,-114.316 241.25,-108.665 239.682,-115.487"/>
</g>
<!-- Node6 -->
<g id="node6" class="node"><title>Node6</title>
<g id="a_node6"><a xlink:href="interface_d_b_create_table_query.html" target="_top" xlink:title="DBCreateTableQuery">
<polygon fill="none" stroke="black" points="118.46,-57.4299 118.46,-77.3599 228.36,-77.3599 228.36,-57.4299 118.46,-57.4299"/>
<text text-anchor="middle" x="173.41" y="-65.3599" font-family="Helvetica Neue" font-size="10.00">DBCreateTableQuery</text>
</a>
</g>
</g>
<!-- Node1&#45;&gt;Node6 -->
<g id="edge5" class="edge"><title>Node1&#45;&gt;Node6</title>
<path fill="none" stroke="midnightblue" d="M261.056,-109.898C239.787,-99.8264 211.242,-86.3096 192.593,-77.4789"/>
<polygon fill="midnightblue" stroke="midnightblue" points="259.719,-113.138 270.255,-114.254 262.715,-106.811 259.719,-113.138"/>
</g>
<!-- Node7 -->
<g id="node7" class="node"><title>Node7</title>
<g id="a_node7"><a xlink:href="interface_d_b_delete_query.html" target="_top" xlink:title="DBDeleteQuery">
<polygon fill="none" stroke="black" points="246.775,-57.4299 246.775,-77.3599 332.045,-77.3599 332.045,-57.4299 246.775,-57.4299"/>
<text text-anchor="middle" x="289.41" y="-65.3599" font-family="Helvetica Neue" font-size="10.00">DBDeleteQuery</text>
</a>
</g>
</g>
<!-- Node1&#45;&gt;Node7 -->
<g id="edge6" class="edge"><title>Node1&#45;&gt;Node7</title>
<path fill="none" stroke="midnightblue" d="M289.41,-104.232C289.41,-95.2345 289.41,-84.9112 289.41,-77.6625"/>
<polygon fill="midnightblue" stroke="midnightblue" points="285.91,-104.254 289.41,-114.254 292.91,-104.254 285.91,-104.254"/>
</g>
<!-- Node8 -->
<g id="node8" class="node"><title>Node8</title>
<g id="a_node8"><a xlink:href="interface_d_b_drop_table_query.html" target="_top" xlink:title="DBDropTableQuery">
<polygon fill="none" stroke="black" points="350.345,-57.4299 350.345,-77.3599 452.475,-77.3599 452.475,-57.4299 350.345,-57.4299"/>
<text text-anchor="middle" x="401.41" y="-65.3599" font-family="Helvetica Neue" font-size="10.00">DBDropTableQuery</text>
</a>
</g>
</g>
<!-- Node1&#45;&gt;Node8 -->
<g id="edge7" class="edge"><title>Node1&#45;&gt;Node8</title>
<path fill="none" stroke="midnightblue" d="M317.064,-109.762C337.57,-99.7048 364.964,-86.2698 382.888,-77.4789"/>
<polygon fill="midnightblue" stroke="midnightblue" points="315.342,-106.708 307.905,-114.254 318.424,-112.993 315.342,-106.708"/>
</g>
<!-- Node9 -->
<g id="node9" class="node"><title>Node9</title>
<g id="a_node9"><a xlink:href="interface_d_b_insert_query.html" target="_top" xlink:title="DBInsertQuery">
<polygon fill="none" stroke="black" points="470.535,-57.4299 470.535,-77.3599 552.285,-77.3599 552.285,-57.4299 470.535,-57.4299"/>
<text text-anchor="middle" x="511.41" y="-65.3599" font-family="Helvetica Neue" font-size="10.00">DBInsertQuery</text>
</a>
</g>
</g>
<!-- Node1&#45;&gt;Node9 -->
<g id="edge8" class="edge"><title>Node1&#45;&gt;Node9</title>
<path fill="none" stroke="midnightblue" d="M335.915,-111.818C377.325,-101.572 437.072,-86.7886 475.066,-77.3876"/>
<polygon fill="midnightblue" stroke="midnightblue" points="334.935,-108.455 326.069,-114.254 336.617,-115.25 334.935,-108.455"/>
</g>
<!-- Node2 -->
<g id="node2" class="node"><title>Node2</title>
<g id="a_node2"><a xlink:href="interface_d_b_query.html" target="_top" xlink:title="DBQuery">
<polygon fill="none" stroke="black" points="261.035,-171.29 261.035,-191.22 317.785,-191.22 317.785,-171.29 261.035,-171.29"/>
<text text-anchor="middle" x="289.41" y="-179.22" font-family="Helvetica Neue" font-size="10.00">DBQuery</text>
</a>
</g>
</g>
<!-- Node2&#45;&gt;Node1 -->
<g id="edge1" class="edge"><title>Node2&#45;&gt;Node1</title>
<path fill="none" stroke="midnightblue" d="M289.41,-161.162C289.41,-152.164 289.41,-141.841 289.41,-134.592"/>
<polygon fill="midnightblue" stroke="midnightblue" points="285.91,-161.184 289.41,-171.184 292.91,-161.184 285.91,-161.184"/>
</g>
<!-- Node3 -->
<g id="node3" class="node"><title>Node3</title>
<polygon fill="none" stroke="#bfbfbf" points="216.74,-228.22 216.74,-248.15 276.08,-248.15 276.08,-228.22 216.74,-228.22"/>
<text text-anchor="middle" x="246.41" y="-236.15" font-family="Helvetica Neue" font-size="10.00">NSObject</text>
</g>
<!-- Node3&#45;&gt;Node2 -->
<g id="edge2" class="edge"><title>Node3&#45;&gt;Node2</title>
<path fill="none" stroke="midnightblue" d="M259.751,-220.143C267.142,-210.701 276.044,-199.329 282.155,-191.522"/>
<polygon fill="midnightblue" stroke="midnightblue" points="256.919,-218.082 253.511,-228.114 262.431,-222.397 256.919,-218.082"/>
</g>
<!-- Node4 -->
<g id="node4" class="node"><title>Node4</title>
<polygon fill="none" stroke="#bfbfbf" points="293.855,-228.22 293.855,-248.15 372.965,-248.15 372.965,-228.22 293.855,-228.22"/>
<text text-anchor="middle" x="333.41" y="-236.15" font-family="Helvetica Neue" font-size="10.00">&lt;NSCopying&gt;</text>
</g>
<!-- Node4&#45;&gt;Node2 -->
<g id="edge3" class="edge"><title>Node4&#45;&gt;Node2</title>
<path fill="none" stroke="midnightblue" d="M319.759,-220.143C312.196,-210.701 303.087,-199.329 296.834,-191.522"/>
<polygon fill="midnightblue" stroke="midnightblue" points="317.161,-222.497 326.144,-228.114 322.624,-218.121 317.161,-222.497"/>
</g>
<!-- Node10 -->
<g id="node10" class="node"><title>Node10</title>
<g id="a_node10"><a xlink:href="interface_d_b_update_query.html" target="_top" xlink:title="DBUpdateQuery">
<polygon fill="none" stroke="black" points="466.55,-0.5 466.55,-20.4299 556.27,-20.4299 556.27,-0.5 466.55,-0.5"/>
<text text-anchor="middle" x="511.41" y="-8.42993" font-family="Helvetica Neue" font-size="10.00">DBUpdateQuery</text>
</a>
</g>
</g>
<!-- Node9&#45;&gt;Node10 -->
<g id="edge9" class="edge"><title>Node9&#45;&gt;Node10</title>
<path fill="none" stroke="midnightblue" d="M511.41,-47.3023C511.41,-38.3046 511.41,-27.9812 511.41,-20.7326"/>
<polygon fill="midnightblue" stroke="midnightblue" points="507.91,-47.3243 511.41,-57.3243 514.91,-47.3244 507.91,-47.3243"/>
</g>
</g>
</svg>
        <g id="navigator" transform="translate(0 0)" fill="#404254">
                <rect fill="#f2f5e9" fill-opacity="0.5" stroke="#606060" stroke-width=".5" x="0" y="0" width="60" height="60"/>
                <use id="zoomplus" xlink:href="#zoomPlus" x="17" y="9" onmousedown="handleZoom(evt,'in')"/>
                <use id="zoomminus" xlink:href="#zoomMin" x="42" y="9" onmousedown="handleZoom(evt,'out')"/>
                <use id="reset" xlink:href="#resetDef" x="30" y="36" onmousedown="handleReset()"/>
                <g id="arrowUp" xlink:href="#dirArrow" transform="translate(30 24)" onmousedown="handlePan(0,-1)">
                  <use xlink:href="#rim" fill="#404040">
                        <set attributeName="fill" to="#808080" begin="arrowUp.mouseover" end="arrowUp.mouseout"/>
                  </use>
                  <path fill="none" stroke="white" stroke-width="1.5" d="M0,-3.0v7 M-2.5,-0.5L0,-3.0L2.5,-0.5"/>
                </g>
                <g id="arrowRight" xlink:href="#dirArrow" transform="rotate(90) translate(36 -43)" onmousedown="handlePan(1,0)">
                  <use xlink:href="#rim" fill="#404040">
                        <set attributeName="fill" to="#808080" begin="arrowRight.mouseover" end="arrowRight.mouseout"/>
                  </use>
                  <path fill="none" stroke="white" stroke-width="1.5" d="M0,-3.0v7 M-2.5,-0.5L0,-3.0L2.5,-0.5"/>
                </g>
                <g id="arrowDown" xlink:href="#dirArrow" transform="rotate(180) translate(-30 -48)" onmousedown="handlePan(0,1)">
                  <use xlink:href="#rim" fill="#404040">
                        <set attributeName="fill" to="#808080" begin="arrowDown.mouseover" end="arrowDown.mouseout"/>
                  </use>
                  <path fill="none" stroke="white" stroke-width="1.5" d="M0,-3.0v7 M-2.5,-0.5L0,-3.0L2.5,-0.5"/>
                </g>
                <g id="arrowLeft" xlink:href="#dirArrow" transform="rotate(270) translate(-36 17)" onmousedown="handlePan(-1,0)">
                  <use xlink:href="#rim" fill="#404040">
                        <set attributeName="fill" to="#808080" begin="arrowLeft.mouseover" end="arrowLeft.mouseout"/>
                  </use>
                  <path fill="none" stroke="white" stroke-width="1.5" d="M0,-3.0v7 M-2.5,-0.5L0,-3.0L2.5,-0.5"/>
                </g>
        </g>
        <svg viewBox="0 0 15 15" width="100%" height="30px" preserveAspectRatio="xMaxYMin meet">
         <g id="arrow_out" transform="scale(0.3 0.3)">
          <a xlink:href="interface_d_b_write_query__inherit__graph_org.svg" target="_base">
           <rect id="button" ry="5" rx="5" y="6" x="6" height="38" width="38"
                fill="#f2f5e9" fill-opacity="0.5" stroke="#606060" stroke-width="1.0"/>
           <path id="arrow"
             d="M 11.500037,31.436501 C 11.940474,20.09759 22.043105,11.32322 32.158766,21.979434 L 37.068811,17.246167 C 37.068811,17.246167 37.088388,32 37.088388,32 L 22.160133,31.978069 C 22.160133,31.978069 26.997745,27.140456 26.997745,27.140456 C 18.528582,18.264221 13.291696,25.230495 11.500037,31.436501 z"
             style="fill:#404040;"/>
          </a>
         </g>
        </svg>
</svg>
