<?xml version="1.0" encoding="UTF-8" standalone="no"?>
<!DOCTYPE svg PUBLIC "-//W3C//DTD SVG 1.1//EN"
 "http://www.w3.org/Graphics/SVG/1.1/DTD/svg11.dtd">
<!-- Generated by graphviz version 2.38.0 (20140413.2041)
 -->
<!-- Title: DBColumnDefinition Pages: 1 -->
<svg width="304pt" height="143pt"
 viewBox="0.00 0.00 303.72 142.79" xmlns="http://www.w3.org/2000/svg" xmlns:xlink="http://www.w3.org/1999/xlink">
<g id="graph0" class="graph" transform="scale(1 1) rotate(0) translate(4 138.79)">
<title>DBColumnDefinition</title>
<!-- Node1 -->
<g id="node1" class="node"><title>Node1</title>
<polygon fill="#bfbfbf" stroke="black" points="87.29,-0.5 87.29,-20.4299 194.05,-20.4299 194.05,-0.5 87.29,-0.5"/>
<text text-anchor="middle" x="140.67" y="-8.42993" font-family="Helvetica Neue" font-size="10.00">DBColumnDefinition</text>
</g>
<!-- Node2 -->
<g id="node2" class="node"><title>Node2</title>
<polygon fill="none" stroke="#bfbfbf" points="-1.06581e-14,-57.4299 -1.06581e-14,-77.3599 59.34,-77.3599 59.34,-57.4299 -1.06581e-14,-57.4299"/>
<text text-anchor="middle" x="29.67" y="-65.3599" font-family="Helvetica Neue" font-size="10.00">NSObject</text>
</g>
<!-- Node2&#45;&gt;Node1 -->
<g id="edge1" class="edge"><title>Node2&#45;&gt;Node1</title>
<path fill="none" stroke="midnightblue" d="M57.0772,-52.832C77.4004,-42.7748 104.549,-29.3399 122.313,-20.549"/>
<polygon fill="midnightblue" stroke="midnightblue" points="55.4096,-49.7521 47.9994,-57.3243 58.5144,-56.0259 55.4096,-49.7521"/>
</g>
<!-- Node3 -->
<g id="node3" class="node"><title>Node3</title>
<g id="a_node3"><a xlink:href="protocol_d_b_s_q_l_representable-p.html" target="_top" xlink:title="\&lt;DBSQLRepresentable\&gt;">
<polygon fill="none" stroke="black" points="77.585,-57.4299 77.585,-77.3599 203.755,-77.3599 203.755,-57.4299 77.585,-57.4299"/>
<text text-anchor="middle" x="140.67" y="-65.3599" font-family="Helvetica Neue" font-size="10.00">&lt;DBSQLRepresentable&gt;</text>
</a>
</g>
</g>
<!-- Node3&#45;&gt;Node1 -->
<g id="edge2" class="edge"><title>Node3&#45;&gt;Node1</title>
<path fill="none" stroke="midnightblue" d="M140.67,-47.3023C140.67,-38.3046 140.67,-27.9812 140.67,-20.7326"/>
<polygon fill="midnightblue" stroke="midnightblue" points="137.17,-47.3243 140.67,-57.3243 144.17,-47.3244 137.17,-47.3243"/>
</g>
<!-- Node4 -->
<g id="node4" class="node"><title>Node4</title>
<polygon fill="none" stroke="#bfbfbf" points="105,-114.36 105,-134.29 176.34,-134.29 176.34,-114.36 105,-114.36"/>
<text text-anchor="middle" x="140.67" y="-122.29" font-family="Helvetica Neue" font-size="10.00">&lt;NSObject&gt;</text>
</g>
<!-- Node4&#45;&gt;Node3 -->
<g id="edge3" class="edge"><title>Node4&#45;&gt;Node3</title>
<path fill="none" stroke="midnightblue" d="M140.67,-104.232C140.67,-95.2345 140.67,-84.9112 140.67,-77.6625"/>
<polygon fill="midnightblue" stroke="midnightblue" points="137.17,-104.254 140.67,-114.254 144.17,-104.254 137.17,-104.254"/>
</g>
<!-- Node5 -->
<g id="node5" class="node"><title>Node5</title>
<polygon fill="none" stroke="#bfbfbf" points="221.615,-57.4299 221.615,-77.3599 295.725,-77.3599 295.725,-57.4299 221.615,-57.4299"/>
<text text-anchor="middle" x="258.67" y="-65.3599" font-family="Helvetica Neue" font-size="10.00">&lt;NSCoding&gt;</text>
</g>
<!-- Node5&#45;&gt;Node1 -->
<g id="edge4" class="edge"><title>Node5&#45;&gt;Node1</title>
<path fill="none" stroke="midnightblue" d="M229.827,-52.9684C208.191,-42.8965 179.154,-29.3797 160.184,-20.549"/>
<polygon fill="midnightblue" stroke="midnightblue" points="228.642,-56.2771 239.185,-57.3243 231.596,-49.931 228.642,-56.2771"/>
</g>
</g>
</svg>
