<?xml version="1.0" encoding="UTF-8" standalone="no"?>
<!DOCTYPE svg PUBLIC "-//W3C//DTD SVG 1.1//EN"
 "http://www.w3.org/Graphics/SVG/1.1/DTD/svg11.dtd">
<!-- Generated by graphviz version 2.38.0 (20140413.2041)
 -->
<!-- Title: DB Pages: 1 -->
<svg width="124pt" height="156pt"
 viewBox="0.00 0.00 124.36 155.72" xmlns="http://www.w3.org/2000/svg" xmlns:xlink="http://www.w3.org/1999/xlink">
<g id="graph0" class="graph" transform="scale(1 1) rotate(0) translate(4 151.72)">
<title>DB</title>
<!-- Node1 -->
<g id="node1" class="node"><title>Node1</title>
<polygon fill="#bfbfbf" stroke="black" points="7.725,-0.5 7.725,-20.4299 37.615,-20.4299 37.615,-0.5 7.725,-0.5"/>
<text text-anchor="middle" x="22.67" y="-8.42993" font-family="Helvetica Neue" font-size="10.00">DB</text>
</g>
<!-- Node2 -->
<g id="node2" class="node"><title>Node2</title>
<polygon fill="none" stroke="#bfbfbf" points="3.55271e-15,-127.29 3.55271e-15,-147.22 59.34,-147.22 59.34,-127.29 3.55271e-15,-127.29"/>
<text text-anchor="middle" x="29.67" y="-135.22" font-family="Helvetica Neue" font-size="10.00">NSObject</text>
</g>
<!-- Node2&#45;&gt;Node1 -->
<g id="edge1" class="edge"><title>Node2&#45;&gt;Node1</title>
<path fill="none" stroke="midnightblue" d="M27.7901,-116.828C27.0388,-108.508 26.2225,-98.679 25.67,-89.7898 24.1166,-64.7992 23.2464,-35.2699 22.8798,-20.6364"/>
<polygon fill="midnightblue" stroke="midnightblue" points="24.3261,-117.378 28.7434,-127.008 31.2957,-116.725 24.3261,-117.378"/>
</g>
<!-- Node3 -->
<g id="node3" class="node"><title>Node3</title>
<g id="a_node3"><a xlink:href="interface_d_b_connection.html" target="_top" xlink:title="DBConnection">
<polygon fill="none" stroke="black" points="34.98,-69.3599 34.98,-89.2898 116.36,-89.2898 116.36,-69.3599 34.98,-69.3599"/>
<text text-anchor="middle" x="75.67" y="-77.2898" font-family="Helvetica Neue" font-size="10.00">DBConnection</text>
</a>
</g>
</g>
<!-- Node2&#45;&gt;Node3 -->
<g id="edge3" class="edge"><title>Node2&#45;&gt;Node3</title>
<path fill="none" stroke="midnightblue" d="M43.5709,-119.353C51.6444,-109.537 61.5011,-97.5523 68.1448,-89.4744"/>
<polygon fill="midnightblue" stroke="midnightblue" points="40.7097,-117.322 37.0607,-127.269 46.1161,-121.769 40.7097,-117.322"/>
</g>
<!-- Node3&#45;&gt;Node1 -->
<g id="edge2" class="edge"><title>Node3&#45;&gt;Node1</title>
<path fill="none" stroke="#9a32cd" stroke-dasharray="5,2" d="M62.1084,-61.2168C51.9072,-48.3479 38.3161,-31.2026 30.0446,-20.7681"/>
<polygon fill="#9a32cd" stroke="#9a32cd" points="59.5673,-63.6455 68.5222,-69.3078 65.0529,-59.2971 59.5673,-63.6455"/>
<text text-anchor="middle" x="78.88" y="-42.8599" font-family="Helvetica Neue" font-size="10.00"> connection</text>
</g>
</g>
</svg>
