<?xml version="1.0" encoding="UTF-8" standalone="no"?>
<!DOCTYPE svg PUBLIC "-//W3C//DTD SVG 1.1//EN"
 "http://www.w3.org/Graphics/SVG/1.1/DTD/svg11.dtd">
<!-- Generated by graphviz version 2.38.0 (20140413.2041)
 -->
<!-- Title: DBTable Pages: 1 -->
<svg width="163pt" height="225pt"
 viewBox="0.00 0.00 163.39 224.58" xmlns="http://www.w3.org/2000/svg" xmlns:xlink="http://www.w3.org/1999/xlink">
<g id="graph0" class="graph" transform="scale(1 1) rotate(0) translate(4 220.58)">
<title>DBTable</title>
<!-- Node1 -->
<g id="node1" class="node"><title>Node1</title>
<polygon fill="#bfbfbf" stroke="black" points="-3.55271e-15,-0.5 -3.55271e-15,-20.4299 53.41,-20.4299 53.41,-0.5 -3.55271e-15,-0.5"/>
<text text-anchor="middle" x="26.705" y="-8.42993" font-family="Helvetica Neue" font-size="10.00">DBTable</text>
</g>
<!-- Node2 -->
<g id="node2" class="node"><title>Node2</title>
<polygon fill="none" stroke="#bfbfbf" points="16.035,-196.15 16.035,-216.08 75.375,-216.08 75.375,-196.15 16.035,-196.15"/>
<text text-anchor="middle" x="45.705" y="-204.08" font-family="Helvetica Neue" font-size="10.00">NSObject</text>
</g>
<!-- Node2&#45;&gt;Node1 -->
<g id="edge1" class="edge"><title>Node2&#45;&gt;Node1</title>
<path fill="none" stroke="midnightblue" d="M41.5429,-185.86C36.8449,-163.06 29.4938,-123.873 26.705,-89.7898 24.6645,-64.8527 25.5572,-35.3 26.2208,-20.6491"/>
<polygon fill="midnightblue" stroke="midnightblue" points="38.1739,-186.847 43.662,-195.91 45.0233,-185.403 38.1739,-186.847"/>
</g>
<!-- Node3 -->
<g id="node3" class="node"><title>Node3</title>
<g id="a_node3"><a xlink:href="interface_d_b.html" target="_top" xlink:title="DB">
<polygon fill="none" stroke="black" points="35.76,-69.3599 35.76,-89.2898 65.65,-89.2898 65.65,-69.3599 35.76,-69.3599"/>
<text text-anchor="middle" x="50.705" y="-77.2898" font-family="Helvetica Neue" font-size="10.00">DB</text>
</a>
</g>
</g>
<!-- Node2&#45;&gt;Node3 -->
<g id="edge3" class="edge"><title>Node2&#45;&gt;Node3</title>
<path fill="none" stroke="midnightblue" d="M46.4736,-185.933C47.5651,-158.689 49.5222,-109.845 50.3352,-89.5548"/>
<polygon fill="midnightblue" stroke="midnightblue" points="42.9678,-186.008 46.0646,-196.14 49.9622,-186.288 42.9678,-186.008"/>
</g>
<!-- Node4 -->
<g id="node4" class="node"><title>Node4</title>
<g id="a_node4"><a xlink:href="interface_d_b_connection.html" target="_top" xlink:title="DBConnection">
<polygon fill="none" stroke="black" points="74.015,-138.22 74.015,-158.15 155.395,-158.15 155.395,-138.22 74.015,-138.22"/>
<text text-anchor="middle" x="114.705" y="-146.15" font-family="Helvetica Neue" font-size="10.00">DBConnection</text>
</a>
</g>
</g>
<!-- Node2&#45;&gt;Node4 -->
<g id="edge5" class="edge"><title>Node2&#45;&gt;Node4</title>
<path fill="none" stroke="midnightblue" d="M64.7429,-189.683C77.1608,-179.617 92.9484,-166.82 103.417,-158.334"/>
<polygon fill="midnightblue" stroke="midnightblue" points="62.3556,-187.113 56.791,-196.129 66.7634,-192.551 62.3556,-187.113"/>
</g>
<!-- Node3&#45;&gt;Node1 -->
<g id="edge2" class="edge"><title>Node3&#45;&gt;Node1</title>
<path fill="none" stroke="#9a32cd" stroke-dasharray="5,2" d="M44.0243,-59.7136C39.4746,-47.0389 33.646,-30.8013 30.0445,-20.7681"/>
<polygon fill="#9a32cd" stroke="#9a32cd" points="40.7955,-61.0783 47.4683,-69.3078 47.3839,-58.7133 40.7955,-61.0783"/>
<text text-anchor="middle" x="62.84" y="-42.8599" font-family="Helvetica Neue" font-size="10.00"> database</text>
</g>
<!-- Node4&#45;&gt;Node3 -->
<g id="edge4" class="edge"><title>Node4&#45;&gt;Node3</title>
<path fill="none" stroke="#9a32cd" stroke-dasharray="5,2" d="M99.0348,-130.814C86.6439,-117.87 69.7905,-100.263 59.6102,-89.628"/>
<polygon fill="#9a32cd" stroke="#9a32cd" points="96.6304,-133.364 106.074,-138.168 101.687,-128.524 96.6304,-133.364"/>
<text text-anchor="middle" x="112.915" y="-111.72" font-family="Helvetica Neue" font-size="10.00"> connection</text>
</g>
</g>
</svg>
