<?xml version="1.0" encoding="UTF-8" standalone="no"?>
<!DOCTYPE svg PUBLIC "-//W3C//DTD SVG 1.1//EN"
 "http://www.w3.org/Graphics/SVG/1.1/DTD/svg11.dtd">
<!-- Generated by graphviz version 2.38.0 (20140413.2041)
 -->
<!-- Title: DBJoin Pages: 1 -->
<svg width="196pt" height="293pt"
 viewBox="0.00 0.00 195.99 293.44" xmlns="http://www.w3.org/2000/svg" xmlns:xlink="http://www.w3.org/1999/xlink">
<g id="graph0" class="graph" transform="scale(1 1) rotate(0) translate(4 289.439)">
<title>DBJoin</title>
<!-- Node1 -->
<g id="node1" class="node"><title>Node1</title>
<polygon fill="#bfbfbf" stroke="black" points="1.06581e-14,-0.5 1.06581e-14,-20.4299 48.6,-20.4299 48.6,-0.5 1.06581e-14,-0.5"/>
<text text-anchor="middle" x="24.3" y="-8.42993" font-family="Helvetica Neue" font-size="10.00">DBJoin</text>
</g>
<!-- Node2 -->
<g id="node2" class="node"><title>Node2</title>
<polygon fill="none" stroke="#bfbfbf" points="29.63,-265.01 29.63,-284.939 88.97,-284.939 88.97,-265.01 29.63,-265.01"/>
<text text-anchor="middle" x="59.3" y="-272.939" font-family="Helvetica Neue" font-size="10.00">NSObject</text>
</g>
<!-- Node2&#45;&gt;Node1 -->
<g id="edge1" class="edge"><title>Node2&#45;&gt;Node1</title>
<path fill="none" stroke="midnightblue" d="M31.1966,-259.584C16.8156,-250.032 2.3,-235.955 2.3,-218.045 2.3,-218.045 2.3,-218.045 2.3,-78.3248 2.3,-56.8179 12.6984,-33.2813 19.1975,-20.6712"/>
<polygon fill="midnightblue" stroke="midnightblue" points="29.6398,-262.733 40.0024,-264.94 33.2775,-256.753 29.6398,-262.733"/>
</g>
<!-- Node3 -->
<g id="node3" class="node"><title>Node3</title>
<g id="a_node3"><a xlink:href="interface_d_b_table.html" target="_top" xlink:title="DBTable">
<polygon fill="none" stroke="black" points="30.595,-69.3599 30.595,-89.2898 84.005,-89.2898 84.005,-69.3599 30.595,-69.3599"/>
<text text-anchor="middle" x="57.3" y="-77.2898" font-family="Helvetica Neue" font-size="10.00">DBTable</text>
</a>
</g>
</g>
<!-- Node2&#45;&gt;Node3 -->
<g id="edge3" class="edge"><title>Node2&#45;&gt;Node3</title>
<path fill="none" stroke="midnightblue" d="M58.5264,-254.769C58.4364,-251.998 58.3567,-249.181 58.3,-246.51 57.0275,-186.511 57.1627,-114.302 57.2581,-89.3332"/>
<polygon fill="midnightblue" stroke="midnightblue" points="55.0308,-254.957 58.8971,-264.822 62.0261,-254.699 55.0308,-254.957"/>
</g>
<!-- Node4 -->
<g id="node4" class="node"><title>Node4</title>
<g id="a_node4"><a xlink:href="interface_d_b.html" target="_top" xlink:title="DB">
<polygon fill="none" stroke="black" points="68.355,-138.22 68.355,-158.15 98.245,-158.15 98.245,-138.22 68.355,-138.22"/>
<text text-anchor="middle" x="83.3" y="-146.15" font-family="Helvetica Neue" font-size="10.00">DB</text>
</a>
</g>
</g>
<!-- Node2&#45;&gt;Node4 -->
<g id="edge5" class="edge"><title>Node2&#45;&gt;Node4</title>
<path fill="none" stroke="midnightblue" d="M62.9192,-255.156C68.1447,-227.986 77.6051,-178.796 81.5249,-158.415"/>
<polygon fill="midnightblue" stroke="midnightblue" points="59.4777,-254.519 61.026,-265 66.3517,-255.841 59.4777,-254.519"/>
</g>
<!-- Node5 -->
<g id="node5" class="node"><title>Node5</title>
<g id="a_node5"><a xlink:href="interface_d_b_connection.html" target="_top" xlink:title="DBConnection">
<polygon fill="none" stroke="black" points="106.61,-207.08 106.61,-227.01 187.99,-227.01 187.99,-207.08 106.61,-207.08"/>
<text text-anchor="middle" x="147.3" y="-215.01" font-family="Helvetica Neue" font-size="10.00">DBConnection</text>
</a>
</g>
</g>
<!-- Node2&#45;&gt;Node5 -->
<g id="edge7" class="edge"><title>Node2&#45;&gt;Node5</title>
<path fill="none" stroke="midnightblue" d="M82.2207,-259.407C98.2503,-249.219 119.167,-235.925 132.904,-227.194"/>
<polygon fill="midnightblue" stroke="midnightblue" points="80.001,-256.67 73.4387,-264.988 83.7558,-262.578 80.001,-256.67"/>
</g>
<!-- Node3&#45;&gt;Node1 -->
<g id="edge2" class="edge"><title>Node3&#45;&gt;Node1</title>
<path fill="none" stroke="#9a32cd" stroke-dasharray="5,2" d="M48.3012,-60.0927C42.0188,-47.3643 33.8933,-30.9016 28.8918,-20.7681"/>
<polygon fill="#9a32cd" stroke="#9a32cd" points="45.2849,-61.8897 52.8495,-69.3078 51.562,-58.7915 45.2849,-61.8897"/>
<text text-anchor="middle" x="55.71" y="-42.8599" font-family="Helvetica Neue" font-size="10.00"> table</text>
</g>
<!-- Node4&#45;&gt;Node3 -->
<g id="edge4" class="edge"><title>Node4&#45;&gt;Node3</title>
<path fill="none" stroke="#9a32cd" stroke-dasharray="5,2" d="M76.0626,-128.573C71.1338,-115.899 64.8194,-99.6611 60.9178,-89.628"/>
<polygon fill="#9a32cd" stroke="#9a32cd" points="72.9071,-130.116 79.7935,-138.168 79.4312,-127.579 72.9071,-130.116"/>
<text text-anchor="middle" x="94.435" y="-111.72" font-family="Helvetica Neue" font-size="10.00"> database</text>
</g>
<!-- Node5&#45;&gt;Node4 -->
<g id="edge6" class="edge"><title>Node5&#45;&gt;Node4</title>
<path fill="none" stroke="#9a32cd" stroke-dasharray="5,2" d="M131.63,-199.674C119.239,-186.73 102.385,-169.123 92.2052,-158.488"/>
<polygon fill="#9a32cd" stroke="#9a32cd" points="129.225,-202.224 138.669,-207.028 134.282,-197.383 129.225,-202.224"/>
<text text-anchor="middle" x="145.51" y="-180.58" font-family="Helvetica Neue" font-size="10.00"> connection</text>
</g>
</g>
</svg>
