<?xml version="1.0" encoding="UTF-8" standalone="no"?>
<!DOCTYPE svg PUBLIC "-//W3C//DTD SVG 1.1//EN"
 "http://www.w3.org/Graphics/SVG/1.1/DTD/svg11.dtd">
<!-- Generated by graphviz version 2.38.0 (20140413.2041)
 -->
<!-- Title: DBWriteQuery Pages: 1 -->
<svg width="161pt" height="283pt"
 viewBox="0.00 0.00 160.50 282.51" xmlns="http://www.w3.org/2000/svg" xmlns:xlink="http://www.w3.org/1999/xlink">
<g id="graph0" class="graph" transform="scale(1 1) rotate(0) translate(4 278.51)">
<title>DBWriteQuery</title>
<!-- Node1 -->
<g id="node1" class="node"><title>Node1</title>
<polygon fill="#bfbfbf" stroke="black" points="0,-0.5 0,-20.4299 79.9,-20.4299 79.9,-0.5 0,-0.5"/>
<text text-anchor="middle" x="39.95" y="-8.42993" font-family="Helvetica Neue" font-size="10.00">DBWriteQuery</text>
</g>
<!-- Node2 -->
<g id="node2" class="node"><title>Node2</title>
<g id="a_node2"><a xlink:href="interface_d_b_query.html" target="_top" xlink:title="DBQuery">
<polygon fill="none" stroke="black" points="11.575,-58.4299 11.575,-78.3599 68.325,-78.3599 68.325,-58.4299 11.575,-58.4299"/>
<text text-anchor="middle" x="39.95" y="-66.3599" font-family="Helvetica Neue" font-size="10.00">DBQuery</text>
</a>
</g>
</g>
<!-- Node2&#45;&gt;Node1 -->
<g id="edge1" class="edge"><title>Node2&#45;&gt;Node1</title>
<path fill="none" stroke="midnightblue" d="M39.95,-48.3806C39.95,-39.0017 39.95,-28.1213 39.95,-20.6146"/>
<polygon fill="midnightblue" stroke="midnightblue" points="36.4501,-48.4088 39.95,-58.4088 43.4501,-48.4088 36.4501,-48.4088"/>
</g>
<!-- Node3 -->
<g id="node3" class="node"><title>Node3</title>
<polygon fill="none" stroke="#bfbfbf" points="5.28,-254.08 5.28,-274.01 64.62,-274.01 64.62,-254.08 5.28,-254.08"/>
<text text-anchor="middle" x="34.95" y="-262.01" font-family="Helvetica Neue" font-size="10.00">NSObject</text>
</g>
<!-- Node3&#45;&gt;Node2 -->
<g id="edge2" class="edge"><title>Node3&#45;&gt;Node2</title>
<path fill="none" stroke="midnightblue" d="M28.3509,-244.247C19.9865,-217.855 7.60353,-168.385 15.95,-126.79 19.5623,-108.788 28.9605,-89.3848 34.8673,-78.38"/>
<polygon fill="midnightblue" stroke="midnightblue" points="25.1368,-245.673 31.6175,-254.055 31.7781,-243.461 25.1368,-245.673"/>
</g>
<!-- Node5 -->
<g id="node5" class="node"><title>Node5</title>
<g id="a_node5"><a xlink:href="interface_d_b.html" target="_top" xlink:title="DB">
<polygon fill="none" stroke="black" points="25.005,-127.29 25.005,-147.22 54.895,-147.22 54.895,-127.29 25.005,-127.29"/>
<text text-anchor="middle" x="39.95" y="-135.22" font-family="Helvetica Neue" font-size="10.00">DB</text>
</a>
</g>
</g>
<!-- Node3&#45;&gt;Node5 -->
<g id="edge5" class="edge"><title>Node3&#45;&gt;Node5</title>
<path fill="none" stroke="midnightblue" d="M35.7186,-243.863C36.8101,-216.619 38.7672,-167.775 39.5802,-147.485"/>
<polygon fill="midnightblue" stroke="midnightblue" points="32.2128,-243.938 35.3096,-254.07 39.2072,-244.218 32.2128,-243.938"/>
</g>
<!-- Node6 -->
<g id="node6" class="node"><title>Node6</title>
<g id="a_node6"><a xlink:href="interface_d_b_connection.html" target="_top" xlink:title="DBConnection">
<polygon fill="none" stroke="black" points="63.26,-196.15 63.26,-216.08 144.64,-216.08 144.64,-196.15 63.26,-196.15"/>
<text text-anchor="middle" x="103.95" y="-204.08" font-family="Helvetica Neue" font-size="10.00">DBConnection</text>
</a>
</g>
</g>
<!-- Node3&#45;&gt;Node6 -->
<g id="edge7" class="edge"><title>Node3&#45;&gt;Node6</title>
<path fill="none" stroke="midnightblue" d="M53.9879,-247.613C66.4058,-237.547 82.1934,-224.75 92.6622,-216.264"/>
<polygon fill="midnightblue" stroke="midnightblue" points="51.6006,-245.043 46.036,-254.058 56.0084,-250.48 51.6006,-245.043"/>
</g>
<!-- Node4 -->
<g id="node4" class="node"><title>Node4</title>
<polygon fill="none" stroke="#bfbfbf" points="73.395,-127.29 73.395,-147.22 152.505,-147.22 152.505,-127.29 73.395,-127.29"/>
<text text-anchor="middle" x="112.95" y="-135.22" font-family="Helvetica Neue" font-size="10.00">&lt;NSCopying&gt;</text>
</g>
<!-- Node4&#45;&gt;Node2 -->
<g id="edge3" class="edge"><title>Node4&#45;&gt;Node2</title>
<path fill="none" stroke="midnightblue" d="M103.959,-118.162C99.7767,-110.951 94.3125,-102.938 87.95,-96.8599 80.0355,-89.2995 69.6513,-83.0262 60.5665,-78.3929"/>
<polygon fill="midnightblue" stroke="midnightblue" points="101.02,-120.086 108.833,-127.242 107.188,-116.776 101.02,-120.086"/>
</g>
<!-- Node5&#45;&gt;Node2 -->
<g id="edge4" class="edge"><title>Node5&#45;&gt;Node2</title>
<path fill="none" stroke="#9a32cd" stroke-dasharray="5,2" d="M39.95,-116.879C39.95,-104.322 39.95,-88.5305 39.95,-78.6981"/>
<polygon fill="#9a32cd" stroke="#9a32cd" points="36.4501,-117.238 39.95,-127.238 43.4501,-117.238 36.4501,-117.238"/>
<text text-anchor="middle" x="62.085" y="-100.79" font-family="Helvetica Neue" font-size="10.00"> database</text>
</g>
<!-- Node6&#45;&gt;Node5 -->
<g id="edge6" class="edge"><title>Node6&#45;&gt;Node5</title>
<path fill="none" stroke="#9a32cd" stroke-dasharray="5,2" d="M88.2798,-188.744C75.8889,-175.8 59.0355,-158.193 48.8552,-147.558"/>
<polygon fill="#9a32cd" stroke="#9a32cd" points="85.8754,-191.294 95.3187,-196.098 90.9321,-186.453 85.8754,-191.294"/>
<text text-anchor="middle" x="102.16" y="-169.65" font-family="Helvetica Neue" font-size="10.00"> connection</text>
</g>
</g>
</svg>
