<?xml version="1.0" encoding="UTF-8" standalone="no"?>
<!DOCTYPE svg PUBLIC "-//W3C//DTD SVG 1.1//EN"
 "http://www.w3.org/Graphics/SVG/1.1/DTD/svg11.dtd">
<!-- Generated by graphviz version 2.38.0 (20140413.2041)
 -->
<!-- Title: DBConstraint Pages: 1 -->
<!--zoomable 185 -->
<svg id="main" version="1.1" xmlns="http://www.w3.org/2000/svg" xmlns:xlink="http://www.w3.org/1999/xlink" xml:space="preserve" onload="init(evt)">
<style type="text/css"><![CDATA[
.edge:hover path { stroke: red; }
.edge:hover polygon { stroke: red; fill: red; }
]]></style>
<script type="text/javascript"><![CDATA[
var edges = document.getElementsByTagName('g');
if (edges && edges.length) {
  for (var i=0;i<edges.length;i++) {
    if (edges[i].id.substr(0,4)=='edge') {
      edges[i].setAttribute('class','edge');
    }
  }
}
]]></script>
        <defs>
                <circle id="rim" cx="0" cy="0" r="7"/>
                <circle id="rim2" cx="0" cy="0" r="3.5"/>
                <g id="zoomPlus">
                        <use xlink:href="#rim" fill="#404040">
                                <set attributeName="fill" to="#808080" begin="zoomplus.mouseover" end="zoomplus.mouseout"/>
                        </use>
                        <path d="M-4,0h8M0,-4v8" fill="none" stroke="white" stroke-width="1.5" pointer-events="none"/>
                </g>
                <g id="zoomMin">
                        <use xlink:href="#rim" fill="#404040">
                                <set attributeName="fill" to="#808080" begin="zoomminus.mouseover" end="zoomminus.mouseout"/>
                        </use>
                        <path d="M-4,0h8" fill="none" stroke="white" stroke-width="1.5" pointer-events="none"/>
                </g>
                <g id="dirArrow">
                        <path fill="none" stroke="white" stroke-width="1.5" d="M0,-3.0v7 M-2.5,-0.5L0,-3.0L2.5,-0.5"/>
                </g>
               <g id="resetDef">
                       <use xlink:href="#rim2" fill="#404040">
                               <set attributeName="fill" to="#808080" begin="reset.mouseover" end="reset.mouseout"/>
                       </use>
               </g>
        </defs>

<script type="text/javascript">
var viewWidth = 517;
var viewHeight = 185;
var sectionId = 'dynsection-0';
</script>
<script xlink:href="svgpan.js"/>
<svg id="graph" class="graph">
<g id="viewport">
<title>DBConstraint</title>
<!-- Node1 -->
<g id="node1" class="node"><title>Node1</title>
<polygon fill="#bfbfbf" stroke="black" points="269.51,-78.5 269.51,-98.4299 345.7,-98.4299 345.7,-78.5 269.51,-78.5"/>
<text text-anchor="middle" x="307.605" y="-86.4299" font-family="Helvetica Neue" font-size="10.00">DBConstraint</text>
</g>
<!-- Node6 -->
<g id="node6" class="node"><title>Node6</title>
<g id="a_node6"><a xlink:href="interface_d_b_default_constraint.html" target="_top" xlink:title="DBDefaultConstraint">
<polygon fill="none" stroke="black" points="391.515,-156.5 391.515,-176.43 499.375,-176.43 499.375,-156.5 391.515,-156.5"/>
<text text-anchor="middle" x="445.445" y="-164.43" font-family="Helvetica Neue" font-size="10.00">DBDefaultConstraint</text>
</a>
</g>
</g>
<!-- Node1&#45;&gt;Node6 -->
<g id="edge5" class="edge"><title>Node1&#45;&gt;Node6</title>
<path fill="none" stroke="midnightblue" d="M326.578,-105.814C340.622,-118.565 361.145,-135.51 381.7,-146.465 389.066,-150.39 397.332,-153.703 405.388,-156.434"/>
<polygon fill="midnightblue" stroke="midnightblue" points="328.815,-103.114 319.108,-98.8679 324.048,-108.24 328.815,-103.114"/>
</g>
<!-- Node7 -->
<g id="node7" class="node"><title>Node7</title>
<g id="a_node7"><a xlink:href="interface_d_b_foreign_key_constraint.html" target="_top" xlink:title="DBForeignKeyConstraint">
<polygon fill="none" stroke="black" points="382.07,-117.5 382.07,-137.43 508.82,-137.43 508.82,-117.5 382.07,-117.5"/>
<text text-anchor="middle" x="445.445" y="-125.43" font-family="Helvetica Neue" font-size="10.00">DBForeignKeyConstraint</text>
</a>
</g>
</g>
<!-- Node1&#45;&gt;Node7 -->
<g id="edge6" class="edge"><title>Node1&#45;&gt;Node7</title>
<path fill="none" stroke="midnightblue" d="M353.433,-101.335C371.695,-106.578 392.486,-112.547 409.581,-117.456"/>
<polygon fill="midnightblue" stroke="midnightblue" points="354.165,-97.904 343.587,-98.5084 352.233,-104.632 354.165,-97.904"/>
</g>
<!-- Node8 -->
<g id="node8" class="node"><title>Node8</title>
<g id="a_node8"><a xlink:href="interface_d_b_not_null_constraint.html" target="_top" xlink:title="DBNotNullConstraint">
<polygon fill="none" stroke="black" points="390.685,-78.5 390.685,-98.4299 500.205,-98.4299 500.205,-78.5 390.685,-78.5"/>
<text text-anchor="middle" x="445.445" y="-86.4299" font-family="Helvetica Neue" font-size="10.00">DBNotNullConstraint</text>
</a>
</g>
</g>
<!-- Node1&#45;&gt;Node8 -->
<g id="edge7" class="edge"><title>Node1&#45;&gt;Node8</title>
<path fill="none" stroke="midnightblue" d="M355.761,-88.465C366.99,-88.465 379.057,-88.465 390.562,-88.465"/>
<polygon fill="midnightblue" stroke="midnightblue" points="355.724,-84.9651 345.724,-88.465 355.724,-91.9651 355.724,-84.9651"/>
</g>
<!-- Node9 -->
<g id="node9" class="node"><title>Node9</title>
<g id="a_node9"><a xlink:href="interface_d_b_primary_key_constraint.html" target="_top" xlink:title="DBPrimaryKeyConstraint">
<polygon fill="none" stroke="black" points="381.7,-39.5 381.7,-59.4299 509.19,-59.4299 509.19,-39.5 381.7,-39.5"/>
<text text-anchor="middle" x="445.445" y="-47.4299" font-family="Helvetica Neue" font-size="10.00">DBPrimaryKeyConstraint</text>
</a>
</g>
</g>
<!-- Node1&#45;&gt;Node9 -->
<g id="edge8" class="edge"><title>Node1&#45;&gt;Node9</title>
<path fill="none" stroke="midnightblue" d="M353.433,-75.5947C371.695,-70.3515 392.486,-64.3825 409.581,-59.4744"/>
<polygon fill="midnightblue" stroke="midnightblue" points="352.233,-72.2978 343.587,-78.4215 354.165,-79.026 352.233,-72.2978"/>
</g>
<!-- Node10 -->
<g id="node10" class="node"><title>Node10</title>
<g id="a_node10"><a xlink:href="interface_d_b_unique_constraint.html" target="_top" xlink:title="DBUniqueConstraint">
<polygon fill="none" stroke="black" points="391.42,-0.5 391.42,-20.4299 499.47,-20.4299 499.47,-0.5 391.42,-0.5"/>
<text text-anchor="middle" x="445.445" y="-8.42993" font-family="Helvetica Neue" font-size="10.00">DBUniqueConstraint</text>
</a>
</g>
</g>
<!-- Node1&#45;&gt;Node10 -->
<g id="edge9" class="edge"><title>Node1&#45;&gt;Node10</title>
<path fill="none" stroke="midnightblue" d="M326.578,-71.1161C340.622,-58.3652 361.145,-41.42 381.7,-30.465 389.066,-26.5395 397.332,-23.2265 405.388,-20.4958"/>
<polygon fill="midnightblue" stroke="midnightblue" points="324.048,-68.6896 319.108,-78.062 328.815,-73.8162 324.048,-68.6896"/>
</g>
<!-- Node2 -->
<g id="node2" class="node"><title>Node2</title>
<polygon fill="none" stroke="#bfbfbf" points="140.755,-117.5 140.755,-137.43 200.095,-137.43 200.095,-117.5 140.755,-117.5"/>
<text text-anchor="middle" x="170.425" y="-125.43" font-family="Helvetica Neue" font-size="10.00">NSObject</text>
</g>
<!-- Node2&#45;&gt;Node1 -->
<g id="edge1" class="edge"><title>Node2&#45;&gt;Node1</title>
<path fill="none" stroke="midnightblue" d="M210.199,-116.279C229.659,-110.664 253.041,-103.918 271.904,-98.4764"/>
<polygon fill="midnightblue" stroke="midnightblue" points="209.062,-112.964 200.425,-119.098 211.003,-119.689 209.062,-112.964"/>
</g>
<!-- Node3 -->
<g id="node3" class="node"><title>Node3</title>
<g id="a_node3"><a xlink:href="protocol_d_b_s_q_l_representable-p.html" target="_top" xlink:title="\&lt;DBSQLRepresentable\&gt;">
<polygon fill="none" stroke="black" points="107.34,-78.5 107.34,-98.4299 233.51,-98.4299 233.51,-78.5 107.34,-78.5"/>
<text text-anchor="middle" x="170.425" y="-86.4299" font-family="Helvetica Neue" font-size="10.00">&lt;DBSQLRepresentable&gt;</text>
</a>
</g>
</g>
<!-- Node3&#45;&gt;Node1 -->
<g id="edge2" class="edge"><title>Node3&#45;&gt;Node1</title>
<path fill="none" stroke="midnightblue" d="M243.876,-88.465C252.725,-88.465 261.462,-88.465 269.476,-88.465"/>
<polygon fill="midnightblue" stroke="midnightblue" points="243.871,-84.9651 233.871,-88.465 243.871,-91.9651 243.871,-84.9651"/>
</g>
<!-- Node4 -->
<g id="node4" class="node"><title>Node4</title>
<polygon fill="none" stroke="#bfbfbf" points="1.42109e-14,-78.5 1.42109e-14,-98.4299 71.34,-98.4299 71.34,-78.5 1.42109e-14,-78.5"/>
<text text-anchor="middle" x="35.67" y="-86.4299" font-family="Helvetica Neue" font-size="10.00">&lt;NSObject&gt;</text>
</g>
<!-- Node4&#45;&gt;Node3 -->
<g id="edge3" class="edge"><title>Node4&#45;&gt;Node3</title>
<path fill="none" stroke="midnightblue" d="M81.6857,-88.465C89.9306,-88.465 98.6676,-88.465 107.308,-88.465"/>
<polygon fill="midnightblue" stroke="midnightblue" points="81.5498,-84.9651 71.5498,-88.465 81.5498,-91.9651 81.5498,-84.9651"/>
</g>
<!-- Node5 -->
<g id="node5" class="node"><title>Node5</title>
<polygon fill="none" stroke="#bfbfbf" points="133.37,-39.5 133.37,-59.4299 207.48,-59.4299 207.48,-39.5 133.37,-39.5"/>
<text text-anchor="middle" x="170.425" y="-47.4299" font-family="Helvetica Neue" font-size="10.00">&lt;NSCoding&gt;</text>
</g>
<!-- Node5&#45;&gt;Node1 -->
<g id="edge4" class="edge"><title>Node5&#45;&gt;Node1</title>
<path fill="none" stroke="midnightblue" d="M216.035,-62.3353C234.209,-67.5784 254.898,-73.5474 271.911,-78.4555"/>
<polygon fill="midnightblue" stroke="midnightblue" points="216.816,-58.9176 206.237,-59.5084 214.875,-65.6433 216.816,-58.9176"/>
</g>
</g>
</svg>
        <g id="navigator" transform="translate(0 0)" fill="#404254">
                <rect fill="#f2f5e9" fill-opacity="0.5" stroke="#606060" stroke-width=".5" x="0" y="0" width="60" height="60"/>
                <use id="zoomplus" xlink:href="#zoomPlus" x="17" y="9" onmousedown="handleZoom(evt,'in')"/>
                <use id="zoomminus" xlink:href="#zoomMin" x="42" y="9" onmousedown="handleZoom(evt,'out')"/>
                <use id="reset" xlink:href="#resetDef" x="30" y="36" onmousedown="handleReset()"/>
                <g id="arrowUp" xlink:href="#dirArrow" transform="translate(30 24)" onmousedown="handlePan(0,-1)">
                  <use xlink:href="#rim" fill="#404040">
                        <set attributeName="fill" to="#808080" begin="arrowUp.mouseover" end="arrowUp.mouseout"/>
                  </use>
                  <path fill="none" stroke="white" stroke-width="1.5" d="M0,-3.0v7 M-2.5,-0.5L0,-3.0L2.5,-0.5"/>
                </g>
                <g id="arrowRight" xlink:href="#dirArrow" transform="rotate(90) translate(36 -43)" onmousedown="handlePan(1,0)">
                  <use xlink:href="#rim" fill="#404040">
                        <set attributeName="fill" to="#808080" begin="arrowRight.mouseover" end="arrowRight.mouseout"/>
                  </use>
                  <path fill="none" stroke="white" stroke-width="1.5" d="M0,-3.0v7 M-2.5,-0.5L0,-3.0L2.5,-0.5"/>
                </g>
                <g id="arrowDown" xlink:href="#dirArrow" transform="rotate(180) translate(-30 -48)" onmousedown="handlePan(0,1)">
                  <use xlink:href="#rim" fill="#404040">
                        <set attributeName="fill" to="#808080" begin="arrowDown.mouseover" end="arrowDown.mouseout"/>
                  </use>
                  <path fill="none" stroke="white" stroke-width="1.5" d="M0,-3.0v7 M-2.5,-0.5L0,-3.0L2.5,-0.5"/>
                </g>
                <g id="arrowLeft" xlink:href="#dirArrow" transform="rotate(270) translate(-36 17)" onmousedown="handlePan(-1,0)">
                  <use xlink:href="#rim" fill="#404040">
                        <set attributeName="fill" to="#808080" begin="arrowLeft.mouseover" end="arrowLeft.mouseout"/>
                  </use>
                  <path fill="none" stroke="white" stroke-width="1.5" d="M0,-3.0v7 M-2.5,-0.5L0,-3.0L2.5,-0.5"/>
                </g>
        </g>
        <svg viewBox="0 0 15 15" width="100%" height="30px" preserveAspectRatio="xMaxYMin meet">
         <g id="arrow_out" transform="scale(0.3 0.3)">
          <a xlink:href="interface_d_b_constraint__inherit__graph_org.svg" target="_base">
           <rect id="button" ry="5" rx="5" y="6" x="6" height="38" width="38"
                fill="#f2f5e9" fill-opacity="0.5" stroke="#606060" stroke-width="1.0"/>
           <path id="arrow"
             d="M 11.500037,31.436501 C 11.940474,20.09759 22.043105,11.32322 32.158766,21.979434 L 37.068811,17.246167 C 37.068811,17.246167 37.088388,32 37.088388,32 L 22.160133,31.978069 C 22.160133,31.978069 26.997745,27.140456 26.997745,27.140456 C 18.528582,18.264221 13.291696,25.230495 11.500037,31.436501 z"
             style="fill:#404040;"/>
          </a>
         </g>
        </svg>
</svg>
