<?xml version="1.0" encoding="UTF-8" standalone="no"?>
<!DOCTYPE svg PUBLIC "-//W3C//DTD SVG 1.1//EN"
 "http://www.w3.org/Graphics/SVG/1.1/DTD/svg11.dtd">
<!-- Generated by graphviz version 2.38.0 (20140413.2041)
 -->
<!-- Title: DBSelectQuery Pages: 1 -->
<svg width="494pt" height="200pt"
 viewBox="0.00 0.00 494.40 199.72" xmlns="http://www.w3.org/2000/svg" xmlns:xlink="http://www.w3.org/1999/xlink">
<g id="graph0" class="graph" transform="scale(1 1) rotate(0) translate(4 195.72)">
<title>DBSelectQuery</title>
<!-- Node1 -->
<g id="node1" class="node"><title>Node1</title>
<polygon fill="#bfbfbf" stroke="black" points="193.315,-0.5 193.315,-20.4299 278.025,-20.4299 278.025,-0.5 193.315,-0.5"/>
<text text-anchor="middle" x="235.67" y="-8.42993" font-family="Helvetica Neue" font-size="10.00">DBSelectQuery</text>
</g>
<!-- Node2 -->
<g id="node2" class="node"><title>Node2</title>
<g id="a_node2"><a xlink:href="interface_d_b_read_query.html" target="_top" xlink:title="DBReadQuery">
<polygon fill="none" stroke="black" points="32.535,-57.4299 32.535,-77.3599 112.805,-77.3599 112.805,-57.4299 32.535,-57.4299"/>
<text text-anchor="middle" x="72.67" y="-65.3599" font-family="Helvetica Neue" font-size="10.00">DBReadQuery</text>
</a>
</g>
</g>
<!-- Node2&#45;&gt;Node1 -->
<g id="edge1" class="edge"><title>Node2&#45;&gt;Node1</title>
<path fill="none" stroke="midnightblue" d="M109.353,-54.0331C139.62,-43.8333 181.855,-29.6003 208.985,-20.4577"/>
<polygon fill="midnightblue" stroke="midnightblue" points="107.945,-50.8141 99.5861,-57.3243 110.18,-57.4475 107.945,-50.8141"/>
</g>
<!-- Node3 -->
<g id="node3" class="node"><title>Node3</title>
<g id="a_node3"><a xlink:href="interface_d_b_query.html" target="_top" xlink:title="DBQuery">
<polygon fill="none" stroke="black" points="44.295,-114.36 44.295,-134.29 101.045,-134.29 101.045,-114.36 44.295,-114.36"/>
<text text-anchor="middle" x="72.67" y="-122.29" font-family="Helvetica Neue" font-size="10.00">DBQuery</text>
</a>
</g>
</g>
<!-- Node3&#45;&gt;Node2 -->
<g id="edge2" class="edge"><title>Node3&#45;&gt;Node2</title>
<path fill="none" stroke="midnightblue" d="M72.67,-104.232C72.67,-95.2345 72.67,-84.9112 72.67,-77.6625"/>
<polygon fill="midnightblue" stroke="midnightblue" points="69.1701,-104.254 72.67,-114.254 76.1701,-104.254 69.1701,-104.254"/>
</g>
<!-- Node4 -->
<g id="node4" class="node"><title>Node4</title>
<polygon fill="none" stroke="#bfbfbf" points="1.77636e-14,-171.29 1.77636e-14,-191.22 59.34,-191.22 59.34,-171.29 1.77636e-14,-171.29"/>
<text text-anchor="middle" x="29.67" y="-179.22" font-family="Helvetica Neue" font-size="10.00">NSObject</text>
</g>
<!-- Node4&#45;&gt;Node3 -->
<g id="edge3" class="edge"><title>Node4&#45;&gt;Node3</title>
<path fill="none" stroke="midnightblue" d="M43.0105,-163.213C50.402,-153.771 59.3043,-142.399 65.4152,-134.592"/>
<polygon fill="midnightblue" stroke="midnightblue" points="40.1787,-161.152 36.7706,-171.184 45.6907,-165.467 40.1787,-161.152"/>
</g>
<!-- Node5 -->
<g id="node5" class="node"><title>Node5</title>
<polygon fill="none" stroke="#bfbfbf" points="77.115,-171.29 77.115,-191.22 156.225,-191.22 156.225,-171.29 77.115,-171.29"/>
<text text-anchor="middle" x="116.67" y="-179.22" font-family="Helvetica Neue" font-size="10.00">&lt;NSCopying&gt;</text>
</g>
<!-- Node5&#45;&gt;Node3 -->
<g id="edge4" class="edge"><title>Node5&#45;&gt;Node3</title>
<path fill="none" stroke="midnightblue" d="M103.019,-163.213C95.4558,-153.771 86.3465,-142.399 80.0936,-134.592"/>
<polygon fill="midnightblue" stroke="midnightblue" points="100.421,-165.568 109.404,-171.184 105.884,-161.191 100.421,-165.568"/>
</g>
<!-- Node6 -->
<g id="node6" class="node"><title>Node6</title>
<g id="a_node6"><a xlink:href="protocol_d_b_table_query-p.html" target="_top" xlink:title="\&lt;DBTableQuery\&gt;">
<polygon fill="none" stroke="black" points="130.535,-57.4299 130.535,-77.3599 222.805,-77.3599 222.805,-57.4299 130.535,-57.4299"/>
<text text-anchor="middle" x="176.67" y="-65.3599" font-family="Helvetica Neue" font-size="10.00">&lt;DBTableQuery&gt;</text>
</a>
</g>
</g>
<!-- Node6&#45;&gt;Node1 -->
<g id="edge5" class="edge"><title>Node6&#45;&gt;Node1</title>
<path fill="none" stroke="midnightblue" d="M193.743,-50.4993C204.113,-40.8452 216.989,-28.8575 225.716,-20.7326"/>
<polygon fill="midnightblue" stroke="midnightblue" points="191.347,-47.9485 186.413,-57.3243 196.117,-53.0719 191.347,-47.9485"/>
</g>
<!-- Node7 -->
<g id="node7" class="node"><title>Node7</title>
<polygon fill="none" stroke="#bfbfbf" points="141,-114.36 141,-134.29 212.34,-134.29 212.34,-114.36 141,-114.36"/>
<text text-anchor="middle" x="176.67" y="-122.29" font-family="Helvetica Neue" font-size="10.00">&lt;NSObject&gt;</text>
</g>
<!-- Node7&#45;&gt;Node6 -->
<g id="edge6" class="edge"><title>Node7&#45;&gt;Node6</title>
<path fill="none" stroke="midnightblue" d="M176.67,-104.232C176.67,-95.2345 176.67,-84.9112 176.67,-77.6625"/>
<polygon fill="midnightblue" stroke="midnightblue" points="173.17,-104.254 176.67,-114.254 180.17,-104.254 173.17,-104.254"/>
</g>
<!-- Node8 -->
<g id="node8" class="node"><title>Node8</title>
<g id="a_node8"><a xlink:href="protocol_d_b_filterable_query-p.html" target="_top" xlink:title="\&lt;DBFilterableQuery\&gt;">
<polygon fill="none" stroke="black" points="240.835,-57.4299 240.835,-77.3599 350.505,-77.3599 350.505,-57.4299 240.835,-57.4299"/>
<text text-anchor="middle" x="295.67" y="-65.3599" font-family="Helvetica Neue" font-size="10.00">&lt;DBFilterableQuery&gt;</text>
</a>
</g>
</g>
<!-- Node8&#45;&gt;Node1 -->
<g id="edge7" class="edge"><title>Node8&#45;&gt;Node1</title>
<path fill="none" stroke="midnightblue" d="M278.307,-50.4993C267.762,-40.8452 254.668,-28.8575 245.793,-20.7326"/>
<polygon fill="midnightblue" stroke="midnightblue" points="276.023,-53.1533 285.762,-57.3243 280.75,-47.9902 276.023,-53.1533"/>
</g>
<!-- Node9 -->
<g id="node9" class="node"><title>Node9</title>
<polygon fill="none" stroke="#bfbfbf" points="368.94,-57.4299 368.94,-77.3599 486.4,-77.3599 486.4,-57.4299 368.94,-57.4299"/>
<text text-anchor="middle" x="427.67" y="-65.3599" font-family="Helvetica Neue" font-size="10.00">&lt;NSFastEnumeration&gt;</text>
</g>
<!-- Node9&#45;&gt;Node1 -->
<g id="edge8" class="edge"><title>Node9&#45;&gt;Node1</title>
<path fill="none" stroke="midnightblue" d="M386.308,-54.5615C350.545,-44.3299 299.615,-29.7593 267.103,-20.4577"/>
<polygon fill="midnightblue" stroke="midnightblue" points="385.388,-57.9387 395.965,-57.3243 387.314,-51.2087 385.388,-57.9387"/>
</g>
</g>
</svg>
