<?xml version="1.0" encoding="UTF-8" standalone="no"?>
<!DOCTYPE svg PUBLIC "-//W3C//DTD SVG 1.1//EN"
 "http://www.w3.org/Graphics/SVG/1.1/DTD/svg11.dtd">
<!-- Generated by graphviz version 2.38.0 (20140413.2041)
 -->
<!-- Title: DBPostgresConnection Pages: 1 -->
<svg width="129pt" height="143pt"
 viewBox="0.00 0.00 129.01 142.79" xmlns="http://www.w3.org/2000/svg" xmlns:xlink="http://www.w3.org/1999/xlink">
<g id="graph0" class="graph" transform="scale(1 1) rotate(0) translate(4 138.79)">
<title>DBPostgresConnection</title>
<!-- Node1 -->
<g id="node1" class="node"><title>Node1</title>
<polygon fill="#bfbfbf" stroke="black" points="0,-0.5 0,-20.4299 121.01,-20.4299 121.01,-0.5 0,-0.5"/>
<text text-anchor="middle" x="60.505" y="-8.42993" font-family="Helvetica Neue" font-size="10.00">DBPostgresConnection</text>
</g>
<!-- Node2 -->
<g id="node2" class="node"><title>Node2</title>
<g id="a_node2"><a xlink:href="interface_d_b_connection.html" target="_top" xlink:title="DBConnection">
<polygon fill="none" stroke="black" points="19.815,-57.4299 19.815,-77.3599 101.195,-77.3599 101.195,-57.4299 19.815,-57.4299"/>
<text text-anchor="middle" x="60.505" y="-65.3599" font-family="Helvetica Neue" font-size="10.00">DBConnection</text>
</a>
</g>
</g>
<!-- Node2&#45;&gt;Node1 -->
<g id="edge1" class="edge"><title>Node2&#45;&gt;Node1</title>
<path fill="none" stroke="midnightblue" d="M60.505,-47.3023C60.505,-38.3046 60.505,-27.9812 60.505,-20.7326"/>
<polygon fill="midnightblue" stroke="midnightblue" points="57.0051,-47.3243 60.505,-57.3243 64.0051,-47.3244 57.0051,-47.3243"/>
</g>
<!-- Node3 -->
<g id="node3" class="node"><title>Node3</title>
<polygon fill="none" stroke="#bfbfbf" points="30.835,-114.36 30.835,-134.29 90.175,-134.29 90.175,-114.36 30.835,-114.36"/>
<text text-anchor="middle" x="60.505" y="-122.29" font-family="Helvetica Neue" font-size="10.00">NSObject</text>
</g>
<!-- Node3&#45;&gt;Node2 -->
<g id="edge2" class="edge"><title>Node3&#45;&gt;Node2</title>
<path fill="none" stroke="midnightblue" d="M60.505,-104.232C60.505,-95.2345 60.505,-84.9112 60.505,-77.6625"/>
<polygon fill="midnightblue" stroke="midnightblue" points="57.0051,-104.254 60.505,-114.254 64.0051,-104.254 57.0051,-104.254"/>
</g>
</g>
</svg>
