<?xml version="1.0" encoding="UTF-8" standalone="no"?>
<!DOCTYPE svg PUBLIC "-//W3C//DTD SVG 1.1//EN"
 "http://www.w3.org/Graphics/SVG/1.1/DTD/svg11.dtd">
<!-- Generated by graphviz version 2.38.0 (20140413.2041)
 -->
<!-- Title: DBIndex Pages: 1 -->
<svg width="160pt" height="86pt"
 viewBox="0.00 0.00 159.73 85.86" xmlns="http://www.w3.org/2000/svg" xmlns:xlink="http://www.w3.org/1999/xlink">
<g id="graph0" class="graph" transform="scale(1 1) rotate(0) translate(4 81.8599)">
<title>DBIndex</title>
<!-- Node1 -->
<g id="node1" class="node"><title>Node1</title>
<polygon fill="#bfbfbf" stroke="black" points="44.41,-0.5 44.41,-20.4299 98.93,-20.4299 98.93,-0.5 44.41,-0.5"/>
<text text-anchor="middle" x="71.67" y="-8.42993" font-family="Helvetica Neue" font-size="10.00">DBIndex</text>
</g>
<!-- Node2 -->
<g id="node2" class="node"><title>Node2</title>
<polygon fill="none" stroke="#bfbfbf" points="3.55271e-15,-57.4299 3.55271e-15,-77.3599 59.34,-77.3599 59.34,-57.4299 3.55271e-15,-57.4299"/>
<text text-anchor="middle" x="29.67" y="-65.3599" font-family="Helvetica Neue" font-size="10.00">NSObject</text>
</g>
<!-- Node2&#45;&gt;Node1 -->
<g id="edge1" class="edge"><title>Node2&#45;&gt;Node1</title>
<path fill="none" stroke="midnightblue" d="M42.7003,-49.3532C49.9199,-39.911 58.6151,-28.5388 64.5839,-20.7326"/>
<polygon fill="midnightblue" stroke="midnightblue" points="39.8991,-47.2545 36.6054,-57.3243 45.4599,-51.5063 39.8991,-47.2545"/>
</g>
<!-- Node3 -->
<g id="node3" class="node"><title>Node3</title>
<polygon fill="none" stroke="#bfbfbf" points="77.615,-57.4299 77.615,-77.3599 151.725,-77.3599 151.725,-57.4299 77.615,-57.4299"/>
<text text-anchor="middle" x="114.67" y="-65.3599" font-family="Helvetica Neue" font-size="10.00">&lt;NSCoding&gt;</text>
</g>
<!-- Node3&#45;&gt;Node1 -->
<g id="edge2" class="edge"><title>Node3&#45;&gt;Node1</title>
<path fill="none" stroke="midnightblue" d="M101.329,-49.3532C93.938,-39.911 85.0357,-28.5388 78.9248,-20.7326"/>
<polygon fill="midnightblue" stroke="midnightblue" points="98.6493,-51.6075 107.569,-57.3243 104.161,-47.2926 98.6493,-51.6075"/>
</g>
</g>
</svg>
