<?xml version="1.0" encoding="UTF-8" standalone="no"?>
<!DOCTYPE svg PUBLIC "-//W3C//DTD SVG 1.1//EN"
 "http://www.w3.org/Graphics/SVG/1.1/DTD/svg11.dtd">
<!-- Generated by graphviz version 2.38.0 (20140413.2041)
 -->
<!-- Title: DBAs Pages: 1 -->
<svg width="212pt" height="143pt"
 viewBox="0.00 0.00 211.75 142.79" xmlns="http://www.w3.org/2000/svg" xmlns:xlink="http://www.w3.org/1999/xlink">
<g id="graph0" class="graph" transform="scale(1 1) rotate(0) translate(4 138.79)">
<title>DBAs</title>
<!-- Node1 -->
<g id="node1" class="node"><title>Node1</title>
<polygon fill="#bfbfbf" stroke="black" points="63.985,-0.5 63.985,-20.4299 105.355,-20.4299 105.355,-0.5 63.985,-0.5"/>
<text text-anchor="middle" x="84.67" y="-8.42993" font-family="Helvetica Neue" font-size="10.00">DBAs</text>
</g>
<!-- Node2 -->
<g id="node2" class="node"><title>Node2</title>
<polygon fill="none" stroke="#bfbfbf" points="0,-57.4299 0,-77.3599 59.34,-77.3599 59.34,-57.4299 0,-57.4299"/>
<text text-anchor="middle" x="29.67" y="-65.3599" font-family="Helvetica Neue" font-size="10.00">NSObject</text>
</g>
<!-- Node2&#45;&gt;Node1 -->
<g id="edge1" class="edge"><title>Node2&#45;&gt;Node1</title>
<path fill="none" stroke="midnightblue" d="M45.8708,-50.2147C55.4872,-40.6106 67.3351,-28.7778 75.3905,-20.7326"/>
<polygon fill="midnightblue" stroke="midnightblue" points="43.3544,-47.7813 38.7521,-57.3243 48.301,-52.7342 43.3544,-47.7813"/>
</g>
<!-- Node3 -->
<g id="node3" class="node"><title>Node3</title>
<g id="a_node3"><a xlink:href="protocol_d_b_s_q_l_representable-p.html" target="_top" xlink:title="\&lt;DBSQLRepresentable\&gt;">
<polygon fill="none" stroke="black" points="77.585,-57.4299 77.585,-77.3599 203.755,-77.3599 203.755,-57.4299 77.585,-57.4299"/>
<text text-anchor="middle" x="140.67" y="-65.3599" font-family="Helvetica Neue" font-size="10.00">&lt;DBSQLRepresentable&gt;</text>
</a>
</g>
</g>
<!-- Node3&#45;&gt;Node1 -->
<g id="edge2" class="edge"><title>Node3&#45;&gt;Node1</title>
<path fill="none" stroke="midnightblue" d="M124.175,-50.2147C114.383,-40.6106 102.32,-28.7778 94.1182,-20.7326"/>
<polygon fill="midnightblue" stroke="midnightblue" points="121.833,-52.8204 131.423,-57.3243 126.735,-47.8231 121.833,-52.8204"/>
</g>
<!-- Node4 -->
<g id="node4" class="node"><title>Node4</title>
<polygon fill="none" stroke="#bfbfbf" points="105,-114.36 105,-134.29 176.34,-134.29 176.34,-114.36 105,-114.36"/>
<text text-anchor="middle" x="140.67" y="-122.29" font-family="Helvetica Neue" font-size="10.00">&lt;NSObject&gt;</text>
</g>
<!-- Node4&#45;&gt;Node3 -->
<g id="edge3" class="edge"><title>Node4&#45;&gt;Node3</title>
<path fill="none" stroke="midnightblue" d="M140.67,-104.232C140.67,-95.2345 140.67,-84.9112 140.67,-77.6625"/>
<polygon fill="midnightblue" stroke="midnightblue" points="137.17,-104.254 140.67,-114.254 144.17,-104.254 137.17,-104.254"/>
</g>
</g>
</svg>
