<?xml version="1.0" encoding="UTF-8" standalone="no"?>
<!DOCTYPE svg PUBLIC "-//W3C//DTD SVG 1.1//EN"
 "http://www.w3.org/Graphics/SVG/1.1/DTD/svg11.dtd">
<!-- Generated by graphviz version 2.38.0 (20140413.2041)
 -->
<!-- Title: DBDropTableQuery Pages: 1 -->
<svg width="243pt" height="351pt"
 viewBox="0.00 0.00 243.11 351.37" xmlns="http://www.w3.org/2000/svg" xmlns:xlink="http://www.w3.org/1999/xlink">
<g id="graph0" class="graph" transform="scale(1 1) rotate(0) translate(4 347.369)">
<title>DBDropTableQuery</title>
<!-- Node1 -->
<g id="node1" class="node"><title>Node1</title>
<polygon fill="#bfbfbf" stroke="black" points="56.3416,-0.5 56.3416,-20.4299 158.472,-20.4299 158.472,-0.5 56.3416,-0.5"/>
<text text-anchor="middle" x="107.407" y="-8.42993" font-family="Helvetica Neue" font-size="10.00">DBDropTableQuery</text>
</g>
<!-- Node2 -->
<g id="node2" class="node"><title>Node2</title>
<g id="a_node2"><a xlink:href="interface_d_b_write_query.html" target="_top" xlink:title="DBWriteQuery">
<polygon fill="none" stroke="black" points="6.45658,-58.4299 6.45658,-78.3599 86.3566,-78.3599 86.3566,-58.4299 6.45658,-58.4299"/>
<text text-anchor="middle" x="46.4066" y="-66.3599" font-family="Helvetica Neue" font-size="10.00">DBWriteQuery</text>
</a>
</g>
</g>
<!-- Node2&#45;&gt;Node1 -->
<g id="edge1" class="edge"><title>Node2&#45;&gt;Node1</title>
<path fill="none" stroke="midnightblue" d="M63.8738,-51.3795C74.7504,-41.4069 88.3504,-28.9372 97.4275,-20.6146"/>
<polygon fill="midnightblue" stroke="midnightblue" points="61.2127,-49.0709 56.2073,-58.4088 65.9434,-54.2304 61.2127,-49.0709"/>
</g>
<!-- Node3 -->
<g id="node3" class="node"><title>Node3</title>
<g id="a_node3"><a xlink:href="interface_d_b_query.html" target="_top" xlink:title="DBQuery">
<polygon fill="none" stroke="black" points="18.0316,-127.29 18.0316,-147.22 74.7816,-147.22 74.7816,-127.29 18.0316,-127.29"/>
<text text-anchor="middle" x="46.4066" y="-135.22" font-family="Helvetica Neue" font-size="10.00">DBQuery</text>
</a>
</g>
</g>
<!-- Node3&#45;&gt;Node2 -->
<g id="edge2" class="edge"><title>Node3&#45;&gt;Node2</title>
<path fill="none" stroke="midnightblue" d="M46.4066,-116.879C46.4066,-104.322 46.4066,-88.5305 46.4066,-78.6981"/>
<polygon fill="midnightblue" stroke="midnightblue" points="42.9067,-117.238 46.4066,-127.238 49.9067,-117.238 42.9067,-117.238"/>
</g>
<!-- Node4 -->
<g id="node4" class="node"><title>Node4</title>
<polygon fill="none" stroke="#bfbfbf" points="62.7366,-322.939 62.7366,-342.869 122.077,-342.869 122.077,-322.939 62.7366,-322.939"/>
<text text-anchor="middle" x="92.4066" y="-330.869" font-family="Helvetica Neue" font-size="10.00">NSObject</text>
</g>
<!-- Node4&#45;&gt;Node3 -->
<g id="edge3" class="edge"><title>Node4&#45;&gt;Node3</title>
<path fill="none" stroke="midnightblue" d="M73.9545,-315.837C52.0014,-295.367 16.5457,-257.679 2.40658,-216.58 -6.8277,-189.737 19.307,-161.474 35.1878,-147.376"/>
<polygon fill="midnightblue" stroke="midnightblue" points="71.8784,-318.679 81.6346,-322.81 76.584,-313.497 71.8784,-318.679"/>
</g>
<!-- Node6 -->
<g id="node6" class="node"><title>Node6</title>
<g id="a_node6"><a xlink:href="interface_d_b.html" target="_top" xlink:title="DB">
<polygon fill="none" stroke="black" points="117.462,-196.15 117.462,-216.08 147.352,-216.08 147.352,-196.15 117.462,-196.15"/>
<text text-anchor="middle" x="132.407" y="-204.08" font-family="Helvetica Neue" font-size="10.00">DB</text>
</a>
</g>
</g>
<!-- Node4&#45;&gt;Node6 -->
<g id="edge6" class="edge"><title>Node4&#45;&gt;Node6</title>
<path fill="none" stroke="midnightblue" d="M87.5545,-313.099C84.8764,-299.292 83.0589,-280.275 88.4066,-264.51 95.1017,-244.772 111.615,-226.499 122.398,-216.09"/>
<polygon fill="midnightblue" stroke="midnightblue" points="84.1495,-313.911 89.7663,-322.894 90.9776,-312.369 84.1495,-313.911"/>
</g>
<!-- Node7 -->
<g id="node7" class="node"><title>Node7</title>
<g id="a_node7"><a xlink:href="interface_d_b_connection.html" target="_top" xlink:title="DBConnection">
<polygon fill="none" stroke="black" points="97.7166,-265.01 97.7166,-284.939 179.097,-284.939 179.097,-265.01 97.7166,-265.01"/>
<text text-anchor="middle" x="138.407" y="-272.939" font-family="Helvetica Neue" font-size="10.00">DBConnection</text>
</a>
</g>
</g>
<!-- Node4&#45;&gt;Node7 -->
<g id="edge8" class="edge"><title>Node4&#45;&gt;Node7</title>
<path fill="none" stroke="midnightblue" d="M106.307,-315.003C114.381,-305.186 124.238,-293.202 130.881,-285.124"/>
<polygon fill="midnightblue" stroke="midnightblue" points="103.446,-312.972 99.7973,-322.918 108.853,-317.418 103.446,-312.972"/>
</g>
<!-- Node10 -->
<g id="node10" class="node"><title>Node10</title>
<g id="a_node10"><a xlink:href="interface_d_b_table.html" target="_top" xlink:title="DBTable">
<polygon fill="none" stroke="black" points="181.702,-127.29 181.702,-147.22 235.112,-147.22 235.112,-127.29 181.702,-127.29"/>
<text text-anchor="middle" x="208.407" y="-135.22" font-family="Helvetica Neue" font-size="10.00">DBTable</text>
</a>
</g>
</g>
<!-- Node4&#45;&gt;Node10 -->
<g id="edge12" class="edge"><title>Node4&#45;&gt;Node10</title>
<path fill="none" stroke="midnightblue" d="M132.025,-322.366C152.073,-315.461 174.953,-303.988 188.407,-285.439 219.901,-242.02 213.42,-171.992 209.883,-147.258"/>
<polygon fill="midnightblue" stroke="midnightblue" points="130.937,-319.039 122.464,-325.399 133.054,-325.711 130.937,-319.039"/>
</g>
<!-- Node5 -->
<g id="node5" class="node"><title>Node5</title>
<polygon fill="none" stroke="#bfbfbf" points="11.8516,-196.15 11.8516,-216.08 90.9616,-216.08 90.9616,-196.15 11.8516,-196.15"/>
<text text-anchor="middle" x="51.4066" y="-204.08" font-family="Helvetica Neue" font-size="10.00">&lt;NSCopying&gt;</text>
</g>
<!-- Node5&#45;&gt;Node3 -->
<g id="edge4" class="edge"><title>Node5&#45;&gt;Node3</title>
<path fill="none" stroke="midnightblue" d="M49.9863,-186.122C49.0427,-173.505 47.8451,-157.491 47.1023,-147.558"/>
<polygon fill="midnightblue" stroke="midnightblue" points="46.4962,-186.386 50.7323,-196.098 53.4767,-185.864 46.4962,-186.386"/>
</g>
<!-- Node6&#45;&gt;Node3 -->
<g id="edge5" class="edge"><title>Node6&#45;&gt;Node3</title>
<path fill="none" stroke="#9a32cd" stroke-dasharray="5,2" d="M110.902,-190.068C105.383,-186.102 99.4942,-181.776 94.1366,-177.65 81.0271,-167.554 66.4176,-155.348 56.8567,-147.225"/>
<polygon fill="#9a32cd" stroke="#9a32cd" points="108.961,-192.982 119.139,-195.924 113.017,-187.277 108.961,-192.982"/>
<text text-anchor="middle" x="116.542" y="-169.65" font-family="Helvetica Neue" font-size="10.00"> database</text>
</g>
<!-- Node6&#45;&gt;Node10 -->
<g id="edge13" class="edge"><title>Node6&#45;&gt;Node10</title>
<path fill="none" stroke="#9a32cd" stroke-dasharray="5,2" d="M137.783,-186.261C140.555,-179.142 144.556,-171.399 150.137,-165.72 158.759,-156.945 170.73,-150.64 181.58,-146.303"/>
<polygon fill="#9a32cd" stroke="#9a32cd" points="134.402,-185.338 134.561,-195.931 141.043,-187.551 134.402,-185.338"/>
<text text-anchor="middle" x="172.542" y="-169.65" font-family="Helvetica Neue" font-size="10.00"> database</text>
</g>
<!-- Node7&#45;&gt;Node6 -->
<g id="edge7" class="edge"><title>Node7&#45;&gt;Node6</title>
<path fill="none" stroke="#9a32cd" stroke-dasharray="5,2" d="M136.702,-254.982C135.57,-242.364 134.133,-226.351 133.241,-216.418"/>
<polygon fill="#9a32cd" stroke="#9a32cd" points="133.218,-255.31 137.597,-264.957 140.189,-254.685 133.218,-255.31"/>
<text text-anchor="middle" x="162.617" y="-238.51" font-family="Helvetica Neue" font-size="10.00"> connection</text>
</g>
<!-- Node8 -->
<g id="node8" class="node"><title>Node8</title>
<g id="a_node8"><a xlink:href="protocol_d_b_table_query-p.html" target="_top" xlink:title="\&lt;DBTableQuery\&gt;">
<polygon fill="none" stroke="black" points="104.272,-58.4299 104.272,-78.3599 196.542,-78.3599 196.542,-58.4299 104.272,-58.4299"/>
<text text-anchor="middle" x="150.407" y="-66.3599" font-family="Helvetica Neue" font-size="10.00">&lt;DBTableQuery&gt;</text>
</a>
</g>
</g>
<!-- Node8&#45;&gt;Node1 -->
<g id="edge9" class="edge"><title>Node8&#45;&gt;Node1</title>
<path fill="none" stroke="midnightblue" d="M137.183,-50.1951C129.679,-40.4353 120.589,-28.6109 114.441,-20.6146"/>
<polygon fill="midnightblue" stroke="midnightblue" points="134.628,-52.6142 143.498,-58.4088 140.178,-48.3477 134.628,-52.6142"/>
</g>
<!-- Node9 -->
<g id="node9" class="node"><title>Node9</title>
<polygon fill="none" stroke="#bfbfbf" points="92.7366,-127.29 92.7366,-147.22 164.077,-147.22 164.077,-127.29 92.7366,-127.29"/>
<text text-anchor="middle" x="128.407" y="-135.22" font-family="Helvetica Neue" font-size="10.00">&lt;NSObject&gt;</text>
</g>
<!-- Node9&#45;&gt;Node8 -->
<g id="edge10" class="edge"><title>Node9&#45;&gt;Node8</title>
<path fill="none" stroke="midnightblue" d="M134.531,-117.643C138.701,-104.969 144.044,-88.7312 147.345,-78.6981"/>
<polygon fill="midnightblue" stroke="midnightblue" points="131.175,-116.645 131.374,-127.238 137.824,-118.833 131.175,-116.645"/>
</g>
<!-- Node10&#45;&gt;Node8 -->
<g id="edge11" class="edge"><title>Node10&#45;&gt;Node8</title>
<path fill="none" stroke="#9a32cd" stroke-dasharray="5,2" d="M193.887,-119.517C182.689,-106.608 167.616,-89.2329 158.477,-78.6981"/>
<polygon fill="#9a32cd" stroke="#9a32cd" points="191.388,-121.977 200.584,-127.238 196.675,-117.39 191.388,-121.977"/>
<text text-anchor="middle" x="195.817" y="-100.79" font-family="Helvetica Neue" font-size="10.00"> table</text>
</g>
</g>
</svg>
