<?xml version="1.0" encoding="UTF-8" standalone="no"?>
<!DOCTYPE svg PUBLIC "-//W3C//DTD SVG 1.1//EN"
 "http://www.w3.org/Graphics/SVG/1.1/DTD/svg11.dtd">
<!-- Generated by graphviz version 2.38.0 (20140413.2041)
 -->
<!-- Title: DBConnectionProxy Pages: 1 -->
<svg width="162pt" height="156pt"
 viewBox="0.00 0.00 162.31 155.72" xmlns="http://www.w3.org/2000/svg" xmlns:xlink="http://www.w3.org/1999/xlink">
<g id="graph0" class="graph" transform="scale(1 1) rotate(0) translate(4 151.72)">
<title>DBConnectionProxy</title>
<!-- Node1 -->
<g id="node1" class="node"><title>Node1</title>
<polygon fill="#bfbfbf" stroke="black" points="3.16,-0.5 3.16,-20.4299 110.09,-20.4299 110.09,-0.5 3.16,-0.5"/>
<text text-anchor="middle" x="56.625" y="-8.42993" font-family="Helvetica Neue" font-size="10.00">DBConnectionProxy</text>
</g>
<!-- Node2 -->
<g id="node2" class="node"><title>Node2</title>
<polygon fill="none" stroke="#bfbfbf" points="0,-69.3599 0,-89.2898 55.25,-89.2898 55.25,-69.3599 0,-69.3599"/>
<text text-anchor="middle" x="27.625" y="-77.2898" font-family="Helvetica Neue" font-size="10.00">NSProxy</text>
</g>
<!-- Node2&#45;&gt;Node1 -->
<g id="edge1" class="edge"><title>Node2&#45;&gt;Node1</title>
<path fill="none" stroke="midnightblue" d="M35.5331,-60.0927C41.0539,-47.3643 48.1945,-30.9016 52.5898,-20.7681"/>
<polygon fill="midnightblue" stroke="midnightblue" points="32.3044,-58.7409 31.5361,-69.3078 38.7263,-61.5264 32.3044,-58.7409"/>
</g>
<!-- Node3 -->
<g id="node3" class="node"><title>Node3</title>
<g id="a_node3"><a xlink:href="interface_d_b_connection.html" target="_top" xlink:title="DBConnection">
<polygon fill="none" stroke="black" points="72.935,-69.3599 72.935,-89.2898 154.315,-89.2898 154.315,-69.3599 72.935,-69.3599"/>
<text text-anchor="middle" x="113.625" y="-77.2898" font-family="Helvetica Neue" font-size="10.00">DBConnection</text>
</a>
</g>
</g>
<!-- Node3&#45;&gt;Node1 -->
<g id="edge2" class="edge"><title>Node3&#45;&gt;Node1</title>
<path fill="none" stroke="#9a32cd" stroke-dasharray="5,2" d="M99.3553,-61.5868C88.3504,-48.6782 73.5374,-31.3029 64.5562,-20.7681"/>
<polygon fill="#9a32cd" stroke="#9a32cd" points="96.7866,-63.9686 105.938,-69.3078 102.114,-59.4272 96.7866,-63.9686"/>
<text text-anchor="middle" x="113.835" y="-42.8599" font-family="Helvetica Neue" font-size="10.00"> connection</text>
</g>
<!-- Node4 -->
<g id="node4" class="node"><title>Node4</title>
<polygon fill="none" stroke="#bfbfbf" points="83.955,-127.29 83.955,-147.22 143.295,-147.22 143.295,-127.29 83.955,-127.29"/>
<text text-anchor="middle" x="113.625" y="-135.22" font-family="Helvetica Neue" font-size="10.00">NSObject</text>
</g>
<!-- Node4&#45;&gt;Node3 -->
<g id="edge3" class="edge"><title>Node4&#45;&gt;Node3</title>
<path fill="none" stroke="midnightblue" d="M113.625,-117.24C113.625,-107.862 113.625,-96.9812 113.625,-89.4744"/>
<polygon fill="midnightblue" stroke="midnightblue" points="110.125,-117.269 113.625,-127.269 117.125,-117.269 110.125,-117.269"/>
</g>
</g>
</svg>
