<?xml version="1.0" encoding="UTF-8" standalone="no"?>
<!DOCTYPE svg PUBLIC "-//W3C//DTD SVG 1.1//EN"
 "http://www.w3.org/Graphics/SVG/1.1/DTD/svg11.dtd">
<!-- Generated by graphviz version 2.38.0 (20140413.2041)
 -->
<!-- Title: DBQuery Pages: 1 -->
<svg width="568pt" height="224pt"
 viewBox="0.00 0.00 567.75 223.93" xmlns="http://www.w3.org/2000/svg" xmlns:xlink="http://www.w3.org/1999/xlink">
<g id="graph0" class="graph" transform="scale(1 1) rotate(0) translate(4 219.93)">
<title>DBQuery</title>
<!-- Node1 -->
<g id="node1" class="node"><title>Node1</title>
<polygon fill="#bfbfbf" stroke="black" points="115.11,-116.5 115.11,-136.43 171.86,-136.43 171.86,-116.5 115.11,-116.5"/>
<text text-anchor="middle" x="143.485" y="-124.43" font-family="Helvetica Neue" font-size="10.00">DBQuery</text>
</g>
<!-- Node4 -->
<g id="node4" class="node"><title>Node4</title>
<g id="a_node4"><a xlink:href="interface_d_b_read_query.html" target="_top" xlink:title="DBReadQuery">
<polygon fill="none" stroke="black" points="207.86,-175.5 207.86,-195.43 288.13,-195.43 288.13,-175.5 207.86,-175.5"/>
<text text-anchor="middle" x="247.995" y="-183.43" font-family="Helvetica Neue" font-size="10.00">DBReadQuery</text>
</a>
</g>
</g>
<!-- Node1&#45;&gt;Node4 -->
<g id="edge3" class="edge"><title>Node1&#45;&gt;Node4</title>
<path fill="none" stroke="midnightblue" d="M170.674,-141.538C189.141,-152.167 213.366,-166.11 229.52,-175.407"/>
<polygon fill="midnightblue" stroke="midnightblue" points="172.287,-138.428 161.874,-136.474 168.795,-144.495 172.287,-138.428"/>
</g>
<!-- Node6 -->
<g id="node6" class="node"><title>Node6</title>
<g id="a_node6"><a xlink:href="interface_d_b_write_query.html" target="_top" xlink:title="DBWriteQuery">
<polygon fill="none" stroke="black" points="208.045,-97.5 208.045,-117.43 287.945,-117.43 287.945,-97.5 208.045,-97.5"/>
<text text-anchor="middle" x="247.995" y="-105.43" font-family="Helvetica Neue" font-size="10.00">DBWriteQuery</text>
</a>
</g>
</g>
<!-- Node1&#45;&gt;Node6 -->
<g id="edge5" class="edge"><title>Node1&#45;&gt;Node6</title>
<path fill="none" stroke="midnightblue" d="M181.927,-119.525C190.377,-117.959 199.369,-116.292 207.886,-114.714"/>
<polygon fill="midnightblue" stroke="midnightblue" points="181.15,-116.109 171.956,-121.373 182.426,-122.992 181.15,-116.109"/>
</g>
<!-- Node2 -->
<g id="node2" class="node"><title>Node2</title>
<polygon fill="none" stroke="#bfbfbf" points="9.885,-136.5 9.885,-156.43 69.225,-156.43 69.225,-136.5 9.885,-136.5"/>
<text text-anchor="middle" x="39.555" y="-144.43" font-family="Helvetica Neue" font-size="10.00">NSObject</text>
</g>
<!-- Node2&#45;&gt;Node1 -->
<g id="edge1" class="edge"><title>Node2&#45;&gt;Node1</title>
<path fill="none" stroke="midnightblue" d="M79.542,-138.815C91.3216,-136.504 104.006,-134.015 114.88,-131.881"/>
<polygon fill="midnightblue" stroke="midnightblue" points="78.6304,-135.427 69.4914,-140.787 79.9782,-142.296 78.6304,-135.427"/>
</g>
<!-- Node3 -->
<g id="node3" class="node"><title>Node3</title>
<polygon fill="none" stroke="#bfbfbf" points="-4.9738e-14,-97.5 -4.9738e-14,-117.43 79.11,-117.43 79.11,-97.5 -4.9738e-14,-97.5"/>
<text text-anchor="middle" x="39.555" y="-105.43" font-family="Helvetica Neue" font-size="10.00">&lt;NSCopying&gt;</text>
</g>
<!-- Node3&#45;&gt;Node1 -->
<g id="edge2" class="edge"><title>Node3&#45;&gt;Node1</title>
<path fill="none" stroke="midnightblue" d="M89.224,-116.537C98.0262,-118.178 106.92,-119.836 114.852,-121.314"/>
<polygon fill="midnightblue" stroke="midnightblue" points="89.8532,-113.094 79.3811,-114.702 88.5704,-119.976 89.8532,-113.094"/>
</g>
<!-- Node5 -->
<g id="node5" class="node"><title>Node5</title>
<g id="a_node5"><a xlink:href="interface_d_b_select_query.html" target="_top" xlink:title="DBSelectQuery">
<polygon fill="none" stroke="black" points="336.725,-195.5 336.725,-215.43 421.435,-215.43 421.435,-195.5 336.725,-195.5"/>
<text text-anchor="middle" x="379.08" y="-203.43" font-family="Helvetica Neue" font-size="10.00">DBSelectQuery</text>
</a>
</g>
</g>
<!-- Node4&#45;&gt;Node5 -->
<g id="edge4" class="edge"><title>Node4&#45;&gt;Node5</title>
<path fill="none" stroke="midnightblue" d="M298.348,-193.112C310.99,-195.07 324.457,-197.157 336.654,-199.047"/>
<polygon fill="midnightblue" stroke="midnightblue" points="298.844,-189.647 288.426,-191.574 297.772,-196.564 298.844,-189.647"/>
</g>
<!-- Node7 -->
<g id="node7" class="node"><title>Node7</title>
<g id="a_node7"><a xlink:href="interface_d_b_alter_table_query.html" target="_top" xlink:title="DBAlterTableQuery">
<polygon fill="none" stroke="black" points="328.67,-156.5 328.67,-176.43 429.49,-176.43 429.49,-156.5 328.67,-156.5"/>
<text text-anchor="middle" x="379.08" y="-164.43" font-family="Helvetica Neue" font-size="10.00">DBAlterTableQuery</text>
</a>
</g>
</g>
<!-- Node6&#45;&gt;Node7 -->
<g id="edge6" class="edge"><title>Node6&#45;&gt;Node7</title>
<path fill="none" stroke="midnightblue" d="M276.054,-122.544C290.177,-130.148 307.862,-139.26 324.13,-146.465 332.076,-149.984 340.852,-153.421 348.977,-156.425"/>
<polygon fill="midnightblue" stroke="midnightblue" points="277.363,-119.271 266.907,-117.562 274.015,-125.419 277.363,-119.271"/>
</g>
<!-- Node8 -->
<g id="node8" class="node"><title>Node8</title>
<g id="a_node8"><a xlink:href="interface_d_b_create_table_query.html" target="_top" xlink:title="DBCreateTableQuery">
<polygon fill="none" stroke="black" points="324.13,-117.5 324.13,-137.43 434.03,-137.43 434.03,-117.5 324.13,-117.5"/>
<text text-anchor="middle" x="379.08" y="-125.43" font-family="Helvetica Neue" font-size="10.00">DBCreateTableQuery</text>
</a>
</g>
</g>
<!-- Node6&#45;&gt;Node8 -->
<g id="edge7" class="edge"><title>Node6&#45;&gt;Node8</title>
<path fill="none" stroke="midnightblue" d="M298.124,-115.077C306.548,-116.382 315.344,-117.745 323.892,-119.069"/>
<polygon fill="midnightblue" stroke="midnightblue" points="298.493,-111.592 288.075,-113.52 297.421,-118.51 298.493,-111.592"/>
</g>
<!-- Node9 -->
<g id="node9" class="node"><title>Node9</title>
<g id="a_node9"><a xlink:href="interface_d_b_delete_query.html" target="_top" xlink:title="DBDeleteQuery">
<polygon fill="none" stroke="black" points="336.445,-78.5 336.445,-98.4299 421.715,-98.4299 421.715,-78.5 336.445,-78.5"/>
<text text-anchor="middle" x="379.08" y="-86.4299" font-family="Helvetica Neue" font-size="10.00">DBDeleteQuery</text>
</a>
</g>
</g>
<!-- Node6&#45;&gt;Node9 -->
<g id="edge8" class="edge"><title>Node6&#45;&gt;Node9</title>
<path fill="none" stroke="midnightblue" d="M298.011,-100.25C310.677,-98.386 324.192,-96.3968 336.441,-94.5938"/>
<polygon fill="midnightblue" stroke="midnightblue" points="297.459,-96.7938 288.075,-101.713 298.478,-103.719 297.459,-96.7938"/>
</g>
<!-- Node10 -->
<g id="node10" class="node"><title>Node10</title>
<g id="a_node10"><a xlink:href="interface_d_b_drop_table_query.html" target="_top" xlink:title="DBDropTableQuery">
<polygon fill="none" stroke="black" points="328.015,-39.5 328.015,-59.4299 430.145,-59.4299 430.145,-39.5 328.015,-39.5"/>
<text text-anchor="middle" x="379.08" y="-47.4299" font-family="Helvetica Neue" font-size="10.00">DBDropTableQuery</text>
</a>
</g>
</g>
<!-- Node6&#45;&gt;Node10 -->
<g id="edge9" class="edge"><title>Node6&#45;&gt;Node10</title>
<path fill="none" stroke="midnightblue" d="M276.667,-92.5247C290.704,-85.1891 308.129,-76.4503 324.13,-69.465 332.186,-65.9479 341.079,-62.4855 349.281,-59.4559"/>
<polygon fill="midnightblue" stroke="midnightblue" points="274.757,-89.5752 267.549,-97.3402 278.026,-95.7649 274.757,-89.5752"/>
</g>
<!-- Node11 -->
<g id="node11" class="node"><title>Node11</title>
<g id="a_node11"><a xlink:href="interface_d_b_insert_query.html" target="_top" xlink:title="DBInsertQuery">
<polygon fill="none" stroke="black" points="338.205,-0.5 338.205,-20.4299 419.955,-20.4299 419.955,-0.5 338.205,-0.5"/>
<text text-anchor="middle" x="379.08" y="-8.42993" font-family="Helvetica Neue" font-size="10.00">DBInsertQuery</text>
</a>
</g>
</g>
<!-- Node6&#45;&gt;Node11 -->
<g id="edge10" class="edge"><title>Node6&#45;&gt;Node11</title>
<path fill="none" stroke="midnightblue" d="M262.84,-89.1716C276.698,-71.9595 299.458,-46.5 324.13,-30.465 330.16,-26.5455 337.066,-23.2488 343.878,-20.5344"/>
<polygon fill="midnightblue" stroke="midnightblue" points="259.861,-87.299 256.442,-97.3271 265.368,-91.6199 259.861,-87.299"/>
</g>
<!-- Node12 -->
<g id="node12" class="node"><title>Node12</title>
<g id="a_node12"><a xlink:href="interface_d_b_update_query.html" target="_top" xlink:title="DBUpdateQuery">
<polygon fill="none" stroke="black" points="470.03,-0.5 470.03,-20.4299 559.75,-20.4299 559.75,-0.5 470.03,-0.5"/>
<text text-anchor="middle" x="514.89" y="-8.42993" font-family="Helvetica Neue" font-size="10.00">DBUpdateQuery</text>
</a>
</g>
</g>
<!-- Node11&#45;&gt;Node12 -->
<g id="edge11" class="edge"><title>Node11&#45;&gt;Node12</title>
<path fill="none" stroke="midnightblue" d="M430.336,-10.465C443.226,-10.465 456.996,-10.465 469.563,-10.465"/>
<polygon fill="midnightblue" stroke="midnightblue" points="430.227,-6.96506 420.227,-10.465 430.227,-13.9651 430.227,-6.96506"/>
</g>
</g>
</svg>
