<?xml version="1.0" encoding="UTF-8" standalone="no"?>
<!DOCTYPE svg PUBLIC "-//W3C//DTD SVG 1.1//EN"
 "http://www.w3.org/Graphics/SVG/1.1/DTD/svg11.dtd">
<!-- Generated by graphviz version 2.38.0 (20140413.2041)
 -->
<!-- Title: DBCreateTableQuery Pages: 1 -->
<svg width="541pt" height="443pt"
 viewBox="0.00 0.00 541.38 443.09" xmlns="http://www.w3.org/2000/svg" xmlns:xlink="http://www.w3.org/1999/xlink">
<g id="graph0" class="graph" transform="scale(1 1) rotate(0) translate(4 439.089)">
<title>DBCreateTableQuery</title>
<!-- Node1 -->
<g id="node1" class="node"><title>Node1</title>
<polygon fill="#bfbfbf" stroke="black" points="111.134,-0.5 111.134,-20.4299 221.034,-20.4299 221.034,-0.5 111.134,-0.5"/>
<text text-anchor="middle" x="166.084" y="-8.42993" font-family="Helvetica Neue" font-size="10.00">DBCreateTableQuery</text>
</g>
<!-- Node2 -->
<g id="node2" class="node"><title>Node2</title>
<g id="a_node2"><a xlink:href="interface_d_b_write_query.html" target="_top" xlink:title="DBWriteQuery">
<polygon fill="none" stroke="black" points="15.1337,-111.22 15.1337,-131.15 95.0337,-131.15 95.0337,-111.22 15.1337,-111.22"/>
<text text-anchor="middle" x="55.0837" y="-119.15" font-family="Helvetica Neue" font-size="10.00">DBWriteQuery</text>
</a>
</g>
</g>
<!-- Node2&#45;&gt;Node1 -->
<g id="edge1" class="edge"><title>Node2&#45;&gt;Node1</title>
<path fill="none" stroke="midnightblue" d="M71.7797,-103.832C95.4092,-80.6876 137.823,-39.1454 156.644,-20.7109"/>
<polygon fill="midnightblue" stroke="midnightblue" points="69.2426,-101.418 64.5475,-110.915 74.1407,-106.418 69.2426,-101.418"/>
</g>
<!-- Node3 -->
<g id="node3" class="node"><title>Node3</title>
<g id="a_node3"><a xlink:href="interface_d_b_query.html" target="_top" xlink:title="DBQuery">
<polygon fill="none" stroke="black" points="24.7087,-219.01 24.7087,-238.939 81.4587,-238.939 81.4587,-219.01 24.7087,-219.01"/>
<text text-anchor="middle" x="53.0837" y="-226.939" font-family="Helvetica Neue" font-size="10.00">DBQuery</text>
</a>
</g>
</g>
<!-- Node3&#45;&gt;Node2 -->
<g id="edge2" class="edge"><title>Node3&#45;&gt;Node2</title>
<path fill="none" stroke="midnightblue" d="M32.1266,-212.57C13.4338,-196.858 -9.09883,-171.721 4.08373,-149.65 9.03405,-141.361 17.4435,-135.427 26.0216,-131.247"/>
<polygon fill="midnightblue" stroke="midnightblue" points="30.0445,-215.386 40.0448,-218.885 34.4094,-209.914 30.0445,-215.386"/>
</g>
<!-- Node9 -->
<g id="node9" class="node"><title>Node9</title>
<g id="a_node9"><a xlink:href="interface_d_b_read_query.html" target="_top" xlink:title="DBReadQuery">
<polygon fill="none" stroke="black" points="12.9487,-150.15 12.9487,-170.08 93.2187,-170.08 93.2187,-150.15 12.9487,-150.15"/>
<text text-anchor="middle" x="53.0837" y="-158.08" font-family="Helvetica Neue" font-size="10.00">DBReadQuery</text>
</a>
</g>
</g>
<!-- Node3&#45;&gt;Node9 -->
<g id="edge11" class="edge"><title>Node3&#45;&gt;Node9</title>
<path fill="none" stroke="midnightblue" d="M53.0837,-208.599C53.0837,-196.042 53.0837,-180.25 53.0837,-170.418"/>
<polygon fill="midnightblue" stroke="midnightblue" points="49.5838,-208.957 53.0837,-218.957 56.5838,-208.958 49.5838,-208.957"/>
</g>
<!-- Node4 -->
<g id="node4" class="node"><title>Node4</title>
<polygon fill="none" stroke="#bfbfbf" points="170.414,-414.659 170.414,-434.589 229.754,-434.589 229.754,-414.659 170.414,-414.659"/>
<text text-anchor="middle" x="200.084" y="-422.589" font-family="Helvetica Neue" font-size="10.00">NSObject</text>
</g>
<!-- Node4&#45;&gt;Node3 -->
<g id="edge3" class="edge"><title>Node4&#45;&gt;Node3</title>
<path fill="none" stroke="midnightblue" d="M173.197,-409.496C141.044,-390.992 88.5134,-355.3 64.0837,-308.299 52.3046,-285.637 51.8352,-254.559 52.4592,-239.257"/>
<polygon fill="midnightblue" stroke="midnightblue" points="171.64,-412.635 182.076,-414.467 175.06,-406.528 171.64,-412.635"/>
</g>
<!-- Node6 -->
<g id="node6" class="node"><title>Node6</title>
<g id="a_node6"><a xlink:href="interface_d_b.html" target="_top" xlink:title="DB">
<polygon fill="none" stroke="black" points="179.139,-287.869 179.139,-307.799 209.029,-307.799 209.029,-287.869 179.139,-287.869"/>
<text text-anchor="middle" x="194.084" y="-295.799" font-family="Helvetica Neue" font-size="10.00">DB</text>
</a>
</g>
</g>
<!-- Node4&#45;&gt;Node6 -->
<g id="edge6" class="edge"><title>Node4&#45;&gt;Node6</title>
<path fill="none" stroke="midnightblue" d="M176.408,-408.363C166.287,-400.413 155.558,-389.72 150.084,-377.159 138.68,-350.994 166.064,-322.213 182.609,-307.926"/>
<polygon fill="midnightblue" stroke="midnightblue" points="174.498,-411.302 184.637,-414.377 178.628,-405.651 174.498,-411.302"/>
</g>
<!-- Node7 -->
<g id="node7" class="node"><title>Node7</title>
<g id="a_node7"><a xlink:href="interface_d_b_connection.html" target="_top" xlink:title="DBConnection">
<polygon fill="none" stroke="black" points="159.394,-356.729 159.394,-376.659 240.774,-376.659 240.774,-356.729 159.394,-356.729"/>
<text text-anchor="middle" x="200.084" y="-364.659" font-family="Helvetica Neue" font-size="10.00">DBConnection</text>
</a>
</g>
</g>
<!-- Node4&#45;&gt;Node7 -->
<g id="edge8" class="edge"><title>Node4&#45;&gt;Node7</title>
<path fill="none" stroke="midnightblue" d="M200.084,-404.61C200.084,-395.231 200.084,-384.351 200.084,-376.844"/>
<polygon fill="midnightblue" stroke="midnightblue" points="196.584,-404.638 200.084,-414.638 203.584,-404.638 196.584,-404.638"/>
</g>
<!-- Node12 -->
<g id="node12" class="node"><title>Node12</title>
<g id="a_node12"><a xlink:href="interface_d_b_table.html" target="_top" xlink:title="DBTable">
<polygon fill="none" stroke="black" points="225.379,-219.01 225.379,-238.939 278.789,-238.939 278.789,-219.01 225.379,-219.01"/>
<text text-anchor="middle" x="252.084" y="-226.939" font-family="Helvetica Neue" font-size="10.00">DBTable</text>
</a>
</g>
</g>
<!-- Node4&#45;&gt;Node12 -->
<g id="edge15" class="edge"><title>Node4&#45;&gt;Node12</title>
<path fill="none" stroke="midnightblue" d="M222.782,-408.419C232.891,-400.376 243.891,-389.589 250.084,-377.159 273.559,-330.039 260.549,-263.448 254.571,-239.233"/>
<polygon fill="midnightblue" stroke="midnightblue" points="220.546,-405.72 214.625,-414.506 224.733,-411.33 220.546,-405.72"/>
</g>
<!-- Node15 -->
<g id="node15" class="node"><title>Node15</title>
<g id="a_node15"><a xlink:href="interface_d_b_join.html" target="_top" xlink:title="DBJoin">
<polygon fill="none" stroke="black" points="484.784,-150.15 484.784,-170.08 533.384,-170.08 533.384,-150.15 484.784,-150.15"/>
<text text-anchor="middle" x="509.084" y="-158.08" font-family="Helvetica Neue" font-size="10.00">DBJoin</text>
</a>
</g>
</g>
<!-- Node4&#45;&gt;Node15 -->
<g id="edge20" class="edge"><title>Node4&#45;&gt;Node15</title>
<path fill="none" stroke="midnightblue" d="M239.972,-420.397C273.189,-415.268 315.084,-401.999 315.084,-367.694 315.084,-367.694 315.084,-367.694 315.084,-227.974 315.084,-219.113 432.311,-183.627 484.513,-168.265"/>
<polygon fill="midnightblue" stroke="midnightblue" points="239.441,-416.937 229.998,-421.742 240.376,-423.875 239.441,-416.937"/>
</g>
<!-- Node5 -->
<g id="node5" class="node"><title>Node5</title>
<polygon fill="none" stroke="#bfbfbf" points="73.5287,-287.869 73.5287,-307.799 152.639,-307.799 152.639,-287.869 73.5287,-287.869"/>
<text text-anchor="middle" x="113.084" y="-295.799" font-family="Helvetica Neue" font-size="10.00">&lt;NSCopying&gt;</text>
</g>
<!-- Node5&#45;&gt;Node3 -->
<g id="edge4" class="edge"><title>Node5&#45;&gt;Node3</title>
<path fill="none" stroke="midnightblue" d="M98.063,-280.096C86.4789,-267.188 70.8863,-249.812 61.4324,-239.278"/>
<polygon fill="midnightblue" stroke="midnightblue" points="95.708,-282.712 104.992,-287.817 100.918,-278.037 95.708,-282.712"/>
</g>
<!-- Node6&#45;&gt;Node3 -->
<g id="edge5" class="edge"><title>Node6&#45;&gt;Node3</title>
<path fill="none" stroke="#9a32cd" stroke-dasharray="5,2" d="M169.612,-285.23C141.892,-272.086 97.307,-250.944 72.0813,-238.983"/>
<polygon fill="#9a32cd" stroke="#9a32cd" points="168.459,-288.557 178.994,-289.679 171.458,-282.232 168.459,-288.557"/>
<text text-anchor="middle" x="154.219" y="-261.369" font-family="Helvetica Neue" font-size="10.00"> database</text>
</g>
<!-- Node6&#45;&gt;Node12 -->
<g id="edge16" class="edge"><title>Node6&#45;&gt;Node12</title>
<path fill="none" stroke="#9a32cd" stroke-dasharray="5,2" d="M199.679,-277.626C202.308,-270.766 205.956,-263.294 210.814,-257.439 217.079,-249.889 225.948,-243.616 233.86,-238.981"/>
<polygon fill="#9a32cd" stroke="#9a32cd" points="196.203,-276.987 196.359,-287.581 202.843,-279.202 196.203,-276.987"/>
<text text-anchor="middle" x="233.219" y="-261.369" font-family="Helvetica Neue" font-size="10.00"> database</text>
</g>
<!-- Node7&#45;&gt;Node6 -->
<g id="edge7" class="edge"><title>Node7&#45;&gt;Node6</title>
<path fill="none" stroke="#9a32cd" stroke-dasharray="5,2" d="M198.379,-346.702C197.247,-334.084 195.81,-318.07 194.919,-308.138"/>
<polygon fill="#9a32cd" stroke="#9a32cd" points="194.895,-347.03 199.275,-356.677 201.867,-346.404 194.895,-347.03"/>
<text text-anchor="middle" x="224.294" y="-330.229" font-family="Helvetica Neue" font-size="10.00"> connection</text>
</g>
<!-- Node8 -->
<g id="node8" class="node"><title>Node8</title>
<g id="a_node8"><a xlink:href="interface_d_b_select_query.html" target="_top" xlink:title="DBSelectQuery">
<polygon fill="none" stroke="black" points="197.729,-70.8248 197.729,-90.7548 282.439,-90.7548 282.439,-70.8248 197.729,-70.8248"/>
<text text-anchor="middle" x="240.084" y="-78.7548" font-family="Helvetica Neue" font-size="10.00">DBSelectQuery</text>
</a>
</g>
</g>
<!-- Node8&#45;&gt;Node1 -->
<g id="edge9" class="edge"><title>Node8&#45;&gt;Node1</title>
<path fill="none" stroke="#9a32cd" stroke-dasharray="5,2" d="M222.68,-63.7212C208.101,-50.2598 187.815,-31.5298 175.906,-20.5336"/>
<polygon fill="#9a32cd" stroke="#9a32cd" points="220.382,-66.363 230.104,-70.5752 225.131,-61.2199 220.382,-66.363"/>
<text text-anchor="middle" x="252.999" y="-42.8599" font-family="Helvetica Neue" font-size="10.00"> queryToDeriveFrom</text>
</g>
<!-- Node8&#45;&gt;Node8 -->
<g id="edge22" class="edge"><title>Node8&#45;&gt;Node8</title>
<path fill="none" stroke="#9a32cd" stroke-dasharray="5,2" d="M292.775,-85.8275C297.484,-84.7725 300.439,-83.0933 300.439,-80.7898 300.439,-77.1042 292.874,-75.0167 282.665,-74.5272"/>
<polygon fill="#9a32cd" stroke="#9a32cd" points="292.171,-82.375 282.665,-87.0523 293.013,-89.3242 292.171,-82.375"/>
<text text-anchor="middle" x="326.189" y="-84.7197" font-family="Helvetica Neue" font-size="10.00"> subQuery</text>
<text text-anchor="middle" x="326.189" y="-72.7898" font-family="Helvetica Neue" font-size="10.00">unionQuery</text>
</g>
<!-- Node9&#45;&gt;Node8 -->
<g id="edge10" class="edge"><title>Node9&#45;&gt;Node8</title>
<path fill="none" stroke="midnightblue" d="M84.4186,-146.158C122.289,-130.498 185.038,-104.551 218.116,-90.8733"/>
<polygon fill="midnightblue" stroke="midnightblue" points="82.8047,-143.037 74.901,-150.093 85.4796,-149.506 82.8047,-143.037"/>
</g>
<!-- Node10 -->
<g id="node10" class="node"><title>Node10</title>
<g id="a_node10"><a xlink:href="protocol_d_b_table_query-p.html" target="_top" xlink:title="\&lt;DBTableQuery\&gt;">
<polygon fill="none" stroke="black" points="110.949,-150.15 110.949,-170.08 203.219,-170.08 203.219,-150.15 110.949,-150.15"/>
<text text-anchor="middle" x="157.084" y="-158.08" font-family="Helvetica Neue" font-size="10.00">&lt;DBTableQuery&gt;</text>
</a>
</g>
</g>
<!-- Node10&#45;&gt;Node8 -->
<g id="edge12" class="edge"><title>Node10&#45;&gt;Node8</title>
<path fill="none" stroke="midnightblue" d="M174.498,-142.891C191.425,-127.121 216.529,-103.734 230.249,-90.9517"/>
<polygon fill="midnightblue" stroke="midnightblue" points="171.862,-140.563 166.931,-149.941 176.633,-145.685 171.862,-140.563"/>
</g>
<!-- Node11 -->
<g id="node11" class="node"><title>Node11</title>
<polygon fill="none" stroke="#bfbfbf" points="121.414,-219.01 121.414,-238.939 192.754,-238.939 192.754,-219.01 121.414,-219.01"/>
<text text-anchor="middle" x="157.084" y="-226.939" font-family="Helvetica Neue" font-size="10.00">&lt;NSObject&gt;</text>
</g>
<!-- Node11&#45;&gt;Node10 -->
<g id="edge13" class="edge"><title>Node11&#45;&gt;Node10</title>
<path fill="none" stroke="midnightblue" d="M157.084,-208.599C157.084,-196.042 157.084,-180.25 157.084,-170.418"/>
<polygon fill="midnightblue" stroke="midnightblue" points="153.584,-208.957 157.084,-218.957 160.584,-208.958 153.584,-208.957"/>
</g>
<!-- Node12&#45;&gt;Node10 -->
<g id="edge14" class="edge"><title>Node12&#45;&gt;Node10</title>
<path fill="none" stroke="#9a32cd" stroke-dasharray="5,2" d="M231.079,-213.192C212.404,-200.049 185.696,-181.251 169.996,-170.202"/>
<polygon fill="#9a32cd" stroke="#9a32cd" points="229.079,-216.064 239.272,-218.957 233.108,-210.34 229.079,-216.064"/>
<text text-anchor="middle" x="223.494" y="-192.51" font-family="Helvetica Neue" font-size="10.00"> table</text>
</g>
<!-- Node12&#45;&gt;Node15 -->
<g id="edge21" class="edge"><title>Node12&#45;&gt;Node15</title>
<path fill="none" stroke="#9a32cd" stroke-dasharray="5,2" d="M258.982,-209.489C262.853,-201.727 268.495,-193.397 276.264,-188.58 314.154,-165.084 432.257,-178.762 476.084,-170.58 478.896,-170.055 481.814,-169.394 484.699,-168.666"/>
<polygon fill="#9a32cd" stroke="#9a32cd" points="255.751,-208.144 255.001,-218.712 262.178,-210.918 255.751,-208.144"/>
<text text-anchor="middle" x="289.494" y="-192.51" font-family="Helvetica Neue" font-size="10.00"> table</text>
</g>
<!-- Node13 -->
<g id="node13" class="node"><title>Node13</title>
<g id="a_node13"><a xlink:href="protocol_d_b_filterable_query-p.html" target="_top" xlink:title="\&lt;DBFilterableQuery\&gt;">
<polygon fill="none" stroke="black" points="221.249,-150.15 221.249,-170.08 330.919,-170.08 330.919,-150.15 221.249,-150.15"/>
<text text-anchor="middle" x="276.084" y="-158.08" font-family="Helvetica Neue" font-size="10.00">&lt;DBFilterableQuery&gt;</text>
</a>
</g>
</g>
<!-- Node13&#45;&gt;Node8 -->
<g id="edge17" class="edge"><title>Node13&#45;&gt;Node8</title>
<path fill="none" stroke="midnightblue" d="M267.508,-140.695C260.209,-125.017 250.03,-103.153 244.349,-90.9517"/>
<polygon fill="midnightblue" stroke="midnightblue" points="264.419,-142.352 271.813,-149.941 270.765,-139.398 264.419,-142.352"/>
</g>
<!-- Node14 -->
<g id="node14" class="node"><title>Node14</title>
<polygon fill="none" stroke="#bfbfbf" points="349.354,-150.15 349.354,-170.08 466.814,-170.08 466.814,-150.15 349.354,-150.15"/>
<text text-anchor="middle" x="408.084" y="-158.08" font-family="Helvetica Neue" font-size="10.00">&lt;NSFastEnumeration&gt;</text>
</g>
<!-- Node14&#45;&gt;Node8 -->
<g id="edge18" class="edge"><title>Node14&#45;&gt;Node8</title>
<path fill="none" stroke="midnightblue" d="M379.059,-145.756C344.952,-130.057 289.284,-104.435 259.819,-90.8733"/>
<polygon fill="midnightblue" stroke="midnightblue" points="377.936,-149.091 388.483,-150.093 380.863,-142.733 377.936,-149.091"/>
</g>
<!-- Node15&#45;&gt;Node8 -->
<g id="edge19" class="edge"><title>Node15&#45;&gt;Node8</title>
<path fill="none" stroke="#9a32cd" stroke-dasharray="5,2" d="M474.883,-149.283C422.312,-134.172 322.406,-105.454 271.54,-90.832"/>
<polygon fill="#9a32cd" stroke="#9a32cd" points="474.16,-152.717 484.737,-152.116 476.093,-145.99 474.16,-152.717"/>
<text text-anchor="middle" x="415.344" y="-119.15" font-family="Helvetica Neue" font-size="10.00"> join</text>
</g>
</g>
</svg>
