<?xml version="1.0" encoding="UTF-8" standalone="no"?>
<!DOCTYPE svg PUBLIC "-//W3C//DTD SVG 1.1//EN"
 "http://www.w3.org/Graphics/SVG/1.1/DTD/svg11.dtd">
<!-- Generated by graphviz version 2.38.0 (20140413.2041)
 -->
<!-- Title: DBDefaultConstraint Pages: 1 -->
<svg width="304pt" height="200pt"
 viewBox="0.00 0.00 303.72 199.72" xmlns="http://www.w3.org/2000/svg" xmlns:xlink="http://www.w3.org/1999/xlink">
<g id="graph0" class="graph" transform="scale(1 1) rotate(0) translate(4 195.72)">
<title>DBDefaultConstraint</title>
<!-- Node1 -->
<g id="node1" class="node"><title>Node1</title>
<polygon fill="#bfbfbf" stroke="black" points="86.74,-0.5 86.74,-20.4299 194.6,-20.4299 194.6,-0.5 86.74,-0.5"/>
<text text-anchor="middle" x="140.67" y="-8.42993" font-family="Helvetica Neue" font-size="10.00">DBDefaultConstraint</text>
</g>
<!-- Node2 -->
<g id="node2" class="node"><title>Node2</title>
<g id="a_node2"><a xlink:href="interface_d_b_constraint.html" target="_top" xlink:title="DBConstraint">
<polygon fill="none" stroke="black" points="102.575,-57.4299 102.575,-77.3599 178.765,-77.3599 178.765,-57.4299 102.575,-57.4299"/>
<text text-anchor="middle" x="140.67" y="-65.3599" font-family="Helvetica Neue" font-size="10.00">DBConstraint</text>
</a>
</g>
</g>
<!-- Node2&#45;&gt;Node1 -->
<g id="edge1" class="edge"><title>Node2&#45;&gt;Node1</title>
<path fill="none" stroke="midnightblue" d="M140.67,-47.3023C140.67,-38.3046 140.67,-27.9812 140.67,-20.7326"/>
<polygon fill="midnightblue" stroke="midnightblue" points="137.17,-47.3243 140.67,-57.3243 144.17,-47.3244 137.17,-47.3243"/>
</g>
<!-- Node3 -->
<g id="node3" class="node"><title>Node3</title>
<polygon fill="none" stroke="#bfbfbf" points="-1.06581e-14,-114.36 -1.06581e-14,-134.29 59.34,-134.29 59.34,-114.36 -1.06581e-14,-114.36"/>
<text text-anchor="middle" x="29.67" y="-122.29" font-family="Helvetica Neue" font-size="10.00">NSObject</text>
</g>
<!-- Node3&#45;&gt;Node2 -->
<g id="edge2" class="edge"><title>Node3&#45;&gt;Node2</title>
<path fill="none" stroke="midnightblue" d="M57.0772,-109.762C77.4004,-99.7048 104.549,-86.2698 122.313,-77.4789"/>
<polygon fill="midnightblue" stroke="midnightblue" points="55.4096,-106.682 47.9994,-114.254 58.5144,-112.956 55.4096,-106.682"/>
</g>
<!-- Node4 -->
<g id="node4" class="node"><title>Node4</title>
<g id="a_node4"><a xlink:href="protocol_d_b_s_q_l_representable-p.html" target="_top" xlink:title="\&lt;DBSQLRepresentable\&gt;">
<polygon fill="none" stroke="black" points="77.585,-114.36 77.585,-134.29 203.755,-134.29 203.755,-114.36 77.585,-114.36"/>
<text text-anchor="middle" x="140.67" y="-122.29" font-family="Helvetica Neue" font-size="10.00">&lt;DBSQLRepresentable&gt;</text>
</a>
</g>
</g>
<!-- Node4&#45;&gt;Node2 -->
<g id="edge3" class="edge"><title>Node4&#45;&gt;Node2</title>
<path fill="none" stroke="midnightblue" d="M140.67,-104.232C140.67,-95.2345 140.67,-84.9112 140.67,-77.6625"/>
<polygon fill="midnightblue" stroke="midnightblue" points="137.17,-104.254 140.67,-114.254 144.17,-104.254 137.17,-104.254"/>
</g>
<!-- Node5 -->
<g id="node5" class="node"><title>Node5</title>
<polygon fill="none" stroke="#bfbfbf" points="105,-171.29 105,-191.22 176.34,-191.22 176.34,-171.29 105,-171.29"/>
<text text-anchor="middle" x="140.67" y="-179.22" font-family="Helvetica Neue" font-size="10.00">&lt;NSObject&gt;</text>
</g>
<!-- Node5&#45;&gt;Node4 -->
<g id="edge4" class="edge"><title>Node5&#45;&gt;Node4</title>
<path fill="none" stroke="midnightblue" d="M140.67,-161.162C140.67,-152.164 140.67,-141.841 140.67,-134.592"/>
<polygon fill="midnightblue" stroke="midnightblue" points="137.17,-161.184 140.67,-171.184 144.17,-161.184 137.17,-161.184"/>
</g>
<!-- Node6 -->
<g id="node6" class="node"><title>Node6</title>
<polygon fill="none" stroke="#bfbfbf" points="221.615,-114.36 221.615,-134.29 295.725,-134.29 295.725,-114.36 221.615,-114.36"/>
<text text-anchor="middle" x="258.67" y="-122.29" font-family="Helvetica Neue" font-size="10.00">&lt;NSCoding&gt;</text>
</g>
<!-- Node6&#45;&gt;Node2 -->
<g id="edge5" class="edge"><title>Node6&#45;&gt;Node2</title>
<path fill="none" stroke="midnightblue" d="M229.827,-109.898C208.191,-99.8264 179.154,-86.3096 160.184,-77.4789"/>
<polygon fill="midnightblue" stroke="midnightblue" points="228.642,-113.207 239.185,-114.254 231.596,-106.861 228.642,-113.207"/>
</g>
</g>
</svg>
