<?xml version="1.0" encoding="UTF-8" standalone="no"?>
<!DOCTYPE svg PUBLIC "-//W3C//DTD SVG 1.1//EN"
 "http://www.w3.org/Graphics/SVG/1.1/DTD/svg11.dtd">
<!-- Generated by graphviz version 2.38.0 (20140413.2041)
 -->
<!-- Title: DBSQLiteConnection Pages: 1 -->
<svg width="120pt" height="143pt"
 viewBox="0.00 0.00 119.76 142.79" xmlns="http://www.w3.org/2000/svg" xmlns:xlink="http://www.w3.org/1999/xlink">
<g id="graph0" class="graph" transform="scale(1 1) rotate(0) translate(4 138.79)">
<title>DBSQLiteConnection</title>
<!-- Node1 -->
<g id="node1" class="node"><title>Node1</title>
<polygon fill="#bfbfbf" stroke="black" points="7.10543e-15,-0.5 7.10543e-15,-20.4299 111.76,-20.4299 111.76,-0.5 7.10543e-15,-0.5"/>
<text text-anchor="middle" x="55.88" y="-8.42993" font-family="Helvetica Neue" font-size="10.00">DBSQLiteConnection</text>
</g>
<!-- Node2 -->
<g id="node2" class="node"><title>Node2</title>
<g id="a_node2"><a xlink:href="interface_d_b_connection.html" target="_top" xlink:title="DBConnection">
<polygon fill="none" stroke="black" points="15.19,-57.4299 15.19,-77.3599 96.57,-77.3599 96.57,-57.4299 15.19,-57.4299"/>
<text text-anchor="middle" x="55.88" y="-65.3599" font-family="Helvetica Neue" font-size="10.00">DBConnection</text>
</a>
</g>
</g>
<!-- Node2&#45;&gt;Node1 -->
<g id="edge1" class="edge"><title>Node2&#45;&gt;Node1</title>
<path fill="none" stroke="midnightblue" d="M55.88,-47.3023C55.88,-38.3046 55.88,-27.9812 55.88,-20.7326"/>
<polygon fill="midnightblue" stroke="midnightblue" points="52.3801,-47.3243 55.88,-57.3243 59.3801,-47.3244 52.3801,-47.3243"/>
</g>
<!-- Node3 -->
<g id="node3" class="node"><title>Node3</title>
<polygon fill="none" stroke="#bfbfbf" points="26.21,-114.36 26.21,-134.29 85.55,-134.29 85.55,-114.36 26.21,-114.36"/>
<text text-anchor="middle" x="55.88" y="-122.29" font-family="Helvetica Neue" font-size="10.00">NSObject</text>
</g>
<!-- Node3&#45;&gt;Node2 -->
<g id="edge2" class="edge"><title>Node3&#45;&gt;Node2</title>
<path fill="none" stroke="midnightblue" d="M55.88,-104.232C55.88,-95.2345 55.88,-84.9112 55.88,-77.6625"/>
<polygon fill="midnightblue" stroke="midnightblue" points="52.3801,-104.254 55.88,-114.254 59.3801,-104.254 52.3801,-104.254"/>
</g>
</g>
</svg>
