<?xml version="1.0" encoding="UTF-8" standalone="no"?>
<!DOCTYPE svg PUBLIC "-//W3C//DTD SVG 1.1//EN"
 "http://www.w3.org/Graphics/SVG/1.1/DTD/svg11.dtd">
<!-- Generated by graphviz version 2.38.0 (20140413.2041)
 -->
<!-- Title: DBReadQuery Pages: 1 -->
<svg width="164pt" height="200pt"
 viewBox="0.00 0.00 164.22 199.72" xmlns="http://www.w3.org/2000/svg" xmlns:xlink="http://www.w3.org/1999/xlink">
<g id="graph0" class="graph" transform="scale(1 1) rotate(0) translate(4 195.72)">
<title>DBReadQuery</title>
<!-- Node1 -->
<g id="node1" class="node"><title>Node1</title>
<polygon fill="#bfbfbf" stroke="black" points="32.535,-57.4299 32.535,-77.3599 112.805,-77.3599 112.805,-57.4299 32.535,-57.4299"/>
<text text-anchor="middle" x="72.67" y="-65.3599" font-family="Helvetica Neue" font-size="10.00">DBReadQuery</text>
</g>
<!-- Node5 -->
<g id="node5" class="node"><title>Node5</title>
<g id="a_node5"><a xlink:href="interface_d_b_select_query.html" target="_top" xlink:title="DBSelectQuery">
<polygon fill="none" stroke="black" points="30.315,-0.5 30.315,-20.4299 115.025,-20.4299 115.025,-0.5 30.315,-0.5"/>
<text text-anchor="middle" x="72.67" y="-8.42993" font-family="Helvetica Neue" font-size="10.00">DBSelectQuery</text>
</a>
</g>
</g>
<!-- Node1&#45;&gt;Node5 -->
<g id="edge4" class="edge"><title>Node1&#45;&gt;Node5</title>
<path fill="none" stroke="midnightblue" d="M72.67,-47.3023C72.67,-38.3046 72.67,-27.9812 72.67,-20.7326"/>
<polygon fill="midnightblue" stroke="midnightblue" points="69.1701,-47.3243 72.67,-57.3243 76.1701,-47.3244 69.1701,-47.3243"/>
</g>
<!-- Node2 -->
<g id="node2" class="node"><title>Node2</title>
<g id="a_node2"><a xlink:href="interface_d_b_query.html" target="_top" xlink:title="DBQuery">
<polygon fill="none" stroke="black" points="44.295,-114.36 44.295,-134.29 101.045,-134.29 101.045,-114.36 44.295,-114.36"/>
<text text-anchor="middle" x="72.67" y="-122.29" font-family="Helvetica Neue" font-size="10.00">DBQuery</text>
</a>
</g>
</g>
<!-- Node2&#45;&gt;Node1 -->
<g id="edge1" class="edge"><title>Node2&#45;&gt;Node1</title>
<path fill="none" stroke="midnightblue" d="M72.67,-104.232C72.67,-95.2345 72.67,-84.9112 72.67,-77.6625"/>
<polygon fill="midnightblue" stroke="midnightblue" points="69.1701,-104.254 72.67,-114.254 76.1701,-104.254 69.1701,-104.254"/>
</g>
<!-- Node3 -->
<g id="node3" class="node"><title>Node3</title>
<polygon fill="none" stroke="#bfbfbf" points="3.55271e-15,-171.29 3.55271e-15,-191.22 59.34,-191.22 59.34,-171.29 3.55271e-15,-171.29"/>
<text text-anchor="middle" x="29.67" y="-179.22" font-family="Helvetica Neue" font-size="10.00">NSObject</text>
</g>
<!-- Node3&#45;&gt;Node2 -->
<g id="edge2" class="edge"><title>Node3&#45;&gt;Node2</title>
<path fill="none" stroke="midnightblue" d="M43.0105,-163.213C50.402,-153.771 59.3043,-142.399 65.4152,-134.592"/>
<polygon fill="midnightblue" stroke="midnightblue" points="40.1787,-161.152 36.7706,-171.184 45.6907,-165.467 40.1787,-161.152"/>
</g>
<!-- Node4 -->
<g id="node4" class="node"><title>Node4</title>
<polygon fill="none" stroke="#bfbfbf" points="77.115,-171.29 77.115,-191.22 156.225,-191.22 156.225,-171.29 77.115,-171.29"/>
<text text-anchor="middle" x="116.67" y="-179.22" font-family="Helvetica Neue" font-size="10.00">&lt;NSCopying&gt;</text>
</g>
<!-- Node4&#45;&gt;Node2 -->
<g id="edge3" class="edge"><title>Node4&#45;&gt;Node2</title>
<path fill="none" stroke="midnightblue" d="M103.019,-163.213C95.4558,-153.771 86.3465,-142.399 80.0936,-134.592"/>
<polygon fill="midnightblue" stroke="midnightblue" points="100.421,-165.568 109.404,-171.184 105.884,-161.191 100.421,-165.568"/>
</g>
</g>
</svg>
