<?xml version="1.0" encoding="UTF-8" standalone="no"?>
<!DOCTYPE svg PUBLIC "-//W3C//DTD SVG 1.1//EN"
 "http://www.w3.org/Graphics/SVG/1.1/DTD/svg11.dtd">
<!-- Generated by graphviz version 2.38.0 (20140413.2041)
 -->
<!-- Title: DBDeleteQuery Pages: 1 -->
<svg width="365pt" height="351pt"
 viewBox="0.00 0.00 364.54 351.37" xmlns="http://www.w3.org/2000/svg" xmlns:xlink="http://www.w3.org/1999/xlink">
<g id="graph0" class="graph" transform="scale(1 1) rotate(0) translate(4 347.369)">
<title>DBDeleteQuery</title>
<!-- Node1 -->
<g id="node1" class="node"><title>Node1</title>
<polygon fill="#bfbfbf" stroke="black" points="146.07,-0.5 146.07,-20.4299 231.34,-20.4299 231.34,-0.5 146.07,-0.5"/>
<text text-anchor="middle" x="188.705" y="-8.42993" font-family="Helvetica Neue" font-size="10.00">DBDeleteQuery</text>
</g>
<!-- Node2 -->
<g id="node2" class="node"><title>Node2</title>
<g id="a_node2"><a xlink:href="interface_d_b_write_query.html" target="_top" xlink:title="DBWriteQuery">
<polygon fill="none" stroke="black" points="148.755,-58.4299 148.755,-78.3599 228.655,-78.3599 228.655,-58.4299 148.755,-58.4299"/>
<text text-anchor="middle" x="188.705" y="-66.3599" font-family="Helvetica Neue" font-size="10.00">DBWriteQuery</text>
</a>
</g>
</g>
<!-- Node2&#45;&gt;Node1 -->
<g id="edge1" class="edge"><title>Node2&#45;&gt;Node1</title>
<path fill="none" stroke="midnightblue" d="M188.705,-48.3806C188.705,-39.0017 188.705,-28.1213 188.705,-20.6146"/>
<polygon fill="midnightblue" stroke="midnightblue" points="185.205,-48.4088 188.705,-58.4088 192.205,-48.4088 185.205,-48.4088"/>
</g>
<!-- Node3 -->
<g id="node3" class="node"><title>Node3</title>
<g id="a_node3"><a xlink:href="interface_d_b_query.html" target="_top" xlink:title="DBQuery">
<polygon fill="none" stroke="black" points="160.33,-127.29 160.33,-147.22 217.08,-147.22 217.08,-127.29 160.33,-127.29"/>
<text text-anchor="middle" x="188.705" y="-135.22" font-family="Helvetica Neue" font-size="10.00">DBQuery</text>
</a>
</g>
</g>
<!-- Node3&#45;&gt;Node2 -->
<g id="edge2" class="edge"><title>Node3&#45;&gt;Node2</title>
<path fill="none" stroke="midnightblue" d="M188.705,-116.879C188.705,-104.322 188.705,-88.5305 188.705,-78.6981"/>
<polygon fill="midnightblue" stroke="midnightblue" points="185.205,-117.238 188.705,-127.238 192.205,-117.238 185.205,-117.238"/>
</g>
<!-- Node4 -->
<g id="node4" class="node"><title>Node4</title>
<polygon fill="none" stroke="#bfbfbf" points="113.035,-322.939 113.035,-342.869 172.375,-342.869 172.375,-322.939 113.035,-322.939"/>
<text text-anchor="middle" x="142.705" y="-330.869" font-family="Helvetica Neue" font-size="10.00">NSObject</text>
</g>
<!-- Node4&#45;&gt;Node3 -->
<g id="edge3" class="edge"><title>Node4&#45;&gt;Node3</title>
<path fill="none" stroke="midnightblue" d="M161.09,-316.181C183.248,-295.849 219.189,-258.09 232.705,-216.58 241.493,-189.588 215.547,-161.387 199.812,-147.339"/>
<polygon fill="midnightblue" stroke="midnightblue" points="158.742,-313.584 153.617,-322.857 163.406,-318.805 158.742,-313.584"/>
</g>
<!-- Node6 -->
<g id="node6" class="node"><title>Node6</title>
<g id="a_node6"><a xlink:href="interface_d_b.html" target="_top" xlink:title="DB">
<polygon fill="none" stroke="black" points="87.76,-196.15 87.76,-216.08 117.65,-216.08 117.65,-196.15 87.76,-196.15"/>
<text text-anchor="middle" x="102.705" y="-204.08" font-family="Helvetica Neue" font-size="10.00">DB</text>
</a>
</g>
</g>
<!-- Node4&#45;&gt;Node6 -->
<g id="edge6" class="edge"><title>Node4&#45;&gt;Node6</title>
<path fill="none" stroke="midnightblue" d="M150.86,-313.294C158.59,-292.587 167.067,-258.855 152.705,-234.58 145.241,-221.964 129.696,-214.756 117.908,-210.919"/>
<polygon fill="midnightblue" stroke="midnightblue" points="147.513,-312.233 147.011,-322.816 154.003,-314.856 147.513,-312.233"/>
</g>
<!-- Node7 -->
<g id="node7" class="node"><title>Node7</title>
<g id="a_node7"><a xlink:href="interface_d_b_connection.html" target="_top" xlink:title="DBConnection">
<polygon fill="none" stroke="black" points="57.015,-265.01 57.015,-284.939 138.395,-284.939 138.395,-265.01 57.015,-265.01"/>
<text text-anchor="middle" x="97.705" y="-272.939" font-family="Helvetica Neue" font-size="10.00">DBConnection</text>
</a>
</g>
</g>
<!-- Node4&#45;&gt;Node7 -->
<g id="edge8" class="edge"><title>Node4&#45;&gt;Node7</title>
<path fill="none" stroke="midnightblue" d="M129.106,-315.003C121.208,-305.186 111.566,-293.202 105.067,-285.124"/>
<polygon fill="midnightblue" stroke="midnightblue" points="126.479,-317.321 135.475,-322.918 131.933,-312.933 126.479,-317.321"/>
</g>
<!-- Node10 -->
<g id="node10" class="node"><title>Node10</title>
<g id="a_node10"><a xlink:href="interface_d_b_table.html" target="_top" xlink:title="DBTable">
<polygon fill="none" stroke="black" points="-1.77636e-14,-127.29 -1.77636e-14,-147.22 53.41,-147.22 53.41,-127.29 -1.77636e-14,-127.29"/>
<text text-anchor="middle" x="26.705" y="-135.22" font-family="Helvetica Neue" font-size="10.00">DBTable</text>
</a>
</g>
</g>
<!-- Node4&#45;&gt;Node10 -->
<g id="edge12" class="edge"><title>Node4&#45;&gt;Node10</title>
<path fill="none" stroke="midnightblue" d="M103.269,-322.132C83.5061,-315.178 61.0082,-303.731 47.705,-285.439 16.1264,-242.02 21.9997,-171.992 25.3124,-147.258"/>
<polygon fill="midnightblue" stroke="midnightblue" points="102.402,-325.53 112.994,-325.283 104.56,-318.871 102.402,-325.53"/>
</g>
<!-- Node5 -->
<g id="node5" class="node"><title>Node5</title>
<polygon fill="none" stroke="#bfbfbf" points="144.15,-196.15 144.15,-216.08 223.26,-216.08 223.26,-196.15 144.15,-196.15"/>
<text text-anchor="middle" x="183.705" y="-204.08" font-family="Helvetica Neue" font-size="10.00">&lt;NSCopying&gt;</text>
</g>
<!-- Node5&#45;&gt;Node3 -->
<g id="edge4" class="edge"><title>Node5&#45;&gt;Node3</title>
<path fill="none" stroke="midnightblue" d="M185.125,-186.122C186.069,-173.505 187.266,-157.491 188.009,-147.558"/>
<polygon fill="midnightblue" stroke="midnightblue" points="181.635,-185.864 184.379,-196.098 188.615,-186.386 181.635,-185.864"/>
</g>
<!-- Node6&#45;&gt;Node3 -->
<g id="edge5" class="edge"><title>Node6&#45;&gt;Node3</title>
<path fill="none" stroke="#9a32cd" stroke-dasharray="5,2" d="M116.169,-187.841C122.438,-180.477 130.301,-172.125 138.435,-165.72 147.654,-158.459 159.055,-152.057 168.668,-147.264"/>
<polygon fill="#9a32cd" stroke="#9a32cd" points="113.237,-185.898 109.621,-195.857 118.658,-190.327 113.237,-185.898"/>
<text text-anchor="middle" x="160.84" y="-169.65" font-family="Helvetica Neue" font-size="10.00"> database</text>
</g>
<!-- Node6&#45;&gt;Node10 -->
<g id="edge13" class="edge"><title>Node6&#45;&gt;Node10</title>
<path fill="none" stroke="#9a32cd" stroke-dasharray="5,2" d="M78.7343,-191.235C72.517,-187.189 66.0076,-182.532 60.435,-177.65 49.8701,-168.394 39.656,-155.79 33.2882,-147.355"/>
<polygon fill="#9a32cd" stroke="#9a32cd" points="77.1512,-194.372 87.4912,-196.682 80.8485,-188.428 77.1512,-194.372"/>
<text text-anchor="middle" x="82.84" y="-169.65" font-family="Helvetica Neue" font-size="10.00"> database</text>
</g>
<!-- Node7&#45;&gt;Node6 -->
<g id="edge7" class="edge"><title>Node7&#45;&gt;Node6</title>
<path fill="none" stroke="#9a32cd" stroke-dasharray="5,2" d="M98.8913,-254.532C99.3026,-248.171 99.7865,-241.072 100.285,-234.58 100.754,-228.471 101.359,-221.604 101.847,-216.265"/>
<polygon fill="#9a32cd" stroke="#9a32cd" points="95.3742,-254.696 98.2415,-264.895 102.36,-255.134 95.3742,-254.696"/>
<text text-anchor="middle" x="126.915" y="-238.51" font-family="Helvetica Neue" font-size="10.00"> connection</text>
</g>
<!-- Node8 -->
<g id="node8" class="node"><title>Node8</title>
<g id="a_node8"><a xlink:href="protocol_d_b_table_query-p.html" target="_top" xlink:title="\&lt;DBTableQuery\&gt;">
<polygon fill="none" stroke="black" points="38.57,-58.4299 38.57,-78.3599 130.84,-78.3599 130.84,-58.4299 38.57,-58.4299"/>
<text text-anchor="middle" x="84.705" y="-66.3599" font-family="Helvetica Neue" font-size="10.00">&lt;DBTableQuery&gt;</text>
</a>
</g>
</g>
<!-- Node8&#45;&gt;Node1 -->
<g id="edge9" class="edge"><title>Node8&#45;&gt;Node1</title>
<path fill="none" stroke="midnightblue" d="M110.475,-53.5362C129.577,-43.2631 155.078,-29.5492 171.692,-20.6146"/>
<polygon fill="midnightblue" stroke="midnightblue" points="108.564,-50.5898 101.414,-58.4088 111.879,-56.7549 108.564,-50.5898"/>
</g>
<!-- Node9 -->
<g id="node9" class="node"><title>Node9</title>
<polygon fill="none" stroke="#bfbfbf" points="71.035,-127.29 71.035,-147.22 142.375,-147.22 142.375,-127.29 71.035,-127.29"/>
<text text-anchor="middle" x="106.705" y="-135.22" font-family="Helvetica Neue" font-size="10.00">&lt;NSObject&gt;</text>
</g>
<!-- Node9&#45;&gt;Node8 -->
<g id="edge10" class="edge"><title>Node9&#45;&gt;Node8</title>
<path fill="none" stroke="midnightblue" d="M100.581,-117.643C96.4105,-104.969 91.0675,-88.7312 87.7662,-78.6981"/>
<polygon fill="midnightblue" stroke="midnightblue" points="97.2877,-118.833 103.738,-127.238 103.937,-116.645 97.2877,-118.833"/>
</g>
<!-- Node10&#45;&gt;Node8 -->
<g id="edge11" class="edge"><title>Node10&#45;&gt;Node8</title>
<path fill="none" stroke="#9a32cd" stroke-dasharray="5,2" d="M41.225,-119.517C52.423,-106.608 67.4958,-89.2329 76.6346,-78.6981"/>
<polygon fill="#9a32cd" stroke="#9a32cd" points="38.4362,-117.39 34.5271,-127.238 43.7239,-121.977 38.4362,-117.39"/>
<text text-anchor="middle" x="74.115" y="-100.79" font-family="Helvetica Neue" font-size="10.00"> table</text>
</g>
<!-- Node11 -->
<g id="node11" class="node"><title>Node11</title>
<g id="a_node11"><a xlink:href="protocol_d_b_filterable_query-p.html" target="_top" xlink:title="\&lt;DBFilterableQuery\&gt;">
<polygon fill="none" stroke="black" points="246.87,-58.4299 246.87,-78.3599 356.54,-78.3599 356.54,-58.4299 246.87,-58.4299"/>
<text text-anchor="middle" x="301.705" y="-66.3599" font-family="Helvetica Neue" font-size="10.00">&lt;DBFilterableQuery&gt;</text>
</a>
</g>
</g>
<!-- Node11&#45;&gt;Node1 -->
<g id="edge14" class="edge"><title>Node11&#45;&gt;Node1</title>
<path fill="none" stroke="midnightblue" d="M274.554,-53.9564C253.71,-43.6397 225.489,-29.6716 207.191,-20.6146"/>
<polygon fill="midnightblue" stroke="midnightblue" points="273.035,-57.1096 283.55,-58.4088 276.14,-50.836 273.035,-57.1096"/>
</g>
</g>
</svg>
