<?xml version="1.0" encoding="UTF-8" standalone="no"?>
<!DOCTYPE svg PUBLIC "-//W3C//DTD SVG 1.1//EN"
 "http://www.w3.org/Graphics/SVG/1.1/DTD/svg11.dtd">
<!-- Generated by graphviz version 2.38.0 (20140413.2041)
 -->
<!-- Title: DBSelectQuery Pages: 1 -->
<!--zoomable 365 -->
<svg id="main" version="1.1" xmlns="http://www.w3.org/2000/svg" xmlns:xlink="http://www.w3.org/1999/xlink" xml:space="preserve" onload="init(evt)">
<style type="text/css"><![CDATA[
.edge:hover path { stroke: red; }
.edge:hover polygon { stroke: red; fill: red; }
]]></style>
<script type="text/javascript"><![CDATA[
var edges = document.getElementsByTagName('g');
if (edges && edges.length) {
  for (var i=0;i<edges.length;i++) {
    if (edges[i].id.substr(0,4)=='edge') {
      edges[i].setAttribute('class','edge');
    }
  }
}
]]></script>
        <defs>
                <circle id="rim" cx="0" cy="0" r="7"/>
                <circle id="rim2" cx="0" cy="0" r="3.5"/>
                <g id="zoomPlus">
                        <use xlink:href="#rim" fill="#404040">
                                <set attributeName="fill" to="#808080" begin="zoomplus.mouseover" end="zoomplus.mouseout"/>
                        </use>
                        <path d="M-4,0h8M0,-4v8" fill="none" stroke="white" stroke-width="1.5" pointer-events="none"/>
                </g>
                <g id="zoomMin">
                        <use xlink:href="#rim" fill="#404040">
                                <set attributeName="fill" to="#808080" begin="zoomminus.mouseover" end="zoomminus.mouseout"/>
                        </use>
                        <path d="M-4,0h8" fill="none" stroke="white" stroke-width="1.5" pointer-events="none"/>
                </g>
                <g id="dirArrow">
                        <path fill="none" stroke="white" stroke-width="1.5" d="M0,-3.0v7 M-2.5,-0.5L0,-3.0L2.5,-0.5"/>
                </g>
               <g id="resetDef">
                       <use xlink:href="#rim2" fill="#404040">
                               <set attributeName="fill" to="#808080" begin="reset.mouseover" end="reset.mouseout"/>
                       </use>
               </g>
        </defs>

<script type="text/javascript">
var viewWidth = 528;
var viewHeight = 365;
var sectionId = 'dynsection-1';
</script>
<script xlink:href="svgpan.js"/>
<svg id="graph" class="graph">
<g id="viewport">
<title>DBSelectQuery</title>
<!-- Node1 -->
<g id="node1" class="node"><title>Node1</title>
<polygon fill="#bfbfbf" stroke="black" points="220.78,-1.96497 220.78,-21.8949 305.49,-21.8949 305.49,-1.96497 220.78,-1.96497"/>
<text text-anchor="middle" x="263.135" y="-9.8949" font-family="Helvetica Neue" font-size="10.00">DBSelectQuery</text>
</g>
<!-- Node1&#45;&gt;Node1 -->
<g id="edge19" class="edge"><title>Node1&#45;&gt;Node1</title>
<path fill="none" stroke="#9a32cd" stroke-dasharray="5,2" d="M315.826,-16.9676C320.535,-15.9126 323.49,-14.2334 323.49,-11.9299 323.49,-8.24438 315.925,-6.15687 305.716,-5.66738"/>
<polygon fill="#9a32cd" stroke="#9a32cd" points="315.223,-13.5151 305.716,-18.1925 316.064,-20.4643 315.223,-13.5151"/>
<text text-anchor="middle" x="349.24" y="-15.8599" font-family="Helvetica Neue" font-size="10.00"> subQuery</text>
<text text-anchor="middle" x="349.24" y="-3.92993" font-family="Helvetica Neue" font-size="10.00">unionQuery</text>
</g>
<!-- Node2 -->
<g id="node2" class="node"><title>Node2</title>
<g id="a_node2"><a xlink:href="interface_d_b_read_query.html" target="_top" xlink:title="DBReadQuery">
<polygon fill="none" stroke="black" points="-1.42109e-14,-72.2898 -1.42109e-14,-92.2197 80.27,-92.2197 80.27,-72.2898 -1.42109e-14,-72.2898"/>
<text text-anchor="middle" x="40.135" y="-80.2197" font-family="Helvetica Neue" font-size="10.00">DBReadQuery</text>
</a>
</g>
</g>
<!-- Node2&#45;&gt;Node1 -->
<g id="edge1" class="edge"><title>Node2&#45;&gt;Node1</title>
<path fill="none" stroke="midnightblue" d="M79.5544,-69.1771C123.69,-55.6544 194.197,-34.052 233.755,-21.9316"/>
<polygon fill="midnightblue" stroke="midnightblue" points="78.2836,-65.9058 69.7477,-72.1818 80.3343,-72.5987 78.2836,-65.9058"/>
</g>
<!-- Node3 -->
<g id="node3" class="node"><title>Node3</title>
<g id="a_node3"><a xlink:href="interface_d_b_query.html" target="_top" xlink:title="DBQuery">
<polygon fill="none" stroke="black" points="27.76,-141.15 27.76,-161.08 84.51,-161.08 84.51,-141.15 27.76,-141.15"/>
<text text-anchor="middle" x="56.135" y="-149.08" font-family="Helvetica Neue" font-size="10.00">DBQuery</text>
</a>
</g>
</g>
<!-- Node3&#45;&gt;Node2 -->
<g id="edge2" class="edge"><title>Node3&#45;&gt;Node2</title>
<path fill="none" stroke="midnightblue" d="M51.59,-131.122C48.5705,-118.505 44.7383,-102.491 42.3613,-92.5579"/>
<polygon fill="midnightblue" stroke="midnightblue" points="48.2459,-132.187 53.9772,-141.098 55.0536,-130.558 48.2459,-132.187"/>
</g>
<!-- Node4 -->
<g id="node4" class="node"><title>Node4</title>
<polygon fill="none" stroke="#bfbfbf" points="175.465,-336.799 175.465,-356.729 234.805,-356.729 234.805,-336.799 175.465,-336.799"/>
<text text-anchor="middle" x="205.135" y="-344.729" font-family="Helvetica Neue" font-size="10.00">NSObject</text>
</g>
<!-- Node4&#45;&gt;Node3 -->
<g id="edge3" class="edge"><title>Node4&#45;&gt;Node3</title>
<path fill="none" stroke="midnightblue" d="M178.949,-331.829C147.04,-313.309 94.2821,-277.38 69.135,-230.439 57.0279,-207.84 55.6513,-176.733 55.8037,-161.411"/>
<polygon fill="midnightblue" stroke="midnightblue" points="177.314,-334.926 187.742,-336.799 180.758,-328.832 177.314,-334.926"/>
</g>
<!-- Node6 -->
<g id="node6" class="node"><title>Node6</title>
<g id="a_node6"><a xlink:href="interface_d_b.html" target="_top" xlink:title="DB">
<polygon fill="none" stroke="black" points="184.19,-210.01 184.19,-229.939 214.08,-229.939 214.08,-210.01 184.19,-210.01"/>
<text text-anchor="middle" x="199.135" y="-217.939" font-family="Helvetica Neue" font-size="10.00">DB</text>
</a>
</g>
</g>
<!-- Node4&#45;&gt;Node6 -->
<g id="edge6" class="edge"><title>Node4&#45;&gt;Node6</title>
<path fill="none" stroke="midnightblue" d="M181.459,-330.503C171.338,-322.553 160.609,-311.86 155.135,-299.299 143.731,-273.134 171.115,-244.353 187.66,-230.066"/>
<polygon fill="midnightblue" stroke="midnightblue" points="179.549,-333.443 189.688,-336.517 183.679,-327.791 179.549,-333.443"/>
</g>
<!-- Node7 -->
<g id="node7" class="node"><title>Node7</title>
<g id="a_node7"><a xlink:href="interface_d_b_connection.html" target="_top" xlink:title="DBConnection">
<polygon fill="none" stroke="black" points="164.445,-278.869 164.445,-298.799 245.825,-298.799 245.825,-278.869 164.445,-278.869"/>
<text text-anchor="middle" x="205.135" y="-286.799" font-family="Helvetica Neue" font-size="10.00">DBConnection</text>
</a>
</g>
</g>
<!-- Node4&#45;&gt;Node7 -->
<g id="edge8" class="edge"><title>Node4&#45;&gt;Node7</title>
<path fill="none" stroke="midnightblue" d="M205.135,-326.75C205.135,-317.371 205.135,-306.491 205.135,-298.984"/>
<polygon fill="midnightblue" stroke="midnightblue" points="201.635,-326.778 205.135,-336.778 208.635,-326.778 201.635,-326.778"/>
</g>
<!-- Node10 -->
<g id="node10" class="node"><title>Node10</title>
<g id="a_node10"><a xlink:href="interface_d_b_table.html" target="_top" xlink:title="DBTable">
<polygon fill="none" stroke="black" points="232.43,-141.15 232.43,-161.08 285.84,-161.08 285.84,-141.15 232.43,-141.15"/>
<text text-anchor="middle" x="259.135" y="-149.08" font-family="Helvetica Neue" font-size="10.00">DBTable</text>
</a>
</g>
</g>
<!-- Node4&#45;&gt;Node10 -->
<g id="edge12" class="edge"><title>Node4&#45;&gt;Node10</title>
<path fill="none" stroke="midnightblue" d="M227.833,-330.559C237.942,-322.516 248.942,-311.729 255.135,-299.299 278.617,-252.166 266.898,-185.583 261.424,-161.371"/>
<polygon fill="midnightblue" stroke="midnightblue" points="225.597,-327.86 219.676,-336.646 229.784,-333.47 225.597,-327.86"/>
</g>
<!-- Node13 -->
<g id="node13" class="node"><title>Node13</title>
<g id="a_node13"><a xlink:href="interface_d_b_join.html" target="_top" xlink:title="DBJoin">
<polygon fill="none" stroke="black" points="471.835,-72.2898 471.835,-92.2197 520.435,-92.2197 520.435,-72.2898 471.835,-72.2898"/>
<text text-anchor="middle" x="496.135" y="-80.2197" font-family="Helvetica Neue" font-size="10.00">DBJoin</text>
</a>
</g>
</g>
<!-- Node4&#45;&gt;Node13 -->
<g id="edge17" class="edge"><title>Node4&#45;&gt;Node13</title>
<path fill="none" stroke="midnightblue" d="M245.119,-343.481C280.36,-339.047 326.135,-326.274 326.135,-289.834 326.135,-289.834 326.135,-289.834 326.135,-150.115 326.135,-134.654 424.772,-103.953 471.778,-90.2007"/>
<polygon fill="midnightblue" stroke="midnightblue" points="244.613,-340.015 235.045,-344.565 245.362,-346.975 244.613,-340.015"/>
</g>
<!-- Node5 -->
<g id="node5" class="node"><title>Node5</title>
<polygon fill="none" stroke="#bfbfbf" points="78.58,-210.01 78.58,-229.939 157.69,-229.939 157.69,-210.01 78.58,-210.01"/>
<text text-anchor="middle" x="118.135" y="-217.939" font-family="Helvetica Neue" font-size="10.00">&lt;NSCopying&gt;</text>
</g>
<!-- Node5&#45;&gt;Node3 -->
<g id="edge4" class="edge"><title>Node5&#45;&gt;Node3</title>
<path fill="none" stroke="midnightblue" d="M102.954,-202.604C90.9508,-189.659 74.624,-172.053 64.7619,-161.418"/>
<polygon fill="midnightblue" stroke="midnightblue" points="100.407,-205.005 109.773,-209.957 105.54,-200.245 100.407,-205.005"/>
</g>
<!-- Node6&#45;&gt;Node3 -->
<g id="edge5" class="edge"><title>Node6&#45;&gt;Node3</title>
<path fill="none" stroke="#9a32cd" stroke-dasharray="5,2" d="M174.985,-207.683C146.956,-194.578 101.291,-173.227 75.488,-161.163"/>
<polygon fill="#9a32cd" stroke="#9a32cd" points="173.561,-210.881 184.102,-211.946 176.525,-204.54 173.561,-210.881"/>
<text text-anchor="middle" x="159.27" y="-183.51" font-family="Helvetica Neue" font-size="10.00"> database</text>
</g>
<!-- Node6&#45;&gt;Node10 -->
<g id="edge13" class="edge"><title>Node6&#45;&gt;Node10</title>
<path fill="none" stroke="#9a32cd" stroke-dasharray="5,2" d="M204.663,-199.709C207.284,-192.843 210.945,-185.381 215.865,-179.58 222.311,-171.98 231.399,-165.773 239.583,-161.194"/>
<polygon fill="#9a32cd" stroke="#9a32cd" points="201.181,-199.091 201.367,-209.684 207.827,-201.287 201.181,-199.091"/>
<text text-anchor="middle" x="238.27" y="-183.51" font-family="Helvetica Neue" font-size="10.00"> database</text>
</g>
<!-- Node7&#45;&gt;Node6 -->
<g id="edge7" class="edge"><title>Node7&#45;&gt;Node6</title>
<path fill="none" stroke="#9a32cd" stroke-dasharray="5,2" d="M203.431,-268.842C202.298,-256.224 200.861,-240.21 199.97,-230.278"/>
<polygon fill="#9a32cd" stroke="#9a32cd" points="199.946,-269.17 204.326,-278.817 206.918,-268.544 199.946,-269.17"/>
<text text-anchor="middle" x="229.345" y="-252.369" font-family="Helvetica Neue" font-size="10.00"> connection</text>
</g>
<!-- Node8 -->
<g id="node8" class="node"><title>Node8</title>
<g id="a_node8"><a xlink:href="protocol_d_b_table_query-p.html" target="_top" xlink:title="\&lt;DBTableQuery\&gt;">
<polygon fill="none" stroke="black" points="98,-72.2898 98,-92.2197 190.27,-92.2197 190.27,-72.2898 98,-72.2898"/>
<text text-anchor="middle" x="144.135" y="-80.2197" font-family="Helvetica Neue" font-size="10.00">&lt;DBTableQuery&gt;</text>
</a>
</g>
</g>
<!-- Node8&#45;&gt;Node1 -->
<g id="edge9" class="edge"><title>Node8&#45;&gt;Node1</title>
<path fill="none" stroke="midnightblue" d="M168.926,-67.0207C192.517,-53.4756 227.302,-33.5038 247.34,-21.9985"/>
<polygon fill="midnightblue" stroke="midnightblue" points="167.113,-64.0256 160.184,-72.0402 170.599,-70.0962 167.113,-64.0256"/>
</g>
<!-- Node9 -->
<g id="node9" class="node"><title>Node9</title>
<polygon fill="none" stroke="#bfbfbf" points="108.465,-141.15 108.465,-161.08 179.805,-161.08 179.805,-141.15 108.465,-141.15"/>
<text text-anchor="middle" x="144.135" y="-149.08" font-family="Helvetica Neue" font-size="10.00">&lt;NSObject&gt;</text>
</g>
<!-- Node9&#45;&gt;Node8 -->
<g id="edge10" class="edge"><title>Node9&#45;&gt;Node8</title>
<path fill="none" stroke="midnightblue" d="M144.135,-130.739C144.135,-118.182 144.135,-102.39 144.135,-92.5579"/>
<polygon fill="midnightblue" stroke="midnightblue" points="140.635,-131.098 144.135,-141.098 147.635,-131.098 140.635,-131.098"/>
</g>
<!-- Node10&#45;&gt;Node8 -->
<g id="edge11" class="edge"><title>Node10&#45;&gt;Node8</title>
<path fill="none" stroke="#9a32cd" stroke-dasharray="5,2" d="M234.926,-136.04C212.277,-122.872 179.115,-103.592 159.766,-92.3425"/>
<polygon fill="#9a32cd" stroke="#9a32cd" points="233.221,-139.097 243.626,-141.098 236.74,-133.046 233.221,-139.097"/>
<text text-anchor="middle" x="221.545" y="-114.65" font-family="Helvetica Neue" font-size="10.00"> table</text>
</g>
<!-- Node10&#45;&gt;Node13 -->
<g id="edge18" class="edge"><title>Node10&#45;&gt;Node13</title>
<path fill="none" stroke="#9a32cd" stroke-dasharray="5,2" d="M267.732,-131.88C272.396,-124.043 278.939,-115.582 287.315,-110.72 321.282,-91.0024 424.571,-100.163 463.135,-92.7197 465.944,-92.1775 468.86,-91.5059 471.744,-90.7725"/>
<polygon fill="#9a32cd" stroke="#9a32cd" points="264.57,-130.372 262.978,-140.847 270.754,-133.651 264.57,-130.372"/>
<text text-anchor="middle" x="300.545" y="-114.65" font-family="Helvetica Neue" font-size="10.00"> table</text>
</g>
<!-- Node11 -->
<g id="node11" class="node"><title>Node11</title>
<g id="a_node11"><a xlink:href="protocol_d_b_filterable_query-p.html" target="_top" xlink:title="\&lt;DBFilterableQuery\&gt;">
<polygon fill="none" stroke="black" points="208.3,-72.2898 208.3,-92.2197 317.97,-92.2197 317.97,-72.2898 208.3,-72.2898"/>
<text text-anchor="middle" x="263.135" y="-80.2197" font-family="Helvetica Neue" font-size="10.00">&lt;DBFilterableQuery&gt;</text>
</a>
</g>
</g>
<!-- Node11&#45;&gt;Node1 -->
<g id="edge14" class="edge"><title>Node11&#45;&gt;Node1</title>
<path fill="none" stroke="midnightblue" d="M263.135,-61.7186C263.135,-48.6568 263.135,-32.0784 263.135,-21.9985"/>
<polygon fill="midnightblue" stroke="midnightblue" points="259.635,-62.0401 263.135,-72.0402 266.635,-62.0402 259.635,-62.0401"/>
</g>
<!-- Node12 -->
<g id="node12" class="node"><title>Node12</title>
<polygon fill="none" stroke="#bfbfbf" points="336.405,-72.2898 336.405,-92.2197 453.865,-92.2197 453.865,-72.2898 336.405,-72.2898"/>
<text text-anchor="middle" x="395.135" y="-80.2197" font-family="Helvetica Neue" font-size="10.00">&lt;NSFastEnumeration&gt;</text>
</g>
<!-- Node12&#45;&gt;Node1 -->
<g id="edge15" class="edge"><title>Node12&#45;&gt;Node1</title>
<path fill="none" stroke="midnightblue" d="M368.621,-67.5306C342.475,-53.9975 303.257,-33.6978 280.736,-22.0405"/>
<polygon fill="midnightblue" stroke="midnightblue" points="367.117,-70.6932 377.606,-72.1818 370.334,-64.4766 367.117,-70.6932"/>
</g>
<!-- Node13&#45;&gt;Node1 -->
<g id="edge16" class="edge"><title>Node13&#45;&gt;Node1</title>
<path fill="none" stroke="#9a32cd" stroke-dasharray="5,2" d="M461.977,-71.2382C416.682,-57.9561 337.414,-34.7115 293.897,-21.9506"/>
<polygon fill="#9a32cd" stroke="#9a32cd" points="461.059,-74.6165 471.64,-74.0719 463.029,-67.8994 461.059,-74.6165"/>
<text text-anchor="middle" x="410.395" y="-45.7898" font-family="Helvetica Neue" font-size="10.00"> join</text>
</g>
</g>
</svg>
        <g id="navigator" transform="translate(0 0)" fill="#404254">
                <rect fill="#f2f5e9" fill-opacity="0.5" stroke="#606060" stroke-width=".5" x="0" y="0" width="60" height="60"/>
                <use id="zoomplus" xlink:href="#zoomPlus" x="17" y="9" onmousedown="handleZoom(evt,'in')"/>
                <use id="zoomminus" xlink:href="#zoomMin" x="42" y="9" onmousedown="handleZoom(evt,'out')"/>
                <use id="reset" xlink:href="#resetDef" x="30" y="36" onmousedown="handleReset()"/>
                <g id="arrowUp" xlink:href="#dirArrow" transform="translate(30 24)" onmousedown="handlePan(0,-1)">
                  <use xlink:href="#rim" fill="#404040">
                        <set attributeName="fill" to="#808080" begin="arrowUp.mouseover" end="arrowUp.mouseout"/>
                  </use>
                  <path fill="none" stroke="white" stroke-width="1.5" d="M0,-3.0v7 M-2.5,-0.5L0,-3.0L2.5,-0.5"/>
                </g>
                <g id="arrowRight" xlink:href="#dirArrow" transform="rotate(90) translate(36 -43)" onmousedown="handlePan(1,0)">
                  <use xlink:href="#rim" fill="#404040">
                        <set attributeName="fill" to="#808080" begin="arrowRight.mouseover" end="arrowRight.mouseout"/>
                  </use>
                  <path fill="none" stroke="white" stroke-width="1.5" d="M0,-3.0v7 M-2.5,-0.5L0,-3.0L2.5,-0.5"/>
                </g>
                <g id="arrowDown" xlink:href="#dirArrow" transform="rotate(180) translate(-30 -48)" onmousedown="handlePan(0,1)">
                  <use xlink:href="#rim" fill="#404040">
                        <set attributeName="fill" to="#808080" begin="arrowDown.mouseover" end="arrowDown.mouseout"/>
                  </use>
                  <path fill="none" stroke="white" stroke-width="1.5" d="M0,-3.0v7 M-2.5,-0.5L0,-3.0L2.5,-0.5"/>
                </g>
                <g id="arrowLeft" xlink:href="#dirArrow" transform="rotate(270) translate(-36 17)" onmousedown="handlePan(-1,0)">
                  <use xlink:href="#rim" fill="#404040">
                        <set attributeName="fill" to="#808080" begin="arrowLeft.mouseover" end="arrowLeft.mouseout"/>
                  </use>
                  <path fill="none" stroke="white" stroke-width="1.5" d="M0,-3.0v7 M-2.5,-0.5L0,-3.0L2.5,-0.5"/>
                </g>
        </g>
        <svg viewBox="0 0 15 15" width="100%" height="30px" preserveAspectRatio="xMaxYMin meet">
         <g id="arrow_out" transform="scale(0.3 0.3)">
          <a xlink:href="interface_d_b_select_query__coll__graph_org.svg" target="_base">
           <rect id="button" ry="5" rx="5" y="6" x="6" height="38" width="38"
                fill="#f2f5e9" fill-opacity="0.5" stroke="#606060" stroke-width="1.0"/>
           <path id="arrow"
             d="M 11.500037,31.436501 C 11.940474,20.09759 22.043105,11.32322 32.158766,21.979434 L 37.068811,17.246167 C 37.068811,17.246167 37.088388,32 37.088388,32 L 22.160133,31.978069 C 22.160133,31.978069 26.997745,27.140456 26.997745,27.140456 C 18.528582,18.264221 13.291696,25.230495 11.500037,31.436501 z"
             style="fill:#404040;"/>
          </a>
         </g>
        </svg>
</svg>
