<?xml version="1.0" encoding="UTF-8" standalone="no"?>
<!DOCTYPE svg PUBLIC "-//W3C//DTD SVG 1.1//EN"
 "http://www.w3.org/Graphics/SVG/1.1/DTD/svg11.dtd">
<!-- Generated by graphviz version 2.38.0 (20140413.2041)
 -->
<!-- Title: DBReadQuery Pages: 1 -->
<svg width="161pt" height="283pt"
 viewBox="0.00 0.00 160.69 282.51" xmlns="http://www.w3.org/2000/svg" xmlns:xlink="http://www.w3.org/1999/xlink">
<g id="graph0" class="graph" transform="scale(1 1) rotate(0) translate(4 278.51)">
<title>DBReadQuery</title>
<!-- Node1 -->
<g id="node1" class="node"><title>Node1</title>
<polygon fill="#bfbfbf" stroke="black" points="0,-0.5 0,-20.4299 80.27,-20.4299 80.27,-0.5 0,-0.5"/>
<text text-anchor="middle" x="40.135" y="-8.42993" font-family="Helvetica Neue" font-size="10.00">DBReadQuery</text>
</g>
<!-- Node2 -->
<g id="node2" class="node"><title>Node2</title>
<g id="a_node2"><a xlink:href="interface_d_b_query.html" target="_top" xlink:title="DBQuery">
<polygon fill="none" stroke="black" points="11.76,-58.4299 11.76,-78.3599 68.51,-78.3599 68.51,-58.4299 11.76,-58.4299"/>
<text text-anchor="middle" x="40.135" y="-66.3599" font-family="Helvetica Neue" font-size="10.00">DBQuery</text>
</a>
</g>
</g>
<!-- Node2&#45;&gt;Node1 -->
<g id="edge1" class="edge"><title>Node2&#45;&gt;Node1</title>
<path fill="none" stroke="midnightblue" d="M40.135,-48.3806C40.135,-39.0017 40.135,-28.1213 40.135,-20.6146"/>
<polygon fill="midnightblue" stroke="midnightblue" points="36.6351,-48.4088 40.135,-58.4088 43.6351,-48.4088 36.6351,-48.4088"/>
</g>
<!-- Node3 -->
<g id="node3" class="node"><title>Node3</title>
<polygon fill="none" stroke="#bfbfbf" points="5.465,-254.08 5.465,-274.01 64.805,-274.01 64.805,-254.08 5.465,-254.08"/>
<text text-anchor="middle" x="35.135" y="-262.01" font-family="Helvetica Neue" font-size="10.00">NSObject</text>
</g>
<!-- Node3&#45;&gt;Node2 -->
<g id="edge2" class="edge"><title>Node3&#45;&gt;Node2</title>
<path fill="none" stroke="midnightblue" d="M28.5359,-244.247C20.1715,-217.855 7.78853,-168.385 16.135,-126.79 19.7473,-108.788 29.1455,-89.3848 35.0523,-78.38"/>
<polygon fill="midnightblue" stroke="midnightblue" points="25.3218,-245.673 31.8025,-254.055 31.9631,-243.461 25.3218,-245.673"/>
</g>
<!-- Node5 -->
<g id="node5" class="node"><title>Node5</title>
<g id="a_node5"><a xlink:href="interface_d_b.html" target="_top" xlink:title="DB">
<polygon fill="none" stroke="black" points="25.19,-127.29 25.19,-147.22 55.08,-147.22 55.08,-127.29 25.19,-127.29"/>
<text text-anchor="middle" x="40.135" y="-135.22" font-family="Helvetica Neue" font-size="10.00">DB</text>
</a>
</g>
</g>
<!-- Node3&#45;&gt;Node5 -->
<g id="edge5" class="edge"><title>Node3&#45;&gt;Node5</title>
<path fill="none" stroke="midnightblue" d="M35.9036,-243.863C36.9951,-216.619 38.9522,-167.775 39.7652,-147.485"/>
<polygon fill="midnightblue" stroke="midnightblue" points="32.3978,-243.938 35.4946,-254.07 39.3922,-244.218 32.3978,-243.938"/>
</g>
<!-- Node6 -->
<g id="node6" class="node"><title>Node6</title>
<g id="a_node6"><a xlink:href="interface_d_b_connection.html" target="_top" xlink:title="DBConnection">
<polygon fill="none" stroke="black" points="63.445,-196.15 63.445,-216.08 144.825,-216.08 144.825,-196.15 63.445,-196.15"/>
<text text-anchor="middle" x="104.135" y="-204.08" font-family="Helvetica Neue" font-size="10.00">DBConnection</text>
</a>
</g>
</g>
<!-- Node3&#45;&gt;Node6 -->
<g id="edge7" class="edge"><title>Node3&#45;&gt;Node6</title>
<path fill="none" stroke="midnightblue" d="M54.1729,-247.613C66.5908,-237.547 82.3784,-224.75 92.8472,-216.264"/>
<polygon fill="midnightblue" stroke="midnightblue" points="51.7856,-245.043 46.221,-254.058 56.1934,-250.48 51.7856,-245.043"/>
</g>
<!-- Node4 -->
<g id="node4" class="node"><title>Node4</title>
<polygon fill="none" stroke="#bfbfbf" points="73.58,-127.29 73.58,-147.22 152.69,-147.22 152.69,-127.29 73.58,-127.29"/>
<text text-anchor="middle" x="113.135" y="-135.22" font-family="Helvetica Neue" font-size="10.00">&lt;NSCopying&gt;</text>
</g>
<!-- Node4&#45;&gt;Node2 -->
<g id="edge3" class="edge"><title>Node4&#45;&gt;Node2</title>
<path fill="none" stroke="midnightblue" d="M104.144,-118.162C99.9617,-110.951 94.4975,-102.938 88.135,-96.8599 80.2205,-89.2995 69.8363,-83.0262 60.7515,-78.3929"/>
<polygon fill="midnightblue" stroke="midnightblue" points="101.205,-120.086 109.018,-127.242 107.373,-116.776 101.205,-120.086"/>
</g>
<!-- Node5&#45;&gt;Node2 -->
<g id="edge4" class="edge"><title>Node5&#45;&gt;Node2</title>
<path fill="none" stroke="#9a32cd" stroke-dasharray="5,2" d="M40.135,-116.879C40.135,-104.322 40.135,-88.5305 40.135,-78.6981"/>
<polygon fill="#9a32cd" stroke="#9a32cd" points="36.6351,-117.238 40.135,-127.238 43.6351,-117.238 36.6351,-117.238"/>
<text text-anchor="middle" x="62.27" y="-100.79" font-family="Helvetica Neue" font-size="10.00"> database</text>
</g>
<!-- Node6&#45;&gt;Node5 -->
<g id="edge6" class="edge"><title>Node6&#45;&gt;Node5</title>
<path fill="none" stroke="#9a32cd" stroke-dasharray="5,2" d="M88.4648,-188.744C76.0739,-175.8 59.2205,-158.193 49.0402,-147.558"/>
<polygon fill="#9a32cd" stroke="#9a32cd" points="86.0604,-191.294 95.5037,-196.098 91.1171,-186.453 86.0604,-191.294"/>
<text text-anchor="middle" x="102.345" y="-169.65" font-family="Helvetica Neue" font-size="10.00"> connection</text>
</g>
</g>
</svg>
