<?xml version="1.0" encoding="UTF-8" standalone="no"?>
<!DOCTYPE svg PUBLIC "-//W3C//DTD SVG 1.1//EN"
 "http://www.w3.org/Graphics/SVG/1.1/DTD/svg11.dtd">
<!-- Generated by graphviz version 2.38.0 (20140413.2041)
 -->
<!-- Title: DBInsertQuery Pages: 1 -->
<svg width="231pt" height="257pt"
 viewBox="0.00 0.00 230.81 256.65" xmlns="http://www.w3.org/2000/svg" xmlns:xlink="http://www.w3.org/1999/xlink">
<g id="graph0" class="graph" transform="scale(1 1) rotate(0) translate(4 252.65)">
<title>DBInsertQuery</title>
<!-- Node1 -->
<g id="node1" class="node"><title>Node1</title>
<polygon fill="#bfbfbf" stroke="black" points="83.795,-57.4299 83.795,-77.3599 165.545,-77.3599 165.545,-57.4299 83.795,-57.4299"/>
<text text-anchor="middle" x="124.67" y="-65.3599" font-family="Helvetica Neue" font-size="10.00">DBInsertQuery</text>
</g>
<!-- Node8 -->
<g id="node8" class="node"><title>Node8</title>
<g id="a_node8"><a xlink:href="interface_d_b_update_query.html" target="_top" xlink:title="DBUpdateQuery">
<polygon fill="none" stroke="black" points="79.81,-0.5 79.81,-20.4299 169.53,-20.4299 169.53,-0.5 79.81,-0.5"/>
<text text-anchor="middle" x="124.67" y="-8.42993" font-family="Helvetica Neue" font-size="10.00">DBUpdateQuery</text>
</a>
</g>
</g>
<!-- Node1&#45;&gt;Node8 -->
<g id="edge7" class="edge"><title>Node1&#45;&gt;Node8</title>
<path fill="none" stroke="midnightblue" d="M124.67,-47.3023C124.67,-38.3046 124.67,-27.9812 124.67,-20.7326"/>
<polygon fill="midnightblue" stroke="midnightblue" points="121.17,-47.3243 124.67,-57.3243 128.17,-47.3244 121.17,-47.3243"/>
</g>
<!-- Node2 -->
<g id="node2" class="node"><title>Node2</title>
<g id="a_node2"><a xlink:href="interface_d_b_write_query.html" target="_top" xlink:title="DBWriteQuery">
<polygon fill="none" stroke="black" points="32.72,-114.36 32.72,-134.29 112.62,-134.29 112.62,-114.36 32.72,-114.36"/>
<text text-anchor="middle" x="72.67" y="-122.29" font-family="Helvetica Neue" font-size="10.00">DBWriteQuery</text>
</a>
</g>
</g>
<!-- Node2&#45;&gt;Node1 -->
<g id="edge1" class="edge"><title>Node2&#45;&gt;Node1</title>
<path fill="none" stroke="midnightblue" d="M88.2578,-106.859C97.3005,-97.3065 108.356,-85.6281 115.897,-77.6625"/>
<polygon fill="midnightblue" stroke="midnightblue" points="85.5898,-104.586 81.2567,-114.254 90.6733,-109.398 85.5898,-104.586"/>
</g>
<!-- Node3 -->
<g id="node3" class="node"><title>Node3</title>
<g id="a_node3"><a xlink:href="interface_d_b_query.html" target="_top" xlink:title="DBQuery">
<polygon fill="none" stroke="black" points="44.295,-171.29 44.295,-191.22 101.045,-191.22 101.045,-171.29 44.295,-171.29"/>
<text text-anchor="middle" x="72.67" y="-179.22" font-family="Helvetica Neue" font-size="10.00">DBQuery</text>
</a>
</g>
</g>
<!-- Node3&#45;&gt;Node2 -->
<g id="edge2" class="edge"><title>Node3&#45;&gt;Node2</title>
<path fill="none" stroke="midnightblue" d="M72.67,-161.162C72.67,-152.164 72.67,-141.841 72.67,-134.592"/>
<polygon fill="midnightblue" stroke="midnightblue" points="69.1701,-161.184 72.67,-171.184 76.1701,-161.184 69.1701,-161.184"/>
</g>
<!-- Node4 -->
<g id="node4" class="node"><title>Node4</title>
<polygon fill="none" stroke="#bfbfbf" points="3.55271e-15,-228.22 3.55271e-15,-248.15 59.34,-248.15 59.34,-228.22 3.55271e-15,-228.22"/>
<text text-anchor="middle" x="29.67" y="-236.15" font-family="Helvetica Neue" font-size="10.00">NSObject</text>
</g>
<!-- Node4&#45;&gt;Node3 -->
<g id="edge3" class="edge"><title>Node4&#45;&gt;Node3</title>
<path fill="none" stroke="midnightblue" d="M43.0105,-220.143C50.402,-210.701 59.3043,-199.329 65.4152,-191.522"/>
<polygon fill="midnightblue" stroke="midnightblue" points="40.1787,-218.082 36.7706,-228.114 45.6907,-222.397 40.1787,-218.082"/>
</g>
<!-- Node5 -->
<g id="node5" class="node"><title>Node5</title>
<polygon fill="none" stroke="#bfbfbf" points="77.115,-228.22 77.115,-248.15 156.225,-248.15 156.225,-228.22 77.115,-228.22"/>
<text text-anchor="middle" x="116.67" y="-236.15" font-family="Helvetica Neue" font-size="10.00">&lt;NSCopying&gt;</text>
</g>
<!-- Node5&#45;&gt;Node3 -->
<g id="edge4" class="edge"><title>Node5&#45;&gt;Node3</title>
<path fill="none" stroke="midnightblue" d="M103.019,-220.143C95.4558,-210.701 86.3465,-199.329 80.0936,-191.522"/>
<polygon fill="midnightblue" stroke="midnightblue" points="100.421,-222.497 109.404,-228.114 105.884,-218.121 100.421,-222.497"/>
</g>
<!-- Node6 -->
<g id="node6" class="node"><title>Node6</title>
<g id="a_node6"><a xlink:href="protocol_d_b_table_query-p.html" target="_top" xlink:title="\&lt;DBTableQuery\&gt;">
<polygon fill="none" stroke="black" points="130.535,-114.36 130.535,-134.29 222.805,-134.29 222.805,-114.36 130.535,-114.36"/>
<text text-anchor="middle" x="176.67" y="-122.29" font-family="Helvetica Neue" font-size="10.00">&lt;DBTableQuery&gt;</text>
</a>
</g>
</g>
<!-- Node6&#45;&gt;Node1 -->
<g id="edge5" class="edge"><title>Node6&#45;&gt;Node1</title>
<path fill="none" stroke="midnightblue" d="M161.082,-106.859C152.04,-97.3065 140.984,-85.6281 133.443,-77.6625"/>
<polygon fill="midnightblue" stroke="midnightblue" points="158.667,-109.398 168.083,-114.254 163.75,-104.586 158.667,-109.398"/>
</g>
<!-- Node7 -->
<g id="node7" class="node"><title>Node7</title>
<polygon fill="none" stroke="#bfbfbf" points="141,-171.29 141,-191.22 212.34,-191.22 212.34,-171.29 141,-171.29"/>
<text text-anchor="middle" x="176.67" y="-179.22" font-family="Helvetica Neue" font-size="10.00">&lt;NSObject&gt;</text>
</g>
<!-- Node7&#45;&gt;Node6 -->
<g id="edge6" class="edge"><title>Node7&#45;&gt;Node6</title>
<path fill="none" stroke="midnightblue" d="M176.67,-161.162C176.67,-152.164 176.67,-141.841 176.67,-134.592"/>
<polygon fill="midnightblue" stroke="midnightblue" points="173.17,-161.184 176.67,-171.184 180.17,-161.184 173.17,-161.184"/>
</g>
</g>
</svg>
