<?xml version="1.0" encoding="UTF-8" standalone="no"?>
<!DOCTYPE svg PUBLIC "-//W3C//DTD SVG 1.1//EN"
 "http://www.w3.org/Graphics/SVG/1.1/DTD/svg11.dtd">
<!-- Generated by graphviz version 2.38.0 (20140413.2041)
 -->
<!-- Title: DBConnectionPool Pages: 1 -->
<svg width="162pt" height="214pt"
 viewBox="0.00 0.00 162.31 213.65" xmlns="http://www.w3.org/2000/svg" xmlns:xlink="http://www.w3.org/1999/xlink">
<g id="graph0" class="graph" transform="scale(1 1) rotate(0) translate(4 209.65)">
<title>DBConnectionPool</title>
<!-- Node1 -->
<g id="node1" class="node"><title>Node1</title>
<polygon fill="#bfbfbf" stroke="black" points="5.845,-0.5 5.845,-20.4299 107.405,-20.4299 107.405,-0.5 5.845,-0.5"/>
<text text-anchor="middle" x="56.625" y="-8.42993" font-family="Helvetica Neue" font-size="10.00">DBConnectionPool</text>
</g>
<!-- Node2 -->
<g id="node2" class="node"><title>Node2</title>
<g id="a_node2"><a xlink:href="interface_d_b_connection_proxy.html" target="_top" xlink:title="DBConnectionProxy">
<polygon fill="none" stroke="black" points="3.16,-58.4299 3.16,-78.3599 110.09,-78.3599 110.09,-58.4299 3.16,-58.4299"/>
<text text-anchor="middle" x="56.625" y="-66.3599" font-family="Helvetica Neue" font-size="10.00">DBConnectionProxy</text>
</a>
</g>
</g>
<!-- Node2&#45;&gt;Node1 -->
<g id="edge1" class="edge"><title>Node2&#45;&gt;Node1</title>
<path fill="none" stroke="midnightblue" d="M56.625,-48.3806C56.625,-39.0017 56.625,-28.1213 56.625,-20.6146"/>
<polygon fill="midnightblue" stroke="midnightblue" points="53.1251,-48.4088 56.625,-58.4088 60.1251,-48.4088 53.1251,-48.4088"/>
</g>
<!-- Node3 -->
<g id="node3" class="node"><title>Node3</title>
<polygon fill="none" stroke="#bfbfbf" points="0,-127.29 0,-147.22 55.25,-147.22 55.25,-127.29 0,-127.29"/>
<text text-anchor="middle" x="27.625" y="-135.22" font-family="Helvetica Neue" font-size="10.00">NSProxy</text>
</g>
<!-- Node3&#45;&gt;Node2 -->
<g id="edge2" class="edge"><title>Node3&#45;&gt;Node2</title>
<path fill="none" stroke="midnightblue" d="M35.5331,-118.023C41.0539,-105.294 48.1945,-88.8315 52.5898,-78.6981"/>
<polygon fill="midnightblue" stroke="midnightblue" points="32.3044,-116.671 31.5361,-127.238 38.7263,-119.456 32.3044,-116.671"/>
</g>
<!-- Node4 -->
<g id="node4" class="node"><title>Node4</title>
<g id="a_node4"><a xlink:href="interface_d_b_connection.html" target="_top" xlink:title="DBConnection">
<polygon fill="none" stroke="black" points="72.935,-127.29 72.935,-147.22 154.315,-147.22 154.315,-127.29 72.935,-127.29"/>
<text text-anchor="middle" x="113.625" y="-135.22" font-family="Helvetica Neue" font-size="10.00">DBConnection</text>
</a>
</g>
</g>
<!-- Node4&#45;&gt;Node2 -->
<g id="edge3" class="edge"><title>Node4&#45;&gt;Node2</title>
<path fill="none" stroke="#9a32cd" stroke-dasharray="5,2" d="M99.3553,-119.517C88.3504,-106.608 73.5374,-89.2329 64.5562,-78.6981"/>
<polygon fill="#9a32cd" stroke="#9a32cd" points="96.7866,-121.899 105.938,-127.238 102.114,-117.357 96.7866,-121.899"/>
<text text-anchor="middle" x="113.835" y="-100.79" font-family="Helvetica Neue" font-size="10.00"> connection</text>
</g>
<!-- Node5 -->
<g id="node5" class="node"><title>Node5</title>
<polygon fill="none" stroke="#bfbfbf" points="83.955,-185.22 83.955,-205.15 143.295,-205.15 143.295,-185.22 83.955,-185.22"/>
<text text-anchor="middle" x="113.625" y="-193.15" font-family="Helvetica Neue" font-size="10.00">NSObject</text>
</g>
<!-- Node5&#45;&gt;Node4 -->
<g id="edge4" class="edge"><title>Node5&#45;&gt;Node4</title>
<path fill="none" stroke="midnightblue" d="M113.625,-175.17C113.625,-165.792 113.625,-154.911 113.625,-147.404"/>
<polygon fill="midnightblue" stroke="midnightblue" points="110.125,-175.199 113.625,-185.199 117.125,-175.199 110.125,-175.199"/>
</g>
</g>
</svg>
