<?xml version="1.0" encoding="UTF-8" standalone="no"?>
<!DOCTYPE svg PUBLIC "-//W3C//DTD SVG 1.1//EN"
 "http://www.w3.org/Graphics/SVG/1.1/DTD/svg11.dtd">
<!-- Generated by graphviz version 2.38.0 (20140413.2041)
 -->
<!-- Title: DBModel Pages: 1 -->
<svg width="164pt" height="86pt"
 viewBox="0.00 0.00 164.22 85.86" xmlns="http://www.w3.org/2000/svg" xmlns:xlink="http://www.w3.org/1999/xlink">
<g id="graph0" class="graph" transform="scale(1 1) rotate(0) translate(4 81.8599)">
<title>DBModel</title>
<!-- Node1 -->
<g id="node1" class="node"><title>Node1</title>
<polygon fill="#bfbfbf" stroke="black" points="43.74,-0.5 43.74,-20.4299 101.6,-20.4299 101.6,-0.5 43.74,-0.5"/>
<text text-anchor="middle" x="72.67" y="-8.42993" font-family="Helvetica Neue" font-size="10.00">DBModel</text>
</g>
<!-- Node2 -->
<g id="node2" class="node"><title>Node2</title>
<polygon fill="none" stroke="#bfbfbf" points="3.55271e-15,-57.4299 3.55271e-15,-77.3599 59.34,-77.3599 59.34,-57.4299 3.55271e-15,-57.4299"/>
<text text-anchor="middle" x="29.67" y="-65.3599" font-family="Helvetica Neue" font-size="10.00">NSObject</text>
</g>
<!-- Node2&#45;&gt;Node1 -->
<g id="edge1" class="edge"><title>Node2&#45;&gt;Node1</title>
<path fill="none" stroke="midnightblue" d="M43.0105,-49.3532C50.402,-39.911 59.3043,-28.5388 65.4152,-20.7326"/>
<polygon fill="midnightblue" stroke="midnightblue" points="40.1787,-47.2926 36.7706,-57.3243 45.6907,-51.6075 40.1787,-47.2926"/>
</g>
<!-- Node3 -->
<g id="node3" class="node"><title>Node3</title>
<polygon fill="none" stroke="#bfbfbf" points="77.115,-57.4299 77.115,-77.3599 156.225,-77.3599 156.225,-57.4299 77.115,-57.4299"/>
<text text-anchor="middle" x="116.67" y="-65.3599" font-family="Helvetica Neue" font-size="10.00">&lt;NSCopying&gt;</text>
</g>
<!-- Node3&#45;&gt;Node1 -->
<g id="edge2" class="edge"><title>Node3&#45;&gt;Node1</title>
<path fill="none" stroke="midnightblue" d="M103.019,-49.3532C95.4558,-39.911 86.3465,-28.5388 80.0936,-20.7326"/>
<polygon fill="midnightblue" stroke="midnightblue" points="100.421,-51.7077 109.404,-57.3243 105.884,-47.3314 100.421,-51.7077"/>
</g>
</g>
</svg>
