<?xml version="1.0" encoding="UTF-8" standalone="no"?>
<!DOCTYPE svg PUBLIC "-//W3C//DTD SVG 1.1//EN"
 "http://www.w3.org/Graphics/SVG/1.1/DTD/svg11.dtd">
<!-- Generated by graphviz version 2.38.0 (20140413.2041)
 -->
<!-- Title: DBConnection Pages: 1 -->
<svg width="258pt" height="143pt"
 viewBox="0.00 0.00 258.38 142.79" xmlns="http://www.w3.org/2000/svg" xmlns:xlink="http://www.w3.org/1999/xlink">
<g id="graph0" class="graph" transform="scale(1 1) rotate(0) translate(4 138.79)">
<title>DBConnection</title>
<!-- Node1 -->
<g id="node1" class="node"><title>Node1</title>
<polygon fill="#bfbfbf" stroke="black" points="86.815,-57.4299 86.815,-77.3599 168.195,-77.3599 168.195,-57.4299 86.815,-57.4299"/>
<text text-anchor="middle" x="127.505" y="-65.3599" font-family="Helvetica Neue" font-size="10.00">DBConnection</text>
</g>
<!-- Node3 -->
<g id="node3" class="node"><title>Node3</title>
<g id="a_node3"><a xlink:href="interface_d_b_postgres_connection.html" target="_top" xlink:title="DBPostgresConnection">
<polygon fill="none" stroke="black" points="-7.10543e-15,-0.5 -7.10543e-15,-20.4299 121.01,-20.4299 121.01,-0.5 -7.10543e-15,-0.5"/>
<text text-anchor="middle" x="60.505" y="-8.42993" font-family="Helvetica Neue" font-size="10.00">DBPostgresConnection</text>
</a>
</g>
</g>
<!-- Node1&#45;&gt;Node3 -->
<g id="edge2" class="edge"><title>Node1&#45;&gt;Node3</title>
<path fill="none" stroke="midnightblue" d="M108.462,-50.7826C96.6283,-41.0807 81.8164,-28.9371 71.8091,-20.7326"/>
<polygon fill="midnightblue" stroke="midnightblue" points="106.489,-53.6908 116.441,-57.3243 110.927,-48.2776 106.489,-53.6908"/>
</g>
<!-- Node4 -->
<g id="node4" class="node"><title>Node4</title>
<g id="a_node4"><a xlink:href="interface_d_b_s_q_lite_connection.html" target="_top" xlink:title="DBSQLiteConnection">
<polygon fill="none" stroke="black" points="138.625,-0.5 138.625,-20.4299 250.385,-20.4299 250.385,-0.5 138.625,-0.5"/>
<text text-anchor="middle" x="194.505" y="-8.42993" font-family="Helvetica Neue" font-size="10.00">DBSQLiteConnection</text>
</a>
</g>
</g>
<!-- Node1&#45;&gt;Node4 -->
<g id="edge3" class="edge"><title>Node1&#45;&gt;Node4</title>
<path fill="none" stroke="midnightblue" d="M146.548,-50.7826C158.382,-41.0807 173.194,-28.9371 183.201,-20.7326"/>
<polygon fill="midnightblue" stroke="midnightblue" points="144.083,-48.2776 138.569,-57.3243 148.521,-53.6908 144.083,-48.2776"/>
</g>
<!-- Node2 -->
<g id="node2" class="node"><title>Node2</title>
<polygon fill="none" stroke="#bfbfbf" points="97.835,-114.36 97.835,-134.29 157.175,-134.29 157.175,-114.36 97.835,-114.36"/>
<text text-anchor="middle" x="127.505" y="-122.29" font-family="Helvetica Neue" font-size="10.00">NSObject</text>
</g>
<!-- Node2&#45;&gt;Node1 -->
<g id="edge1" class="edge"><title>Node2&#45;&gt;Node1</title>
<path fill="none" stroke="midnightblue" d="M127.505,-104.232C127.505,-95.2345 127.505,-84.9112 127.505,-77.6625"/>
<polygon fill="midnightblue" stroke="midnightblue" points="124.005,-104.254 127.505,-114.254 131.005,-104.254 124.005,-104.254"/>
</g>
</g>
</svg>
