<?xml version="1.0" encoding="UTF-8" standalone="no"?>
<!DOCTYPE svg PUBLIC "-//W3C//DTD SVG 1.1//EN"
 "http://www.w3.org/Graphics/SVG/1.1/DTD/svg11.dtd">
<!-- Generated by graphviz version 2.38.0 (20140413.2041)
 -->
<!-- Title: DBQuery Pages: 1 -->
<svg width="155pt" height="225pt"
 viewBox="0.00 0.00 155.22 224.58" xmlns="http://www.w3.org/2000/svg" xmlns:xlink="http://www.w3.org/1999/xlink">
<g id="graph0" class="graph" transform="scale(1 1) rotate(0) translate(4 220.58)">
<title>DBQuery</title>
<!-- Node1 -->
<g id="node1" class="node"><title>Node1</title>
<polygon fill="#bfbfbf" stroke="black" points="6.295,-0.5 6.295,-20.4299 63.045,-20.4299 63.045,-0.5 6.295,-0.5"/>
<text text-anchor="middle" x="34.67" y="-8.42993" font-family="Helvetica Neue" font-size="10.00">DBQuery</text>
</g>
<!-- Node2 -->
<g id="node2" class="node"><title>Node2</title>
<polygon fill="none" stroke="#bfbfbf" points="3.55271e-15,-196.15 3.55271e-15,-216.08 59.34,-216.08 59.34,-196.15 3.55271e-15,-196.15"/>
<text text-anchor="middle" x="29.67" y="-204.08" font-family="Helvetica Neue" font-size="10.00">NSObject</text>
</g>
<!-- Node2&#45;&gt;Node1 -->
<g id="edge1" class="edge"><title>Node2&#45;&gt;Node1</title>
<path fill="none" stroke="midnightblue" d="M23.0709,-186.317C14.7065,-159.925 2.32353,-110.455 10.67,-68.8599 14.2823,-50.8579 23.6805,-31.4548 29.5873,-20.45"/>
<polygon fill="midnightblue" stroke="midnightblue" points="19.8568,-187.743 26.3375,-196.125 26.4981,-185.531 19.8568,-187.743"/>
</g>
<!-- Node4 -->
<g id="node4" class="node"><title>Node4</title>
<g id="a_node4"><a xlink:href="interface_d_b.html" target="_top" xlink:title="DB">
<polygon fill="none" stroke="black" points="19.725,-69.3599 19.725,-89.2898 49.615,-89.2898 49.615,-69.3599 19.725,-69.3599"/>
<text text-anchor="middle" x="34.67" y="-77.2898" font-family="Helvetica Neue" font-size="10.00">DB</text>
</a>
</g>
</g>
<!-- Node2&#45;&gt;Node4 -->
<g id="edge4" class="edge"><title>Node2&#45;&gt;Node4</title>
<path fill="none" stroke="midnightblue" d="M30.4386,-185.933C31.5301,-158.689 33.4872,-109.845 34.3002,-89.5548"/>
<polygon fill="midnightblue" stroke="midnightblue" points="26.9328,-186.008 30.0296,-196.14 33.9272,-186.288 26.9328,-186.008"/>
</g>
<!-- Node5 -->
<g id="node5" class="node"><title>Node5</title>
<g id="a_node5"><a xlink:href="interface_d_b_connection.html" target="_top" xlink:title="DBConnection">
<polygon fill="none" stroke="black" points="57.98,-138.22 57.98,-158.15 139.36,-158.15 139.36,-138.22 57.98,-138.22"/>
<text text-anchor="middle" x="98.67" y="-146.15" font-family="Helvetica Neue" font-size="10.00">DBConnection</text>
</a>
</g>
</g>
<!-- Node2&#45;&gt;Node5 -->
<g id="edge6" class="edge"><title>Node2&#45;&gt;Node5</title>
<path fill="none" stroke="midnightblue" d="M48.7079,-189.683C61.1258,-179.617 76.9134,-166.82 87.3822,-158.334"/>
<polygon fill="midnightblue" stroke="midnightblue" points="46.3206,-187.113 40.756,-196.129 50.7284,-192.551 46.3206,-187.113"/>
</g>
<!-- Node3 -->
<g id="node3" class="node"><title>Node3</title>
<polygon fill="none" stroke="#bfbfbf" points="68.115,-69.3599 68.115,-89.2898 147.225,-89.2898 147.225,-69.3599 68.115,-69.3599"/>
<text text-anchor="middle" x="107.67" y="-77.2898" font-family="Helvetica Neue" font-size="10.00">&lt;NSCopying&gt;</text>
</g>
<!-- Node3&#45;&gt;Node1 -->
<g id="edge2" class="edge"><title>Node3&#45;&gt;Node1</title>
<path fill="none" stroke="midnightblue" d="M98.6794,-60.232C94.4967,-53.0206 89.0325,-45.0078 82.67,-38.9299 74.7555,-31.3696 64.3713,-25.0963 55.2865,-20.463"/>
<polygon fill="midnightblue" stroke="midnightblue" points="95.7397,-62.1561 103.553,-69.3121 101.908,-58.8457 95.7397,-62.1561"/>
</g>
<!-- Node4&#45;&gt;Node1 -->
<g id="edge3" class="edge"><title>Node4&#45;&gt;Node1</title>
<path fill="none" stroke="#9a32cd" stroke-dasharray="5,2" d="M34.67,-58.9489C34.67,-46.3919 34.67,-30.6006 34.67,-20.7681"/>
<polygon fill="#9a32cd" stroke="#9a32cd" points="31.1701,-59.3078 34.67,-69.3078 38.1701,-59.3078 31.1701,-59.3078"/>
<text text-anchor="middle" x="56.805" y="-42.8599" font-family="Helvetica Neue" font-size="10.00"> database</text>
</g>
<!-- Node5&#45;&gt;Node4 -->
<g id="edge5" class="edge"><title>Node5&#45;&gt;Node4</title>
<path fill="none" stroke="#9a32cd" stroke-dasharray="5,2" d="M82.9998,-130.814C70.6089,-117.87 53.7555,-100.263 43.5752,-89.628"/>
<polygon fill="#9a32cd" stroke="#9a32cd" points="80.5954,-133.364 90.0387,-138.168 85.6521,-128.524 80.5954,-133.364"/>
<text text-anchor="middle" x="96.88" y="-111.72" font-family="Helvetica Neue" font-size="10.00"> connection</text>
</g>
</g>
</svg>
