<?xml version="1.0" encoding="UTF-8" standalone="no"?>
<!DOCTYPE svg PUBLIC "-//W3C//DTD SVG 1.1//EN"
 "http://www.w3.org/Graphics/SVG/1.1/DTD/svg11.dtd">
<!-- Generated by graphviz version 2.38.0 (20140413.2041)
 -->
<!-- Title: &lt;DBFilterableQuery&gt; Pages: 1 -->
<svg width="303pt" height="86pt"
 viewBox="0.00 0.00 303.50 85.86" xmlns="http://www.w3.org/2000/svg" xmlns:xlink="http://www.w3.org/1999/xlink">
<g id="graph0" class="graph" transform="scale(1 1) rotate(0) translate(4 81.8599)">
<title>&lt;DBFilterableQuery&gt;</title>
<!-- Node1 -->
<g id="node1" class="node"><title>Node1</title>
<polygon fill="#bfbfbf" stroke="black" points="90.8,-57.4299 90.8,-77.3599 200.47,-77.3599 200.47,-57.4299 90.8,-57.4299"/>
<text text-anchor="middle" x="145.635" y="-65.3599" font-family="Helvetica Neue" font-size="10.00">&lt;DBFilterableQuery&gt;</text>
</g>
<!-- Node2 -->
<g id="node2" class="node"><title>Node2</title>
<g id="a_node2"><a xlink:href="interface_d_b_delete_query.html" target="_top" xlink:title="DBDeleteQuery">
<polygon fill="none" stroke="black" points="-7.10543e-15,-0.5 -7.10543e-15,-20.4299 85.27,-20.4299 85.27,-0.5 -7.10543e-15,-0.5"/>
<text text-anchor="middle" x="42.635" y="-8.42993" font-family="Helvetica Neue" font-size="10.00">DBDeleteQuery</text>
</a>
</g>
</g>
<!-- Node1&#45;&gt;Node2 -->
<g id="edge1" class="edge"><title>Node1&#45;&gt;Node2</title>
<path fill="none" stroke="midnightblue" d="M119.69,-52.5582C100.889,-42.532 76.0034,-29.2604 59.6686,-20.549"/>
<polygon fill="midnightblue" stroke="midnightblue" points="118.156,-55.7069 128.627,-57.3243 121.45,-49.5303 118.156,-55.7069"/>
</g>
<!-- Node3 -->
<g id="node3" class="node"><title>Node3</title>
<g id="a_node3"><a xlink:href="interface_d_b_select_query.html" target="_top" xlink:title="DBSelectQuery">
<polygon fill="none" stroke="black" points="103.28,-0.5 103.28,-20.4299 187.99,-20.4299 187.99,-0.5 103.28,-0.5"/>
<text text-anchor="middle" x="145.635" y="-8.42993" font-family="Helvetica Neue" font-size="10.00">DBSelectQuery</text>
</a>
</g>
</g>
<!-- Node1&#45;&gt;Node3 -->
<g id="edge2" class="edge"><title>Node1&#45;&gt;Node3</title>
<path fill="none" stroke="midnightblue" d="M145.635,-47.3023C145.635,-38.3046 145.635,-27.9812 145.635,-20.7326"/>
<polygon fill="midnightblue" stroke="midnightblue" points="142.135,-47.3243 145.635,-57.3243 149.135,-47.3244 142.135,-47.3243"/>
</g>
<!-- Node4 -->
<g id="node4" class="node"><title>Node4</title>
<g id="a_node4"><a xlink:href="interface_d_b_update_query.html" target="_top" xlink:title="DBUpdateQuery">
<polygon fill="none" stroke="black" points="205.775,-0.5 205.775,-20.4299 295.495,-20.4299 295.495,-0.5 205.775,-0.5"/>
<text text-anchor="middle" x="250.635" y="-8.42993" font-family="Helvetica Neue" font-size="10.00">DBUpdateQuery</text>
</a>
</g>
</g>
<!-- Node1&#45;&gt;Node4 -->
<g id="edge3" class="edge"><title>Node1&#45;&gt;Node4</title>
<path fill="none" stroke="midnightblue" d="M172.084,-52.5582C191.249,-42.532 216.619,-29.2604 233.271,-20.549"/>
<polygon fill="midnightblue" stroke="midnightblue" points="170.212,-49.5876 162.974,-57.3243 173.457,-55.7901 170.212,-49.5876"/>
</g>
</g>
</svg>
