<?xml version="1.0" encoding="UTF-8" standalone="no"?>
<!DOCTYPE svg PUBLIC "-//W3C//DTD SVG 1.1//EN"
 "http://www.w3.org/Graphics/SVG/1.1/DTD/svg11.dtd">
<!-- Generated by graphviz version 2.38.0 (20140413.2041)
 -->
<!-- Title: &lt;DBSQLRepresentable&gt; Pages: 1 -->
<svg width="548pt" height="185pt"
 viewBox="0.00 0.00 547.76 184.93" xmlns="http://www.w3.org/2000/svg" xmlns:xlink="http://www.w3.org/1999/xlink">
<g id="graph0" class="graph" transform="scale(1 1) rotate(0) translate(4 180.93)">
<title>&lt;DBSQLRepresentable&gt;</title>
<!-- Node1 -->
<g id="node1" class="node"><title>Node1</title>
<polygon fill="#bfbfbf" stroke="black" points="107.34,-97.5 107.34,-117.43 233.51,-117.43 233.51,-97.5 107.34,-97.5"/>
<text text-anchor="middle" x="170.425" y="-105.43" font-family="Helvetica Neue" font-size="10.00">&lt;DBSQLRepresentable&gt;</text>
</g>
<!-- Node3 -->
<g id="node3" class="node"><title>Node3</title>
<g id="a_node3"><a xlink:href="interface_d_b_as.html" target="_top" xlink:title="DBAs">
<polygon fill="none" stroke="black" points="302.205,-156.5 302.205,-176.43 343.575,-176.43 343.575,-156.5 302.205,-156.5"/>
<text text-anchor="middle" x="322.89" y="-164.43" font-family="Helvetica Neue" font-size="10.00">DBAs</text>
</a>
</g>
</g>
<!-- Node1&#45;&gt;Node3 -->
<g id="edge2" class="edge"><title>Node1&#45;&gt;Node3</title>
<path fill="none" stroke="midnightblue" d="M205.729,-121.238C224.538,-128.756 248.281,-138.192 269.51,-146.465 280.212,-150.636 292.177,-155.211 301.967,-158.931"/>
<polygon fill="midnightblue" stroke="midnightblue" points="206.967,-117.964 196.383,-117.498 204.367,-124.463 206.967,-117.964"/>
</g>
<!-- Node4 -->
<g id="node4" class="node"><title>Node4</title>
<g id="a_node4"><a xlink:href="interface_d_b_column_definition.html" target="_top" xlink:title="DBColumnDefinition">
<polygon fill="none" stroke="black" points="269.51,-117.5 269.51,-137.43 376.27,-137.43 376.27,-117.5 269.51,-117.5"/>
<text text-anchor="middle" x="322.89" y="-125.43" font-family="Helvetica Neue" font-size="10.00">DBColumnDefinition</text>
</a>
</g>
</g>
<!-- Node1&#45;&gt;Node4 -->
<g id="edge3" class="edge"><title>Node1&#45;&gt;Node4</title>
<path fill="none" stroke="midnightblue" d="M243.95,-117.105C252.528,-118.245 261.153,-119.392 269.379,-120.485"/>
<polygon fill="midnightblue" stroke="midnightblue" points="244.303,-113.621 233.929,-115.773 243.38,-120.56 244.303,-113.621"/>
</g>
<!-- Node5 -->
<g id="node5" class="node"><title>Node5</title>
<g id="a_node5"><a xlink:href="interface_d_b_constraint.html" target="_top" xlink:title="DBConstraint">
<polygon fill="none" stroke="black" points="284.795,-78.5 284.795,-98.4299 360.985,-98.4299 360.985,-78.5 284.795,-78.5"/>
<text text-anchor="middle" x="322.89" y="-86.4299" font-family="Helvetica Neue" font-size="10.00">DBConstraint</text>
</a>
</g>
</g>
<!-- Node1&#45;&gt;Node5 -->
<g id="edge4" class="edge"><title>Node1&#45;&gt;Node5</title>
<path fill="none" stroke="midnightblue" d="M244.13,-98.2841C258.208,-96.5064 272.404,-94.7138 284.743,-93.1557"/>
<polygon fill="midnightblue" stroke="midnightblue" points="243.411,-94.847 233.929,-99.5723 244.288,-101.792 243.411,-94.847"/>
</g>
<!-- Node11 -->
<g id="node11" class="node"><title>Node11</title>
<g id="a_node11"><a xlink:href="interface_d_b_expression.html" target="_top" xlink:title="DBExpression">
<polygon fill="none" stroke="black" points="283.315,-39.5 283.315,-59.4299 362.465,-59.4299 362.465,-39.5 283.315,-39.5"/>
<text text-anchor="middle" x="322.89" y="-47.4299" font-family="Helvetica Neue" font-size="10.00">DBExpression</text>
</a>
</g>
</g>
<!-- Node1&#45;&gt;Node11 -->
<g id="edge10" class="edge"><title>Node1&#45;&gt;Node11</title>
<path fill="none" stroke="midnightblue" d="M206.792,-93.7151C225.441,-86.4773 248.705,-77.467 269.51,-69.465 277.959,-66.2152 287.182,-62.6871 295.502,-59.5118"/>
<polygon fill="midnightblue" stroke="midnightblue" points="205.281,-90.5473 197.226,-97.4297 207.815,-97.0726 205.281,-90.5473"/>
</g>
<!-- Node2 -->
<g id="node2" class="node"><title>Node2</title>
<polygon fill="none" stroke="#bfbfbf" points="-4.26326e-14,-97.5 -4.26326e-14,-117.43 71.34,-117.43 71.34,-97.5 -4.26326e-14,-97.5"/>
<text text-anchor="middle" x="35.67" y="-105.43" font-family="Helvetica Neue" font-size="10.00">&lt;NSObject&gt;</text>
</g>
<!-- Node2&#45;&gt;Node1 -->
<g id="edge1" class="edge"><title>Node2&#45;&gt;Node1</title>
<path fill="none" stroke="midnightblue" d="M81.6857,-107.465C89.9306,-107.465 98.6676,-107.465 107.308,-107.465"/>
<polygon fill="midnightblue" stroke="midnightblue" points="81.5498,-103.965 71.5498,-107.465 81.5498,-110.965 81.5498,-103.965"/>
</g>
<!-- Node6 -->
<g id="node6" class="node"><title>Node6</title>
<g id="a_node6"><a xlink:href="interface_d_b_default_constraint.html" target="_top" xlink:title="DBDefaultConstraint">
<polygon fill="none" stroke="black" points="422.085,-156.5 422.085,-176.43 529.945,-176.43 529.945,-156.5 422.085,-156.5"/>
<text text-anchor="middle" x="476.015" y="-164.43" font-family="Helvetica Neue" font-size="10.00">DBDefaultConstraint</text>
</a>
</g>
</g>
<!-- Node5&#45;&gt;Node6 -->
<g id="edge5" class="edge"><title>Node5&#45;&gt;Node6</title>
<path fill="none" stroke="midnightblue" d="M366.246,-102.7C369.74,-104.449 373.13,-106.369 376.27,-108.465 395.62,-121.381 392.565,-134.097 412.27,-146.465 418.661,-150.476 425.928,-153.749 433.193,-156.397"/>
<polygon fill="midnightblue" stroke="midnightblue" points="367.416,-99.3882 356.861,-98.4658 364.537,-105.769 367.416,-99.3882"/>
</g>
<!-- Node7 -->
<g id="node7" class="node"><title>Node7</title>
<g id="a_node7"><a xlink:href="interface_d_b_foreign_key_constraint.html" target="_top" xlink:title="DBForeignKeyConstraint">
<polygon fill="none" stroke="black" points="412.64,-117.5 412.64,-137.43 539.39,-137.43 539.39,-117.5 412.64,-117.5"/>
<text text-anchor="middle" x="476.015" y="-125.43" font-family="Helvetica Neue" font-size="10.00">DBForeignKeyConstraint</text>
</a>
</g>
</g>
<!-- Node5&#45;&gt;Node7 -->
<g id="edge6" class="edge"><title>Node5&#45;&gt;Node7</title>
<path fill="none" stroke="midnightblue" d="M371.211,-100.677C392.13,-106.075 416.422,-112.344 436.245,-117.46"/>
<polygon fill="midnightblue" stroke="midnightblue" points="371.804,-97.2153 361.247,-98.1054 370.055,-103.993 371.804,-97.2153"/>
</g>
<!-- Node8 -->
<g id="node8" class="node"><title>Node8</title>
<g id="a_node8"><a xlink:href="interface_d_b_not_null_constraint.html" target="_top" xlink:title="DBNotNullConstraint">
<polygon fill="none" stroke="black" points="421.255,-78.5 421.255,-98.4299 530.775,-98.4299 530.775,-78.5 421.255,-78.5"/>
<text text-anchor="middle" x="476.015" y="-86.4299" font-family="Helvetica Neue" font-size="10.00">DBNotNullConstraint</text>
</a>
</g>
</g>
<!-- Node5&#45;&gt;Node8 -->
<g id="edge7" class="edge"><title>Node5&#45;&gt;Node8</title>
<path fill="none" stroke="midnightblue" d="M371.298,-88.465C387.066,-88.465 404.742,-88.465 420.972,-88.465"/>
<polygon fill="midnightblue" stroke="midnightblue" points="371.247,-84.9651 361.247,-88.465 371.247,-91.9651 371.247,-84.9651"/>
</g>
<!-- Node9 -->
<g id="node9" class="node"><title>Node9</title>
<g id="a_node9"><a xlink:href="interface_d_b_primary_key_constraint.html" target="_top" xlink:title="DBPrimaryKeyConstraint">
<polygon fill="none" stroke="black" points="412.27,-39.5 412.27,-59.4299 539.76,-59.4299 539.76,-39.5 412.27,-39.5"/>
<text text-anchor="middle" x="476.015" y="-47.4299" font-family="Helvetica Neue" font-size="10.00">DBPrimaryKeyConstraint</text>
</a>
</g>
</g>
<!-- Node5&#45;&gt;Node9 -->
<g id="edge8" class="edge"><title>Node5&#45;&gt;Node9</title>
<path fill="none" stroke="midnightblue" d="M371.211,-76.2531C392.13,-70.8547 416.422,-64.5857 436.245,-59.47"/>
<polygon fill="midnightblue" stroke="midnightblue" points="370.055,-72.9367 361.247,-78.8245 371.804,-79.7146 370.055,-72.9367"/>
</g>
<!-- Node10 -->
<g id="node10" class="node"><title>Node10</title>
<g id="a_node10"><a xlink:href="interface_d_b_unique_constraint.html" target="_top" xlink:title="DBUniqueConstraint">
<polygon fill="none" stroke="black" points="421.99,-0.5 421.99,-20.4299 530.04,-20.4299 530.04,-0.5 421.99,-0.5"/>
<text text-anchor="middle" x="476.015" y="-8.42993" font-family="Helvetica Neue" font-size="10.00">DBUniqueConstraint</text>
</a>
</g>
</g>
<!-- Node5&#45;&gt;Node10 -->
<g id="edge9" class="edge"><title>Node5&#45;&gt;Node10</title>
<path fill="none" stroke="midnightblue" d="M366.246,-74.2296C369.74,-72.4806 373.13,-70.5608 376.27,-68.465 395.62,-55.549 392.565,-42.8325 412.27,-30.465 418.661,-26.4535 425.928,-23.1811 433.193,-20.5333"/>
<polygon fill="midnightblue" stroke="midnightblue" points="364.537,-71.1611 356.861,-78.4641 367.416,-77.5417 364.537,-71.1611"/>
</g>
</g>
</svg>
