<?xml version="1.0" encoding="UTF-8" standalone="no"?>
<!DOCTYPE svg PUBLIC "-//W3C//DTD SVG 1.1//EN"
 "http://www.w3.org/Graphics/SVG/1.1/DTD/svg11.dtd">
<!-- Generated by graphviz version 2.38.0 (20140413.2041)
 -->
<!-- Title: &lt;DBTableQuery&gt; Pages: 1 -->
<svg width="471pt" height="222pt"
 viewBox="0.00 0.00 471.46 221.93" xmlns="http://www.w3.org/2000/svg" xmlns:xlink="http://www.w3.org/1999/xlink">
<g id="graph0" class="graph" transform="scale(1 1) rotate(0) translate(4 217.93)">
<title>&lt;DBTableQuery&gt;</title>
<!-- Node1 -->
<g id="node1" class="node"><title>Node1</title>
<polygon fill="#bfbfbf" stroke="black" points="107.34,-95.5 107.34,-115.43 199.61,-115.43 199.61,-95.5 107.34,-95.5"/>
<text text-anchor="middle" x="153.475" y="-103.43" font-family="Helvetica Neue" font-size="10.00">&lt;DBTableQuery&gt;</text>
</g>
<!-- Node3 -->
<g id="node3" class="node"><title>Node3</title>
<g id="a_node3"><a xlink:href="interface_d_b_alter_table_query.html" target="_top" xlink:title="DBAlterTableQuery">
<polygon fill="none" stroke="black" points="236.265,-193.5 236.265,-213.43 337.085,-213.43 337.085,-193.5 236.265,-193.5"/>
<text text-anchor="middle" x="286.675" y="-201.43" font-family="Helvetica Neue" font-size="10.00">DBAlterTableQuery</text>
</a>
</g>
</g>
<!-- Node1&#45;&gt;Node3 -->
<g id="edge2" class="edge"><title>Node1&#45;&gt;Node3</title>
<path fill="none" stroke="midnightblue" d="M169.353,-123.326C184.532,-140.619 209.505,-166.626 235.61,-183.465 241.588,-187.321 248.429,-190.65 255.093,-193.425"/>
<polygon fill="midnightblue" stroke="midnightblue" points="171.898,-120.918 162.726,-115.615 166.589,-125.48 171.898,-120.918"/>
</g>
<!-- Node4 -->
<g id="node4" class="node"><title>Node4</title>
<g id="a_node4"><a xlink:href="interface_d_b_delete_query.html" target="_top" xlink:title="DBDeleteQuery">
<polygon fill="none" stroke="black" points="244.04,-154.5 244.04,-174.43 329.31,-174.43 329.31,-154.5 244.04,-154.5"/>
<text text-anchor="middle" x="286.675" y="-162.43" font-family="Helvetica Neue" font-size="10.00">DBDeleteQuery</text>
</a>
</g>
</g>
<!-- Node1&#45;&gt;Node4 -->
<g id="edge3" class="edge"><title>Node1&#45;&gt;Node4</title>
<path fill="none" stroke="midnightblue" d="M183.333,-119.925C198.732,-127.492 218.074,-136.758 235.61,-144.465 243.322,-147.854 251.799,-151.332 259.551,-154.418"/>
<polygon fill="midnightblue" stroke="midnightblue" points="184.821,-116.757 174.305,-115.463 181.719,-123.032 184.821,-116.757"/>
</g>
<!-- Node5 -->
<g id="node5" class="node"><title>Node5</title>
<g id="a_node5"><a xlink:href="interface_d_b_drop_table_query.html" target="_top" xlink:title="DBDropTableQuery">
<polygon fill="none" stroke="black" points="235.61,-115.5 235.61,-135.43 337.74,-135.43 337.74,-115.5 235.61,-115.5"/>
<text text-anchor="middle" x="286.675" y="-123.43" font-family="Helvetica Neue" font-size="10.00">DBDropTableQuery</text>
</a>
</g>
</g>
<!-- Node1&#45;&gt;Node5 -->
<g id="edge4" class="edge"><title>Node1&#45;&gt;Node5</title>
<path fill="none" stroke="midnightblue" d="M209.57,-113.864C218.168,-115.174 227.014,-116.523 235.495,-117.816"/>
<polygon fill="midnightblue" stroke="midnightblue" points="210.04,-110.395 199.627,-112.348 208.985,-117.315 210.04,-110.395"/>
</g>
<!-- Node6 -->
<g id="node6" class="node"><title>Node6</title>
<g id="a_node6"><a xlink:href="interface_d_b_insert_query.html" target="_top" xlink:title="DBInsertQuery">
<polygon fill="none" stroke="black" points="245.8,-76.5 245.8,-96.4299 327.55,-96.4299 327.55,-76.5 245.8,-76.5"/>
<text text-anchor="middle" x="286.675" y="-84.4299" font-family="Helvetica Neue" font-size="10.00">DBInsertQuery</text>
</a>
</g>
</g>
<!-- Node1&#45;&gt;Node6 -->
<g id="edge5" class="edge"><title>Node1&#45;&gt;Node6</title>
<path fill="none" stroke="midnightblue" d="M209.642,-97.4759C221.746,-95.723 234.336,-93.8998 245.707,-92.2531"/>
<polygon fill="midnightblue" stroke="midnightblue" points="209.022,-94.0291 199.627,-98.9262 210.025,-100.957 209.022,-94.0291"/>
</g>
<!-- Node7 -->
<g id="node7" class="node"><title>Node7</title>
<g id="a_node7"><a xlink:href="interface_d_b_update_query.html" target="_top" xlink:title="DBUpdateQuery">
<polygon fill="none" stroke="black" points="373.74,-57.5 373.74,-77.4299 463.46,-77.4299 463.46,-57.5 373.74,-57.5"/>
<text text-anchor="middle" x="418.6" y="-65.4299" font-family="Helvetica Neue" font-size="10.00">DBUpdateQuery</text>
</a>
</g>
</g>
<!-- Node1&#45;&gt;Node7 -->
<g id="edge8" class="edge"><title>Node1&#45;&gt;Node7</title>
<path fill="none" stroke="midnightblue" d="M179.446,-90.2686C194.991,-81.7152 215.744,-71.8866 235.61,-67.465 281.871,-57.1683 336.401,-58.9381 373.628,-62.169"/>
<polygon fill="midnightblue" stroke="midnightblue" points="177.45,-87.3774 170.495,-95.3697 180.916,-93.4591 177.45,-87.3774"/>
</g>
<!-- Node8 -->
<g id="node8" class="node"><title>Node8</title>
<g id="a_node8"><a xlink:href="interface_d_b_select_query.html" target="_top" xlink:title="DBSelectQuery">
<polygon fill="none" stroke="black" points="244.32,-0.5 244.32,-20.4299 329.03,-20.4299 329.03,-0.5 244.32,-0.5"/>
<text text-anchor="middle" x="286.675" y="-8.42993" font-family="Helvetica Neue" font-size="10.00">DBSelectQuery</text>
</a>
</g>
</g>
<!-- Node1&#45;&gt;Node8 -->
<g id="edge7" class="edge"><title>Node1&#45;&gt;Node8</title>
<path fill="none" stroke="midnightblue" d="M171.611,-87.9739C187.301,-72.5934 211.658,-50.2588 235.61,-34.465 243.577,-29.2119 252.869,-24.4326 261.27,-20.5461"/>
<polygon fill="midnightblue" stroke="midnightblue" points="168.86,-85.7747 164.245,-95.3116 173.8,-90.7342 168.86,-85.7747"/>
</g>
<!-- Node2 -->
<g id="node2" class="node"><title>Node2</title>
<polygon fill="none" stroke="#bfbfbf" points="1.42109e-14,-95.5 1.42109e-14,-115.43 71.34,-115.43 71.34,-95.5 1.42109e-14,-95.5"/>
<text text-anchor="middle" x="35.67" y="-103.43" font-family="Helvetica Neue" font-size="10.00">&lt;NSObject&gt;</text>
</g>
<!-- Node2&#45;&gt;Node1 -->
<g id="edge1" class="edge"><title>Node2&#45;&gt;Node1</title>
<path fill="none" stroke="midnightblue" d="M81.4169,-105.465C89.8169,-105.465 98.6068,-105.465 107.028,-105.465"/>
<polygon fill="midnightblue" stroke="midnightblue" points="81.4154,-101.965 71.4153,-105.465 81.4153,-108.965 81.4154,-101.965"/>
</g>
<!-- Node6&#45;&gt;Node7 -->
<g id="edge6" class="edge"><title>Node6&#45;&gt;Node7</title>
<path fill="none" stroke="midnightblue" d="M337.806,-79.1338C349.534,-77.4188 361.943,-75.6042 373.391,-73.93"/>
<polygon fill="midnightblue" stroke="midnightblue" points="337.105,-75.6991 327.717,-80.6093 338.118,-82.6254 337.105,-75.6991"/>
</g>
</g>
</svg>
