<?xml version="1.0" encoding="UTF-8" standalone="no"?>
<!DOCTYPE svg PUBLIC "-//W3C//DTD SVG 1.1//EN"
 "http://www.w3.org/Graphics/SVG/1.1/DTD/svg11.dtd">
<!-- Generated by graphviz version 2.38.0 (20140413.2041)
 -->
<!-- Title: &lt;DBTableQuery&gt; Pages: 1 -->
<svg width="252pt" height="293pt"
 viewBox="0.00 0.00 252.36 293.44" xmlns="http://www.w3.org/2000/svg" xmlns:xlink="http://www.w3.org/1999/xlink">
<g id="graph0" class="graph" transform="scale(1 1) rotate(0) translate(4 289.439)">
<title>&lt;DBTableQuery&gt;</title>
<!-- Node1 -->
<g id="node1" class="node"><title>Node1</title>
<polygon fill="#bfbfbf" stroke="black" points="17.535,-0.5 17.535,-20.4299 109.805,-20.4299 109.805,-0.5 17.535,-0.5"/>
<text text-anchor="middle" x="63.67" y="-8.42993" font-family="Helvetica Neue" font-size="10.00">&lt;DBTableQuery&gt;</text>
</g>
<!-- Node2 -->
<g id="node2" class="node"><title>Node2</title>
<polygon fill="none" stroke="#bfbfbf" points="0,-69.3599 0,-89.2898 71.34,-89.2898 71.34,-69.3599 0,-69.3599"/>
<text text-anchor="middle" x="35.67" y="-77.2898" font-family="Helvetica Neue" font-size="10.00">&lt;NSObject&gt;</text>
</g>
<!-- Node2&#45;&gt;Node1 -->
<g id="edge1" class="edge"><title>Node2&#45;&gt;Node1</title>
<path fill="none" stroke="midnightblue" d="M43.4641,-59.7136C48.7721,-47.0389 55.5722,-30.8013 59.774,-20.7681"/>
<polygon fill="midnightblue" stroke="midnightblue" points="40.0807,-58.732 39.4462,-69.3078 46.5374,-61.436 40.0807,-58.732"/>
</g>
<!-- Node3 -->
<g id="node3" class="node"><title>Node3</title>
<g id="a_node3"><a xlink:href="interface_d_b_table.html" target="_top" xlink:title="DBTable">
<polygon fill="none" stroke="black" points="88.965,-69.3599 88.965,-89.2898 142.375,-89.2898 142.375,-69.3599 88.965,-69.3599"/>
<text text-anchor="middle" x="115.67" y="-77.2898" font-family="Helvetica Neue" font-size="10.00">DBTable</text>
</a>
</g>
</g>
<!-- Node3&#45;&gt;Node1 -->
<g id="edge2" class="edge"><title>Node3&#45;&gt;Node1</title>
<path fill="none" stroke="#9a32cd" stroke-dasharray="5,2" d="M102.364,-61.2168C92.3555,-48.3479 79.0209,-31.2026 70.9055,-20.7681"/>
<polygon fill="#9a32cd" stroke="#9a32cd" points="99.755,-63.5629 108.657,-69.3078 105.281,-59.2654 99.755,-63.5629"/>
<text text-anchor="middle" x="106.08" y="-42.8599" font-family="Helvetica Neue" font-size="10.00"> table</text>
</g>
<!-- Node4 -->
<g id="node4" class="node"><title>Node4</title>
<polygon fill="none" stroke="#bfbfbf" points="105,-265.01 105,-284.939 164.34,-284.939 164.34,-265.01 105,-265.01"/>
<text text-anchor="middle" x="134.67" y="-272.939" font-family="Helvetica Neue" font-size="10.00">NSObject</text>
</g>
<!-- Node4&#45;&gt;Node3 -->
<g id="edge3" class="edge"><title>Node4&#45;&gt;Node3</title>
<path fill="none" stroke="midnightblue" d="M130.508,-254.72C125.81,-231.92 118.459,-192.733 115.67,-158.65 113.63,-133.713 114.522,-104.16 115.186,-89.509"/>
<polygon fill="midnightblue" stroke="midnightblue" points="127.139,-255.707 132.627,-264.77 133.988,-254.263 127.139,-255.707"/>
</g>
<!-- Node5 -->
<g id="node5" class="node"><title>Node5</title>
<g id="a_node5"><a xlink:href="interface_d_b.html" target="_top" xlink:title="DB">
<polygon fill="none" stroke="black" points="124.725,-138.22 124.725,-158.15 154.615,-158.15 154.615,-138.22 124.725,-138.22"/>
<text text-anchor="middle" x="139.67" y="-146.15" font-family="Helvetica Neue" font-size="10.00">DB</text>
</a>
</g>
</g>
<!-- Node4&#45;&gt;Node5 -->
<g id="edge5" class="edge"><title>Node4&#45;&gt;Node5</title>
<path fill="none" stroke="midnightblue" d="M135.439,-254.793C136.53,-227.549 138.487,-178.705 139.3,-158.415"/>
<polygon fill="midnightblue" stroke="midnightblue" points="131.933,-254.868 135.03,-265 138.927,-255.148 131.933,-254.868"/>
</g>
<!-- Node6 -->
<g id="node6" class="node"><title>Node6</title>
<g id="a_node6"><a xlink:href="interface_d_b_connection.html" target="_top" xlink:title="DBConnection">
<polygon fill="none" stroke="black" points="162.98,-207.08 162.98,-227.01 244.36,-227.01 244.36,-207.08 162.98,-207.08"/>
<text text-anchor="middle" x="203.67" y="-215.01" font-family="Helvetica Neue" font-size="10.00">DBConnection</text>
</a>
</g>
</g>
<!-- Node4&#45;&gt;Node6 -->
<g id="edge7" class="edge"><title>Node4&#45;&gt;Node6</title>
<path fill="none" stroke="midnightblue" d="M153.708,-258.543C166.126,-248.477 181.913,-235.68 192.382,-227.194"/>
<polygon fill="midnightblue" stroke="midnightblue" points="151.321,-255.972 145.756,-264.988 155.728,-261.41 151.321,-255.972"/>
</g>
<!-- Node5&#45;&gt;Node3 -->
<g id="edge4" class="edge"><title>Node5&#45;&gt;Node3</title>
<path fill="none" stroke="#9a32cd" stroke-dasharray="5,2" d="M132.989,-128.573C128.44,-115.899 122.611,-99.6611 119.009,-89.628"/>
<polygon fill="#9a32cd" stroke="#9a32cd" points="129.76,-129.938 136.433,-138.168 136.349,-127.573 129.76,-129.938"/>
<text text-anchor="middle" x="150.805" y="-111.72" font-family="Helvetica Neue" font-size="10.00"> database</text>
</g>
<!-- Node6&#45;&gt;Node5 -->
<g id="edge6" class="edge"><title>Node6&#45;&gt;Node5</title>
<path fill="none" stroke="#9a32cd" stroke-dasharray="5,2" d="M188,-199.674C175.609,-186.73 158.755,-169.123 148.575,-158.488"/>
<polygon fill="#9a32cd" stroke="#9a32cd" points="185.595,-202.224 195.039,-207.028 190.652,-197.383 185.595,-202.224"/>
<text text-anchor="middle" x="200.88" y="-180.58" font-family="Helvetica Neue" font-size="10.00"> connection</text>
</g>
</g>
</svg>
